<svg width="413" height="382" viewBox="0 0 413 382" fill="none" xmlns="http://www.w3.org/2000/svg">
<g opacity="0.6">
<path d="M32.214 220.955L43.0346 220.707L48.5688 220.625C50.386 220.625 52.2858 220.625 54.103 220.542H54.4334V220.873L54.516 230.124V230.537H54.103L43.1998 230.454C39.5654 230.454 35.931 230.372 32.2966 230.289H32.0488V230.041C32.0488 228.472 32.1314 226.902 32.1314 225.333L32.214 220.955ZM32.214 220.955L32.2966 225.663C32.2966 227.233 32.3792 228.72 32.3792 230.206L32.1314 229.959C35.7658 229.876 39.4002 229.793 43.0346 229.793L53.9378 229.711L53.5248 230.124L53.6074 220.873L53.9378 221.203C52.1206 221.203 50.3034 221.203 48.5688 221.12L43.1172 221.038L32.214 220.955Z" fill="#EBEBEB"/>
<path d="M237.58 149.673H259.469V140.421H237.58V149.673Z" fill="#EBEBEB"/>
<path d="M249.782 128.774L260.603 128.526L266.137 128.443C267.954 128.443 269.854 128.443 271.671 128.361H272.002V128.691L272.084 137.942V138.355H271.671L260.768 138.273C257.134 138.273 253.499 138.19 249.865 138.107H249.617V137.86C249.617 136.29 249.7 134.721 249.7 133.151L249.782 128.774ZM249.782 128.774L249.865 133.482C249.865 135.051 249.948 136.538 249.948 138.025L249.7 137.777C253.334 137.694 256.969 137.612 260.603 137.612L271.506 137.529L271.093 137.942L271.176 128.691L271.506 129.021C269.689 129.021 267.872 129.021 266.137 128.939L260.686 128.856L249.782 128.774Z" fill="#EBEBEB"/>
<path d="M225.415 128.774L236.236 128.526L241.77 128.443C243.587 128.443 245.487 128.443 247.304 128.361H247.635V128.691L247.717 137.942V138.355H247.304L236.401 138.273C232.767 138.273 229.132 138.19 225.498 138.107H225.25V137.86C225.25 136.29 225.333 134.721 225.333 133.151L225.415 128.774ZM225.415 128.774L225.498 133.482C225.498 135.051 225.58 136.538 225.58 138.025L225.333 137.777C228.967 137.694 232.601 137.612 236.236 137.612L247.139 137.529L246.726 137.942L246.809 128.691L247.139 129.021C245.322 129.021 243.505 129.021 241.77 128.939L236.318 128.856L225.415 128.774Z" fill="#EBEBEB"/>
<path d="M368.644 49.4776L357.823 49.7254L352.289 49.808C350.472 49.808 348.572 49.808 346.755 49.8906H346.424V49.5602L346.342 40.309V39.896H346.755L357.658 39.9786C361.292 39.9786 364.927 40.0612 368.561 40.1438H368.809V40.3916C368.809 41.961 368.726 43.5304 368.726 45.0998L368.644 49.4776ZM368.644 49.4776L368.561 44.7694C368.561 43.2 368.479 41.7132 368.479 40.2264L368.726 40.4742C365.092 40.5568 361.458 40.6394 357.823 40.6394L346.92 40.722L347.333 40.309L347.25 49.5602L346.92 49.2298C348.737 49.2298 350.554 49.2298 352.289 49.3124L357.741 49.395L368.644 49.4776Z" fill="#EBEBEB"/>
<path d="M380.869 51.9556H358.98V61.2068H380.869V51.9556Z" fill="#EBEBEB"/>
<path d="M54.0208 49.5604L43.2001 49.8082L37.6659 49.8908C35.8487 49.8908 33.949 49.8908 32.1317 49.9734H31.8013V49.643L31.7188 40.3918V39.9788H32.1317L43.0349 40.0614C46.6693 40.0614 50.3038 40.144 53.9382 40.2266H54.1859V40.4744C54.1859 42.0438 54.1033 43.6132 54.1033 45.1826L54.0208 49.5604ZM54.0208 49.5604L53.9382 44.8522C53.9382 43.2828 53.8555 41.796 53.8555 40.3092L54.1033 40.557C50.4689 40.6396 46.8345 40.7222 43.2001 40.7222H32.2143L32.6273 40.3092L32.5447 49.5604L32.2143 49.1474C34.0315 49.1474 35.8487 49.1474 37.5833 49.23L43.0349 49.3126L54.0208 49.5604Z" fill="#EBEBEB"/>
<path d="M279.103 294.912H300.992V285.661H279.103V294.912Z" fill="#EBEBEB"/>
<path d="M358.98 224.424L369.8 224.177L375.334 224.094C377.152 224.094 379.051 224.094 380.869 224.011H381.199V224.342L381.282 233.593V234.006H380.869L369.965 233.923C366.331 233.923 362.697 233.841 359.062 233.758H358.814V233.51C358.814 231.941 358.897 230.372 358.897 228.802L358.98 224.424ZM358.98 224.424L359.062 229.133C359.062 230.702 359.145 232.189 359.145 233.676L358.897 233.428C362.531 233.345 366.166 233.263 369.8 233.263L380.703 233.18L380.29 233.593L380.373 224.342L380.703 224.672C378.886 224.672 377.069 224.672 375.334 224.59L369.883 224.507L358.98 224.424Z" fill="#EBEBEB"/>
<path d="M101.451 340.95H123.34V331.699H101.451V340.95Z" fill="#EBEBEB"/>
<path d="M291.331 273.984L302.152 273.736L307.686 273.654C309.503 273.654 311.403 273.654 313.22 273.571H313.551V273.902L313.633 283.153V283.566H313.22L302.317 283.483C298.683 283.483 295.048 283.401 291.414 283.318H291.166V283.07C291.166 281.501 291.249 279.931 291.249 278.362L291.331 273.984ZM291.331 273.984L291.414 278.692C291.414 280.262 291.496 281.749 291.496 283.235L291.249 282.988C294.883 282.905 298.517 282.822 302.152 282.822L313.055 282.74L312.642 283.153L312.725 273.902L313.055 274.232C311.238 274.232 309.421 274.232 307.686 274.149L302.234 274.067L291.331 273.984Z" fill="#EBEBEB"/>
<path d="M45.4291 129.021C46.4203 128.443 47.6593 128.443 48.6505 129.021C48.8983 129.187 49.2287 129.352 49.4765 129.517C49.7243 129.682 50.0547 129.847 50.3025 129.93C51.3763 130.426 52.0371 131.417 52.1197 132.573L52.2849 136.538L65.2531 136.125L65.1705 132.077C65.1705 130.921 65.7487 129.847 66.8225 129.269C67.4007 128.939 67.8963 128.608 68.3919 128.278C69.3831 127.617 70.6221 127.535 71.6133 128.03L75.0825 129.93L81.1949 118.448L77.7257 116.549C76.6519 115.971 76.0737 114.897 76.0737 113.74C76.0737 113.079 76.0737 112.501 75.9911 111.84C75.9085 110.684 76.4041 109.528 77.3953 108.949L80.7819 106.802L73.9261 95.7335L70.5395 97.8811C69.5483 98.4593 68.3093 98.4593 67.3181 97.8811C67.0703 97.7159 66.7399 97.5507 66.4095 97.3855C66.0791 97.2203 65.8313 97.0551 65.5009 96.9725C64.4271 96.4769 63.7663 95.4857 63.7663 94.3293L63.6837 90.3645L50.8807 90.8601L51.0459 94.8249C51.0459 95.9813 50.4677 97.0551 49.4765 97.6333C48.8983 97.9637 48.3201 98.2941 47.7419 98.7071C46.8333 99.3679 45.5943 99.4505 44.6031 98.8723L41.1339 96.9725L35.0215 108.454L38.4907 110.354C39.5645 110.932 40.1427 112.006 40.1427 113.162C40.1427 113.823 40.1427 114.401 40.2253 115.062C40.3079 116.218 39.8123 117.375 38.8211 117.953L35.4345 120.1L42.2903 131.169L45.4291 129.021ZM48.0723 109.775C50.5503 103.25 58.5625 100.855 64.2619 104.902C68.1441 107.711 69.7135 112.832 67.9789 117.292C65.5009 123.818 57.5713 126.213 51.7893 122.165C47.9071 119.357 46.3377 114.236 48.0723 109.775Z" fill="#EBEBEB"/>
<path d="M378.225 203.692L373.682 195.845L371.286 197.249C370.543 197.662 369.717 197.579 369.056 197.166C368.643 196.918 368.313 196.671 367.9 196.505C367.156 196.175 366.743 195.432 366.743 194.606V191.797H357.657V194.606C357.657 195.432 357.162 196.175 356.501 196.505C356.088 196.671 355.675 196.918 355.344 197.166C354.684 197.579 353.775 197.662 353.114 197.249L350.719 195.845L346.176 203.692L348.571 205.096C349.315 205.509 349.645 206.252 349.645 207.078C349.645 207.326 349.645 207.491 349.645 207.739C349.645 207.987 349.645 208.152 349.645 208.4C349.728 209.226 349.315 209.969 348.571 210.382L346.176 211.786L350.719 219.633L353.114 218.229C353.858 217.816 354.684 217.899 355.344 218.312C355.757 218.56 356.088 218.807 356.501 218.973C357.244 219.303 357.657 220.046 357.657 220.872V223.681H366.743V220.872C366.743 220.046 367.239 219.303 367.9 218.973C368.313 218.807 368.726 218.56 369.056 218.312C369.717 217.899 370.625 217.816 371.286 218.229L373.682 219.633L378.225 211.786L375.829 210.382C375.086 209.969 374.755 209.226 374.755 208.4C374.755 208.152 374.755 207.987 374.755 207.739C374.755 207.491 374.755 207.326 374.755 207.078C374.673 206.252 375.086 205.509 375.829 205.096L378.225 203.692ZM369.469 207.822C369.469 211.952 366.165 215.256 362.035 215.256C357.905 215.256 354.601 211.952 354.601 207.822C354.601 203.692 357.905 200.388 362.035 200.388C366.165 200.305 369.469 203.692 369.469 207.822Z" fill="#EBEBEB"/>
<path d="M127.037 52.6988L122.494 44.8518L120.099 46.256C119.355 46.669 118.529 46.5864 117.868 46.1734C117.455 45.9256 117.125 45.6778 116.712 45.5126C115.969 45.1822 115.556 44.4388 115.556 43.6128V40.8044H106.47V43.6128C106.47 44.4388 105.974 45.1822 105.313 45.5126C104.9 45.6778 104.487 45.9256 104.157 46.1734C103.496 46.5864 102.587 46.669 101.927 46.256L99.5313 44.8518L94.9883 52.6988L97.3837 54.103C98.1271 54.516 98.4575 55.2594 98.4575 56.0854C98.4575 56.3332 98.4575 56.4984 98.4575 56.7462C98.4575 56.994 98.4575 57.1592 98.4575 57.407C98.5401 58.233 98.1271 58.9764 97.3837 59.3894L94.9883 60.7936L99.5313 68.6406L101.927 67.2364C102.67 66.8234 103.496 66.906 104.157 67.319C104.57 67.5668 104.9 67.8146 105.313 67.9798C106.057 68.3102 106.47 69.0536 106.47 69.8796V72.688H115.556V69.8796C115.556 69.0536 116.051 68.3102 116.712 67.9798C117.125 67.8146 117.538 67.5668 117.868 67.319C118.529 66.906 119.438 66.8234 120.099 67.2364L122.494 68.6406L127.037 60.7936L124.642 59.3894C123.898 58.9764 123.568 58.233 123.568 57.407C123.568 57.1592 123.568 56.994 123.568 56.7462C123.568 56.4984 123.568 56.3332 123.568 56.0854C123.485 55.2594 123.898 54.516 124.642 54.103L127.037 52.6988ZM118.281 56.8288C118.281 60.9588 114.977 64.2628 110.847 64.2628C106.717 64.2628 103.413 60.9588 103.413 56.8288C103.413 52.6988 106.717 49.3948 110.847 49.3948C114.977 49.3122 118.281 52.6988 118.281 56.8288Z" fill="#EBEBEB"/>
<path d="M68.6406 226.324V367.322H153.884V226.324H68.6406ZM76.405 278.527H146.202V315.202H76.405V278.527ZM76.405 233.097H146.202V269.772H76.405V233.097Z" fill="#DBDBDB"/>
<path d="M30.0684 367.292H68.6426L68.6426 226.294H30.0684L30.0684 367.292Z" fill="#EBEBEB"/>
<path d="M129.556 269.842H146.158V233.168H129.556V269.842Z" fill="#EBEBEB"/>
<path d="M76.3509 358.463H145.652V323.441H76.3509V358.463Z" stroke="#EBEBEB" stroke-width="0.5" stroke-miterlimit="10"/>
<path d="M104.106 338.361H117.9V333.322H104.106V338.361Z" fill="#EBEBEB"/>
<path d="M129.556 315.237H146.158V278.563H129.556V315.237Z" fill="#EBEBEB"/>
<path d="M97.6074 315.315V281.449H85.9608V315.315H97.6074Z" fill="#A6A6A6"/>
<path d="M97.5977 309.77V302.501H85.9511V309.77H97.5977Z" fill="#DBDBDB"/>
<path d="M97.5508 296.59V292.295H85.9042V296.59H97.5508Z" fill="#DBDBDB"/>
<path d="M62.3126 226.313H91.8008V197.981H62.3126V226.313Z" fill="#EBEBEB"/>
<path d="M51.0437 226.313H62.2773V197.981H51.0437V226.313Z" fill="#C7C7C7"/>
<path d="M91.7675 212.117H62.2793L85.3247 212.86L91.7675 212.117Z" fill="#C7C7C7"/>
<path d="M62.2793 222.855H91.7675L68.7221 223.598L62.2793 222.855Z" fill="#C7C7C7"/>
<path d="M91.7672 204.187H73.0996L89.7022 204.765L91.7672 204.187Z" fill="#C7C7C7"/>
<path d="M62.2793 218.642H80.9469L64.3443 219.303L62.2793 218.642Z" fill="#C7C7C7"/>
<path d="M84.7466 201.049H63.6836L67.1528 201.379L84.7466 201.049Z" fill="#C7C7C7"/>
<path d="M88.8769 215.173H67.8965L71.3657 215.503L88.8769 215.173Z" fill="#C7C7C7"/>
<path d="M75.9918 206.913H62.2802L59.8848 207.822L75.9918 206.913Z" fill="#EBEBEB"/>
<path d="M95.5679 206.913H81.8563L79.4609 207.822L95.5679 206.913Z" fill="#EBEBEB"/>
<path d="M77.9746 219.634H91.6862L94.0816 220.542L77.9746 219.634Z" fill="#EBEBEB"/>
<path d="M62.2796 216.412H51.2938L48.8984 217.321L62.2796 216.412Z" fill="#C7C7C7"/>
<path d="M58.4805 212.117H49.9727L51.1291 211.374L58.4805 212.117Z" fill="#C7C7C7"/>
<path d="M96.2989 269.81H125.787V241.478H96.2989V269.81Z" fill="#EBEBEB"/>
<path d="M85.1121 269.81H96.3457V241.478H85.1121V269.81Z" fill="#C7C7C7"/>
<path d="M125.799 255.647H96.3105L119.356 256.391L125.799 255.647Z" fill="#C7C7C7"/>
<path d="M96.3105 266.385H125.799L102.753 267.129L96.3105 266.385Z" fill="#C7C7C7"/>
<path d="M125.798 247.718H107.131L123.733 248.378L125.798 247.718Z" fill="#C7C7C7"/>
<path d="M96.3105 262.255H114.978L98.3755 262.833L96.3105 262.255Z" fill="#C7C7C7"/>
<path d="M118.696 244.579H97.6328L101.185 244.992L118.696 244.579Z" fill="#C7C7C7"/>
<path d="M122.909 258.703H101.846L105.397 259.034L122.909 258.703Z" fill="#C7C7C7"/>
<path d="M109.939 250.443H96.31L93.832 251.435L109.939 250.443Z" fill="#EBEBEB"/>
<path d="M129.515 250.443H115.886L113.408 251.435L129.515 250.443Z" fill="#EBEBEB"/>
<path d="M112.006 263.164H125.717L128.113 264.155L112.006 263.164Z" fill="#EBEBEB"/>
<path d="M96.3109 259.942H85.3251L82.9297 260.934L96.3109 259.942Z" fill="#C7C7C7"/>
<path d="M92.5117 255.647H84.0039L85.0777 254.904L92.5117 255.647Z" fill="#C7C7C7"/>
<path d="M85.9878 279.188H76.4062V315.284H85.9878V279.188Z" fill="#EBEBEB"/>
<path d="M81.1133 286.292C82.1871 286.292 83.0957 285.383 83.0957 284.309C83.0957 283.236 82.1871 282.327 81.1133 282.327C80.0395 282.327 79.1309 283.236 79.1309 284.309C79.1309 285.383 80.0395 286.292 81.1133 286.292Z" fill="white"/>
<path d="M81.1134 285.466C81.7742 285.466 82.2698 284.97 82.2698 284.309C82.2698 283.648 81.7742 283.153 81.1134 283.153C80.4526 283.153 79.957 283.648 79.957 284.309C80.0396 284.97 80.5352 285.466 81.1134 285.466Z" fill="#A6A6A6"/>
<path d="M85.918 309.549V300.793H76.3364V309.549H85.918Z" fill="white"/>
<path d="M133.647 307.85H97.5508V315.367H133.647V307.85Z" fill="#C7C7C7"/>
<path d="M104.654 311.567C104.654 310.494 103.746 309.585 102.672 309.585C101.598 309.585 100.689 310.494 100.689 311.567C100.689 312.641 101.598 313.55 102.672 313.55C103.828 313.55 104.654 312.641 104.654 311.567Z" fill="white"/>
<path d="M103.828 311.567C103.828 310.907 103.333 310.411 102.672 310.411C102.011 310.411 101.516 310.907 101.516 311.567C101.516 312.228 102.011 312.724 102.672 312.724C103.333 312.724 103.828 312.228 103.828 311.567Z" fill="#A6A6A6"/>
<path d="M127.947 307.85H119.191V315.367H127.947V307.85Z" fill="white"/>
<path d="M220.873 85.4086L262.503 63.6022L246.396 35.353L204.766 57.1594L220.873 85.4086Z" fill="#C7C7C7"/>
<path d="M230.041 40.1437L244.744 32.4619L246.396 35.3529L230.867 43.5303L230.041 40.1437Z" fill="#C7C7C7"/>
<path d="M220.956 85.3261L262.504 63.5197L250.527 36.2617L208.896 58.0681L220.956 85.3261Z" fill="#DBDBDB"/>
<path d="M234.586 41.135L249.289 33.3706L250.528 36.2616L234.999 44.3564L234.586 41.135Z" fill="#DBDBDB"/>
<path d="M248.544 96.0638L305.208 86.4822L297.113 47.5776L240.449 57.1592L248.544 96.0638Z" fill="#DBDBDB"/>
<path d="M276.297 46.9169L296.286 43.5303L297.112 47.5777L275.967 51.1295L276.297 46.9169Z" fill="#DBDBDB"/>
<path d="M248.627 96.0638L305.208 86.4822L301.573 50.1382L244.992 59.8024L248.627 96.0638Z" fill="#EBEBEB"/>
<path d="M281.254 49.7252L301.243 46.3386L301.573 50.1382L280.428 53.69L281.254 49.7252Z" fill="#EBEBEB"/>
<path d="M30.0664 367.322L74.1748 367.074H118.283L206.5 366.909L294.717 367.074H338.825L382.934 367.322L338.825 367.487L294.717 367.57L206.5 367.735L118.283 367.57L74.1748 367.487L30.0664 367.322Z" fill="#263238"/>
<path d="M271.094 91.686C271.094 98.8722 276.628 104.654 283.649 105.232H360.467C369.305 105.232 376.409 98.1287 376.409 89.2906C376.409 80.9479 370.049 74.1748 361.954 73.4314C361.458 58.9764 349.646 47.4124 335.109 47.4124C323.545 47.4124 313.633 54.7637 309.916 65.0061C307.768 63.9324 305.373 63.3541 302.812 63.3541C294.304 63.3541 287.366 69.9622 286.87 78.3048C286.127 78.2222 285.384 78.1395 284.64 78.1395C277.124 78.1395 271.094 84.1693 271.094 91.686Z" fill="#979797"/>
<path opacity="0.1" d="M271.094 91.686C271.094 98.8722 276.628 104.654 283.649 105.232H360.467C369.305 105.232 376.409 98.1287 376.409 89.2906C376.409 80.9479 370.049 74.1748 361.954 73.4314C361.458 58.9764 349.646 47.4124 335.109 47.4124C323.545 47.4124 313.633 54.7637 309.916 65.0061C307.768 63.9324 305.373 63.3541 302.812 63.3541C294.304 63.3541 287.366 69.9622 286.87 78.3048C286.127 78.2222 285.384 78.1395 284.64 78.1395C277.124 78.1395 271.094 84.1693 271.094 91.686Z" fill="black"/>
<path d="M263.412 91.686C263.412 98.8722 268.946 104.654 275.967 105.232H352.785C361.624 105.232 368.727 98.1287 368.727 89.2906C368.727 80.9479 362.367 74.1748 354.272 73.4314C353.777 58.9764 341.965 47.4124 327.427 47.4124C315.863 47.4124 305.951 54.7637 302.234 65.0061C300.087 63.9324 297.691 63.3541 295.131 63.3541C286.623 63.3541 279.684 69.9622 279.189 78.3048C278.445 78.2222 277.702 78.1395 276.959 78.1395C269.525 78.1395 263.412 84.1693 263.412 91.686Z" fill="#9C9696"/>
<path d="M325.362 123.57H314.459C312.394 123.57 310.742 121.918 310.742 119.853V105.232H328.997V119.853C329.079 121.918 327.427 123.57 325.362 123.57Z" fill="#37474F"/>
<path d="M324.288 123.57H315.615V126.213H324.288V123.57Z" fill="#455A64"/>
<path d="M318.341 117.375C318.341 118.283 317.598 119.027 316.689 119.027C315.781 119.027 315.037 118.283 315.037 117.375C315.037 116.466 315.781 115.723 316.689 115.723C317.598 115.723 318.341 116.466 318.341 117.375Z" fill="white"/>
<path d="M324.784 117.375C324.784 118.283 324.041 119.027 323.132 119.027C322.224 119.027 321.48 118.283 321.48 117.375C321.48 116.466 322.224 115.723 323.132 115.723C324.041 115.723 324.784 116.466 324.784 117.375Z" fill="#FF9B95" fill-opacity="0.3523"/>
<path d="M320.82 107.876L318.838 110.849H319.829L318.838 113.41L320.985 110.354H319.912L320.82 107.876Z" fill="white"/>
<path d="M319.911 126.213V252.095C319.911 254.243 318.176 255.895 316.111 255.895H287.449" stroke="#FF9B95" stroke-opacity="0.3523" stroke-width="3" stroke-miterlimit="10"/>
<path d="M189.814 164.291H135.959V367.322H189.814V164.291Z" fill="#263238"/>
<path d="M288.934 164.291H189.814V367.322H288.934V164.291Z" fill="#37474F"/>
<path d="M282.657 340.973H197.166V360.714H282.657V340.973Z" fill="#37474F"/>
<path d="M249.452 344.277H200.801V345.929H249.452V344.277Z" fill="#455A64"/>
<path d="M249.452 347.168H200.801V348.82H249.452V347.168Z" fill="#455A64"/>
<path d="M249.452 349.976H200.801V351.628H249.452V349.976Z" fill="#455A64"/>
<path d="M249.452 352.867H200.801V354.519H249.452V352.867Z" fill="#455A64"/>
<path d="M249.452 355.758H200.801V357.41H249.452V355.758Z" fill="#455A64"/>
<path d="M256.638 347.581C257.551 347.581 258.29 346.841 258.29 345.929C258.29 345.016 257.551 344.277 256.638 344.277C255.726 344.277 254.986 345.016 254.986 345.929C254.986 346.841 255.726 347.581 256.638 347.581Z" fill="#FF9B95" fill-opacity="0.3523"/>
<path d="M263.741 345.929C263.741 346.837 262.998 347.581 262.089 347.581C261.181 347.581 260.438 346.837 260.438 345.929C260.438 345.02 261.181 344.277 262.089 344.277C262.998 344.277 263.741 345.02 263.741 345.929Z" fill="#FF9B95" fill-opacity="0.3523"/>
<path d="M269.193 345.929C269.193 346.837 268.449 347.581 267.541 347.581C266.632 347.581 265.889 346.837 265.889 345.929C265.889 345.02 266.632 344.277 267.541 344.277C268.449 344.277 269.193 345.02 269.193 345.929Z" fill="#FF9B95" fill-opacity="0.3523"/>
<path d="M272.994 347.581C273.906 347.581 274.646 346.841 274.646 345.929C274.646 345.016 273.906 344.277 272.994 344.277C272.081 344.277 271.342 345.016 271.342 345.929C271.342 346.841 272.081 347.581 272.994 347.581Z" fill="#EBEBEB"/>
<path d="M280.097 345.929C280.097 346.837 279.354 347.581 278.445 347.581C277.536 347.581 276.793 346.837 276.793 345.929C276.793 345.02 277.536 344.277 278.445 344.277C279.354 344.277 280.097 345.02 280.097 345.929Z" fill="#FF9B95" fill-opacity="0.3523"/>
<path d="M258.29 350.885C258.29 351.793 257.547 352.537 256.638 352.537C255.73 352.537 254.986 351.793 254.986 350.885C254.986 349.976 255.73 349.233 256.638 349.233C257.547 349.233 258.29 349.976 258.29 350.885Z" fill="#EBEBEB"/>
<path d="M263.741 350.885C263.741 351.793 262.998 352.537 262.089 352.537C261.181 352.537 260.438 351.793 260.438 350.885C260.438 349.976 261.181 349.233 262.089 349.233C262.998 349.233 263.741 349.976 263.741 350.885Z" fill="#FF9B95" fill-opacity="0.3523"/>
<path d="M269.193 350.885C269.193 351.793 268.449 352.537 267.541 352.537C266.632 352.537 265.889 351.793 265.889 350.885C265.889 349.976 266.632 349.233 267.541 349.233C268.449 349.233 269.193 349.976 269.193 350.885Z" fill="#FF9B95" fill-opacity="0.3523"/>
<path d="M274.646 350.885C274.646 351.793 273.902 352.537 272.994 352.537C272.085 352.537 271.342 351.793 271.342 350.885C271.342 349.976 272.085 349.233 272.994 349.233C273.902 349.233 274.646 349.976 274.646 350.885Z" fill="#EBEBEB"/>
<path d="M280.097 350.885C280.097 351.793 279.354 352.537 278.445 352.537C277.536 352.537 276.793 351.793 276.793 350.885C276.793 349.976 277.536 349.233 278.445 349.233C279.354 349.233 280.097 349.976 280.097 350.885Z" fill="#EBEBEB"/>
<path d="M256.638 357.493C257.551 357.493 258.29 356.753 258.29 355.841C258.29 354.928 257.551 354.189 256.638 354.189C255.726 354.189 254.986 354.928 254.986 355.841C254.986 356.753 255.726 357.493 256.638 357.493Z" fill="#FF9B95" fill-opacity="0.3523"/>
<path d="M263.741 355.841C263.741 356.749 262.998 357.493 262.089 357.493C261.181 357.493 260.438 356.749 260.438 355.841C260.438 354.932 261.181 354.189 262.089 354.189C262.998 354.189 263.741 354.932 263.741 355.841Z" fill="#EBEBEB"/>
<path d="M269.193 355.841C269.193 356.749 268.449 357.493 267.541 357.493C266.632 357.493 265.889 356.749 265.889 355.841C265.889 354.932 266.632 354.189 267.541 354.189C268.449 354.189 269.193 354.932 269.193 355.841Z" fill="#FF9B95" fill-opacity="0.3523"/>
<path d="M272.994 357.493C273.906 357.493 274.646 356.753 274.646 355.841C274.646 354.928 273.906 354.189 272.994 354.189C272.081 354.189 271.342 354.928 271.342 355.841C271.342 356.753 272.081 357.493 272.994 357.493Z" fill="#FF9B95" fill-opacity="0.3523"/>
<path d="M280.097 355.841C280.097 356.749 279.354 357.493 278.445 357.493C277.536 357.493 276.793 356.749 276.793 355.841C276.793 354.932 277.536 354.189 278.445 354.189C279.354 354.189 280.097 354.932 280.097 355.841Z" fill="#FF9B95" fill-opacity="0.3523"/>
<path d="M252.839 344.277H251.848V357.493H252.839V344.277Z" fill="#263238"/>
<path d="M282.657 317.184H197.166V336.925H282.657V317.184Z" fill="#37474F"/>
<path d="M249.452 320.488H200.801V322.14H249.452V320.488Z" fill="#455A64"/>
<path d="M249.452 323.379H200.801V325.031H249.452V323.379Z" fill="#455A64"/>
<path d="M249.452 326.27H200.801V327.922H249.452V326.27Z" fill="#455A64"/>
<path d="M249.452 329.078H200.801V330.73H249.452V329.078Z" fill="#455A64"/>
<path d="M249.452 331.969H200.801V333.621H249.452V331.969Z" fill="#455A64"/>
<path d="M258.29 322.14C258.29 323.048 257.547 323.792 256.638 323.792C255.73 323.792 254.986 323.048 254.986 322.14C254.986 321.231 255.73 320.488 256.638 320.488C257.547 320.488 258.29 321.231 258.29 322.14Z" fill="#EBEBEB"/>
<path d="M263.741 322.14C263.741 323.048 262.998 323.792 262.089 323.792C261.181 323.792 260.438 323.048 260.438 322.14C260.438 321.231 261.181 320.488 262.089 320.488C262.998 320.488 263.741 321.231 263.741 322.14Z" fill="#FF9B95" fill-opacity="0.3523"/>
<path d="M269.193 322.14C269.193 323.048 268.449 323.792 267.541 323.792C266.632 323.792 265.889 323.048 265.889 322.14C265.889 321.231 266.632 320.488 267.541 320.488C268.449 320.488 269.193 321.231 269.193 322.14Z" fill="#FF9B95" fill-opacity="0.3523"/>
<path d="M274.646 322.14C274.646 323.048 273.902 323.792 272.994 323.792C272.085 323.792 271.342 323.048 271.342 322.14C271.342 321.231 272.085 320.488 272.994 320.488C273.902 320.488 274.646 321.231 274.646 322.14Z" fill="#EBEBEB"/>
<path d="M280.097 322.14C280.097 323.048 279.354 323.792 278.445 323.792C277.536 323.792 276.793 323.048 276.793 322.14C276.793 321.231 277.536 320.488 278.445 320.488C279.354 320.488 280.097 321.231 280.097 322.14Z" fill="#FF9B95" fill-opacity="0.3523"/>
<path d="M258.29 327.096C258.29 328.004 257.547 328.748 256.638 328.748C255.73 328.748 254.986 328.004 254.986 327.096C254.986 326.187 255.73 325.444 256.638 325.444C257.547 325.444 258.29 326.187 258.29 327.096Z" fill="#FF9B95" fill-opacity="0.3523"/>
<path d="M263.741 327.096C263.741 328.004 262.998 328.748 262.089 328.748C261.181 328.748 260.438 328.004 260.438 327.096C260.438 326.187 261.181 325.444 262.089 325.444C262.998 325.444 263.741 326.187 263.741 327.096Z" fill="#FF9B95" fill-opacity="0.3523"/>
<path d="M269.193 327.096C269.193 328.004 268.449 328.748 267.541 328.748C266.632 328.748 265.889 328.004 265.889 327.096C265.889 326.187 266.632 325.444 267.541 325.444C268.449 325.444 269.193 326.187 269.193 327.096Z" fill="#EBEBEB"/>
<path d="M274.646 327.096C274.646 328.004 273.902 328.748 272.994 328.748C272.085 328.748 271.342 328.004 271.342 327.096C271.342 326.187 272.085 325.444 272.994 325.444C273.902 325.444 274.646 326.187 274.646 327.096Z" fill="#EBEBEB"/>
<path d="M280.097 327.096C280.097 328.004 279.354 328.748 278.445 328.748C277.536 328.748 276.793 328.004 276.793 327.096C276.793 326.187 277.536 325.444 278.445 325.444C279.354 325.444 280.097 326.187 280.097 327.096Z" fill="#FF9B95" fill-opacity="0.3523"/>
<path d="M258.29 332.052C258.29 332.961 257.547 333.704 256.638 333.704C255.73 333.704 254.986 332.961 254.986 332.052C254.986 331.143 255.73 330.4 256.638 330.4C257.547 330.4 258.29 331.143 258.29 332.052Z" fill="#FF9B95" fill-opacity="0.3523"/>
<path d="M263.741 332.052C263.741 332.961 262.998 333.704 262.089 333.704C261.181 333.704 260.438 332.961 260.438 332.052C260.438 331.143 261.181 330.4 262.089 330.4C262.998 330.4 263.741 331.143 263.741 332.052Z" fill="#EBEBEB"/>
<path d="M269.193 332.052C269.193 332.961 268.449 333.704 267.541 333.704C266.632 333.704 265.889 332.961 265.889 332.052C265.889 331.143 266.632 330.4 267.541 330.4C268.449 330.4 269.193 331.143 269.193 332.052Z" fill="#FF9B95" fill-opacity="0.3523"/>
<path d="M274.646 332.052C274.646 332.961 273.902 333.704 272.994 333.704C272.085 333.704 271.342 332.961 271.342 332.052C271.342 331.143 272.085 330.4 272.994 330.4C273.902 330.4 274.646 331.143 274.646 332.052Z" fill="#FF9B95" fill-opacity="0.3523"/>
<path d="M280.097 332.052C280.097 332.961 279.354 333.704 278.445 333.704C277.536 333.704 276.793 332.961 276.793 332.052C276.793 331.143 277.536 330.4 278.445 330.4C279.354 330.4 280.097 331.143 280.097 332.052Z" fill="#EBEBEB"/>
<path d="M252.839 320.488H251.848V333.704H252.839V320.488Z" fill="#263238"/>
<path d="M282.657 293.395H197.166V313.136H282.657V293.395Z" fill="#37474F"/>
<path d="M249.452 296.699H200.801V298.351H249.452V296.699Z" fill="#455A64"/>
<path d="M249.452 299.59H200.801V301.242H249.452V299.59Z" fill="#455A64"/>
<path d="M249.452 302.481H200.801V304.133H249.452V302.481Z" fill="#455A64"/>
<path d="M249.452 305.289H200.801V306.941H249.452V305.289Z" fill="#455A64"/>
<path d="M249.452 308.18H200.801V309.832H249.452V308.18Z" fill="#455A64"/>
<path d="M256.638 300.003C257.551 300.003 258.29 299.263 258.29 298.351C258.29 297.439 257.551 296.699 256.638 296.699C255.726 296.699 254.986 297.439 254.986 298.351C254.986 299.263 255.726 300.003 256.638 300.003Z" fill="#EBEBEB"/>
<path d="M263.741 298.351C263.741 299.26 262.998 300.003 262.089 300.003C261.181 300.003 260.438 299.26 260.438 298.351C260.438 297.442 261.181 296.699 262.089 296.699C262.998 296.699 263.741 297.442 263.741 298.351Z" fill="#FF9B95" fill-opacity="0.3523"/>
<path d="M269.193 298.351C269.193 299.26 268.449 300.003 267.541 300.003C266.632 300.003 265.889 299.26 265.889 298.351C265.889 297.442 266.632 296.699 267.541 296.699C268.449 296.699 269.193 297.442 269.193 298.351Z" fill="#EBEBEB"/>
<path d="M272.994 300.003C273.906 300.003 274.646 299.263 274.646 298.351C274.646 297.439 273.906 296.699 272.994 296.699C272.081 296.699 271.342 297.439 271.342 298.351C271.342 299.263 272.081 300.003 272.994 300.003Z" fill="#FF9B95" fill-opacity="0.3523"/>
<path d="M280.097 298.351C280.097 299.26 279.354 300.003 278.445 300.003C277.536 300.003 276.793 299.26 276.793 298.351C276.793 297.442 277.536 296.699 278.445 296.699C279.354 296.699 280.097 297.442 280.097 298.351Z" fill="#FF9B95" fill-opacity="0.3523"/>
<path d="M258.29 303.307C258.29 304.216 257.547 304.959 256.638 304.959C255.73 304.959 254.986 304.216 254.986 303.307C254.986 302.398 255.73 301.655 256.638 301.655C257.547 301.655 258.29 302.398 258.29 303.307Z" fill="#FF9B95" fill-opacity="0.3523"/>
<path d="M263.741 303.307C263.741 304.216 262.998 304.959 262.089 304.959C261.181 304.959 260.438 304.216 260.438 303.307C260.438 302.398 261.181 301.655 262.089 301.655C262.998 301.655 263.741 302.398 263.741 303.307Z" fill="#EBEBEB"/>
<path d="M269.193 303.307C269.193 304.216 268.449 304.959 267.541 304.959C266.632 304.959 265.889 304.216 265.889 303.307C265.889 302.398 266.632 301.655 267.541 301.655C268.449 301.655 269.193 302.398 269.193 303.307Z" fill="#EBEBEB"/>
<path d="M274.646 303.307C274.646 304.216 273.902 304.959 272.994 304.959C272.085 304.959 271.342 304.216 271.342 303.307C271.342 302.398 272.085 301.655 272.994 301.655C273.902 301.655 274.646 302.398 274.646 303.307Z" fill="#FF9B95" fill-opacity="0.3523"/>
<path d="M280.097 303.307C280.097 304.216 279.354 304.959 278.445 304.959C277.536 304.959 276.793 304.216 276.793 303.307C276.793 302.398 277.536 301.655 278.445 301.655C279.354 301.655 280.097 302.398 280.097 303.307Z" fill="#EBEBEB"/>
<path d="M258.29 308.263C258.29 309.172 257.547 309.915 256.638 309.915C255.73 309.915 254.986 309.172 254.986 308.263C254.986 307.354 255.73 306.611 256.638 306.611C257.547 306.611 258.29 307.354 258.29 308.263Z" fill="#EBEBEB"/>
<path d="M263.741 308.263C263.741 309.172 262.998 309.915 262.089 309.915C261.181 309.915 260.438 309.172 260.438 308.263C260.438 307.354 261.181 306.611 262.089 306.611C262.998 306.611 263.741 307.354 263.741 308.263Z" fill="#FF9B95" fill-opacity="0.3523"/>
<path d="M269.193 308.263C269.193 309.172 268.449 309.915 267.541 309.915C266.632 309.915 265.889 309.172 265.889 308.263C265.889 307.354 266.632 306.611 267.541 306.611C268.449 306.611 269.193 307.354 269.193 308.263Z" fill="#FF9B95" fill-opacity="0.3523"/>
<path d="M274.646 308.263C274.646 309.172 273.902 309.915 272.994 309.915C272.085 309.915 271.342 309.172 271.342 308.263C271.342 307.354 272.085 306.611 272.994 306.611C273.902 306.611 274.646 307.354 274.646 308.263Z" fill="#EBEBEB"/>
<path d="M280.097 308.263C280.097 309.172 279.354 309.915 278.445 309.915C277.536 309.915 276.793 309.172 276.793 308.263C276.793 307.354 277.536 306.611 278.445 306.611C279.354 306.611 280.097 307.354 280.097 308.263Z" fill="#FF9B95" fill-opacity="0.3523"/>
<path d="M252.839 296.699H251.848V309.915H252.839V296.699Z" fill="#263238"/>
<path d="M282.657 269.606H197.166V289.348H282.657V269.606Z" fill="#37474F"/>
<path d="M249.452 272.91H200.801V274.562H249.452V272.91Z" fill="#455A64"/>
<path d="M249.452 275.801H200.801V277.453H249.452V275.801Z" fill="#455A64"/>
<path d="M249.452 278.692H200.801V280.344H249.452V278.692Z" fill="#455A64"/>
<path d="M249.452 281.583H200.801V283.235H249.452V281.583Z" fill="#455A64"/>
<path d="M249.452 284.392H200.801V286.044H249.452V284.392Z" fill="#455A64"/>
<path d="M258.29 274.562C258.29 275.471 257.547 276.214 256.638 276.214C255.73 276.214 254.986 275.471 254.986 274.562C254.986 273.654 255.73 272.91 256.638 272.91C257.547 272.91 258.29 273.654 258.29 274.562Z" fill="#FF9B95" fill-opacity="0.3523"/>
<path d="M263.741 274.562C263.741 275.471 262.998 276.214 262.089 276.214C261.181 276.214 260.438 275.471 260.438 274.562C260.438 273.654 261.181 272.91 262.089 272.91C262.998 272.91 263.741 273.654 263.741 274.562Z" fill="#FF9B95" fill-opacity="0.3523"/>
<path d="M269.193 274.562C269.193 275.471 268.449 276.214 267.541 276.214C266.632 276.214 265.889 275.471 265.889 274.562C265.889 273.654 266.632 272.91 267.541 272.91C268.449 272.91 269.193 273.654 269.193 274.562Z" fill="#FF9B95" fill-opacity="0.3523"/>
<path d="M274.646 274.562C274.646 275.471 273.902 276.214 272.994 276.214C272.085 276.214 271.342 275.471 271.342 274.562C271.342 273.654 272.085 272.91 272.994 272.91C273.902 272.91 274.646 273.654 274.646 274.562Z" fill="#FF9B95" fill-opacity="0.3523"/>
<path d="M280.097 274.562C280.097 275.471 279.354 276.214 278.445 276.214C277.536 276.214 276.793 275.471 276.793 274.562C276.793 273.654 277.536 272.91 278.445 272.91C279.354 272.91 280.097 273.654 280.097 274.562Z" fill="#EBEBEB"/>
<path d="M256.638 281.17C257.551 281.17 258.29 280.431 258.29 279.518C258.29 278.606 257.551 277.866 256.638 277.866C255.726 277.866 254.986 278.606 254.986 279.518C254.986 280.431 255.726 281.17 256.638 281.17Z" fill="#EBEBEB"/>
<path d="M263.741 279.518C263.741 280.427 262.998 281.17 262.089 281.17C261.181 281.17 260.438 280.427 260.438 279.518C260.438 278.61 261.181 277.866 262.089 277.866C262.998 277.866 263.741 278.61 263.741 279.518Z" fill="#EBEBEB"/>
<path d="M269.193 279.518C269.193 280.427 268.449 281.17 267.541 281.17C266.632 281.17 265.889 280.427 265.889 279.518C265.889 278.61 266.632 277.866 267.541 277.866C268.449 277.866 269.193 278.61 269.193 279.518Z" fill="#FF9B95" fill-opacity="0.3523"/>
<path d="M272.994 281.17C273.906 281.17 274.646 280.431 274.646 279.518C274.646 278.606 273.906 277.866 272.994 277.866C272.081 277.866 271.342 278.606 271.342 279.518C271.342 280.431 272.081 281.17 272.994 281.17Z" fill="#EBEBEB"/>
<path d="M280.097 279.518C280.097 280.427 279.354 281.17 278.445 281.17C277.536 281.17 276.793 280.427 276.793 279.518C276.793 278.61 277.536 277.866 278.445 277.866C279.354 277.866 280.097 278.61 280.097 279.518Z" fill="#FF9B95" fill-opacity="0.3523"/>
<path d="M258.29 284.474C258.29 285.383 257.547 286.126 256.638 286.126C255.73 286.126 254.986 285.383 254.986 284.474C254.986 283.566 255.73 282.822 256.638 282.822C257.547 282.822 258.29 283.566 258.29 284.474Z" fill="#FF9B95" fill-opacity="0.3523"/>
<path d="M263.741 284.474C263.741 285.383 262.998 286.126 262.089 286.126C261.181 286.126 260.438 285.383 260.438 284.474C260.438 283.566 261.181 282.822 262.089 282.822C262.998 282.822 263.741 283.566 263.741 284.474Z" fill="#FF9B95" fill-opacity="0.3523"/>
<path d="M269.193 284.474C269.193 285.383 268.449 286.126 267.541 286.126C266.632 286.126 265.889 285.383 265.889 284.474C265.889 283.566 266.632 282.822 267.541 282.822C268.449 282.822 269.193 283.566 269.193 284.474Z" fill="#EBEBEB"/>
<path d="M274.646 284.474C274.646 285.383 273.902 286.126 272.994 286.126C272.085 286.126 271.342 285.383 271.342 284.474C271.342 283.566 272.085 282.822 272.994 282.822C273.902 282.822 274.646 283.566 274.646 284.474Z" fill="#FF9B95" fill-opacity="0.3523"/>
<path d="M280.097 284.474C280.097 285.383 279.354 286.126 278.445 286.126C277.536 286.126 276.793 285.383 276.793 284.474C276.793 283.566 277.536 282.822 278.445 282.822C279.354 282.822 280.097 283.566 280.097 284.474Z" fill="#EBEBEB"/>
<path d="M252.839 272.91H251.848V286.126H252.839V272.91Z" fill="#263238"/>
<path d="M282.657 245.817H197.166V265.559H282.657V245.817Z" fill="#37474F"/>
<path d="M249.452 249.121H200.801V250.773H249.452V249.121Z" fill="#455A64"/>
<path d="M249.452 252.012H200.801V253.664H249.452V252.012Z" fill="#455A64"/>
<path d="M249.452 254.903H200.801V256.555H249.452V254.903Z" fill="#455A64"/>
<path d="M249.452 257.794H200.801V259.446H249.452V257.794Z" fill="#455A64"/>
<path d="M249.452 260.603H200.801V262.255H249.452V260.603Z" fill="#455A64"/>
<path d="M258.29 250.773C258.29 251.682 257.547 252.425 256.638 252.425C255.73 252.425 254.986 251.682 254.986 250.773C254.986 249.865 255.73 249.121 256.638 249.121C257.547 249.121 258.29 249.865 258.29 250.773Z" fill="#FF9B95" fill-opacity="0.3523"/>
<path d="M263.741 250.773C263.741 251.682 262.998 252.425 262.089 252.425C261.181 252.425 260.438 251.682 260.438 250.773C260.438 249.865 261.181 249.121 262.089 249.121C262.998 249.121 263.741 249.865 263.741 250.773Z" fill="#FF9B95" fill-opacity="0.3523"/>
<path d="M269.193 250.773C269.193 251.682 268.449 252.425 267.541 252.425C266.632 252.425 265.889 251.682 265.889 250.773C265.889 249.865 266.632 249.121 267.541 249.121C268.449 249.121 269.193 249.865 269.193 250.773Z" fill="#FF9B95" fill-opacity="0.3523"/>
<path d="M274.646 250.773C274.646 251.682 273.902 252.425 272.994 252.425C272.085 252.425 271.342 251.682 271.342 250.773C271.342 249.865 272.085 249.121 272.994 249.121C273.902 249.121 274.646 249.865 274.646 250.773Z" fill="#FF9B95" fill-opacity="0.3523"/>
<path d="M280.097 250.773C280.097 251.682 279.354 252.425 278.445 252.425C277.536 252.425 276.793 251.682 276.793 250.773C276.793 249.865 277.536 249.121 278.445 249.121C279.354 249.121 280.097 249.865 280.097 250.773Z" fill="#EBEBEB"/>
<path d="M258.29 255.729C258.29 256.638 257.547 257.381 256.638 257.381C255.73 257.381 254.986 256.638 254.986 255.729C254.986 254.821 255.73 254.077 256.638 254.077C257.547 254.077 258.29 254.821 258.29 255.729Z" fill="#EBEBEB"/>
<path d="M263.741 255.729C263.741 256.638 262.998 257.381 262.089 257.381C261.181 257.381 260.438 256.638 260.438 255.729C260.438 254.821 261.181 254.077 262.089 254.077C262.998 254.077 263.741 254.821 263.741 255.729Z" fill="#FF9B95" fill-opacity="0.3523"/>
<path d="M269.193 255.729C269.193 256.638 268.449 257.381 267.541 257.381C266.632 257.381 265.889 256.638 265.889 255.729C265.889 254.821 266.632 254.077 267.541 254.077C268.449 254.077 269.193 254.821 269.193 255.729Z" fill="#FF9B95" fill-opacity="0.3523"/>
<path d="M274.646 255.729C274.646 256.638 273.902 257.381 272.994 257.381C272.085 257.381 271.342 256.638 271.342 255.729C271.342 254.821 272.085 254.077 272.994 254.077C273.902 254.077 274.646 254.821 274.646 255.729Z" fill="#EBEBEB"/>
<path d="M280.097 255.729C280.097 256.638 279.354 257.381 278.445 257.381C277.536 257.381 276.793 256.638 276.793 255.729C276.793 254.821 277.536 254.077 278.445 254.077C279.354 254.077 280.097 254.821 280.097 255.729Z" fill="#FF9B95" fill-opacity="0.3523"/>
<path d="M258.29 260.685C258.29 261.594 257.547 262.337 256.638 262.337C255.73 262.337 254.986 261.594 254.986 260.685C254.986 259.777 255.73 259.033 256.638 259.033C257.547 259.033 258.29 259.777 258.29 260.685Z" fill="#EBEBEB"/>
<path d="M263.741 260.685C263.741 261.594 262.998 262.337 262.089 262.337C261.181 262.337 260.438 261.594 260.438 260.685C260.438 259.777 261.181 259.033 262.089 259.033C262.998 259.033 263.741 259.777 263.741 260.685Z" fill="#EBEBEB"/>
<path d="M269.193 260.685C269.193 261.594 268.449 262.337 267.541 262.337C266.632 262.337 265.889 261.594 265.889 260.685C265.889 259.777 266.632 259.033 267.541 259.033C268.449 259.033 269.193 259.777 269.193 260.685Z" fill="#FF9B95" fill-opacity="0.3523"/>
<path d="M274.646 260.685C274.646 261.594 273.902 262.337 272.994 262.337C272.085 262.337 271.342 261.594 271.342 260.685C271.342 259.777 272.085 259.033 272.994 259.033C273.902 259.033 274.646 259.777 274.646 260.685Z" fill="#FF9B95" fill-opacity="0.3523"/>
<path d="M280.097 260.685C280.097 261.594 279.354 262.337 278.445 262.337C277.536 262.337 276.793 261.594 276.793 260.685C276.793 259.777 277.536 259.033 278.445 259.033C279.354 259.033 280.097 259.777 280.097 260.685Z" fill="#EBEBEB"/>
<path d="M252.839 249.121H251.848V262.337H252.839V249.121Z" fill="#263238"/>
<path d="M282.657 222.029H197.166V241.77H282.657V222.029Z" fill="#37474F"/>
<path d="M249.452 225.333H200.801V226.985H249.452V225.333Z" fill="#455A64"/>
<path d="M249.452 228.224H200.801V229.876H249.452V228.224Z" fill="#455A64"/>
<path d="M249.452 231.115H200.801V232.767H249.452V231.115Z" fill="#455A64"/>
<path d="M249.452 234.006H200.801V235.658H249.452V234.006Z" fill="#455A64"/>
<path d="M249.452 236.814H200.801V238.466H249.452V236.814Z" fill="#455A64"/>
<path d="M258.29 226.985C258.29 227.893 257.547 228.637 256.638 228.637C255.73 228.637 254.986 227.893 254.986 226.985C254.986 226.076 255.73 225.333 256.638 225.333C257.547 225.333 258.29 226.076 258.29 226.985Z" fill="#EBEBEB"/>
<path d="M263.741 226.985C263.741 227.893 262.998 228.637 262.089 228.637C261.181 228.637 260.438 227.893 260.438 226.985C260.438 226.076 261.181 225.333 262.089 225.333C262.998 225.333 263.741 226.076 263.741 226.985Z" fill="#FF9B95" fill-opacity="0.3523"/>
<path d="M269.193 226.985C269.193 227.893 268.449 228.637 267.541 228.637C266.632 228.637 265.889 227.893 265.889 226.985C265.889 226.076 266.632 225.333 267.541 225.333C268.449 225.333 269.193 226.076 269.193 226.985Z" fill="#FF9B95" fill-opacity="0.3523"/>
<path d="M274.646 226.985C274.646 227.893 273.902 228.637 272.994 228.637C272.085 228.637 271.342 227.893 271.342 226.985C271.342 226.076 272.085 225.333 272.994 225.333C273.902 225.333 274.646 226.076 274.646 226.985Z" fill="#EBEBEB"/>
<path d="M280.097 226.985C280.097 227.893 279.354 228.637 278.445 228.637C277.536 228.637 276.793 227.893 276.793 226.985C276.793 226.076 277.536 225.333 278.445 225.333C279.354 225.333 280.097 226.076 280.097 226.985Z" fill="#FF9B95" fill-opacity="0.3523"/>
<path d="M258.29 231.941C258.29 232.849 257.547 233.593 256.638 233.593C255.73 233.593 254.986 232.849 254.986 231.941C254.986 231.032 255.73 230.289 256.638 230.289C257.547 230.289 258.29 231.032 258.29 231.941Z" fill="#FF9B95" fill-opacity="0.3523"/>
<path d="M263.741 231.941C263.741 232.849 262.998 233.593 262.089 233.593C261.181 233.593 260.438 232.849 260.438 231.941C260.438 231.032 261.181 230.289 262.089 230.289C262.998 230.289 263.741 231.032 263.741 231.941Z" fill="#EBEBEB"/>
<path d="M269.193 231.941C269.193 232.849 268.449 233.593 267.541 233.593C266.632 233.593 265.889 232.849 265.889 231.941C265.889 231.032 266.632 230.289 267.541 230.289C268.449 230.289 269.193 231.032 269.193 231.941Z" fill="#FF9B95" fill-opacity="0.3523"/>
<path d="M274.646 231.941C274.646 232.849 273.902 233.593 272.994 233.593C272.085 233.593 271.342 232.849 271.342 231.941C271.342 231.032 272.085 230.289 272.994 230.289C273.902 230.289 274.646 231.032 274.646 231.941Z" fill="#FF9B95" fill-opacity="0.3523"/>
<path d="M280.097 231.941C280.097 232.849 279.354 233.593 278.445 233.593C277.536 233.593 276.793 232.849 276.793 231.941C276.793 231.032 277.536 230.289 278.445 230.289C279.354 230.289 280.097 231.032 280.097 231.941Z" fill="#EBEBEB"/>
<path d="M258.29 236.897C258.29 237.805 257.547 238.549 256.638 238.549C255.73 238.549 254.986 237.805 254.986 236.897C254.986 235.988 255.73 235.245 256.638 235.245C257.547 235.245 258.29 235.988 258.29 236.897Z" fill="#FF9B95" fill-opacity="0.3523"/>
<path d="M263.741 236.897C263.741 237.805 262.998 238.549 262.089 238.549C261.181 238.549 260.438 237.805 260.438 236.897C260.438 235.988 261.181 235.245 262.089 235.245C262.998 235.245 263.741 235.988 263.741 236.897Z" fill="#FF9B95" fill-opacity="0.3523"/>
<path d="M269.193 236.897C269.193 237.805 268.449 238.549 267.541 238.549C266.632 238.549 265.889 237.805 265.889 236.897C265.889 235.988 266.632 235.245 267.541 235.245C268.449 235.245 269.193 235.988 269.193 236.897Z" fill="#EBEBEB"/>
<path d="M274.646 236.897C274.646 237.805 273.902 238.549 272.994 238.549C272.085 238.549 271.342 237.805 271.342 236.897C271.342 235.988 272.085 235.245 272.994 235.245C273.902 235.245 274.646 235.988 274.646 236.897Z" fill="#EBEBEB"/>
<path d="M280.097 236.897C280.097 237.805 279.354 238.549 278.445 238.549C277.536 238.549 276.793 237.805 276.793 236.897C276.793 235.988 277.536 235.245 278.445 235.245C279.354 235.245 280.097 235.988 280.097 236.897Z" fill="#FF9B95" fill-opacity="0.3523"/>
<path d="M252.839 225.333H251.848V238.549H252.839V225.333Z" fill="#263238"/>
<path d="M282.657 174.451H197.166V194.193H282.657V174.451Z" fill="#455A64"/>
<path d="M248.543 182.133H205.178V186.511H248.543V182.133Z" fill="white"/>
<path d="M231.775 182.133H205.178V186.511H231.775V182.133Z" fill="#FF9B95" fill-opacity="0.3523"/>
<path d="M259.034 184.363C259.034 185.602 258.043 186.676 256.721 186.676C255.482 186.676 254.408 185.685 254.408 184.363C254.408 183.124 255.399 182.05 256.721 182.05C258.043 182.05 259.034 183.041 259.034 184.363Z" fill="#FF9B95" fill-opacity="0.3523"/>
<path d="M267.872 184.363C267.872 185.602 266.88 186.676 265.559 186.676C264.32 186.676 263.246 185.685 263.246 184.363C263.246 183.124 264.237 182.05 265.559 182.05C266.798 182.05 267.872 183.041 267.872 184.363Z" fill="white"/>
<path d="M276.628 184.363C276.628 185.602 275.636 186.676 274.315 186.676C273.076 186.676 272.002 185.685 272.002 184.363C272.002 183.124 272.993 182.05 274.315 182.05C275.636 182.05 276.628 183.041 276.628 184.363Z" fill="white"/>
<path d="M282.657 198.24H197.166V217.981H282.657V198.24Z" fill="#455A64"/>
<path d="M248.543 205.922H205.178V210.3H248.543V205.922Z" fill="white"/>
<path d="M239.952 205.922H205.178V210.3H239.952V205.922Z" fill="#FF9B95" fill-opacity="0.3523"/>
<path d="M259.034 208.152C259.034 209.391 258.043 210.465 256.721 210.465C255.482 210.465 254.408 209.474 254.408 208.152C254.408 206.913 255.399 205.839 256.721 205.839C258.043 205.839 259.034 206.83 259.034 208.152Z" fill="#FF9B95" fill-opacity="0.3523"/>
<path d="M267.872 208.152C267.872 209.391 266.88 210.465 265.559 210.465C264.32 210.465 263.246 209.474 263.246 208.152C263.246 206.913 264.237 205.839 265.559 205.839C266.798 205.839 267.872 206.83 267.872 208.152Z" fill="white"/>
<path d="M276.628 208.152C276.628 209.391 275.636 210.465 274.315 210.465C273.076 210.465 272.002 209.474 272.002 208.152C272.002 206.913 272.993 205.839 274.315 205.839C275.636 205.839 276.628 206.83 276.628 208.152Z" fill="white"/>
<path d="M282.657 222.029H197.166V241.77H282.657V222.029Z" fill="#455A64"/>
<path d="M248.543 229.71H205.178V234.088H248.543V229.71Z" fill="white"/>
<path d="M212.529 229.71H205.178V234.088H212.529V229.71Z" fill="#FF9B95" fill-opacity="0.3523"/>
<path d="M259.034 231.94C259.034 233.179 258.043 234.253 256.721 234.253C255.482 234.253 254.408 233.262 254.408 231.94C254.408 230.701 255.399 229.628 256.721 229.628C258.043 229.628 259.034 230.619 259.034 231.94Z" fill="#FF9B95" fill-opacity="0.3523"/>
<path d="M267.872 231.94C267.872 233.179 266.88 234.253 265.559 234.253C264.32 234.253 263.246 233.262 263.246 231.94C263.246 230.701 264.237 229.628 265.559 229.628C266.798 229.628 267.872 230.619 267.872 231.94Z" fill="white"/>
<path d="M276.628 231.94C276.628 233.179 275.636 234.253 274.315 234.253C273.076 234.253 272.002 233.262 272.002 231.94C272.002 230.701 272.993 229.628 274.315 229.628C275.636 229.628 276.628 230.619 276.628 231.94Z" fill="white"/>
<path d="M282.657 245.817H197.166V265.559H282.657V245.817Z" fill="#455A64"/>
<path d="M248.543 253.499H205.178V257.877H248.543V253.499Z" fill="white"/>
<path d="M231.775 253.499H205.178V257.877H231.775V253.499Z" fill="#FF9B95" fill-opacity="0.3523"/>
<path d="M259.034 255.729C259.034 256.968 258.043 258.042 256.721 258.042C255.482 258.042 254.408 257.051 254.408 255.729C254.408 254.49 255.399 253.417 256.721 253.417C258.043 253.417 259.034 254.408 259.034 255.729Z" fill="#FF9B95" fill-opacity="0.3523"/>
<path d="M267.872 255.729C267.872 256.968 266.88 258.042 265.559 258.042C264.32 258.042 263.246 257.051 263.246 255.729C263.246 254.49 264.237 253.417 265.559 253.417C266.798 253.417 267.872 254.408 267.872 255.729Z" fill="white"/>
<path d="M276.628 255.729C276.628 256.968 275.636 258.042 274.315 258.042C273.076 258.042 272.002 257.051 272.002 255.729C272.002 254.49 272.993 253.417 274.315 253.417C275.636 253.417 276.628 254.408 276.628 255.729Z" fill="white"/>
<path d="M282.657 269.606H197.166V289.348H282.657V269.606Z" fill="#455A64"/>
<path d="M248.543 277.288H205.178V281.666H248.543V277.288Z" fill="white"/>
<path d="M241.274 277.288H205.178V281.666H241.274V277.288Z" fill="#FF9B95" fill-opacity="0.3523"/>
<path d="M259.034 279.518C259.034 280.757 258.043 281.831 256.721 281.831C255.482 281.831 254.408 280.84 254.408 279.518C254.408 278.279 255.399 277.205 256.721 277.205C258.043 277.205 259.034 278.197 259.034 279.518Z" fill="#FF9B95" fill-opacity="0.3523"/>
<path d="M267.872 279.518C267.872 280.757 266.88 281.831 265.559 281.831C264.32 281.831 263.246 280.84 263.246 279.518C263.246 278.279 264.237 277.205 265.559 277.205C266.798 277.205 267.872 278.197 267.872 279.518Z" fill="white"/>
<path d="M276.628 279.518C276.628 280.757 275.636 281.831 274.315 281.831C273.076 281.831 272.002 280.84 272.002 279.518C272.002 278.279 272.993 277.205 274.315 277.205C275.636 277.205 276.628 278.197 276.628 279.518Z" fill="white"/>
<path d="M282.657 293.395H197.166V313.136H282.657V293.395Z" fill="#455A64"/>
<path d="M248.543 301.077H205.178V305.455H248.543V301.077Z" fill="white"/>
<path d="M234.831 301.077H205.178V305.455H234.831V301.077Z" fill="#FF9B95" fill-opacity="0.3523"/>
<path d="M259.034 303.307C259.034 304.546 258.043 305.62 256.721 305.62C255.482 305.62 254.408 304.629 254.408 303.307C254.408 302.068 255.399 300.994 256.721 300.994C258.043 300.994 259.034 301.985 259.034 303.307Z" fill="#FF9B95" fill-opacity="0.3523"/>
<path d="M267.872 303.307C267.872 304.546 266.88 305.62 265.559 305.62C264.32 305.62 263.246 304.629 263.246 303.307C263.246 302.068 264.237 300.994 265.559 300.994C266.798 300.994 267.872 301.985 267.872 303.307Z" fill="white"/>
<path d="M276.628 303.307C276.628 304.546 275.636 305.62 274.315 305.62C273.076 305.62 272.002 304.629 272.002 303.307C272.002 302.068 272.993 300.994 274.315 300.994C275.636 300.994 276.628 301.985 276.628 303.307Z" fill="white"/>
<path d="M282.657 317.184H197.166V336.925H282.657V317.184Z" fill="#455A64"/>
<path d="M248.543 324.866H205.178V329.244H248.543V324.866Z" fill="white"/>
<path d="M220.872 324.866H205.178V329.244H220.872V324.866Z" fill="#FF9B95" fill-opacity="0.3523"/>
<path d="M259.034 327.096C259.034 328.335 258.043 329.409 256.721 329.409C255.482 329.409 254.408 328.417 254.408 327.096C254.408 325.857 255.399 324.783 256.721 324.783C258.043 324.783 259.034 325.774 259.034 327.096Z" fill="#FF9B95" fill-opacity="0.3523"/>
<path d="M267.872 327.096C267.872 328.335 266.88 329.409 265.559 329.409C264.32 329.409 263.246 328.417 263.246 327.096C263.246 325.857 264.237 324.783 265.559 324.783C266.798 324.783 267.872 325.774 267.872 327.096Z" fill="white"/>
<path d="M276.628 327.096C276.628 328.335 275.636 329.409 274.315 329.409C273.076 329.409 272.002 328.417 272.002 327.096C272.002 325.857 272.993 324.783 274.315 324.783C275.636 324.783 276.628 325.774 276.628 327.096Z" fill="white"/>
<path d="M282.657 340.973H197.166V360.714H282.657V340.973Z" fill="#455A64"/>
<path d="M248.543 348.655H205.178V353.032H248.543V348.655Z" fill="white"/>
<path d="M235.905 348.655H205.178V353.032H235.905V348.655Z" fill="#FF9B95" fill-opacity="0.3523"/>
<path d="M259.034 350.885C259.034 352.124 258.043 353.197 256.721 353.197C255.482 353.197 254.408 352.206 254.408 350.885C254.408 349.646 255.399 348.572 256.721 348.572C258.043 348.572 259.034 349.563 259.034 350.885Z" fill="#FF9B95" fill-opacity="0.3523"/>
<path d="M267.872 350.885C267.872 352.124 266.88 353.197 265.559 353.197C264.32 353.197 263.246 352.206 263.246 350.885C263.246 349.646 264.237 348.572 265.559 348.572C266.798 348.572 267.872 349.563 267.872 350.885Z" fill="white"/>
<path d="M276.628 350.885C276.628 352.124 275.636 353.197 274.315 353.197C273.076 353.197 272.002 352.206 272.002 350.885C272.002 349.646 272.993 348.572 274.315 348.572C275.636 348.572 276.628 349.563 276.628 350.885Z" fill="white"/>
<path d="M268.698 158.014H156.031V164.291H268.698V158.014Z" fill="#263238"/>
<path d="M287.695 367.322H365.174L356.666 313.797H279.188L287.695 367.322Z" fill="#9C9696"/>
<path d="M328.417 308.181H355.758L356.666 313.797H327.674L328.417 308.181Z" fill="#9C9696"/>
<g opacity="0.1">
<path d="M287.695 367.322H365.174L356.666 313.797H279.188L287.695 367.322Z" fill="black"/>
<path d="M328.417 308.181H355.758L356.666 313.797H327.674L328.417 308.181Z" fill="black"/>
</g>
<path d="M287.613 367.322H365.092L371.039 318.175H293.643L287.613 367.322Z" fill="#9C9696"/>
<path d="M344.359 313.137H371.7L371.039 318.175H342.129L344.359 313.137Z" fill="#554D4D"/>
<path d="M77.6435 367.157C79.5433 367.735 134.39 367.24 136.455 365.918C137.198 365.423 133.151 313.385 133.151 313.385L98.2109 313.632L101.845 348.407C101.845 348.407 81.4431 357.741 79.3781 359.393C77.3957 361.21 75.7437 366.579 77.6435 367.157Z" fill="#F0DFC8"/>
<path d="M77.643 367.157C79.5428 367.735 134.389 367.24 136.454 365.918C136.702 365.753 136.867 360.467 136.041 353.611C126.047 355.18 90.5286 360.136 87.7202 358.484C85.8204 357.328 87.555 355.593 89.1244 354.437C84.5814 356.667 80.2862 358.732 79.4602 359.475C77.3952 361.21 75.7432 366.579 77.643 367.157Z" fill="white"/>
<path opacity="0.1" d="M104.488 367.322C119.521 367.157 135.381 366.662 136.454 366.001C136.702 365.836 136.867 360.549 136.041 353.693C132.737 354.189 126.542 355.098 119.769 356.006L104.488 367.322Z" fill="#020100"/>
<path d="M99.1193 340.147H137.611C137.611 340.147 130.342 258.208 130.673 256.638C131.086 254.656 133.316 245.57 136.372 233.676C137.281 229.959 138.354 225.994 139.428 221.864C142.319 210.713 145.458 198.488 148.184 187.833C152.314 171.891 155.535 159.501 155.535 159.501H122.908C122.908 159.501 119.109 171.56 114.318 187.254C106.553 212.695 96.0631 247.8 95.0719 256.308C93.4199 270.02 99.1193 340.147 99.1193 340.147Z" fill="#455A64"/>
<path d="M100.853 333.539C106.718 333.456 105.066 333.374 110.93 333.291C113.821 333.291 132.737 333.126 135.38 333.539C135.462 333.539 135.462 333.622 135.38 333.622C132.654 334.035 113.821 333.869 110.93 333.869C105.066 333.787 106.718 333.787 100.853 333.622C100.77 333.704 100.77 333.539 100.853 333.539Z" fill="#263238"/>
<path d="M123.403 251.104C124.642 245.57 126.542 240.118 128.194 234.667C131.498 223.598 134.884 212.53 138.271 201.379C139.923 195.845 141.657 190.311 143.309 184.776C144.135 181.968 145.044 179.16 145.87 176.434C146.696 173.708 147.687 170.982 148.513 168.256C148.844 167.1 149.009 167.761 148.596 169.165C147.77 172.056 146.944 174.947 146.118 177.755C144.466 183.455 142.814 189.072 141.079 194.771C137.775 206.005 134.389 217.321 131.002 228.554C129.267 234.171 127.615 239.871 125.881 245.487C125.055 248.213 124.311 250.939 123.816 253.665C123.32 256.556 123.32 259.529 123.485 262.42C123.816 268.285 124.559 274.15 125.055 280.097C125.633 285.961 126.129 291.826 126.707 297.773C127.781 309.502 128.359 313.219 129.433 324.949C129.598 326.435 129.68 327.922 129.846 329.409C129.846 329.905 129.102 329.905 129.102 329.409C127.863 317.845 127.368 314.128 126.294 302.564C125.22 291 124.146 279.519 123.072 267.955C122.825 265.064 122.494 262.173 122.494 259.282C122.494 256.473 122.825 253.747 123.403 251.104Z" fill="#263238"/>
<path d="M126.625 159.501C128.855 177.012 133.233 209.887 136.372 233.676C143.723 204.848 155.535 159.501 155.535 159.501H126.625Z" fill="#263238"/>
<path d="M115.722 367.818C117.621 368.396 172.468 367.901 174.533 366.579C175.276 366.083 173.707 314.045 173.707 314.045L138.767 314.293L140.006 349.068C140.006 349.068 119.604 358.402 117.539 360.054C115.474 361.788 113.904 367.24 115.722 367.818Z" fill="#F0DFC8"/>
<path d="M115.721 367.818C117.621 368.396 172.467 367.9 174.532 366.579C174.78 366.414 174.78 361.292 174.698 354.271C164.703 355.841 128.607 360.797 125.881 359.145C123.981 357.988 125.716 356.254 127.285 355.097C122.742 357.328 118.447 359.393 117.621 360.136C115.473 361.788 113.904 367.24 115.721 367.818Z" fill="white"/>
<path d="M123.982 159.501C123.982 159.501 124.726 175.112 128.278 187.42C128.525 188.411 128.856 189.485 129.186 190.393C129.186 190.393 132.903 191.715 138.603 195.184C138.603 195.184 139.016 207.739 139.346 221.699C139.759 237.31 137.364 254.821 137.281 258.538C136.951 272.415 138.603 339.899 138.603 339.899L177.094 340.064C177.094 340.064 170.486 263.659 170.569 258.621C170.651 250.443 167.76 193.697 168.256 192.458C174.451 176.269 166.274 159.418 166.274 159.418H123.982V159.501Z" fill="#455A64"/>
<path d="M139.925 333.126C145.79 333.043 144.138 332.961 150.002 332.961C152.893 332.961 171.809 332.878 174.452 333.291C174.535 333.291 174.535 333.374 174.452 333.374C171.726 333.787 152.893 333.539 150.002 333.539C144.138 333.456 145.79 333.456 139.925 333.291C139.843 333.291 139.843 333.126 139.925 333.126Z" fill="#263238"/>
<path d="M127.617 189.484C131.417 190.971 135.134 193.119 138.603 195.266C138.768 195.349 138.603 195.597 138.521 195.514C134.804 193.697 131.004 191.962 127.452 189.98C127.122 189.815 127.37 189.402 127.617 189.484Z" fill="#263238"/>
<path d="M133.399 184.281C133.317 182.546 133.151 180.729 132.986 178.994C132.656 174.947 132.243 170.982 131.499 167.017C131.417 166.687 131.004 166.852 131.004 167.1C131.252 170.239 131.665 173.295 131.912 176.434C132.16 179.49 132.573 182.629 132.656 185.767C132.656 186.676 132.573 188.246 131.499 188.576C129.93 188.906 129.269 186.924 128.856 185.767C127.948 183.042 127.369 180.151 126.956 177.26C126.461 173.956 126.213 170.652 125.883 167.43C125.883 167.348 125.635 167.348 125.635 167.43C125.635 173.956 125.717 180.812 128.113 186.924C128.608 188.163 129.434 189.319 130.839 189.484H130.921V189.567C130.921 189.732 131.004 189.897 131.004 190.145C131.004 190.31 131.086 190.476 131.086 190.641C131.169 190.971 131.169 191.302 131.252 191.632C131.334 191.88 131.747 191.88 131.747 191.549C131.83 191.549 131.912 191.467 131.912 191.384C131.912 190.723 131.747 190.145 131.499 189.567C132.243 189.402 132.904 188.906 133.151 188.163C133.73 186.841 133.482 185.52 133.399 184.281Z" fill="#263238"/>
<path d="M164.374 192.458C164.704 189.732 165.448 187.089 166.026 184.446C167.43 178.499 166.522 170.321 164.952 164.539C164.952 164.374 165.2 164.292 165.2 164.457C166.769 169.413 167.843 176.599 167.265 181.803C167.017 184.281 164.952 191.797 165.035 194.523C165.117 199.81 164.704 245.157 165.117 263.577C165.365 275.719 167.843 316.441 168.256 328.5C168.256 328.583 168.091 328.583 168.091 328.5C166.687 306.859 164.87 284.805 164.539 263.577C164.291 243.092 164.044 195.432 164.374 192.458Z" fill="#263238"/>
<path d="M145.376 165.861C145.541 167.678 145.624 169.578 145.871 171.478C146.119 173.13 146.615 174.782 147.936 176.021C149.093 177.095 150.662 178.003 152.232 178.499C154.379 179.16 160.739 179.16 162.97 178.829C163.548 178.747 163.465 179.16 162.391 179.407C161.235 179.655 156.527 179.903 155.288 179.903C154.131 179.903 152.975 179.903 151.819 179.655C149.919 179.242 148.102 178.416 146.78 177.012C145.458 175.608 144.88 173.791 144.715 171.973C144.55 169.991 144.715 167.926 144.963 165.944C145.128 165.696 145.376 165.696 145.376 165.861Z" fill="#263238"/>
<path d="M168.254 93.6685C168.832 96.7247 169.493 99.6983 169.988 102.755C170.319 104.654 170.484 106.472 170.649 108.371C170.154 109.032 169.575 109.776 168.832 110.436C168.832 109.941 168.749 109.528 168.749 109.032C168.584 106.802 168.254 104.654 167.923 102.424C167.923 102.342 167.841 102.342 167.841 102.424C168.171 104.737 168.254 107.05 168.419 109.28C168.419 109.776 168.419 110.271 168.419 110.767C167.841 111.262 167.097 111.758 166.354 112.254C166.354 111.675 166.354 111.18 166.271 110.602C166.189 109.363 166.189 108.041 166.024 106.802C165.776 104.324 165.445 101.846 164.95 99.3679C164.95 99.2853 164.785 99.2853 164.785 99.4505C165.115 102.011 165.363 104.572 165.528 107.132C165.611 108.371 165.693 109.528 165.693 110.767C165.693 111.345 165.693 111.923 165.693 112.501C164.537 113.162 163.133 113.823 161.563 114.401C157.516 115.888 152.973 115.805 148.76 115.145C145.126 114.566 141.574 113.245 138.435 110.849C139.426 108.867 140.005 106.637 140.418 104.489C140.418 104.407 140.335 104.407 140.335 104.489C139.922 105.893 139.426 107.298 138.848 108.619C138.6 109.28 138.27 109.858 138.022 110.519C137.94 110.519 137.94 110.436 137.857 110.436C137.527 110.189 137.279 109.941 136.948 109.61C137.527 108.371 137.94 106.967 138.353 105.646C138.931 103.746 139.426 101.846 139.674 99.8635C139.674 99.6983 139.509 99.6983 139.509 99.7809C138.931 101.598 138.435 103.498 137.857 105.315C137.444 106.637 136.948 107.876 136.535 109.197C135.627 108.289 134.883 107.215 134.801 105.728C134.801 104.572 135.214 103.415 135.544 102.424C135.957 101.268 136.288 100.029 136.535 98.7897C137.114 96.2291 137.444 93.5859 137.527 90.9427C137.609 88.4647 137.361 86.0693 137.444 83.5913C137.527 81.5263 138.105 79.5439 139.344 77.9745C140.418 76.7355 141.822 75.9095 143.226 75.4139C143.226 75.3313 150.164 67.8147 159.829 71.6969C167.758 74.9183 172.219 99.7809 172.219 102.259C172.219 103.746 171.971 105.563 170.814 107.463C170.732 105.893 170.484 104.324 170.236 102.837C169.741 99.6983 168.915 96.6421 168.089 93.5033C168.419 93.5033 168.254 93.5033 168.254 93.6685Z" fill="#263238"/>
<path d="M150.247 115.062C135.545 128.113 119.272 136.951 113.243 134.555C107.13 132.16 93.8315 110.106 93.1707 103.415C92.9229 100.524 109.443 88.8777 111.095 91.5209C113.077 94.5771 120.511 112.997 121.833 114.318C122.824 115.31 136.536 109.528 146.943 106.389C153.717 104.406 158.094 108.206 150.247 115.062Z" fill="#F0DFC8"/>
<path d="M137.114 127.204L134.967 109.941C134.967 109.941 143.144 106.802 147.852 105.728C154.13 104.241 157.517 106.224 152.808 112.666C149.752 116.962 137.114 127.204 137.114 127.204Z" fill="white"/>
<path d="M136.701 109.28C136.536 109.693 136.453 110.106 136.453 110.601C136.784 110.106 137.114 109.61 137.279 109.032C137.031 109.197 136.866 109.28 136.701 109.28ZM151.817 113.245C151.486 112.584 151.156 112.006 150.743 111.51C150.826 112.253 151.073 112.832 151.321 113.492C151.404 113.74 151.486 113.905 151.652 114.153C151.817 113.988 151.899 113.905 151.982 113.74C151.899 113.575 151.899 113.41 151.817 113.245Z" fill="white"/>
<path d="M138.518 125.222C138.353 122.661 138.188 120.183 137.94 117.622C137.775 116.383 137.61 115.144 137.445 113.905C137.279 112.666 136.949 111.427 136.784 110.188C136.784 110.106 136.701 110.106 136.701 110.188C136.949 111.427 137.032 112.666 137.114 113.988C137.279 115.227 137.445 116.466 137.61 117.788C137.94 120.266 138.188 122.826 138.436 125.304C138.436 125.304 138.518 125.304 138.518 125.222Z" fill="#263238"/>
<path opacity="0.1" d="M152.892 112.666C149.753 116.962 137.198 127.121 137.198 127.121L135.711 115.062L154.379 105.976C155.535 107.132 155.287 109.28 152.892 112.666Z" fill="#020100"/>
<path d="M85.4065 94.4945C87.3063 98.7071 94.6577 105.728 97.0531 106.719C99.4485 107.71 111.839 95.7335 111.591 93.0903C111.26 90.4471 103.744 76.8181 99.5311 74.6705C95.3185 72.6055 83.4241 90.1993 85.4065 94.4945Z" fill="#F0DFC8"/>
<path d="M110.683 90.6123C110.683 90.6123 110.353 84.5825 111.757 79.5439C112.996 75.2487 115.309 69.0537 112.996 68.3103C108.288 66.8235 102.589 82.2697 102.589 82.2697C102.589 82.2697 101.184 89.5385 105.645 91.4383C108.536 92.5947 110.683 90.6123 110.683 90.6123Z" fill="#F0DFC8"/>
<path d="M105.314 79.2961C105.066 81.6915 102.34 80.0395 102.34 80.0395C102.34 80.0395 105.644 83.4261 104.405 85.8215C103.166 88.1343 100.027 85.9041 99.7794 85.7389C99.9446 85.9041 102.918 89.1255 101.349 91.4383C99.7794 93.8337 96.971 91.0253 96.8058 90.8601C96.8884 91.1079 98.2926 94.0815 96.8058 95.4857C94.1626 98.0463 90.363 90.5297 87.5546 89.7037C87.5546 89.7037 85.6548 94.4119 85.5722 94.4945C85.5722 94.4945 81.8552 87.3909 83.1768 83.6739C83.8376 81.6915 85.82 81.9393 85.82 81.9393C85.82 81.9393 84.3332 79.7917 85.4896 77.9745C86.0678 77.0659 88.1328 77.1485 88.1328 77.1485C88.1328 77.1485 87.059 75.4139 88.1328 73.8445C89.0414 72.6055 90.9412 72.8533 90.9412 72.8533C90.9412 72.8533 90.6934 70.7057 92.015 69.7145C94.493 67.6495 105.892 74.0923 105.314 79.2961Z" fill="#F0DFC8"/>
<path d="M91.0234 72.8534C95.3186 74.0098 99.6964 76.5704 102.422 80.1222C102.505 80.2048 102.34 80.4526 102.257 80.2874C98.7878 77.2312 95.3186 74.8358 91.0234 72.8534Z" fill="#263238"/>
<path d="M87.9664 77.066C87.8838 77.066 87.9664 76.9834 87.9664 76.9834C92.3442 78.2224 97.135 81.2786 99.9434 85.739C100.026 85.9042 99.9434 86.152 99.8608 85.9868C97.7958 83.1784 91.766 78.8006 87.9664 77.066Z" fill="#263238"/>
<path d="M96.8052 91.2733C93.9968 87.1433 90.1972 84.3349 85.8194 82.0221C85.7368 82.0221 85.8194 81.9395 85.902 81.9395C88.2974 82.5177 90.9406 84.2523 92.8404 85.8217C94.6576 87.3085 96.0618 89.0431 96.8878 91.1907C97.053 91.1907 96.8878 91.3559 96.8052 91.2733Z" fill="#263238"/>
<path d="M102.422 79.957C102.504 80.1222 102.174 80.1222 102.339 80.2048C102.752 80.783 105.148 84.5826 104.074 85.8216C103.248 86.8128 101.348 86.3172 100.687 85.9042L99.0353 84.7478L100.192 86.3998C100.687 87.1432 101.1 87.9692 101.348 88.7952C101.596 89.6212 101.596 90.5298 101.183 91.1906C100.77 91.8514 100.026 92.1818 99.2005 91.934C98.4571 91.6862 97.6311 91.1906 97.0529 90.5298L95.4009 88.7952L96.3921 90.9428C96.6399 91.521 96.8877 92.1818 96.9703 92.8426C97.0529 93.5034 97.0529 94.1642 96.8877 94.6598C96.6399 95.1554 96.1443 95.5684 95.5661 95.5684C94.9879 95.5684 94.4097 95.238 93.8315 94.9076C92.6751 94.1642 91.7665 93.173 90.6927 92.1818C90.1971 91.6862 89.7015 91.1906 89.1233 90.7776C88.6277 90.3646 88.0495 89.869 87.3887 89.7038C88.0495 89.9516 88.5451 90.4472 89.0407 90.9428C89.5363 91.4384 89.9493 91.934 90.4449 92.4296C91.3535 93.5034 92.3447 94.4946 93.5011 95.4032C94.0793 95.8162 94.7401 96.2292 95.5661 96.3118C96.3921 96.3118 97.2181 95.7336 97.5485 95.0728C97.8789 94.3294 97.8789 93.5034 97.7963 92.8426C97.6311 92.0992 97.4659 91.4384 97.1355 90.7776L96.4747 91.1906C97.1355 91.934 97.9615 92.5122 98.9527 92.8426C99.4483 93.0078 100.109 93.0078 100.605 92.76C101.1 92.5122 101.513 92.0992 101.844 91.6862C102.422 90.7776 102.339 89.6212 102.091 88.63C101.844 87.6388 101.348 86.8128 100.77 85.9868L100.274 86.4824C101.1 87.0606 103.165 87.804 104.652 86.4824C106.304 84.4174 103.083 80.6178 102.422 79.957Z" fill="#263238"/>
<path d="M102.34 79.9568C102.835 80.122 103.331 80.2872 103.827 80.2872C104.322 80.2872 104.653 80.122 104.9 79.7916C105.148 79.4612 105.148 78.9656 105.148 78.47C105.148 77.9744 105.066 77.4788 104.983 76.9006C105.313 77.3136 105.561 77.8092 105.726 78.3874C105.892 78.883 105.892 79.5438 105.561 80.122C105.396 80.3698 105.148 80.6176 104.818 80.7002C104.487 80.7828 104.157 80.7828 103.909 80.7828C103.166 80.7002 102.67 80.3698 102.34 79.9568Z" fill="#263238"/>
<path d="M131.167 137.447L121.338 162.144C121.338 162.144 156.938 162.887 167.924 162.805C167.924 162.805 174.78 122.744 163.794 109.363C158.343 102.672 153.469 103.002 148.844 107.215C147.687 108.289 132.076 120.101 130.341 126.709C128.772 132.491 131.167 137.447 131.167 137.447Z" fill="white"/>
<path d="M138.931 136.208C141.161 136.455 143.392 136.786 145.539 137.364C146.613 137.612 147.687 138.025 148.761 138.355C149.256 138.52 149.834 138.686 150.33 138.851C150.908 139.016 151.486 139.181 152.065 139.181C152.147 139.181 152.147 139.264 152.065 139.264C151.486 139.264 150.991 139.264 150.413 139.181C149.917 139.099 149.339 139.016 148.843 138.851C147.769 138.603 146.696 138.273 145.539 137.942C143.309 137.364 141.161 136.786 138.849 136.373C138.766 136.373 138.849 136.208 138.931 136.208Z" fill="#263238"/>
<path d="M133.397 138.107C135.214 137.942 137.114 137.86 138.931 137.86C139.84 137.86 140.748 137.942 141.74 138.025C142.153 138.107 142.648 138.107 143.061 138.19C143.557 138.273 144.052 138.355 144.465 138.438C144.548 138.438 144.548 138.52 144.465 138.52C143.97 138.438 143.557 138.52 143.061 138.52C142.566 138.52 142.153 138.52 141.657 138.438C140.748 138.438 139.84 138.355 138.849 138.355C137.031 138.273 135.132 138.19 133.314 138.19C133.314 138.273 133.314 138.19 133.397 138.107Z" fill="#263238"/>
<path d="M149.752 131.334C149.091 131.086 148.43 130.921 147.769 130.838C148.348 131.251 148.926 131.582 149.587 131.83C150.247 132.077 150.908 132.243 151.569 132.325C150.991 131.912 150.413 131.582 149.752 131.334ZM159.003 156.527C158.342 156.279 157.681 156.114 157.021 156.114C157.599 156.527 158.177 156.857 158.838 157.105C159.499 157.353 160.159 157.518 160.82 157.601C160.242 157.105 159.664 156.857 159.003 156.527ZM134.471 120.183C134.388 120.266 134.388 120.266 134.306 120.348C134.471 120.348 134.636 120.431 134.801 120.431C134.719 120.348 134.636 120.266 134.471 120.183ZM139.922 156.527C139.262 156.279 138.601 156.114 137.94 156.114C138.518 156.527 139.096 156.857 139.757 157.105C140.418 157.353 141.079 157.518 141.74 157.601C141.161 157.105 140.501 156.857 139.922 156.527ZM164.702 116.053C164.042 115.805 163.381 115.64 162.72 115.557C163.298 115.97 163.876 116.301 164.537 116.549C165.198 116.796 165.859 116.962 166.52 116.962C165.941 116.549 165.363 116.301 164.702 116.053ZM157.847 104.489C157.681 104.737 157.599 105.067 157.516 105.315C157.268 105.976 157.103 106.637 157.103 107.297C157.516 106.719 157.847 106.141 158.094 105.48C158.177 105.232 158.26 104.902 158.342 104.654C158.094 104.572 157.929 104.572 157.847 104.489ZM149.669 148.432C149.421 149.093 149.256 149.754 149.256 150.415C149.669 149.836 150 149.258 150.247 148.597C150.495 147.937 150.66 147.276 150.743 146.615C150.165 147.193 149.917 147.854 149.669 148.432ZM158.59 125.222C158.342 125.882 158.177 126.543 158.094 127.204C158.507 126.626 158.838 126.048 159.086 125.387C159.333 124.726 159.499 124.065 159.581 123.404C159.168 123.983 158.838 124.561 158.59 125.222ZM129.763 162.309C129.928 162.309 130.01 162.309 130.176 162.309C130.258 162.061 130.258 161.731 130.341 161.4C130.093 161.648 129.928 161.979 129.763 162.309ZM165.446 148.267C164.868 148.597 164.207 148.928 163.711 149.341C164.455 149.258 165.033 149.01 165.694 148.763C166.272 148.515 166.933 148.184 167.428 147.689C166.767 147.771 166.107 148.019 165.446 148.267ZM139.509 144.385C138.931 144.633 138.27 145.046 137.775 145.459C138.518 145.376 139.096 145.128 139.757 144.88C140.335 144.55 140.996 144.22 141.492 143.807C140.748 143.889 140.17 144.137 139.509 144.385ZM145.126 121.918C144.548 122.248 143.887 122.578 143.392 122.991C144.135 122.909 144.713 122.661 145.374 122.413C145.952 122.083 146.613 121.752 147.109 121.339C146.365 121.339 145.704 121.587 145.126 121.918ZM150.082 161.483C150.165 161.896 150.247 162.309 150.413 162.639C150.578 162.639 150.743 162.639 150.908 162.639C150.66 162.226 150.413 161.813 150.082 161.483ZM128.441 150.662C128.193 150.084 127.78 149.423 127.367 148.928C127.45 149.671 127.698 150.249 127.945 150.91C128.276 151.488 128.606 152.149 129.019 152.645C128.937 151.901 128.689 151.323 128.441 150.662ZM137.362 132.656C137.114 132.077 136.701 131.417 136.288 130.921C136.371 131.664 136.618 132.243 136.866 132.903C137.197 133.482 137.527 134.142 137.94 134.638C137.94 133.895 137.692 133.234 137.362 132.656ZM158.838 138.685C158.507 138.025 158.177 137.446 157.764 136.951C157.847 137.694 158.094 138.272 158.342 138.933C158.59 139.511 159.003 140.172 159.416 140.668C159.333 140.007 159.168 139.346 158.838 138.685ZM151.817 113.245C151.486 112.584 151.156 112.006 150.743 111.51C150.826 112.253 151.073 112.832 151.321 113.492C151.569 114.071 151.982 114.731 152.395 115.227C152.312 114.566 152.065 113.905 151.817 113.245Z" fill="#FF9B95" fill-opacity="0.3523"/>
<path d="M170.814 115.227C179.074 125.222 188.078 143.229 185.434 152.397C182.874 161.235 143.556 159.996 136.866 159.005C133.975 158.592 137.279 138.686 140.335 138.933C145.456 139.264 166.436 137.529 166.767 137.529C166.767 137.529 163.545 128.113 161.15 117.87C157.929 103.911 164.95 108.124 170.814 115.227Z" fill="#F0DFC8"/>
<path d="M166.602 137.364C168.254 137.694 169.74 138.438 171.145 139.181C172.549 140.007 173.953 140.916 175.109 142.072C173.623 141.246 172.301 140.42 170.814 139.677C169.41 138.933 168.006 138.19 166.602 137.364Z" fill="#263238"/>
<path d="M179.901 148.763H129.102V151.076H179.901V148.763Z" fill="#C7C7C7"/>
<path d="M154.708 148.763H129.102V151.076H154.708V148.763Z" fill="#A6A6A6"/>
<path d="M151.899 150.993H102.422L95.8965 117.375H145.456L151.899 150.993Z" fill="#C7C7C7"/>
<path d="M126.955 134.225C127.12 135.877 125.881 137.199 124.229 137.199C122.577 137.199 121.09 135.877 120.925 134.225C120.76 132.573 121.999 131.252 123.651 131.252C125.303 131.169 126.79 132.573 126.955 134.225Z" fill="white"/>
<path d="M146.118 152.893C142.732 154.545 138.684 158.758 135.876 159.088C133.398 159.418 132.489 157.353 132.489 157.353C132.489 157.353 131.168 160.162 128.607 160.079C127.285 160.079 126.212 157.932 126.212 157.932C126.212 157.932 125.055 160.162 122.742 159.914C120.925 159.749 120.099 157.684 120.099 157.684C120.099 157.684 118.034 159.253 116.217 158.51C112.583 157.023 112.17 141.329 117.869 138.851C120.512 137.695 120.43 141.494 120.43 141.494C120.43 141.494 121.916 136.043 125.138 135.877C128.359 135.712 127.864 140.668 127.864 140.668C127.864 140.668 129.35 135.382 132.737 135.547C136.206 135.712 134.967 140.586 134.967 140.586C134.967 140.586 137.28 137.034 139.758 137.777C143.971 138.934 138.932 146.946 139.841 150.415L145.457 150.58L146.118 152.893Z" fill="#F0DFC8"/>
<path d="M141.245 155.784C144.549 154.462 146.035 156.858 149.505 156.527C153.304 156.114 152.23 151.654 145.54 150.663L139.758 150.498L141.245 155.784Z" fill="#F0DFC8"/>
<path d="M119.852 157.436C119.852 157.519 119.934 157.436 119.852 157.436C118.365 152.315 118.448 146.285 120.347 141.329C120.43 141.164 120.678 141.164 120.678 141.412C119.769 146.863 119.274 151.819 119.852 157.436Z" fill="#263238"/>
<path d="M126.13 158.097C126.13 158.179 126.048 158.179 126.048 158.097C124.643 152.81 124.891 146.037 127.782 140.586C127.865 140.42 128.195 140.338 128.03 140.586C126.378 144.303 125.552 153.058 126.13 158.097Z" fill="#263238"/>
<path d="M135.299 140.338C132.738 145.707 132.16 151.324 132.408 157.188C132.408 157.271 132.325 157.271 132.243 157.188C131.334 154.38 131.582 150.58 131.995 147.689C132.408 144.881 133.316 142.485 135.051 140.255C135.134 140.173 135.299 140.255 135.299 140.338Z" fill="#263238"/>
<path d="M136.537 159.005C137.528 158.675 138.437 158.097 139.346 157.519C140.254 156.94 140.998 156.197 141.906 155.619C142.154 155.454 142.402 155.371 142.65 155.288C142.98 155.206 143.228 155.288 143.558 155.288C144.136 155.371 144.632 155.536 145.128 155.619C146.119 155.867 147.193 156.197 148.184 156.28C149.175 156.362 150.331 156.362 150.91 155.701C151.24 155.371 151.405 154.875 151.405 154.462C151.405 154.049 151.157 153.554 150.91 153.223C150.249 152.48 149.34 151.902 148.349 151.489C147.358 151.076 146.367 150.745 145.293 150.58C146.367 150.498 147.44 150.828 148.432 151.158C149.423 151.571 150.414 151.984 151.24 152.81C151.653 153.223 151.901 153.802 151.901 154.38C151.901 154.958 151.653 155.536 151.24 156.032C150.827 156.527 150.249 156.693 149.671 156.775C149.092 156.858 148.514 156.858 148.019 156.775C146.945 156.61 145.871 156.28 144.88 156.032C144.384 155.867 143.889 155.701 143.393 155.619C143.145 155.536 142.897 155.536 142.65 155.536C142.402 155.619 142.237 155.701 141.989 155.784C140.337 157.023 138.602 158.427 136.537 159.005Z" fill="#263238"/>
<path d="M180.561 126.626L162.636 127.287C162.636 127.287 160.158 118.614 159.498 113.575C158.589 106.967 160.819 105.067 167.014 110.436C171.062 114.071 180.561 126.626 180.561 126.626Z" fill="white"/>
<path d="M173.375 125.304C172.632 125.222 171.971 124.891 171.228 124.644C170.567 124.313 169.906 123.983 169.328 123.487C170.071 123.57 170.732 123.9 171.475 124.148C172.054 124.478 172.714 124.809 173.375 125.304ZM168.997 112.501C168.337 112.584 167.758 112.832 167.098 112.997C166.437 113.245 165.776 113.575 165.115 113.988C165.859 113.906 166.602 113.658 167.263 113.41C167.841 113.162 168.502 112.914 169.08 112.501C168.997 112.501 168.997 112.501 168.997 112.501Z" fill="white"/>
<path d="M164.371 127.204C164.206 127.204 162.719 127.122 162.637 127.204C162.389 126.213 162.141 125.139 161.811 124.148C161.646 123.652 161.563 123.157 161.398 122.579C161.233 122 161.067 121.34 160.902 120.844C160.902 120.761 160.737 120.761 160.82 120.844C160.985 121.505 161.067 122 161.15 122.579C161.233 122.992 161.315 123.405 161.398 123.818C161.315 123.735 161.315 123.652 161.233 123.57C160.985 123.074 160.654 122.579 160.407 122C160.407 121.918 160.241 122 160.324 122.083C160.572 122.579 160.737 123.157 160.985 123.652C161.15 124.065 161.315 124.478 161.563 124.809C161.811 125.717 161.893 126.709 162.141 127.535C162.306 127.7 164.206 127.369 164.371 127.204C164.454 127.287 164.454 127.287 164.371 127.204Z" fill="#263238"/>
<path d="M178.66 124.974C176.017 124.891 173.456 124.809 170.813 124.891C169.492 124.891 164.288 125.304 162.966 125.387C162.884 125.387 162.884 125.47 162.966 125.47C164.618 125.552 169.739 125.387 171.061 125.304C173.704 125.222 176.017 125.057 178.66 124.974C178.743 125.139 178.743 124.974 178.66 124.974Z" fill="#263238"/>
<path d="M159.581 109.197C159.168 109.941 153.634 114.236 149.917 112.997C148.678 112.584 150.661 105.811 150.661 105.811V105.315L151.074 97.8811L160.82 94.9075L162.225 94.5771C162.225 94.5771 161.977 96.6421 161.646 99.1201C161.646 99.2027 161.646 99.3679 161.564 99.4506C161.564 99.6157 161.564 99.6983 161.481 99.8635C161.399 100.277 161.399 100.607 161.316 101.02C161.316 101.35 161.233 101.598 161.151 101.929C161.068 102.259 161.068 102.507 160.986 102.837C160.573 105.811 159.747 108.867 159.581 109.197Z" fill="#F0DFC8"/>
<path d="M162.224 94.4944C162.224 94.4944 161.976 96.5594 161.645 99.0374C161.645 99.12 161.645 99.2852 161.563 99.3678C161.563 99.533 161.563 99.6156 161.48 99.7808C161.398 100.194 161.398 100.524 161.315 100.937C161.315 101.268 161.232 101.515 161.15 101.846C161.067 102.176 161.067 102.424 160.985 102.754C160.819 103.746 160.654 104.654 160.406 105.563C154.955 105.48 151.568 101.681 150.742 100.524L150.907 97.7984L160.654 94.8248L162.224 94.4944Z" fill="#263238"/>
<path d="M168.832 87.4735C169.823 100.524 162.141 102.589 159.25 102.837C156.689 103.002 147.934 103.333 145.621 90.4471C143.308 77.5615 149.008 72.9359 154.872 72.1925C160.737 71.4491 167.84 74.4227 168.832 87.4735Z" fill="#F0DFC8"/>
<path d="M166.023 84.4174C165.693 84.4174 165.445 84.3348 165.115 84.2522C164.784 84.1696 164.454 84.1696 164.206 83.9218C164.041 83.7566 164.041 83.5088 164.206 83.3436C164.454 83.0132 164.949 82.9306 165.362 83.0132C165.858 83.0958 166.188 83.261 166.436 83.5088C166.767 83.8392 166.436 84.4174 166.023 84.4174Z" fill="#263238"/>
<path d="M157.35 85.904C157.68 85.8214 157.928 85.7388 158.259 85.6562C158.589 85.5736 158.837 85.491 159.085 85.2432C159.25 85.078 159.167 84.8302 159.085 84.665C158.754 84.3346 158.341 84.3346 157.928 84.4172C157.515 84.4998 157.185 84.7476 156.854 85.078C156.524 85.4084 156.937 85.904 157.35 85.904Z" fill="#263238"/>
<path d="M159.498 88.217L159.415 88.2996C159.498 89.2082 159.415 90.1994 158.672 90.6124V90.695C159.663 90.4472 159.746 89.043 159.498 88.217Z" fill="#263238"/>
<path d="M158.59 87.3083C157.103 87.3083 157.186 90.1993 158.59 90.1993C159.912 90.2819 159.829 87.3083 158.59 87.3083Z" fill="#263238"/>
<path d="M158.094 87.4737C157.846 87.6389 157.598 87.9693 157.268 87.9693C156.938 88.0519 156.607 87.7215 156.442 87.3911H156.359C156.359 87.9693 156.607 88.5475 157.185 88.5475C157.764 88.6301 158.094 88.1345 158.259 87.5563C158.259 87.5563 158.177 87.3911 158.094 87.4737Z" fill="#263238"/>
<path d="M164.701 87.5562C164.784 88.5474 164.949 89.5386 165.775 89.869V89.9516C164.784 89.7864 164.536 88.4648 164.701 87.5562Z" fill="#263238"/>
<path d="M165.446 86.5652C166.85 86.4 167.098 89.291 165.776 89.4562C164.455 89.6214 164.207 86.7304 165.446 86.5652Z" fill="#263238"/>
<path d="M166.108 86.7302C166.355 86.8954 166.603 87.1432 166.851 87.1432C167.181 87.1432 167.347 86.8128 167.594 86.4824H167.677C167.76 87.0606 167.594 87.6388 167.099 87.804C166.603 87.9692 166.19 87.4736 166.025 86.978C165.942 86.8128 165.942 86.6476 166.108 86.7302Z" fill="#263238"/>
<path d="M159.415 95.238C159.662 95.4858 159.828 95.7336 160.158 95.8162C160.488 95.8162 160.819 95.7336 161.149 95.651C161.149 95.651 161.232 95.651 161.149 95.7336C160.901 96.064 160.406 96.3118 159.993 96.2292C159.58 96.1466 159.415 95.8162 159.332 95.4032C159.332 95.238 159.415 95.238 159.415 95.238Z" fill="#263238"/>
<path d="M163.462 91.6861C163.462 91.6861 163.71 93.0077 163.71 93.6685C163.71 93.7511 161.727 94.2467 160.323 92.7599C160.241 92.6773 160.323 92.5947 160.406 92.6773C161.232 93.2555 162.223 93.4207 163.214 93.3381C163.214 93.1729 162.719 91.0253 162.801 91.0253C163.132 90.9427 163.875 91.1905 164.288 91.2731C163.875 88.4647 163.049 85.7389 162.636 82.9305C162.636 82.8479 162.801 82.7653 162.801 82.8479C163.875 85.6563 164.453 88.8777 164.949 91.7687C165.031 92.1817 163.71 91.7687 163.462 91.6861Z" fill="#263238"/>
<path d="M146.447 91.7687C148.925 92.0165 149.421 86.2345 149.421 86.2345C149.421 86.2345 159.993 84.0869 160.654 75.4139C160.654 75.4139 162.637 80.8655 168.253 83.1783C168.253 83.1783 167.593 73.6793 159.993 72.1099C159.993 72.1099 150.577 68.9711 145.538 76.5703C140.582 84.2521 144.795 91.6035 146.447 91.7687Z" fill="#263238"/>
<path d="M160.654 74.8357C160.82 76.1573 160.654 77.4789 160.324 78.8005C159.911 80.1221 159.333 81.3611 158.424 82.3523C158.259 82.6001 157.929 82.8479 157.763 83.0957L157.433 83.4261C157.268 83.5087 157.185 83.6739 157.02 83.7565C156.772 83.9217 156.524 84.1695 156.194 84.3347C155.946 84.4999 155.616 84.6651 155.285 84.8303C155.12 84.9129 154.955 84.9955 154.872 85.0781L154.377 85.2433L153.468 85.6563C152.807 85.8215 152.147 85.9867 151.568 86.1519C152.147 85.9041 152.807 85.6563 153.386 85.3259L154.294 84.8303L154.707 84.5825C154.872 84.4999 154.955 84.4173 155.12 84.3347C155.368 84.1695 155.616 84.0043 155.946 83.7565C156.194 83.5913 156.442 83.3435 156.69 83.1783L157.02 82.8479L157.35 82.5175C157.598 82.2697 157.846 82.1045 158.011 81.7741C158.837 80.7829 159.498 79.6265 159.911 78.4701C160.159 77.8919 160.324 77.2311 160.489 76.5703C160.572 76.1573 160.654 75.4965 160.654 74.8357Z" fill="#263238"/>
<path d="M147.852 91.3556C147.852 91.3556 145.043 87.2256 143.144 88.2168C141.244 89.208 143.391 95.1552 145.539 95.9812C147.687 96.8072 148.513 94.8248 148.513 94.8248L147.852 91.3556Z" fill="#F0DFC8"/>
<path d="M143.804 89.8689C143.722 89.8689 143.722 89.9515 143.804 89.8689C145.291 90.5297 146.117 92.0165 146.695 93.5033C146.282 92.9251 145.621 92.5947 144.878 93.1729V93.2555C145.539 93.0903 145.952 93.2555 146.365 93.7511C146.695 94.0815 146.86 94.5771 147.108 94.9901C147.191 95.1553 147.439 95.0727 147.356 94.9075C147.356 92.8425 145.869 90.1167 143.804 89.8689Z" fill="#263238"/>
</g>
</svg>
