<svg height="20" viewBox="0 0 20 20" width="20" xmlns="http://www.w3.org/2000/svg"><path d="m11.8223891 18.2704778c.0264846.0017748.052628.0038908.079488.0038908h6.0542662c.7081912 0 1.284198-.5762116 1.284198-1.284198v-14.03464159c0-.70795222-.5760068-1.28423208-1.284198-1.28423208h-6.0542662c-.0266553 0-.0530034.00238908-.079488.0040273v-1.67532423l-11.81638227 1.57699659v16.80242321l11.81638227 1.6177816zm0-5.9424232h1.9592833v.7341638h-1.9592833zm0-.0917406v-.7476109h1.9592833v.7476109zm0-.8393515v-.8576792h1.9592833v.8576792zm0-.9494198v-.96010243h1.9592833v.96010243zm0-1.03839594v-.91460751h1.9592833v.91460751zm0-.99307167v-.91460751h1.9202048.0391126v.91460751zm.0795222-6.01075086h6.0542662c.3035153 0 .5503413.24696246.5503413.55037543v14.03481224c0 .3033448-.246826.5504096-.5503413.5504096h-6.0542662c-.0270308 0-.0533447-.0041297-.0795222-.0082935v-4.3920819h2.0377815v-.0001707h4.4596929v-5.80894195h-.0039932v-.90133106h-2.247372-.0784642-2.2474402v.00017065h-1.9202048v-4.01692833c.0261433-.00399317.0523208-.00802048.0795222-.00802048zm6.3261774 5.0959727v5.54716727h-.8563822v-5.27935157h-.5879864v5.27935157h-.4898634v-4.73703075h-.5879864v4.73703075h-.4314676v-4.20126283h-.5880204v4.20126283h-.8262799v-3.56119458-.07829351-.91460751-.07846416-.91460751h2.1296928.0786348zm-2.1595904-.07812287v-.91453925h2.168942v.82279864h-.0093174v.09174061zm-.0784642 0h-2.1298635-.0390443v-.91453925h2.1687372v.91453925zm-12.99812284 3.55075084c.24320819.0043345.51525598-.0480205.67617748-.1135495l.12334471.6801024c-.15013652.0759727-.48696246.1522867-.92061434.1406485-1.20453925-.0320819-1.80952218-.8444028-1.80952218-1.89849831 0-1.26273038.82941979-1.98726963 1.88836177-2.01511946.41853243-.01122867.73959045.07156997.88508533.14771331l-.16662116.69221843c-.16617748-.07139931-.39549488-.13546075-.68153584-.13061433-.63235495.01054607-1.1165529.42395904-1.1165529 1.25679181-.00003413.74938565.41129693 1.22836175 1.12187713 1.24030715zm2.2559727.7707509c-.42890785-.0116383-.84740614-.1375427-1.05491468-.2631741l.16914676-.7196928c.22508533.1240273.57368601.2511945.93600683.2572355.39440273.0068259.60484641-.1598294.60484641-.4172355 0-.2463823-.18160409-.3879181-.63846416-.5595222-.62211604-.22754267-1.02255973-.58348124-1.02255973-1.14522185 0-.65938567.52747441-1.17808874 1.41679181-1.20136519.4328669-.01156997.75464164.0743686.98645051.17522184l-.19696245.7303413c-.15593857-.07426621-.43116041-.18139932-.806314-.17522184-.37146757.00607508-.55034129.18307167-.55034129.38600682 0 .24938567.21201365.35774744.70337884.54750853.68225256.25665529 1.00761092.62358362 1.00761092 1.18716719-.00027304.6701366-.50477816 1.2259045-1.55467577 1.1979523zm4.20784983.0508873-1.09508533-.0282935-1.28914675-4.04320817.99327645-.02552901.49662116 1.71535836c.14088737.48546076.26945392.95416382.36764505 1.46655292l.01870307.0003413c.10453925-.4926963.23460751-.98037544.37740614-1.45146759l.53829352-1.77662116 1.0333447-.02624574z" fill="#29722c"/></svg>