<svg height="20" viewBox="0 0 20 20" width="20" xmlns="http://www.w3.org/2000/svg"><g fill="#145ab7"><path d="m5.78217317 8.72597623c-.54040747.00930391-.85188455.54166384-.85188455 1.24611206 0 .70977931.32159593 1.21585741.85701189 1.22512731.54865874.0098472.86713073-.5244482.86713073-1.24662137-.00020374-.66665535-.31320883-1.23409168-.87225807-1.224618z"/><path d="m1.94438031 8.80207131c-.16081494.00258064-.26421053.01959253-.32509338.03606112v2.26023767c.06088285.0164347.15972835.018438.24916808.0198642.65833616.0164686 1.09453311-.3731749 1.09453311-1.21494058.00492359-.73171477-.39293719-1.11205433-1.01860781-1.10122241z"/><path d="m11.817691 18.260781c.0265195.0014261.0526655.0037691.0795246.0037691h6.0509338c.7078438 0 1.2835314-.5758914 1.2835314-1.2835654v-14.02702884c0-.70757216-.5756876-1.28353141-1.2835314-1.28353141h-6.0509338c-.0266893 0-.0530051.0026146-.0795246.00383701v-1.67426146l-11.80994906 1.57612903v16.79334467l11.80994906 1.616944zm.0795246-15.85677421h6.0509338c.3033277 0 .5500849.24685908.5500849.55008489v14.02726652c0 .3031579-.2467912.5500849-.5500849.5500849h-6.0509338c-.0270288 0-.0533446-.0043124-.0795246-.0082173v-4.4844822h5.4378608c.1342954 0 .2431579-.1086927.2431579-.2427843 0-.1342955-.1088625-.2428184-.2431579-.2428184h-5.4378608v-1.4901867h5.4378608c.1342954 0 .2431579-.1088625.2431579-.2427844 0-.1342954-.1088625-.2427844-.2431579-.2427844h-5.4378608v-1.44393888h5.4378608c.1342954 0 .2431579-.10862479.2431579-.24281834s-.1088625-.24271647-.2431579-.24271647h-5.4378608v-1.45758913h2.5552462c.1339558 0 .2428183-.1086927.2428183-.24281834 0-.13419354-.1088625-.24288624-.2428183-.24288624h-2.5552462v-4.29252971c.02618-.00387097.052292-.0080815.0795246-.0080815zm-8.68960949 8.90533111c-.34713073.3011884-.86838709.4333446-1.49439728.4168421-.36967742-.010017-.62859083-.0420713-.80373515-.0719865v-3.35707975c.25820034-.05229202.59745331-.0863837.95898133-.09551782.60988115-.01602717 1.01144312.09385399 1.32937182.34302207.34567062.26716468.56404074.7026146.56404074 1.33198641.00003396.68210529-.23375212 1.14910019-.55426146 1.43273349zm2.53697793.5454329c-1.04071307-.0277419-1.63521222-.8464516-1.63521222-1.86709678 0-1.07375212.65609507-1.89351443 1.69385399-1.92108658 1.11171477-.02926995 1.73368421.81877759 1.73368421 1.85609507 0 1.23266549-.73612904 1.96020369-1.79232598 1.93208829zm4.34947366-.6167063c.2739559.004652.5808829-.0483531.7628184-.1151783l.1393208.6971138c-.1701188.0773175-.5497113.1547029-1.03857381.1414601-1.35551783-.0358234-2.03487267-.8670289-2.03487267-1.9437691 0-1.28916808.93151104-2.03147708 2.12370118-2.06281833.4719864-.0124618.8344313.07137521.9988116.14906621l-.1883871.70998302c-.1876401-.07280136-.4465875-.13840407-.7689304-.13314092-.71222414.01191851-1.25667236.43548388-1.25667236 1.286927 0 .76648552.46261461 1.25657042 1.26278436 1.27035652z"/><path d="m15.8368081 7.67677419.2250934-.91460102c.0574873-.22220713.0952802-.40957555.130017-.61741935h.0055348c.0229202.21049236.0574533.39521222.1065535.61741935l.2023429.91460102h.3810527l.5217996-1.94458404h-.3606451l-.2019695.88003396c-.0519185.23643463-.0981324.45857385-.1326655.67219015h-.0061121c-.0284889-.21066214-.0691001-.42706282-.1180305-.65796265l-.1933786-.89426146h-.3720883l-.2103905.88003396c-.0551443.24512733-.1104924.47595925-.1416299.68078098h-.005365c-.0318506-.19331069-.0780985-.44156197-.1273345-.67792869l-.184618-.88268251h-.3778268l.476129 1.94455008h.3835314z"/></g></svg>