<svg height="20" viewBox="0 0 20 20" width="20" xmlns="http://www.w3.org/2000/svg"><g fill="none"><path d="m1.75112628 9.36931741c-.11010239.00191126-.18167236.01358361-.22368601.02515358v1.58126281c.04201365.0115017.11047782.012901.17208191.013959.45266212.011843.75255973-.2601024.75255973-.8488054.00331058-.5118089-.2703413-.77812289-.70095563-.77156999z" fill="#9c9696"/><path d="m11.8223891 18.2706485c.0264846.0016041.052628.0037201.079488.0037201h6.0542662c.7081912 0 1.284198-.5762116 1.284198-1.284198v-14.03464159c0-.70795222-.5760068-1.28423208-1.284198-1.28423208h-6.0542662c-.0266553 0-.0530034.00262798-.079488.00385665v-1.67515358l-11.81638227 1.57699659v16.80242321l11.81638227 1.6177816zm0-10.1493857h6.3825597v4.3418771h-6.3825597zm4.2987713-.36692833h-4.2987713v-1.71699659h4.2987713zm1.8349829 9.78658703h-6.0542662c-.0270307 0-.0533447-.0043345-.079488-.0082935v-4.7025597h6.6840955v4.1604436c0 .3035154-.2468259.5504096-.5503413.5504096zm-6.054232-15.13559727h6.0542662c.3035153 0 .5503413.24696246.5503413.55037543v4.79863481h-2.0184301v-2.08392491h-4.6656996v-3.25706485c.0261433-.00382253.0523208-.00802048.0795222-.00802048zm-9.28122871 8.71890787c-.23901024.2103413-.59767918.3024232-1.02829351.2904437-.25443686-.0067918-.43279864-.0293857-.55324232-.0504778v-2.34935158c.17771331-.03610922.4112628-.05959045.66037542-.06546075.41924915-.01058021.69552901.06665529.91409557.2415017.23757679.18733789.38798635.49201365.38798635.93187713 0 .4770649-.16092151.8035836-.38092151 1.0014676zm1.74290103.382901c-.71477816-.019727-1.12368601-.5926621-1.12368601-1.3061092 0-.75085325.45109215-1.3232082 1.16426621-1.3410239.7628669-.0190785 1.18989761.5740273 1.18989761 1.298942-.00003413.8608874-.5056314 1.3687713-1.23047781 1.3481911zm2.98361775-.4274744c.18767918.0035495.39808873-.0334812.52252559-.0801024l.09556314.4867918c-.1165529.0537543-.37668942.1074744-.71163822.0981911-.92911263-.0261774-1.39518772-.6072013-1.39518772-1.3590784 0-.90068264.63880546-1.41788401 1.45648465-1.43825943.32320819-.00805461.57143344.05078498.68409556.10552901l-.12935154.49511945c-.12829351-.05098976-.30566553-.09720137-.52672355-.09368601-.48843003.00754266-.86098976.30249147-.86098976.89723548.00006826.5351536.31709898.8778157.86522185.8882594zm2.59972696.5385324-.27235495-.5209897c-.11095563-.1992492-.18163823-.3468942-.2650512-.511297h-.00904436c-.06163823.1624915-.13604096.3078157-.22744028.502355l-.24331058.501843-.74174061-.020273.8327645-1.3947441-.80337884-1.36515356.74699659-.01798635.25645051.50709898c.08750854.17003413.15300342.30723549.22368601.46580205h.00860068c.07105802-.18064847.12825939-.30733789.2034471-.47221843l.25450512-.52358362.79044368-.01911263-.86215016 1.40918086.90832766 1.4806144z" fill="#145ab7"/><g fill="#9c9696"><path d="m4.38924915 9.32071672c-.37116041.00583618-.5850512.37750854-.5850512.87013648 0 .4959045.22109215.849727.5887372.8567577.37703072.0071673.59515359-.3656996.59515359-.8702048 0-.46590439-.21460751-.86276446-.59883959-.85668938z"/><path d="m12.8278157 8.65624573c.1350853 0 .2447099.10945393.2447099.24453925 0 .13498294-.1096246.24453925-.2447099.24453925s-.2443686-.10955631-.2443686-.24453925c0-.13508532.1092833-.24453925.2443686-.24453925z"/><path d="m13.447747 8.809044h3.730512v1h-3.730512z"/><path d="m12.8278157 9.5431058c.1350853 0 .2447099.10945393.2447099.24453925 0 .13498294-.1096246.24464165-.2447099.24464165s-.2443686-.10965871-.2443686-.24464165c0-.13508532.1092833-.24453925.2443686-.24453925z"/><path d="m13.447747 9.695734h3.730512v1h-3.730512z"/><path d="m12.8278157 10.4969966c.1350853 0 .2447099.1096246.2447099.2445392 0 .1350854-.1096246.2446075-.2447099.2446075s-.2443686-.1095221-.2443686-.2446075c0-.1349146.1092833-.2445392.2443686-.2445392z"/><path d="m13.447747 10.649829h3.730512v1h-3.730512z"/><path d="m12.8278157 11.3990785c.1350853 0 .2447099.1094881.2447099.2445392 0 .1350854-.1096246.2445734-.2447099.2445734s-.2443686-.109488-.2443686-.2445734c0-.1350511.1092833-.2445392.2443686-.2445392z"/><path d="m13.447747 11.551741h3.730512v1h-3.730512z"/></g></g></svg>