<?xml version="1.0" encoding="UTF-8"?>
<svg width="20px" height="20px" viewBox="0 0 20 20" version="1.1" xmlns="http://www.w3.org/2000/svg" xmlns:xlink="http://www.w3.org/1999/xlink">
    <!-- Generator: Sketch 63.1 (92452) - https://sketch.com -->
    <title>FILE</title>
    <desc>Created with Sketch.</desc>
    <g id="Icon-Set" stroke="none" stroke-width="1" fill="none" fill-rule="evenodd">
        <g id="FILE" fill="#EE4136" fill-rule="nonzero">
            <path d="M11.8223891,18.2706485 C11.8488737,18.2722526 11.8750171,18.2743686 11.9018771,18.2743686 L17.9561433,18.2743686 C18.6643345,18.2743686 19.2403413,17.698157 19.2403413,16.9901706 L19.2403413,2.95552901 C19.2403413,2.24757679 18.6643345,1.67129693 17.9561433,1.67129693 L11.9018771,1.67129693 C11.8752218,1.67129693 11.8488737,1.67392491 11.8223891,1.67515358 L11.8223891,0 L0.00600682594,1.57699659 L0.00600682594,18.3794198 L11.8223891,19.9972014 L11.8223891,18.2706485 Z M18.5064846,16.9905119 C18.5064846,17.2940273 18.2596587,17.5409215 17.9561433,17.5409215 L11.9018771,17.5409215 C11.8748464,17.5409215 11.8485324,17.536587 11.8223891,17.532628 L11.8223891,12.8300683 L11.8280068,12.83 L11.8223891,5.67040956 L11.8223891,2.41334471 C11.8485324,2.40952218 11.8747099,2.40532423 11.9019113,2.40532423 L17.9561775,2.40532423 C18.2596928,2.40532423 18.5065188,2.65228669 18.5065188,2.95569966 L18.5064846,16.9905119 Z" id="Shape"></path>
        </g>
    </g>
</svg>