<svg width="106" height="124" viewBox="0 0 106 124" fill="none" xmlns="http://www.w3.org/2000/svg">
<g filter="url(#filter0_d_1291_28257)">
<path d="M16 111.089H90C94.4183 111.089 98 107.507 98 103.089V30.4873L73.0602 4H16C11.5817 4 8 7.58172 8 12V103.089C8 107.507 11.5817 111.089 16 111.089Z" fill="white"/>
<path d="M90 110.589H16C11.8579 110.589 8.5 107.231 8.5 103.089V12C8.5 7.85786 11.8579 4.5 16 4.5H72.8443L97.5 30.6857V103.089C97.5 107.231 94.1421 110.589 90 110.589Z" stroke="#D8D8D8"/>
</g>
<path d="M52.0235 66.1128H41.1685L38.9508 72.9701C38.8925 73.2328 38.659 73.4078 38.3964 73.3787H32.9106C32.5896 73.3787 32.502 73.2036 32.5896 72.8534L41.9855 45.8036C42.0731 45.5118 42.1606 45.1908 42.2773 44.8406C42.3941 44.2279 42.4524 43.5859 42.4524 42.9439C42.4232 42.798 42.54 42.6521 42.6859 42.623H50.2435C50.4769 42.623 50.5936 42.7105 50.6228 42.8564L61.2735 72.9118C61.361 73.2328 61.2735 73.3787 60.9817 73.3787H54.8831C54.6788 73.4078 54.4746 73.2619 54.4162 73.0577L52.0235 66.1128ZM42.8609 60.1893H50.2727C50.0976 59.5765 49.8641 58.847 49.6015 58.0883C49.3389 57.3005 49.0763 56.4543 48.8137 55.5789C48.5219 54.6743 48.2592 53.7989 47.9674 52.8943C47.6756 51.9897 47.413 51.1435 47.1796 50.2973C46.9461 49.4802 46.7419 48.7216 46.5376 48.0212H46.4793C46.2166 49.276 45.8957 50.5307 45.4871 51.7855C45.0494 53.1861 44.6117 54.6451 44.1449 56.1041C43.7363 57.5923 43.2986 58.9637 42.8609 60.1893ZM67.7806 47.7294C66.8177 47.7586 65.8839 47.3793 65.1836 46.7081C64.5125 45.9786 64.1623 45.0157 64.1915 44.0236C64.1623 43.0315 64.5417 42.0977 65.242 41.4266C65.9423 40.7554 66.8761 40.4053 67.839 40.4053C68.977 40.4053 69.8524 40.7554 70.4944 41.4266C71.1363 42.1269 71.4865 43.0607 71.4573 44.0236C71.4865 45.0157 71.1363 45.9786 70.436 46.7081C69.7649 47.4085 68.7728 47.7878 67.7806 47.7294ZM64.5125 73.0577V50.5891C64.5125 50.2973 64.6292 50.1806 64.8918 50.1806H70.6695C70.9321 50.1806 71.0488 50.3265 71.0488 50.5891V73.0577C71.0488 73.3787 70.9321 73.5246 70.6695 73.5246H64.9502C64.6584 73.5246 64.5125 73.3495 64.5125 73.0577Z" fill="#FF9A00"/>
<defs>
<filter id="filter0_d_1291_28257" x="0" y="0" width="106" height="123.088" filterUnits="userSpaceOnUse" color-interpolation-filters="sRGB">
<feFlood flood-opacity="0" result="BackgroundImageFix"/>
<feColorMatrix in="SourceAlpha" type="matrix" values="0 0 0 0 0 0 0 0 0 0 0 0 0 0 0 0 0 0 127 0" result="hardAlpha"/>
<feOffset dy="4"/>
<feGaussianBlur stdDeviation="4"/>
<feComposite in2="hardAlpha" operator="out"/>
<feColorMatrix type="matrix" values="0 0 0 0 0.611765 0 0 0 0 0.588235 0 0 0 0 0.588235 0 0 0 0.25 0"/>
<feBlend mode="normal" in2="BackgroundImageFix" result="effect1_dropShadow_1291_28257"/>
<feBlend mode="normal" in="SourceGraphic" in2="effect1_dropShadow_1291_28257" result="shape"/>
</filter>
</defs>
</svg>
