<svg height="20" viewBox="0 0 20 20" width="20" xmlns="http://www.w3.org/2000/svg"><g fill="none"><path d="m11.8225256 18.2706485c.0261775.0016041.0526621.0037201.0795222.0037201h6.0542662c.7080205 0 1.2841979-.5762116 1.2841979-1.284198v-14.03464159c0-.70795222-.5761774-1.28423208-1.2841979-1.28423208h-6.0542662c-.0266894 0-.0533447.00262798-.0795222.00385665v-1.67515358l-11.81672355 1.57699659v16.80242321l11.81672355 1.6177816zm.0795222-15.86532427h6.0542662c.3034812 0 .5503413.24696246.5503413.55037543v14.03481224c0 .3035154-.2468601.5504096-.5503413.5504096h-6.0542662c-.0270307 0-.0533447-.0043345-.0795222-.0082935v-5.951843c.1897611.1499659.7302389.254744 1.9446075.254744 1.6447099-.0003754 2.3670649-.3019113 2.4853242-.4292491.1186007-.1280888-.0368942-.228669-.0368942-.228669s.054983.0639932-.0175426.1369283c-.0729693.0725256-.7406826.2556314-1.8099318.3101366-1.0686689.0553242-2.2292491-.1003072-2.266314-.237611-.035529-.1366894.5944369-.2461433.5944369-.2461433-.0600683.0075427-.6675768.0215358-.893686.1601707v-8.88774749c.0261775-.00382253.0523208-.00802048.0795222-.00802048zm-8.85406145 7.65474407c0 1.0812286-.48044369 1.4445051-1.24088737 1.4230375-.17744028-.0046758-.40911263-.0444027-.56017065-.1031399l.0852901-.6744028c.10569966.040512.24187713.0706144.39354949.0732765.32607508.0058703.53129693-.1519113.53129693-.7368942v-2.36133107l.7909215-.01918088zm2.89174061 1.4751535-.29430034-1.0163481-1.0725256-.0150512-.26232082.9870307-.84969283-.0233105 1.11197952-3.84293519 1.1116041-.02675768 1.19778157 3.96337887zm3.60989761.0987372c-.06843003-.1178498-.16767918-.4568942-.29133105-.9660068-.11095564-.5138908-.28952219-.6553925-.66870308-.6643686l-.27815699-.0017747v1.5984641l-.90153584-.0248805v-3.96546076c.29023891-.05467577.72672355-.10116041 1.21658703-.11324232.6131058-.01457338 1.04771331.06665529 1.34887372.29358362.25259384.19286689.39238904.48081911.39238904.86460751 0 .53215017-.38607505.89699658-.7493515 1.02525597v.01825938c.29430035.11798635.4576451.3962116.5651877.78.1332765.4715358.266587 1.0192492.3493516 1.1824573z" fill="#0068b4"/><path d="m8.73030717 8.17941923c-.22511946.00365244-.35259386.02399374-.4184983.03692889v1.12177475l.36368601-.0003413c.46535836-.00054608.74389079-.23334471.74389079-.59416382-.00020478-.37952219-.25996587-.56457338-.6890785-.56419852z" fill="#0068b4"/><path d="m5.09682594 8.27167235-.01119454.00037543c-.05518771.23208191-.11081911.52744027-.17129693.75293516l-.22071672.82409556.82808873.00460751-.23535836-.83088738c-.06696245-.23139931-.13348123-.52037542-.18952218-.75112628z" fill="#0068b4"/><path d="m14.045529 9.09409556s-.3701365-.71307167-.3564846-1.23416382c.0100341-.37204778.8495563-.74003413 1.1792491-1.27443686.3285666-.53464164-.0411945-1.05525597-.0411945-1.05525597s.0824232.38392491-.1369284.78116041c-.2192832.39750853-1.028703.63088737-1.343686 1.31583617-.3146416.6853925.6990444 1.46686007.6990444 1.46686007z" fill="#ee4136"/><path d="m15.4304778 6.9283959s-1.2609556.47969284-1.2609556 1.02774744c0 .54853243.3425597.72668942.3974403.90477816.0547781.1784983-.0957338.47976109-.0957338.47976109s.4934129-.34255972.4106484-.74027303c-.0824232-.39754267-.4661433-.52098976-.2465187-.91819113.1465187-.26641638.7951194-.75382253.7951194-.75382253z" fill="#ee4136"/><g fill="#0068b4"><path d="m13.9090444 9.81825939c1.3010921-.04641639 1.4540614-.29143345 1.5898634-.40911263-.7535494.20522184-2.7547781.19204778-2.7691126.04122867-.0132423-.15058021.6166553-.27402731.6166553-.27402731s-.9864505 0-1.0688737.24651877c-.0824232.24679181.4669283.43634813 1.6314676.3953925z"/><path d="m15.5949829 10.3959727s1.2082253-.2431058 1.0958703-.86262799c-.13686-.75399317-1.0000682-.32928328-1.0000682-.32928328s.5620478 0 .6165188.34235495c.0548122.34262799-.7123209.84955632-.7123209.84955632z"/><path d="m13.0035836 10.1077133c-.0537201-.0956996.0964164-.15030716.0964164-.15030716-.6858703.16460756-.3110922.45221846.492628.50733786.6887713.0469625 1.4583618-.2056314 1.4583618-.2056314l.2372355-.1917065s-.5428669.075256-.968942.1232765c-.5707509.0640956-1.260512.0135495-1.3156997-.0829693z"/><path d="m13.2375427 10.7664505c-.0279181-.0642662.0272355-.1004778.0272355-.1004778s-.3110239.0087713-.328942.173413c-.0184301.1636177.0961775.2467235.8653242.22843.9155631-.0216724 1.0681911-.1305802 1.1624232-.2103413l.2232765-.1680546c-.5984301.0774061-.6446417.0989078-.9836178.1086007-.3411604.01-.9384641.0318771-.9656996-.03157z"/><path d="m15.612901 11.9449829c-.7220819.1462116-2.9142662.0541297-2.9142662.0541297s1.4246758.3382253 3.0514335.0551536c.7775768-.1354607.8226962-.511843.8226962-.511843s-.237884.256041-.9598635.4025597z"/></g></g></svg>