<?xml version="1.0" encoding="UTF-8"?>
<svg width="20px" height="20px" viewBox="0 0 20 20" version="1.1" xmlns="http://www.w3.org/2000/svg" xmlns:xlink="http://www.w3.org/1999/xlink">
    <!-- Generator: Sketch 63.1 (92452) - https://sketch.com -->
    <title>JPG</title>
    <desc>Created with Sketch.</desc>
    <g id="Icon-Set" stroke="none" stroke-width="1" fill="none" fill-rule="evenodd">
        <g id="JPG" fill="#737070" fill-rule="nonzero">
            <path d="M4.9110017,9.16825127 C4.73881154,9.17137521 4.6220034,9.19062818 4.56112054,9.20889643 L4.56112054,10.3570458 C4.63283531,10.374601 4.72118846,10.379966 4.84404075,10.3795925 C5.29786078,10.379219 5.58044143,10.1389134 5.58044143,9.73548387 C5.58027165,9.37283531 5.33711375,9.16091681 4.9110017,9.16825127 Z" id="Path"></path>
            <path d="M11.8178608,18.260781 C11.8440407,18.2622071 11.8705263,18.2645501 11.8973854,18.2645501 L17.9483192,18.2645501 C18.6559593,18.2645501 19.2318506,17.6886587 19.2318506,16.9809847 L19.2318506,2.95395586 C19.2318506,2.2463837 18.6559593,1.67042445 17.9483192,1.67042445 L11.8973854,1.67042445 C11.8706961,1.67042445 11.8440407,1.67303905 11.8178608,1.67426146 L11.8178608,0 L0.00753820034,1.57612903 L0.00753820034,18.3694737 L11.8178608,19.9864177 L11.8178608,18.260781 Z M11.8973854,2.40400679 L17.9483192,2.40400679 C18.2516469,2.40400679 18.4983701,2.65086587 18.4983701,2.95409168 L18.4983701,14.2456027 C18.0285229,13.03691 17.4526316,11.4086927 16.5836333,11.6308998 C15.5454329,11.8962649 15.0271986,14.3211885 15.0271986,14.3211885 L18.4987097,14.3211885 L18.4987097,16.9813582 C18.4987097,17.2847199 18.2518166,17.5314431 17.9486248,17.5314431 L11.8977589,17.5314431 C11.8705263,17.5314431 11.8443803,17.5273345 11.8180645,17.5235654 L11.8180645,14.3208489 L15.0270628,14.3208489 C15.0270628,14.3208489 14.4959593,11.5845501 13.0308659,10.1185739 C12.6122241,9.69983022 12.1971138,9.86448217 11.8178608,10.312326 L11.8178608,6.78302207 C11.978472,7.03935484 12.2613922,7.2110017 12.5867912,7.2110017 C13.0885229,7.2110017 13.4950085,6.80471986 13.4950085,6.30288625 C13.4950085,5.80098472 13.0885229,5.39504244 12.5867912,5.39504244 C12.2614261,5.39504244 11.9785059,5.5666893 11.8178608,5.82285229 L11.8178608,2.41208829 C11.8440407,2.40821732 11.8701528,2.40400679 11.8973854,2.40400679 Z M3.05483871,10.9875382 C3.05483871,12.0732088 2.56967742,12.4393888 1.80210526,12.4191511 C1.62332767,12.4146689 1.38916808,12.3747368 1.23697793,12.3160272 L1.32373514,11.6389813 C1.43008489,11.6796265 1.56726655,11.7093379 1.72054329,11.7116808 C2.0493039,11.7172496 2.25667233,11.5587776 2.25667233,10.9710696 L2.25667233,8.59894737 L3.05504244,8.57837012 L3.05504244,10.9875722 L3.05483871,10.9875722 L3.05483871,10.9875382 Z M6.08889643,10.6485908 C5.79093379,10.9352462 5.35402377,11.0611205 4.84977929,11.0573854 C4.7388455,11.0566723 4.63857385,11.0500509 4.5611545,11.0382343 L4.5611545,12.428489 L3.73565365,12.4073684 L3.73565365,8.61208829 C3.99073005,8.55979626 4.35154499,8.51619694 4.86624788,8.50251273 C5.39341256,8.48889643 5.77409168,8.58424448 6.03134126,8.78964346 C6.27979626,8.98471986 6.4472326,9.3127674 6.4472326,9.70278438 C6.44702886,10.0934805 6.31996604,10.4247538 6.08889643,10.6485908 Z M7.3939219,11.9983701 C7.02719864,11.645399 6.82692699,11.1195246 6.83297114,10.5311036 C6.83870968,9.19976231 7.80645161,8.4133107 9.15803056,8.37796265 C9.70241087,8.36363328 10.1271307,8.45789474 10.337725,8.55154499 L10.1332428,9.31239389 C9.89792869,9.21677419 9.60842105,9.14149406 9.14516129,9.14916808 C8.36370119,9.16213922 7.78247878,9.60495756 7.78247878,10.4832598 C7.78247878,11.3196944 8.30845501,11.8217997 9.07718166,11.8346689 C9.29456706,11.8382343 9.46967742,11.8164346 9.54488964,11.7809508 L9.54488964,10.9139559 L8.89748727,10.9101868 L8.89748727,10.1842445 L10.4793209,10.1781664 L10.4793209,12.3870968 C10.1779626,12.4793209 9.61470289,12.6009168 9.05864177,12.5867572 C8.30285229,12.5667233 7.76465195,12.36618 7.3939219,11.9983701 Z" id="Shape"></path>
            <path d="M15.6537861,9.39674024 C15.8371477,9.39674024 16.0086927,9.37786078 16.1612564,9.34696095 C16.3390492,9.42325976 16.5548387,9.46889643 16.7899491,9.46889643 C17.389983,9.46889643 17.8768761,9.17504244 17.8768761,8.81324278 C17.8768761,8.45073005 17.3903565,8.15714771 16.7899491,8.15714771 C16.5643124,8.15714771 16.3555518,8.19840407 16.1814941,8.26913413 C16.1105603,8.20054329 16.0147708,8.15714771 15.9084211,8.15714771 L15.7508319,8.15714771 C15.5495416,8.15714771 15.3898132,8.31005093 15.366893,8.50516129 C14.8791511,8.55599321 14.5188453,8.73168081 14.5188453,8.94251273 C14.5185059,9.19334465 15.0266893,9.39674024 15.6537861,9.39674024 Z" id="Path"></path>
        </g>
    </g>
</svg>