<?xml version="1.0" encoding="UTF-8"?>
<svg width="20px" height="20px" viewBox="0 0 20 20" version="1.1" xmlns="http://www.w3.org/2000/svg" xmlns:xlink="http://www.w3.org/1999/xlink">
    <!-- Generator: Sketch 63.1 (92452) - https://sketch.com -->
    <title>LNK</title>
    <desc>Created with Sketch.</desc>
    <g id="Icon-Set" stroke="none" stroke-width="1" fill="none" fill-rule="evenodd">
        <g id="LNK" fill="#EE4136" fill-rule="nonzero">
            <path d="M0.00600682594,1.57706485 L0.00600682594,18.3793857 L11.8223891,19.9972014 L11.8223891,18.2708191 C11.8488737,18.2725939 11.8750512,18.2747099 11.9019113,18.2747099 L17.9561775,18.2747099 C18.6641638,18.2747099 19.2403754,17.6984983 19.2403754,16.9905119 L19.2403754,2.95576792 C19.2403754,2.24771331 18.6641638,1.67153584 17.9561775,1.67153584 L11.9019113,1.67153584 C11.8750512,1.67153584 11.8488737,1.67406143 11.8223891,1.67576792 L11.8223891,0 L0.00600682594,1.57706485 Z M15.0712628,10.4113652 L14.7709898,9.99860068 C15.1074403,9.91546075 15.4757679,10.0354949 15.6917065,10.3329352 L16.9295563,12.0342321 C17.2137201,12.424744 17.1269625,12.9744369 16.7364164,13.2586007 L16.6033106,13.3551877 C16.2125597,13.6395222 15.6631058,13.5529352 15.378942,13.1624232 L14.1410922,11.4609215 C13.9379522,11.1812628 13.9273379,10.8227645 14.0783618,10.5361092 L14.3625256,10.9266894 C14.5047782,11.1226621 14.7789078,11.1665188 14.9747099,11.0237543 C15.1705119,10.8811263 15.2138908,10.6070307 15.0712628,10.4113652 Z M14.1790102,9.18474403 L13.8791468,8.77235495 C13.7367235,8.57607509 13.4624232,8.53296928 13.2667235,8.67604096 C13.0712628,8.8178157 13.0281229,9.09249147 13.1703754,9.28805461 L13.4547099,9.67860068 C13.1356314,9.73423208 12.7973379,9.61358362 12.5945392,9.33460751 L11.8227645,8.27334471 L11.8227645,6.85225256 C11.8334812,6.84365188 11.8417406,6.83313993 11.8532423,6.82508532 L11.9861433,6.72843003 C12.3768942,6.44416382 12.9264164,6.53064846 13.2105802,6.92194539 L14.1454266,8.20614334 C14.3603754,8.50303754 14.3616041,8.89030717 14.1790102,9.18474403 Z M2.88276451,11.982628 L0.892013652,11.9048464 L0.892013652,8.43883959 L1.59395904,8.40784983 L1.59395904,11.2631058 L2.88255973,11.2931741 L2.88255973,11.982628 L2.88276451,11.982628 Z M6.3474744,12.1180887 L5.44191126,12.082628 L4.65610922,10.594471 C4.44255973,10.1913652 4.20969283,9.70870307 4.03692833,9.27368601 L4.02133106,9.27979522 C4.04211604,9.77150171 4.0525256,10.2970307 4.0525256,10.9054949 L4.0525256,12.02843 L3.33300341,12.0003413 L3.33300341,8.33133106 L4.25197952,8.29075085 L5.00197952,9.65337884 C5.22064846,10.0534471 5.44191126,10.5312628 5.6090785,10.9673038 L5.62590444,10.9677474 C5.56989761,10.4574403 5.55324232,9.93720137 5.55324232,9.35982935 L5.55324232,8.23337884 L6.3474744,8.19853242 L6.3474744,12.1180887 Z M9.45982935,12.2395222 L8.40071672,10.4323891 L8.03890785,10.8589761 L8.03890785,12.1840273 L7.12143345,12.1481911 L7.12143345,8.16433447 L8.03890785,8.1240273 L8.03890785,9.91914676 L8.05744027,9.91877133 C8.15071672,9.76119454 8.25051195,9.61501706 8.34419795,9.46819113 L9.32259386,8.06730375 L10.5726962,8.01204778 L9.0887372,9.84361775 L10.6551195,12.2861433 L9.45982935,12.2395222 Z M11.9019113,2.40542662 L17.9561775,2.40542662 C18.2596587,2.40542662 18.5065188,2.65225256 18.5065188,2.95576792 L18.5065188,16.9905119 C18.5065188,17.2939932 18.2596587,17.5409215 17.9561775,17.5409215 L11.9019113,17.5409215 C11.8746758,17.5409215 11.8485666,17.5369283 11.8223891,17.5330375 L11.8223891,9.01822526 L12.2396587,9.59191126 C12.587372,10.0705461 13.2001706,10.2444027 13.7325939,10.0614334 L13.7999659,10.1537543 C13.4613993,10.6038567 13.43843,11.2402048 13.7864164,11.7185666 L15.0243345,13.4202048 C15.4507509,14.0060751 16.274744,14.1361775 16.860785,13.709727 L16.9937543,13.6129693 C17.5801706,13.1866212 17.71,12.362116 17.2835836,11.776587 L16.0457338,10.0749147 C15.6861775,9.58051195 15.0444369,9.41211604 14.5003413,9.62675768 L14.4496587,9.55723549 C14.8212287,9.1052901 14.8586689,8.44320819 14.4991126,7.94866894 L13.5645734,6.66372014 C13.1604096,6.10832765 12.3998635,5.96320819 11.8223891,6.31221843 L11.8223891,2.41365188 C11.8485324,2.40979522 11.8746758,2.40542662 11.9019113,2.40542662 Z" id="Shape"></path>
        </g>
    </g>
</svg>