<?xml version="1.0" encoding="UTF-8"?>
<svg width="20px" height="20px" viewBox="0 0 20 20" version="1.1" xmlns="http://www.w3.org/2000/svg" xmlns:xlink="http://www.w3.org/1999/xlink">
    <!-- Generator: Sketch 63.1 (92452) - https://sketch.com -->
    <title>MP3</title>
    <desc>Created with Sketch.</desc>
    <g id="Icon-Set" stroke="none" stroke-width="1" fill="none" fill-rule="evenodd">
        <g id="MP3" fill="#EE4136" fill-rule="nonzero">
            <path d="M6.29232082,8.39122867 C6.12389078,8.3943686 6.00996587,8.41276451 5.9509215,8.43075085 L5.9509215,9.53242321 C6.02081911,9.5490785 6.10761092,9.55447099 6.22682594,9.55409556 C6.67006826,9.55365188 6.94668942,9.32273038 6.94668942,8.9356314 C6.94668942,8.58761092 6.70911263,8.38406143 6.29232082,8.39122867 Z" id="Path"></path>
            <path d="M11.8223891,18.2704778 C11.8488737,18.2722526 11.8750171,18.2743686 11.9018771,18.2743686 L17.9561433,18.2743686 C18.6643345,18.2743686 19.2403413,17.698157 19.2403413,16.9901706 L19.2403413,2.95552901 C19.2403413,2.24757679 18.6643345,1.67129693 17.9561433,1.67129693 L11.9018771,1.67129693 C11.8752218,1.67129693 11.8488737,1.67368601 11.8223891,1.67532423 L11.8223891,0 L0.00600682594,1.57699659 L0.00600682594,18.3794198 L11.8223891,19.9972014 L11.8223891,18.2704778 Z M11.9019113,2.40532423 L17.9561775,2.40532423 C18.2596928,2.40532423 18.5065188,2.65228669 18.5065188,2.95569966 L18.5065188,16.9905119 C18.5065188,17.2938567 18.2596928,17.5409215 17.9561775,17.5409215 L11.9019113,17.5409215 C11.8748805,17.5409215 11.8485666,17.5367918 11.8224232,17.532628 L11.8224232,10.4991468 C12.1991809,11.7242662 13.3409556,12.6175768 14.6886007,12.6175768 C14.9437884,12.6175768 15.1898976,12.5822526 15.4263823,12.5220478 C15.5639932,12.3341297 15.7910239,12.1942321 16.0634812,12.135256 C16.1562799,12.1152218 16.2426621,12.1037201 16.3447782,12.1051195 L16.3451536,11.7634471 C15.8861433,12.1191126 15.3124573,12.3328328 14.6886007,12.3328328 C13.1922526,12.3328328 11.9754266,11.1158362 11.9754266,9.61993174 C11.9754266,8.12392491 13.1922526,6.90672355 14.6886007,6.90672355 C16.1795904,6.90672355 17.3925256,8.11604096 17.4007509,9.60505119 C17.4760068,9.65808874 17.5688055,9.72010239 17.6777474,9.78993174 C17.6809898,9.73324232 17.6863481,9.67730375 17.6863481,9.61993174 C17.6863481,7.96672355 16.3416041,6.62156997 14.6886007,6.62156997 C13.3409898,6.62156997 12.199215,7.51505119 11.8224232,8.73996587 L11.8224232,2.41334471 C11.8485324,2.40935154 11.8747099,2.40532423 11.9019113,2.40532423 Z M3.76587031,11.4645051 L3.71508532,10.0788396 C3.70003413,9.64392491 3.68464164,9.11836177 3.68464164,8.5925256 L3.66921502,8.59290102 C3.56317406,9.05522184 3.42187713,9.56931741 3.29180887,9.99088737 L2.88286689,11.3838225 L2.2983959,11.3691126 L1.94911263,9.99532423 C1.8437884,9.58211604 1.73296928,9.0816041 1.65662116,8.62368601 L1.64662116,8.62368601 C1.62788396,9.09808874 1.61354949,9.63955631 1.58955631,10.0766894 L1.5325256,11.4074744 L0.867474403,11.3906485 L1.06883959,7.91498294 L2.0362116,7.88986348 L2.35617747,9.06549488 C2.45945392,9.47569966 2.56221843,9.91866894 2.63559727,10.3366553 L2.65030717,10.3368259 C2.74426621,9.92477816 2.85778157,9.45331058 2.96675768,9.05484642 L3.32617747,7.85624573 L4.33887372,7.82982935 L4.5305802,11.4839932 L3.76587031,11.4645051 Z M7.44406143,9.81201365 C7.15273038,10.0874744 6.7259727,10.207884 6.23245734,10.204471 C6.12389078,10.2037543 6.02607509,10.1976451 5.95088737,10.1856655 L5.95088737,11.5200341 L5.14443686,11.4996246 L5.14443686,7.85849829 C5.39334471,7.80843003 5.74593857,7.76587031 6.24883959,7.75279863 C6.76453925,7.73924915 7.13638225,7.83081911 7.38791809,8.02744027 C7.63040956,8.21474403 7.79464165,8.52962457 7.79464165,8.90443686 C7.79467577,9.27928328 7.67013652,9.59699659 7.44406143,9.81201365 Z M9.31296928,11.6697952 C8.81962457,11.6567577 8.40784983,11.5198294 8.18894198,11.3774061 L8.36744027,10.7292491 C8.52341297,10.8116724 8.88406143,10.9667918 9.24822526,10.9732423 C9.71733788,10.9810922 9.95699659,10.7634471 9.95699659,10.4769966 C9.95699659,10.1028669 9.57430034,9.93232082 9.17764505,9.93088737 L8.81440273,9.92962457 L8.81440273,9.30221843 L9.16020478,9.30051195 C9.46163823,9.29334471 9.84931741,9.18054608 9.84931741,8.85948805 C9.84931741,8.63215017 9.65795222,8.46576792 9.278157,8.47194539 C8.96610922,8.47682594 8.63969283,8.6140273 8.48337884,8.70791809 L8.30412969,8.08119454 C8.52962457,7.93324232 8.98351536,7.78412969 9.4790785,7.77170648 C10.3135154,7.75119454 10.7839932,8.17044369 10.7839932,8.69600683 C10.7839932,9.10351536 10.5449488,9.42337884 10.0594539,9.58846416 L10.0594539,9.60030717 C10.5327986,9.68228669 10.9192491,10.0311604 10.9192491,10.5341297 C10.9190785,11.214744 10.3016382,11.6957679 9.31296928,11.6697952 Z" id="Shape"></path>
            <path d="M16.7937543,9.39412969 C16.6059727,9.41334471 16.5866553,9.53849829 16.5866553,9.53849829 L16.5866553,12.3775085 C16.4454608,12.3345051 16.2777816,12.3266212 16.1050512,12.364198 C15.7231399,12.4469966 15.4733447,12.7235836 15.5464846,12.9807167 C15.5891126,13.2180546 15.9893174,13.377884 16.3709556,13.2931399 C16.706314,13.2201706 16.9399659,12.9980546 16.9417406,12.7705461 L16.9424573,12.7705461 L16.951058,10.1381229 C16.951058,10.1381229 17.6211604,10.0430034 18.2768943,10.9438225 C18.2768943,10.9438225 18.2786689,10.4788737 17.7741638,10.13843 C16.7901365,9.53645051 16.7937543,9.39412969 16.7937543,9.39412969 Z" id="Path"></path>
            <path d="M14.6885666,9.01600683 C14.3556997,9.01600683 14.0848464,9.28662116 14.0848464,9.61959044 C14.0848464,9.95235495 14.3557338,10.2233106 14.6885666,10.2233106 C15.0214676,10.2233106 15.2920137,9.95238908 15.2920137,9.61959044 C15.2920137,9.28662116 15.0214676,9.01600683 14.6885666,9.01600683 Z" id="Path"></path>
            <path d="M14.6885666,8.46464164 C14.051843,8.46464164 13.5337201,8.98276451 13.5337201,9.61959044 C13.5337201,10.2562116 14.051843,10.7743345 14.6885666,10.7743345 C15.3249488,10.7743345 15.8431058,10.2561775 15.8431058,9.61959044 C15.8431058,8.98273038 15.3249488,8.46464164 14.6885666,8.46464164 Z M14.6885666,10.4891126 C14.2091468,10.4891126 13.8185666,10.098942 13.8185666,9.61959044 C13.8185666,9.13996587 14.2091468,8.74976109 14.6885666,8.74976109 C15.1683618,8.74976109 15.5582253,9.13996587 15.5582253,9.61959044 C15.5582253,10.098942 15.1683618,10.4891126 14.6885666,10.4891126 Z" id="Shape"></path>
            <path d="M17.2165188,10.5964505 L17.2144027,11.2276109 C17.3432082,11.0251536 17.448942,10.8069625 17.5270307,10.575529 C17.4315358,10.5171331 17.3444369,10.4783959 17.2688737,10.453686 C17.2531399,10.5024232 17.234471,10.5494881 17.2165188,10.5964505 Z" id="Path"></path>
        </g>
    </g>
</svg>