<?xml version="1.0" encoding="UTF-8"?>
<svg width="20px" height="20px" viewBox="0 0 20 20" version="1.1" xmlns="http://www.w3.org/2000/svg" xmlns:xlink="http://www.w3.org/1999/xlink">
    <!-- Generator: Sketch 63.1 (92452) - https://sketch.com -->
    <title>MP4</title>
    <desc>Created with Sketch.</desc>
    <g id="Icon-Set" stroke="none" stroke-width="1" fill="none" fill-rule="evenodd">
        <g id="MP4" fill="#EE4136" fill-rule="nonzero">
            <path d="M11.8178608,18.2609847 C11.8440407,18.2624109 11.8705263,18.2648896 11.8973854,18.2648896 L17.9483192,18.2648896 C18.6559593,18.2648896 19.2318506,17.6890323 19.2318506,16.9813582 L19.2318506,2.95419355 C19.2318506,2.24662139 18.6559593,1.67066214 17.9483192,1.67066214 L11.8973854,1.67066214 C11.8706961,1.67066214 11.8440407,1.67300509 11.8178608,1.67453311 L11.8178608,0 L0.00753820034,1.57619694 L0.00753820034,18.3694737 L11.8178608,19.9864177 L11.8178608,18.2609847 Z M11.8178608,2.41198642 C11.8440407,2.40814941 11.8701528,2.40410866 11.8973854,2.40410866 L17.9483192,2.40410866 C18.2516469,2.40410866 18.4983701,2.65086587 18.4983701,2.95419355 L18.4983701,16.9813582 C18.4983701,17.2847199 18.2516129,17.5314431 17.9483192,17.5314431 L11.8973854,17.5314431 C11.8703226,17.5314431 11.8440407,17.5271307 11.8178608,17.5232258 L11.8178608,2.41198642 Z M3.55575552,11.2283871 L3.50465195,9.83714771 C3.48960951,9.40112054 3.47456706,8.87324278 3.47456706,8.34533107 L3.45881154,8.34533107 C3.35280136,8.8098472 3.21123939,9.32597623 3.08054329,9.74876061 L2.67127334,11.1474024 L2.08611205,11.133073 L1.73667233,9.7533107 C1.63028862,9.33843803 1.51955857,8.83633277 1.44363328,8.37650255 L1.43395586,8.37687606 C1.41473684,8.85290323 1.40020374,9.3965365 1.37640068,9.83514431 L1.31898132,11.1714771 L0.652767402,11.154635 L0.85483871,7.66512733 L1.82356537,7.63976231 L2.14478778,8.82023769 C2.24733447,9.23208829 2.3506961,9.67691002 2.42438031,10.0959593 L2.43908319,10.0963328 C2.53256367,9.68295416 2.64679117,9.2095416 2.75575552,8.80950764 L3.11602716,7.60604414 L4.12977929,7.57972835 L4.32183362,11.2474024 L3.55575552,11.2283871 Z M7.23911715,9.56947368 C6.94760611,9.84567063 6.51962649,9.96706282 6.02621392,9.96315789 C5.91728353,9.96224109 5.81921902,9.95633277 5.74366723,9.94414261 L5.74366723,11.2839049 L4.93609508,11.2634635 L4.93609508,7.60842105 C5.18570458,7.55803056 5.53881154,7.51565365 6.04234295,7.50241087 C6.55867572,7.48889643 6.93093379,7.58091681 7.18342954,7.77860781 C7.42580645,7.96617997 7.59025467,8.28251273 7.59025467,8.6585399 C7.59025467,9.03456706 7.46529711,9.35385399 7.23911715,9.56947368 Z M10.9408149,10.4935144 L10.4598642,10.4867233 L10.4598642,11.4042445 L9.58709677,11.3820374 L9.58709677,10.4752801 L7.89887946,10.4519864 L7.89887946,9.88539898 L9.33640068,7.58478778 L10.4598642,7.55765705 L10.4598642,9.81242784 L10.9408149,9.81466893 L10.9408149,10.4935144 Z" id="Shape"></path>
            <path d="M6.08601019,8.14349745 C5.91724958,8.14645161 5.8034635,8.16533107 5.74363328,8.18298812 L5.74363328,9.28879457 C5.81419355,9.30543294 5.90074703,9.31066214 6.02047538,9.31066214 C6.46465195,9.30988115 6.74112054,9.07813243 6.74112054,8.68957555 C6.74112054,8.34027165 6.50332767,8.13612903 6.08601019,8.14349745 Z" id="Path"></path>
            <path d="M9.23504244,8.9675382 L8.72220713,9.79212224 L8.72220713,9.80366723 L9.58709677,9.80787776 L9.58709677,8.96512733 C9.58709677,8.73697793 9.5988455,8.50285229 9.61680815,8.25684211 L9.59320883,8.25721562 C9.4672326,8.50471986 9.36614601,8.72750424 9.23504244,8.9675382 Z" id="Path"></path>
            <path d="M17.503871,8.17076401 L12.3457385,8.17076401 L12.3457385,11.9507301 L17.503871,11.9507301 L17.503871,8.17076401 Z M16.0523599,10.1024448 L14.2867912,11.2298132 C14.2771477,11.2373514 14.2656706,11.2412903 14.253854,11.2412903 L14.2302207,11.2359253 C14.212326,11.2273345 14.2005093,11.2086927 14.2005093,11.1882852 L14.2005093,8.9336163 C14.2005093,8.91365025 14.212326,8.89460102 14.2302207,8.88601019 C14.2488625,8.87660441 14.2706621,8.87921902 14.2867912,8.89181664 L16.0523599,10.0187097 C16.0648896,10.0294397 16.0720543,10.0448557 16.0720543,10.0605772 C16.0720543,10.0766384 16.0648896,10.0920543 16.0523599,10.1024448 Z" id="Shape"></path>
            <path d="M17.7104924,11.9510696 L17.503871,11.9510696 L17.503871,12.0148798 L12.3457385,12.0148798 L12.3457385,11.9510696 L12.1588115,11.9510696 L12.1588115,12.9510696 L17.7104924,12.9510696 L17.7104924,11.9510696 L17.7104924,11.9510696 Z M17.5926995,12.8230814 L12.2770119,12.8230814 L12.2770119,12.0787268 L17.5926995,12.0787268 L17.5926995,12.8230814 L17.5926995,12.8230814 Z" id="Shape"></path>
            <path d="M17.503871,8.18371528 L17.503871,8.24760611 L17.7104924,8.24760611 L17.7104924,7.24760611 L12.1588115,7.24760611 L12.1588115,8.24760611 L12.3457385,8.24760611 L12.3457385,8.18371528 L17.503871,8.18371528 Z M12.2770119,8.11989802 L12.2770119,7.3755349 L17.5926995,7.3755349 L17.5926995,8.11986123 L12.2770119,8.11986123 L12.2770119,8.11989802 Z" id="Shape"></path>
            <rect id="Rectangle" x="12.4836333" y="7.52882852" width="1" height="1"></rect>
            <rect id="Rectangle" x="13.4956876" y="7.52882852" width="1" height="1"></rect>
            <rect id="Rectangle" x="14.4998642" y="7.52882852" width="1" height="1"></rect>
            <rect id="Rectangle" x="15.5115789" y="7.52882852" width="1" height="1"></rect>
            <rect id="Rectangle" x="16.5562649" y="7.54190153" width="1" height="1"></rect>
            <rect id="Rectangle" x="12.4933107" y="12.2343633" width="1" height="1"></rect>
            <rect id="Rectangle" x="13.505365" y="12.2343633" width="1" height="1"></rect>
            <rect id="Rectangle" x="14.5095756" y="12.2343633" width="1" height="1"></rect>
            <rect id="Rectangle" x="15.5216299" y="12.2343633" width="1" height="1"></rect>
            <rect id="Rectangle" x="16.5659423" y="12.2472666" width="1" height="1"></rect>
        </g>
    </g>
</svg>