<svg height="20" viewBox="0 0 20 20" width="20" xmlns="http://www.w3.org/2000/svg"><g fill="#ee4136"><path d="m5.14916808 8.40417657c-.19419355.00285229-.31864176.02220713-.3921562.04118846v2.57297117c.07334466.0188115.19266554.0209507.30047539.0230899.79395585.0211545 1.3211545-.421494 1.3211545-1.38084885.00570458-.83432937-.47419355-1.26791172-1.22947369-1.25640068z"/><path d="m11.8178608 18.260781c.0261799.0014261.0526655.0037691.0795246.0037691h6.0509338c.7076401 0 1.2835314-.5758914 1.2835314-1.2835654v-14.02702884c0-.70757216-.5758913-1.28353141-1.2835314-1.28353141h-6.0509338c-.0266893 0-.0533447.0026146-.0795246.00383701v-1.67426146l-11.8103226 1.57612903v16.79334467l11.8103226 1.616944zm6.1304584-.7293379h-6.0509338c-.0270628 0-.0533447-.0043124-.0795246-.0082173v-5.5035654c1.2608149-.2178947 3.0116808-.3828183 4.5260441-.0270288l.179219.3475382c.7228863 1.3668251 1.4950085 1.3578608 1.7933107 1.2905263.0684211-.015382.1052971-.0325637.1052971-.0325637l.0401359-.0213243c.0135823-.0085908.0241765-.0195246.0365025-.0288285v3.4333447c0 .3031918-.2467232.5501188-.5500509.5501188zm-5.6172496-6.1641086c.9475722-1.1556537 1.7132767-2.23453314 2.2064177-2.96519528l.0017996.00404075.0053651-.00825128c.3871307.81616299 1.025331 2.07857381 1.4647538 2.94023771l-.0014262-.0003735.0150425.0288624c-1.2495077-.2134465-2.5912394-.1355517-3.6948048.0170119l.016129-.0188115zm2.2289983-5.39252975c.0379627-.06696095.0934805-.0846859.1930391-.0803056.0017996.00016978.1994906.01314092.2732427.14855688.0447539.08064516.1096096.33643463-.239219.96020373h-.0003735s-.0451273.07504245-.129983.21049236c-.1955518-.6866893-.1826486-1.08767402-.0967063-1.23894737zm2.5233616 6.24292025c.358472.1378947.6804415.3078098.9622751.5086927.0809507.1149745.1557895.2804414.1422071.3585059-.0007131.0037691-.0014261.0075382-.0035654.0112733-.1157215.0213243-.5759252.0356537-1.1009168-.8784719zm-5.1860441-9.81371821h6.0509338c.3033277 0 .5500509.24685908.5500509.55008489v9.46057722c-.0171816-.0245501-.0320204-.0447538-.0408149-.0556876l-.0232937-.0301188-.0304245-.0225467c-.4695076-.3427504-1.035348-.6068591-1.6835654-.785365-.4621392-.9024788-1.4192529-2.78349749-1.8215959-3.66438034.2329712-.3588455.3581324-.56801358.363871-.57758914.3629541-.64706281.442275-1.15219015.241562-1.50852292-.1819355-.32251273-.5443464-.41938879-.7295077-.4255348-.2993888-.0136163-.5547368.11443124-.6933446.35830221-.2113073.37235993-.1676061 1.02461799.1310696 1.9373854.0132767.04217317.034567.0962309.0626825.16427843-.478472.72366724-1.3465535 1.97534805-2.4572835 3.31976236v-8.71256371c.0263157-.00387097.0524278-.0080815.0796604-.0080815zm-8.86475382 7.47568761c-.27925297.2770119-.68974533.3978947-1.16356537.3935823-.10421052-.0010526-.19840407-.0075042-.27117147-.0193208v1.3479796l-.7756197-.0214941v-3.68030558c.23959253-.04988115.57864177-.0913073 1.06254669-.10305602.4944652-.01208829.85259762.08156197 1.09409168.28105263.23286927.18943973.38998302.50791171.38998302.88580645 0 .37826825-.11952461.69898132-.33626485.91575552zm3.64135823 1.3839728c-.41891341.3417997-1.04859083.490798-1.80424448.4696775-.44516129-.0127335-.75745331-.0501528-.96794567-.0848897v-3.81949065c.31076401-.05918506.71945671-.09806452 1.15568761-.1086927.73602716-.01799661 1.22088285.10726655 1.60512733.39178268.41721562.3049236.68196944.80132428.68196944 1.51935484 0 .77830223-.28254669 1.31028863-.67059423 1.63225803zm1.28013583-3.58305599 2.60923596-.062309v.78458404l-1.65966041.0240747v.94706282l1.54933781-.00383701v.77704584l-1.54933781-.0107301v1.6670968l-.9498472-.0261799v-4.09677424h.00027165z"/><path d="m1.92682513 8.44217317c-.16196944.00251274-.27137521.0208489-.32879457.03867573v1.11297113c.0672326.01691002.1506961.02258102.26601019.02258102.42617996.00033919.69144312-.23215657.69144312-.62288662.00003396-.35154499-.22835314-.55779287-.62865874-.55134126z"/></g></svg>