<?xml version="1.0" encoding="UTF-8"?>
<svg width="20px" height="20px" viewBox="0 0 20 20" version="1.1" xmlns="http://www.w3.org/2000/svg" xmlns:xlink="http://www.w3.org/1999/xlink">
    <!-- Generator: Sketch 63.1 (92452) - https://sketch.com -->
    <title>PNG</title>
    <desc>Created with Sketch.</desc>
    <g id="Icon-Set" stroke="none" stroke-width="1" fill="none" fill-rule="evenodd">
        <g id="PNG" fill-rule="nonzero">
            <path d="M1.68706485,8.36668942 C1.52982935,8.36982935 1.42324232,8.38774744 1.36822526,8.40576792 L1.36822526,9.50269625 C1.43337884,9.51901024 1.51443686,9.5243686 1.62576792,9.52420188 C2.03962457,9.52365188 2.2968942,9.29433447 2.2968942,8.90904437 C2.2968942,8.56279863 2.07583618,8.36027304 1.68706485,8.36668942 Z" id="Path" fill="#554d4d"></path>
            <path d="M11.8225256,18.2706485 C11.8487031,18.2720819 11.8751877,18.2743686 11.9020478,18.2743686 L17.956314,18.2743686 C18.6643345,18.2743686 19.2405119,17.698157 19.2405119,16.9901706 L19.2405119,2.95552901 C19.2405119,2.24757679 18.6643345,1.67129693 17.956314,1.67129693 L11.9020478,1.67129693 C11.8753584,1.67129693 11.8487031,1.67392491 11.8225256,1.67515358 L11.8225256,0 L0.00580204778,1.57699659 L0.00580204778,18.3794198 L11.8225256,19.9972014 L11.8225256,18.2706485 Z M18.5066553,9.84368601 L17.1676109,9.84368601 L17.1676109,8.39631399 L18.5066553,8.39631399 L18.5066553,9.84368601 Z M17.1783959,11.291058 L18.5066553,11.291058 L18.5066553,12.7383276 L17.1783959,12.7383276 L17.1783959,11.291058 Z M11.9020478,2.40532423 L17.956314,2.40532423 C18.2597952,2.40532423 18.5066553,2.65228669 18.5066553,2.95569966 L18.5066553,6.98392491 L17.3052218,6.98392491 C17.2504096,6.98392491 17.1991809,6.97112628 17.1525939,6.94945392 L17.1525939,8.39634812 L15.7203072,8.39634812 L15.7203072,9.84372014 L17.1525939,9.84372014 L17.1525939,11.2910922 L15.7307509,11.2910922 L15.7307509,12.7383618 L17.1633447,12.7383618 L17.1633447,14.1855973 L18.5066553,14.1855973 L18.5066553,16.9905461 C18.5066553,17.2940614 18.2597952,17.5409556 17.956314,17.5409556 L11.9020478,17.5409556 C11.8750171,17.5409556 11.8487031,17.5368259 11.8225256,17.5330375 L11.8225256,14.1856314 L12.8301024,14.1856314 L12.8301024,12.7381911 L11.8225256,12.7381911 L11.8225256,11.2909556 L12.819727,11.2909556 L12.819727,9.84368601 L11.8225256,9.84368601 L11.8225256,8.39631399 L12.819727,8.39631399 L12.819727,6.94890785 L11.8225256,6.94890785 L11.8225256,2.41334471 C11.8487031,2.40952218 11.8748464,2.40532423 11.9020478,2.40532423 Z M2.76047782,9.78098976 C2.48914676,10.0546758 2.09085324,10.1747099 1.63150171,10.1712969 C1.5296587,10.1705802 1.43825939,10.1645051 1.36805461,10.1528669 L1.36805461,11.4815358 L0.614573379,11.4623891 L0.614573379,7.83467577 C0.847576792,7.78515358 1.17672355,7.74365188 1.64610922,7.73133106 C2.12696246,7.71870307 2.47392491,7.81044369 2.7078157,8.00675768 C2.9337884,8.19327645 3.08645078,8.50627986 3.08645078,8.8787372 C3.08665529,9.25095563 2.97054608,9.56744027 2.76047782,9.78098976 Z M6.71788396,11.6185666 L5.79880546,11.5949147 L4.98972696,10.069215 C4.76788396,9.65238908 4.52580205,9.15174061 4.34426621,8.69969283 L4.32812287,8.70532423 C4.35,9.21593857 4.36119454,9.76136519 4.36119454,10.3927645 L4.36119454,11.5581911 L3.60334471,11.5387031 L3.60334471,7.70836177 L4.56938567,7.68327645 L5.34696246,9.09969283 C5.57242321,9.51249147 5.79880546,10.0035495 5.96945392,10.4498976 L5.98665529,10.4500341 C5.92959044,9.92798635 5.91255973,9.39464164 5.91255973,8.80273038 L5.91255973,7.64860068 L6.71805461,7.62764505 L6.71805461,11.6185666 L6.71788396,11.6185666 L6.71788396,11.6185666 Z M10.9819113,11.5341638 C10.6794881,11.6266212 10.1111604,11.7486348 9.55187713,11.733959 C8.79051195,11.7142662 8.2483959,11.512901 7.87556314,11.143413 C7.50580205,10.7894198 7.30447099,10.2612287 7.31047782,9.67109215 C7.31617747,8.3343686 8.2909215,7.54515358 9.651843,7.50935154 C10.2004096,7.49508532 10.627884,7.58935154 10.8404096,7.68382253 L10.6343345,8.44744027 C10.3975427,8.351843 10.1051195,8.27569966 9.6394198,8.28358362 C8.85215017,8.29675768 8.26709898,8.74153584 8.26709898,9.62300341 C8.26709898,10.4626621 8.79672355,10.9664164 9.5705802,10.9793515 C9.7894198,10.9832765 9.96607509,10.9614676 10.0420137,10.9257679 L10.0420137,10.0552218 L9.38945392,10.0516724 L9.38945392,9.32293515 L10.9819113,9.31686007 L10.9819113,11.5341638 L10.9819113,11.5341638 Z" id="Shape" fill="#554d4d"></path>
            <polygon id="Path" fill="#554d4d" points="17.1825782 6.98152082 17.1869782 6.98312082 17.1869782 6.98152082"></polygon>
            <polygon id="Path" fill="#554d4d" points="14.2623549 11.291058 12.8408532 11.291058 12.8408532 12.738157 14.2731058 12.738157 14.2731058 14.1855973 15.7203072 14.1855973 15.7203072 12.738157 14.288157 12.738157 14.288157 11.291058 15.7099659 11.291058 15.7099659 9.84368601 14.2777474 9.84368601 14.2777474 8.39634812 15.7099659 8.39634812 15.7099659 6.94911263 14.2777474 6.94911263 14.2777474 5.50174061 12.8301365 5.50174061 12.8301365 6.94911263 14.2623549 6.94911263 14.2623549 8.39634812 12.8301365 8.39634812 12.8301365 9.84368601 14.2623549 9.84368601"></polygon>
            <polygon id="Path" fill="#554d4d" points="15.7203072 5.50174061 15.7203072 6.94911263 17.1510922 6.94911263 17.1496928 5.50174061"></polygon>
        </g>
    </g>
</svg>