<?xml version="1.0" encoding="UTF-8"?>
<svg width="20px" height="20px" viewBox="0 0 20 20" version="1.1" xmlns="http://www.w3.org/2000/svg" xmlns:xlink="http://www.w3.org/1999/xlink">
    <!-- Generator: Sketch 63.1 (92452) - https://sketch.com -->
    <title>PPT</title>
    <desc>Created with Sketch.</desc>
    <g id="Icon-Set" stroke="none" stroke-width="1" fill="none" fill-rule="evenodd">
        <g id="PPT" fill="#ED6004" fill-rule="nonzero">
            <path d="M11.8223891,18.2706485 C11.8488737,18.2720819 11.8750171,18.2743686 11.9018771,18.2743686 L17.9561433,18.2743686 C18.6643345,18.2743686 19.2403413,17.698157 19.2403413,16.9901706 L19.2403413,2.95552901 C19.2403413,2.24757679 18.6643345,1.67129693 17.9561433,1.67129693 L11.9018771,1.67129693 C11.8752218,1.67129693 11.8488737,1.67392491 11.8223891,1.67515358 L11.8223891,0 L0.00600682594,1.57699659 L0.00600682594,18.3794198 L11.8223891,19.9972014 L11.8223891,18.2706485 Z M11.9019113,2.40532423 L17.9561775,2.40532423 C18.2596928,2.40532423 18.5065188,2.65228669 18.5065188,2.95569966 L18.5065188,16.9905119 C18.5065188,17.2938567 18.2596928,17.5409215 17.9561775,17.5409215 L11.9019113,17.5409215 C11.8748805,17.5409215 11.8485666,17.536587 11.8224232,17.532628 L11.8224232,10.8946075 C12.1609898,12.1825939 13.3298635,13.1337201 14.7240614,13.1337201 C16.3831399,13.1337201 17.7279181,11.7889761 17.7279181,10.1300683 L14.7240614,10.1300683 L14.7240614,7.12607509 C13.329727,7.12607509 12.1608191,8.07733788 11.8224232,9.36539249 L11.8224232,2.41334471 C11.8485324,2.40952218 11.8747099,2.40532423 11.9019113,2.40532423 Z M3.59819113,10.1401365 C3.31935154,10.4174744 2.9105802,10.5396246 2.4383959,10.5359044 C2.33412969,10.5350171 2.24061433,10.5287372 2.168157,10.517099 L2.168157,11.8631058 L1.39488055,11.8436177 L1.39488055,8.16819113 C1.63389078,8.11812287 1.97187713,8.07576792 2.45361775,8.06303754 C2.94764505,8.05003413 3.30354949,8.14283276 3.54426621,8.34174061 C3.7765529,8.53054608 3.93337902,8.84798635 3.93337902,9.2252901 C3.93354949,9.60283276 3.81433447,9.92334471 3.59819113,10.1401365 Z M6.86177474,10.1458362 C6.55836177,10.4355631 6.11290102,10.5625939 5.59904437,10.5588055 C5.48580205,10.5580887 5.38395904,10.5515017 5.30549488,10.5392833 L5.30549488,11.9432423 L4.46416382,11.9217065 L4.46416382,8.09054608 C4.72430034,8.03791809 5.0916041,7.99368601 5.61573379,7.97979522 C6.15327645,7.96583618 6.5409215,8.06177474 6.80331058,8.26904437 C7.05590444,8.46610922 7.22726962,8.7974744 7.22726962,9.1912628 C7.22726962,9.58525597 7.09686007,9.92010239 6.86177474,10.1458362 Z M10.7130034,8.67484642 L9.54228669,8.69395904 L9.54228669,12.0510922 L8.59419795,12.0268942 L8.59419795,8.70918089 L7.5005802,8.72716724 L7.5005802,7.95972696 L10.7130034,7.87641638 L10.7130034,8.67484642 L10.7130034,8.67484642 Z" id="Shape"></path>
            <path d="M2.4956314,8.70720137 C2.33392491,8.71013652 2.22498294,8.72870307 2.16812287,8.74662116 L2.16812287,9.85822526 C2.23511945,9.87488055 2.318157,9.88040956 2.43283276,9.88006826 C2.85733788,9.87928328 3.12194539,9.64686007 3.12194539,9.25665529 C3.12197952,8.90573379 2.89477816,8.70020478 2.4956314,8.70720137 Z" id="Path"></path>
            <path d="M5.66139932,8.65156997 C5.48580205,8.65453925 5.36713311,8.67416382 5.30569966,8.69269625 L5.30569966,9.85194539 C5.37870307,9.8694198 5.46880546,9.87488055 5.59334471,9.87488055 C6.05566553,9.87412969 6.34365188,9.63167235 6.34365188,9.22416382 C6.34365188,8.85798635 6.09569966,8.64389078 5.66139932,8.65156997 Z" id="Path"></path>
            <path d="M15.1318089,9.65604096 L15.1318089,9.65692833 L18.1358362,9.65692833 C18.1358362,8.81211604 17.7853584,8.04969283 17.2237201,7.5040273 L15.1318089,9.65604096 Z" id="Path"></path>
            <path d="M15.0999317,9.12822526 L17.2237543,7.00430034 C16.6264505,6.40662116 15.8811263,6.11532423 15.0978157,6.12648464 L15.0992491,9.12750853 L15.0999317,9.12822526 Z" id="Path"></path>
        </g>
    </g>
</svg>