<?xml version="1.0" encoding="UTF-8"?>
<svg width="20px" height="20px" viewBox="0 0 20 20" version="1.1" xmlns="http://www.w3.org/2000/svg" xmlns:xlink="http://www.w3.org/1999/xlink">
    <!-- Generator: Sketch 63.1 (92452) - https://sketch.com -->
    <title>PPTX</title>
    <desc>Created with Sketch.</desc>
    <g id="Icon-Set" stroke="none" stroke-width="1" fill="none" fill-rule="evenodd">
        <g id="PPTX" fill="#ED6004" fill-rule="nonzero">
            <path d="M19.2316808,2.95412564 C19.2316808,2.24655348 18.656163,1.67059423 17.9481494,1.67059423 L11.8972156,1.67059423 C11.8705263,1.67059423 11.8442105,1.67317487 11.817691,1.67480475 L11.817691,0 L0.00774193548,1.57612903 L0.00774193548,18.3694737 L11.817691,19.9864177 L11.817691,18.2609847 C11.8442105,18.2627844 11.8703565,18.2648896 11.8972156,18.2648896 L17.9481494,18.2648896 C18.656163,18.2648896 19.2316808,17.6888625 19.2316808,16.9813582 L19.2316808,2.95412564 L19.2316808,2.95412564 Z M2.46421053,10.7080475 C2.26696095,10.9126995 1.97830221,11.0025806 1.64516129,11.0002377 C1.57219015,10.9998981 1.50621392,10.9952462 1.45534805,10.9866553 L1.45534805,11.9750764 L0.913514431,11.9586078 L0.913514431,9.26689304 C1.08074703,9.22848896 1.31782683,9.19555178 1.65633277,9.1834635 C2.00434635,9.17103565 2.25558574,9.23718166 2.42621392,9.38224109 C2.59049236,9.52047538 2.70207132,9.75368421 2.70207132,10.0323939 C2.70210526,10.3112394 2.61748727,10.5475722 2.46421053,10.7080475 Z M4.79976231,10.7080475 C4.58057725,10.9239728 4.2596944,11.0185399 3.89083192,11.0160272 C3.80916808,11.0156537 3.73640068,11.0106621 3.68,11.0016978 L3.68,12.0420713 L3.07976231,12.0238031 L3.07976231,9.19205433 C3.26502547,9.15113752 3.52743633,9.11612903 3.90312394,9.1026146 C4.28893039,9.08882852 4.56814941,9.15813243 4.75762309,9.3106961 C4.94016978,9.45609508 5.06383701,9.70210526 5.06383701,9.99568761 C5.06359932,10.2893718 4.96967742,10.5393548 4.79976231,10.7080475 Z M7.61633277,9.59432937 L6.75290323,9.6142275 L6.75290323,12.134635 L6.05847199,12.1137182 L6.05847199,9.6301528 L5.26237691,9.64859083 L5.26237691,9.07619694 L7.61633277,8.99259762 L7.61633277,9.59432937 Z M9.88811545,12.2293718 L9.57079796,11.6228862 C9.44186757,11.3911715 9.35949066,11.2198302 9.2620034,11.0293039 L9.25188455,11.0293039 C9.18061121,11.2178608 9.09405772,11.3867233 8.98801358,11.6125297 L8.70651952,12.1937521 L7.85249576,12.1677759 L8.81147708,10.5540917 L7.8860781,8.98305603 L8.74621392,8.95242784 L9.04312394,9.53718166 C9.14482173,9.73341256 9.2214601,9.89252971 9.30268251,10.0759932 L9.31351443,10.0756197 C9.39517827,9.8652292 9.46220713,9.71758913 9.54988115,9.52526316 L9.84604414,8.91337861 L10.7728693,8.88033956 L9.76295416,10.5314771 L10.826961,12.2572835 L9.88811545,12.2293718 Z M18.4982343,16.9813582 C18.4982343,17.2845161 18.2514431,17.5314431 17.9481494,17.5314431 L11.8972156,17.5314431 C11.8701868,17.5314431 11.843871,17.5275042 11.817691,17.5235654 L11.817691,10.0343973 C12.4318846,10.707674 13.3148727,11.1306282 14.2980985,11.1306282 C15.432292,11.1306282 16.4332767,10.5674363 17.0421053,9.70679117 L14.2827165,7.97606112 L11.817691,9.05714771 L11.817691,8.65684211 L14.0688964,7.66957555 L14.0688964,4.41955857 C13.1785739,4.47962649 12.3841087,4.88672326 11.817691,5.50539898 L11.817691,2.41229202 C11.843871,2.40842105 11.869983,2.40404075 11.8972156,2.40404075 L17.9481494,2.40404075 C18.2514771,2.40404075 18.4982343,2.65089983 18.4982343,2.95412564 L18.4982343,16.9813582 L18.4982343,16.9813582 Z" id="Shape"></path>
            <path d="M1.68573854,9.65657046 C1.57222411,9.65942275 1.49558574,9.67375212 1.455382,9.68675722 L1.455382,10.5028183 C1.50275042,10.5148387 1.56101868,10.5189474 1.64169779,10.5185739 C1.94108659,10.5171477 2.12794567,10.3456027 2.12794567,10.0580645 C2.12791171,9.79955857 1.96713073,9.64940577 1.68573854,9.65657046 Z" id="Path"></path>
            <path d="M3.93548387,9.60061121 C3.80913413,9.60393888 3.72427844,9.61898132 3.67976231,9.63303905 L3.67976231,10.4920883 C3.73232598,10.5049915 3.79687606,10.5089304 3.8863837,10.5085569 C4.21847199,10.5071307 4.42563691,10.3262818 4.42563691,10.0234635 C4.42587436,9.75093379 4.24706282,9.59310696 3.93548387,9.60061121 Z" id="Path"></path>
            <path d="M14.501528,4.37371817 L14.501528,7.59796265 L17.3042105,9.35636672 C17.5721222,8.87358234 17.7257385,8.31921902 17.7257385,7.72831919 C17.7257385,5.9179966 16.2939559,4.44651952 14.501528,4.37371817 Z" id="Path"></path>
            <rect id="Rectangle" x="12.337725" y="12.4141596" width="3.6672326" height="1"></rect>
            <rect id="Rectangle" x="12.337725" y="13.8073005" width="3.6672326" height="1"></rect>
            <rect id="Rectangle" x="12.337725" y="15.1789134" width="3.6672326" height="1"></rect>
        </g>
    </g>
</svg>