<?xml version="1.0" encoding="UTF-8"?>
<svg width="20px" height="20px" viewBox="0 0 20 20" version="1.1" xmlns="http://www.w3.org/2000/svg" xmlns:xlink="http://www.w3.org/1999/xlink">
    <!-- Generator: Sketch 63.1 (92452) - https://sketch.com -->
    <title>RAR</title>
    <desc>Created with Sketch.</desc>
    <g id="Icon-Set" stroke="none" stroke-width="1" fill="none" fill-rule="evenodd">
        <g id="RAR" fill="#EE4136" fill-rule="nonzero">
            <path d="M11.817691,18.260781 C11.8442105,18.2622071 11.8703565,18.2645501 11.8972156,18.2645501 L17.9481494,18.2645501 C18.6559932,18.2645501 19.2316808,17.6886587 19.2316808,16.9809847 L19.2316808,2.95395586 C19.2316808,2.2463837 18.6559932,1.67042445 17.9481494,1.67042445 L11.8972156,1.67042445 C11.8705263,1.67042445 11.8442105,1.67303905 11.817691,1.67426146 L11.817691,0 L0.00774193548,1.57612903 L0.00774193548,18.3694737 L11.817691,19.9864177 L11.817691,18.260781 Z M11.8972156,2.40400679 L17.9481494,2.40400679 C18.2514771,2.40400679 18.4982343,2.65086587 18.4982343,2.95409168 L18.4982343,16.9813582 C18.4982343,17.2845161 18.2514431,17.5314431 17.9481494,17.5314431 L11.8972156,17.5314431 C11.8701868,17.5314431 11.843871,17.5271307 11.817691,17.5232258 L11.817691,12.5215959 L15.3688964,12.5215959 L15.3688964,11.8284211 L18.1465535,11.8284211 L18.1465535,10.8863837 L16.5942275,10.8863837 L16.5942275,10.5134126 L17.2071986,10.5134126 L17.2071986,10.2371138 L16.5942275,10.2371138 L16.5942275,9.91585739 L17.2071986,9.91585739 L17.2071986,9.63945671 L16.5942275,9.63945671 L16.5942275,9.32556876 L17.2071986,9.32556876 L17.2071986,9.04943973 L16.5942275,9.04943973 L16.5942275,8.80699491 L18.1465535,8.80699491 L18.1465535,7.8649236 L15.3688964,7.8649236 L15.3688964,8.80699491 L16.3082852,8.80699491 L16.3082852,10.8863837 L15.3688964,10.8863837 L15.3688964,11.7867233 L11.817691,11.7867233 L11.817691,11.450798 L14.6544312,11.450798 L14.6544312,8.24339559 L11.817691,8.24339559 L11.817691,7.86512733 L15.3688964,7.86512733 L15.3688964,7.12943973 L11.817691,7.12943973 L11.817691,2.41208829 C11.843871,2.40821732 11.869983,2.40400679 11.8972156,2.40400679 Z M2.65259762,12.2495756 C2.59460102,12.1408829 2.51042445,11.8287606 2.40502547,11.3594567 C2.31076401,10.88618 2.15935484,10.7556537 1.83694397,10.7474363 L1.59986418,10.7456367 L1.59986418,12.2196604 L0.832665535,12.1981664 L0.832665535,8.5382343 C1.07952462,8.48835314 1.45113752,8.4463837 1.86794567,8.43626486 C2.38910017,8.42417657 2.75796265,8.50010187 3.01358234,8.70988115 C3.22736842,8.88787776 3.34617997,9.15324278 3.34617997,9.50651952 C3.34617997,9.99643463 3.01894737,10.3316469 2.71086587,10.4498472 L2.71086587,10.4666553 C2.96040747,10.575348 3.09864177,10.8316129 3.19032258,11.1848896 C3.30312394,11.6191171 3.41629881,12.1229881 3.48611205,12.2734126 L2.65259762,12.2495756 Z M6.26278438,12.3514771 L5.9611545,11.3229202 L4.86349745,11.3064516 L4.59561969,12.304584 L3.72546689,12.2796944 L4.86349745,8.39463497 L6.00166384,8.36804754 L7.22814941,12.3783701 L6.26278438,12.3514771 Z M9.96081494,12.4555178 C9.89066214,12.3357555 9.78893039,11.9926316 9.66213922,11.4771138 C9.54825127,10.9569779 9.36488964,10.8138879 8.9773854,10.8045501 L8.69157895,10.8020374 L8.69157895,12.4195586 L7.7686927,12.3933786 L7.7686927,8.38142615 C8.06594228,8.32621392 8.51297114,8.27945671 9.01426146,8.2675382 C9.64288625,8.25266553 10.0886587,8.33521222 10.3970119,8.56533107 C10.6562988,8.76023769 10.7988115,9.05229202 10.7988115,9.44050934 C10.7988115,9.97938879 10.4038031,10.3481154 10.0308319,10.4775552 L10.0308319,10.4963667 C10.3325637,10.6159593 10.5005093,10.8976231 10.6106282,11.2864177 C10.74618,11.7641426 10.8833277,12.3185399 10.9683871,12.4840068 L9.96081494,12.4555178 Z" id="Shape"></path>
            <path d="M5.40006791,9.04943973 L5.38886248,9.04943973 C5.33147708,9.28427844 5.27497453,9.58295416 5.21266553,9.81110357 L4.98713073,10.6444482 L5.8344652,10.6498132 L5.59405772,9.8093039 C5.52550085,9.57511036 5.4570798,9.28302207 5.40006791,9.04943973 Z" id="Path"></path>
            <path d="M9.12064516,8.95850539 C8.88957555,8.9620034 8.75989813,8.98213922 8.6916129,8.99528014 L8.6916129,10.1307301 L9.06434635,10.1305263 C9.5414601,10.1301868 9.82726655,9.89490662 9.82726655,9.52960951 C9.8272326,9.14604414 9.56067912,8.95813243 9.12064516,8.95850539 Z" id="Path"></path>
            <path d="M1.95629881,9.06611205 C1.76505942,9.06906621 1.6565365,9.08743633 1.60003396,9.09935484 L1.60003396,10.1339898 L1.90974533,10.1339898 C2.30546689,10.1336163 2.54220713,9.91949066 2.54220713,9.58730051 C2.54220713,9.23755518 2.32122241,9.06628183 1.95629881,9.06611205 Z" id="Path"></path>
        </g>
    </g>
</svg>