<?xml version="1.0" encoding="UTF-8"?>
<svg width="20px" height="20px" viewBox="0 0 20 20" version="1.1" xmlns="http://www.w3.org/2000/svg" xmlns:xlink="http://www.w3.org/1999/xlink">
    <!-- Generator: Sketch 63.1 (92452) - https://sketch.com -->
    <title>SVG</title>
    <desc>Created with Sketch.</desc>
    <g id="Icon-Set" stroke="none" stroke-width="1" fill="none" fill-rule="evenodd">
        <g id="SVG" fill="#EE4136" fill-rule="nonzero">
            <path d="M11.8223891,18.2708191 C11.8488737,18.2722526 11.8750171,18.274744 11.9018771,18.274744 L17.9561433,18.274744 C18.6643345,18.274744 19.2403413,17.6985324 19.2403413,16.9905119 L19.2403413,2.95576792 C19.2403413,2.2478157 18.6643345,1.67153584 17.9561433,1.67153584 L11.9018771,1.67153584 C11.8752218,1.67153584 11.8488737,1.67389078 11.8223891,1.67539249 L11.8223891,0 L0.00600682594,1.57703072 L0.00600682594,18.3794198 L11.8223891,19.9972014 L11.8223891,18.2708191 Z M11.8223891,9.30290102 L11.8223891,8.70047782 L11.9108532,8.70047782 L11.9108532,8.42412969 L12.2867577,8.08624573 L11.8223891,9.30290102 Z M12.5877133,8.05013652 L12.7501024,8.05013652 L12.7501024,7.9583959 L13.1632082,7.9583959 L13.1632082,8.03453925 L11.8223891,11.5587372 L11.8223891,10.0537543 L12.5877133,8.05013652 Z M18.5681911,12.0349488 L18.4681911,12.0349488 L18.4830753,10.2149829 L18.5681911,10.2149829 L18.5681911,12.0349488 L18.5681911,12.0349488 Z M11.9019113,2.40542662 L17.9561775,2.40542662 C18.2596928,2.40542662 18.5065188,2.65228669 18.5065188,2.95576792 L18.5065188,9.77829352 L18.1170648,9.77829352 L18.1170648,9.87003413 L16.2723549,9.87003413 L16.2723549,9.77829352 L15.8294881,9.77829352 L15.8294881,10.2149488 L15.902901,10.2149488 L15.902901,10.6346075 L15.8294881,10.6346075 L15.8294881,11.0775085 L16.2723549,11.0775085 L16.2723549,10.9977474 L16.9237884,10.9977474 C16.7349829,11.1828328 16.5160751,11.2975085 16.2602048,11.345529 L16.2602048,11.2827986 L15.823413,11.2827986 L15.823413,11.35157 C15.5385324,11.3134471 15.2955973,11.1943345 15.0834471,10.9889761 C14.8729352,10.7851195 14.7473379,10.5489078 14.7022184,10.2698294 L14.7555631,10.2698294 L14.7555631,9.82703072 L14.6943003,9.82703072 C14.7363823,9.54290102 14.8616382,9.3005802 15.0751536,9.08880546 C15.2891126,8.87675768 15.5345392,8.75389078 15.8233788,8.71518771 L15.8233788,8.78395904 L16.2601706,8.78395904 L16.2601706,8.72539249 C16.4597611,8.76085324 16.6432423,8.84156997 16.8078498,8.96645051 L16.8078498,9.19361775 L17.2507509,9.19361775 L17.2507509,9.1147099 L17.8658362,9.11911263 L17.8658362,9.19348123 L18.3087372,9.19348123 L18.3087372,8.75658703 L18.1154266,8.75658703 C17.9109898,8.42081911 17.6404437,8.14590444 17.3100341,7.93853242 C16.9902389,7.73750853 16.6376792,7.61866894 16.2598294,7.58382253 L16.2598294,7.47846416 L15.8230375,7.47846416 L15.8230375,7.58177474 C15.226041,7.62447099 14.7064846,7.86242321 14.2772355,8.28972696 C13.8479863,8.71686007 13.6071672,9.23361775 13.5605461,9.82675768 L13.4566894,9.82675768 L13.4566894,10.2695563 L13.5616724,10.2695563 C13.6161433,10.8590102 13.8604778,11.3706826 14.2903413,11.7920819 C14.719215,12.2131058 15.2343003,12.4474403 15.8230375,12.4900683 L15.8230375,12.5818089 L16.2598294,12.5818089 L16.2598294,12.4875768 C16.6274744,12.4498976 16.9711263,12.3327645 17.2846075,12.1392491 L17.2846075,12.4718089 L17.7214676,12.4718089 L17.7214676,12.3861775 L18.1166553,12.3861775 L18.1166553,12.4718089 L18.5061433,12.4718089 L18.5061433,16.9905802 C18.5061433,17.2940956 18.2592833,17.5409898 17.9557338,17.5409898 L11.90157,17.5409898 C11.8745051,17.5409898 11.8481911,17.5366553 11.8220478,17.5326962 L11.8220478,12.4654266 L11.8995904,12.4654266 L11.8995904,12.1370307 L11.8961775,12.1177133 L13.4496928,8.05013652 L13.5996587,8.05013652 L13.5996587,7.6134471 L13.1628669,7.6134471 L13.1628669,7.68662116 L12.7495904,7.68662116 L12.7495904,7.67030717 L13.4559727,7.03552901 L13.7419113,7.03552901 L13.7419113,6.61593857 L13.3223208,6.61593857 L13.3223208,6.93771331 L12.5702048,7.61341297 L12.312901,7.61341297 L12.312901,7.84477816 L11.827372,8.28085324 L11.8222184,8.28085324 L11.8222184,2.41327645 C11.8485324,2.40962457 11.8747099,2.40542662 11.9019113,2.40542662 Z M17.2849488,11.6067577 L17.2849488,11.819215 C16.9751877,12.0393857 16.6312287,12.1725256 16.2602048,12.2142662 L16.2602048,12.1447782 L15.823413,12.1447782 L15.823413,12.2177133 C15.3060068,12.1759727 14.8541638,11.9676109 14.478942,11.5978157 C14.1041638,11.2287713 13.8875085,10.7822526 13.8348805,10.2698635 L13.8931058,10.2698635 L13.8931058,9.8268942 L13.8330717,9.8268942 C13.8791126,9.31010239 14.0928669,8.85825939 14.47,8.48307167 C14.8473038,8.10757679 15.3018089,7.89474403 15.8233788,7.84921502 L15.8233788,7.921843 L16.2601706,7.921843 L16.2601706,7.85726962 C16.5769283,7.89102389 16.8755631,7.99341297 17.1498635,8.16255973 C17.4336519,8.33723549 17.6683276,8.56784983 17.848942,8.84866894 L17.2508874,8.84866894 L17.2508874,8.75692833 L16.9724915,8.75692833 C16.7643003,8.59494881 16.5251877,8.49255973 16.2601706,8.45174061 L16.2601706,8.34109215 L15.8233788,8.34109215 L15.8233788,8.44143345 C15.4612628,8.48255973 15.1466894,8.63474403 14.8860068,8.89569966 C14.6251536,9.15638225 14.471058,9.46938567 14.4266212,9.82706485 L14.3187713,9.82706485 L14.3187713,10.2698635 L14.427884,10.2698635 C14.4760751,10.6242321 14.6333788,10.9313311 14.8963823,11.1846416 C15.1586689,11.4369283 15.4701024,11.5845734 15.8233788,11.6248464 L15.8233788,11.7196246 L16.2601706,11.7196246 L16.2601706,11.6157338 C16.6475085,11.5601706 16.9733788,11.3793515 17.2305119,11.0775085 L17.4526621,11.0775085 L17.4526621,10.6346075 L17.0158703,10.6346075 L17.0158703,10.7322184 L16.2723549,10.7322184 L16.2723549,10.6346075 L16.1745734,10.6346075 L16.1745734,10.2149488 L16.2723549,10.2149488 L16.2723549,10.1417065 L18.1170307,10.1417065 L18.1170307,10.2149488 L18.2016041,10.2149488 C18.2008874,10.3644027 18.198942,10.6667918 18.1963823,11.1219113 L18.1963823,12.0349147 L18.1170648,12.0349147 L18.1170648,12.1146075 L17.721843,12.1146075 L17.721843,11.6067235 L17.2849488,11.6067235 L17.2849488,11.6067577 Z M1.85313993,11.9172355 C1.45962457,11.9066212 1.07556314,11.7862457 0.884948805,11.6662457 L1.04020478,10.9766212 C1.24692833,11.0954608 1.56658703,11.2168942 1.89918089,11.2222867 C2.26146758,11.2287372 2.45341297,11.0692491 2.45341297,10.8223891 C2.45341297,10.5866212 2.28713311,10.4511945 1.86853242,10.2868942 C1.29737201,10.0688396 0.930102389,9.72784983 0.930102389,9.18962457 C0.930102389,8.55791809 1.41389078,8.06170648 2.22972696,8.04006826 C2.62675768,8.02955631 2.92156997,8.11235495 3.13351536,8.20883959 L2.95327645,8.90802048 C2.81075085,8.83662116 2.558157,8.73385666 2.21450512,8.73959044 C1.87385666,8.74522184 1.7096587,8.91477816 1.7096587,9.10911263 C1.7096587,9.34795222 1.90488055,9.45194539 2.35508532,9.63361775 C2.97989761,9.8794198 3.27767918,10.2308532 3.27767918,10.7696246 C3.2774744,11.4103754 2.81587031,11.9428669 1.85313993,11.9172355 Z M5.70358362,11.9611263 L4.70351536,11.9353242 L3.52443686,8.06856655 L4.43317406,8.0452901 L4.88750853,9.68566553 C5.01580205,10.1492491 5.13307167,10.5973038 5.22290102,11.0871331 L5.24017065,11.0875085 C5.33576792,10.6166212 5.45409556,10.1505119 5.58491468,9.70027304 L6.07617747,8.00324232 L7.01863481,7.97924915 L5.70358362,11.9611263 Z M10.8954266,11.9020137 C10.59157,11.994471 10.0225256,12.1166553 9.46105802,12.1019454 C8.6978157,12.0814676 8.15426621,11.8797611 7.78017065,11.5096587 C7.40955631,11.1552901 7.20802048,10.6264164 7.21368601,10.0351536 C7.21976109,8.69716724 8.19645051,7.90699659 9.56105802,7.8716041 C10.111058,7.85709898 10.54,7.95194539 10.7524573,8.04648464 L10.546041,8.81116041 C10.3088737,8.71522184 10.0157679,8.6390785 9.54843003,8.64692833 C8.75860068,8.65976109 8.17211604,9.10488055 8.17211604,9.9874744 C8.17211604,10.8281229 8.70341297,11.3330034 9.47924915,11.3462457 C9.69952218,11.3497952 9.8759727,11.3281229 9.95235495,11.2924915 L9.95235495,10.4206826 L9.29795222,10.4169625 L9.29795222,9.68713311 L10.8954266,9.68153584 L10.8954266,11.9020137 L10.8954266,11.9020137 Z" id="Shape"></path>
        </g>
    </g>
</svg>