<svg width="17" height="17" viewBox="0 0 17 17" fill="none" xmlns="http://www.w3.org/2000/svg">
<path d="M2.07001 16.5524C1.58113 16.5524 1.16261 16.3784 0.814459 16.0302C0.46631 15.6821 0.292236 15.2635 0.292236 14.7747V2.33021C0.292236 1.84132 0.46631 1.4228 0.814459 1.07465C1.16261 0.726503 1.58113 0.552429 2.07001 0.552429H14.5145C15.0033 0.552429 15.4219 0.726503 15.77 1.07465C16.1182 1.4228 16.2922 1.84132 16.2922 2.33021V14.7747C16.2922 15.2635 16.1182 15.6821 15.77 16.0302C15.4219 16.3784 15.0033 16.5524 14.5145 16.5524H2.07001ZM2.07001 14.7747H14.5145V2.33021H2.07001V14.7747Z" fill="#9C9696"/>
</svg>
