<svg height="20" viewBox="0 0 20 20" width="20" xmlns="http://www.w3.org/2000/svg"><path d="m11.817691 18.2609847c.0265195.0017997.0526655.0039049.0795246.0039049h6.0509338c.707674 0 1.2835314-.5760271 1.2835314-1.2835314v-14.02723256c0-.70757216-.5758574-1.28353141-1.2835314-1.28353141h-6.0509338c-.0268591 0-.0530051.00258064-.0795246.00421052v-1.67480475l-11.80994906 1.57612903v16.79334467l11.80994906 1.616944zm.0795246-15.85677417h6.0509338c.3033277 0 .5500849.24682512.5500849.55008489v14.02706278c0 .3033617-.2467912.5500849-.5500849.5500849h-6.0509338c-.0272326 0-.0533446-.0037351-.0795246-.0078777v-4.034635h6.1028523v-5.68414262h-6.1028523v-5.39235994c.02618-.00400679.052292-.00821731.0795246-.00821731zm2.7994907 9.70950767v1.1918506h-2.8575212v-1.1918506zm-2.8575212-1.5586078v-1.19178273h2.8575212v1.19178273zm5.8980305-1.19178273v1.19178273h-2.8571816v-1.19178273zm-2.8571477-.18332767v-1.19188455h2.8571817v1.19188455zm2.8571477 2.9337182v1.1918506h-2.8571816v-1.1918506zm-15.47276738-.5970119-.24308999-.5489983c-.09867572-.2098812-.16196944-.3652971-.23636672-.5383022l-.00787776-.0001698c-.05487266.1701188-.12122241.3221053-.2026146.5251952l-.21640068.5241427-.65789473-.027742.73874363-1.45456704-.71286927-1.43035654.6626146-.01850594.22814941.53174872c.07789473.17843803.13660441.32258065.19949066.48899831h.00750424c.06312394-.18933787.11426146-.32193549.18139219-.49483871l.22696095-.54937182.70794567-.01959253-.77195246 1.47921902.81341257 1.56305603zm2.90648557.1224788-1.84679118-.077725v-3.06747029l.65368422-.01833616v2.52193545l1.19310696.0346011zm1.19551782.0988115c-.36780984-.0157555-.72485568-.1271307-.90159592-.2345671l.14397283-.5975551c.19174873.1058404.48974533.2157894.80095077.2254669.34013582.0102207.52142614-.126961.52142614-.3441766 0-.2066214-.15714771-.3271647-.55028862-.4745331-.53341257-.194635-.87463498-.49331072-.87463498-.96183364 0-.54926995.44964347-.9826146 1.21405773-1.00482173.37409168-.01073005.65385399.06071307.85524618.14502547l-.17147708.61633277c-.13534805-.06278439-.37422751-.15354839-.69860781-.14835315-.32.0049236-.4736163.15310697-.4736163.32305603 0 .20852292.18247878.30037352.60587436.46135824.59144313.21935483.87500869.53093381.87500869 1.00665531.00033936.5657386-.43860801 1.0271647-1.34631599.9879457zm3.79690999.1113752-.340747-.6517827c-.13796265-.2488964-.22617997-.4329711-.33039049-.6379966h-.01093379c-.07643463.2007131-.1693039.3797963-.28319185.6195586l-.30098472.6165026-.91314091-.0383023 1.02550084-1.7097453-.98940577-1.68417656.91993209-.0255348.31809847.62672326c.10879457.21049236.19032258.38067911.27816639.5773854h.01100169c.08784381-.2240068.15935484-.38095077.25348048-.58563668l.31762307-.65110356.9959593-.02774194-1.0851274 1.75572158 1.1435314 1.8583701z" fill="#29722c"/></svg>