<svg xmlns="http://www.w3.org/2000/svg" xmlns:xlink="http://www.w3.org/1999/xlink" width="394" height="263" viewBox="0 0 394 263">
    <defs>
        <path id="6f5mlhp56a" d="M0 262.667L394 262.667 394 0 0 0z"/>
    </defs>
    <g fill="none" fill-rule="evenodd">
        <g>
            <g transform="translate(-132 -172) translate(132 172)">
                <mask id="rex025dc5b" fill="#fff">
                    <use xlink:href="#6f5mlhp56a"/>
                </mask>
                <use fill="#F2F2F2" xlink:href="#6f5mlhp56a"/>
                <path fill="#D2DADD" d="M394 203.008c-11.002 2.566-26.418 7.884-34.704 18.43-13.803 17.566-19.324 16.31-39.444 19.072-20.12 2.76-19.949 21.833-19.949 21.833h56.13s7.142-18.95 22.085-18.95c6.545 0 11.806-.262 15.882-.6v-39.785zM54.636 149.916c37.702-6.37 84.321-11.015 107.41-46.664 23.087-35.65-11.378-64.092-41.827-44.015-30.449 20.076-26.1 44.168-63.24 48.853-37.142 4.684-41.329 48.412-2.343 41.826M259.918 16.353c23.177-1.859 52.45 4.015 38.898 18.32s-51.446-.586-70.017 10.791c-12.676 7.766-15.81-25.346 31.119-29.11M180.855 33.89c15.742-8.577 20.484 5.522 8.366 10.54-12.118 5.02-19.419-4.516-8.366-10.54" mask="url(#rex025dc5b)" opacity=".205"/>
                <g mask="url(#rex025dc5b)">
                    <g>
                        <path fill="#FFF" d="M270.72 53.994c.167-4.608-3.24-8.568-7.82-9.092-4.945-.564-10.878 2.663-12.152 9.01-1.08 5.401-1.83 14.944-1.779 14.507l21.619 1.319.133-15.744z" transform="translate(19 23)"/>
                        <path fill="#F0DFC8" d="M271.02 70.278l-18.027-1.614c.57 8.6.436 13.778.033 18.68-.453 5.532 3.908 10.271 9.458 10.28 5.123.01 9.329-4.043 9.515-9.162l-.979-18.184z" transform="translate(19 23)"/>
                        <path fill="#F0DFC8" d="M222.199 64.33l38.7 17.441c3.943 2.21 5.237 7.265 2.845 11.097-2.42 3.878-7.61 4.907-11.325 2.247l-33.148-24.176 2.928-6.609z" transform="translate(19 23)"/>
                        <path fill="#F0DFC8" d="M218.39 73.393c4.256 1.437 8.872-.846 10.311-5.102 1.437-4.256-.847-8.874-5.103-10.311-4.255-1.438-8.871.847-10.31 5.102-1.439 4.256.846 8.872 5.102 10.31" transform="translate(19 23)"/>
                        <path fill="#F0DFC8" d="M219.145 58.225s-.41-3.183 3.726-2.13c4.137 1.053 7.837 4.26 5.83 12.196l-9.556-10.066z" transform="translate(19 23)"/>
                        <path fill="#81888A" d="M231.362 45.896l-7.95-4.218c-.442-.235-.973-.027-1.183.467l-9.08 21.147c-.21.491-.023 1.082.42 1.316l7.948 4.22c.444.236.974.025 1.185-.466l9.077-21.15c.213-.491.024-1.081-.417-1.316" transform="translate(19 23)"/>
                        <path fill="#929B9E" d="M232.894 46.71l-7.949-4.219c-.442-.236-.972-.026-1.183.466l-9.08 21.149c-.21.491-.023 1.081.418 1.316l7.95 4.22c.443.234.973.025 1.184-.468l9.079-21.148c.21-.493.023-1.082-.42-1.316" transform="translate(19 23)"/>
                        <path fill="#E7E7E7" d="M231.862 48.725L224.877 45.019 217.478 62.253 224.463 65.961z" transform="translate(19 23)"/>
                        <path fill="#FFF" d="M224.877 45.018L224.464 65.96 231.862 48.725z" transform="translate(19 23)"/>
                        <path fill="#F0DFC8" d="M226.723 66.514l-2-7c-.145-.504.017-1.045.414-1.389.573-.494 1.441-.418 1.92.168l1.16 1.599-1.494 6.622z" transform="translate(19 23)"/>
                        <path fill="#F0DFC8" d="M226.049 60.694s-3.36 5.234-1.025 9.86l2.03-4.072-1.005-5.788z" transform="translate(19 23)"/>
                        <path fill="#EAD7BC" d="M237.638 243.942L250.264 243.889 252.864 226.819 240.239 226.875z" transform="translate(19 23)"/>
                        <path fill="#879093" d="M250.16 241.027c-2.97.792-9.694 3.386-12.85-1.187l-21.32 11.555 37.638-.248-1.753-8.99c-.12-.814-.92-1.343-1.715-1.13" transform="translate(19 23)"/>
                        <path fill="#554D4D" d="M258 86.69s-5.095 11.325-13.568 61.876c-8.473 50.552-9.61 84.522-9.61 84.522h26.063l22.728-141.117-5.81-5.5-19.803.218z" transform="translate(19 23)"/>
                        <path fill="#EAD7BC" d="M280.549 243.942L293.174 243.889 293.101 226.819 280.476 226.875z" transform="translate(19 23)"/>
                        <path fill="#879093" d="M293.071 240.743c-2.97.793-9.694 3.387-12.85-1.186l-21.32 11.555 37.638-.249-1.753-8.988c-.121-.815-.92-1.343-1.715-1.132" transform="translate(19 23)"/>
                        <path fill="#554D4D" d="M289.177 86.343s12.465 12.173 13.112 36.635c.745 28.22-1.588 110.438-1.588 110.438l-24.96-.654-12.872-146.126 26.308-.293z" transform="translate(19 23)"/>
                        <path stroke="#222020" stroke-width=".997" d="M270.588 172.844L266.068 127.354 259.614 119.697" transform="translate(19 23)"/>
                        <path fill="#FFF" d="M291.078 42.698l-15.525-.899-10.981 1.308-6.672 2.816c-1.073.459-1.747 1.535-1.691 2.7l.183 3.878s-5.066 17.002.985 20.92L258 86.689l31.917-.353 4.833-32.106c.054-2.097-1.58-11.37-3.673-11.532" transform="translate(19 23)"/>
                        <path stroke="#E2E2E2" stroke-width=".76" d="M254.142 68.664s-1.148-6.507.997-10.742" transform="translate(19 23)"/>
                        <path fill="#F0DFC8" d="M304.738 60.336l-15.97 8.683c3.702 7.781 6.707 11.917 8.146 16.623 1.62 5.307 5.72 9.521 10.88 7.482 4.764-1.884 7.179-7.202 5.462-12.027l-8.518-20.76z" transform="translate(19 23)"/>
                        <path fill="#FFF" d="M300.405 48.056c-2.963-4.686-7.447-6.162-11.897-4.958-4.805 1.302-4.682 12.474-3.24 17.238 1.032 3.411.702 2.804 3.5 8.682l17.73-9.014-6.093-11.948z" transform="translate(19 23)"/>
                        <path stroke="#E2E2E2" stroke-width=".76" d="M288.768 69.018L284.852 62.248" transform="translate(19 23)"/>
                        <path fill="#F0DFC8" d="M285.353 118.941l13.568-37.812c2.159-3.969 7.195-5.33 11.058-2.99 3.908 2.369 5.007 7.545 2.396 11.294l-20.006 34.765-7.016-5.257z" transform="translate(19 23)"/>
                        <path fill="#F0DFC8" d="M294.833 125.046c1.382-4.274-.962-8.86-5.238-10.241-4.275-1.382-8.861.964-10.243 5.237-1.382 4.276.964 8.861 5.239 10.243 4.275 1.381 8.861-.964 10.242-5.239" transform="translate(19 23)"/>
                        <path fill="#F0DFC8" d="M279.658 124.493s-3.178.452-2.18-3.698c.996-4.15 4.156-7.893 12.117-5.99l-9.937 9.688z" transform="translate(19 23)"/>
                        <path fill="#879093" d="M261.253 3.19s-10.247-.915-10.282 11.195c-.028 9.039-2.34 19.578-5.482 24.924 6.162.43 26.537-.03 19.36.107-5.284.1 9.264 3.363 22.394-3.052 0 0 3.001-6.984 2.44-15.826-.562-8.84-4.493-15.473-9.157-18.468-4.666-2.992-15.163-2.844-19.273 1.12" transform="translate(19 23)"/>
                        <path fill="#879093" d="M257.206 2.26s21.063-6.744 27.579 3.676c4.728 7.56.194 21.842-9.618 26.253-9.348 4.202-8.053-26.936-8.053-26.936l-9.908-2.993z" transform="translate(19 23)"/>
                        <path fill="#F4E9D8" d="M261.508 23.11c.33 2.551-1.468 4.889-4.019 5.221-2.55.332-4.888-1.468-5.22-4.019-.331-2.55 1.468-4.888 4.019-5.22 2.55-.331 4.888 1.468 5.22 4.019" transform="translate(19 23)"/>
                        <path fill="#F0DFC8" d="M262.792 34.362l1.25 10.075c.431 3.539 2.844 5.165 6.323 4.713 2.971-.388 5.561-2.283 5.546-5.28l-2.73-15.759-10.39 6.25z" transform="translate(19 23)"/>
                        <path fill="#EAD7BC" d="M263.59 40.926s9.255-2.784 11.083-11.094l-12.03 3.5.947 7.594z" transform="translate(19 23)"/>
                        <path fill="#F0DFC8" d="M265.967 35.812c-5.973.376-11.19-4.033-11.66-8.9l-1.043-11.493c-.59-6.102 3.765-11.57 9.844-12.364 6.222-.809 13.014 3.438 13.823 9.66l.74 9.253c.57 7.156-4.584 12.918-11.704 13.844" transform="translate(19 23)"/>
                        <path fill="#F4E9D8" d="M285.148 20.878c.332 2.551-1.468 4.889-4.019 5.22-2.55.333-4.887-1.467-5.219-4.018-.332-2.551 1.467-4.889 4.018-5.22 2.55-.333 4.888 1.467 5.22 4.018" transform="translate(19 23)"/>
                        <path fill="#FFF" d="M258.77 28.928l6.807-.134s-.054 2.07-3.247 2.255c-3.123.18-3.56-2.12-3.56-2.12" transform="translate(19 23)"/>
                        <path fill="#879093" d="M257.206 2.26s-9.565 2.791-7.148 13.794l30.472-1.882-3.358-10.53-19.966-1.382z" transform="translate(19 23)"/>
                        <path fill="#879093" d="M272.7 13.187s2.739 13.21-.209 28.345c0 0 5.5-.79 10.624-3.433 0 0-1.514-19.341-4.114-25.549-2.6-6.205-6.192-2.356-6.192-2.356l-.108 2.993z" transform="translate(19 23)"/>
                        <path fill="#F0DFC8" d="M264.79 42.807l-3.545 1.704s-5.095 8.553 4.946 8.878c12.111.393 13.1-6.602 15.032-11.288l-6.189-.592-10.244 1.298z" transform="translate(19 23)"/>
                        <path fill="#FFF" d="M22.88 57.414h54.776c2.5 0 4.524-2.025 4.524-4.524V16.568c0-2.499-2.025-4.524-4.524-4.524H22.88c-2.5 0-4.525 2.025-4.525 4.524V52.89c0 2.5 2.026 4.524 4.525 4.524" transform="translate(19 23)"/>
                        <path fill="#FFF" d="M73.584 53.702l-4.9 9.513c-.605 1.178-2.267 1.238-2.956.108l-5.873-9.62h13.73z" transform="translate(19 23)"/>
                        <path fill="#554D4D" d="M34.602 43.991L65.121 43.991 65.121 24.88 34.602 24.88z" transform="translate(19 23)"/>
                        <path stroke="#FFF" stroke-linecap="round" stroke-linejoin="round" stroke-width="1.146" d="M34.602 24.879L49.416 34.539 65.121 24.879" transform="translate(19 23)"/>
                        <path fill="#554D4D" d="M193.188 41.93c1.151 0 2.086.935 2.086 2.087v11.817c0 1.152-.935 2.087-2.086 2.087h-24.286l-3.217 3.755.021-6.743V44.018c0-1.153.936-2.088 2.087-2.088h25.395z" transform="translate(19 23)"/>
                        <path fill="#FFF" d="M185.476 49.745c-.003.734.592 1.332 1.326 1.334.737.002 1.334-.592 1.335-1.326.003-.735-.591-1.333-1.327-1.336-.734-.002-1.333.592-1.334 1.328M179.766 49.727c-.003.734.592 1.333 1.327 1.334.736.003 1.333-.592 1.334-1.326.003-.735-.591-1.334-1.325-1.335-.736-.003-1.333.591-1.336 1.327M174.056 49.71c-.001.733.593 1.332 1.327 1.333.736.003 1.333-.591 1.336-1.326.001-.735-.592-1.334-1.328-1.335-.734-.003-1.332.592-1.335 1.327" transform="translate(19 23)"/>
                        <path fill="#554D4D" d="M108.865 147.513c-.995.854-14.153 7.963-22.116 18.201l15.9 14.646 26.315-6.31 1.552-26.537h-21.651z" transform="translate(19 23)"/>
                        <path fill="#F2E3CE" d="M104.681 243.049L101.871 228.17 111.466 228.17 112.62 243.049z" transform="translate(19 23)"/>
                        <path fill="#554D4D" d="M107.68 171.003c3.134 21.97 8.534 63.23 8.534 63.23l-18.588.345-12.841-59.416c-1.42-6.436 2.783-12.766 9.265-13.957 6.505-1.197 12.697 3.25 13.63 9.798M148.852 147.513c.996.854 14.152 7.963 22.115 18.201l-15.9 14.646-26.315-6.31-1.55-26.537h21.65z" transform="translate(19 23)"/>
                        <path fill="#F2E3CE" d="M151.946 243.049L154.757 228.17 145.162 228.17 144.008 243.049z" transform="translate(19 23)"/>
                        <path fill="#554D4D" d="M150.036 171.003c-3.133 21.97-9.87 63.23-9.87 63.23l18.589.345 14.176-59.416c1.42-6.436-2.782-12.766-9.264-13.957-6.506-1.197-12.696 3.25-13.631 9.798" transform="translate(19 23)"/>
                        <path fill="#748388" d="M126.46 86.668s-16.809 0-29.184 12.17v34.104s59.219.901 59.219 0l.015-36.36s-12.113-9.914-30.05-9.914" transform="translate(19 23)"/>
                        <path fill="#F0DFC8" d="M101.453 131.037H84.567c-4.432 0-8.026 3.595-8.026 8.028 0 4.434 3.594 8.027 8.026 8.027h19.864l-2.978-16.055z" transform="translate(19 23)"/>
                        <path fill="#F0DFC8" d="M77.533 135.195L88.876 116.772 104.43 118.87 102.123 139.064z" transform="translate(19 23)"/>
                        <path stroke="#9C9696" stroke-width=".718" d="M97.276 131.037L87.242 131.037" transform="translate(19 23)"/>
                        <path fill="#748388" d="M99.78 96.583s-9.137 7.377-18.768 23.619c0 0 2.077 9.397 20.018 10.834l-1.25-34.453z" transform="translate(19 23)"/>
                        <path fill="#F0DFC8" d="M154.303 131.037h16.885c4.432 0 8.027 3.595 8.027 8.028 0 4.434-3.595 8.027-8.027 8.027h-19.863l2.978-16.055z" transform="translate(19 23)"/>
                        <path fill="#F0DFC8" d="M178.177 135.114L163.982 113.392 151.325 118.87 153.632 139.065z" transform="translate(19 23)"/>
                        <path stroke="#9C9696" stroke-width=".718" d="M155.261 131.037L168.514 131.037" transform="translate(19 23)"/>
                        <path fill="#748388" d="M156.51 96.583s9.138 7.377 18.768 23.619c0 0-2.076 9.397-20.018 10.834l1.25-34.453z" transform="translate(19 23)"/>
                        <path fill="#F2F2F2" d="M153.808 147.092H99.963c-1.483 0-2.687-1.203-2.687-2.688v-33.993c0-1.484 1.204-2.686 2.687-2.686h53.845c1.483 0 2.688 1.202 2.688 2.686v33.993c0 1.485-1.205 2.688-2.688 2.688" transform="translate(19 23)"/>
                        <path fill="#EE4136" d="M130.515 127.408c0 2.005-1.625 3.63-3.63 3.63-2.003 0-3.629-1.625-3.629-3.63 0-2.004 1.626-3.63 3.628-3.63 2.006 0 3.631 1.626 3.631 3.63" transform="translate(19 23)"/>
                        <path fill="#F3E6D3" d="M128.838 92.498h-3.926c-2.509 0-4.543-2.034-4.543-4.544v-8.47h13.012v8.47c0 2.51-2.033 4.544-4.543 4.544" transform="translate(19 23)"/>
                        <path fill="#E7D2B5" d="M120.405 80.04s1.89 5.83 12.976 5.627v-8.05s-.74 1.498-5.68 1.288c-4.988-.214-7.296 1.134-7.296 1.134" transform="translate(19 23)"/>
                        <path fill="#A5B0B4" d="M142.923 57.652c0 9.152-7.234 16.57-16.155 16.57-8.923 0-16.154-7.418-16.154-16.57 0-9.153 7.231-16.572 16.154-16.572 8.921 0 16.155 7.419 16.155 16.572" transform="translate(19 23)"/>
                        <path fill="#F3E6D3" d="M140.732 63.697s1.163-1.85 3.563-.94c2.397.91 1.313 6.737-2.286 7.48 0 0-1.29.28-2.301-.602 0 0 .885-4.304 1.024-5.938" transform="translate(19 23)"/>
                        <path stroke="#021833" stroke-linecap="round" stroke-linejoin="round" stroke-width=".461" d="M143.819 64.813s-2.01-.67-3.437 2.288" transform="translate(19 23)"/>
                        <path fill="#F3E6D3" d="M113.182 63.697s-1.164-1.85-3.562-.94c-2.4.91-1.314 6.737 2.284 7.48 0 0 1.29.28 2.301-.602 0 0-.883-4.304-1.023-5.938" transform="translate(19 23)"/>
                        <path stroke="#021833" stroke-linecap="round" stroke-linejoin="round" stroke-width=".461" d="M110.096 64.813s2.008-.67 3.435 2.288" transform="translate(19 23)"/>
                        <path fill="#F2E3CE" d="M140.958 58.676c.002 3.735-.385 11.545-2.806 16.182-2.272 4.354-6.03 6.697-10.957 6.837-4.93.14-8.6-1.662-11.54-7.313-2.943-5.65-2.803-15.636-2.803-15.636s0-13.34 13.9-13.34c14.642 0 14.206 13.27 14.206 13.27" transform="translate(19 23)"/>
                        <path fill="#A5B0B4" d="M113.182 63.697s5.28-12.074 1.023-14.049c0 0-3.043 10.393-1.023 14.049M140.688 63.697s-2.966-6.509-.348-11.195c0 0 2.37 7.539.348 11.195" transform="translate(19 23)"/>
                        <path fill="#FFF" d="M122.782 73.758h7.775s.131 2.894-3.899 2.724c-4.027-.17-3.876-2.724-3.876-2.724" transform="translate(19 23)"/>
                        <path fill="#A5B0B4" d="M114.206 49.648s8.682 10.519 27.057 7.025c0 0 1.618-9.508-7.882-12.413-9.498-2.905-16.909 3.962-19.175 5.388" transform="translate(19 23)"/>
                        <path fill="#A5B0B4" d="M114.206 49.648s-.179-8.634 7.813-9.926c7.992-1.295 8.247 2.98 13.905 3.322 8.445.506 12.298 8.812 5.339 13.629l-11.747-7.025h-15.31z" transform="translate(19 23)"/>
                        <path fill="#A5B0B4" d="M114.507 47.14s-8.705 1.07-3.326 14.882l3.326-14.882z" transform="translate(19 23)"/>
                        <path fill="#FFF" d="M120.368 85.293L126.768 92.498 122.019 97.358 115.933 88.124zM133.381 85.667L126.768 92.498 131.518 97.357 138.313 88.115z" transform="translate(19 23)"/>
                        <path fill="#BFC7CA" d="M33.474 157.343L218.546 157.343 218.546 147.092 33.474 147.092zM62.33 254.367L68.763 254.367 68.763 157.343 62.33 157.343z" transform="translate(19 23)"/>
                        <path fill="#A5B0B4" d="M62.33 160.578L68.763 160.578 68.763 157.343 62.33 157.343z" transform="translate(19 23)"/>
                        <path fill="#BFC7CA" d="M188.161 254.367L194.594 254.367 194.594 157.343 188.161 157.343z" transform="translate(19 23)"/>
                        <path fill="#A5B0B4" d="M188.161 160.578L194.594 160.578 194.594 157.343 188.161 157.343z" transform="translate(19 23)"/>
                    </g>
                </g>
            </g>
        </g>
    </g>
</svg>
