<svg xmlns="http://www.w3.org/2000/svg" xmlns:xlink="http://www.w3.org/1999/xlink" width="395" height="263" viewBox="0 0 395 263">
    <defs>
        <filter id="ouieug97va">
            <feColorMatrix in="SourceGraphic" values="0 0 0 0 0.823529 0 0 0 0 0.854902 0 0 0 0 0.866667 0 0 0 1.000000 0"/>
        </filter>
        <path id="9c05dqdb1b" d="M0 0L199.097 0 199.097 88.761 0 88.761z"/>
    </defs>
    <g fill="none" fill-rule="evenodd">
        <g>
            <g>
                <path fill="#F2F2F2" d="M0.479 262.667L394.479 262.667 394.479 0 0.479 0z" transform="translate(-574 -172) translate(574 172)"/>
                <path fill="#D2DADD" d="M394 0h-51.823c-26.514 18.476-30.864 60.817-80.894 60.322-59.148-.585-78.916 19.99-107.838 66.033-28.922 46.044-57.692 55.577-103.566 66.899C4.005 204.577 0 262.86 0 262.86l262.662.14s12.982-35.52 30.69-39.319c17.71-3.798 29.606-3.248 58.788-33.769 15.094-15.787 30.502-17.786 41.86-16.037V0z" opacity=".205" transform="translate(-574 -172) translate(574 172)"/>
                <path fill="#D2DADD" d="M55.115 149.916c37.702-6.37 84.321-11.015 107.409-46.664 23.088-35.65-11.377-64.092-41.826-44.015-30.45 20.076-26.1 44.168-63.241 48.853-37.141 4.684-41.328 48.412-2.342 41.826" opacity=".205" transform="translate(-574 -172) translate(574 172)"/>
                <g filter="url(#ouieug97va)" opacity=".205" transform="translate(-574 -172) translate(574 172)">
                    <g transform="translate(.479)">
                        <mask id="wplzyutpgc" fill="#fff">
                            <use xlink:href="#9c05dqdb1b"/>
                        </mask>
                        <path fill="#D2D1FB" d="M0 0v85.66c14.3 4.357 45.978 9.047 70.555-23.149 32.767-42.925 52.962-45.04 88.036-46.492C175.032 15.34 188.95 7.81 199.097 0H0z" mask="url(#wplzyutpgc)"/>
                    </g>
                </g>
                <g>
                    <path fill="#606E73" d="M86.644 152.122L91.12 152.122 91.12 136.307 86.644 136.307zM100.595 134.56H77.518c-2.373 0-4.295-1.923-4.295-4.296 0-2.372 1.922-4.295 4.295-4.295h23.077c2.372 0 4.295 1.923 4.295 4.295 0 2.373-1.923 4.295-4.295 4.295" transform="translate(-574 -172) translate(574 172) translate(51.158 37.653)"/>
                    <path fill="#9BA7AB" d="M84.921 138.168L93.11 138.168 93.11 132.551 84.921 132.551zM84.921 174.146L93.11 174.146 93.11 149.555 84.921 149.555z" transform="translate(-574 -172) translate(574 172) translate(51.158 37.653)"/>
                    <path fill="#9BA7AB" d="M65.421 174.537L111.664 174.537 111.664 171.115 65.421 171.115z" transform="translate(-574 -172) translate(574 172) translate(51.158 37.653)"/>
                    <path fill="#9BA7AB" d="M65.421 181.753L68.133 181.753 68.133 171.116 65.421 171.116z" transform="translate(-574 -172) translate(574 172) translate(51.158 37.653)"/>
                    <path fill="#606E73" d="M70.807 181.752c0 2.347-1.904 4.25-4.25 4.25-2.347 0-4.25-1.903-4.25-4.25 0-2.346 1.903-4.25 4.25-4.25 2.346 0 4.25 1.904 4.25 4.25" transform="translate(-574 -172) translate(574 172) translate(51.158 37.653)"/>
                    <path fill="#1C2E34" d="M108.951 181.753L111.664 181.753 111.664 171.116 108.951 171.116z" transform="translate(-574 -172) translate(574 172) translate(51.158 37.653)"/>
                    <path fill="#1C2E34" d="M114.336 181.752c0 2.347-1.902 4.25-4.249 4.25-2.347 0-4.25-1.903-4.25-4.25 0-2.346 1.903-4.25 4.25-4.25s4.249 1.904 4.249 4.25" transform="translate(-574 -172) translate(574 172) translate(51.158 37.653)"/>
                    <path fill="#9BA7AB" d="M85.901 99.11V60.217c0-2.214 1.796-4.01 4.01-4.01 2.214 0 4.009 1.796 4.009 4.01V99.11c0 13.085 10.644 23.728 23.728 23.728 2.213 0 4.008 1.794 4.008 4.01 0 2.215-1.795 4.008-4.008 4.008-17.505 0-31.747-14.241-31.747-31.746z" transform="translate(-574 -172) translate(574 172) translate(51.158 37.653)"/>
                    <path fill="#9BA7AB" d="M89.91 56.208L47.105 56.208 49.709 87.615 48.459 111.238 69.81 124.831 74.843 130.857 117.648 130.857 106.014 123.48 97.336 113.647 93.865 111.525 90.974 92.436 90.78 69.49z" transform="translate(-574 -172) translate(574 172) translate(51.158 37.653)"/>
                    <path fill="#606E73" d="M74.843 130.856c-17.505 0-31.746-14.241-31.746-31.746V60.217c0-2.214 1.795-4.01 4.009-4.01 2.213 0 4.008 1.796 4.008 4.01V99.11c0 13.085 10.646 23.728 23.729 23.728 2.213 0 4.009 1.794 4.009 4.01 0 2.215-1.796 4.008-4.01 4.008" transform="translate(-574 -172) translate(574 172) translate(51.158 37.653)"/>
                    <path fill="#EEDBC2" d="M143.725 176.56L143.386 153.578 131.722 152.958 132.042 177.643 143.293 177.715z" transform="translate(-574 -172) translate(574 172) translate(51.158 37.653)"/>
                    <path fill="#606E73" d="M130.413 172.814s9.647 3.967 14.176-2.287l19.86 12.064-37.027-.238 2.991-9.54z" transform="translate(-574 -172) translate(574 172) translate(51.158 37.653)"/>
                    <path fill="#9BA7AB" d="M164.425 186.002L127.398 185.763 127.423 182.354 164.45 182.592z" transform="translate(-574 -172) translate(574 172) translate(51.158 37.653)"/>
                    <path fill="#FFF" d="M144.348 175.805c.104-.043.199-.112.271-.206 1.515-1.986 3.036-2.966 3.052-2.976.3-.191.381-.577.18-.863-.2-.287-.61-.356-.904-.174-.072.044-1.724 1.102-3.388 3.28-.213.28-.146.668.145.87.193.134.439.152.644.069M147.535 177.399c.103-.043.198-.112.271-.206 1.514-1.986 3.036-2.966 3.052-2.976.299-.191.38-.577.18-.863-.2-.286-.612-.36-.905-.174-.07.044-1.724 1.102-3.388 3.281-.212.28-.146.667.145.87.195.133.439.151.645.068M150.72 178.992c.106-.043.2-.112.272-.206 1.515-1.984 3.036-2.965 3.052-2.975.3-.19.381-.577.18-.864-.2-.284-.61-.358-.904-.172-.072.044-1.724 1.101-3.388 3.28-.213.278-.148.667.146.87.192.133.438.15.643.067" transform="translate(-574 -172) translate(574 172) translate(51.158 37.653)"/>
                    <path fill="#554D4D" d="M101.137 100.169l5.47 4.58c-1.596 9.782-6.87 18.664 3.042 18.664h17.572v40.406l19.72.263 1.1-49.501c.148-7.872-6.184-14.339-14.058-14.355l-32.846-.057z" transform="translate(-574 -172) translate(574 172) translate(51.158 37.653)"/>
                    <path fill="#9BA7AB" d="M125.973 164.083L148.657 164.083 148.657 156.436 125.973 156.436z" transform="translate(-574 -172) translate(574 172) translate(51.158 37.653)"/>
                    <path fill="#EEDBC2" d="M112.137 176.56L111.799 153.578 100.134 152.958 100.454 177.643 111.706 177.715z" transform="translate(-574 -172) translate(574 172) translate(51.158 37.653)"/>
                    <path fill="#606E73" d="M98.825 172.814s9.646 3.967 14.177-2.287l19.86 12.064-37.028-.238 2.99-9.54z" transform="translate(-574 -172) translate(574 172) translate(51.158 37.653)"/>
                    <path fill="#9BA7AB" d="M132.838 186.002L95.811 185.763 95.835 182.354 132.862 182.592z" transform="translate(-574 -172) translate(574 172) translate(51.158 37.653)"/>
                    <path fill="#FFF" d="M112.76 175.805c.104-.043.198-.112.271-.206 1.515-1.986 3.036-2.966 3.052-2.976.3-.191.38-.577.18-.863-.2-.287-.61-.356-.904-.174-.07.044-1.724 1.102-3.388 3.28-.212.28-.146.668.145.87.193.134.439.152.645.069M115.947 177.399c.104-.043.199-.112.271-.206 1.515-1.986 3.036-2.966 3.052-2.976.3-.191.38-.577.18-.863-.2-.286-.611-.36-.904-.174-.072.044-1.724 1.102-3.388 3.281-.213.28-.148.667.145.87.193.133.439.151.644.068M119.133 178.992c.104-.043.198-.112.271-.206 1.515-1.984 3.036-2.965 3.052-2.975.3-.19.38-.577.18-.864-.2-.284-.61-.358-.904-.172-.07.044-1.724 1.101-3.388 3.28-.213.278-.146.667.145.87.193.133.439.15.644.067" transform="translate(-574 -172) translate(574 172) translate(51.158 37.653)"/>
                    <path fill="#554D4D" d="M76.321 100.169l-.748 4.58c-1.596 9.782 5.954 18.664 15.865 18.664h4.75v40.406l19.719.263 1.1-49.501c.147-7.872-6.184-14.339-14.058-14.355l-26.628-.057z" transform="translate(-574 -172) translate(574 172) translate(51.158 37.653)"/>
                    <path fill="#9BA7AB" d="M94.94 164.083L117.624 164.083 117.624 156.436 94.94 156.436z" transform="translate(-574 -172) translate(574 172) translate(51.158 37.653)"/>
                    <path fill="#EEDBC2" d="M125.368 82.782L151.937 88.375 153.368 93.704 118.579 94.198 115.791 79.751z" transform="translate(-574 -172) translate(574 172) translate(51.158 37.653)"/>
                    <path fill="#E4CCAD" d="M147.901 88.063s5.433-3.297 10.816-1.92c3.55.906 7.067 4.32 6.794 7.973L143.9 93.84l4.002-5.777z" transform="translate(-574 -172) translate(574 172) translate(51.158 37.653)"/>
                    <path fill="#EEDBC2" d="M126.887 63.577l3.068 22.745s-13.28 6.988-13.001 6.148c.28-.84-2.979-28.893-2.979-28.893h12.912z" transform="translate(-574 -172) translate(574 172) translate(51.158 37.653)"/>
                    <path fill="#748388" d="M115.025 44.759s9.747 1.534 11.97 9.852c2.898 10.84 4 12.403 4 12.403l-14.738 2.143-1.232-24.398z" transform="translate(-574 -172) translate(574 172) translate(51.158 37.653)"/>
                    <path fill="#748388" d="M96.29 41.997l18.735 2.762c1.9.28 3.313 1.901 3.333 3.82l.444 44.444-41.796.124-2.836-38.77 1.553-5.256c.727-2.457 2.8-4.28 5.33-4.685l15.237-2.44z" transform="translate(-574 -172) translate(574 172) translate(51.158 37.653)"/>
                    <path fill="#EEDBC2" d="M84.022 66.861L76.197 87.092 64.124 76.587 68.81 62.029z" transform="translate(-574 -172) translate(574 172) translate(51.158 37.653)"/>
                    <path fill="#748388" d="M91.641 43.567s-14.548-.13-18.163 4.166c-4.554 5.411-9.96 19.24-9.96 19.24l23.66 5.213 4.463-28.62z" transform="translate(-574 -172) translate(574 172) translate(51.158 37.653)"/>
                    <path fill="#EEDBC2" d="M77.547 83.716l27.302 6.08-1.124 6.047-32.26.215s-14.43-2.911-7.341-19.471l13.423 7.129z" transform="translate(-574 -172) translate(574 172) translate(51.158 37.653)"/>
                    <path fill="#E4CCAD" d="M104.849 89.797s6.415-2.511 11.728-1.519c3.607.674 6.03 4.115 5.757 7.775l-.001.005-21.442-.196 3.958-6.065z" transform="translate(-574 -172) translate(574 172) translate(51.158 37.653)"/>
                    <path stroke="#E98980" stroke-width=".5" d="M77.547 83.716L70.807 82.782" transform="translate(-574 -172) translate(574 172) translate(51.158 37.653)"/>
                    <path fill="#606E73" d="M108.801 8.908s7.428 6.98.114 9.511l-.114-9.51z" transform="translate(-574 -172) translate(574 172) translate(51.158 37.653)"/>
                    <path fill="#EEDBC2" d="M103.024 32.288l.39 9.899c.144 3.476-1.854 5.411-5.17 5.508-2.83.082-5.991-1.168-5.987-4.237l.113-15.602 10.654 4.432z" transform="translate(-574 -172) translate(574 172) translate(51.158 37.653)"/>
                    <path fill="#E4CCAD" d="M103.305 38.87s-8.036.996-10.896-7.984c-.901-2.828 10.595.386 10.595.386l.301 7.597z" transform="translate(-574 -172) translate(574 172) translate(51.158 37.653)"/>
                    <path fill="#EEDBC2" d="M100.167 35.288c5.653-.21 10.136-4.993 10.113-9.767l-.102-9.984c-.027-5.981-4.646-10.874-10.437-11.058-5.93-.186-11.909 4.592-12.075 10.713l.172 7.779c.15 7.005 5.547 12.102 12.33 12.317" transform="translate(-574 -172) translate(574 172) translate(51.158 37.653)"/>
                    <path fill="#606E73" d="M116.117 5.551l-4.29-.607c1.252-.797 2.509-1.589 2.509-1.589s-2.927-1.01-6.823-1.004C104.973.98 101.72.043 98.318.001c-4.98-.06-9.232 2.64-10.768 5.611l-.003-.006s-4.134-.252-4.701 4.426c-.736 6.064 6.562 16.08 6.562 16.08l.82-7.922c4.524-.324 4.733-4.314 4.378-6.917 2.035.173 9.057.635 14.545-.587.598-.07 1.411-.227 2.096-.581 2.591-.891 4.525-2.314 4.87-4.554" transform="translate(-574 -172) translate(574 172) translate(51.158 37.653)"/>
                    <path fill="#EEDBC2" d="M82.636 22.977c-.062 2.267 1.667 4.16 3.864 4.23 2.195.069 4.024-1.712 4.086-3.978.062-2.267-1.668-4.16-3.863-4.23-2.197-.069-4.025 1.712-4.087 3.978" transform="translate(-574 -172) translate(574 172) translate(51.158 37.653)"/>
                    <path stroke="#606E73" stroke-linecap="round" stroke-linejoin="round" stroke-width=".558" d="M87.941 24.131s.08-2.976-2.688-2.594" transform="translate(-574 -172) translate(574 172) translate(51.158 37.653)"/>
                    <path fill="#EEDBC2" d="M88.42 43.257l7.87-1.26 10.468 1.544s.645 6.106-8.206 6.365c-8.851.257-10.132-6.649-10.132-6.649" transform="translate(-574 -172) translate(574 172) translate(51.158 37.653)"/>
                    <path fill="#CB9DA8" d="M135.993 73.562L139.709 76.231 166.075 53.977 230.275 18.533 226.809 16.017 182.768 29.549z" transform="translate(-574 -172) translate(574 172) translate(51.158 37.653)"/>
                    <path fill="#9BA7AB" d="M145.098 18.07L134.646 70c-.446 2.222 1.252 4.297 3.52 4.297h75.237c1.692 0 3.155-1.183 3.51-2.839l11.115-51.927c.478-2.235-1.224-4.342-3.51-4.342h-75.9c-1.71 0-3.183 1.206-3.52 2.882" transform="translate(-574 -172) translate(574 172) translate(51.158 37.653)"/>
                    <path fill="#D2DADD" d="M148.491 20.52l-10.452 51.928c-.446 2.222 1.252 4.298 3.52 4.298h75.237c1.693 0 3.155-1.183 3.51-2.839l11.115-51.927c.478-2.235-1.224-4.342-3.51-4.342h-75.9c-1.71 0-3.183 1.206-3.52 2.882" transform="translate(-574 -172) translate(574 172) translate(51.158 37.653)"/>
                    <path fill="#9BA7AB" d="M175.88 63.015L174.476 76.746 180.582 76.746z" transform="translate(-574 -172) translate(574 172) translate(51.158 37.653)"/>
                    <path fill="#D2DADD" d="M175.88 62.731L182.111 93.479 204.825 93.479 194.17 62.731z" transform="translate(-574 -172) translate(574 172) translate(51.158 37.653)"/>
                    <path fill="#FFF" d="M192.847 39.082c0 2.784-2.257 5.04-5.04 5.04s-5.04-2.256-5.04-5.04c0-2.784 2.257-5.04 5.04-5.04s5.04 2.256 5.04 5.04" transform="translate(-574 -172) translate(574 172) translate(51.158 37.653)"/>
                    <path fill="#D2DADD" d="M218.259 90.617h-53.54c-.821 0-1.485.666-1.485 1.486s.664 1.486 1.486 1.486h53.539c.82 0 1.485-.666 1.485-1.486s-.665-1.486-1.485-1.486M151.512 90.617h-28.358c-.82 0-1.485.666-1.485 1.486s.666 1.486 1.485 1.486h28.358c.82 0 1.485-.666 1.485-1.486s-.666-1.486-1.485-1.486" transform="translate(-574 -172) translate(574 172) translate(51.158 37.653)"/>
                    <path stroke="#554D4D" stroke-width="1.161" d="M116.468 98.32L116.468 186.002M60.893 98.32L60.893 186.002M251.337 98.32L251.337 186.002M195.763 98.32L195.763 186.002" transform="translate(-574 -172) translate(574 172) translate(51.158 37.653)"/>
                    <path fill="#F2F2F2" d="M47.97 100.53L100.548 100.53 100.548 93.48 47.97 93.48z" transform="translate(-574 -172) translate(574 172) translate(51.158 37.653)"/>
                    <path fill="#FFF" d="M100.447 100.53L265.629 100.53 265.629 93.48 100.447 93.48z" transform="translate(-574 -172) translate(574 172) translate(51.158 37.653)"/>
                    <path stroke="#554D4D" stroke-width="1.161" d="M292.404 186.002L0 186.002" transform="translate(-574 -172) translate(574 172) translate(51.158 37.653)"/>
                </g>
            </g>
        </g>
    </g>
</svg>
