<svg width="18" height="19" viewBox="0 0 18 19" fill="none" xmlns="http://www.w3.org/2000/svg">
<path fill-rule="evenodd" clip-rule="evenodd" d="M14.625 2.29565H16.875C17.496 2.29565 18 2.79968 18 3.42065V16.9207C18 17.5416 17.496 18.0457 16.875 18.0457H1.125C0.504028 18.0457 0 17.5416 0 16.9207V3.42065C0 2.79968 0.504028 2.29565 1.125 2.29565H3.375V0.0456543H6.75V2.29565H11.25V0.0456543H14.625V2.29565ZM16.3975 3.79785H1.84888V4.78528H16.3975V3.79785ZM6.17517 10.027H3.35034V7.20215H6.17517V10.027ZM10.4124 10.027H7.58752V7.20215H10.4124V10.027ZM6.17517 14.2642H3.35034V11.4393H6.17517V14.2642ZM10.4124 14.2642H7.58752V11.4393H10.4124V14.2642ZM14.6497 10.027H11.8248V7.20215H14.6497V10.027ZM14.6497 14.2642H11.8248V11.4393H14.6497V14.2642Z" fill="#737070"/>
</svg>
