<svg width="18" height="17" viewBox="0 0 18 17" fill="none" xmlns="http://www.w3.org/2000/svg">
<path fill-rule="evenodd" clip-rule="evenodd" d="M8.9991 0.0363159C11.3922 0.0363159 13.3324 1.97657 13.3324 4.36965C13.3324 6.76273 11.3922 8.70298 8.9991 8.70298C6.60602 8.70298 4.66577 6.76273 4.66577 4.36965C4.66577 1.97657 6.60602 0.0363159 8.9991 0.0363159Z" fill="#9C9696"/>
<path fill-rule="evenodd" clip-rule="evenodd" d="M17.3325 12.703H15.3325V10.703H13.3325V12.703H11.3325V14.703H13.3325V16.703H15.3325V14.703H17.3325V12.703Z" fill="#9C9696"/>
<path fill-rule="evenodd" clip-rule="evenodd" d="M8.94092 13.703C8.94092 12.586 9.33296 11.566 9.97324 10.733C9.63707 10.716 9.29675 10.703 8.94092 10.703C5.63914 10.703 3.21141 11.498 1.86877 12.085C1.13125 12.408 0.665771 13.12 0.665771 13.903V16.703H9.9991C9.34433 15.865 8.94092 14.834 8.94092 13.703Z" fill="#9C9696"/>
</svg>
