<svg width="394" height="263" viewBox="0 0 394 263" fill="none" xmlns="http://www.w3.org/2000/svg">
<mask id="mask0_217_83479" style="mask-type:alpha" maskUnits="userSpaceOnUse" x="0" y="0" width="394" height="263">
<rect width="394" height="263" fill="#F2F2F2"/>
</mask>
<g mask="url(#mask0_217_83479)">
<rect width="394" height="263" fill="#F2F2F2"/>
<path opacity="0.204647" fill-rule="evenodd" clip-rule="evenodd" d="M394 0H342.177C315.663 18.4758 311.313 60.8173 261.283 60.322C202.135 59.7366 182.367 80.3114 153.445 126.355C124.523 172.399 95.7534 181.932 49.8792 193.254C4.00535 204.577 0 262.86 0 262.86L262.662 263C262.662 263 275.644 227.48 293.353 223.681C311.062 219.883 322.958 220.433 352.14 189.912C367.234 174.125 382.642 172.126 394 173.875V0Z" fill="#D2DADD"/>
<path opacity="0.204647" fill-rule="evenodd" clip-rule="evenodd" d="M55.1146 149.916C92.8164 143.546 139.436 138.901 162.523 103.251C185.611 67.6021 151.147 39.1604 120.697 59.2369C90.2485 79.3134 94.5982 103.405 57.4568 108.09C20.3153 112.774 16.1287 156.502 55.1146 149.916" fill="#D2DADD"/>
<g opacity="0.204647">
<path fill-rule="evenodd" clip-rule="evenodd" d="M0.478516 0V85.6603C14.7785 90.0166 46.4561 94.707 71.0333 62.511C103.8 19.5862 123.996 17.4717 159.07 16.0194C175.511 15.3386 189.429 7.8085 199.576 0H0.478516Z" fill="#D2DADD"/>
</g>
<path fill-rule="evenodd" clip-rule="evenodd" d="M138.648 398.907H154.466V171.047H138.648V398.907Z" fill="#9BA7AB"/>
<path fill-rule="evenodd" clip-rule="evenodd" d="M138.647 171.047H154.465V209.37L138.647 205.293V171.047Z" fill="#D2DADD"/>
<path fill-rule="evenodd" clip-rule="evenodd" d="M90.0508 199.422H231.11V173.004C231.11 153.009 214.902 136.801 194.907 136.801H126.254C106.259 136.801 90.0508 153.009 90.0508 173.004V199.422Z" fill="#9BA7AB"/>
<path fill-rule="evenodd" clip-rule="evenodd" d="M90.0508 191.594H158.705V174.145H90.0508V191.594Z" fill="white"/>
<path fill-rule="evenodd" clip-rule="evenodd" d="M158.705 199.422V173.004C158.705 153.009 174.913 136.801 194.908 136.801C214.902 136.801 231.111 153.009 231.111 173.004V199.422" fill="#7F888B"/>
<path fill-rule="evenodd" clip-rule="evenodd" d="M158.706 204.07H257.774V199.422H158.706V204.07Z" fill="#9BA7AB"/>
<path fill-rule="evenodd" clip-rule="evenodd" d="M185.369 204.07H257.775V199.422H185.369V204.07Z" fill="#454D50"/>
<path fill-rule="evenodd" clip-rule="evenodd" d="M146.557 180.465H149.125V119.312H146.557V180.465Z" fill="#D2DADD"/>
<path fill-rule="evenodd" clip-rule="evenodd" d="M131.961 131.175H149.899V122.399C149.899 121.752 149.375 121.228 148.728 121.228H131.961L134.896 126.201L131.961 131.175Z" fill="#7F888B"/>
<path d="M69.6925 134.328C71.7195 134.6 73.2866 136.329 73.2866 138.432C73.2866 140.718 71.4309 142.574 69.1446 142.574H40.142C37.8545 142.574 36 140.718 36 138.432C36 136.142 37.8545 134.286 40.142 134.286H42.5782C42.0799 133.29 41.8003 132.163 41.8003 130.973C41.8003 126.855 45.1384 123.516 49.2567 123.516C53.375 123.516 56.7154 126.855 56.7154 130.973C56.7154 132.163 56.4324 133.29 55.9386 134.286H58.6477C58.6477 131.238 61.12 128.763 64.1718 128.763C67.2236 128.763 69.6948 131.238 69.6948 134.286C69.6948 134.302 69.6925 134.313 69.6925 134.328Z" fill="#D6DBE1"/>
<path d="M43.4455 140.401C44.0182 138.594 45.7611 137.412 47.6573 137.412C48.6427 137.412 49.398 136.516 49.2064 135.55C49.1139 135.081 49.0654 134.595 49.0654 134.098C49.0654 130.365 51.8072 127.274 55.3877 126.727C53.9368 124.638 51.4464 123.325 48.6663 123.539C45.0013 123.821 42.0476 126.821 41.8165 130.49C41.7296 131.859 42.0137 133.155 42.5786 134.286H40.2629C38.0319 134.286 36.112 136 36.0049 138.228C35.891 140.607 37.7884 142.574 40.1423 142.574H43.3959C43.2257 141.903 43.1997 141.176 43.4455 140.401V140.401Z" fill="#7F888B"/>
<path d="M348.261 217.483C350.288 217.754 351.855 219.484 351.855 221.586C351.855 223.873 349.999 225.728 347.713 225.728H318.71C316.423 225.728 314.568 223.873 314.568 221.586C314.568 219.297 316.423 217.441 318.71 217.441H321.147C320.648 216.444 320.369 215.318 320.369 214.128C320.369 210.009 323.707 206.671 327.825 206.671C331.943 206.671 335.284 210.009 335.284 214.128C335.284 215.318 335.001 216.444 334.507 217.441H337.216C337.216 214.392 339.688 211.918 342.74 211.918C345.792 211.918 348.263 214.392 348.263 217.441C348.263 217.457 348.261 217.468 348.261 217.483Z" fill="#D6DBE1"/>
<path d="M322.014 223.556C322.587 221.749 324.329 220.567 326.226 220.567C327.211 220.567 327.966 219.671 327.775 218.705C327.682 218.236 327.634 217.75 327.634 217.253C327.634 213.52 330.376 210.429 333.956 209.882C332.505 207.793 330.015 206.479 327.235 206.694C323.57 206.976 320.616 209.975 320.385 213.645C320.298 215.014 320.582 216.31 321.147 217.441H318.831C316.6 217.441 314.68 219.154 314.573 221.382C314.459 223.762 316.357 225.728 318.711 225.728H321.964C321.794 225.057 321.768 224.33 322.014 223.556V223.556Z" fill="#7F888B"/>
<path d="M197.196 65.0324C199.223 65.3041 200.79 67.0335 200.79 69.136C200.79 71.4223 198.935 73.278 196.649 73.278H167.646C165.358 73.278 163.504 71.4223 163.504 69.136C163.504 66.8463 165.358 64.9907 167.646 64.9907H170.082C169.584 63.9941 169.304 62.8679 169.304 61.6774C169.304 57.5591 172.642 54.2209 176.761 54.2209C180.879 54.2209 184.219 57.5591 184.219 61.6774C184.219 62.8679 183.936 63.9941 183.443 64.9907H186.152C186.152 61.9423 188.624 59.4677 191.676 59.4677C194.727 59.4677 197.199 61.9423 197.199 64.9907C197.199 65.0065 197.196 65.0178 197.196 65.0324Z" fill="#D6DBE1"/>
<path d="M170.949 71.1055C171.522 69.2984 173.265 68.1169 175.161 68.1169C176.147 68.1169 176.902 67.2206 176.71 66.2545C176.618 65.7855 176.569 65.2996 176.569 64.8024C176.569 61.0697 179.311 57.9785 182.892 57.4317C181.441 55.3427 178.95 54.0293 176.17 54.2435C172.505 54.5253 169.551 57.5253 169.32 61.1948C169.234 62.5635 169.518 63.8599 170.082 64.9907H167.767C165.536 64.9907 163.616 66.7043 163.509 68.932C163.395 71.3118 165.292 73.278 167.646 73.278H170.9C170.73 72.6072 170.704 71.88 170.949 71.1055V71.1055Z" fill="#7F888B"/>
<path fill-rule="evenodd" clip-rule="evenodd" d="M274.856 62.4894C274.638 62.4894 274.441 62.3852 274.389 62.2297C274.328 62.0482 274.489 61.8667 274.746 61.8235C275.825 61.6456 276.877 61.4119 277.874 61.128C278.121 61.0588 278.399 61.1414 278.499 61.314C278.598 61.4874 278.479 61.6833 278.233 61.7534C277.191 62.05 276.092 62.2944 274.966 62.4804C274.929 62.4867 274.891 62.4894 274.856 62.4894" fill="#9C9696"/>
<path fill-rule="evenodd" clip-rule="evenodd" d="M246.232 62.1216C246.059 62.1216 245.909 61.9935 245.89 61.8189C245.868 61.6326 246.004 61.4626 246.193 61.4417C247.071 61.3417 248.004 61.2526 248.968 61.1762C249.58 61.1281 250.222 61.1035 250.873 61.1035L251.099 61.1053C251.289 61.1062 251.443 61.2608 251.441 61.4489C251.439 61.638 251.258 61.7853 251.093 61.7871L250.873 61.7862C250.239 61.7862 249.617 61.8098 249.023 61.8571C248.067 61.9326 247.141 62.0207 246.271 62.1198C246.258 62.1207 246.244 62.1216 246.232 62.1216M260.766 63.0006C260.744 63.0006 260.723 62.9988 260.702 62.9943C259.222 62.7225 257.547 62.4134 255.907 62.1834C255.719 62.1562 255.588 61.9834 255.614 61.7971C255.641 61.6107 255.814 61.4807 256.003 61.5071C257.658 61.7389 259.342 62.0498 260.828 62.3234C261.015 62.358 261.138 62.5361 261.103 62.7216C261.073 62.8861 260.928 63.0006 260.766 63.0006M236.692 64.0733C236.547 64.0733 236.412 63.9824 236.365 63.8388C236.305 63.6588 236.404 63.4661 236.585 63.4079C238.06 62.9316 239.661 62.5198 241.344 62.1853C241.532 62.1489 241.713 62.268 241.75 62.4525C241.788 62.6371 241.667 62.817 241.48 62.8543C239.823 63.1834 238.248 63.5879 236.799 64.057C236.763 64.0688 236.727 64.0733 236.692 64.0733M270.428 64.2506H270.423C268.962 64.2315 267.404 64.0952 265.522 63.8225C265.333 63.7952 265.203 63.6225 265.231 63.4361C265.258 63.2489 265.433 63.1207 265.622 63.148C267.473 63.4161 269.001 63.5498 270.432 63.5679C270.623 63.5707 270.775 63.7252 270.773 63.9134C270.77 64.1006 270.616 64.2506 270.428 64.2506M228.067 68.4848C227.964 68.4848 227.862 68.4403 227.794 68.353C227.678 68.2049 227.705 67.9903 227.855 67.8749C229.122 66.8995 230.525 66.0205 232.028 65.2632C232.197 65.1769 232.404 65.2441 232.491 65.4123C232.578 65.5805 232.51 65.7859 232.34 65.8714C230.877 66.6095 229.51 67.464 228.278 68.413C228.216 68.4621 228.141 68.4848 228.067 68.4848M221.723 75.7481C221.664 75.7481 221.605 75.7335 221.55 75.7017C221.385 75.6072 221.329 75.3981 221.426 75.2354C222.262 73.8127 223.223 72.4719 224.284 71.252C224.408 71.1093 224.625 71.0929 224.769 71.2156C224.914 71.3383 224.93 71.5538 224.806 71.6965C223.773 72.8855 222.837 74.1918 222.021 75.5781C221.957 75.6871 221.842 75.7481 221.723 75.7481M218.359 84.7666C218.338 84.7666 218.317 84.7648 218.296 84.7611C218.109 84.7266 217.986 84.5484 218.019 84.3639C218.317 82.7667 218.756 81.1822 219.326 79.6542C219.392 79.4769 219.59 79.386 219.768 79.4524C219.947 79.5169 220.038 79.7132 219.972 79.8905C219.416 81.3822 218.987 82.9285 218.698 84.4875C218.667 84.6511 218.522 84.7666 218.359 84.7666M218.324 94.375C218.16 94.375 218.015 94.2587 217.985 94.0932C217.919 93.7305 217.86 93.3651 217.808 92.9988C217.639 91.8116 217.554 90.5898 217.554 89.3663V89.2272C217.555 89.0381 217.711 88.8799 217.9 88.8863C218.09 88.8872 218.244 89.0408 218.243 89.229V89.3663C218.243 90.558 218.326 91.7479 218.49 92.9042C218.542 93.2615 218.599 93.6178 218.664 93.9733C218.697 94.1587 218.572 94.336 218.385 94.3696C218.364 94.3732 218.344 94.375 218.324 94.375M221.496 103.473C221.371 103.473 221.251 103.405 221.189 103.288C220.425 101.821 219.768 100.316 219.24 98.8121C219.178 98.6339 219.272 98.4394 219.452 98.3776C219.632 98.3148 219.829 98.4094 219.891 98.5876C220.409 100.061 221.052 101.536 221.802 102.975C221.89 103.142 221.823 103.348 221.654 103.435C221.604 103.461 221.549 103.473 221.496 103.473M227.012 111.413C226.917 111.413 226.822 111.374 226.753 111.298C225.663 110.069 224.644 108.779 223.726 107.462C223.617 107.307 223.657 107.094 223.813 106.987C223.97 106.88 224.185 106.92 224.292 107.074C225.195 108.369 226.198 109.638 227.271 110.847C227.397 110.988 227.383 111.203 227.24 111.329C227.175 111.385 227.093 111.413 227.012 111.413M234.129 118.002C234.054 118.002 233.98 117.978 233.917 117.929C232.609 116.914 231.354 115.853 230.185 114.776C230.046 114.646 230.039 114.431 230.168 114.293C230.298 114.155 230.516 114.147 230.656 114.276C231.81 115.34 233.05 116.389 234.342 117.393C234.491 117.509 234.518 117.724 234.4 117.872C234.332 117.957 234.231 118.002 234.129 118.002M296.534 122.099C296.379 122.099 296.237 121.994 296.199 121.838C296.155 121.655 296.268 121.471 296.453 121.426C297.581 121.156 298.786 120.966 300.134 120.847C300.536 120.811 300.94 120.783 301.343 120.762C301.537 120.752 301.695 120.896 301.705 121.084C301.716 121.273 301.57 121.433 301.38 121.443C300.985 121.464 300.589 121.492 300.195 121.527C298.881 121.643 297.71 121.827 296.616 122.09C296.588 122.096 296.561 122.099 296.534 122.099M311.046 122.322C311.02 122.322 310.993 122.319 310.966 122.312C309.4 121.945 307.798 121.684 306.203 121.539C306.014 121.522 305.875 121.355 305.892 121.168C305.91 120.98 306.08 120.843 306.267 120.859C307.894 121.008 309.528 121.273 311.125 121.649C311.311 121.692 311.425 121.876 311.381 122.06C311.344 122.216 311.202 122.322 311.046 122.322M242.217 123.393C242.158 123.393 242.098 123.378 242.044 123.347C240.604 122.52 239.205 121.655 237.886 120.779C237.728 120.673 237.686 120.462 237.791 120.305C237.898 120.149 238.112 120.107 238.27 120.213C239.577 121.081 240.963 121.937 242.39 122.757C242.554 122.851 242.61 123.06 242.515 123.223C242.451 123.332 242.335 123.393 242.217 123.393M320.111 125.818C320.056 125.818 319.999 125.804 319.947 125.776C319.369 125.466 318.8 125.18 318.264 124.918C317.389 124.489 316.483 124.092 315.572 123.739C315.394 123.67 315.307 123.472 315.376 123.297C315.446 123.121 315.646 123.035 315.823 123.103C316.753 123.464 317.677 123.869 318.57 124.306C319.114 124.572 319.69 124.862 320.275 125.176C320.443 125.266 320.505 125.473 320.414 125.639C320.352 125.753 320.233 125.818 320.111 125.818M288.491 127.183C288.419 127.183 288.347 127.162 288.286 127.117C288.132 127.005 288.1 126.791 288.213 126.639C289.153 125.38 290.256 124.325 291.493 123.503C291.61 123.425 291.73 123.349 291.85 123.274C292.011 123.175 292.223 123.223 292.324 123.383C292.425 123.543 292.376 123.754 292.214 123.854C292.101 123.924 291.988 123.996 291.877 124.07C290.707 124.849 289.66 125.85 288.768 127.045C288.701 127.136 288.596 127.183 288.491 127.183M250.911 127.772C250.863 127.772 250.815 127.762 250.77 127.742C249.253 127.07 247.765 126.37 246.349 125.659C246.179 125.574 246.111 125.369 246.197 125.2C246.284 125.032 246.491 124.965 246.661 125.05C248.066 125.756 249.544 126.452 251.051 127.118C251.225 127.196 251.303 127.398 251.226 127.569C251.168 127.697 251.042 127.772 250.911 127.772M259.978 131.343C259.939 131.343 259.901 131.336 259.862 131.323C258.293 130.772 256.752 130.2 255.281 129.622C255.104 129.552 255.017 129.354 255.087 129.179C255.157 129.004 255.357 128.917 255.534 128.987C256.998 129.562 258.532 130.131 260.093 130.679C260.272 130.743 260.366 130.937 260.302 131.115C260.252 131.255 260.119 131.343 259.978 131.343M326.695 132.535C326.534 132.535 326.389 132.422 326.357 132.259C326.097 130.933 325.275 129.646 323.914 128.432C323.773 128.306 323.762 128.089 323.89 127.949C324.016 127.809 324.235 127.798 324.376 127.925C325.85 129.239 326.744 130.654 327.034 132.129C327.07 132.314 326.949 132.493 326.761 132.529C326.739 132.534 326.717 132.535 326.695 132.535M269.268 134.295C269.236 134.295 269.203 134.291 269.171 134.282C267.615 133.832 266.042 133.356 264.497 132.867C264.316 132.809 264.216 132.617 264.274 132.438C264.332 132.258 264.527 132.16 264.708 132.216C266.246 132.705 267.813 133.179 269.364 133.626C269.547 133.679 269.652 133.868 269.599 134.049C269.555 134.199 269.417 134.295 269.268 134.295M285.03 136.117C285.014 136.117 284.996 136.115 284.979 136.113C284.791 136.085 284.661 135.912 284.689 135.725C284.943 134.039 285.349 132.442 285.893 130.979C285.959 130.803 286.158 130.713 286.336 130.777C286.515 130.843 286.606 131.038 286.54 131.216C286.012 132.635 285.618 134.185 285.371 135.826C285.345 135.995 285.198 136.117 285.03 136.117M278.703 136.757C278.677 136.757 278.65 136.754 278.624 136.748C277.045 136.38 275.451 135.985 273.882 135.575C273.697 135.527 273.588 135.341 273.636 135.158C273.684 134.976 273.872 134.867 274.057 134.915C275.62 135.323 277.21 135.716 278.781 136.084C278.967 136.127 279.082 136.312 279.038 136.494C279.001 136.652 278.859 136.757 278.703 136.757M288.252 138.734C288.232 138.734 288.211 138.732 288.191 138.729C286.596 138.441 284.982 138.129 283.394 137.8C283.207 137.761 283.088 137.581 283.126 137.396C283.165 137.212 283.349 137.094 283.534 137.132C285.118 137.459 286.725 137.771 288.314 138.057C288.501 138.091 288.625 138.269 288.591 138.454C288.561 138.619 288.416 138.734 288.252 138.734M297.894 140.219C297.879 140.219 297.865 140.219 297.85 140.217C296.244 140.011 294.615 139.781 293.011 139.534C292.822 139.505 292.694 139.331 292.723 139.144C292.752 138.959 292.927 138.831 293.116 138.86C294.716 139.106 296.338 139.335 297.937 139.54C298.126 139.564 298.259 139.735 298.235 139.921C298.213 140.094 298.065 140.219 297.894 140.219M322.055 140.232C321.923 140.232 321.797 140.158 321.741 140.031C321.662 139.859 321.739 139.658 321.912 139.58C323.46 138.886 324.639 137.894 325.417 136.633C325.517 136.472 325.729 136.422 325.891 136.52C326.054 136.618 326.105 136.829 326.006 136.99C325.154 138.37 323.872 139.45 322.197 140.201C322.15 140.222 322.102 140.232 322.055 140.232M307.599 141.209C307.589 141.209 307.58 141.209 307.572 141.209C305.956 141.086 304.318 140.939 302.703 140.775C302.514 140.756 302.377 140.588 302.397 140.4C302.416 140.213 302.584 140.074 302.774 140.096C304.383 140.26 306.015 140.406 307.624 140.528C307.814 140.542 307.957 140.707 307.942 140.895C307.928 141.073 307.777 141.209 307.599 141.209M314.282 141.557C313.655 141.557 313.042 141.54 312.452 141.515C312.262 141.507 312.115 141.348 312.124 141.159C312.132 140.971 312.292 140.825 312.483 140.833C313.062 140.859 313.665 140.874 314.282 140.874C315.363 140.874 316.381 140.824 317.305 140.725C317.493 140.704 317.664 140.839 317.684 141.028C317.705 141.215 317.569 141.383 317.38 141.404C316.43 141.505 315.388 141.557 314.282 141.557M284.808 145.761C284.625 145.761 284.472 145.618 284.463 145.435C284.401 144.046 284.342 142.557 284.342 141.068L284.345 140.588C284.346 140.399 284.477 140.236 284.692 140.249C284.882 140.251 285.035 140.405 285.034 140.594L285.032 141.068C285.032 142.544 285.089 144.024 285.153 145.405C285.161 145.593 285.014 145.752 284.823 145.761C284.819 145.761 284.813 145.761 284.808 145.761M284.94 155.416C284.932 155.416 284.924 155.416 284.917 155.415C284.727 155.402 284.584 155.239 284.596 155.051C284.66 154.12 284.69 153.139 284.69 152.051C284.69 151.453 284.681 150.854 284.665 150.255C284.661 150.066 284.81 149.91 285.001 149.905C285.192 149.886 285.349 150.049 285.355 150.237C285.37 150.842 285.38 151.447 285.38 152.051C285.38 153.154 285.348 154.151 285.284 155.098C285.271 155.278 285.12 155.416 284.94 155.416M282.547 164.712C282.495 164.712 282.441 164.7 282.39 164.674C282.221 164.588 282.154 164.383 282.241 164.215C282.464 163.785 282.67 163.344 282.856 162.906C283.274 161.917 283.623 160.861 283.892 159.766C283.937 159.584 284.125 159.471 284.309 159.516C284.494 159.56 284.607 159.745 284.562 159.928C284.284 161.057 283.924 162.148 283.492 163.17C283.299 163.624 283.085 164.081 282.855 164.526C282.793 164.644 282.673 164.712 282.547 164.712M276.42 172.152C276.323 172.152 276.227 172.112 276.159 172.035C276.034 171.892 276.05 171.677 276.194 171.553C277.474 170.456 278.613 169.315 279.582 168.162C279.703 168.017 279.92 167.998 280.066 168.118C280.213 168.239 280.233 168.453 280.111 168.599C279.119 169.779 277.953 170.948 276.646 172.068C276.579 172.125 276.5 172.152 276.42 172.152M268.309 177.469C268.177 177.469 268.053 177.395 267.995 177.27C267.916 177.098 267.992 176.896 268.165 176.817C269.422 176.249 270.555 175.638 271.533 175.004C271.807 174.826 272.079 174.646 272.35 174.462C272.508 174.356 272.722 174.396 272.829 174.552C272.937 174.707 272.896 174.92 272.739 175.026C272.464 175.212 272.189 175.395 271.911 175.575C270.904 176.228 269.74 176.855 268.451 177.438C268.405 177.459 268.356 177.469 268.309 177.469M259.033 180.419C258.874 180.419 258.732 180.31 258.696 180.15C258.657 179.965 258.774 179.783 258.961 179.743C260.584 179.396 262.16 178.984 263.646 178.52C263.828 178.463 264.022 178.563 264.079 178.743C264.137 178.922 264.036 179.113 263.855 179.171C262.347 179.642 260.75 180.059 259.106 180.411C259.082 180.416 259.057 180.419 259.033 180.419M249.367 181.678C249.184 181.678 249.032 181.536 249.023 181.353C249.014 181.165 249.16 181.005 249.35 180.996C250.945 180.919 252.571 180.773 254.181 180.563C254.369 180.538 254.543 180.671 254.568 180.857C254.593 181.044 254.461 181.216 254.271 181.241C252.643 181.452 250.997 181.6 249.384 181.678C249.378 181.678 249.372 181.678 249.367 181.678" fill="#EE4136"/>
<path fill-rule="evenodd" clip-rule="evenodd" d="M290.769 61.8381L281.389 67.6326L364 45.1448L290.769 61.8381Z" fill="#EE4136"/>
<mask id="mask1_217_83479" style="mask-type:alpha" maskUnits="userSpaceOnUse" x="281" y="45" width="83" height="23">
<path fill-rule="evenodd" clip-rule="evenodd" d="M281.389 45.1448H364V67.634H281.389V45.1448Z" fill="white"/>
</mask>
<g mask="url(#mask1_217_83479)">
<path fill-rule="evenodd" clip-rule="evenodd" d="M290.769 61.8381L281.389 67.634L364 45.1448" fill="#880F07"/>
</g>
<path fill-rule="evenodd" clip-rule="evenodd" d="M290.768 61.8381L297.661 66.9105L363.999 45.1448L290.768 61.8381Z" fill="#EE4136"/>
<path fill-rule="evenodd" clip-rule="evenodd" d="M290.592 55.3398C288.137 55.2386 286.212 53.1487 286.313 50.6942L286.905 36.2821C287.006 33.8277 289.096 31.9026 291.551 32.0038L326.064 33.4216C328.519 33.5228 330.444 35.6127 330.342 38.0672L329.751 52.4793C329.649 54.9323 327.559 56.8587 325.105 56.7576L290.592 55.3398Z" fill="#D6DBE1"/>
<path fill-rule="evenodd" clip-rule="evenodd" d="M308.168 48.8289C308.064 48.8289 307.962 48.7984 307.873 48.7374L288.885 35.6322C288.648 35.4687 288.588 35.1458 288.751 34.9088C288.915 34.6718 289.239 34.6122 289.475 34.7758L308.193 47.6938L327.908 36.3557C328.157 36.2116 328.474 36.2975 328.617 36.5469C328.761 36.795 328.675 37.1138 328.426 37.2565L308.427 48.7596C308.347 48.8053 308.258 48.8289 308.168 48.8289" fill="#9BA7AB"/>
<path fill-rule="evenodd" clip-rule="evenodd" d="M327.484 53.9039C327.382 53.9039 327.278 53.8734 327.188 53.811L316.304 46.2467C316.069 46.0832 316.01 45.7589 316.174 45.5233C316.337 45.2877 316.662 45.2281 316.899 45.393L327.782 52.9559C328.018 53.1208 328.076 53.4451 327.913 53.6807C327.811 53.8263 327.649 53.9039 327.484 53.9039" fill="#9BA7AB"/>
<path fill-rule="evenodd" clip-rule="evenodd" d="M288.499 52.3024C288.319 52.3024 288.144 52.2095 288.049 52.0432C287.905 51.7937 287.989 51.4764 288.237 51.3322L299.706 44.6868C299.955 44.5413 300.273 44.6272 300.417 44.8753C300.561 45.1247 300.476 45.4421 300.228 45.5862L288.76 52.2317C288.678 52.2802 288.588 52.3024 288.499 52.3024" fill="#9BA7AB"/>
<mask id="mask2_217_83479" style="mask-type:alpha" maskUnits="userSpaceOnUse" x="297" y="45" width="68" height="22">
<path fill-rule="evenodd" clip-rule="evenodd" d="M297.663 45.1451H364.001V66.9109H297.663V45.1451Z" fill="white"/>
</mask>
<g mask="url(#mask2_217_83479)">
<path fill-rule="evenodd" clip-rule="evenodd" d="M364.001 45.1451L301.218 57.9787L297.663 66.9109L364.001 45.1451Z" fill="#407BFF"/>
</g>
<mask id="mask3_217_83479" style="mask-type:alpha" maskUnits="userSpaceOnUse" x="297" y="45" width="68" height="22">
<path fill-rule="evenodd" clip-rule="evenodd" d="M297.663 45.1451H364.001V66.9109H297.663V45.1451Z" fill="white"/>
</mask>
<g mask="url(#mask3_217_83479)">
<path fill-rule="evenodd" clip-rule="evenodd" d="M364.001 45.1451L301.218 57.9787L297.663 66.9109L364.001 45.1451Z" fill="#880F07"/>
</g>
<path fill-rule="evenodd" clip-rule="evenodd" d="M364.001 45.1451L301.218 57.9787L320.989 65.148L364.001 45.1451Z" fill="#EE4136"/>
</g>
</svg>
