<svg width="18" height="14" viewBox="0 0 18 14" fill="none" xmlns="http://www.w3.org/2000/svg">
<ellipse cx="10.5187" cy="3.44058" rx="2.99014" ry="3.07095" fill="#9C9696"/>
<path d="M4.19434 8.40125C3.28401 9.03591 2.65791 10.0533 2.65791 11.1998V13.2471H9.53674e-06V11.1998C9.53674e-06 9.71211 2.36039 8.67422 4.19434 8.40125Z" fill="#9C9696"/>
<path d="M6.5343 6.51153C4.88225 6.51153 3.54416 5.13728 3.54416 3.44058C3.54416 1.74388 4.88225 0.369629 6.5343 0.369629C6.88564 0.369629 7.50293 0.446403 7.81689 0.553886C6.88564 1.74078 6.5343 2.35039 6.5343 3.44058C6.5343 4.53077 7.07816 5.54329 7.81689 6.32727C7.50293 6.43476 6.88564 6.51153 6.5343 6.51153Z" fill="#9C9696"/>
<path fill-rule="evenodd" clip-rule="evenodd" d="M10.2901 7.8764C10.3671 7.8764 10.4433 7.87724 10.5187 7.87875C10.5942 7.87724 10.6703 7.8764 10.7474 7.8764C13.44 7.8764 15.4198 8.59978 16.5147 9.1339C17.1161 9.4278 17.4957 10.0757 17.4957 10.7881V13.3359H11.153H9.88446H3.54175V10.7881C3.54175 10.0757 3.92134 9.4278 4.52278 9.1339C5.6177 8.59978 7.59748 7.8764 10.2901 7.8764Z" fill="#9C9696"/>
</svg>
