<svg width="14" height="14" viewBox="0 0 14 14" fill="none" xmlns="http://www.w3.org/2000/svg">
<mask id="mask0_33_483" style="mask-type:alpha" maskUnits="userSpaceOnUse" x="0" y="0" width="15" height="14">
<path fill-rule="evenodd" clip-rule="evenodd" d="M0 0H14.0002V14H0V0Z" fill="white"/>
</mask>
<g mask="url(#mask0_33_483)">
<path fill-rule="evenodd" clip-rule="evenodd" d="M7.00011 -0.000244141C10.8663 -0.000244141 14.0006 3.1341 14.0006 7.00029C14.0006 10.8656 10.8663 13.9999 7.00011 13.9999C3.13391 13.9999 -0.000427246 10.8656 -0.000427246 7.00029C-0.000427246 3.1341 3.13391 -0.000244141 7.00011 -0.000244141" fill="#9C9696"/>
</g>
<path fill-rule="evenodd" clip-rule="evenodd" d="M7.79767 9.21524H8.41761C8.59524 9.21524 8.68406 9.21525 8.68406 9.48081V10.3672C8.68406 10.5137 8.56504 10.6328 8.41761 10.6328H5.58258C5.43603 10.6328 5.31702 10.5137 5.31702 10.3672V9.39288C5.31702 9.21524 5.40495 9.21524 5.58258 9.21524H6.1137V7.08897H5.6714C5.31702 7.08897 5.31702 7.08897 5.31702 6.73459V5.8482C5.31702 5.70166 5.43603 5.58264 5.58258 5.58264V5.58264H7.53211C7.67865 5.58264 7.79767 5.70166 7.79767 5.8482V5.8482V9.21524Z" fill="white"/>
<path fill-rule="evenodd" clip-rule="evenodd" d="M7.00016 4.78477H6.38022C6.23278 4.78477 6.11377 4.66576 6.11377 4.51921V4.51921V3.544C6.11377 3.39746 6.23278 3.27844 6.38022 3.27844H7.6201C7.70892 3.27844 7.79773 3.36726 7.79773 3.544V4.51921C7.79773 4.69596 7.70892 4.78477 7.6201 4.78477H7.00016Z" fill="white"/>
</svg>
