<svg width="27" height="16" viewBox="0 0 27 16" fill="none" xmlns="http://www.w3.org/2000/svg">
<ellipse cx="12.4445" cy="4.44447" rx="3.55556" ry="3.55556" fill="#9C9696"/>
<path d="M5.33331 10.6667C4.17577 11.3652 3.37965 12.485 3.37965 13.7468V16H-2.0504e-05V13.7468C-2.0504e-05 12.1094 3.00134 10.9671 5.33331 10.6667Z" fill="#9C9696"/>
<path d="M7.28795 8.00003C5.22582 8.00003 3.55558 6.40892 3.55558 4.44447C3.55558 2.48003 5.22582 0.888916 7.28795 0.888916C7.7265 0.888916 8.49702 0.977805 8.88892 1.10225C7.7265 2.47643 7.28795 3.18225 7.28795 4.44447C7.28795 5.70669 7.96681 6.879 8.88892 7.78669C8.49702 7.91114 7.7265 8.00003 7.28795 8.00003Z" fill="#9C9696"/>
<path d="M12.4451 9.78046L12.7067 9.77777C15.794 9.77777 18.0641 10.6022 19.3196 11.211C20.0092 11.5459 20.4445 12.2843 20.4445 13.0963V16H4.44446V13.0963C4.44446 12.2843 4.87971 11.5459 5.56934 11.211C6.8248 10.6022 9.09488 9.77777 12.1823 9.77777C12.2708 9.77777 12.3584 9.77873 12.4451 9.78046Z" fill="#9C9696"/>
<path d="M18.3945 3.58682C18.8388 4.90387 19.7603 6.11179 21.018 7.02331L22.3022 6.37853C22.4626 6.29818 22.6639 6.31098 22.823 6.39556C23.3383 6.67452 23.9112 6.89426 24.5222 7.0372C24.7945 7.10092 24.9716 7.33311 24.9202 7.55898L24.5957 8.98337C24.5442 9.20945 24.2846 9.33925 24.0122 9.27554C19.404 8.19746 16.3749 4.22671 17.2455 0.405269C17.297 0.179402 17.5591 0.0499656 17.829 0.113109L19.5467 0.51495C19.8191 0.57867 19.9962 0.810862 19.9447 1.03673C19.8293 1.54341 19.8157 2.05677 19.8934 2.55505C19.9154 2.70809 19.8395 2.85965 19.6791 2.94L18.3945 3.58682Z" fill="#9C9696"/>
</svg>
