<svg width="16" height="16" viewBox="0 0 16 16" fill="none" xmlns="http://www.w3.org/2000/svg">
<path fill-rule="evenodd" clip-rule="evenodd" d="M11.5936 1.66639L7.26003 5.99999C7.14963 6.11119 7.09363 6.22239 7.09363 6.38879V8.05519C7.09363 8.38879 7.31603 8.61119 7.64883 8.61119H9.31603C9.48243 8.61119 9.59363 8.55519 9.70483 8.44479L14.0376 4.11119L11.5936 1.66639ZM15.5384 1.83358L13.8712 0.166383C13.6488 -0.0552169 13.316 -0.0552169 13.0936 0.166383L12.0936 1.16638L14.5384 3.61118L15.5384 2.61118C15.76 2.38878 15.76 2.05518 15.5384 1.83358Z" fill="#9C9696"/>
<path fill-rule="evenodd" clip-rule="evenodd" d="M14.2224 6.2224V14.2224H1.76V1.7776H9.76V0H1.7776C0.8 0 0 0.8 0 1.7776V14.2224C0 15.2 0.8 16 1.7776 16H14.2224C15.2 16 16 15.2 16 14.2224V6.2224H14.2224Z" fill="#9C9696"/>
</svg>
