<svg width="26" height="16" viewBox="0 0 26 16" fill="none" xmlns="http://www.w3.org/2000/svg">
<ellipse cx="12.4445" cy="5.33333" rx="3.55556" ry="3.55556" fill="#9C9696"/>
<path d="M5.33331 10.6667C4.17577 11.3652 3.37965 12.485 3.37965 13.7468V16H-2.0504e-05V13.7468C-2.0504e-05 12.1094 3.00134 10.9671 5.33331 10.6667Z" fill="#9C9696"/>
<path d="M7.28795 8.88888C5.22582 8.88888 3.55558 7.29777 3.55558 5.33333C3.55558 3.36888 5.22582 1.77777 7.28795 1.77777C7.7265 1.77777 8.49702 1.86666 8.88892 1.9911C7.7265 3.36529 7.28795 4.0711 7.28795 5.33333C7.28795 6.59555 7.96681 7.76785 8.88892 8.67555C8.49702 8.79999 7.7265 8.88888 7.28795 8.88888Z" fill="#9C9696"/>
<path d="M12.4452 9.78046L12.7067 9.77777C15.794 9.77777 18.0641 10.6022 19.3196 11.211C20.0092 11.5459 20.4445 12.2843 20.4445 13.0963V16H4.44446V13.0963C4.44446 12.2843 4.87971 11.5459 5.56934 11.211C6.8248 10.6022 9.09488 9.77777 12.1823 9.77777C12.2709 9.77777 12.3584 9.77873 12.4452 9.78046Z" fill="#9C9696"/>
<path d="M23.8023 1.74362V0.444357C23.8023 0.199829 23.5803 0 23.3089 0H17.3826C17.1112 0 16.8889 0.199829 16.8889 0.444357V4.88871C16.8889 5.13324 17.1112 5.33333 17.3826 5.33333H23.3089C23.5803 5.33333 23.8023 5.13324 23.8023 4.88871V3.85094L25.7778 5.11089V0.221915L23.8023 1.74362Z" fill="#9C9696"/>
</svg>
