<svg width="150" height="130" viewBox="0 0 150 130" fill="none" xmlns="http://www.w3.org/2000/svg">
<path d="M27 73.25L38.494 26.64C38.804 25.383 39.93 24.5 41.224 24.5H108.774C110.068 24.5 111.195 25.383 111.504 26.64L123 73.25C123 74.907 121.657 76.25 120 76.25H30C28.343 76.25 27 74.907 27 73.25Z" fill="#D6DBE1"/>
<path d="M111.506 26.64C111.196 25.383 110.07 24.5 108.776 24.5H75V76.25H120C121.657 76.25 123 74.907 123 73.25L111.506 26.64Z" fill="#9C9696"/>
<path d="M93.751 41.375H56.251C54.698 41.375 53.438 40.115 53.438 38.562V19.813C53.438 18.26 54.698 17 56.251 17H93.751C95.303 17 96.563 18.26 96.563 19.813V38.563C96.563 40.115 95.304 41.375 93.751 41.375Z" fill="#737070"/>
<path d="M93.751 17H75.001V41.375H93.751C95.303 41.375 96.563 40.115 96.563 38.562V19.813C96.563 18.26 95.304 17 93.751 17Z" fill="#554D4D"/>
<path d="M99.376 60.125H50.626C49.073 60.125 47.813 58.865 47.813 57.312V38.562C47.813 37.01 49.073 35.75 50.626 35.75H99.376C100.928 35.75 102.188 37.01 102.188 38.563V57.313C102.188 58.865 100.929 60.125 99.376 60.125Z" fill="#9C9696"/>
<path d="M99.376 35.75H74.999V60.125H99.375C100.927 60.125 102.187 58.865 102.187 57.312V38.562C102.187 37.01 100.927 35.75 99.374 35.75H99.376Z" fill="#737070"/>
<path d="M105.001 101.375H45.001C43.448 101.375 42.188 100.115 42.188 98.562V57.312C42.188 55.76 43.448 54.5 45.001 54.5H105.001C106.553 54.5 107.813 55.76 107.813 57.313V98.563C107.813 100.115 106.554 101.375 105.001 101.375Z" fill="#F2F2F2"/>
<path d="M105.001 54.5H75.001V101.375H105.001C106.553 101.375 107.813 100.115 107.813 98.562V57.312C107.813 55.76 106.554 54.5 105.001 54.5Z" fill="#D6DBE1"/>
<path d="M120.188 113H29.811C28.26 113 27 111.74 27 110.187V73.25H58.125C59.336 73.25 60.411 74.024 60.793 75.174L63.902 84.5H86.098L89.207 75.174C89.589 74.024 90.664 73.25 91.875 73.25H123V110.188C123 111.74 121.74 113 120.187 113H120.188Z" fill="#D6DBE1"/>
<path d="M123 73.25H91.875C90.664 73.25 89.589 74.024 89.207 75.174L86.098 84.5H75V113H120.188C121.74 113 123 111.74 123 110.187V73.25Z" fill="#9C9696"/>
<path d="M88.125 101.375H61.875C60.322 101.375 59.062 100.115 59.062 98.562C59.062 97.01 60.322 95.75 61.875 95.75H88.125C89.678 95.75 90.938 97.01 90.938 98.563C90.938 100.115 89.678 101.375 88.125 101.375Z" fill="#9C9696"/>
<path d="M88.125 95.75H75V101.375H88.125C89.678 101.375 90.938 100.115 90.938 98.562C90.938 97.01 89.678 95.75 88.125 95.75Z" fill="#737070"/>
</svg>
