<svg xmlns="http://www.w3.org/2000/svg" width="487" height="288" viewBox="0 0 487 288">
    <g fill="none" fill-rule="evenodd" transform="translate(0 1)">
        <path fill="#9BA7AB" fill-rule="nonzero" d="M197.253 285.8h-2.888a2.392 2.392 0 0 1-2.392-2.392v-8.166h5.28l2.121 7.78a2.2 2.2 0 0 1-2.121 2.778z"/>
        <rect width="340.753" height="129.582" x="38.155" y="89.747" fill="#F2F2F2" fill-rule="nonzero" rx="13.224"/>
        <rect width="461.696" height="251.005" x="1.2" stroke="#9BA7AB" rx="13.638"/>
        <path stroke="#9BA7AB" d="M0 17.536h461.696M0 47.993h461.696"/>
        <circle cx="11.758" cy="10.559" r="4.799" fill="#F8DEDC" fill-rule="nonzero"/>
        <circle cx="26.636" cy="10.559" r="4.799" fill="#F8DEDC" fill-rule="nonzero"/>
        <circle cx="41.514" cy="10.559" r="4.799" fill="#F8DEDC" fill-rule="nonzero"/>
        <circle cx="13.198" cy="8.639" r="4.799" stroke="#9BA7AB"/>
        <circle cx="28.076" cy="8.639" r="4.799" stroke="#9BA7AB"/>
        <circle cx="42.954" cy="8.639" r="4.799" stroke="#9BA7AB"/>
        <circle cx="107.985" cy="35.275" r="9.599" fill="#F2F2F2" fill-rule="nonzero"/>
        <circle cx="110.385" cy="32.875" r="9.599" stroke="#9BA7AB"/>
        <rect width="47.513" height="12.958" x="242.366" y="30.236" fill="#F8DEDC" fill-rule="nonzero" rx="5.423"/>
        <rect width="47.513" height="12.958" x="310.037" y="30.236" fill="#F8DEDC" fill-rule="nonzero" rx="5.423"/>
        <rect width="47.513" height="12.958" x="245.726" y="26.396" stroke="#9BA7AB" rx="4.222"/>
        <rect width="47.513" height="12.958" x="313.396" y="26.396" stroke="#9BA7AB" rx="4.222"/>
        <rect width="340.753" height="129.582" x="55.432" y="79.189" stroke="#9BA7AB" rx="16.004"/>
        <path stroke="#9BA7AB" d="M216.883 174.98a32.73 32.73 0 1 0-37.686-52.883m15.656 14.886v-5.573l19.639 14.73-4.521 3.12"/>
        <path fill="#D2DADD" fill-rule="nonzero" d="M196.6 116.768c-18.077 0-32.732 14.654-32.732 32.731s14.655 32.732 32.732 32.732c18.077 0 32.731-14.655 32.731-32.732-.008-18.073-14.658-32.723-32.731-32.731zm-6.546 47.46V134.77l19.638 14.73-19.638 14.728zM183.862 206.47s-5.879 20.447-6.134 29.393c-.256 8.946-1.278 23.26-.512 26.838.767 3.579 3.068 10.736 3.068 10.736s4.856-5.88 6.645-2.556c0 0-.255-6.902-1.533-8.946 0 0 .51-10.736.51-14.57 0-3.834 6.39-21.47 6.902-21.726.511-.255 2.045 4.857.767 16.103-1.278 11.246-2.3 30.933-2.3 32.978 0 2.045 3.067 6.134 5.111 4.856 2.045-1.278 3.323-12.274 3.323-12.274s1.79-23.004 2.812-25.56c1.022-2.556 6.39-31.95 2.3-34.25-4.09-2.3-20.959-1.023-20.959-1.023z"/>
        <path fill="#9BA7AB" fill-rule="nonzero" d="M188.207 272.925c-.255 1.023-1.278 5.88-1.278 7.413 0 1.533 1.023 4.345-3.323 5.367-4.232.997-3.614-1.646-4.289-3.2-.017-.04-.035-.082-.056-.122-.767-1.534 1.023-9.458 1.278-9.458.15 0 1.36-2.029 2.331-3.703a2.718 2.718 0 0 1 4.219-.638 4.172 4.172 0 0 1 1.27 3.012c.007.448-.044.895-.152 1.33z"/>
        <path fill="#9BA7AB" fill-rule="nonzero" d="M188.207 272.925c-.255 1.023-1.278 5.88-1.278 7.413 0 1.533 1.023 4.345-3.323 5.367-4.232.997-3.614-1.646-4.289-3.2.734-1.907 2.516-6.004 3.778-9.58 1.115-3.159 3.855-2.129 5.263-1.329.008.448-.043.895-.15 1.33z" opacity=".1"/>
        <circle cx="195.62" cy="161.483" r="5.368" fill="#FBBEBE" fill-rule="nonzero"/>
        <path fill="#F3E3CD" fill-rule="nonzero" d="M191.274 162.506l-.766 8.435 9.201 1.533s-1.022-7.412-.255-8.946c.766-1.533-8.18-1.022-8.18-1.022z"/>
        <path fill="#E29283" fill-rule="nonzero" d="M198.431 169.151s-7.668-.766-8.179 0a4.392 4.392 0 0 0-.511 2.045s-3.067 1.278-3.579.767c-.51-.511-1.022-2.045-2.556-1.534-1.533.512-4.6 9.713-4.6 9.713s.766-2.811 2.044 7.924 1.023 17.38 1.278 18.148c.256.766-1.278 5.367 7.924 5.367s15.847-.511 15.847-2.3c0-1.79-1.533-9.457 0-15.08 1.534-5.624 3.834-13.292 3.834-13.292l-3.067-9.968s-3.067-.767-3.834.51c-.767 1.279-2.812 1.023-2.812 1.023s-.255-3.067-1.789-3.323z"/>
        <path fill="#E29283" fill-rule="nonzero" d="M183.862 170.94l-6.39-2.81s-12.013-9.203-11.502-17.382c0 0-4.09-3.834-4.345.256-.256 4.09 1.022 13.291 4.09 16.358 3.067 3.067 13.546 12.78 15.08 13.036 1.533.255 3.067-9.457 3.067-9.457z"/>
        <path fill="#F3E3CD" fill-rule="nonzero" d="M162.136 151.515s-4.856-13.291-.511-12.78c4.345.511 3.323 6.134 3.323 6.134v6.646h-2.812z"/>
        <path fill="#E29283" fill-rule="nonzero" d="M205.844 171.452l6.39-2.812s12.013-9.201 11.502-17.38c0 0 4.09-3.835 4.345.255.256 4.09-1.022 13.291-4.09 16.358-3.067 3.068-13.547 12.78-15.08 13.036-1.534.256-3.067-9.457-3.067-9.457z"/>
        <path fill="#F3E3CD" fill-rule="nonzero" d="M227.57 152.026s4.856-13.291.51-12.78c-4.344.511-3.322 6.135-3.322 6.135v6.645h2.812z"/>
        <path fill="#9BA7AB" fill-rule="nonzero" d="M199.71 155.093l.766-.51s-4.856-2.812-6.901-1.279c-2.045 1.534-2.556 2.812-3.067 3.323-.512.511-1.79 3.323-1.023 4.345.767 1.023.511 1.232 1.023 2.15.51.917-.893 4.609 3.004 5.703 3.897 1.093 6.964-3.508 7.475-4.53.511-1.022 2.3-7.924-1.278-9.202z"/>
        <path fill="#D2DADD" fill-rule="nonzero" d="M396.023 227.34c0 28.297 17.752 51.195 39.69 51.195"/>
        <path fill="#F3E3CD" fill-rule="nonzero" d="M435.713 278.535c0-28.615 19.81-51.77 44.292-51.77"/>
        <path fill="#F8DEDC" fill-rule="nonzero" d="M410.404 229.905c0 26.88 11.32 48.63 25.31 48.63"/>
        <path fill="#D2DADD" fill-rule="nonzero" d="M435.713 278.535c0-36.564 22.898-66.15 51.195-66.15"/>
        <path fill="#9BA7AB" fill-rule="nonzero" d="M427.363 278.896s5.63-.174 7.326-1.382c1.696-1.208 8.658-2.65 9.079-.713.42 1.937 8.459 9.635 2.104 9.687-6.355.05-14.766-.99-16.459-2.022-1.693-1.03-2.05-5.57-2.05-5.57z"/>
        <path fill="#000" fill-rule="nonzero" d="M445.985 285.813c-6.355.052-14.765-.99-16.459-2.02-1.289-.786-1.803-3.605-1.975-4.905l-.188.008s.357 4.54 2.05 5.57c1.693 1.032 10.104 2.073 16.459 2.022 1.834-.015 2.468-.668 2.433-1.634-.255.584-.954.948-2.32.96z" opacity=".2"/>
        <path stroke="#9BA7AB" d="M131.982 285.8h113.744M420.847 286.03h35.515"/>
    </g>
</svg>
