<svg xmlns="http://www.w3.org/2000/svg" width="448" height="301" viewBox="0 0 448 301">
    <defs>
        <linearGradient id="prefix__a" x1="50%" x2="50%" y1="100.001%" y2="-.005%">
            <stop offset="0%" stop-color="gray" stop-opacity=".25"/>
            <stop offset="54%" stop-color="gray" stop-opacity=".12"/>
            <stop offset="100%" stop-color="gray" stop-opacity=".1"/>
        </linearGradient>
    </defs>
    <g fill="none" fill-rule="evenodd" transform="translate(1 1)">
        <ellipse cx="300.331" cy="295.946" fill="#E1E5E5" fill-rule="nonzero" opacity=".496" rx="55.253" ry="3.891"/>
        <path fill="#F4F5F5" fill-rule="nonzero" stroke="#979797" stroke-width=".5" d="M445.798 176.693c-.019 30.536-13.418 59.53-36.662 79.334-23.245 19.803-54 28.425-84.151 23.592H159.728c-6.383.876-12.818 1.315-19.261 1.315-4.625 0-9.195-.22-13.708-.662C54.799 273.286-.074 212.766 0 140.467 0 62.887 62.891 0 140.467 0c62.479 0 115.42 40.794 133.665 97.198 18.82-16.011 42.734-24.786 67.444-24.747 57.552 0 104.222 46.67 104.222 104.242z"/>
        <path fill="#E2E5E6" fill-rule="nonzero" stroke="#979797" stroke-width=".5" d="M405.755 258.821c-22.865 17.853-52.127 25.388-80.77 20.798H159.728c-6.383.876-12.818 1.315-19.261 1.315-4.625 0-9.195-.22-13.708-.662-55.942-5.486-103.233-43.78-120.234-97.358 13.456-28.75 48.024-49.21 88.553-49.21 39.494 0 73.346 19.432 87.475 47.031 6.957-1.265 14.014-1.899 21.085-1.895 40.934 0 75.786 20.884 88.946 50.067 10.9-3.304 22.232-4.971 33.622-4.946 33.386.016 62.728 13.895 79.549 34.86z"/>
        <path fill="#D2DADD" fill-rule="nonzero" stroke="#979797" stroke-width=".5" d="M136.848 261.957c0 9.97-3.825 15.382-10.09 18.315-23.597-2.278-46.226-10.524-65.758-23.96.5-3.39 1.46-6.695 2.852-9.826l17.817 5.541-15.867-9.338c2.146-3.664 4.887-6.943 8.112-9.705l29.934 9.308-23.451-13.774c9.773-5.356 21.399-6.168 31.821-2.224 10.423 3.944 18.599 12.25 22.377 22.733l.082.234c.062.175.125.35.183.529.21.62.403 1.246.58 1.88.066.225.128.45.183.68.054.23.112.436.163.654.05.218.093.389.132.568.028.117.055.233.078.35.043.187.082.39.117.564.054.273.109.549.156.821.046.273.097.568.14.853.042.284.093.63.132.949.039.319.07.568.097.852 0 .09.02.175.027.265.028.249.047.498.067.747.002.032.002.065 0 .097.023.311.042.623.058.934.016.311.027.615.035.91.002.03.002.06 0 .09.02.311.023.63.023.953z"/>
        <path fill="#B6C0C4" fill-rule="nonzero" stroke="#979797" stroke-width=".5" d="M136.848 261.957c0 9.97-3.825 15.382-10.09 18.315-15.26-1.47-30.173-5.445-44.14-11.766l.639-.424c2.883-1.91 5.864-3.864 9.257-4.514 2.984-.572 6.062-.09 9.093-.26 5.277-.324 10.244-2.6 13.934-6.386 2.167-2.241 3.891-4.992 6.479-6.704 2.809-1.844 6.373-2.241 9.704-1.782.967.14 1.926.337 2.871.587l.082.234c.062.175.125.35.183.529.21.62.403 1.246.58 1.88.066.225.128.45.183.68.054.23.112.436.163.654.05.218.093.39.132.568.028.117.055.234.078.35.043.187.082.39.117.564.054.273.109.55.156.822.046.272.097.568.14.852.042.284.093.63.132.95.039.318.07.567.097.851 0 .09.02.175.027.265.028.249.047.498.067.747.002.032.002.065 0 .097.023.311.042.623.058.934.016.311.027.615.035.91.002.03.002.06 0 .09.02.315.023.634.023.957z"/>
        <path fill="#9BA7AB" fill-rule="nonzero" d="M364.008 268.428c.003 1.015-.102 2.027-.311 3.02-.04.186-.082.37-.125.548-1.105 4.432-4.222 7.673-7.942 7.88h-.389c-3.934 0-7.26-3.394-8.358-8.067-.03-.124-.058-.249-.085-.389-.21-.992-.314-2.005-.312-3.02 0-6.33 3.919-11.458 8.755-11.458 4.837 0 8.767 5.155 8.767 11.486z"/>
        <path fill="#000" fill-rule="nonzero" d="M364.008 268.428c.003 1.015-.102 2.027-.311 3.02-.04.186-.082.37-.125.548h-.389c-.964-.052-1.921-.182-2.864-.389-.835.258-1.688.453-2.552.584-.663.1-1.33.162-2 .186h-.677c-.802 0-1.603-.053-2.397-.16-1.285-.17-2.547-.484-3.763-.933-.666.222-1.344.404-2.031.545-.031-.125-.058-.25-.086-.39-.21-.992-.314-2.004-.311-3.019 0-6.33 3.918-11.459 8.755-11.459 4.836 0 8.75 5.136 8.75 11.467z" opacity=".1"/>
        <path fill="#D2DADD" fill-rule="nonzero" stroke="#979797" stroke-width=".5" d="M382.685 247.082c.004-2.786-.65-5.534-1.907-8.02l-10.295 3.203 9.038-5.312c-3.07-4.437-7.987-7.24-13.37-7.622-.422-.642-.886-1.255-1.388-1.837l-14.786 4.603 12.128-7.132c-4.712-3.616-10.917-4.643-16.542-2.737-5.626 1.905-9.93 6.492-11.473 12.227l12.665 14.58-13.74-9.938c-7.193 5.102-9.565 14.703-5.576 22.568 3.99 7.865 13.137 11.623 21.503 8.833 3.661 1.346 7.662 1.457 11.393.315 5.267 1.153 10.773-.141 14.974-3.52 4.201-3.38 6.646-8.48 6.648-13.873 0-.389 0-.778-.039-1.167.51-1.677.768-3.42.767-5.171z"/>
        <path fill="#B6C0C4" fill-rule="nonzero" stroke="#979797" stroke-width=".5" d="M382.378 250.381c-5.438-1.03-11.013-1.101-16.475-.21-6.183 1.024-12.502 3.273-18.549 1.63-3.548-.964-6.615-3.198-10.082-4.44-3.345-1.166-6.948-1.382-10.408-.622-2.693 6.443-1.372 13.865 3.38 18.982 4.75 5.117 12.054 6.985 18.678 4.777 3.662 1.346 7.663 1.457 11.393.315 5.27 1.16 10.782-.131 14.988-3.512 4.206-3.38 6.653-8.485 6.654-13.88 0-.39 0-.779-.039-1.168.188-.615.34-1.24.46-1.872z"/>
        <path stroke="#9BA7AB" stroke-width="3" d="M157.424 25.833c-.906-.526-2.132-.024-2.755.82-.622.845-.778 1.946-.953 2.97-.346 2.3-.6 4.941.953 6.677-2.537-7.693-9.832-13.588-17.898-14.448M314.634 152.778c-.583-.338-1.37 0-1.77.53-.355.576-.566 1.23-.615 1.906-.222 1.482-.389 3.179.615 4.28-1.744-5.038-6.206-8.643-11.498-9.288M116.385 102.475c-.583-.335-1.37 0-1.77.529-.356.578-.567 1.233-.615 1.91-.222 1.479-.389 3.175.615 4.28-1.745-5.037-6.207-8.64-11.498-9.287" opacity=".301"/>
        <path fill="#D2DADD" fill-rule="nonzero" stroke="#979797" stroke-width=".5" d="M118.286 120.857H301.55600000000004V230.743H118.286z"/>
        <circle cx="125.119" cy="125.235" r="1.901" fill="#FFF" fill-rule="nonzero"/>
        <circle cx="131.963" cy="125.235" r="1.901" fill="#FFF" fill-rule="nonzero"/>
        <circle cx="138.807" cy="125.235" r="1.901" fill="#FFF" fill-rule="nonzero"/>
        <path fill="#9BA7AB" fill-rule="nonzero" d="M118.048 129.487H301.16499999999996V130.54H118.048z" opacity=".66"/>
        <path fill="url(#prefix__a)" fill-rule="nonzero" d="M271.148 284.424c.389.736 1.12 1.187 1.825 1.588 4.893 2.805 10.049 5.126 15.393 6.93.27.156.596.181.886.068.29-.112.514-.351.608-.648.615-1.035 1.288-2.724 1.128-4.09.506-.306.873-.797 1.024-1.37.21-.694.531-1.351.95-1.945.727-1.097 1.606-2.198 1.723-3.533-.01-.476.036-.951.136-1.416.206-.615.755-1.02 1.167-1.51.642-.778.95-1.782 1.242-2.759 1.214-4.058 2.428-8.116 3.44-12.237.326-1.335.63-2.673 1.077-3.969.39-1.136.887-2.226 1.381-3.315 1.768-3.949 3.824-7.762 6.152-11.409.364 1.225.805 2.426 1.32 3.596.264.603.548 1.198.816 1.801 1.016 2.273.833 5.19 2.082 7.327.519.877 1.03 1.752 1.533 2.627.286.428.507.896.658 1.389.082.342.09.7.148 1.046.264 1.557 1.529 2.654 2.23 4.043.641 1.269.777 2.724 1.167 4.12.922 3.23 3.186 6.036 3.416 9.402.029.908.007 1.817-.066 2.723-.058 1.587.047 3.175.315 4.74.021.157.063.312.124.459-1.993 2.966-5.063 5.04-8.56 5.782-.661.132-1.42.272-1.766.88-.417.723.054 1.719.778 2.108.724.39 1.556.35 2.334.28 5.583-.467 11.105-1.486 16.487-3.043.272-.056.52-.191.716-.389.191-.284.276-.628.237-.968-.003-1.258-.296-2.497-.856-3.623l.39-.136c.217-1.557-.584-3.062-1.207-4.506-1.082-2.518-1.673-5.237-2.53-7.856-1.649-5.058-4.314-9.778-4.956-15.07-.176-1.455-.611-2.934-.705-4.397-.186-2.98-.389-5.977-1.039-8.88-.544-2.389-1.404-4.669-1.945-7.085-.541-2.416-.716-4.957.078-7.268.225-.662.529-1.288.735-1.946.778-2.572.035-5.358-.72-7.942-.238-.817-.474-1.631-.708-2.443-.315-1.07-.626-2.144-.969-3.206.047-.043.09-.086.136-.137.685-.778.677-1.969 1.168-2.898.24-.48.607-.872.864-1.339.485-1.01.61-2.155.354-3.245-.207-1.09-.62-2.125-.93-3.187-.846-2.915-.91-6.001-.187-8.95.315-1.256.778-2.49.844-3.785.023-.867-.057-1.732-.237-2.58-.603-3.269-1.786-6.584-4.187-8.743-1.28-1.168-3.012-2.19-3.148-3.965-.206-.08-.434-.088-.646-.024-.11-.403-.182-.816-.218-1.233h.02c.119.013.239.013.358 0 .1-.007.199-.034.288-.082.05-.03.097-.065.14-.105.151-.155.282-.329.389-.517.16-.265.303-.549.424-.744.12-.194.315-.505.467-.778.454-.778.876-1.57 1.265-2.373v-.031c.039-.074.074-.152.109-.226l.046-.105.07-.16c0-.039.035-.081.05-.12.016-.04.044-.098.063-.148l.055-.129c.02-.046.035-.093.054-.144.02-.043.036-.087.05-.132.02-.047.036-.093.051-.14.016-.047.031-.09.05-.136.02-.047.028-.093.044-.14l.046-.14c0-.047.024-.09.04-.136l.038-.144.035-.137.035-.147c0-.043 0-.086.027-.133.028-.046 0-.1.028-.152.027-.05 0-.085 0-.128l.023-.152v-.128-.156-.128-.246-.159-.117-.163-.109c-.019-.152-.048-.303-.09-.451-.262-.907-.794-1.711-1.525-2.308-.707-.577-1.493-1.05-2.334-1.404-.205-.08-.393-.197-.553-.347-.187-.272-.342-.564-.463-.871-.342-.6-1.027-.868-1.67-1.027-.641-.16-1.33-.261-1.867-.67-.048-.041-.103-.073-.163-.093-.083-.007-.165.01-.238.05l-1.498.666c-.03-.188-.135-.356-.29-.466-.155-.11-.347-.154-.535-.122-.369.09-.705.283-.969.557-.093-.094-.127-.232-.089-.358l-1.167.778c-.144.093-.409.117-.39-.062-.649.709-1.212 1.493-1.676 2.334-.146.258-.268.527-.366.806 0 .058-.035.117-.05.175-.003.011-.003.023 0 .035 0 .05-.024.105-.032.16-.002.015-.002.03 0 .046v.202c-.004.076-.004.151 0 .226.025.44.281.834.673 1.035.15.056.308.08.467.074.335-.04.665-.107.988-.202.105-.026.212-.044.32-.055.05-.004.1-.004.151 0 .204-.004.402.063.56.19l.024.024c-1.725 1.241-2.74 3.242-2.724 5.366-.001 1.03.233 2.047.685 2.973-.317.175-.506.517-.486.88-.102-.3-.156-.612-.16-.927-.638-.128-1.101.619-1.33 1.26-.473 1.452-.838 2.936-1.094 4.44-.198 1-.39 2-.591 3-.203 1-.39 2.074-.537 3.113-.344 2.698-.222 5.434.361 8.09-.038.085-.074.175-.109.26-.116.312-.447.576-.486.907-.21 1.98 1.043 3.767 2.226 5.32.097.158.23.291.389.388.173.072.363.096.549.07.471-.023.941-.07 1.408-.14.027.265.058.526.09.779.334 2.793.906 5.587.902 8.4-.004 2.814-.537 5.666.541 8.171.18.429.525.779.56 1.222h.067c-.66 1.343-1.198 2.742-1.611 4.18-.428 1.688-.518 3.462-.996 5.135-.409 1.42-1.09 2.724-1.639 4.11-.893 2.25-1.418 4.629-1.556 7.046-.015 1.11-.24 2.207-.661 3.234-.63 1.23-1.18 2.5-1.65 3.801-.778 2.311-2.09 4.502-2.335 6.95-.136 1.385.062 2.863-.517 4.116-.226.49-.56.915-.825 1.378-.387.742-.688 1.525-.9 2.334l-3.851 12.775c-.146.702-.47 1.354-.942 1.895-.358.342-.829.529-1.167.883-.545.552-.681 1.362-.685 2.187-.413.074-.813.205-1.19.389-3.293 1.406-7.016 1.406-10.308 0-.623-.269-1.33-.588-1.946-.28-.72.373-.836 1.459-.447 2.194zm30.689-96.763c.23-1.057.664-2.06 1.276-2.953.872-1.436 1.79-2.856 2.622-4.323l.238-.23c.066.187.128.39.187.565.144.499.26 1.005.346 1.517.123.641.16 1.295.109 1.946l-.055.043c-.314.202-.568.486-.735.82-.11.334-.11.694 0 1.028l-.035.039.039-.027c.136.537.389 1.09.307 1.634-.09.657-.618 1.136-.95 1.7-.777 1.358-.528 3.42-1.808 4.253l-.024.055c-.557-.132-1.02-.514-1.257-1.035.102-1.662-.521-3.366-.26-5.032z"/>
        <path fill="#637277" fill-rule="nonzero" d="M333.759 292.805c.041.338-.047.678-.245.954-.208.198-.467.332-.747.389-5.619 1.538-11.369 2.543-17.175 3.004-.833.062-1.713.109-2.448-.277-.735-.385-1.226-1.37-.778-2.081.362-.6 1.167-.74 1.84-.868 3.644-.71 6.873-2.802 9.012-5.837.256-.434.588-.82.98-1.136.748-.51 1.74-.389 2.623-.214 1.557.32 3.623.697 5.027 1.46 1.405.762 1.887 3.116 1.91 4.606zM288.54 292.428c-.15.305-.41.544-.727.67-.28.046-.567.013-.828-.098-5.55-1.771-10.92-4.06-16.04-6.837-.73-.389-1.494-.84-1.902-1.556-.409-.716-.284-1.817.467-2.179.63-.303 1.37 0 2.015.276 3.445 1.39 7.295 1.39 10.74 0 .451-.226.94-.369 1.443-.42.9-.02 1.673.615 2.335 1.25 1.136 1.116 2.657 2.56 3.42 3.96.763 1.4-.132 3.67-.922 4.934z"/>
        <path fill="#9BA7AB" fill-rule="nonzero" stroke="#737070" stroke-width=".5" d="M318.173 217.666c-1.232.129-2.545.074-3.845.02-.932-.038-1.858-.076-2.744-.049-2.192.068-4.497.582-6.066 2.11-.95.927-1.547 2.145-2.124 3.339-.692 1.332-1.262 2.733-1.7 4.176-.215.79-.348 1.595-.482 2.4-.148.895-.296 1.79-.56 2.658-.279.923-.683 1.797-1.088 2.672-.208.45-.416.901-.608 1.359-.938 2.236-1.492 4.614-1.638 7.046-.014 1.06-.24 2.107-.663 3.08-.657 1.22-1.235 2.481-1.729 3.776-.267.742-.59 1.466-.91 2.191-.682 1.534-1.36 3.07-1.533 4.725-.046.426-.058.86-.07 1.295-.024.929-.04 1.857-.443 2.683-.139.282-.317.54-.495.8-.122.177-.244.355-.355.539-.416.757-.738 1.55-.964 2.374-1.32 4.172-2.646 8.354-3.98 12.556-.145.651-.46 1.253-.911 1.743-.165.146-.354.261-.542.377-.24.148-.48.298-.683.494-.744.715-.824 1.842-.855 3.143-.204.14-.36.344-.44.584-.11.339-.056.71.147 1.004.465.676.997 1.304 1.588 1.874.67.589 1.378 1.115 2.123 1.584.294.206.602.39.955.55.672.296 1.436.287 2.098-.023.662-.31 1.158-.892 1.359-1.596.208-.666.53-1.299.949-1.865.115-.166.228-.326.342-.485.696-.976 1.393-1.974 1.504-3.171-.01-.443.034-.885.13-1.317.146-.394.457-.686.76-.983.138-.135.275-.27.401-.412.69-.807 1.03-1.817 1.344-2.815l.414-1.321c1.116-3.559 2.237-7.132 3.173-10.753l.186-.715c.276-1.07.552-2.139.931-3.177.42-1.103.897-2.188 1.429-3.246 1.774-3.743 3.818-7.347 6.117-10.787.351 1.05.76 2.082 1.226 3.088.157.345.323.68.488 1.015.124.252.248.504.369.76.47 1 .686 2.13.904 3.26.272 1.411.55 2.82 1.277 3.995l1.59 2.609c.283.4.505.84.658 1.304.044.187.066.385.147 1.01.188.999.793 1.824 1.412 2.652.34.455.683.913.947 1.407.458.856.678 1.807.9 2.755.1.423.2.845.318 1.259.39 1.3 1.008 2.53 1.625 3.753.89 1.767 1.783 3.521 1.922 5.472.03.874.008 1.758-.066 2.649-.067 1.575.037 3.153.312 4.705.01.249.093.482.232.675.14.194.335.347.568.435 3.038 1.562 6.61 1.585 10 .243.202-1.387-.408-2.724-1.015-4.018-.088-.19-.177-.378-.262-.565-.734-1.613-1.249-3.308-1.764-5.003-.278-.912-.555-1.823-.865-2.722-.58-1.676-1.278-3.317-1.976-4.957-1.367-3.213-2.734-6.418-3.176-9.861-.08-.618-.209-1.239-.338-1.861-.17-.821-.34-1.645-.396-2.463-.195-2.936-.396-5.923-1.088-8.8-.28-1.173-.64-2.32-1-3.466-.368-1.172-.736-2.343-1.015-3.537-.542-2.314-.736-4.797.073-7.033.104-.28.221-.552.337-.823.16-.375.319-.746.444-1.13.82-2.59.044-5.388-.75-7.987l-.798-2.6c-.472-1.5-.944-2.998-1.762-4.657z"/>
        <path fill="#EEDBC2" fill-rule="nonzero" d="M305.136 187.61c2.74-1.618 5.449-3.288 8.129-5.01-.642-.865-.997-1.909-1.016-2.985v-.129c-.039-1.046.358-1.945-.961-1.809-1.267.163-2.52.424-3.747.778-.35.09-3.385 1.206-3.502 1.094.677.802 1.176 1.738 1.467 2.747.15.492.27.992.362 1.498.264 1.338.276 2.91-.732 3.817z"/>
        <path fill="#E09285" fill-rule="nonzero" stroke="#B77064" stroke-width=".5" d="M305.81 185.55c-.367.218-.667.532-.877.93-.212.507-.064 1.043.113 1.593.117.364.246.734.193 1.102-.058.4-.319.72-.57 1.047-.135.176-.27.353-.384.539-.338.552-.503 1.219-.66 1.877-.212.884-.396 1.77-1.239 2.335-.124.256-.24.52-.344.8-.485 1.382-.809 2.81-.967 4.262-.189 1.854-.143 3.722.137 5.563.1.793.223 1.592.345 2.391.298 1.948.597 3.899.594 5.855-.001.684-.036 1.371-.07 2.056-.108 2.123-.207 4.217.922 6.586.134.208.275.409.503.885 1.354.233 2.682-.25 3.983-.738.234-.088.467-.175.7-.257 1.34-.47 2.731-.782 4.144-.929.392-.04.789-.066 1.186-.093.79-.053 1.584-.108 2.36-.256 1.2-.188 2.317-.758 3.178-1.626.453-.495.641-1.122.823-1.759.114-.398.226-.798.421-1.158.129-.239.292-.453.454-.669.157-.208.314-.417.452-.656.53-1.043.666-2.24.386-3.376-.271-1.07-.596-2.124-.973-3.16-.869-2.82-.935-5.828-.191-8.686.088-.333.187-.666.285-.999.273-.918.544-1.836.602-2.788.024-.884-.06-1.759-.25-2.614-.64-3.272-1.905-6.594-4.445-8.758-.262-.224-.542-.444-.825-.665-1.095-.858-2.26-1.73-2.526-3.269-.59-.231-1.18.004-7.46 4.635z"/>
        <path fill="#000" fill-rule="nonzero" d="M304.055 179.556c.676.803 1.176 1.739 1.466 2.748.442.098.894.148 1.347.147 2.264 0 3.782-2.595 4.906-4.377-.035-1.047.833-.525-.486-.39-1.267.164-2.52.424-3.747.779-.35.09-3.385 1.206-3.486 1.093z" opacity=".1"/>
        <circle cx="306.868" cy="175.553" r="6.366" fill="#EEDBC2" fill-rule="nonzero" stroke="#DBC8AF" stroke-width=".5"/>
        <path fill="#3F3D56" fill-rule="nonzero" d="M302.734 180.866c-.89-.974-.82-2.484.153-3.372l3.331-3.04c.974-.89 2.484-.82 3.373.153.889.974.82 2.484-.154 3.372l-3.33 3.04c-.975.89-2.484.82-3.373-.153z"/>
        <path fill="#000" fill-rule="nonzero" d="M302.734 180.866c-.89-.974-.82-2.484.153-3.372l3.331-3.04c.974-.89 2.484-.82 3.373.153.889.974.82 2.484-.154 3.372l-3.33 3.04c-.975.89-2.484.82-3.373-.153z" opacity=".1"/>
        <circle cx="307.265" cy="176.747" r="1" fill="#FFF" fill-rule="nonzero"/>
        <path fill="#000" fill-rule="nonzero" d="M301.46 205.56c4.91-.723 9.369-3.673 12.781-7.33.638-.602 1.132-1.34 1.444-2.16.171-.685.23-1.393.175-2.097l-.082-2.81c-.035-1.23-.085-2.505-.68-3.58-.596-1.073-1.923-1.848-3.067-1.4-3.008 1.167-4.965 3.836-6.685 6.568-.492.851-1.028 1.676-1.607 2.47-.291.37-.688.748-1.167.697-.101-.009-.2-.035-.292-.078-.476 1.36-.796 2.77-.953 4.203-.19 1.837-.145 3.691.132 5.517z" opacity=".1"/>
        <path fill="#EEDBC2" fill-rule="nonzero" stroke="#DBC8AF" stroke-width=".5" d="M301.02 189.156c.243-1.052.696-2.045 1.33-2.919 1.903-2.976 4.043-5.883 5.059-9.272-1.483.268-1.716 2.821-3.218 2.934l.116-1.84c0-.312 0-.69-.252-.853-.253-.163-.705.05-.872.358-.167.308-.202.681-.358.996-.156.315-.521.596-.844.456l-.133-.611c-.281-.06-.574.015-.793.2-.22.186-.342.462-.331.75-.106-.294-.163-.603-.168-.915-.665-.125-1.147.61-1.385 1.245-.492 1.428-.875 2.891-1.144 4.377l-.61 2.961c-.215 1.024-.425 2.047-.565 3.078-.366 2.737-.221 5.518.428 8.203.816-.453 1.607-.947 2.37-1.483.587-.498 1.245-1.062 1.467-1.821.548-1.914-.42-3.918-.097-5.844z"/>
        <path fill="#E09285" fill-rule="nonzero" stroke="#B77064" stroke-width=".5" d="M315.316 186.669c-.337-.608-.891-1.127-1.52-1.415-.592-.27-1.248-.336-1.856-.098-3.053 1.19-5.056 3.882-6.798 6.689-.49.85-1.02 1.666-1.592 2.452-.239.295-.548.632-.93.603-.419-.098-.79-.347-1.796-.849-1.765.86-3.163 2.327-4.163 4.513-.15.2-.283.405-.306.627-.209 2.011 1.104 3.836 2.378 5.42.119.184.276.34.502.478.218.086.454.115.686.086 5.579-.274 10.68-3.466 14.496-7.55.662-.63 1.175-1.399 1.51-2.28.178-.71.239-1.443.179-2.172l-.078-2.81c-.036-1.287-.098-2.586-.712-3.694z"/>
        <path fill="#9BA7AB" fill-rule="nonzero" stroke="#979797" stroke-width=".5" d="M307.418 164.026l-1.73.274c-.207-.14-.468-.202-.734-.153-.374.084-.708.295-1.076.173l-1.772.741c-.7.715-1.31 1.513-1.815 2.377-.305.459-.492.986-.544 1.535-.024.316.049.618.197.878.15.259.374.475.673.62.427.166.909.066 1.384-.05.407-.098.822-.238 1.145.014.358.274.303.792.293 1.417-.055.523.106 1.057.947 1.678.142.059.292.115.425.268.158.183.16.446.255 1.124.122.37.374.663.69.842.32.18.706.317 1.567-.52.05-.466.335-.875.756-1.08.422-.207.92-.183 1.319.064.606.378.84 1.124.992 1.832.152.684.258 1.375.318 2.07.063.704.206 1.492.815 1.808.468.226.996.273 1.545.113.33-.186.638-.678 1.08-1.434.67-1 1.277-2.04 1.819-3.116.733-1.453 1.344-3.117.908-4.689-.301-.962-.887-1.8-1.68-2.41-.768-.587-1.613-1.063-2.512-1.417-.185-.066-.35-.161-.494-.284-.176-.243-.324-.506-.458-.815-.386-.638-1.137-.953-2.24-1.206-.587-.129-1.232-.27-2.073-.654z"/>
        <path fill="#9BA7AB" fill-rule="nonzero" d="M300.72 168.65c.829.319 1.887-.553 2.591 0 .456.358.39 1.05.39 1.63-.052.46.11.92.44 1.245.268.21.649.261.87.522.223.26.191.805.304 1.21.203.617.842.978 1.475.832.07-.014.135-.048.187-.097.078-.104.116-.232.109-.362.058-.552.397-1.035.895-1.279.499-.244 1.088-.215 1.56.077.661.412.938 1.23 1.105 1.992.154.693.262 1.395.323 2.101.054.607.14 1.327.68 1.607.415.203.889.244 1.332.117.389-.226.743-.973.992-1.35.666-1 1.269-2.039 1.805-3.113.447-.83.77-1.722.957-2.646.28 1.432-.295 2.918-.957 4.238-.537 1.067-1.14 2.1-1.805 3.093-.25.389-.592 1.124-.992 1.35-.443.127-.917.086-1.331-.117-.541-.28-.627-1-.681-1.607-.06-.706-.169-1.408-.323-2.1-.167-.779-.444-1.58-1.105-1.993-.472-.292-1.061-.321-1.56-.077-.498.244-.837.727-.895 1.28.007.13-.031.257-.11.361-.051.05-.116.083-.186.097-.633.145-1.272-.215-1.475-.832-.113-.39-.027-.891-.303-1.21-.277-.32-.603-.312-.872-.522-.33-.326-.491-.784-.44-1.245 0-.58.078-1.272-.389-1.63-.704-.549-1.762.323-2.591 0-.47-.229-.752-.72-.712-1.241.014-.281.08-.557.194-.814.112.216.295.386.518.483z" opacity=".1"/>
        <circle cx="209.571" cy="173.571" r="10.964" fill="#BEC8CB" fill-rule="nonzero" stroke="#979797" stroke-width=".5"/>
        <path fill="#FFF" fill-rule="nonzero" d="M211.153 174.709c-.981.553-2.182.553-3.163 0-1.237.376-1.996 1.622-2.276 2.72h7.715c-.28-1.098-1.039-2.344-2.276-2.72zm-1.582-5.852c-1.124-.001-2.138.672-2.57 1.706-.43 1.034-.193 2.225.601 3.017.795.792 1.99 1.029 3.03.6 1.039-.427 1.716-1.436 1.716-2.556-.001-1.526-1.243-2.764-2.777-2.767zm0 4.874c-.853-.017-1.616-.536-1.942-1.321h3.885c-.327.785-1.089 1.304-1.943 1.324v-.003z"/>
        <circle cx="182.662" cy="212.662" r="10.626" fill="#BEC8CB" fill-rule="nonzero" stroke="#979797" stroke-width=".5"/>
        <path fill="#FFF" fill-rule="nonzero" d="M180.18 211.681L180.18 214.408 181.999 214.408 184.271 216.783 184.271 209.303 181.999 211.681z"/>
        <circle cx="237.519" cy="212.662" r="10.626" fill="#BEC8CB" fill-rule="nonzero" stroke="#979797" stroke-width=".5"/>
        <path fill="#FFF" fill-rule="nonzero" d="M239.732 211.916v-1.35c-.001-.104-.044-.203-.118-.275-.074-.072-.174-.112-.277-.11h-4.783c-.215-.002-.39.17-.394.384v3.85c.004.215.18.386.394.385h4.781c.215.002.392-.17.395-.385v-1.35l1.52 1.54v-4.229l-1.518 1.54z"/>
        <circle cx="209.233" cy="212.662" r="10.376" fill="#FF6F61" fill-rule="nonzero"/>
        <path fill="#FFF" fill-rule="nonzero" d="M205.852 214.71c.37-.35.79-.64 1.248-.861.144-.065.237-.21.234-.368l.036-1.313c1.291-.384 2.67-.347 3.94.106l-.036 1.313c-.002.155.078.3.21.38.46.239.875.553 1.23.929.076.081.183.129.295.132.112.003.22-.038.302-.115l1.073-1.018c.168-.16.176-.426.016-.595-1.309-1.383-3.114-2.188-5.017-2.24-1.903-.051-3.75.656-5.131 1.965-.082.077-.129.184-.132.296-.002.112.04.22.117.302l1.015 1.072c.078.081.184.129.296.131.112.003.22-.039.302-.116h.002z"/>
    </g>
</svg>
