<svg xmlns="http://www.w3.org/2000/svg" width="420" height="287" viewBox="0 0 420 287">
    <defs>
        <linearGradient id="a" x1="50.002%" x2="50.002%" y1="100%" y2="-.002%">
            <stop offset="0%" stop-color="gray" stop-opacity=".25"/>
            <stop offset="54%" stop-color="gray" stop-opacity=".12"/>
            <stop offset="100%" stop-color="gray" stop-opacity=".1"/>
        </linearGradient>
        <linearGradient id="b" x1="50.02%" x2="50.02%" y1="99.99%" y2=".002%">
            <stop offset="0%" stop-color="gray" stop-opacity=".25"/>
            <stop offset="54%" stop-color="gray" stop-opacity=".12"/>
            <stop offset="100%" stop-color="gray" stop-opacity=".1"/>
        </linearGradient>
    </defs>
    <g fill="none" fill-rule="evenodd" transform="translate(1)">
        <path fill="#F8DEDC" fill-rule="nonzero" stroke="#979797" stroke-width=".5" d="M40.846 218.21c-1.789 3.804.77 7.91-.117 11.838-1.122 4.956-7.55 8.814-14.474 11.275-6.925 2.462-14.658 3.957-21.407 6.608-2.919 1.145-5.962 3.255-4.444 5.196.525.674 1.509 1.144 2.472 1.586 19.66 8.988 43.96 13.87 68.24 13.713 25.68-.17 50.826-5.783 76.485-5.138 33.093.826 65.101 12.002 97.826 8.78 13.891-1.375 26.79-5.274 40.317-7.71 19.894-3.582 40.817-3.94 61.42-5.118 15.47-.884 33.15-3.176 40.542-11.792 5.344-6.228 3.101-14.456-4.427-19.73-7.53-5.274-19.557-7.53-30.666-6.505-5.974.55-11.91 1.974-17.885 1.409-3.468-.33-6.67-1.314-9.834-2.28-24.475-7.517-49.83-15.018-76.999-16.108-44.19-1.789-85.148 13.444-128.2 20.031-6.703 1.025-13.982 1.814-20.315.095-6.67-1.813-11.047-6.096-17.73-7.9-3.172-.86-6.707-1.108-9.826-2.041-8.57-2.57-4.585-6.1-16.483-3.717-6.216 1.255-12.494 3.267-14.495 7.508z"/>
        <path fill="#F2F2F2" fill-rule="nonzero" d="M46.217 86.1s22.725 23.29 9.903 57.85c-12.821 34.559 22.008 92.028 22.008 92.028s-.375-.055-1.064-.18c-46.697-8.445-69.886-63.15-43.934-103.778 9.647-15.124 17.57-32.846 13.087-45.92z"/>
        <path stroke="#535461" d="M45.282 86.1s13.215 28.549 0 51.839c-13.216 23.29-2.267 88.65 32.846 98.039"/>
        <path fill="#F2F2F2" fill-rule="nonzero" d="M4.783 180.46s26.452-4.197 28.864 19.43c2.41 23.627 50.859 26.904 50.859 26.904s-.316.216-.91.601c-40.001 26.167-78.243 16.674-72.481-18.082 2.145-12.933 1.966-25.902-6.332-28.852z"/>
        <path stroke="#535461" d="M4.783 180.172s20.533 4.613 18.845 23.725c-1.688 19.112 30.489 42.02 60.878 23.862"/>
        <path fill="#E49281" fill-rule="nonzero" d="M282.217 234.383H63.777V97.261h27.936l11.493 14.267h179.01z"/>
        <path fill="#E49281" fill-rule="nonzero" d="M282.217 234.383H63.777V97.261h27.936l11.493 14.267h179.01z" opacity=".1"/>
        <path fill="#F1F1F4" fill-rule="nonzero" stroke="#979797" stroke-width=".5" d="M104.519 77.95l98.206-35.493 55.299 152.76-98.206 35.493z"/>
        <path fill="#FFF" fill-rule="nonzero" d="M123.067 88.239l27.748-10.029 2.362 6.524-27.749 10.028zM134.551 104.557l61.05-21.781 2.14 5.99-61.05 21.781zM139.126 117.358l61.05-21.781 2.141 5.99-61.05 21.782zM143.697 130.16l61.05-21.782 2.141 5.99-61.05 21.782zM148.273 142.956l61.05-21.781 2.14 5.99-61.05 21.782zM152.846 155.753l61.05-21.78 2.141 5.99-61.05 21.78zM157.422 168.555l61.05-21.782 2.14 5.99-61.05 21.782zM214.555 173.654l15.806-5.64 5.644 15.794-15.806 5.64z"/>
        <path fill="url(#a)" fill-rule="nonzero" d="M75.266 56.137l107.754.038.06 167.814-107.754-.038z" transform="rotate(-59.28 129.173 140.063)"/>
        <path fill="#F1F1F4" fill-rule="nonzero" stroke="#979797" stroke-width=".5" d="M32.58 143.426l53.37-89.742 139.82 83.018-53.37 89.742z"/>
        <path fill="#FFF" fill-rule="nonzero" d="M53.358 139.62l15.08-25.356 5.97 3.545-15.08 25.356zM72.237 144.1l33.116-55.684 5.472 3.25-33.115 55.683zM83.93 151.044l33.116-55.683 5.473 3.25-33.116 55.683zM95.577 157.802l33.06-55.704 5.475 3.243-33.06 55.705zM107.314 164.927l33.116-55.683 5.472 3.25-33.115 55.683zM119.008 171.872l33.115-55.684 5.473 3.25-33.116 55.683zM130.705 178.817l33.116-55.684 5.472 3.25-33.115 55.683zM177.834 146.106l8.56-14.422 14.433 8.552-8.56 14.423z"/>
        <path fill="url(#b)" fill-rule="nonzero" d="M400.195 52.932c0-.206-.02-.401-.062-.588a6.88 6.88 0 0 1-.11-.645 18.885 18.885 0 0 0-.422-1.803 15.564 15.564 0 0 0-3.141-5.951l-.251-.283a15.146 15.146 0 0 0-.498-.521 10.191 10.191 0 0 0-.485-.454c-.16-.141-.314-.27-.465-.396a9.343 9.343 0 0 0-.836-.612c-.26-.166-.352-.229-.498-.316a2.824 2.824 0 0 0-1.172-.38l-2.58-.249-3.49-.342-12.595-4.843-.498.175a28.614 28.614 0 0 1-.933-3.07c.381-.163.722-.409.996-.72.297-.229.533-.528.686-.87.318-.725-.289-2.274-.168-3.157.201-1.42.946-2.794 1.552-4.08 1.297-2.766 2.243-5.76 2.092-8.796-.15-3.036-1.552-6.114-4.141-7.813-1.339-.878-2.929-1.349-4.305-2.149-1.083-.624-2.037-1.436-3.07-2.14A17.797 17.797 0 0 0 348.428 1.7c-2.62 1.279-4.853 3.186-7.325 4.715-2.473 1.528-5.384 2.71-8.275 2.257-.04.114-.07.233-.088.354l-.242-.03c-.498 1.346.723 2.67 1.849 3.59 2.133 1.741 4.555 3.482 7.341 3.54 1.075.025 2.213-.2 3.192.237.212.098.412.221.594.367a13.622 13.622 0 0 0 4.355 13.676l-6.434-2.29s-.268.137-.686.395l-8.94-5.884s-17.916-6.46-22.894 3.552c-4.979 10.012 21.568 4.843 21.568 4.843l5.681 3.09a5.086 5.086 0 0 0 .624 3.37l15.478 9.47c-3.13.953-8.27 2.498-9.204 2.498-1.326 0-4.978 1.291-7.3 6.46-2.321 5.167-10.616 30.362-17.916 34.564-7.3 4.202-26.547 32.3-26.547 32.3l.088.22c-.343.09-.68.188-1.008.296-4.815 1.55-8.053 4.819-10.007 7.463a3.153 3.153 0 0 0-.323 3.141 3.178 3.178 0 0 0 2.565 1.856c7.597.95 11.747-2.498 13.742-5.13.13-.17.251-.337.364-.5.595.251 1.26.28 1.874.083l9.291-7.429s-7.27 7.08-3.007 13.53l-.322.446a102.364 102.364 0 0 0-15.583 33.507s-3.982 2.915-4.313 14.534c-.33 11.62-4.313 30.363-4.313 30.363s-2.656 22.289-.996 29.073c0 0 .193.27.544.683-.125.145-.26.304-.418.466-1.447 1.55-4.062 3.686-7.112 3.048-4.647-.97-4.647 7.105 1.992 7.755 4.275.416 12.67 2.307 18.113 3.598a3.82 3.82 0 0 0 3.415-.792 3.781 3.781 0 0 0 1.316-3.235c-.326-2.895-.916-6.397-1.99-8.891a14.962 14.962 0 0 0-.206-.454c.197-.18.39-.367.586-.567 0 0 0-14.213 2.322-18.09 0 0 6.304-29.393 5.973-36.822-.26-5.83 16.353-28.452 23.585-38.014l-.058-.362c1.849-2.44 3.02-3.94 3.02-3.94l5.64 35.207s2.706 7.754 6.023 11.944c0 0 14.27 26.81 15.926 35.206 1.255 6.367 3.848 10.132 5.02 11.581-.138.138-.28.275-.419.417-1.51 1.37-3.74 2.744-6.275 2.22-4.63-.975-4.63 7.1 2.008 7.745 4.276.417 12.671 2.307 18.114 3.598a3.82 3.82 0 0 0 3.415-.791 3.781 3.781 0 0 0 1.316-3.236c-.376-3.36-1.117-7.541-2.547-9.994a7.091 7.091 0 0 0-.377-.588c.505-.2.956-.515 1.318-.92 0 0-8.634-20.368-8.634-25.861 0 0-3.652-20.997-15.926-28.735 0 0 1.163-26.257 4.656-40.874.086-.361.174-.715.263-1.062a100.167 100.167 0 0 0 9.68-1.995l.33-9.69 1.674 7.753 18.565-11.314s-.163-2.037-.476-5.16a336.755 336.755 0 0 0-.586-5.38 285.816 285.816 0 0 0-.807-6.297c-.243-1.741-.51-3.503-.8-5.227-.108-.647-.22-1.287-.334-1.92-.15-.832-.31-1.665-.473-2.473-.08-.403-.164-.8-.25-1.191-.087-.392-.174-.775-.26-1.15a72.271 72.271 0 0 0-.264-1.103l-.134-.533c-.092-.35-.184-.692-.276-1.025a18.318 18.318 0 0 1-.673-4.235 21.784 21.784 0 0 1 0-1.707c.022-.584.078-1.15.167-1.7.04-.277.087-.555.142-.832a19.057 19.057 0 0 1 1.636-4.885 205.53 205.53 0 0 0 1.908-3.94c.331-.697.666-1.409 1.004-2.136.337-.728.677-1.466 1.02-2.216 3.23-7.121 6.417-15.059 7.27-20.268.089-.55.156-1.066.189-1.554.04-.451.05-.905.03-1.357z"/>
        <path fill="#F4DBB8" fill-rule="nonzero" stroke="#EAD3B1" stroke-width=".5" d="M344.4 31.438l-10.855-7.144s-17.242-6.211-22.03 3.414c-4.789 9.626 20.748 4.658 20.748 4.658l10.855 5.9 1.282-6.828z"/>
        <path fill="#F1F1F4" fill-rule="nonzero" stroke="#979797" stroke-width=".5" d="M225.233 89.92L281.26 1.81l137.278 87.15-56.027 88.11z"/>
        <path fill="#FFF" fill-rule="nonzero" d="M246.116 86.735l15.83-24.895 5.862 3.721-15.83 24.896zM264.855 91.777l34.764-54.67 5.373 3.41-34.764 54.671zM276.337 99.065L311.1 44.393l5.373 3.411-34.763 54.672zM287.817 106.354l34.764-54.671 5.373 3.41-34.763 54.672zM299.994 115.455L335 61.045l5.347 3.435-35.006 54.41zM310.78 120.93l34.764-54.67 5.373 3.41-34.764 54.672zM322.983 130.179l35.006-54.41 5.347 3.435-35.006 54.41zM370.47 97.152l9-14.155 14.166 8.994-9 14.154z"/>
        <path fill="#9BA7AB" fill-rule="nonzero" d="M376.49 255.01c-5.245-1.216-13.336-2.99-17.455-3.381-6.395-.607-6.395-8.193-1.92-7.281 2.427.493 4.572-.79 6.03-2.087.447-.404.864-.834 1.251-1.29a3.735 3.735 0 0 1 2.078-1.183c2.398-.497 7.389-1.246 10.46.323a4.38 4.38 0 0 1 1.662 1.72c1.38 2.323 2.078 6.248 2.456 9.407.125 1.137-.342 2.26-1.25 3.01a3.845 3.845 0 0 1-3.313.761zM295.165 259.79c-5.243-1.215-13.331-2.99-17.448-3.381-6.394-.608-6.394-8.196-1.92-7.284 2.909.6 5.447-1.413 6.839-2.865.17-.177.324-.347.457-.505a3.733 3.733 0 0 1 2.077-1.184c2.397-.497 7.386-1.246 10.456.324.897.462 1.616 1.472 2.19 2.762 1.034 2.344 1.603 5.635 1.919 8.353.128 1.14-.338 2.268-1.249 3.02a3.842 3.842 0 0 1-3.321.76z"/>
        <path fill="#000" fill-rule="nonzero" d="M296.567 246.607c-7.22 8.575-13.411-.159-14.35-1.6.16-.203.306-.398.432-.579.504-.695 1.196-1.174 1.965-1.359 2.268-.57 6.989-1.431 9.893.371.837.508 1.517 1.667 2.06 3.167zM377.883 242.099c-3.088 2.372-13.415 1.787-13.415 1.787-.34-.41-.652-.846-.935-1.308a14.3 14.3 0 0 0 1.162-1.417c.495-.668 1.175-1.13 1.93-1.308 2.228-.549 6.865-1.377 9.718.358a4.572 4.572 0 0 1 1.54 1.888z" opacity=".1"/>
        <path fill="#D2DADD" fill-rule="nonzero" stroke="#979797" stroke-width=".5" d="M379.478 242.029c-2.252 2.893-15.104 2.253-15.104 2.253s-3.855-3.859-5.463-12.225c-1.608-8.367-15.425-35.064-15.425-35.064-3.212-4.18-5.785-11.903-5.785-11.903l-5.464-35.063s-26.352 34.74-26.03 42.141c.322 7.401-5.785 36.665-5.785 36.665-2.251 3.86-2.251 18.012-2.251 18.012-8.354 8.685-15.426-1.61-15.426-1.61-1.608-6.756.965-28.95.965-28.95s3.856-18.656 4.177-30.238c.322-11.582 4.177-14.475 4.177-14.475a103.233 103.233 0 0 1 15.091-33.37c1.942-2.784 3.225-4.269 3.225-4.269l52.06 6.113c-.835 1.673-1.583 4.068-2.239 6.903-3.383 14.555-4.506 40.708-4.506 40.708 11.891 7.727 15.425 28.633 15.425 28.633 0 5.468 8.358 25.739 8.358 25.739z"/>
        <g fill="#000" fill-rule="nonzero" opacity=".05">
            <path d="M328.625 154.275l-.67-4.276s-26.423 34.664-26.1 42.048c.322 7.384-5.797 36.587-5.797 36.587-2.258 3.85-2.258 17.972-2.258 17.972-1.755 1.815-3.455 2.8-5.025 3.221 2.538.663 5.624.18 8.912-3.22 0 0 0-14.122 2.257-17.973 0 0 6.123-29.203 5.801-36.591-.272-5.774 15.86-28.264 22.88-37.768z"/>
            <path d="M370.812 216.119s-3.543-20.86-15.466-28.565c0 0 1.126-26.09 4.519-40.617.661-2.829 1.403-5.215 2.244-6.888l-52.197-6.116s-.121.142-.343.418l48.679 5.686c-.838 1.668-1.587 4.059-2.245 6.887-3.392 14.523-4.519 40.618-4.519 40.618 11.92 7.717 15.463 28.577 15.463 28.577 0 5.456 8.376 25.677 8.376 25.677-1.328 1.702-6.353 2.178-10.257 2.282 3.095.08 12.255.109 14.123-2.282.004.005-8.377-20.22-8.377-25.677z"/>
        </g>
        <path fill="#F4DBB8" fill-rule="nonzero" stroke="#EAD3B1" stroke-width=".5" d="M299.756 129.572a10.973 10.973 0 0 1-1.52 2.535c-1.928 2.48-5.934 5.763-13.272 4.863-1.097-.136-2.04-.811-2.483-1.78a2.9 2.9 0 0 1 .318-2.952c1.882-2.507 4.997-5.607 9.66-7.075a18.11 18.11 0 0 1 4.09-.796l3.207 5.205z"/>
        <path fill="#E49281" fill-rule="nonzero" d="M368.317 39.89l-26.56-9.596s-7.62 3.924-4.637 9.485l25.829 16.027 5.368-15.917z"/>
        <path fill="#E49281" fill-rule="nonzero" d="M368.317 39.89l-26.56-9.596s-7.62 3.924-4.637 9.485l25.829 16.027 5.368-15.917z" opacity=".1"/>
        <path fill="#F4DBB8" fill-rule="nonzero" stroke="#EAD3B1" stroke-width=".5" d="M368.977 24.546s-.312 14.993 6.239 20.097c6.55 5.104-19.025 7.974-19.025 7.974s4.054-15.313 0-23.286c-4.054-7.973 12.786-4.785 12.786-4.785z"/>
        <path fill="#000" fill-rule="nonzero" d="M363.533 139.478c-.843 1.517-1.598 3.69-2.26 6.26-31.372 4.309-53.208-7.428-53.208-7.428-.118-.171-.232-.338-.337-.505 1.96-2.525 3.255-3.872 3.255-3.872l52.55 5.545zM301.35 128.135c-.423.932-.982 1.81-1.66 2.61-3.24-.484-5.834-6.064-6.312-7.153a20.87 20.87 0 0 1 4.468-.82l3.504 5.363z" opacity=".1"/>
        <path fill="#E29283" fill-rule="nonzero" stroke="#B77064" stroke-width=".5" d="M372.782 36.672l-11.576 4.136-4.822 6.364s-9.967 3.18-11.255 3.18c-1.287 0-4.822 1.274-7.075 6.365-2.252 5.09-10.284 29.899-17.36 34.034-7.075 4.135-25.722 31.843-25.722 31.843s3.214 8.589 7.075 7.32l9.002-7.32s-7.075 7.001-2.892 13.361c0 0 26.366 15.59 62.686 6.046l.322-9.544 1.609 7.634 18.033-11.15s-1.614-20.536-4.518-30.99a18.703 18.703 0 0 1 1.254-13.167c4.668-9.628 11.872-25.706 10.995-31.57-1.037-6.91-4.982-9.925-6.486-10.818a2.707 2.707 0 0 0-1.133-.373l-5.884-.583-12.253-4.768z"/>
        <path fill="#000" fill-rule="nonzero" d="M352.372 68.561s-6.379 29.821-13.392 34.631c-7.013 4.81-25.83 20.202-26.469 22.77" opacity=".05"/>
        <path fill="#000" fill-rule="nonzero" d="M355.561 47.833s22.253-8.15 28.7-6.023" opacity=".1"/>
        <g fill="#000" fill-rule="nonzero" opacity=".05">
            <path d="M385.795 84.809c4.658-9.613 11.847-25.667 10.971-31.522-1.034-6.9-4.97-9.91-6.472-10.801a2.7 2.7 0 0 0-1.13-.372l-2.502-.247c.262.062.512.164.743.301 1.5.908 5.42 3.902 6.472 10.802.875 5.85-6.314 21.908-10.972 31.52a18.684 18.684 0 0 0-1.25 13.147c2.918 10.439 4.507 30.944 4.507 30.944l-15.471 9.575.392 1.862 18.002-11.124s-1.61-20.504-4.508-30.943a18.684 18.684 0 0 1 1.218-13.142zM380.403 41.218l2.781.273-12.084-4.724-1.085.388z"/>
        </g>
        <path fill="#000" fill-rule="nonzero" d="M349.183 100.45s10.111-5.81 13.371-4.441c3.26 1.368 15.33-.342 15.33-.342M367.28 28.511c-.34-2.87 1.037-2.435 1.037-2.435s-16.014-2.863-12.156 4.297c.963 1.794 1.445 3.998 1.626 6.3h.15c4.48.003 7.073-4.803 9.343-8.162z" opacity=".05"/>
        <circle cx="357.156" cy="22.322" r="14.35" fill="#F3DBBA" fill-rule="nonzero" stroke="#EAD3B1" stroke-width=".5"/>
        <path fill="#000" fill-rule="nonzero" d="M372.668 25.98c1.248-2.826 2.163-5.891 2.01-9.017-.154-3.125-1.498-6.255-3.994-7.99-1.29-.897-2.812-1.378-4.16-2.194-1.043-.64-1.967-1.468-2.961-2.19-4.965-3.483-11.354-3.962-16.755-1.257-2.525 1.288-4.68 3.258-7.072 4.821-2.391 1.563-5.19 2.77-7.982 2.306-.478 1.374.699 2.73 1.785 3.67 2.059 1.782 4.392 3.56 7.071 3.62 1.04.026 2.134-.206 3.078.245a4.476 4.476 0 0 1 1.572 1.507 29.747 29.747 0 0 1 3.266 5.714c.358.829.724 1.717 1.464 2.22 1.248.815 2.841.137 4.305.077 2.28-.09 4.326 1.387 6.015 2.975 1.689 1.589 3.29 3.392 5.408 4.23 1.589.622 4.767.6 5.578-1.362.303-.738-.279-2.322-.158-3.228.224-1.43.948-2.83 1.53-4.148z" opacity=".1"/>
        <path fill="#9BA7AB" fill-rule="nonzero" stroke="#979797" stroke-width=".5" d="M372.668 25.98c1.248-2.826 2.163-5.891 2.01-9.017-.154-3.125-1.498-6.255-3.994-7.99-1.29-.897-2.812-1.378-4.16-2.194-1.043-.64-1.967-1.468-2.961-2.19-4.965-3.483-11.354-3.962-16.755-1.257-2.525 1.288-4.68 3.258-7.072 4.821-2.391 1.563-5.19 2.77-7.982 2.306-.478 1.374.699 2.73 1.785 3.67 2.059 1.782 4.392 3.56 7.071 3.62 1.04.026 2.134-.206 3.078.245a4.476 4.476 0 0 1 1.572 1.507 29.747 29.747 0 0 1 3.266 5.714c.358.829.724 1.717 1.464 2.22 1.248.815 2.841.137 4.305.077 2.28-.09 4.326 1.387 6.015 2.975 1.689 1.589 3.29 3.392 5.408 4.23 1.589.622 4.767.6 5.578-1.362.303-.738-.279-2.322-.158-3.228.224-1.426.948-2.83 1.53-4.148z"/>
        <path fill="#D2DADD" fill-rule="nonzero" stroke="#979797" stroke-width=".5" d="M282.217 240.761H63.777V103.64h27.936l11.493 14.267h179.01z"/>
        <path fill="#9BA7AB" fill-rule="nonzero" d="M74.939 255.004s-9.343-1.925-11.835-4.496c-2.492-2.57-13.702-7.066-14.948-3.842-1.247 3.223-16.816 14.132-6.21 16.062 10.606 1.93 24.912 2.562 28.03 1.281 3.117-1.28 4.963-9.005 4.963-9.005z"/>
        <path fill="#000" fill-rule="nonzero" d="M41.921 259.996c10.592 1.894 24.919 2.52 28.037 1.26 2.372-.961 4.02-5.585 4.67-7.74l.31.068s-1.867 7.584-4.968 8.844c-3.101 1.26-17.445.63-28.036-1.26-3.056-.546-3.93-1.83-3.603-3.46.249 1.066 1.313 1.881 3.59 2.288z" opacity=".2"/>
        <path fill="#9BA7AB" fill-rule="nonzero" d="M271.056 270.907s-14.21-2.893-18.003-6.747c-3.793-3.855-20.842-10.602-22.737-5.782-1.894 4.82-25.588 21.204-9.492 24.097 16.096 2.893 37.895 3.855 42.633 1.927 4.738-1.927 7.599-13.495 7.599-13.495z"/>
        <path fill="#000" fill-rule="nonzero" d="M220.836 282.356c16.097 2.844 37.899 3.789 42.637 1.895 3.608-1.445 6.117-8.378 7.108-11.601l.475.099s-2.844 11.353-7.591 13.26c-4.747 1.906-26.532.949-42.638-1.895-4.651-.825-5.98-2.748-5.477-5.183.405 1.589 2.023 2.815 5.486 3.425z" opacity=".2"/>
        <path fill="#000" fill-rule="nonzero" d="M145.094 167.417h49.428v9.567h-49.428z" opacity=".1"/>
    </g>
</svg>
