<?xml version="1.0" encoding="UTF-8"?>
<svg width="418px" height="287px" viewBox="0 0 418 287" version="1.1" xmlns="http://www.w3.org/2000/svg" xmlns:xlink="http://www.w3.org/1999/xlink">
    <!-- Generator: Sketch 63.1 (92452) - https://sketch.com -->
    <title>My Groups</title>
    <desc>Created with Sketch.</desc>
    <g id="Empty-States" stroke="none" stroke-width="1" fill="none" fill-rule="evenodd">
        <g id="MelpApp_All-Empty-States_27th-June" transform="translate(-1175.000000, -3097.000000)" fill-rule="nonzero">
            <g id="My-Groups" transform="translate(1175.000000, 3097.000000)">
                <polygon id="Path" fill="#F1DBBE" points="343.793662 255.868989 344.197887 265.570397 344.197887 274.05913 354.707746 274.05913 354.707746 255.868989"></polygon>
                <polygon id="Path" fill="#F1DBBE" points="401.597887 246.976031 402.002113 256.677439 402.002113 265.166172 412.511972 265.166172 410.490845 245.35913"></polygon>
                <polygon id="Path" stroke="#DDC5A5" stroke-width="0.5" fill="#F0DBC0" points="391.088028 89.732369 387.854225 115.198566 377.344366 145.515468 372.493662 128.133777 378.557042 117.219693 377.344366 94.1788479"></polygon>
                <path d="M340.559859,87.3071463 C340.559859,87.3071463 331.666901,103.071935 332.879577,104.688836 C334.092254,106.305738 334.900704,115.198696 334.900704,115.198696 L338.266596,115.198696 L343.793662,101.455034 L340.559859,87.3071463 Z" id="Path" fill="#E49281"></path>
                <path d="M357.335211,42.6402448 C357.335211,42.6402448 365.015493,53.150104 362.590141,58.4050336 C360.164789,63.6599632 386.035211,55.5754561 386.035211,55.5754561 C386.035211,55.5754561 373.1,41.0233434 372.695775,36.1726392 L357.335211,42.6402448 Z" id="Path" stroke="#DDC5A5" stroke-width="0.5" fill="#F0DBC0"></path>
                <circle id="Oval" stroke="#DDC5A5" stroke-width="0.5" fill="#EFDBC1" cx="362.590141" cy="31.321939" r="14.1478873"></circle>
                <path d="M386.035211,89.5303857 C385.125704,90.8966674 384.232366,92.420597 383.367324,94.0294139 C382.959056,94.7933796 382.558873,95.577597 382.162732,96.3698786 C377.465634,105.836836 373.908451,117.01771 373.908451,117.01771 L336.315493,115.805034 L337.483704,112.377203 L342.783099,96.806442 C333.485915,91.1472871 342.378873,80.2332026 347.229577,70.1275688 C351.684141,60.8465547 360.916648,54.6740336 362.388028,53.7281463 C362.521423,53.6473012 362.590141,53.6028364 362.590141,53.6028364 L362.759915,53.5745406 L369.506416,52.4386674 L381.657451,50.3932871 L381.661493,50.3932871 C383.796325,50.7524218 385.84154,51.5210931 387.684451,52.6569491 C389.220779,53.6262931 390.520508,54.9274099 391.488211,56.4647721 C392.963634,58.8092791 393.654879,61.6307721 393.780169,64.6503355 C394.143972,73.4907278 389.681324,84.0612045 386.035211,89.5303857 Z" id="Path" stroke="#979797" stroke-width="0.5" fill="#FFFFFF"></path>
                <path d="M388.258451,56.1817941 C388.258451,56.1817941 395.534507,64.6705265 395.938732,71.9465829 C396.342958,79.2226392 394.726056,92.9663012 391.088028,92.9663012 C387.45,92.9663012 380.982394,95.3916533 381.38662,92.9663012 C381.790845,90.5409491 388.258451,56.1817941 388.258451,56.1817941 Z" id="Path" stroke="#979797" stroke-width="0.5" fill="#FFFFFF"></path>
                <path d="M381.38662,71.5423575 L376.940141,72.3508082 C375.43238,60.276597 366.709197,55.413766 362.388028,53.7281463 C362.521423,53.6473012 362.590141,53.6028364 362.590141,53.6028364 L362.759915,53.5745406 L369.506416,52.4386674 C378.419606,57.0347056 381.38662,71.5423575 381.38662,71.5423575 Z" id="Path" fill="#E49281"></path>
                <path d="M411.703521,245.359259 C411.299296,247.784611 399.576761,252.23109 396.342958,251.826865 C393.109155,251.422639 361.175352,173.407146 361.175352,173.407146 C361.175352,173.407146 361.175352,260.315597 360.366901,261.932498 C359.558451,263.5494 345.814789,261.932498 340.964085,256.273343 C336.11338,250.614189 332.879577,162.088836 330.858451,147.132498 C328.837324,132.17616 334.900704,112.773343 334.900704,112.773343 L337.483704,112.377203 L345.410563,111.156442 C345.410563,111.156442 345.410563,109.135315 357.537324,99.4339068 C369.664085,89.7324984 376.940141,72.3508082 376.940141,72.3508082 L378.152817,69.9254561 L381.38662,71.5423575 C384.854873,65.1273012 387.025563,58.8213857 387.684451,52.6569491 C389.220779,53.6262931 390.520508,54.9274099 391.488211,56.4647721 C391.181,57.3136453 390.873789,58.2312369 390.558493,59.2135045 C387.834014,67.6981946 384.745732,80.8395608 381.67362,93.7788144 C381.576606,94.1830397 381.483634,94.5872651 381.38662,94.9874482 C381.679155,95.4284385 381.938571,95.8905235 382.162732,96.3698989 C382.979268,98.0959411 383.84431,101.030617 381.38662,102.66773 C377.748592,105.093082 376.535915,117.219843 376.535915,117.219843 C383.407746,123.283223 385.024648,151.983223 384.216197,154.00435 C383.407746,156.025476 383.407746,155.621251 385.428873,156.833927 C387.45,158.046603 387.45,168.152237 387.45,168.152237 C387.45,168.152237 412.107746,242.933907 411.703521,245.359259 Z" id="Path" stroke="#B77064" stroke-width="0.5" fill="#E29283"></path>
                <path d="M349.857042,269.208555 C349.857042,269.208555 347.43169,271.633907 345.814789,270.421231 C344.197887,269.208555 344.134521,264.049697 344.134521,264.049697 C344.134521,264.049697 325.603521,262.336724 329.241549,274.463484 C332.879577,286.590245 358.345775,288.207146 359.154225,285.781794 C359.962676,283.356442 356.324648,267.995879 356.324648,267.995879 L349.857042,269.208555 Z" id="Path" stroke="#979797" stroke-width="0.5" fill="#9BA7AB"></path>
                <path d="M407.661268,260.315597 C407.661268,260.315597 405.235915,262.740949 403.619014,261.528273 C402.002113,260.315597 401.938746,255.15674 401.938746,255.15674 C401.938746,255.15674 383.407746,253.443766 387.045775,265.570527 C390.683803,277.697287 416.15,279.314189 416.958451,276.888836 C417.766901,274.463484 414.128873,259.102921 414.128873,259.102921 L407.661268,260.315597 Z" id="Path" stroke="#979797" stroke-width="0.5" fill="#9BA7AB"></path>
                <path d="M351.069718,80.4353153 L349.452817,101.859259 L328.837324,124.900104 C328.837324,124.900104 321.965493,128.133907 326.007746,133.793062 C330.05,139.452217 331.666901,139.856442 331.666901,139.856442 L332.071127,132.580386 L359.962676,110.347991 L362.792254,80.4353153 L351.069718,80.4353153 Z" id="Path" stroke="#DDC5A5" stroke-width="0.5" fill="#F0DBC0"></path>
                <path d="M364.00493,71.5423575 C364.00493,71.5423575 365.621831,53.3522167 357.537324,54.9691181 C349.452817,56.5860195 349.048592,64.2663012 349.048592,64.2663012 C349.048592,64.2663012 345.410563,82.8606674 348.644366,83.6691181 C351.878169,84.4775688 362.792254,86.0944702 364.00493,83.6691181 C365.217606,81.243766 364.00493,71.5423575 364.00493,71.5423575 Z" id="Path" stroke="#979797" stroke-width="0.5" fill="#FFFFFF"></path>
                <path d="M399.021395,43.2300541 C397.447128,42.4504206 393.970798,40.8769896 391.009693,38.9813708 C391.217336,32.8145088 390.457926,27.2163515 388.234989,24.2489291 C386.987227,21.4157985 384.367018,18.5793411 382.314879,16.3455635 C377.275308,10.8600517 366.131676,7.79808913 364.155233,10.5388664 C349.206442,10.8339913 347.632691,22.5515707 347.632691,22.5515707 C347.71046,27.4527263 352.80435,27.6078154 357.266574,27.4292165 C356.866985,30.7751757 357.931876,34.2518493 361.015525,35.7936739 C366.912365,38.7420734 368.681401,42.575011 365.732977,45.2286008 C362.784553,47.8821907 357.477422,54.9583576 364.553609,56.7273852 C371.629796,58.4964128 372.514338,62.0345488 370.450428,63.5087465 C368.386518,64.9829442 375.167904,60.8551768 375.167904,60.8551768 C375.167904,60.8551768 376.347247,67.931368 382.538925,66.1623121 C383.188299,65.9321157 383.761092,65.5263009 384.193597,64.990002 C385.865813,66.8273962 387.357626,67.913764 388.481955,67.9198687 C394.921265,67.9538914 394.149101,60.8217959 394.149101,60.8217959 C394.149101,60.8217959 401.792251,62.9683295 399.407313,62.1051831 C397.022376,61.2420367 396.920208,57.5964818 403.257374,53.9850759 C409.59454,50.37367 402.57608,44.9903989 399.021395,43.2300541 Z" id="Path" stroke="#979797" stroke-width="0.5" fill="#9BA7AB"></path>
                <rect id="Rectangle" fill="#F2F2F2" x="0.404225352" y="0.404314282" width="296.701408" height="168.954968"></rect>
                <polygon id="Path" fill="#9BA7AB" points="297.509859 169.763734 -5.1159077e-13 169.763734 -5.1159077e-13 -3.41060513e-13 206.706293 -3.41060513e-13 206.706293 0.808450704 0.808450704 0.808450704 0.808450704 168.955283 296.701408 168.955283 296.701408 95.2601507 297.509859 95.2601507"></polygon>
                <circle id="Oval" fill="#FFFFFF" cx="14.1404011" cy="13.0388506" r="5.03659938"></circle>
                <circle id="Oval" fill="#FFFFFF" cx="27.4798377" cy="13.0388506" r="5.03659938"></circle>
                <circle id="Oval" fill="#FFFFFF" cx="40.8192743" cy="13.0388506" r="5.03659938"></circle>
                <rect id="Rectangle" fill="#9BA7AB" x="40.8267606" y="26.4712348" width="225.153521" height="1"></rect>
                <rect id="Rectangle" fill="#FFFFFF" x="16.5732394" y="53.150108" width="115.204225" height="101.460563"></rect>
                <rect id="Rectangle" fill="#FFFFFF" x="166.540845" y="53.150108" width="115.204225" height="101.460563"></rect>
                <path d="M83.7365671,75.1208271 C79.3390238,67.6903567 70.638829,67.3440447 70.638829,67.3440447 C70.638829,67.3440447 62.1610107,66.2599123 56.7225062,77.5766336 C51.6534071,88.1247527 44.6574062,98.3091821 55.596209,100.778417 L57.5720626,94.6286416 L58.7957053,101.236263 C60.3531804,101.348283 61.9156189,101.374986 63.4760123,101.316251 C75.1905843,100.938037 86.3469453,101.426908 85.9877264,97.2232267 C85.5102352,91.6350254 87.967889,82.2704458 83.7365671,75.1208271 Z" id="Path" stroke="#979797" stroke-width="0.5" fill="#9BA7AB"></path>
                <path d="M66.8699328,92.2950648 C66.8699328,92.2950648 72.0311185,104.337831 65.1495497,106.746384 L72.0311306,129.455602 L83.7298166,128.767441 L86.8265304,121.197703 L86.1383691,109.843094 L85.1061352,102.273355 C85.1061352,102.273355 77.8804736,103.993739 78.5686309,91.2628268 L66.8699328,92.2950648 Z" id="Path" stroke="#DDC5A5" stroke-width="0.5" fill="#F2DBBC"></path>
                <circle id="Oval" stroke="#DDC5A5" stroke-width="0.5" fill="#F2DBBC" cx="71.5149995" cy="84.8973649" r="11.3546093"></circle>
                <path d="M64.1172997,106.402303 C64.1172997,106.402303 52.7626904,105.370069 53.7949283,113.627965 C54.8271663,121.88586 55.8594002,123.606268 55.8594002,123.606268 L56.8916381,135.993115 L50.6982145,139.777986 L44.8488715,139.777986 C44.8488715,139.777986 26.956762,143.906934 35.9028188,148.379962 C44.8488756,152.85299 47.9455854,144.939172 47.9455854,144.939172 C47.9455854,144.939172 64.4613763,144.939172 65.4936142,142.186538 C66.5258522,139.433905 64.1172997,106.402303 64.1172997,106.402303 Z" id="Path" stroke="#DDC5A5" stroke-width="0.5" fill="#F2DBBC"></path>
                <path d="M86.1383569,102.961513 C86.1383569,102.961513 96.804809,99.1766457 97.4929662,107.434541 C98.1811235,115.692437 98.1811235,116.380598 98.1811235,116.380598 L100.245599,128.079284 C100.245599,128.079284 104.374547,138.401655 104.374547,141.498353 C104.374547,144.595051 107.471261,154.229277 107.471261,154.229277 C107.471261,154.229277 111.600209,167.648346 107.12718,167.304281 C102.654152,166.960217 101.965995,152.852962 101.965995,152.852962 L92.6758612,134.272691 L89.9232281,122.918082 L86.1383569,102.961513 Z" id="Path" stroke="#DDC5A5" stroke-width="0.5" fill="#F2DBBC"></path>
                <path d="M65.8376949,105.025989 L63.0850617,105.025989 L62.7409811,119.477308 C62.7409811,119.477308 58.2679567,125.670731 63.773219,131.175994 L65.1495376,140.122046 L90.2672925,139.089808 L91.9876756,129.799675 C91.9876756,129.799675 95.4284661,122.229937 90.611357,115.348356 L86.1383286,101.241113 L83.7297761,101.241113 C83.7297761,101.241113 89.3082477,121.809534 77.5363808,122.229929 C67.9021789,122.574022 65.8376949,105.025989 65.8376949,105.025989 Z" id="Path" stroke="#B77064" stroke-width="0.5" fill="#E49281"></path>
                <path d="M97.3293803,154.610667 L61.2199296,154.610667 C63.123831,149.064696 64.3405493,145.624738 64.4537324,145.309442 C64.455636,145.301115 64.4583435,145.292992 64.4618169,145.285189 L65.2985634,142.496034 L65.6461972,141.339949 L66.0221268,140.08685 L66.5274085,138.401231 L88.8891549,137.714048 L89.5157042,139.120752 L91.6419296,143.90678 C91.8272975,143.961926 92.0031456,144.045086 92.1633803,144.153378 C93.7519859,145.196247 95.5063239,148.97172 97.3293803,154.610667 Z" id="Path" fill="#9BA7AB"></path>
                <path d="M91.2995507,134.960865 L64.1173078,135.993103 C64.1173078,135.993103 62.8767119,145.283236 64.1173078,145.283236 C64.4613844,145.283236 92.6758693,147.691793 92.3317886,143.562853 C91.987708,139.433913 91.2995507,134.960865 91.2995507,134.960865 Z" id="Path" fill="#D2DADD"></path>
                <circle id="Oval" stroke="#979797" stroke-width="0.5" fill="#9BA7AB" cx="71.7036434" cy="67.3816821" r="6.29071258"></circle>
                <path d="M64.7507491,65.7262298 C64.7510733,62.5085074 67.1794383,59.8097042 70.3792718,59.4708788 C70.1593106,59.447573 69.9382824,59.4357683 69.7170901,59.4355119 C67.3894921,59.4340506 65.2513149,60.7179383 64.1586519,62.7731273 C63.0659888,64.8283162 63.1974407,67.3188763 64.5003762,69.2476255 C65.8033117,71.1763747 68.06476,72.22805 70.3792718,71.9815767 C67.1794398,71.6427515 64.7510753,68.9439506 64.7507491,65.7262298 L64.7507491,65.7262298 Z" id="Path" fill="#9BA7AB"></path>
                <polygon id="Path" fill="#9BA7AB" points="81.7921704 74.4045479 73.1971268 69.9022859 61.3270493 71.7439366 58.8713803 82.5905155 64.9844803 82.3556606 66.6923324 78.3704028 66.6923324 82.2897718 69.5134211 82.1814394 71.1505338 75.8371225 72.1736282 82.5905155 82.2016507 82.3859775"></polygon>
                <path d="M214.220293,86.7204576 C214.220293,86.7204576 215.651412,93.518279 215.651412,94.2338387 C215.651412,94.9493984 222.449233,98.1694172 222.449233,98.1694172 L228.531491,97.0960776 L230.678174,90.6560361 C230.678174,90.6560361 227.100376,85.2893382 227.100376,83.142659 L214.220293,86.7204576 Z" id="Path" stroke="#DDC5A5" stroke-width="0.5" fill="#F1DBBE"></path>
                <circle id="Oval" stroke="#DDC5A5" stroke-width="0.5" fill="#F1DBBE" cx="218.692541" cy="77.9548511" r="11.4489595"></circle>
                <path d="M273.0751,152.730866 C273.0751,152.730866 282.73516,158.813123 281.66182,162.748706 C280.588481,166.684288 269.497301,155.950885 269.497301,155.593109 C269.497301,155.235333 273.0751,152.730866 273.0751,152.730866 Z" id="Path" fill="#F2DBBC"></path>
                <path d="M245.069704,154.610667 L247.761845,154.610667 L246.957437,151.65578 C246.824421,151.747626 246.686806,151.832623 246.545127,151.910442 C245.490099,152.508696 242.341183,154.008372 236.395028,154.610667 C232.68416,154.955738 228.949277,154.955738 225.238408,154.610667 C221.111922,154.245043 217.01288,153.617226 212.966127,152.731019 L212.250648,152.731019 L211.850465,154.610667 L245.069704,154.610667 L245.069704,154.610667 Z" id="Path" fill="#9BA7AB"></path>
                <path d="M208.764034,68.7308045 C208.764034,68.7308045 212.399039,60.8549666 219.366126,62.6724689 C226.333212,64.4899712 230.271131,67.2162206 230.57405,69.9424619 C230.876968,72.6687032 230.422591,76.7581055 230.422591,76.7581055 C230.422591,76.7581055 229.665299,71.1541435 224.818629,72.3657929 C219.971958,73.5774422 212.399039,72.6687113 212.399039,72.6687113 L211.187369,83.5737169 C211.187369,83.5737169 209.824245,81.6047594 208.309661,82.8164249 C206.795077,84.0280904 203.917368,71.1541395 208.764034,68.7308045 Z" id="Path" stroke="#979797" stroke-width="0.5" fill="#9BA7AB"></path>
                <path d="M208.309451,154.610667 L198.462521,154.610667 L197.763211,153.268639 C193.470338,145.75409 193.470338,135.377625 193.470338,135.377625 L195.972493,114.268977 C195.616775,106.754428 200.265366,102.821315 200.265366,102.821315 L205.633479,102.821315 L209.570634,116.059696 L207.509085,123.824865 L204.918,133.590949 L204.202521,134.662146 C204.202521,134.662146 204.918,135.737386 204.558239,136.093104 C204.202521,136.452844 203.842761,137.883822 203.842761,137.883822 C203.842761,137.883822 204.918,145.038611 205.993219,145.75409 C207.064416,146.469569 205.633459,146.469569 205.633459,146.829329 C205.633459,147.185048 206.708698,148.616005 206.708698,148.616005 L206.708698,150.406724 L208.309451,154.610667 Z" id="Path" stroke="#B77064" stroke-width="0.5" fill="#E8927C"></path>
                <path d="M241.05379,93.8760588 L247.136052,94.9493984 C247.136052,94.9493984 250.71385,98.527197 252.14497,102.820555 L255.007213,115.700638 L259.658351,125.002915 C259.658351,125.002915 265.025049,130.369617 268.960631,142.534136 L274.685109,153.267532 L268.602851,156.84533 C268.602851,156.84533 251.78719,137.16743 249.640511,130.369613 L240.338246,112.480616 L241.05379,93.8760588 Z" id="Path" stroke="#B77064" stroke-width="0.5" fill="#E8927C"></path>
                <path d="M245.069704,154.610667 L246.545127,151.910442 L246.779577,151.477921 L243.917662,121.068048 L244.087437,119.693681 L247.135296,94.9510477 L229.490859,88.7461885 L229.486817,88.7461885 C229.416534,91.9442259 227.300282,94.7354614 224.239972,95.6665265 C218.871859,97.4532026 215.177239,91.4383294 215.177239,91.4383294 L200.265366,102.821315 L207.509085,123.824865 L211.001592,133.946667 C211.001592,133.946667 211.35731,145.75409 211.71707,146.829329 C212.072789,147.900527 211.35731,148.260287 211.001592,148.616005 C210.641831,148.975766 211.35731,150.046963 211.71707,150.046963 C211.89493,150.046963 212.250648,151.388991 212.565944,152.731019 C212.727634,153.418203 212.877197,154.105386 212.982296,154.610667 L245.069704,154.610667 Z" id="Path" stroke="#B77064" stroke-width="0.5" fill="#E6927F"></path>
            </g>
        </g>
    </g>
</svg>