<svg xmlns="http://www.w3.org/2000/svg" width="312" height="287" viewBox="0 0 312 287">
    <g fill="none" fill-rule="nonzero">
        <path fill="#D2DADD" d="M17.046 101.913c5.088 9.437 15.887 13.487 15.887 13.487s2.55-11.248-2.539-20.685c-5.088-9.437-15.887-13.488-15.887-13.488s-2.55 11.25 2.539 20.686z"/>
        <path fill="#F8DEDC" d="M20.543 98.808c9.187 5.527 12.725 16.505 12.725 16.505s-11.357 2.018-20.543-3.51C3.538 106.278 0 95.299 0 95.299s11.356-2.017 20.543 3.51z"/>
        <path fill="#D2DADD" d="M258.75 237.342c29.169 0 52.815 8.065 52.815 18.014l-.007-.293c.005.096.007.194.007.293 0 9.95-23.646 31.525-52.815 31.525-29.168 0-52.814-21.576-52.814-31.525l.007-.293c.466-9.816 23.93-17.72 52.807-17.72z" opacity=".246"/>
        <path fill="#F1F1F1" d="M31.116 123.525h167.86v95.803H31.116z"/>
        <ellipse cx="277.379" cy="16.667" fill="#9BA7AB" rx="16.172" ry="15.148"/>
        <path fill="#F3E3CC" d="M230.296 111.038l-4.094 5.731s-19.652 4.095-12.283 10.236c7.37 6.141 18.015-5.732 18.015-5.732l5.731-7.37-7.369-2.865z"/>
        <path fill="#E29283" d="M251.586 45.94s-5.323 0-6.551 7.37c-1.228 7.37-2.457 31.934-2.457 31.934s-17.195 22.518-14.33 25.384c2.867 2.866 6.142 8.188 8.19 7.37 2.046-.82 19.651-24.975 19.651-24.975l-4.503-47.082z"/>
        <path fill="#E29283" d="M251.586 45.94s-5.323 0-6.551 7.37c-1.228 7.37-2.457 31.934-2.457 31.934s-17.195 22.518-14.33 25.384c2.867 2.866 6.142 8.188 8.19 7.37 2.046-.82 19.651-24.975 19.651-24.975l-4.503-47.082z" opacity=".1"/>
        <path fill="#E7D7C1" d="M267.962 25.06s-.41 15.968-5.322 16.786c-4.913.82-3.276 6.142-3.276 6.142s15.968 9.416 26.612 0l2.048-4.913s-7.37-5.323-4.095-12.692l-15.967-5.323z"/>
        <path fill="#D2DADD" d="M240.531 123.32s-24.155 45.036-15.148 58.956c9.007 13.92 22.518 42.579 24.565 42.579 2.047 0 13.51-5.732 12.692-9.417-.819-3.684-13.101-31.115-16.377-33.572-3.275-2.456-1.637-9.007-1.228-9.416.41-.41 13.92-22.109 13.92-22.109s-.41 34.391 1.228 39.714c1.638 5.322-.41 43.398 1.638 45.035 2.047 1.638 11.464 4.504 13.101 2.047 1.638-2.456 6.55-39.713 3.276-48.31l6.14-58.956-43.807-6.551z"/>
        <path fill="#9BA7AB" d="M262.64 232.634l-10.236 18.833s-14.739 10.645-4.503 12.282c10.235 1.638 16.376-2.456 16.376-2.456l9.008-6.55v-18.834l-10.645-3.275z"/>
        <path fill="#9BA7AB" d="M248.72 221.99l5.322 12.69s2.047 5.323 0 6.552c-2.047 1.228-7.779 8.597-4.094 9.416.741.145 1.494.22 2.25.224a22.75 22.75 0 0 0 16.54-6.73l3.318-3.32s-11.37-26.181-11.211-25.987c.157.194-12.125 7.154-12.125 7.154z"/>
        <circle cx="278.198" cy="20.966" r="13.92" fill="#F3E3CD"/>
        <path fill="#E29283" d="M286.181 40.413l-4.299 4.3s-13.101 4.912-19.242 0c0 0 2.252-4.709 2.252-4.3 0 .41-17.81 3.071-19.448 10.44-1.637 7.37 1.229 20.062 1.229 20.062s-11.464 54.043-6.96 55.27c4.503 1.23 46.673 11.465 46.263 3.686-.409-7.78 3.276-39.714 3.276-39.714l14.33-27.43s-2.048-9.008-6.96-11.873c-4.914-2.866-10.44-10.44-10.44-10.44z"/>
        <path fill="#F3E3CD" d="M267.962 120.454l-5.322 3.275s-20.471 13.92-9.826 16.377c10.645 2.457 16.786-9.826 16.786-9.826l4.094-4.913-5.732-4.913z"/>
        <path fill="#000" d="M298.259 60.27l3.685 3.685s2.456 34.39-2.457 41.35c-4.913 6.96-27.43 25.794-28.659 24.566-1.228-1.229-9.007-7.37-7.37-8.189 1.638-.818 23.412-23.57 23.412-23.57l-1.712-31.7 13.1-6.142z" opacity=".1"/>
        <path fill="#E29283" d="M299.897 59.042l3.684 3.685s2.457 34.39-2.456 41.35c-4.913 6.96-27.431 25.794-28.66 24.565-1.227-1.228-9.006-7.37-7.369-8.188 1.638-.819 23.412-23.57 23.412-23.57l-1.713-31.7 13.102-6.142z"/>
        <path fill="#9BA7AB" d="M272.44 1.194s-4.731-1.721-11.184 1.935l3.442.86s-5.162.43-5.808 7.313h2.366s-1.505 6.023 0 7.743l.968-1.828 2.796 5.592.645-2.796 1.29.43.861-4.516s2.151 3.226 3.872 3.441v-2.796s4.732 5.377 6.237 5.162l-2.15-3.011 3.01.645-1.29-2.15 7.743 2.15-1.72-2.15 5.376 1.72 2.581 1.075s3.657-8.388-1.505-14.195-12.69-7.098-17.53-4.624zM137.194 175.554c-.344.217-.7.418-1.067.604-6.228 3.132-13.815.632-16.96-5.589l-2.724-5.4 1.828-.922 2.723 5.4a10.58 10.58 0 1 0 18.893-9.528L128.45 137.44a10.58 10.58 0 0 0-18.893 9.529l4.05 8.03-1.829.92-4.05-8.029c-3.137-6.226-.635-13.817 5.59-16.957 6.226-3.14 13.818-.639 16.96 5.586l11.437 22.679a12.63 12.63 0 0 1-4.52 16.356z"/>
        <path fill="#9BA7AB" d="M138.3 203.547c-.339.213-.69.412-1.055.596-6.227 3.132-13.815.632-16.96-5.588l-11.438-22.679c-3.14-6.227-.638-13.82 5.589-16.96 6.226-3.14 13.82-.638 16.96 5.588l3.005 5.958-1.828.922-3.005-5.958a10.58 10.58 0 1 0-18.893 9.528l11.438 22.68a10.58 10.58 0 1 0 18.893-9.53l-3.937-7.805 1.828-.922 3.937 7.806a12.645 12.645 0 0 1-4.534 16.364z"/>
        <path fill="#2F2E41" d="M219.856 220.147H30.706v-105.22h189.15v105.22zm-188.331-.82h187.512V115.747H31.525v103.582z"/>
    </g>
</svg>
