<svg xmlns="http://www.w3.org/2000/svg" width="685" height="289" viewBox="0 0 685 289">
    <g fill="none" fill-rule="evenodd" transform="translate(1 1)">
        <ellipse cx="341.5" cy="275" fill="#EFF1F2" fill-rule="nonzero" stroke="#979797" stroke-width=".5" rx="341.5" ry="12"/>
        <path fill="#9BA7AB" fill-rule="nonzero" stroke="#979797" stroke-width=".5" d="M608.122 206.179a14.47 14.47 0 0 0 1.877-7.275c0-6.573-4.019-11.904-9.002-11.904-4.983 0-8.996 5.331-8.996 11.904a14.47 14.47 0 0 0 1.877 7.275 15.034 15.034 0 0 0 0 14.55 15.022 15.022 0 0 0 0 14.543 15.034 15.034 0 0 0 0 14.55 14.47 14.47 0 0 0-1.877 7.274c0 6.573 4.019 11.904 8.996 11.904 4.978 0 9.002-5.331 9.002-11.904a14.47 14.47 0 0 0-1.877-7.275 15.034 15.034 0 0 0 0-14.55 15.022 15.022 0 0 0 0-14.543 15.034 15.034 0 0 0 0-14.55z"/>
        <ellipse cx="601" cy="185" fill="#9BA7AB" fill-rule="nonzero" rx="9" ry="12"/>
        <ellipse cx="601" cy="170" fill="#3F3D56" fill-rule="nonzero" rx="9" ry="12"/>
        <path fill="#F8DEDC" fill-rule="nonzero" stroke="#979797" stroke-width=".5" d="M567.31 70.566a43.799 43.799 0 0 1-3.384-4.986l23.86-3.925-25.806.192a43.752 43.752 0 0 1-.828-34.534l34.616 17.995-31.923-23.516C571.988 7.659 587.325-.731 603.591.05c16.265.781 30.732 10.603 37.488 25.45a43.661 43.661 0 0 1-5.406 45.055 43.024 43.024 0 0 1 4.959 7.953L609.665 94.64l33.017-11.105a43.683 43.683 0 0 1-7.015 40.926c14.03 17.866 12 43.54-4.663 58.968-16.664 15.428-42.362 15.428-59.025 0-16.664-15.429-18.694-41.102-4.664-58.968-12.411-15.812-12.411-38.083 0-53.895h-.006z"/>
        <path fill="#000" fill-rule="nonzero" d="M644.994 97.64a43.355 43.355 0 0 1-9.311 26.913c14.033 17.843 12.002 43.482-4.664 58.89-16.667 15.41-42.37 15.41-59.038 0-16.666-15.408-18.697-41.047-4.664-58.89-5.857-7.404 77.677-31.794 77.677-26.913z" opacity=".1"/>
        <path fill="#F6F8F8" fill-rule="nonzero" stroke="#979797" stroke-width=".5" d="M120.42 4H573c6.075 0 11 4.925 11 11v233.58c0 11.278-9.142 20.42-20.42 20.42H120.42c-11.278 0-20.42-9.142-20.42-20.42V24.42C100 13.142 109.142 4 120.42 4z"/>
        <path fill="#D2DADD" fill-rule="nonzero" stroke="#979797" stroke-width=".5" d="M100 17h156v252H111.886c-6.564 0-11.886-5.308-11.886-11.857V17z"/>
        <path fill="#9BA7AB" fill-rule="nonzero" stroke="#979797" stroke-width=".5" d="M584 16.118V23H100v-6.882c0-3.215 1.249-6.298 3.471-8.57A11.71 11.71 0 0 1 111.851 4H572.15a11.71 11.71 0 0 1 8.379 3.547A12.262 12.262 0 0 1 584 16.118z"/>
        <circle cx="112.5" cy="13.5" r="3.5" fill="#D2DADD" fill-rule="nonzero"/>
        <circle cx="120.5" cy="13.5" r="3.5" fill="#D2DADD" fill-rule="nonzero"/>
        <circle cx="129.5" cy="13.5" r="3.5" fill="#D2DADD" fill-rule="nonzero"/>
        <rect width="201" height="6" x="355" y="54" fill="#E09285" fill-rule="nonzero" opacity=".3" rx="1.24"/>
        <rect width="42" height="15" x="511" y="66" fill="#E09285" fill-rule="nonzero" rx="1.24"/>
        <rect width="201" height="6" x="355" y="132" fill="#E09285" fill-rule="nonzero" opacity=".3" rx="1.24"/>
        <rect width="42" height="15" x="511" y="144" fill="#E09285" fill-rule="nonzero" rx="1.24"/>
        <rect width="201" height="6" x="355" y="211" fill="#E09285" fill-rule="nonzero" opacity=".3" rx="1.24"/>
        <rect width="42" height="15" x="511" y="223" fill="#E09285" fill-rule="nonzero" rx="1.24"/>
        <ellipse cx="311" cy="145.5" fill="#D2DADD" fill-rule="nonzero" stroke="#979797" stroke-width=".5" opacity=".403" rx="29" ry="28.5"/>
        <path fill="#9BA7AB" fill-rule="nonzero" d="M336 159.865a.809.809 0 0 1-.121.191c-.312.52-.65 1.022-1.012 1.507a28.537 28.537 0 0 1-12.568 9.856c-.497.209-1.005.4-1.52.581a10.17 10.17 0 0 1-1.317-1.273 9.975 9.975 0 0 1-2.311-4.82c-.762.147-1.536.221-2.312.22a1.539 1.539 0 0 1-.231 0c-5.952-.105-11.06-4.489-13.342-10.746l-.093-.267a21.871 21.871 0 0 1-.45-12.641c.028-.14.074-.28.115-.413 1.953-6.751 7.107-11.67 13.238-12.06h1.324c7.766.285 14.018 7.844 14.307 17.299a10.067 10.067 0 0 1 4.398 9.838c.774.8 1.415 1.721 1.895 2.728z"/>
        <path fill="#000" fill-rule="nonzero" d="M336 160.476a18.254 18.254 0 0 1-1.02 1.524 9.614 9.614 0 0 0-1.555-2.089c.067-.486.102-.975.105-1.465 0-3.422-1.706-6.614-4.539-8.492-.32-9.768-6.898-17.57-14.956-17.57-5.756 0-10.749 3.965-13.26 9.791-.064.153-.122.3-.192.46-.21.505-.397 1.017-.583 1.553.205-1.076.492-2.135.856-3.166l.082-.083c2.243-6.243 7.254-10.674 13.138-10.939h1.335c7.719.47 13.9 8.085 14.198 17.554 3.275 2.16 5.01 6.046 4.445 9.956a10.047 10.047 0 0 1 1.946 2.966z" opacity=".1"/>
        <path fill="#E8D3B7" fill-rule="nonzero" d="M306.148 152.08c.07.619.004 1.246-.193 1.832-.336.836-1.139 1.587-.917 2.442.23.544.686.938 1.23 1.062 2.453.891 5.122.36 7.718.482.864.082 1.733.114 2.6.098a3.969 3.969 0 0 0 2.414-.904 20.509 20.509 0 0 1-3.796-2.558 4.416 4.416 0 0 1-.769-.787 5.104 5.104 0 0 1-.666-2.796v-2.906c-1.855 0-3.705-.03-5.56-.03-.57 0-2.408-.153-2.619.537-.102.341.296 1.349.359 1.733.095.595.162 1.194.2 1.795z"/>
        <circle cx="309.5" cy="144.5" r="6.5" fill="#EEDBC2" fill-rule="nonzero"/>
        <path fill="#E09285" fill-rule="nonzero" d="M321.975 164.096c0 .182-.035.375-.064.586a17.842 17.842 0 0 1-.953 3.192c-.247.7-.544 1.381-.889 2.038-.25.451-.584.867-.853 1.306l-.386.627a8.546 8.546 0 0 0-.625 1.323c-1.128.29-2.274.499-3.431.627a28.62 28.62 0 0 1-3.408.205c-6.108 0-12.696-1.587-17.366-4.832 0 0 .684-.474.585-.585 0-.27-.03-.533-.03-.803a6.031 6.031 0 0 1 .333-2.038 4.101 4.101 0 0 1 1.012-1.663c.584-.586 1.367-.949 1.993-1.511a5.93 5.93 0 0 0 1.63-2.84c.147-.47.252-.967.351-1.447.09-.657.27-1.298.538-1.904.037-.077.08-.151.129-.222.089-.15.195-.29.315-.416a6.838 6.838 0 0 1 2.058-1.382c.637-.328 1.531-.586 1.976-.041v.04c.145.336.268.68.368 1.032.356.738 1.35.831 2.157.814 2.852-.06 5.699-.299 8.522-.715l1.368-.222c.988-.164 1.677.702 2.233 1.546 1.437 2.173 2.653 4.673 2.437 7.285z"/>
        <path stroke="#000" d="M302 164c-.626.146-.989.801-1.281 1.396a5.564 5.564 0 0 0-.696 3.242c-.017.444.028.888.134 1.318.108.433.372.807.737 1.044" opacity=".1"/>
        <ellipse cx="311.409" cy="139.873" fill="#9BA7AB" fill-rule="nonzero" rx="3.68" ry="7.461" transform="rotate(-75.66 311.41 139.873)"/>
        <path fill="#000" fill-rule="nonzero" d="M311 142.052c-3.655-.966-6.36-3.096-6.58-5.052a2.01 2.01 0 0 0-.36.75c-.52 2.098 2.393 4.68 6.504 5.77 4.11 1.089 7.868.266 8.376-1.858.058-.234.074-.478.048-.718-1.095 1.56-4.404 2.055-7.987 1.108z" opacity=".1"/>
        <path fill="#EEDBC2" fill-rule="nonzero" d="M322.985 168.211c0 .992 0 1.979-.065 2.96a27.96 27.96 0 0 1-1.56.57c-.777.259-1.569.476-2.372.649a26.08 26.08 0 0 1-3.48.61c-.208-2.36-.677-4.635-.445-7.029a11.046 11.046 0 0 1 1.91-5.13 4.485 4.485 0 0 1 1.725-1.603 2.194 2.194 0 0 1 2.27.171c.404.406.687.908.82 1.454.4 1.07.72 2.165.96 3.278 0 .12.041.25.06.376.163 1.225.223 2.46.177 3.694z"/>
        <path fill="#D2DADD" fill-rule="nonzero" stroke="#979797" stroke-width=".5" d="M338.942 223.511a28.38 28.38 0 0 1-3.453 13.649c-.254.46-.518.927-.818 1.387a.8.8 0 0 1-.12.19c-.311.514-.647 1.011-1.008 1.491a28.171 28.171 0 0 1-8.145 7.553l-.167.115a29.431 29.431 0 0 1-4.207 2.09c-.323.132-.622.253-.944.356-.162.07-.334.127-.501.184a.219.219 0 0 0-.058 0c-.351.127-.714.236-1.07.346l-.271.063c-.322.098-.645.179-.967.248-1.112.284-2.243.49-3.385.616a27.722 27.722 0 0 1-3.332.201h-.346a25.953 25.953 0 0 1-4.605-.426l-.276-.046a10.003 10.003 0 0 1-.846-.173l-.536-.12a16.859 16.859 0 0 1-1.68-.461 27.26 27.26 0 0 1-3.299-1.226l-.12-.052a28.17 28.17 0 0 1-4.485-2.55c-.12-.07-.235-.15-.345-.236-10.983-7.83-14.973-22.288-9.56-34.644 5.412-12.355 18.745-19.223 31.947-16.458C329.546 198.374 339 210.017 339 223.506l-.058.005z" opacity=".403"/>
        <path fill="#9BA7AB" fill-rule="nonzero" d="M318 217.27a6 6 0 0 1-6 5.73 6 6 0 0 1-6-5.73v-.285c0-3.305 2.686-5.985 6-5.985s6 2.68 6 5.985c-.006.091 0 .188 0 .285z"/>
        <path fill="#9BA7AB" fill-rule="nonzero" d="M318 217.377c-.14 3.144-2.785 5.623-6 5.623s-5.86-2.479-6-5.623v-.28c3.49-2.796 8.51-2.796 12 0-.006.09 0 .185 0 .28z" opacity=".1"/>
        <circle cx="311.5" cy="224.5" r="9.5" fill="#9BA7AB" fill-rule="nonzero"/>
        <path fill="#9BA7AB" fill-rule="nonzero" d="M305.644 215.997c.003-3.005 2.292-5.545 5.356-5.943-2.382-.313-4.735.747-6.03 2.716a5.86 5.86 0 0 0 0 6.46c1.295 1.97 3.648 3.03 6.03 2.716-3.067-.398-5.356-2.941-5.356-5.949zM301.155 229.099c-2.237-2.057-2.666-5.52-1.003-8.099-.2.184-.39.381-.567.59-1.469 1.651-1.962 4.001-1.29 6.14.674 2.138 2.407 3.73 4.53 4.157 2.123.427 4.302-.376 5.693-2.098a6.54 6.54 0 0 0 .482-.65 5.783 5.783 0 0 1-7.845-.04z"/>
        <path fill="#E8D3B7" fill-rule="nonzero" d="M306.178 236.774a5.466 5.466 0 0 0-1.479.523c-.822.601-.793 1.804-.548 2.784.56 2.237 1.932 4.384 4.03 5.298 1.3.484 2.684.688 4.067.602 1.496 0 3.19-.205 4.12-1.396a5.54 5.54 0 0 0 .84-2.08c.46-1.804.924-3.668.757-5.533-.906.079-1.92.133-2.635-.445-.715-.577-.876-1.677-1.192-2.591a.68.68 0 0 0-.233-.373.751.751 0 0 0-.417-.06c-.952.04-1.905 0-2.85-.12-.596-.079-2.04-.698-2.48-.175-.322.379-.12 1.533-.37 2.069a2.848 2.848 0 0 1-1.61 1.497z"/>
        <circle cx="311.5" cy="229.5" r="6.5" fill="#EEDBC2" fill-rule="nonzero"/>
        <path fill="#E09285" fill-rule="nonzero" d="M326 243.549c-.046.056-.093.124-.145.18l-.284.36a21.073 21.073 0 0 0-3.435 5.546c-.313.135-.638.265-.962.394-.324.13-.626.248-.95.35-.162.067-.336.123-.504.18a.226.226 0 0 0-.058 0c-.353.123-.718.23-1.078.337l-.272.062c-.324.096-.649.175-.973.242-1.12.28-2.258.48-3.407.603a28.759 28.759 0 0 1-3.354.197h-.348a26.857 26.857 0 0 1-4.635-.417l-.278-.045c-.283-.045-.579-.101-.851-.169l-.539-.118a17.358 17.358 0 0 1-1.692-.45 4.898 4.898 0 0 1 1.246-2.534c-1.304-1.515-3.447-2.111-4.832-3.541a4.549 4.549 0 0 1-.336-.428 1.777 1.777 0 0 1-.18-.344.94.94 0 0 1-.075-.298 2.536 2.536 0 0 1-.052-.63c-.035-1.6.04-3.424 1.315-4.426a6.082 6.082 0 0 1 2.074-.901 25.888 25.888 0 0 0 3.766-1.475c.111.251.185.516.22.788.116.653.104 1.34.26 1.987a4.804 4.804 0 0 0 2.063 2.816 8.024 8.024 0 0 0 3.395 1.199c1.194.169 2.144-.434 3.268-.845a3.819 3.819 0 0 0 1.35-.743c.507-.57.778-1.302.759-2.055 0-.743-.087-1.486-.041-2.252.001-.078.01-.155.029-.231a.943.943 0 0 1 .66-.884c.217-.017.435.022.632.113l2.167.805a15.23 15.23 0 0 1 2.7 1.21c1.917 1.21 3.16 3.205 3.377 5.417z"/>
        <path fill="#000" fill-rule="nonzero" d="M306 252l-.266-.047a9.126 9.126 0 0 1-.815-.177l-.516-.124a15.473 15.473 0 0 1-1.62-.473 25.275 25.275 0 0 1-3.177-1.257 15.512 15.512 0 0 1-.554-5.56c.067-.805.223-1.597.465-2.362 1.165 1.18 3.15.514 4.47 1.458.358.27.65.626.854 1.039.37.757.62 1.572.743 2.414.083.46.16.927.227 1.394v.442c.045.33.084.673.1 1.01.089.761.089 1.493.089 2.243z" opacity=".1"/>
        <path fill="#E09285" fill-rule="nonzero" d="M304.994 252a9.488 9.488 0 0 1-.814-.169l-.515-.118a16.015 16.015 0 0 1-1.617-.45 25.962 25.962 0 0 1-3.174-1.2l-.116-.05a14.58 14.58 0 0 1-.704-5.896c.08-.72.232-1.43.454-2.117 1.163 1.126 3.146.501 4.465 1.402.507.371.893.89 1.107 1.487.216.578.377 1.175.482 1.784.122.66.238 1.318.316 1.988.017.093.027.187.028.282v.444c.105.862.1 1.74.088 2.613z"/>
        <path fill="#000" fill-rule="nonzero" d="M325.785 248.994a28.05 28.05 0 0 1-3.13 1.668c-.298.137-.609.268-.919.399-.31.13-.598.25-.908.353-.155.068-.321.125-.482.182a.205.205 0 0 0-.055 0c-.338.125-.687.233-1.03.341L319 252c0-.507 0-1.03.055-1.543.04-.404.083-.808.139-1.212 0-.074 0-.148.028-.222a.626.626 0 0 0 0-.143c.066-.387.138-.78.21-1.167a7.272 7.272 0 0 1 .742-2.328 2.82 2.82 0 0 1 .859-.979c1.318-.91 3.323-.29 4.43-1.406.219.661.37 1.344.45 2.038.15 1.318.107 2.651-.128 3.956z" opacity=".1"/>
        <path fill="#E09285" fill-rule="nonzero" d="M325.717 248.773l-.161.12a27.757 27.757 0 0 1-3.144 1.76c-.301.145-.613.283-.924.422a11.65 11.65 0 0 1-.913.372c-.156.072-.323.132-.484.192a.196.196 0 0 0-.056 0c-.34.133-.69.247-1.035.361 0-.71 0-1.412.056-2.115 0-.18 0-.367.044-.547v-.247-.186c.084-.649.184-1.28.306-1.917.106-.65.268-1.288.484-1.905a3.363 3.363 0 0 1 1.113-1.587c1.325-.961 3.34-.306 4.453-1.496.239.755.396 1.538.467 2.332.15 1.483.08 2.982-.206 4.44z"/>
        <ellipse cx="311" cy="223.5" fill="#9BA7AB" fill-rule="nonzero" rx="8" ry="5.5"/>
        <path fill="#000" fill-rule="nonzero" d="M304.54 251.227v.729a.149.149 0 0 0 0 .044l-.533-.116a1.635 1.635 0 0 1 0-.292 3.51 3.51 0 0 1 1.28-2.7.844.844 0 0 1 .177-.137c.308-.24.658-.428 1.033-.552.344-.128.71-.195 1.078-.199a.68.68 0 0 1 .15 0c.091-.005.183-.005.275 0h-.19a3.71 3.71 0 0 0-2.294 1.104c-.067.06-.127.126-.178.199a3.459 3.459 0 0 0-.798 1.92z" opacity=".05"/>
        <path fill="#E09285" fill-rule="nonzero" d="M311 251.887c0 .375-.044.748-.13 1.113a26.244 26.244 0 0 1-4.72-.443l-.283-.048c-.289-.047-.59-.107-.867-.18v-.047-.395-.395c.05-.802.32-1.575.779-2.231.052-.083.114-.159.183-.228.275-.348.629-.623 1.032-.801.31-.15.648-.228.991-.228a.396.396 0 0 1 .118 0c.08-.005.162-.005.242 0 1.493.258 2.655 1.897 2.655 3.883z"/>
        <path fill="#000" fill-rule="nonzero" d="M321 250.833c-.163.062-.338.115-.507.167a3.172 3.172 0 0 0-1.038-1.987l-.175-.157a4.045 4.045 0 0 0-2.088-.852H317c.09-.005.179-.005.268 0a.825.825 0 0 1 .158 0c.376.008.748.071 1.102.188.28.086.548.202.799.345.064.03.123.069.174.115.804.519 1.344 1.304 1.499 2.18z" opacity=".05"/>
        <path fill="#E09285" fill-rule="nonzero" d="M320 251.615a.212.212 0 0 0-.06 0c-.36.138-.733.257-1.1.376l-.278.069c-.331.106-.663.194-.994.27-1.143.31-2.306.534-3.48.67a5.058 5.058 0 0 1-.088-.959c0-2.08 1.183-3.798 2.669-4.036.078-.007.158-.007.236 0a.347.347 0 0 1 .113 0c.348-.002.691.08 1.006.238.294.138.563.332.793.57.064.052.124.11.177.176a4.647 4.647 0 0 1 1.006 2.626z"/>
        <path fill="#000" fill-rule="nonzero" d="M310.991 228.427c-4.285 0-7.784-2.402-7.991-5.427v.283c0 3.16 3.585 5.717 8.003 5.717s7.997-2.556 7.997-5.717V223c-.23 3.025-3.729 5.427-8.009 5.427z" opacity=".1"/>
        <path fill="#D2DADD" fill-rule="nonzero" stroke="#979797" stroke-width=".5" d="M282 67.531a28.445 28.445 0 0 0 3.454 13.644c.259.467.524.933.817 1.388a.835.835 0 0 0 .127.19c.317.509.66 1.001 1.03 1.474a27.327 27.327 0 0 0 4.11 4.542c.285.273.585.53.898.771a25.58 25.58 0 0 0 3.131 2.24l.173.115a30.955 30.955 0 0 0 3.246 1.693l.962.397c.316.132.616.259.944.363.16.063.328.12.5.178h.081c.35.127.706.242 1.07.346l.266.063c.322.098.65.184.972.247.438.116.87.213 1.318.294.674.132 1.37.248 2.061.328 1.106.132 2.22.198 3.333.196h.34a26.518 26.518 0 0 0 4.605-.432 2.13 2.13 0 0 0 .276-.046c.282-.046.575-.104.846-.173a8.94 8.94 0 0 0 .535-.12 16.298 16.298 0 0 0 1.681-.455c.34-.11.674-.213 1.007-.328.674-.236 1.347-.49 1.992-.778.1-.033.199-.073.294-.12l.126-.058c.852-.384 1.681-.812 2.487-1.284a26.575 26.575 0 0 0 1.997-1.267h.04c.106-.06.206-.13.3-.207 10.996-7.824 14.998-22.288 9.588-34.653-5.41-12.365-18.75-19.24-31.957-16.47-13.207 2.77-22.662 14.425-22.65 27.922z" opacity=".403"/>
        <path fill="#E09285" fill-rule="nonzero" d="M317.145 78.46c.43.387.73.904.855 1.476-.85.229-1.716-.199-2.506-.602a31.5 31.5 0 0 0-7.707-2.536c-.214-.02-.418-.1-.59-.229-.275-.38-.26-.902.035-1.265.295-.313.85-.27 1.25-.289a11.258 11.258 0 0 1 8.663 3.421v.024z"/>
        <path fill="#E8D3B7" fill-rule="nonzero" d="M308.522 76.664a3.435 3.435 0 0 1-1.878 1.922c-.46.168-.953.197-1.418.33-.483.102-.89.429-1.101.883a1.924 1.924 0 0 0-.085.623c-.074 1.992-.13 4.04.652 5.888.675 1.582 1.912 2.829 3.138 4.012 1.43 1.391 2.944 2.8 4.828 3.423 1.1.364 2.4.404 3.313-.317.358-.317.67-.684.925-1.091a13.25 13.25 0 0 0 1.588-2.754c.778-2.032.517-4.306.244-6.47a.524.524 0 0 0-.136-.347.526.526 0 0 0-.397-.07 2.331 2.331 0 0 1-2.366-1.385 3.674 3.674 0 0 1-.13-1.27l.04-2.47a2.13 2.13 0 0 0-.091-.786 1.95 1.95 0 0 0-1.016-.894 24.84 24.84 0 0 0-4.13-1.657c-.624-.185-1.1-.496-1.379.185-.278.68-.278 1.53-.601 2.245z"/>
        <circle cx="315.5" cy="70.5" r="7.5" fill="#EEDBC2" fill-rule="nonzero"/>
        <path fill="#F2F2F2" fill-rule="nonzero" d="M305.3 95.485a28.243 28.243 0 0 0 5.401.515h.341c1.547-.01 3.09-.152 4.612-.425.093-.009.185-.024.276-.045.283-.045.577-.102.848-.17a9.09 9.09 0 0 0 .536-.119 16.554 16.554 0 0 0 1.683-.447c.34-.108.674-.21 1.009-.323a26.27 26.27 0 0 0 1.994-.765 13.682 13.682 0 0 1-.41-1.535 16.656 16.656 0 0 1-.218-3.353c0-.9.04-1.795 0-2.69a6.514 6.514 0 0 0-.317-2.141 2.75 2.75 0 0 0-1.407-1.603c-.859-.374-2.15-.566-2.997-.147-.097.051-.19.11-.277.175a1.411 1.411 0 0 0-.415.567c-.277.68-.576 1.365-.842 2.044-.17.474-.397.926-.674 1.348a3.435 3.435 0 0 1-3.73 1.207 2.231 2.231 0 0 1-.247-.096c-1.153-.46-2.208-1.45-3.413-1.184a2.26 2.26 0 0 0-1.545 1.382 5.664 5.664 0 0 0-.415 1.858 24.347 24.347 0 0 0 .208 5.947z"/>
        <path fill="#E09285" fill-rule="nonzero" d="M292 88.648c.289.278.592.54.909.785a25.891 25.891 0 0 0 3.169 2.276l.175.118a31.277 31.277 0 0 0 3.285 1.72l.973.404c.32.135.623.264.956.37.163.063.332.122.506.18h.082c.353.13.715.246 1.083.352l.268.064c.327.1.659.187.985.252.443.117.88.216 1.334.298.682.135 1.387.252 2.086.334 1.119.134 2.245.2 3.373.199h.343a26.719 26.719 0 0 0 4.66-.439c.095-.01.188-.025.28-.047.286-.047.583-.105.857-.175.186-.036.355-.077.542-.123a16.435 16.435 0 0 0 1.7-.463c.344-.111.682-.216 1.02-.333.682-.24 1.363-.498 2.016-.79a2.26 2.26 0 0 0 .297-.124l.128-.058a26.51 26.51 0 0 0 2.517-1.305A43.97 43.97 0 0 0 327 87.46a.588.588 0 0 1 0-.094c-.909-1.621-1.713-3.307-2.616-4.928a3.748 3.748 0 0 0-3-2.271 7.31 7.31 0 0 0-1.951-.363 7.314 7.314 0 0 1-1.119-.193c-.757-.17-1.596-.334-1.876 0a.1.1 0 0 0-.04.076 1.61 1.61 0 0 0 .133 1.17c.129.37.298.756.385 1.072.052.15.081.308.087.468.021.686-.002 1.372-.07 2.054-.163.995-.71 1.873-.967 2.84-.116.456-.174.93-.25 1.392a15.053 15.053 0 0 1-.81 3.056c-.068.21-.168.407-.297.585-.478.585-1.27.363-2.021.252-.548-.468-.519-1.3-.583-2.002-.16-1.18-.52-2.324-1.06-3.383l-.198-.422c-.583-1.211-1.165-2.417-1.713-3.635-.705-1.51-1.433-3.236-.85-4.8.168-.468.442-.883.629-1.334a1.958 1.958 0 0 0 .163-.738 1.174 1.174 0 0 0-.268-.907.467.467 0 0 0-.117-.123.186.186 0 0 0-.07-.046 1.38 1.38 0 0 0-1.27-.059c-.23.084-.453.184-.67.299a32.024 32.024 0 0 0-3.303 2.148 1.66 1.66 0 0 0-.687.802 6.02 6.02 0 0 1-.11.661c-.164.416-.66.539-1.084.632a13.27 13.27 0 0 0-8.46 6.246 6.876 6.876 0 0 0-.721 1.61 6.713 6.713 0 0 0-.216 1.123z"/>
        <path fill="#9BA7AB" fill-rule="nonzero" d="M319.125 66.62c-1.01 1.07-2.625 1.11-4.068 1.087l.045-.591-2.025.75a5.49 5.49 0 0 0 1.33-1.477.881.881 0 0 0-.988-.065 2.092 2.092 0 0 0-.736.756 7.104 7.104 0 0 0-.736 6.136c-.42.214-.917.18-1.306-.089a2.353 2.353 0 0 1-.839-1.1c-.12-.283-.245-.59-.53-.703a.564.564 0 0 0-.64.296c-.12.23-.167.492-.136.75.04.592.468 1.183.57 1.774.103.591.947 1.064.502 1.46a6.321 6.321 0 0 1-1.62.396.714.714 0 0 1-.468-.479c-.45-1.028-.29-2.228-.57-3.322a8.28 8.28 0 0 0-1.176-2.417 3.376 3.376 0 0 0-.445-.621 1.54 1.54 0 0 1-.433-.514c-.074-.213.068-.526.285-.485a8.985 8.985 0 0 0-1.141-.97c.4-.52.787-1.052 1.141-1.584.131-.189.268-.42.171-.626a.621.621 0 0 0-.228-.23l-1.01-.71c0-.496.953-.313 1.101-.78a.66.66 0 0 0 0-.378l-.353-1.336 1.346.632a.887.887 0 0 0 .513.124c.354-.053.525-.484.571-.857-.037-.372.01-.749.137-1.1h1.826c.04-.315-.04-.635-.223-.892l4.496-.26a6.064 6.064 0 0 1 2.282.166c.237.116.496.176.759.177.256 0 .519-.278.445-.538.674.394 1.29.886 1.831 1.46.144.18.32.331.52.443.206.11.456.08.633-.077.125-.135.182-.378.365-.39.182-.011.205.095.274.184.257.342.466.72.621 1.123.323-.046.64-.133.942-.26-.289.319-.357.79-.171 1.182.148.396.422.733.604 1.111.18.41.301.843.36 1.289.091.555.091 1.259-.382 1.53a1.246 1.246 0 0 1-1.313-.307c-1.09-.804-1.289-.567-2.133.331z"/>
        <path fill="#E09285" fill-rule="nonzero" d="M293 89.767c.99.865 2.043 1.65 3.147 2.35l.173.122a30.654 30.654 0 0 0 3.262 1.776l.966.417c.318.139.62.272.949.38.162.067.33.128.503.188-.202-.604-.335-1.209-.515-1.813a10.327 10.327 0 0 0-2.481-4.266c-.995-1.04-2.58-2.556-4.049-1.637-.448.315-.84.71-1.157 1.166a5.421 5.421 0 0 0-.717 1.106c-.029.054-.052.127-.081.211zM320 94a26.65 26.65 0 0 0 2.005-.757c.101-.033.2-.072.295-.118l.128-.056a26.744 26.744 0 0 0 2.503-1.251 26.89 26.89 0 0 0 2.01-1.235h.041a11.31 11.31 0 0 1 0-1.88 1.43 1.43 0 0 0-.04-.627 1.501 1.501 0 0 0-.325-.432 2.608 2.608 0 0 1-.237-.264c-.655-.713-1.188-1.481-2.318-1.369-1.13.112-2.103 1.055-2.579 2.104-.052.1-.094.206-.127.314-.323.975-.575 1.97-.753 2.98-.151.622-.342 1.222-.481 1.845-.035.23-.087.488-.122.746z"/>
        <path stroke="#9BA7AB" stroke-width="4" d="M48.522 267c1.763-3.18-.24-7.074-2.52-9.907-2.28-2.833-5.06-5.77-5.001-9.399.088-5.193 5.7-8.262 10.183-11.015a49.208 49.208 0 0 0 9.142-7.218 13.293 13.293 0 0 0 2.81-3.692c.928-2.031.898-4.34.84-6.56A466.877 466.877 0 0 0 62.858 197"/>
        <path fill="#F8DEDC" fill-rule="nonzero" d="M70.986 195.641a8 8 0 0 0-4-6.57l-1.794 3.547.051-4.296a8 8 0 1 0 5.749 7.319h-.006zM56.109 250.668a8 8 0 1 1 .388-6.457l-5.01 4.074L57 247.01a8 8 0 0 1-.891 3.657zM52.466 234.98c-4.083.29-7.71-2.608-8.364-6.682-.653-4.074 1.885-7.977 5.85-8.998l-.045 3.292 1.797-3.582a7.87 7.87 0 0 1 5.71 2.068 8.001 8.001 0 0 1 2.576 5.54 7.944 7.944 0 0 1-.339 2.729c-.976 3.218-3.851 5.472-7.185 5.633zM72.329 221.994a8.03 8.03 0 0 1-7.751-5.015 7.98 7.98 0 0 1 2.122-8.963 8.05 8.05 0 0 1 9.184-1.033l-1.422 3.886 2.93-2.8a7.988 7.988 0 0 1 2.598 5.537 7.853 7.853 0 0 1-.201 2.211 8.05 8.05 0 0 1-7.46 6.177z"/>
        <path fill="#000" fill-rule="nonzero" d="M70.079 198.652c-1.878.21-3.703.814-5.587.934-1.883.12-3.952-.347-5.145-1.856-.638-.814-.962-1.85-1.501-2.736A5.878 5.878 0 0 0 55.794 193c-1.338 2.891-.964 6.318.965 8.829 1.928 2.51 5.074 3.665 8.103 2.974 3.029-.691 5.412-3.107 6.138-6.223a12.08 12.08 0 0 0-.921.072zM72.5 221.99c-2.846.149-5.557-1.265-7.139-3.723a8.662 8.662 0 0 1-.575-8.267 6.11 6.11 0 0 1 1.63 1.69c.577.906.93 1.955 1.605 2.782 1.266 1.54 3.421 2.044 5.38 1.954 1.959-.09 3.848-.671 5.778-.857.272 0 .544-.042.821-.048-.834 3.647-3.891 6.284-7.5 6.468zM52.56 234.99c-2.837.14-5.545-1.146-7.145-3.39-1.6-2.245-1.862-5.125-.689-7.6.678.422 1.27.959 1.745 1.585.634.857 1.03 1.84 1.774 2.63 1.378 1.469 3.693 1.986 5.776 1.936 2.082-.05 3.972-.512 5.979-.662-1.01 3.156-3.991 5.36-7.44 5.5zM57 251.379c-1.887 3.936-6.834 5.7-11.05 3.938-4.216-1.761-6.105-6.38-4.219-10.317.693.42 1.313.937 1.838 1.532.8.902 1.325 1.933 2.244 2.785 1.712 1.571 4.475 2.229 6.939 2.279 1.42.006 2.838-.066 4.248-.217z" opacity=".1"/>
        <path fill="#9BA7AB" fill-rule="nonzero" d="M36 263.437s6.457-.166 8.38-1.56c1.924-1.392 9.908-2.985 10.41-.801.5 2.183 9.703 10.889 2.412 10.923-7.29.035-16.93-1.146-18.877-2.292-1.946-1.146-2.325-6.27-2.325-6.27z"/>
        <path fill="#000" fill-rule="nonzero" d="M57.358 271.189c-7.29.066-16.935-1.164-18.875-2.4-1.48-.93-2.07-4.26-2.267-5.789H36s.408 5.357 2.331 6.599 11.591 2.448 18.876 2.4c2.104 0 2.832-.786 2.791-1.926-.274.678-1.049 1.104-2.64 1.116z" opacity=".2"/>
        <path fill="#9BA7AB" fill-rule="nonzero" stroke="#979797" stroke-width=".5" d="M163.889 206.284c1.113 7.772-.245 15.697-2.359 23.258-.395 1.408-.82 2.828-1.559 4.092-.738 1.264-1.767 2.35-2.635 3.539-1.81 2.48-2.871 5.403-3.863 8.297a233.198 233.198 0 0 0-6.882 24.41 1.665 1.665 0 0 0 0 1.042c.262.6 1.058.679 1.713.676l8.462-.045c.301-.577-.257-1.2-.603-1.753-1.207-1.867-.049-4.293 1.016-6.247a66.981 66.981 0 0 0 5.965-15.01c.579-2.2 1.05-4.448 1.99-6.522 1.137-2.516 2.92-4.68 4.367-7.033 1.683-2.735 2.91-5.704 4.129-8.685 1.7-4.136 3.416-8.324 4.086-12.742.63-4.149.32-8.376-.09-12.551a.79.79 0 0 0-.23-.686.799.799 0 0 0-.693-.215l-11.355-.582c-2.34-.12-2.895-.63-2.539 1.657.247 1.708.832 3.371 1.08 5.1z"/>
        <path fill="#9BA7AB" fill-rule="nonzero" stroke="#979797" stroke-width=".5" d="M166.12 187.39c-2.307 3.303-4.725 7.103-3.96 11.056.583 3.002 2.88 5.329 5.05 7.505 8.666 8.663 17.189 18.287 20.138 30.16.76 3.067 1.128 6.216 1.782 9.305 1.188 5.613 3.318 10.98 5.429 16.315l5.657 14.213a8.553 8.553 0 0 0 8.173-5.403c-.742-.057-1.71-.771-2.145-1.372-2.412-3.323-2.907-7.597-3.525-11.65-.685-4.478-1.598-8.921-2.515-13.36l-4.053-19.645c-.468-2.266-.935-4.536-1.544-6.769-2.359-8.651-6.828-16.81-7.518-25.756-.103-1.314-.166-2.758-1.062-3.734-.94-1.03-2.485-1.2-3.881-1.282-5.649-.36-10.522-.91-16.026.418z"/>
        <path fill="#CBCEDA" fill-rule="nonzero" stroke="#979797" stroke-width=".5" d="M150.882 269.68a9.044 9.044 0 0 0-1.876-.24 3.9 3.9 0 0 0-3.064 1.666 7.563 7.563 0 0 0-.823 1.8l-.817 2.336c-.242.684-.477 1.474-.118 2.101.267.39.651.685 1.098.844 1.978.876 4.222.924 6.363 1.135 2.093.204 4.168.57 6.233.954.712.135 1.42.27 2.142.342 1.61.162 3.232 0 4.843-.144l1.662-.159a6.008 6.008 0 0 0 1.634-.3c.533-.18.97-.57 1.206-1.078.41-1.011-.47-2.209-1.547-2.42-.437-.083-.904-.044-1.333-.101a6.319 6.319 0 0 1-1.46-.435c-2.11-.832-4.273-1.673-6.142-2.981-.519-.364-1.062-.87-1.005-1.501a3.05 3.05 0 0 1 .269-.778 2.828 2.828 0 0 0 .024-2.008c-.103-.276-.302-.567-.582-.6-.796-.096-.7 1.06-.817 1.5-.16.601-.45.655-1.017.601-1.628-.147-3.257-.228-4.873-.534zM198.491 277.746a5.283 5.283 0 0 0 1.152 3.227c.224.274.503.498.82.657.477.195.994.277 1.508.237a12.126 12.126 0 0 0 4.189-.843c.47-.212.954-.394 1.447-.544a16.32 16.32 0 0 1 1.882-.27c2.494-.357 4.684-1.822 7.093-2.563.72-.178 1.426-.409 2.111-.69.953-.448 1.725-1.202 2.482-1.931a5.93 5.93 0 0 0 1.14-1.36c.443-.82.47-1.801.489-2.729a.774.774 0 0 0-.073-.423.633.633 0 0 0-.271-.213c-.733-.36-1.601-.18-2.413-.039-2.931.52-5.932.423-8.908.327-.58.08-1.142-.24-1.37-.777l-1.13-1.801c-.323-.517-.835-1.108-1.42-.93-.468.14-.658.71-.64 1.2.018.49.169.975.076 1.453a1.985 1.985 0 0 1-.966 1.248c-.475.258-.982.451-1.507.577-1.665.468-3.601 1-4.889 2.218-.947.865-.86 2.8-.802 3.969z"/>
        <path fill="#EEDBC2" fill-rule="nonzero" stroke="#DCC8AF" stroke-width=".5" d="M197.906 158.651a6.967 6.967 0 0 0 1.647-1.783 7.242 7.242 0 0 0 .702-2.464l.474-2.978c.262-1.642.57-3.38 1.67-4.632 1.101-1.252 3.294-1.7 4.412-.462.489.537.682 1.275.803 1.993a14.466 14.466 0 0 1-3.565 12.007c-1.354 1.477-3.016 2.65-4.448 4.047-1.249 1.2-2.331 2.578-3.483 3.884a48.01 48.01 0 0 1-9.49 8.255c.041-2.233.328-4.629 0-6.847-.245-1.603-.906-2.468.654-3.515 3.618-2.45 7.27-4.665 10.624-7.505zM167.496 136.684c-.118 1.597-.785 3.23-2.111 4.151a165.352 165.352 0 0 1 11.118 4.329c-.705-.675-.92-1.711-.952-2.684-.094-2.542.79-5.043 2.08-7.234.206-.278.324-.61.341-.955-.042-.708-.886-1.035-1.58-1.2a39.028 39.028 0 0 0-7.214-1.042c-1.04-.033-2.274-.36-2.038.958.223 1.23.449 2.431.356 3.677z"/>
        <ellipse cx="174.763" cy="128.765" fill="#EEDBC2" fill-rule="nonzero" stroke="#DCC8AF" stroke-width=".5" rx="8.815" ry="8.774"/>
        <path fill="#E09285" fill-rule="nonzero" stroke="#B77064" stroke-width=".5" d="M183.49 152.464a10.604 10.604 0 0 0-1.118-1.867c-1.598-2.284-3.239-4.566-5.29-6.457a32.921 32.921 0 0 0-5.02-3.67 11.42 11.42 0 0 0-3.143-1.502 12.349 12.349 0 0 0-2.018-.273l-2.288-.186c-.201-.027-.405-.02-.604.018-.62.156-.904.924-.772 1.546.133.621.604 1.125 1.02 1.597.102 4.65-1.976 9.236-2.256 13.88-.492 8.12 4.487 15.673 4.885 23.799.041.367.002.739-.114 1.09-.067.167-.166.32-.241.486-.236.51-.227 1.09-.269 1.65a8.37 8.37 0 0 1-2.482 5.29c.374.461.854.826 1.4 1.063.962.417 2.11.453 3.133.744 2.666.774 5.398 1.555 8.17 1.39a7.148 7.148 0 0 0 .63-2.363c.392-.243.844.277.904.733.06.456-.027.987.302 1.318.329.33.745.279 1.146.228 1.692-.213 3.317-.78 4.976-1.162 1.658-.381 3.432-.564 5.045-.018.326-.411.187-1.02-.078-1.47-.266-.451-.643-.847-.793-1.349a3.013 3.013 0 0 1-.097-.885c0-2.567.53-5.16.027-7.679-.148-.738-.383-1.459-.534-2.2-.301-1.438-.256-2.921-.217-4.389.04-1.468-.138-3.056-.169-4.545 0-.615-.04-1.23-.12-1.84-.103-.64-.302-1.264-.356-1.909-.163-1.639.5-3.266.401-4.91-.166-2.498-3.082-3.855-4.06-6.158z"/>
        <path fill="#EEDBC2" fill-rule="nonzero" stroke="#DCC8AF" stroke-width=".5" d="M163.596 151.288c-2.135 5.637-3.178 11.617-4.222 17.554l-2.412 13.947c-.685 3.941-1.372 7.907-1.345 11.905 0 1.123.072 2.266-.223 3.35-.386 1.423-1.345 2.609-2.072 3.902a12.79 12.79 0 0 0-1.387 8.685c.247 1.246.922 2.66 2.192 2.803 1.043.115 1.945-.711 2.554-1.563 1.4-1.955 2.093-4.314 2.714-6.638a149.5 149.5 0 0 0 4.183-23.14c.075-.99.215-1.972.42-2.942.266-1 .606-1.98 1.019-2.93.922-2.278 1.846-4.555 2.771-6.832 2.132-5.263 4.276-10.549 7.205-15.418-2.895-.828-5.908-1.8-8.803-2.62-.836-.246-1.731-.1-2.594-.063z"/>
        <path fill="#9BA7AB" fill-rule="nonzero" stroke="#979797" stroke-width=".5" d="M179.39 115.137a8.933 8.933 0 0 0-4.916 1.41 10.817 10.817 0 0 0-10.585-2.467c-.538-3.07-3.302-5.25-6.427-5.07-3.126.181-5.618 2.666-5.794 5.777-.177 3.111 2.019 5.86 5.104 6.39a10.696 10.696 0 0 0 2.55 10.426 10.814 10.814 0 0 0 10.347 3.016 10.76 10.76 0 0 0 7.796-7.412c.637.13 1.284.195 1.934.195 4.252 0 7.702-2.747 7.702-6.133s-3.465-6.132-7.711-6.132z"/>
        <path fill="#9BA7AB" fill-rule="nonzero" d="M168.602 132a10.813 10.813 0 0 1-8.669-4.361 10.706 10.706 0 0 1-1.638-9.53 6.14 6.14 0 0 1-4.994-7.139 6.112 6.112 0 0 0-1.317 6.125 6.153 6.153 0 0 0 4.773 4.081c-1.729 5.65 1.453 11.627 7.12 13.377 5.666 1.75 11.688-1.387 13.474-7.019a10.776 10.776 0 0 1-8.749 4.467z" opacity=".1"/>
        <path fill="#9BA7AB" fill-rule="nonzero" d="M206.29 144.244l2.179 1.547a2.52 2.52 0 0 1 .589 3.523l-6.037 8.422a2.52 2.52 0 0 1-3.508.586l-2.178-1.548a2.52 2.52 0 0 1-.59-3.522l6.038-8.422a2.52 2.52 0 0 1 3.507-.586z"/>
        <path fill="#D2DADD" fill-rule="nonzero" d="M208.096 146.716l-.054.075a.442.442 0 0 1-.603.105l-2.015-1.432a.44.44 0 0 1-.102-.615l.054-.075-.603-.42a.539.539 0 0 0-.751.122l-6.96 9.711a.536.536 0 0 0 .123.748l3.963 2.813a.539.539 0 0 0 .75-.127l6.961-9.707a.532.532 0 0 0-.133-.748l-.63-.45z"/>
        <path fill="#E6E8EC" fill-rule="nonzero" d="M206.278 145.479l.613.436c.044.03.054.09.023.133a.097.097 0 0 1-.135.023l-.614-.436a.096.096 0 0 1-.022-.134.097.097 0 0 1 .135-.022z"/>
        <ellipse cx="207.104" cy="146.203" fill="#E6E8EC" fill-rule="nonzero" rx="1" ry="1"/>
        <path fill="#C87D70" fill-rule="nonzero" d="M203.5 26C186.103 26 172 40.168 172 57.646 172 75.122 205.004 133 205.004 133S235 75.145 235 57.646C235 40.168 220.897 26 203.5 26zm0 52.749c-9.114 0-16.502-7.422-16.502-16.579 0-9.156 7.388-16.578 16.502-16.578 9.114 0 16.502 7.422 16.502 16.578.005 4.4-1.731 8.621-4.827 11.734a16.46 16.46 0 0 1-11.675 4.86v-.015z"/>
        <path fill="#E09285" fill-rule="nonzero" stroke="#B77064" stroke-width=".5" d="M203.5 19C186.103 19 172 33.219 172 50.759 172 68.297 205.004 133 205.004 133S235 68.307 235 50.764a31.892 31.892 0 0 0-9.224-22.46A31.37 31.37 0 0 0 203.5 19zm0 52.938c-9.114 0-16.502-7.45-16.502-16.638 0-9.189 7.388-16.638 16.502-16.638 9.114 0 16.502 7.45 16.502 16.638 0 4.413-1.738 8.644-4.833 11.765a16.434 16.434 0 0 1-11.669 4.873z"/>
    </g>
</svg>
