<svg xmlns="http://www.w3.org/2000/svg" xmlns:xlink="http://www.w3.org/1999/xlink" width="365" height="302" viewBox="0 0 365 302">
    <defs>
        <path id="prefix__a" d="M23.82 1.691c-2.403.977-5.711 3.665-7.025 6.55-.756 1.325-1.107 2.72-.786 4.03.125.483.318.946.57 1.379-.512 1.381-.774 2.84-.771 4.314.025 5.18 3.234 9.817 8.09 11.69.08.248.152.493.212.733.15.579.26 1.168.326 1.761-.065 1.127-.137 2.287-.189 3.433-.04.157-.08.312-.122.466-2.845 1.251-5.619 2.66-8.31 4.213 1.987 2.907-.332 15.183-.332 15.183-4.964 2.907-9.926 10.34-4.63 18.092 5.295 7.75 2.315 16.148 2.315 16.148l-.828 12.629v.022l-.166 2.527h.064l-.064.959.143.025v1.03c-2.322.849-5.718 2.561-7.742 5.727-.959 1.558-2.123 2.978-3.464 4.225-.626.538-.95 1.344-.871 2.162.078.818.55 1.547 1.267 1.958 2.361 1.386 6.044 2.286 10.71-.69l-.046 6.593c.332 4.507 5.956 20.997 5.956 20.997l3.966 13.558c2.843 9.577 4.31 19.506 4.359 29.492 0 3.308.31 6.717 1.266 9.283 2.11 5.674-.831 12.986-2.108 15.709-2.149.722-4.334 1.333-6.547 1.833-.198.045-.394.104-.584.176l-.027-.038s-5.953 2.347-8.598 2.025c-1.97-.24-3.207 2.204-1.661 4.003-1.457.376-2.953.643-3.962.518-2.644-.322-3.97 4.199.993 5.492 4.964 1.29 33.086 0 33.086 0 1.626-.811 2.496-2.611 2.114-4.38 2.161-.083 3.51-.147 3.51-.147s4.962-2.252 0-8.4l-.264.199-1.063-3.106v-4.195s6.287-30.044 4.303-33.597c-1.983-3.552-2.976-21.643-2.976-21.643l.672-19.705c1.794-3.679 2.712-9.448 3.177-13.958.675-2.152 1.1-4.374 1.268-6.621.08-1.059.144-2.171.186-3.324.017-2.529-.4-5.043-1.232-7.432 1.889-2.704 4.96-6.884 7.495-9.355 3.97-3.876 2.976-8.401 2.976-8.401l-1.655-10.984-3.969-18.736c.498-5.199-.594-8.191-1.798-9.881.286-1.68.555-3.358.755-5.044.88-7.333.489-14.762-1.16-21.962-.574-2.513-1.355-5.09-3.127-6.993-2.006-2.156-5.262-3.47-6.009-6.294-.186-.702-.193-1.449-.461-2.126-.726-1.847-3.022-2.52-5.032-2.76-1.627-.196-3.584-.37-5.557-.37-2.37 0-4.766.25-6.644 1.008m18.812 79.343c.778.014 1.557.023 2.338.026.078.545.173 1.062.287 1.537.671 2.844-2.011 4.207-3.801 4.786-.197-2.183.209-4.38 1.176-6.35"/>
    </defs>
    <g fill="none" fill-rule="evenodd">
        <path fill="#F2F3F4" d="M338.946 165.76c-13.94 22.476-11.327 53.096-5.205 77.24 2.048 8.083 4.408 16.617 2.657 25.664-2.142 11.061-9.952 19.749-17.856 24.724-14.409 9.046-30.862 8.796-42.843-.664-10.347-8.17-17.16-22.42-27.724-30.151-17.664-12.942-41.919-5.099-62.98 6.997-14.894 8.538-31.287 19.4-45.054 13.25-9.685-4.32-15.724-16.505-18.542-29.766-1.36-6.402-2.184-13.395-5.304-18.274-1.855-2.899-4.408-4.839-7.053-6.431-24.147-14.512-56.817-2.38-80.103-18.813-15.728-11.096-24.668-34.014-27.607-58.52-2.94-24.507-.522-50.729 2.503-76.547 2.153-18.356 5.066-37.992 14.732-52.92C28.793 5.759 44.911-1.301 58.922.197c14.01 1.498 26.176 10.345 36.661 21.161 13.105 13.515 24.925 30.777 41.885 35.137 11.553 2.971 24.17-.467 36.455-2.412 20.512-3.252 40.74-2.32 60.823-1.097 19.227 1.168 38.57 2.622 56.486 9.364 12.676 4.777 22.407 14.719 34.237 21.185 7.711 4.214 16.412 4.75 23.598 10.368 8.85 6.923 16.51 19.7 12.965 35.854-3.378 15.366-15.69 24.075-23.086 36.003" transform="translate(1 1)"/>
        <path stroke="#979797" stroke-width=".5" d="M338.946 165.76c-13.94 22.476-11.327 53.096-5.205 77.24 2.048 8.083 4.408 16.617 2.657 25.664-2.142 11.061-9.952 19.749-17.856 24.724-14.409 9.046-30.862 8.796-42.843-.664-10.347-8.17-17.16-22.42-27.724-30.151-17.664-12.942-41.919-5.099-62.98 6.997-14.894 8.538-31.287 19.4-45.054 13.25-9.685-4.32-15.724-16.505-18.542-29.766-1.36-6.402-2.184-13.395-5.304-18.274-1.855-2.899-4.408-4.839-7.053-6.431-24.147-14.512-56.817-2.38-80.103-18.813-15.728-11.096-24.668-34.014-27.607-58.52-2.94-24.507-.522-50.729 2.503-76.547 2.153-18.356 5.066-37.992 14.732-52.92C28.793 5.759 44.911-1.301 58.922.197c14.01 1.498 26.176 10.345 36.661 21.161 13.105 13.515 24.925 30.777 41.885 35.137 11.553 2.971 24.17-.467 36.455-2.412 20.512-3.252 40.74-2.32 60.823-1.097 19.227 1.168 38.57 2.622 56.486 9.364 12.676 4.777 22.407 14.719 34.237 21.185 7.711 4.214 16.412 4.75 23.598 10.368 8.85 6.923 16.51 19.7 12.965 35.854-3.378 15.366-15.69 24.075-23.086 36.003z" transform="translate(1 1)"/>
        <path fill="#6C63FF" d="M310.03 73.084L293.617 69.3s3.874 17.697 16.413 3.783M316.413 60.101l-14.59-2.654s9.165 14.466 14.59 2.654" transform="translate(1 1)"/>
        <path stroke="#535461" stroke-width="2" d="M115.35 105.775S77.352 74.047 68.902 58.049c-8.45-15.996-19.206-29.782-19.206-29.782" transform="translate(1 1)"/>
        <path fill="#F8DEDC" d="M48.424 54.611l17.294-1.024s-7.82 16.66-17.294 1.024" transform="translate(1 1)"/>
        <path stroke="#FFA7A1" stroke-width=".5" d="M48.424 54.611l17.294-1.024s-7.82 16.66-17.294 1.024z" transform="translate(1 1)"/>
        <path fill="#F8DEDC" d="M71.01 38.298l-7.637 9.986s13.519 1.28 7.637-9.986" transform="translate(1 1)"/>
        <path stroke="#FFA7A1" stroke-width=".5" d="M71.01 38.298l-7.637 9.986s13.519 1.28 7.637-9.986z" transform="translate(1 1)"/>
        <path fill="#F8DEDC" d="M56.079 36.474s-12.734.606-14.232 1.82c-1.498 1.215 1.898 8.333 6.741 7.17 4.843-1.162 7.491-8.99 7.491-8.99" transform="translate(1 1)"/>
        <path stroke="#FFA7A1" stroke-width=".5" d="M56.079 36.474s-12.734.606-14.232 1.82c-1.498 1.215 1.898 8.333 6.741 7.17 4.843-1.162 7.491-8.99 7.491-8.99z" transform="translate(1 1)"/>
        <path fill="#F8DEDC" d="M61.234 25.532s-5.35 9.284-5.15 11.052c.2 1.768 8.154 3.753 9.76-2.935 1.606-6.686-4.61-8.117-4.61-8.117" transform="translate(1 1)"/>
        <path stroke="#FFA7A1" stroke-width=".5" d="M61.234 25.532s-5.35 9.284-5.15 11.052c.2 1.768 8.154 3.753 9.76-2.935 1.606-6.686-4.61-8.117-4.61-8.117z" transform="translate(1 1)"/>
        <path fill="#F8DEDC" d="M51.344 30.1c-.589-1.868-2.584-2.903-4.454-2.312-1.871.59-2.91 2.583-2.32 4.45.59 1.868 2.584 2.902 4.455 2.312 1.87-.591 2.908-2.584 2.32-4.45" transform="translate(1 1)"/>
        <path stroke="#FFA7A1" stroke-width=".5" d="M51.344 30.1c-.589-1.868-2.584-2.903-4.454-2.312-1.871.59-2.91 2.583-2.32 4.45.59 1.868 2.584 2.902 4.455 2.312 1.87-.591 2.908-2.584 2.32-4.45z" transform="translate(1 1)"/>
        <path fill="#F8DEDC" d="M56.906 26.45c-.59-1.867-2.584-2.902-4.455-2.31-1.87.59-2.909 2.583-2.319 4.45.59 1.867 2.584 2.902 4.455 2.312 1.87-.591 2.908-2.584 2.32-4.451" transform="translate(1 1)"/>
        <path stroke="#FFA7A1" stroke-width=".5" d="M56.906 26.45c-.59-1.867-2.584-2.902-4.455-2.31-1.87.59-2.909 2.583-2.319 4.45.59 1.867 2.584 2.902 4.455 2.312 1.87-.591 2.908-2.584 2.32-4.451z" transform="translate(1 1)"/>
        <path fill="#F8DEDC" d="M130.958 239.706s6.072-18.02-32.42-39.742c0 0-39.083-11.37-35.086-50.42 0 0-45.054 32.928-14.567 74.874 30.486 41.946 56.8 32.79 56.8 32.79l25.273-17.502z" transform="translate(1 1)"/>
        <path stroke="#FFA7A1" d="M130.958 239.706s6.072-18.02-32.42-39.742c0 0-39.083-11.37-35.086-50.42 0 0-45.054 32.928-14.567 74.874 30.486 41.946 56.8 32.79 56.8 32.79l25.273-17.502z" transform="translate(1 1)"/>
        <path fill="#D2DADD" d="M74.772 258.054L284.498 258.054 284.498 15.501 74.772 15.501z" transform="translate(1 1)"/>
        <path stroke="#979797" stroke-width=".5" d="M74.772 258.054L284.498 258.054 284.498 15.501 74.772 15.501z" transform="translate(1 1)"/>
        <path fill="#FFF" d="M87.538 47.416L140.426 47.416 140.426 42.857 87.538 42.857zM87.538 57.447L177.812 57.447 177.812 52.887 87.538 52.887z" transform="translate(1 1)"/>
        <path fill="#C4CDD0" d="M237.082 71.124L274.468 71.124 274.468 39.209 237.082 39.209zM198.784 71.124L236.17 71.124 236.17 39.209 198.784 39.209z" transform="translate(1 1)"/>
        <path fill="#F8DEDC" d="M237.082 103.951L274.468 103.951 274.468 72.036 237.082 72.036z" transform="translate(1 1)"/>
        <path fill="#E2E2EC" d="M236.17 103.951h38.298V71.124H236.17v32.827zm.38-.376h37.539V71.501h-37.54v32.074z" transform="translate(1 1)"/>
        <path fill="#C4CDD0" d="M198.784 103.951L236.17 103.951 236.17 72.036 198.784 72.036zM161.398 103.951L198.784 103.951 198.784 72.036 161.398 72.036zM123.1 103.951L160.486 103.951 160.486 72.036 123.1 72.036z" transform="translate(1 1)"/>
        <path fill="#F8DEDC" d="M84.802 103.951L122.188 103.951 122.188 72.036 84.802 72.036z" transform="translate(1 1)"/>
        <path fill="#E2E2EC" d="M84.802 103.951H123.1V71.124H84.802v32.827zm.38-.376h37.539V71.501h-37.54v32.074z" transform="translate(1 1)"/>
        <path fill="#C4CDD0" d="M237.082 135.866L274.468 135.866 274.468 103.951 237.082 103.951zM198.784 135.866L236.17 135.866 236.17 103.951 198.784 103.951zM161.398 135.866L198.784 135.866 198.784 103.951 161.398 103.951zM123.1 135.866L160.486 135.866 160.486 103.951 123.1 103.951zM84.802 135.866L122.188 135.866 122.188 103.951 84.802 103.951z" transform="translate(1 1)"/>
        <path fill="#F8DEDC" d="M237.082 168.693L274.468 168.693 274.468 136.778 237.082 136.778z" transform="translate(1 1)"/>
        <path fill="#E2E2EC" d="M236.17 169.605h38.298v-32.827H236.17v32.827zm.38-.376h37.539v-32.075h-37.54v32.075z" transform="translate(1 1)"/>
        <path fill="#C4CDD0" d="M198.784 168.693L236.17 168.693 236.17 136.778 198.784 136.778zM161.398 168.693L198.784 168.693 198.784 136.778 161.398 136.778zM123.1 168.693L160.486 168.693 160.486 136.778 123.1 136.778zM84.802 168.693L122.188 168.693 122.188 136.778 84.802 136.778zM237.082 201.519L274.468 201.519 274.468 169.605 237.082 169.605zM198.784 201.519L236.17 201.519 236.17 169.605 198.784 169.605zM161.398 201.519L198.784 201.519 198.784 169.605 161.398 169.605zM123.1 201.519L160.486 201.519 160.486 169.605 123.1 169.605zM84.802 201.519L122.188 201.519 122.188 169.605 84.802 169.605zM237.082 234.346L274.468 234.346 274.468 202.431 237.082 202.431zM198.784 234.346L236.17 234.346 236.17 202.431 198.784 202.431zM161.398 234.346L198.784 234.346 198.784 202.431 161.398 202.431zM123.1 234.346L160.486 234.346 160.486 202.431 123.1 202.431zM84.802 234.346L122.188 234.346 122.188 202.431 84.802 202.431z" transform="translate(1 1)"/>
        <path fill="#F8DEDC" d="M163.5 263.953c1.066-.823 2.069-1.795 2.379-2.98.33-1.302-.402-2.639-1.663-3.038-1.526-.485-3.155.38-4.393 1.28s-2.65 1.899-4.27 1.713c1.675-1.235 2.473-3.236 2.01-5.054-.079-.392-.274-.75-.558-1.026-.847-.758-2.383-.428-3.397.163-3.225 1.899-4.124 5.525-4.143 8.802-.324-1.181-.053-2.411-.06-3.626-.007-1.215-.406-2.556-1.637-3.209-.787-.347-1.64-.514-2.498-.49-1.45-.045-3.065.076-4.052.957-1.231 1.094-.91 2.932.16 4.135 1.07 1.204 2.7 1.96 4.195 2.79 1.14.634 2.296 1.375 2.982 2.378.09.132.165.275.224.425h9.086c2.002-.832 3.895-1.913 5.635-3.22" transform="translate(1 1)"/>
        <path stroke="#FFA7A1" d="M163.5 263.953c1.066-.823 2.069-1.795 2.379-2.98.33-1.302-.402-2.639-1.663-3.038-1.526-.485-3.155.38-4.393 1.28s-2.65 1.899-4.27 1.713c1.675-1.235 2.473-3.236 2.01-5.054-.079-.392-.274-.75-.558-1.026-.847-.758-2.383-.428-3.397.163-3.225 1.899-4.124 5.525-4.143 8.802-.324-1.181-.053-2.411-.06-3.626-.007-1.215-.406-2.556-1.637-3.209-.787-.347-1.64-.514-2.498-.49-1.45-.045-3.065.076-4.052.957-1.231 1.094-.91 2.932.16 4.135 1.07 1.204 2.7 1.96 4.195 2.79 1.14.634 2.296 1.375 2.982 2.378.09.132.165.275.224.425h9.086c2.002-.832 3.895-1.913 5.635-3.22z" transform="translate(1 1)"/>
        <path fill="#FFF" d="M89.818 73.86c1.259 0 2.28 1.02 2.28 2.28 0 1.258-1.021 2.28-2.28 2.28-1.26 0-2.28-1.022-2.28-2.28 0-1.26 1.02-2.28 2.28-2.28M95.289 73.86c1.259 0 2.28 1.02 2.28 2.28 0 1.258-1.021 2.28-2.28 2.28-1.26 0-2.28-1.022-2.28-2.28 0-1.26 1.02-2.28 2.28-2.28M165.502 105.775c1.259 0 2.28 1.02 2.28 2.28 0 1.258-1.021 2.28-2.28 2.28-1.26 0-2.28-1.022-2.28-2.28 0-1.26 1.02-2.28 2.28-2.28M170.973 105.775c1.259 0 2.28 1.02 2.28 2.28 0 1.258-1.021 2.28-2.28 2.28-1.26 0-2.28-1.022-2.28-2.28 0-1.26 1.02-2.28 2.28-2.28" transform="translate(1 1)"/>
        <path fill="#E09285" d="M280.395 166.87c1.26 0 2.28 1.02 2.28 2.279 0 1.258-1.02 2.28-2.28 2.28-1.26 0-2.28-1.022-2.28-2.28 0-1.26 1.02-2.28 2.28-2.28" transform="translate(1 1)"/>
        <path fill="#E09285" d="M281.307 164.134c1.26 0 2.28 1.02 2.28 2.28 0 1.258-1.02 2.279-2.28 2.279-1.26 0-2.28-1.021-2.28-2.28s1.02-2.28 2.28-2.28" transform="translate(1 1)"/>
        <path fill="#E09285" d="M282.219 162.31c1.26 0 2.28 1.02 2.28 2.28 0 1.258-1.02 2.28-2.28 2.28-1.26 0-2.28-1.022-2.28-2.28 0-1.26 1.02-2.28 2.28-2.28" transform="translate(1 1)"/>
        <path fill="#FFF" d="M242.097 73.86c1.26 0 2.28 1.02 2.28 2.28 0 1.258-1.02 2.28-2.28 2.28-1.259 0-2.28-1.022-2.28-2.28 0-1.26 1.021-2.28 2.28-2.28M247.568 73.86c1.26 0 2.28 1.02 2.28 2.28 0 1.258-1.02 2.28-2.28 2.28-1.259 0-2.28-1.022-2.28-2.28 0-1.26 1.021-2.28 2.28-2.28M253.04 73.86c1.259 0 2.28 1.02 2.28 2.28 0 1.258-1.021 2.28-2.28 2.28-1.26 0-2.28-1.022-2.28-2.28 0-1.26 1.02-2.28 2.28-2.28M258.51 73.86c1.26 0 2.28 1.02 2.28 2.28 0 1.258-1.02 2.28-2.28 2.28-1.259 0-2.279-1.022-2.279-2.28 0-1.26 1.02-2.28 2.28-2.28M242.097 140.425c1.26 0 2.28 1.02 2.28 2.28 0 1.258-1.02 2.28-2.28 2.28-1.259 0-2.28-1.022-2.28-2.28 0-1.26 1.021-2.28 2.28-2.28M247.568 140.425c1.26 0 2.28 1.02 2.28 2.28 0 1.258-1.02 2.28-2.28 2.28-1.259 0-2.28-1.022-2.28-2.28 0-1.26 1.021-2.28 2.28-2.28M253.04 140.425c1.259 0 2.28 1.02 2.28 2.28 0 1.258-1.021 2.28-2.28 2.28-1.26 0-2.28-1.022-2.28-2.28 0-1.26 1.02-2.28 2.28-2.28M258.51 140.425c1.26 0 2.28 1.02 2.28 2.28 0 1.258-1.02 2.28-2.28 2.28-1.259 0-2.279-1.022-2.279-2.28 0-1.26 1.02-2.28 2.28-2.28M128.115 105.775c1.26 0 2.28 1.02 2.28 2.28 0 1.258-1.02 2.28-2.28 2.28-1.259 0-2.28-1.022-2.28-2.28 0-1.26 1.021-2.28 2.28-2.28M89.818 137.69c1.259 0 2.28 1.02 2.28 2.28 0 1.258-1.021 2.28-2.28 2.28-1.26 0-2.28-1.022-2.28-2.28 0-1.26 1.02-2.28 2.28-2.28" transform="translate(1 1)"/>
        <g transform="translate(1 1) translate(276.976 54.027)">
            <mask id="prefix__b" fill="#fff">
                <use xlink:href="#prefix__a"/>
            </mask>
            <path d="M23.82 1.691c-2.403.977-5.711 3.665-7.025 6.55-.756 1.325-1.107 2.72-.786 4.03.125.483.318.946.57 1.379-.512 1.381-.774 2.84-.771 4.314.025 5.18 3.234 9.817 8.09 11.69.08.248.152.493.212.733.15.579.26 1.168.326 1.761-.065 1.127-.137 2.287-.189 3.433-.04.157-.08.312-.122.466-2.845 1.251-5.619 2.66-8.31 4.213 1.987 2.907-.332 15.183-.332 15.183-4.964 2.907-9.926 10.34-4.63 18.092 5.295 7.75 2.315 16.148 2.315 16.148l-.828 12.629v.022l-.166 2.527h.064l-.064.959.143.025v1.03c-2.322.849-5.718 2.561-7.742 5.727-.959 1.558-2.123 2.978-3.464 4.225-.626.538-.95 1.344-.871 2.162.078.818.55 1.547 1.267 1.958 2.361 1.386 6.044 2.286 10.71-.69l-.046 6.593c.332 4.507 5.956 20.997 5.956 20.997l3.966 13.558c2.843 9.577 4.31 19.506 4.359 29.492 0 3.308.31 6.717 1.266 9.283 2.11 5.674-.831 12.986-2.108 15.709-2.149.722-4.334 1.333-6.547 1.833-.198.045-.394.104-.584.176l-.027-.038s-5.953 2.347-8.598 2.025c-1.97-.24-3.207 2.204-1.661 4.003-1.457.376-2.953.643-3.962.518-2.644-.322-3.97 4.199.993 5.492 4.964 1.29 33.086 0 33.086 0 1.626-.811 2.496-2.611 2.114-4.38 2.161-.083 3.51-.147 3.51-.147s4.962-2.252 0-8.4l-.264.199-1.063-3.106v-4.195s6.287-30.044 4.303-33.597c-1.983-3.552-2.976-21.643-2.976-21.643l.672-19.705c1.794-3.679 2.712-9.448 3.177-13.958.675-2.152 1.1-4.374 1.268-6.621.08-1.059.144-2.171.186-3.324.017-2.529-.4-5.043-1.232-7.432 1.889-2.704 4.96-6.884 7.495-9.355 3.97-3.876 2.976-8.401 2.976-8.401l-1.655-10.984-3.969-18.736c.498-5.199-.594-8.191-1.798-9.881.286-1.68.555-3.358.755-5.044.88-7.333.489-14.762-1.16-21.962-.574-2.513-1.355-5.09-3.127-6.993-2.006-2.156-5.262-3.47-6.009-6.294-.186-.702-.193-1.449-.461-2.126-.726-1.847-3.022-2.52-5.032-2.76-1.627-.196-3.584-.37-5.557-.37-2.37 0-4.766.25-6.644 1.008m18.812 79.343c.778.014 1.557.023 2.338.026.078.545.173 1.062.287 1.537.671 2.844-2.011 4.207-3.801 4.786-.197-2.183.209-4.38 1.176-6.35" mask="url(#prefix__b)"/>
        </g>
        <path fill="#EEDBC2" d="M318.804 266.054l1.257 3.816-4.102 4.152-13.511 3.181-9.743-.954.63-3.5c.38-1.533 1.574-2.723 3.095-3.083 4.004-.951 11.64-3.125 13.243-6.14l9.131 2.528z" transform="translate(1 1)"/>
        <path fill="#9BA7AB" d="M295.101 275.565l1.922-2.627-1.922-3.045s-5.761 2.386-8.322 2.059c-2.56-.328-3.84 4.288.961 5.587 4.801 1.297 32.011 0 32.011 0s4.8-2.3 0-8.543l-4.178 3.287s-7.041 3.942-10.563 3.286l-9.909-.004z" transform="translate(1 1)"/>
        <path stroke="#979797" stroke-width=".5" d="M295.101 275.565l1.922-2.627-1.922-3.045s-5.761 2.386-8.322 2.059c-2.56-.328-3.84 4.288.961 5.587 4.801 1.297 32.011 0 32.011 0s4.8-2.3 0-8.543l-4.178 3.287s-7.041 3.942-10.563 3.286l-9.909-.004z" transform="translate(1 1)"/>
        <path fill="#EEDBC2" d="M287.234 280.809l9.742.953 13.512-3.178 4.102-4.148-.332-1.012-.47-1.417-.47-1.381-9.113-2.541c-.465.768-1.104 1.415-1.863 1.885-2.96 2.048-8.277 3.526-11.399 4.266-.125.031-.25.07-.372.116-1.343.457-2.364 1.575-2.707 2.964l-.63 3.493z" transform="translate(1 1)"/>
        <path fill="#9BA7AB" d="M290.542 280.125l1.922-2.627-1.922-3.046s-5.761 2.386-8.322 2.06c-2.56-.328-3.84 4.288.961 5.586s32.01 0 32.01 0 4.8-2.3 0-8.542l-4.177 3.286s-7.042 3.942-10.563 3.286l-9.91-.003z" transform="translate(1 1)"/>
        <path stroke="#979797" stroke-width=".5" d="M290.542 280.125l1.922-2.627-1.922-3.046s-5.761 2.386-8.322 2.06c-2.56-.328-3.84 4.288.961 5.586s32.01 0 32.01 0 4.8-2.3 0-8.542l-4.177 3.286s-7.042 3.942-10.563 3.286l-9.91-.003z" transform="translate(1 1)"/>
        <path fill="#DB8B8B" d="M298.176 96.477s15.502 1.616 13.241-4.853c-.632-1.835-.797-3.798-.478-5.713.402-2.373 1.338-4.624 2.739-6.58l-14.532 2.265c.87 1.46 1.533 3.033 1.97 4.676 1.73 6.861-2.94 10.205-2.94 10.205" transform="translate(1 1)"/>
        <path fill="#C6D1D5" d="M323.708 168.693s-.313 13.615-3.455 20.264l-.63 19.314s.943 17.732 2.83 21.214c1.885 3.484-4.101 32.93-4.101 32.93v5.067s-10.063 3.798-12.88-.634l2.829-37.682-1.257-52.242 16.664-8.231z" transform="translate(1 1)"/>
        <path stroke="#979797" stroke-width=".5" d="M323.708 168.693s-.313 13.615-3.455 20.264l-.63 19.314s.943 17.732 2.83 21.214c1.885 3.484-4.101 32.93-4.101 32.93v5.067s-10.063 3.798-12.88-.634l2.829-37.682-1.257-52.242 16.664-8.231z" transform="translate(1 1)"/>
        <path fill="#E09285" stroke="#B77064" stroke-width=".5" d="M330.99 124.924l1.945 5.037 1.618 10.702c.443 3.024-.643 6.07-2.918 8.18-3.886 3.776-9.072 11.643-9.072 11.643l-6.15-17.923s6.15-.945 5.186-5.037c-.965-4.093-.653-11.672-.653-11.672l10.044-.93z" transform="translate(1 1)"/>
        <path fill="#D2DADD" d="M289.97 181.013c.316 4.427 5.714 20.555 5.714 20.555l3.808 13.27c2.73 9.385 4.138 19.1 4.186 28.87 0 3.238.297 6.577 1.217 9.088 2.538 6.956-2.54 16.445-2.54 16.445 4.446 7.906 12.055 2.53 12.055 2.53v-5.059s6.027-27.514 4.444-32.887c-1.582-5.374-2.222-19.924-2.222-19.924v-26.266c5.086-5.048 8.179-11.75 8.713-18.88.076-1.036.136-2.124.177-3.254.257-7.129-4.64-15.5-6.555-18.479-.46-.72-.753-1.126-.753-1.126l-28.034 11.077-.064.026v3.47l-.146 20.544z" transform="translate(1 1)"/>
        <path stroke="#979797" stroke-width=".5" d="M289.97 181.013c.316 4.427 5.714 20.555 5.714 20.555l3.808 13.27c2.73 9.385 4.138 19.1 4.186 28.87 0 3.238.297 6.577 1.217 9.088 2.538 6.956-2.54 16.445-2.54 16.445 4.446 7.906 12.055 2.53 12.055 2.53v-5.059s6.027-27.514 4.444-32.887c-1.582-5.374-2.222-19.924-2.222-19.924v-26.266c5.086-5.048 8.179-11.75 8.713-18.88.076-1.036.136-2.124.177-3.254.257-7.129-4.64-15.5-6.555-18.479-.46-.72-.753-1.126-.753-1.126l-28.034 11.077-.064.026v3.47l-.146 20.544z" transform="translate(1 1)"/>
        <path fill="#000" d="M299.088 81.456c.874 1.372 1.54 2.85 1.977 4.395 3.202 1.14 6.759 1.018 9.863-.339.404-2.23 1.344-4.343 2.75-6.181l-14.59 2.125z" transform="translate(1 1)"/>
        <path fill="#EEDBC2" d="M305.015 62.006c6.799 0 12.31 5.511 12.31 12.31s-5.511 12.31-12.31 12.31-12.31-5.511-12.31-12.31 5.511-12.31 12.31-12.31" transform="translate(1 1)"/>
        <path stroke="#DDCCB4" stroke-width=".5" d="M305.015 62.006c6.799 0 12.31 5.511 12.31 12.31s-5.511 12.31-12.31 12.31-12.31-5.511-12.31-12.31 5.511-12.31 12.31-12.31z" transform="translate(1 1)"/>
        <path fill="#E09285" d="M293.294 95.855s17.854-10.769 23.593-6.335l7.97 10.144s5.102 1.582 4.16 11.714l3.81 18.361-11.476 2.851s-6.696 6.335-1.275 15.517c0 0-16.898 13.932-30.29 11.083l.958-14.881s2.872-8.232-2.232-15.833c-5.103-7.6-.317-14.88 4.464-17.733 0-.003 2.228-12.037.318-14.888" transform="translate(1 1)"/>
        <path stroke="#B77064" stroke-width=".5" d="M293.294 95.855s17.854-10.769 23.593-6.335l7.97 10.144s5.102 1.582 4.16 11.714l3.81 18.361-11.476 2.851s-6.696 6.335-1.275 15.517c0 0-16.898 13.932-30.29 11.083l.958-14.881s2.872-8.232-2.232-15.833c-5.103-7.6-.317-14.88 4.464-17.733 0-.003 2.228-12.037.318-14.888z" transform="translate(1 1)"/>
        <path fill="#EEDBC2" d="M292.17 160.486s-6.698 1.248-9.887 6.24c-.92 1.497-2.043 2.867-3.337 4.071-.59.524-.893 1.289-.82 2.065.075.777.518 1.473 1.199 1.88 2.53 1.481 6.658 2.403 11.872-1.787 8.944-7.165.972-12.469.972-12.469" transform="translate(1 1)"/>
        <path stroke="#DDCCB4" stroke-width=".5" d="M292.17 160.486s-6.698 1.248-9.887 6.24c-.92 1.497-2.043 2.867-3.337 4.071-.59.524-.893 1.289-.82 2.065.075.777.518 1.473 1.199 1.88 2.53 1.481 6.658 2.403 11.872-1.787 8.944-7.165.972-12.469.972-12.469z" transform="translate(1 1)"/>
        <path fill="#E09285" d="M301.478 101.452s6.244-.631 7.804 15.732c1.56 16.364 4.074 20.138 4.074 20.138s1.559 8.498-2.185 13.53c-3.745 5.033-10.927 15.733-10.927 15.733s-7.804 2.203-9.363-5.663l9.679-18.249s1.559-6.295-2.186-10.7c-3.744-4.406-6.563-33.669 3.104-30.521" transform="translate(1 1)"/>
        <path stroke="#B77064" stroke-width=".5" d="M301.478 101.452s6.244-.631 7.804 15.732c1.56 16.364 4.074 20.138 4.074 20.138s1.559 8.498-2.185 13.53c-3.745 5.033-10.927 15.733-10.927 15.733s-7.804 2.203-9.363-5.663l9.679-18.249s1.559-6.295-2.186-10.7c-3.744-4.406-6.563-33.669 3.104-30.521z" transform="translate(1 1)"/>
        <path fill="#000" d="M312.303 57.812c1.902.237 4.085.901 4.761 2.715.253.666.26 1.402.434 2.092.71 2.774 3.789 4.067 5.687 6.19 1.675 1.885 2.413 4.407 2.97 6.877 1.562 7.08 1.939 14.378 1.115 21.586-.61 5.278-1.858 10.457-2.207 15.75-.35 5.294.29 10.861 3.139 15.31 1.225 1.912 2.844 3.592 3.713 5.696-1.794 1.478-4.27 1.69-6.584 1.768-2.692.093-5.384.093-8.077 0-1.412-.048-2.886-.143-4.104-.866-.902-.587-1.644-1.395-2.154-2.35-1.541-2.638-1.927-5.843-1.857-8.92.07-3.076.546-6.137.602-9.217.03-1.677-.1-3.46-1.051-4.832-.687-.992-1.731-1.66-2.622-2.462-3.342-3.016-4.5-7.85-4.612-12.392-.112-4.543.627-9.093.248-13.62-.148-1.772-.802-3.902-2.518-4.245-.541-.11-1.113 0-1.634-.212-1.377-.539-1.243-2.51-1.637-3.954-.442-1.62-1.805-2.873-2.187-4.524-.903-3.845 3.917-8.433 7.078-9.772 3.212-1.365 8.11-1.04 11.497-.618" transform="translate(1 1)"/>
        <path fill="#9BA7AB" d="M312.303 57.815c1.902.237 4.085.9 4.761 2.714.253.667.26 1.403.434 2.092.71 2.775 3.789 4.068 5.687 6.19 1.675 1.885 2.413 4.407 2.97 6.876 1.562 7.08 1.939 14.378 1.115 21.586-.61 5.277-1.858 10.458-2.207 15.75-.35 5.293.29 10.861 3.139 15.31 1.225 1.91 2.844 3.592 3.713 5.696-1.794 1.477-4.27 1.688-6.584 1.768-2.692.093-5.384.093-8.077 0-1.412-.05-2.886-.144-4.104-.868-.902-.586-1.644-1.393-2.154-2.348-1.541-2.64-1.927-5.844-1.857-8.92.07-3.076.546-6.137.602-9.216.03-1.678-.1-3.46-1.051-4.833-.687-.992-1.731-1.66-2.622-2.462-3.342-3.017-4.5-7.848-4.612-12.391-.112-4.543.627-9.093.248-13.62-.148-1.772-.802-3.903-2.518-4.245-.541-.11-1.113 0-1.634-.212-1.377-.538-1.243-2.51-1.637-3.954-.442-1.621-1.805-2.872-2.187-4.523-.903-3.846 3.917-8.433 7.078-9.772 3.212-1.369 8.11-1.044 11.497-.618" transform="translate(1 1)"/>
        <path stroke="#979797" stroke-width=".5" d="M312.303 57.815c1.902.237 4.085.9 4.761 2.714.253.667.26 1.403.434 2.092.71 2.775 3.789 4.068 5.687 6.19 1.675 1.885 2.413 4.407 2.97 6.876 1.562 7.08 1.939 14.378 1.115 21.586-.61 5.277-1.858 10.458-2.207 15.75-.35 5.293.29 10.861 3.139 15.31 1.225 1.91 2.844 3.592 3.713 5.696-1.794 1.477-4.27 1.688-6.584 1.768-2.692.093-5.384.093-8.077 0-1.412-.05-2.886-.144-4.104-.868-.902-.586-1.644-1.393-2.154-2.348-1.541-2.64-1.927-5.844-1.857-8.92.07-3.076.546-6.137.602-9.216.03-1.678-.1-3.46-1.051-4.833-.687-.992-1.731-1.66-2.622-2.462-3.342-3.017-4.5-7.848-4.612-12.391-.112-4.543.627-9.093.248-13.62-.148-1.772-.802-3.903-2.518-4.245-.541-.11-1.113 0-1.634-.212-1.377-.538-1.243-2.51-1.637-3.954-.442-1.621-1.805-2.872-2.187-4.523-.903-3.846 3.917-8.433 7.078-9.772 3.212-1.369 8.11-1.044 11.497-.618z" transform="translate(1 1)"/>
    </g>
</svg>
