<svg xmlns="http://www.w3.org/2000/svg" width="367" height="300" viewBox="0 0 367 300">
    <g fill="none" transform="translate(1)">
        <path fill="#F2F2F2" d="M83.874 60.627L85.431 189.113 152.728 221.894 151.171 93.408zM63.424 50.363L13.138 153.595 81.369 186.832 79.811 58.345zM365.853 195.387L230.038 129.23 231.595 257.716 315.567 298.62zM157.254 93.408L158.812 221.894 226.108 254.675 224.551 126.188z"/>
        <path fill="#E09285" d="M300.907 99.04L309.365 99.04 309.365 109.914 300.907 109.914z" transform="rotate(-2.221 305.136 104.477)"/>
        <path fill="#FFB9B9" d="M271.03 136.933s-11.704-5.591-11.517-.762c.188 4.829 11.797 8.006 11.797 8.006l-.28-7.244z"/>
        <path fill="#D2DADD" stroke="#979797" stroke-width=".5" d="M277.45 177.793s-5.521 13.514-7.561 23.265c-2.04 9.752-5.147 23.172-1.15 32.69 3.995 9.518 15.357 37.49 15.474 40.508.117 3.018-.973 6.083 1.442 5.99 2.414-.094 15.553-4.23 16.087-6.065.533-1.834-4.483-6.476-4.483-6.476l-12.387-38.815 12.924-25.287 9.322 37.725 1.826 47.083s8.96-2.766 10.261-.398c0 0 4.015-5.597 4.525-8.035.51-2.438-1.896-48.894-1.896-48.894s8.225-52.913 1.585-52.656c-6.64.258-32.647-15.66-45.97-.635z"/>
        <path fill="#9BA7AB" d="M285.561 277.831s-6.125 13.538-6.705 14.165c-.58.627-4.572 6.827-1.554 6.71 3.019-.117 10.145-3.416 15.39-8.456 5.246-5.04 12.162-13.771 11.535-14.352-.627-.58-4.923-2.227-4.923-2.227l-13.743 4.16zM310.034 285.346s-.37 6.06-1.483 8.52c-1.114 2.462-.974 6.084 2.045 5.967 3.018-.117 10.818-1.629 10.818-1.629s.463-3.645-.164-4.225c-.627-.58-3.299-7.127-2.162-8.984 1.137-1.858-9.054.35-9.054.35z"/>
        <path fill="#EEDBC2" d="M314.499 88.698s6.434 10.028 8.942 12.349c2.508 2.32-4.548 7.43-4.548 7.43l-12.63 1.7s.16-11.493-.49-12.677c-.651-1.184 8.726-8.802 8.726-8.802z"/>
        <path fill="#FFF" d="M303.522 101.82s2.601 4.735 5.016 4.64c2.414-.093 14.903-5.413 15.437-7.248.533-1.834 4.136 13.14 4.136 13.14l-30.56 53.78-7.453-5.152 3.612-31.576 2.966-17.042 6.846-10.543z"/>
        <path fill="#E09285" stroke="#B77064" stroke-width=".5" d="M291.992 131.889l-9.564 2.789-13.28.515-1.366 11.539 21.824 1.572s5.451-15.325 2.386-16.415z"/>
        <path fill="#E09285" stroke="#B77064" stroke-width=".5" d="M325.102 149.95c-1.22 2.55-1.98 5.21-1.875 7.931.005.121.01.242.02.362.29 5.587 2.347 12.048 3.086 16.747.536 3.37.383 5.831-1.59 6.41-4.782 1.394.698 2.39-17.804 8.549-18.502 6.158-21.73.843-21.777-.365-.047-1.207 2.62-10.378 1.993-10.959-.627-.58-8.774 7.595-11.235 6.481-2.461-1.113-.281-7.243-.281-7.243s5.545-12.91 5.428-15.929c-.117-3.018 8.399-17.252 8.399-17.252l5.792-37.706s2.227-4.923 5.222-5.643c2.995-.721 5.48.996 5.48.996l-5.012 11.076-5.287 19.55.884 7.22s6.149-12.933 10.187-17.926c4.038-4.993 12.648-16.813 12.648-16.813s2.01-6.782.492-8.81c-1.517-2.032 6.33-2.336 9.676 5.997 1.773 4.417 4.652 11.004 6.456 17.137 1.607 5.433 2.366 10.511.774 13.414-2.434 4.435-8.555 10.265-11.676 16.776z"/>
        <path fill="#000" d="M336.778 133.174c-2.434 4.435-8.555 10.265-11.676 16.776-.815-2.937-1.81-5.975-1.81-5.975s-3.814-20.407 7.468-25.68c1.87-.181 3.739.341 5.244 1.465 1.607 5.433 2.366 10.511.774 13.414z" opacity=".1"/>
        <path fill="#FFB9B9" d="M307.588 170.687s-12.795 2.123-9.874 5.973c2.92 3.85 14.255-.198 14.255-.198l-4.38-5.775z"/>
        <path fill="#000" d="M323.247 158.243c.29 5.587 2.347 12.048 3.086 16.747-4.076 3.858-7.952 7.26-9.413 7.317-3.018.118-7.87-.299-9.658.375-1.788.674-2.836-10.772-2.836-10.772s1.067-3.668 5.826-5.666c3.212-1.352 9.369-5.019 12.995-8z" opacity=".1"/>
        <path fill="#E09285" stroke="#B77064" stroke-width=".5" d="M330.62 114.673s10.214-1.606 9.663 15.343c-.552 16.948 1.076 27.767-3.032 30.949-4.108 3.182-17.453 17.604-20.472 17.72-3.018.118-7.87-.299-9.658.375-1.787.674-2.836-10.771-2.836-10.771s1.067-3.67 5.826-5.667c4.759-1.998 15.97-9.083 15.877-11.498-.094-2.414-2.836-10.771-2.836-10.771s-3.814-20.407 7.468-25.68z"/>
        <circle cx="305.491" cy="90.257" r="13.54" fill="#EEDBC2" stroke="#DBC8AF" stroke-width=".5"/>
        <path fill="#9BA7AB" stroke="#828F93" stroke-width=".5" d="M296.543 71.208c-.32.277-.704.47-1.117.561-.432.077-.845-.209-.925-.64-.304.63-.647 1.303-1.267 1.626-.621.324-1.581.052-1.67-.642-.091.527-.325 1.02-.675 1.424-.385.367-1.084.46-1.42.047.272 1.486.104 3.014.19 4.522.085 1.508.487 3.106 1.626 4.098 1.662 1.446 4.16 1.09 6.346.815.33-.07.673-.05.994.055.819.348.782 1.488.793 2.377.138 3.223 2.583 5.875 5.784 6.273.867.134 1.753-.082 2.46-.6.621-.527.938-1.384 1.65-1.78 1.156-.642 2.559.295 3.405 1.313.845 1.018 1.679 2.27 2.989 2.456 1.733.247 3.052-1.52 3.7-3.145 1.804-4.604 1.673-9.742-.365-14.247-3.618-7.887-15.976-9.134-22.498-4.513z"/>
        <circle cx="226.215" cy="54.779" r="27.376" fill="#D2DADD" stroke="#979797" stroke-width=".5"/>
        <path fill="#9BA7AB" stroke="#979797" stroke-width=".5" d="M196.431 25.896c6.308 6.47 15.997 7.253 15.997 7.253s-.537-9.706-6.845-16.176c-6.307-6.47-15.997-7.254-15.997-7.254s.538 9.707 6.845 16.177z"/>
        <path fill="#F8DEDC" stroke="#979797" stroke-width=".5" d="M198.547 22.57c8.724 2.353 14.132 10.431 14.132 10.431s-8.737 4.263-17.46 1.91c-8.725-2.353-14.133-10.43-14.133-10.43s8.737-4.264 17.461-1.91z"/>
        <path fill="#9BA7AB" stroke="#979797" stroke-width=".5" d="M207.11 16.401c.059 9.036 6.496 16.32 6.496 16.32s6.344-7.366 6.286-16.401C219.835 7.284 213.397 0 213.397 0s-6.344 7.366-6.286 16.401z"/>
        <path fill="#F8DEDC" stroke="#979797" stroke-width=".5" d="M210.941 15.473c4.654 7.745 2.949 17.315 2.949 17.315s-9.251-2.987-13.905-10.732c-4.654-7.745-2.948-17.316-2.948-17.316s9.25 2.988 13.904 10.733z"/>
        <circle cx="223.737" cy="52.677" r="14.068" fill="#F2F2F2" stroke="#737070" stroke-width=".5"/>
        <circle cx="217.154" cy="57.03" r="4.563" fill="#9BA7AB"/>
        <circle cx="79.087" cy="270.309" r="27.376" fill="#F8DEDC" stroke="#979797" stroke-width=".5"/>
        <path fill="#9BA7AB" stroke="#979797" stroke-width=".5" d="M67.134 230.58c2.36 8.721 10.442 14.123 10.442 14.123s4.256-8.74 1.897-17.462c-2.36-8.722-10.442-14.124-10.442-14.124s-4.256 8.74-1.897 17.462z"/>
        <path fill="#F8DEDC" stroke="#979797" stroke-width=".5" d="M70.602 228.705c6.474 6.302 7.265 15.991 7.265 15.991s-9.707-.53-16.181-6.833c-6.475-6.302-7.266-15.991-7.266-15.991s9.707.53 16.182 6.833z"/>
        <path fill="#9BA7AB" stroke="#979797" stroke-width=".5" d="M81.085 227.486c-4.348 7.92-2.271 17.417-2.271 17.417s9.127-3.345 13.476-11.266c4.348-7.92 2.271-17.417 2.271-17.417s-9.127 3.345-13.476 11.266z"/>
        <path fill="#F8DEDC" stroke="#979797" stroke-width=".5" d="M84.883 228.54c.294 9.03-5.855 16.56-5.855 16.56s-6.626-7.114-6.92-16.145c-.294-9.03 5.855-16.56 5.855-16.56s6.626 7.113 6.92 16.144z"/>
        <circle cx="77.947" cy="267.267" r="14.068" fill="#F2F2F2"/>
        <circle cx="82.51" cy="260.423" r="4.563" fill="#9BA7AB" stroke="#979797" stroke-width=".5"/>
        <path fill="#D2DADD" d="M3.802 297.305H146.388V298.305H3.802zM214.068 298.826H356.654V299.826H214.068z"/>
        <path fill="#9BA7AB" d="M36.46 297.86l-.676-.35c8.776-16.967 4.083-39.001-1.399-54.498-3.722-10.416-8.47-20.437-14.174-29.915l.643-.406c5.733 9.526 10.506 19.598 14.248 30.067 5.532 15.638 10.258 37.893 1.358 55.102z"/>
        <path fill="#9BA7AB" d="M27.152 226.014L54.597 226.014 54.597 226.774 27.152 226.774z" transform="rotate(-79.645 40.874 226.394)"/>
        <path fill="#9BA7AB" d="M22.243 231.078L23.004 231.078 23.004 268.474 22.243 268.474z" transform="rotate(-42.94 22.624 249.776)"/>
        <path fill="#9BA7AB" d="M38.782 274.681L60.838 274.681 60.838 275.442 38.782 275.442z" transform="rotate(-54.137 49.81 275.062)"/>
        <circle cx="45.247" cy="201.868" r="3.802" fill="#F8DEDC" stroke="#979797" stroke-width=".5"/>
        <circle cx="3.802" cy="231.145" r="3.802" fill="#9BA7AB" stroke="#979797" stroke-width=".5"/>
        <circle cx="20.532" cy="234.947" r="3.802" fill="#9BA7AB" stroke="#979797" stroke-width=".5"/>
        <circle cx="12.928" cy="249.776" r="3.802" fill="#F8DEDC" stroke="#979797" stroke-width=".5"/>
        <circle cx="60.456" cy="259.282" r="3.802" fill="#9BA7AB" stroke="#979797" stroke-width=".5"/>
        <circle cx="47.909" cy="263.465" r="3.802" fill="#9BA7AB" stroke="#979797" stroke-width=".5"/>
        <circle cx="56.654" cy="275.632" r="3.802" fill="#9BA7AB" stroke="#979797" stroke-width=".5"/>
        <circle cx="16.73" cy="206.43" r="3.802" fill="#9BA7AB" stroke="#979797" stroke-width=".5"/>
        <path fill="#D2DADD" stroke="#979797" stroke-width=".5" d="M77.793 68.152H261.063V178.038H77.793z"/>
        <circle cx="85.018" cy="72.335" r="1.901" fill="#FFF"/>
        <circle cx="91.862" cy="72.335" r="1.901" fill="#FFF"/>
        <circle cx="98.706" cy="72.335" r="1.901" fill="#FFF"/>
        <path fill="#9BA7AB" d="M77.947 76.586H261.06399999999996V77.586H77.947z" opacity=".66"/>
        <path fill="#9BA7AB" d="M184.638 98.951L184.638 133.171 134.892 133.171 125.702 144.198 126.752 133.171 122.28 133.171 122.28 98.951z" opacity=".655"/>
        <path fill="#9BA7AB" d="M167.147 115.681L229.505 115.681 229.505 149.901 225.032 149.901 226.083 160.928 216.894 149.901 167.147 149.901z" opacity=".655"/>
        <ellipse cx="126.082" cy="148.38" fill="#000" opacity=".1" rx="13.688" ry="1.335"/>
        <ellipse cx="226.082" cy="166.251" fill="#000" opacity=".1" rx="15.589" ry="1.521"/>
    </g>
</svg>
