<svg width="260" height="180" viewBox="0 0 260 180" fill="none" xmlns="http://www.w3.org/2000/svg">
<path fill-rule="evenodd" clip-rule="evenodd" d="M252.112 0.903198H7.66994C3.77942 0.903198 0.613281 4.06886 0.613281 7.96034V172.408C0.613281 176.298 3.77942 179.464 7.66994 179.464H252.112C256.003 179.464 259.169 176.298 259.169 172.408V7.96034C259.169 4.06886 256.003 0.903198 252.112 0.903198Z" fill="white"/>
<path fill-rule="evenodd" clip-rule="evenodd" d="M251.198 178.433H8.58403C4.75197 178.433 1.64478 175.326 1.64478 171.493V8.87419C1.64478 5.04166 4.75197 1.93494 8.58403 1.93494H251.198C255.031 1.93494 258.137 5.04166 258.137 8.87419V171.493C258.137 175.326 255.031 178.433 251.198 178.433Z" fill="#554D4D"/>
<path fill-rule="evenodd" clip-rule="evenodd" d="M9.89966 90.1835H129.891V10.1893H9.89966V90.1835Z" fill="#F2F2F2" stroke="#D6DBE1" stroke-width="1.04234"/>
<path fill-rule="evenodd" clip-rule="evenodd" d="M129.891 90.1835H249.883V10.1893H129.891V90.1835Z" fill="#F2F2F2" stroke="#D6DBE1" stroke-width="1.04234"/>
<path fill-rule="evenodd" clip-rule="evenodd" d="M9.89966 170.178H129.891V90.184H9.89966V170.178Z" fill="#F2F2F2" stroke="#D6DBE1" stroke-width="1.04234"/>
<path fill-rule="evenodd" clip-rule="evenodd" d="M129.891 170.178H249.883V90.184H129.891V170.178Z" fill="#F2F2F2" stroke="#D6DBE1" stroke-width="1.04234"/>
<path fill-rule="evenodd" clip-rule="evenodd" d="M94.8136 69.1539C90.982 66.1137 77.8788 62.1162 69.5958 62.1162C61.3132 62.1162 48.209 66.1137 44.3784 69.1539C40.9736 71.8561 41.7798 86.872 41.6006 90.1836H69.5958H97.5914C97.4117 86.872 98.2179 71.8561 94.8136 69.1539Z" fill="#D2DADD"/>
<path fill-rule="evenodd" clip-rule="evenodd" d="M45.8918 68.1618C46.8919 74.5658 52.8263 78.3252 58.8634 77.5822C64.9001 76.8398 76.7432 72.4611 83.557 71.4757C92.9955 70.1111 93.9809 73.0705 97.5914 90.184C97.5914 90.184 98.8705 73.8248 96.8556 69.2284C94.8403 64.632 76.5807 60.9801 68.4588 61.4207C60.336 61.8614 45.8918 68.1618 45.8918 68.1618Z" fill="#231F20"/>
<path fill-rule="evenodd" clip-rule="evenodd" d="M100.406 70.7915C98.4363 61.6021 96.1623 62.3697 90.5854 60.6595C85.3573 59.0563 83.1694 56.4168 84.4261 48.5426C85.6715 40.7382 85.9129 32.748 83.5491 26.9391C81.4862 21.2276 76.0181 17.145 69.596 17.145C63.2328 17.145 57.8075 21.1525 55.7013 26.7803H55.6999C55.6871 26.8112 55.6766 26.844 55.6642 26.8749L55.6628 26.8782C53.2734 32.6924 53.5139 40.7116 54.7635 48.5426C56.0193 56.4168 52.3104 62.4382 47.8613 64.9317C42.107 68.1568 49.5644 77.6966 62.0887 75.0519C74.6121 72.4072 91.3872 65.6 93.7292 71.5131C97.797 81.7834 97.5912 90.1838 97.5912 90.1838C97.5912 90.1838 102.453 80.3455 100.406 70.7915Z" fill="#E09285"/>
<path fill-rule="evenodd" clip-rule="evenodd" d="M80.3282 39.364C80.3282 47.926 75.5232 57.2138 69.5959 57.2138C63.6681 57.2138 58.8635 47.926 58.8635 39.364C58.8635 30.802 63.6681 24.9388 69.5959 24.9388C75.5232 24.9388 80.3282 30.802 80.3282 39.364Z" fill="#231F20"/>
<path fill-rule="evenodd" clip-rule="evenodd" d="M80.3282 38.4233C80.3282 46.4268 75.5232 55.1091 69.5959 55.1091C63.6681 55.1091 58.8635 46.4268 58.8635 38.4233C58.8635 30.4198 63.6681 24.9388 69.5959 24.9388C75.5232 24.9388 80.3282 30.4198 80.3282 38.4233Z" fill="#EEDBC2"/>
<path fill-rule="evenodd" clip-rule="evenodd" d="M69.5959 26.4497C75.3359 26.4497 80.0235 31.5898 80.314 39.1836C80.3235 38.9293 80.3282 38.6759 80.3282 38.4231C80.3282 30.42 75.5236 24.9386 69.5959 24.9386C63.6681 24.9386 58.8635 30.42 58.8635 38.4231C58.8635 38.6759 58.8683 38.9293 58.8778 39.1836C59.1682 31.5898 63.8559 26.4497 69.5959 26.4497Z" fill="#EF937E"/>
<path fill-rule="evenodd" clip-rule="evenodd" d="M49.9795 90.1838L50.4867 82.8938L50.9943 90.1838H49.9795Z" fill="#231F20"/>
<path fill-rule="evenodd" clip-rule="evenodd" d="M88.1978 90.1838L88.7049 82.8938L89.2121 90.1838H88.1978Z" fill="#231F20"/>
<path fill-rule="evenodd" clip-rule="evenodd" d="M64.3417 59.032C63.9387 58.9517 58.278 57.7025 55.0045 51.357C54.9945 50.4505 54.9189 49.5089 54.763 48.5416C54.7126 48.2293 54.6622 47.9175 54.6218 47.6052C55.2968 51.2666 59.2097 57.7377 64.3417 59.032Z" fill="#231F20"/>
<path fill-rule="evenodd" clip-rule="evenodd" d="M84.4609 48.3203C84.4509 48.3959 84.4357 48.4662 84.4258 48.5418C84.2542 49.6194 84.1439 50.5966 84.0983 51.4879V51.4931C81.3385 58.015 75.2853 60.3617 74.8774 60.5124C78.9315 58.3725 83.7308 53.0693 84.4609 48.3203Z" fill="#231F20"/>
<path fill-rule="evenodd" clip-rule="evenodd" d="M67.3386 48.6005C68.1205 48.7716 68.8768 48.8819 69.6311 48.8491C70.0085 48.8434 70.3802 48.783 70.7486 48.6951C71.1232 48.6162 71.473 48.4617 71.8533 48.3201C71.5719 48.6029 71.2353 48.8553 70.8503 49.0007C70.471 49.1619 70.0589 49.2474 69.6473 49.2612C69.2356 49.2726 68.8235 49.2289 68.4319 49.1167C68.0412 49.006 67.6623 48.8434 67.3386 48.6005Z" fill="black"/>
<path fill-rule="evenodd" clip-rule="evenodd" d="M86.2071 131.028C84.7265 121.675 83.9223 108.481 81.1953 104.803H81.1948C78.8715 100.997 74.6805 98.4564 69.8954 98.4564C65.1099 98.4564 60.9189 100.997 58.5956 104.803H58.5951C55.8681 108.481 55.0639 121.675 53.5833 131.028C52.1026 140.381 49.6086 147.707 44.9319 152.773C44.9319 152.773 69.8954 152.753 69.8954 152.773C69.8954 152.753 94.8585 152.773 94.8585 152.773C90.1818 147.707 87.6878 140.381 86.2071 131.028Z" fill="#9BA7AB"/>
<path fill-rule="evenodd" clip-rule="evenodd" d="M54.7235 170.178H42.1165C42.107 168.337 42.126 165.134 42.2068 161.48C42.2306 160.333 42.2876 159.306 42.3736 158.383C42.9493 152.132 44.8662 150.814 47.6303 150.604H47.6635C50.071 150.442 54.3238 153.102 54.3238 157.479C54.3238 157.755 54.3238 158.055 54.329 158.383C54.3718 161.328 54.5714 166.767 54.7235 170.178Z" fill="#EEDBC2"/>
<path fill-rule="evenodd" clip-rule="evenodd" d="M97.6744 170.177H85.0669C85.219 166.765 85.4239 161.326 85.4619 158.382C85.4662 158.053 85.4662 157.753 85.4662 157.477C85.4662 153.081 89.7579 150.418 92.1602 150.602C94.9246 150.812 96.8416 152.13 97.4172 158.382C97.5033 159.304 97.5603 160.332 97.5841 161.478C97.6644 165.132 97.6839 168.335 97.6744 170.177Z" fill="#EEDBC2"/>
<path fill-rule="evenodd" clip-rule="evenodd" d="M54.7233 170.178H48.0075C47.7413 162.714 50.1307 160.222 50.4944 157.27C50.9968 153.187 47.7679 150.709 47.6633 150.604C50.0708 150.442 54.3236 153.102 54.3236 157.479C54.3236 157.755 54.3236 158.055 54.3288 158.383C54.3716 161.328 54.5712 166.767 54.7233 170.178Z" fill="#EF937E"/>
<path fill-rule="evenodd" clip-rule="evenodd" d="M85.1001 170.178H91.8164C92.0826 162.714 89.6932 160.222 89.3295 157.27C88.8266 153.187 92.0555 150.709 92.1606 150.604C89.753 150.442 85.4998 153.102 85.4998 157.479C85.4998 157.755 85.4998 158.055 85.4951 158.383C85.4523 161.328 85.2522 166.767 85.1001 170.178Z" fill="#EF937E"/>
<path fill-rule="evenodd" clip-rule="evenodd" d="M79.8479 145.3C79.8479 145.3 76.9936 149.706 69.8955 149.706C62.7923 149.706 59.9375 145.3 59.9375 145.3C61.5888 144.601 64.5904 143.002 64.7906 140.352C64.8761 139.187 64.8999 138.04 64.7663 136.822C64.6004 135.267 64.1764 133.596 63.3109 131.641H76.4745C75.6089 133.596 75.1854 135.267 75.0191 136.822C74.886 138.04 74.9093 139.187 74.9953 140.352C75.1949 143.002 78.1971 144.601 79.8479 145.3Z" fill="#E4CCAD"/>
<path fill-rule="evenodd" clip-rule="evenodd" d="M79.8524 127.183C79.4009 127.169 79.0772 127.007 78.849 126.746C77.0219 132.422 72.907 136.418 69.8953 136.418C66.8789 136.418 62.7636 132.422 60.9417 126.746C60.7848 126.922 60.5899 127.055 60.3328 127.121C60.2139 127.159 60.0804 127.178 59.933 127.183C57.2066 127.255 55.1707 120.276 56.9879 119.843C58.1111 119.571 59.2718 120.333 60.0043 120.961C69.1957 116.289 71.0561 109.738 71.0561 109.738C71.2747 109.695 71.2557 113.748 79.5625 117.492C79.7146 118.568 79.7906 119.681 79.7906 120.822C79.7906 120.87 79.7859 120.913 79.7859 120.961C80.5141 120.333 81.6796 119.571 82.7975 119.843C84.6152 120.276 82.5832 127.255 79.8524 127.183Z" fill="#EEDBC2"/>
<path fill-rule="evenodd" clip-rule="evenodd" d="M92.1576 150.033C89.8057 148.786 83.3071 145.612 80.7033 144.345C80.0611 144.032 79.2996 144.123 78.7397 144.567C76.9615 145.977 73.0976 148.479 69.893 148.479C66.6888 148.479 62.8249 145.977 61.0467 144.567C60.4868 144.123 59.7258 144.032 59.0831 144.345C56.4793 145.612 49.9811 148.786 47.6288 150.033C47.3697 150.17 47.4101 150.554 47.6934 150.631C49.4241 151.109 52.9291 155.889 51.4965 159.47C48.7705 166.286 50.6461 170.169 50.6461 170.169C50.6461 170.169 69.5868 170.187 69.893 170.169C70.2 170.187 89.1403 170.169 89.1403 170.169C89.1403 170.169 91.0164 166.286 88.2899 159.47C86.8577 155.889 90.3628 151.109 92.093 150.631C92.3763 150.554 92.4167 150.17 92.1576 150.033Z" fill="#E09285"/>
<path fill-rule="evenodd" clip-rule="evenodd" d="M79.5623 117.492C74.8999 116.731 70.9894 112.683 70.9894 112.683C68.3252 118.61 60.0046 120.961 60.0046 120.961C69.1955 116.289 71.0559 109.738 71.0559 109.738C71.2746 109.695 71.2556 113.748 79.5623 117.492Z" fill="#E4CCAD"/>
<path fill-rule="evenodd" clip-rule="evenodd" d="M69.893 130.671C69.0517 130.671 68.2527 130.547 67.5264 130.324C67.5325 131.464 68.5892 132.386 69.893 132.386C71.1963 132.386 72.253 131.464 72.2596 130.324C71.5333 130.547 70.7343 130.671 69.893 130.671Z" fill="white"/>
<path fill-rule="evenodd" clip-rule="evenodd" d="M211.976 121.711C206.307 118.378 204.161 112.201 203.38 109.264C202.001 103.08 196.484 98.4561 189.883 98.4561C183.283 98.4561 177.767 103.08 176.387 109.264C175.607 112.201 173.46 118.378 167.792 121.711C162.108 125.053 161.287 132.378 164.192 137.999C167.097 143.619 174.927 144.25 178.653 142.418C182.378 140.587 189.883 140.587 189.883 140.587C189.883 140.587 197.389 140.587 201.114 142.418C204.84 144.25 212.67 143.619 215.575 137.999C218.48 132.378 217.659 125.053 211.976 121.711Z" fill="#9BA7AB"/>
<path fill-rule="evenodd" clip-rule="evenodd" d="M193.56 137.836C193.476 134.558 194.084 130.095 194.084 130.095H185.683C185.683 130.095 186.291 134.558 186.207 137.836C186.133 140.778 182.441 141.748 182.441 141.748C182.441 141.748 185.037 145.577 189.884 145.577C194.73 145.577 197.326 141.748 197.326 141.748C197.326 141.748 193.634 140.778 193.56 137.836Z" fill="#E4CCAD"/>
<path fill-rule="evenodd" clip-rule="evenodd" d="M200.073 125.149C199.727 125.139 199.493 124.895 199.34 124.508C197.24 129.96 193.151 134.375 189.891 134.375C186.621 134.375 182.532 129.955 180.431 124.493C180.279 124.89 180.045 125.139 179.699 125.149C177.97 125.195 175.971 118.853 177.126 118.187C177.675 117.871 178.427 118.075 179.073 118.375C179.073 118.375 192.22 116.905 195.084 109.047C195.084 109.047 196.987 114.398 199.991 116.241C200.431 116.511 200.728 116.966 200.729 117.483V117.526C200.729 117.806 200.718 118.09 200.703 118.37C201.344 118.075 202.097 117.871 202.641 118.187C203.795 118.853 201.802 125.195 200.073 125.149Z" fill="#EEDBC2"/>
<path fill-rule="evenodd" clip-rule="evenodd" d="M196.363 140.482C196.138 140.437 195.912 140.537 195.787 140.736C195.215 141.649 193.336 144.142 189.884 144.142C186.431 144.142 184.552 141.649 183.98 140.736C183.856 140.537 183.629 140.437 183.404 140.482C179.39 141.28 173.909 142.865 173.909 142.865V170.179H189.884H205.859V142.865C205.859 142.865 200.377 141.28 196.363 140.482Z" fill="white"/>
<path fill-rule="evenodd" clip-rule="evenodd" d="M197.34 140.686C196.618 142.06 194.395 145.401 189.884 145.401C185.373 145.401 183.15 142.06 182.429 140.686C182.759 140.615 183.09 140.544 183.405 140.483C183.628 140.438 183.858 140.539 183.98 140.737C184.554 141.647 186.431 144.14 189.884 144.14C193.337 144.14 195.214 141.647 195.789 140.737C195.911 140.539 196.14 140.438 196.363 140.483C196.678 140.544 197.009 140.615 197.34 140.686Z" fill="#E7F2F8"/>
<path fill-rule="evenodd" clip-rule="evenodd" d="M183.114 140.915C183.039 140.572 182.715 140.356 182.382 140.417C180.201 140.822 172.583 142.272 169.808 143.338C166.554 144.588 165.232 148.569 164.268 154.463C163.264 160.602 161.823 170.178 161.823 170.178H183.866C183.866 170.178 185.54 151.838 183.114 140.915Z" fill="#E09285"/>
<path fill-rule="evenodd" clip-rule="evenodd" d="M196.659 140.915C196.735 140.572 197.059 140.356 197.392 140.417C199.573 140.822 207.191 142.272 209.966 143.338C213.22 144.588 214.542 148.569 215.506 154.463C216.509 160.602 217.951 170.178 217.951 170.178H195.908C195.908 170.178 194.234 151.838 196.659 140.915Z" fill="#E09285"/>
<path fill-rule="evenodd" clip-rule="evenodd" d="M207.43 170.171L208.628 160.583L208.696 170.178L207.43 170.171Z" fill="#231F20"/>
<path fill-rule="evenodd" clip-rule="evenodd" d="M172.337 170.171L171.14 160.583L171.071 170.178L172.337 170.171Z" fill="#231F20"/>
<path fill-rule="evenodd" clip-rule="evenodd" d="M200.081 116.305C198.113 115.68 194.929 111.992 194.929 111.992C189.661 118.568 179.072 118.375 179.072 118.375C179.072 118.375 192.219 116.905 195.082 109.047C195.082 109.047 196.989 114.398 199.99 116.239C200.02 116.259 200.051 116.28 200.081 116.305Z" fill="#E4CCAD"/>
<path fill-rule="evenodd" clip-rule="evenodd" d="M191.799 127.271C191.214 127.415 190.566 127.496 189.884 127.496C189.201 127.496 188.554 127.415 187.968 127.271C187.928 127.488 187.901 127.711 187.901 127.944C187.901 129.452 188.789 130.674 189.884 130.674C190.979 130.674 191.867 129.452 191.867 127.944C191.867 127.711 191.839 127.488 191.799 127.271Z" fill="white"/>
<path fill-rule="evenodd" clip-rule="evenodd" d="M193.641 56.5273C192.755 54.0423 193.641 47.9596 193.641 47.9596H189.887H186.133C186.133 47.9596 187.019 54.0423 186.133 56.5273C185.246 59.0123 180.911 59.5689 180.911 59.5689C180.911 59.5689 184.48 64.1106 189.887 64.1106C195.295 64.1106 198.862 59.5689 198.862 59.5689C198.862 59.5689 194.528 59.0123 193.641 56.5273Z" fill="#E4CCAD"/>
<path fill-rule="evenodd" clip-rule="evenodd" d="M203.626 61.1387C203.626 61.1387 198.681 59.167 196.459 58.5862C196.286 58.541 196.108 58.6228 196.031 58.7839C195.601 59.679 193.937 62.4667 189.887 62.4667C185.837 62.4667 184.173 59.679 183.743 58.7839C183.665 58.6228 183.489 58.541 183.316 58.5862C181.093 59.167 176.148 61.1387 176.148 61.1387L173.972 90.1838H189.887H205.802L203.626 61.1387Z" fill="#E09285"/>
<path fill-rule="evenodd" clip-rule="evenodd" d="M197.475 58.8823C196.886 60.0859 194.665 63.8409 189.889 63.8409C185.107 63.8409 182.888 60.0859 182.297 58.8823C182.671 58.7625 183.017 58.6618 183.314 58.5848C183.487 58.542 183.664 58.6233 183.741 58.7863C184.173 59.678 185.837 62.4691 189.889 62.4691C193.937 62.4691 195.601 59.678 196.032 58.7863C196.109 58.6233 196.286 58.542 196.459 58.5848C196.756 58.6618 197.102 58.7625 197.475 58.8823Z" fill="#C5C3E2"/>
<path d="M179.698 34.8849H179.669" stroke="black" stroke-width="1.30292"/>
<path fill-rule="evenodd" clip-rule="evenodd" d="M177.336 35.8486C175.357 32.5389 172.594 29.7635 174.372 26.2632C176.149 22.7629 177.872 23.1399 178.626 20.0165C179.38 16.8936 185.779 11.9265 189.657 15.0498C193.533 18.1732 195.826 18.6652 198.895 17.8571C201.965 17.0495 207.113 18.7783 205.012 23.7863C202.912 28.7943 203.229 28.0847 204.144 30.6153C205.06 33.1464 204.318 34.8742 202.403 36.0615C200.489 37.2484 180.149 40.5553 177.336 35.8486Z" fill="#9BA7AB"/>
<path fill-rule="evenodd" clip-rule="evenodd" d="M201.418 40.956C200.717 41.9343 199.658 42.5194 199.116 42.2318C197.471 47.4879 193.956 51.7896 189.889 51.7896C185.813 51.7896 182.297 47.4827 180.657 42.2223C180.523 42.3036 180.351 42.3226 180.158 42.2941C179.598 42.2128 178.859 41.6947 178.327 40.956C177.367 39.6133 176.754 34.0933 178.173 34.1318C178.835 34.1461 179.329 34.5011 179.669 34.8847C179.679 34.8947 179.689 34.909 179.698 34.9185C179.833 34.928 179.962 34.928 180.092 34.928C184.359 34.928 186.81 31.0294 189.117 28.5163C193.179 24.0849 195.787 28.9147 195.787 28.9147C195.787 28.9147 198.536 28.8234 198.555 31.5037C198.564 33.0771 200.075 34.8847 200.075 34.8847C200.415 34.5059 200.909 34.1461 201.571 34.1318C202.991 34.0933 202.377 39.6133 201.418 40.956Z" fill="#EEDBC2"/>
<path fill-rule="evenodd" clip-rule="evenodd" d="M182.949 58.716C183.058 59.583 183.688 62.9844 186.97 64.8334C187.231 64.9803 187.395 65.2508 187.376 65.5497C187.196 68.5005 186.149 84.0213 183.757 90.1839H165.053C165.053 90.1839 166.297 74.2838 167.171 69.9156C168.039 65.5749 171.662 61.5831 182.72 58.5672C182.826 58.5382 182.936 58.6067 182.949 58.716Z" fill="white"/>
<path fill-rule="evenodd" clip-rule="evenodd" d="M187.376 65.548C187.193 68.5021 186.148 84.0205 183.76 90.1831H181.952C185.163 81.3963 185.932 68.6524 186.053 66.2211C186.065 65.9696 185.926 65.7457 185.707 65.6207C182.767 63.9357 181.872 59.9739 181.674 58.8583C182.016 58.7618 182.368 58.6606 182.725 58.5641C182.829 58.536 182.935 58.604 182.949 58.7114C183.058 59.5746 183.684 62.9803 186.968 64.8336C187.232 64.9824 187.395 65.2509 187.376 65.548Z" fill="#E7F2F8"/>
<path fill-rule="evenodd" clip-rule="evenodd" d="M192.4 65.548C192.582 68.5021 193.628 84.0205 196.016 90.1831H197.824C194.612 81.3963 193.844 68.6524 193.723 66.2211C193.711 65.9696 193.85 65.7457 194.068 65.6207C197.009 63.9357 197.904 59.9739 198.102 58.8583C197.759 58.7618 197.408 58.6606 197.051 58.5641C196.947 58.536 196.841 58.604 196.827 58.7114C196.718 59.5746 196.092 62.9803 192.808 64.8336C192.544 64.9824 192.381 65.2509 192.4 65.548Z" fill="#4987B2"/>
<path fill-rule="evenodd" clip-rule="evenodd" d="M196.824 58.716C196.716 59.583 196.086 62.9844 192.804 64.8334C192.543 64.9803 192.379 65.2508 192.398 65.5497C192.578 68.5005 193.625 84.0213 196.016 90.1839H214.721C214.721 90.1839 213.476 74.2838 212.603 69.9156C211.734 65.5749 208.111 61.5831 197.054 58.5672C196.948 58.5382 196.838 58.6067 196.824 58.716Z" fill="white"/>
<path fill-rule="evenodd" clip-rule="evenodd" d="M200.103 34.8561C200.084 34.9041 200.074 34.9283 200.074 34.9283C199.796 34.8271 197.926 33.0004 197.926 31.3216C197.926 29.648 195.322 29.3029 195.322 29.3029C192.704 27.1159 190.651 28.1616 187.525 32.161C184.398 36.1604 179.665 34.9283 179.665 34.9283V34.8803L179.669 34.8851C179.679 34.8946 179.689 34.9088 179.698 34.9184C179.833 34.9283 179.962 34.9283 180.091 34.9283C184.359 34.9283 186.81 31.0293 189.117 28.5167C193.179 24.0852 195.788 28.9145 195.788 28.9145C195.788 28.9145 198.535 28.8233 198.554 31.5041C198.564 33.077 200.074 34.8851 200.074 34.8851C200.084 34.8756 200.094 34.8661 200.103 34.8561Z" fill="#EF937E"/>
<path fill-rule="evenodd" clip-rule="evenodd" d="M172.569 90.1832L173.779 82.6807V90.1832H172.569Z" fill="#231F20"/>
<path fill-rule="evenodd" clip-rule="evenodd" d="M207.205 90.1832L205.995 82.6807V90.1832H207.205Z" fill="#231F20"/>
<path fill-rule="evenodd" clip-rule="evenodd" d="M192.4 65.548C192.582 68.5021 193.628 84.0205 196.016 90.1831H197.824C194.612 81.3963 193.844 68.6524 193.723 66.2211C193.711 65.9696 193.85 65.7457 194.068 65.6207C197.009 63.9357 197.904 59.9739 198.102 58.8583C197.759 58.7618 197.408 58.6606 197.051 58.5641C196.947 58.536 196.841 58.604 196.827 58.7114C196.718 59.5746 196.092 62.9803 192.808 64.8336C192.544 64.9824 192.381 65.2509 192.4 65.548Z" fill="#E7F2F8"/>
<path fill-rule="evenodd" clip-rule="evenodd" d="M192.998 45.3003C192.998 46.769 191.605 47.9597 189.888 47.9597C188.17 47.9597 186.778 46.769 186.778 45.3003H192.998Z" fill="white"/>
</svg>
