<svg xmlns="http://www.w3.org/2000/svg" width="164.108" height="105.274" viewBox="0 0 164.108 105.274">
    <defs>
        <linearGradient id="linear-gradient" x1=".5" y1="1" x2=".5" gradientUnits="objectBoundingBox">
            <stop offset="0" stop-color="#9c9696" stop-opacity=".251"/>
            <stop offset=".54" stop-color="gray" stop-opacity=".122"/>
            <stop offset="1" stop-color="gray" stop-opacity=".102"/>
        </linearGradient>
        <clipPath id="clip-path">
            <path id="Path_39" data-name="Path 39" class="cls-1" d="M29.824 71.579a7.42 7.42 0 0 0 7.456-7.341H22.368a7.4 7.4 0 0 0 7.456 7.341zm22.369-22.025V31.2c0-11.269-6.112-20.7-16.775-23.2V5.5a5.594 5.594 0 0 0-11.186 0V8C13.536 10.5 7.456 19.9 7.456 31.2v18.354L0 56.9v3.671h59.649V56.9z"/>
        </clipPath>
        <style>
            .cls-1,.cls-7{fill:#9c9696}.cls-7{opacity:.3}
        </style>
    </defs>
    <g id="Group_29" data-name="Group 29" transform="translate(-.637 -1)">
        <circle id="Ellipse_13" data-name="Ellipse 13" cx="4.277" cy="4.277" transform="translate(100.561 4)" style="opacity:.499;fill:#9c9696" r="4.277"/>
        <circle id="Ellipse_12" data-name="Ellipse 12" cx="6.72" cy="6.72" transform="translate(42.68 89.559)" style="opacity:.148;fill:#9c9696" r="6.72"/>
        <circle id="Ellipse_14" data-name="Ellipse 14" cx="7.675" cy="7.675" transform="translate(149.395 42.665)" style="opacity:.347;fill:#9c9696" r="7.675"/>
        <path id="Path" d="M0 0h86.348v62.571h-54.9L25.515 73.23l-6.232-10.659H0V0z" transform="rotate(-9 92.856 -1.456)" style="opacity:.501;fill:url(#linear-gradient)"/>
        <path id="Path-2" data-name="Path" d="M0 0h83.884v60.49H29.439L24.4 71.352 18.733 60.49H0V0z" transform="rotate(-9 90.037 3.014)" style="fill:#f8f8f8"/>
        <path id="Rectangle" class="cls-7" transform="rotate(171 37.134 14.611)" d="M0 0h62.495v2.674H0z"/>
        <path id="Rectangle-2" data-name="Rectangle" class="cls-7" transform="rotate(171 37.364 17.536)" d="M0 0h62.495v2.674H0z"/>
        <path id="Rectangle-3" data-name="Rectangle" class="cls-7" transform="rotate(171 37.595 20.46)" d="M0 0h62.495v2.674H0z"/>
        <path id="Rectangle-4" data-name="Rectangle" class="cls-7" transform="rotate(171 37.825 23.384)" d="M0 0h62.495v2.674H0z"/>
        <g id="Group_24" data-name="Group 24" transform="rotate(16 -33.882 301.714)" style="clip-path:url(#clip-path)">
            <path id="Path_38" data-name="Path 38" class="cls-1" d="M0 0h67.6v79.532H0z" transform="translate(-3.977 -3.977)"/>
        </g>
        <circle id="Ellipse_22" data-name="Ellipse 22" cx="6.608" cy="6.608" transform="translate(117.564 47.93)" style="fill:#fff" r="6.608"/>
        <text id="_0" data-name="0" transform="rotate(14.98 -154.789 496.551)" style="font-size:9px;font-family:Montserrat-Bold,Montserrat;font-weight:700;letter-spacing:.067em;fill:#9c9696"><tspan x="-3.056" y="0">0</tspan></text>
    </g>
</svg>
