<?xml version="1.0" encoding="UTF-8"?>
<svg width="682px" height="288px" viewBox="0 0 682 288" version="1.1" xmlns="http://www.w3.org/2000/svg" xmlns:xlink="http://www.w3.org/1999/xlink">
    <!-- Generator: Sketch 63.1 (92452) - https://sketch.com -->
    <title>My Network</title>
    <desc>Created with Sketch.</desc>
    <defs>
        <linearGradient x1="50%" y1="62%" x2="50%" y2="38%" id="linearGradient-1">
            <stop stop-color="#808080" stop-opacity="0.25" offset="0%"></stop>
            <stop stop-color="#808080" stop-opacity="0.12" offset="54%"></stop>
            <stop stop-color="#808080" stop-opacity="0.1" offset="100%"></stop>
        </linearGradient>
    </defs>
    <g id="Empty-States" stroke="none" stroke-width="1" fill="none" fill-rule="evenodd">
        <g id="MelpApp_All-Empty-States_27th-June" transform="translate(-1069.000000, -2408.000000)">
            <g id="My-Network" transform="translate(1070.000000, 2409.000000)">
                <ellipse id="Oval" stroke="#979797" stroke-width="0.5" fill="#EFF1F2" fill-rule="nonzero" cx="340.364468" cy="273.742866" rx="340.364468" ry="12.145546"></ellipse>
                <path d="M605.831402,205.82613 C607.095043,203.619578 607.747852,201.116145 607.722637,198.573504 C607.722637,192.020693 603.674121,186.70557 598.653962,186.70557 C593.633803,186.70557 589.591072,192.020693 589.591072,198.573504 C589.565857,201.116145 590.218666,203.619578 591.482307,205.82613 C588.960706,210.332447 588.960706,215.825065 591.482307,220.331382 C588.960613,224.835616 588.960613,230.326617 591.482307,234.830851 C588.960706,239.337167 588.960706,244.829786 591.482307,249.336103 C590.218666,251.542655 589.565857,254.046087 589.591072,256.588729 C589.591072,263.14154 593.639587,268.456662 598.653962,268.456662 C603.668338,268.456662 607.722637,263.14154 607.722637,256.588729 C607.747852,254.046087 607.095043,251.542655 605.831402,249.336103 C608.353002,244.829786 608.353002,239.337167 605.831402,234.830851 C608.353095,230.326617 608.353095,224.835616 605.831402,220.331382 C608.353002,215.825065 608.353002,210.332447 605.831402,205.82613 L605.831402,205.82613 Z" id="Path" stroke="#979797" stroke-width="0.5" fill="#9BA7AB" fill-rule="nonzero"></path>
                <ellipse id="Oval" fill="#9BA7AB" fill-rule="nonzero" cx="598.630828" cy="184.068252" rx="9.06289075" ry="11.8679335"></ellipse>
                <ellipse id="Oval" fill="#3F3D56" fill-rule="nonzero" cx="598.630828" cy="169.563" rx="9.06289075" ry="11.8679335"></ellipse>
                <path d="M564.698486,70.304971 C563.459807,68.728504 562.33126,67.0685347 561.320867,65.3368643 L585.143488,61.4271552 L559.37758,61.6180138 C554.384197,50.7504001 554.085073,38.306399 558.550526,27.211417 L593.11328,45.1405564 L561.239897,21.7112198 C569.369411,7.63100313 584.683495,-0.728184206 600.923445,0.049968665 C617.163395,0.828121536 631.608077,10.6132288 638.354104,25.4062213 C645.10013,40.1992139 643.01715,57.5214066 632.956454,70.2934038 C634.890571,72.7462376 636.550689,75.4032011 637.90721,78.2169266 L606.98812,94.2895325 L639.954602,83.2255185 C644.656308,97.1275659 642.021984,112.463637 632.950671,123.999851 C646.959364,141.800041 644.932135,167.378204 628.294396,182.749472 C611.656657,198.12074 585.998284,198.12074 569.360545,182.749472 C552.722806,167.378204 550.695576,141.800041 564.70427,123.999851 C552.312022,108.246564 552.312022,86.0582582 564.70427,70.304971 L564.698486,70.304971 Z" id="Path" stroke="#979797" stroke-width="0.5" fill="#F8DEDC" fill-rule="nonzero"></path>
                <path d="M642.26804,97.1524112 C642.282917,106.893055 639.007908,116.353286 632.973805,123.999851 C646.982499,141.800041 644.955269,167.378204 628.31753,182.749472 C611.679791,198.12074 586.021418,198.12074 569.383679,182.749472 C552.74594,167.378204 550.718711,141.800041 564.727404,123.999851 C558.880191,116.614203 642.26804,92.2826256 642.26804,97.1524112 Z" id="Path" fill="#000000" fill-rule="nonzero" opacity="0.1"></path>
                <path d="M119.608626,4.08282729 L570.54031,4.08282729 C576.615442,4.08282729 581.54031,9.00769504 581.54031,15.0828273 L581.54031,247.394683 C581.54031,258.672338 572.397964,267.814683 561.12031,267.814683 L119.608626,267.814683 C108.330971,267.814683 99.1886257,258.672338 99.1886257,247.394683 L99.1886257,24.5028273 C99.1886257,13.2251727 108.330971,4.08282729 119.608626,4.08282729 Z" id="Rectangle" stroke="#979797" stroke-width="0.5" fill="#F6F8F8" fill-rule="nonzero"></path>
                <path d="M99.4778053,17.0959123 L254.478107,17.0959123 L254.478107,268.103863 L111.287903,268.103863 C104.765366,268.103863 99.4778053,262.816302 99.4778053,256.293765 L99.4778053,17.0959123 Z" id="Path" stroke="#979797" stroke-width="0.5" fill="#D2DADD" fill-rule="nonzero"></path>
                <path d="M581.54031,15.8929249 L581.54031,22.5961096 L99.1886257,22.5961096 L99.1886257,15.8929249 C99.1886257,12.7612238 100.433084,9.75787355 102.648074,7.54396893 C104.863063,5.3300643 107.867023,4.08707649 110.998723,4.08860946 L569.730212,4.08860946 C572.861913,4.08707649 575.865872,5.3300643 578.080862,7.54396893 C580.295851,9.75787355 581.54031,12.7612238 581.54031,15.8929249 Z" id="Path" stroke="#979797" stroke-width="0.5" fill="#9BA7AB" fill-rule="nonzero"></path>
                <circle id="Oval" fill="#D2DADD" fill-rule="nonzero" cx="111.623351" cy="13.6257563" r="3.470156"></circle>
                <circle id="Oval" fill="#D2DADD" fill-rule="nonzero" cx="120.298741" cy="13.6257563" r="3.470156"></circle>
                <circle id="Oval" fill="#D2DADD" fill-rule="nonzero" cx="128.974131" cy="13.6257563" r="3.470156"></circle>
                <rect id="Rectangle" fill="#E09285" fill-rule="nonzero" opacity="0.3" x="353.088373" y="53.8911331" width="200.690689" height="6.36195267" rx="1.24"></rect>
                <rect id="Rectangle" fill="#E09285" fill-rule="nonzero" x="508.667034" y="66.0366791" width="42.2202313" height="14.4589833" rx="1.24"></rect>
                <rect id="Rectangle" fill="#E09285" fill-rule="nonzero" opacity="0.3" x="353.088373" y="131.252478" width="200.690689" height="6.36195267" rx="1.24"></rect>
                <rect id="Rectangle" fill="#E09285" fill-rule="nonzero" x="508.667034" y="143.398024" width="42.2202313" height="14.4589833" rx="1.24"></rect>
                <rect id="Rectangle" fill="#E09285" fill-rule="nonzero" opacity="0.3" x="353.088373" y="209.909347" width="200.690689" height="6.36195267" rx="1.24"></rect>
                <rect id="Rectangle" fill="#E09285" fill-rule="nonzero" x="508.667034" y="222.054893" width="42.2202313" height="14.4589833" rx="1.24"></rect>
                <circle id="Oval" stroke="#979797" stroke-width="0.5" fill="#D2DADD" fill-rule="nonzero" opacity="0.403413318" cx="309.532132" cy="144.554742" r="28.6403542"></circle>
                <path d="M334.806435,159.661488 C334.775148,159.730514 334.734258,159.79477 334.684979,159.852347 C334.373007,160.368366 334.035201,160.868318 333.67285,161.350297 C330.496637,165.747134 326.133103,169.147682 321.093535,171.153488 C320.596146,171.361697 320.087189,171.552556 319.57245,171.731847 C319.095687,171.350175 318.654344,170.926253 318.25379,170.46524 C317.059164,169.108363 316.259064,167.450156 315.940353,165.670641 C315.178004,165.817675 314.403314,165.89127 313.626916,165.890418 C313.549909,165.896181 313.472579,165.896181 313.395572,165.890418 C307.438471,165.786313 302.325774,161.425484 300.041255,155.202338 L299.948717,154.936292 C298.555479,150.882461 298.398458,146.506015 299.497597,142.36276 L299.497597,142.36276 C299.526515,142.223954 299.572784,142.085148 299.613269,141.952125 C301.568124,135.237373 306.727089,130.344453 312.863481,129.956953 C313.05434,129.956953 313.245199,129.956953 313.441841,129.956953 C313.638483,129.956953 313.754155,129.956953 313.910312,129.956953 L314.187924,129.956953 C321.961074,130.240349 328.218922,137.75902 328.508101,147.163143 C331.751501,149.293238 333.467704,153.109027 332.909416,156.948983 C333.684873,157.744125 334.325606,158.660294 334.806435,159.661488 Z" id="Path" fill="#9BA7AB" fill-rule="nonzero"></path>
                <path d="M334.684979,159.852347 C334.373007,160.368366 334.035201,160.868318 333.67285,161.350297 C333.253909,160.598844 332.734375,159.908078 332.128631,159.297122 C332.195151,158.819915 332.229929,158.338819 332.232735,157.857007 C332.232723,154.493752 330.539134,151.35659 327.727316,149.511282 C327.409219,139.910517 320.879542,132.241472 312.880832,132.241472 C307.166642,132.241472 302.210102,136.139614 299.717374,141.865371 C299.653754,142.015745 299.595918,142.160335 299.526515,142.316492 L299.526515,142.316492 C299.318306,142.813881 299.133231,143.317053 298.948156,143.84336 C299.152087,142.786075 299.436306,141.745872 299.798344,140.731787 L299.879314,140.650817 C302.105998,134.514424 307.079888,130.159378 312.921317,129.899117 C313.112176,129.899117 313.303035,129.899117 313.499677,129.899117 C313.696319,129.899117 313.811991,129.899117 313.968148,129.899117 L314.24576,129.899117 C321.909021,130.361804 328.045414,137.845774 328.340377,147.151576 C331.591582,149.275767 333.313591,153.094429 332.753259,156.937416 C333.565584,157.786295 334.219762,158.773439 334.684979,159.852347 L334.684979,159.852347 Z" id="Path" fill="#000000" fill-rule="nonzero" opacity="0.1"></path>
                <path d="M304.506189,151.639644 C304.577734,152.225421 304.51037,152.819814 304.309547,153.374722 C303.968315,154.167074 303.152828,154.878456 303.378388,155.688159 C303.610901,156.203321 304.074789,156.577009 304.627645,156.694505 C307.120373,157.538909 309.832879,157.035737 312.470197,157.151408 C313.349014,157.22834 314.231254,157.259228 315.113299,157.243946 C316.000493,157.224174 316.858757,156.924591 317.565543,156.387974 C316.195563,155.722518 314.902065,154.90996 313.707886,153.964649 C313.417561,153.74945 313.155267,153.498813 312.927101,153.218565 C312.436813,152.425218 312.200708,151.500974 312.250421,150.569679 C312.250421,149.650088 312.250421,148.730497 312.250421,147.816689 C310.364969,147.816689 308.485301,147.787771 306.59985,147.787771 C306.02149,147.787771 304.15339,147.643181 303.939397,148.296727 C303.835292,148.620608 304.240144,149.574901 304.303763,149.939268 C304.400883,150.502136 304.46845,151.069706 304.506189,151.639644 L304.506189,151.639644 Z" id="Path" fill="#E8D3B7" fill-rule="nonzero"></path>
                <circle id="Oval" fill="#EEDBC2" fill-rule="nonzero" cx="308.381197" cy="144.161458" r="6.64534874"></circle>
                <path d="M320.983646,163.438174 C320.983646,163.617466 320.948945,163.808324 320.920027,164.016534 C320.70493,165.09436 320.389308,166.149659 319.977301,167.168592 C319.733355,167.859878 319.439547,168.532542 319.098195,169.181283 C318.849501,169.626619 318.519836,170.037254 318.25379,170.471024 L317.872073,171.089868 C317.628742,171.50704 317.421699,171.944346 317.253229,172.39696 C316.137493,172.682636 315.003033,172.889428 313.858259,173.015805 C312.739332,173.150181 311.613392,173.217776 310.486425,173.218231 C304.44257,173.218231 297.92446,171.650877 293.303369,168.446766 C293.303369,168.446766 293.980049,167.978295 293.881728,167.868407 C293.881728,167.602362 293.85281,167.3421 293.85281,167.076055 C293.84595,166.391178 293.957478,165.710265 294.182475,165.063364 C294.379214,164.443428 294.722419,163.880017 295.183037,163.420824 C295.761396,162.842464 296.536397,162.483882 297.155242,161.928657 C297.946043,161.16387 298.505295,160.191694 298.768864,159.123614 L298.768864,159.123614 C298.913454,158.660926 299.017559,158.169321 299.11588,157.695066 C299.203735,157.046557 299.382873,156.413734 299.647971,155.815398 C299.684729,155.739008 299.727266,155.665536 299.77521,155.595622 C299.863267,155.447249 299.968057,155.30947 300.087524,155.184987 C300.677388,154.609878 301.367311,154.147315 302.123349,153.820059 C302.75376,153.496177 303.63865,153.241699 304.078203,153.779574 L304.078203,153.820059 C304.222058,154.150923 304.343781,154.490975 304.44257,154.837971 C304.795369,155.566704 305.77858,155.659241 306.576715,155.641891 C309.39951,155.582842 312.215841,155.347182 315.009195,154.936292 L316.362555,154.716516 C317.339983,154.554575 318.022447,155.410547 318.571888,156.243384 C319.994652,158.389097 321.197639,160.858692 320.983646,163.438174 Z" id="Path" fill="#E09285" fill-rule="nonzero"></path>
                <path d="M300.689017,163.889295 C300.070173,164.028101 299.71159,164.652729 299.422411,165.219521 C298.874047,166.151058 298.633224,167.231728 298.734163,168.30796 C298.71733,168.730546 298.762141,169.153331 298.867186,169.563 C298.973888,169.975609 299.234689,170.331623 299.595918,170.557778" id="Path" stroke="#000000" opacity="0.1"></path>
                <ellipse id="Oval" fill="#9BA7AB" fill-rule="nonzero" transform="translate(310.081718, 139.387075) rotate(-75.660000) translate(-310.081718, -139.387075) " cx="310.081718" cy="139.387075" rx="3.66679817" ry="7.43191743"></ellipse>
                <path d="M309.543699,141.547274 C306.009923,140.645033 303.395739,138.655477 303.181746,136.827861 C303.017604,137.033788 302.899297,137.272373 302.834731,137.527676 C302.331558,139.488314 305.148168,141.900073 309.121497,142.917985 C313.094825,143.935898 316.726922,143.16668 317.218527,141.182907 C317.27428,140.963895 317.289956,140.736603 317.264796,140.51201 C316.206398,141.969476 313.008071,142.432163 309.543699,141.547274 Z" id="Path" fill="#000000" fill-rule="nonzero" opacity="0.1"></path>
                <path d="M321.157154,168.151803 C321.157154,169.158148 321.157154,170.15871 321.093535,171.153488 C320.596146,171.361697 320.087189,171.552556 319.57245,171.731847 C318.814384,171.995168 318.041999,172.215298 317.259012,172.391177 C316.143276,172.676852 315.008817,172.883645 313.864043,173.010021 C313.661617,170.615614 313.204713,168.30796 313.430274,165.878851 L313.430274,165.878851 C313.618012,164.018031 314.2573,162.231201 315.292591,160.673617 C315.698506,159.991393 316.279621,159.430247 316.975616,159.048427 C317.685125,158.671641 318.548544,158.739272 319.190733,159.221935 C319.584365,159.632965 319.860061,160.142403 319.988868,160.696751 C320.379166,161.781807 320.692261,162.8931 320.925811,164.022317 C320.925811,164.143773 320.966296,164.276795 320.983646,164.404035 C321.143801,165.64645 321.201831,166.899904 321.157154,168.151803 L321.157154,168.151803 Z" id="Path" fill="#EEDBC2" fill-rule="nonzero"></path>
                <path d="M338.166702,223.211612 C338.180156,228.001493 336.986714,232.717579 334.696546,236.924511 C334.442068,237.387199 334.176023,237.85567 333.875276,238.318357 C333.843989,238.387384 333.803099,238.451639 333.753821,238.509216 C333.441849,239.025235 333.104043,239.525187 332.741692,240.007167 C330.544389,243.054586 327.762393,245.634076 324.557907,247.595241 L324.390183,247.710913 C323.337187,248.343088 322.24583,248.909049 321.122453,249.405506 C320.810139,249.544312 320.486257,249.677335 320.162376,249.810357 C319.838495,249.94338 319.537748,250.064835 319.213867,250.16894 C319.051926,250.238343 318.878418,250.296179 318.710694,250.354015 L318.710694,250.354015 C318.6915,250.351467 318.672053,250.351467 318.652858,250.354015 C318.300059,250.481254 317.935693,250.591142 317.57711,250.701031 L317.305281,250.76465 C316.9814,250.862971 316.657519,250.943942 316.333637,251.013345 C315.216058,251.299531 314.079639,251.506329 312.932885,251.632189 L312.932885,251.632189 C311.821719,251.766746 310.703467,251.834615 309.584184,251.834615 C309.468512,251.834615 309.35284,251.834615 309.237168,251.834615 C307.685214,251.829914 306.136778,251.686684 304.610294,251.406629 L304.332681,251.36036 C304.049285,251.314092 303.754322,251.256256 303.482493,251.186852 L303.482493,251.186852 L302.944619,251.065397 C302.374082,250.940385 301.810393,250.785949 301.25581,250.60271 C300.125767,250.263871 299.018795,249.852379 297.941811,249.370804 L297.820355,249.318752 C296.243352,248.604294 294.735224,247.746656 293.314936,246.75662 C293.194004,246.685564 293.078063,246.606338 292.96792,246.519493 C281.9325,238.652383 277.923604,224.126276 283.361998,211.712744 C288.800392,199.299212 302.196517,192.398281 315.461141,195.17707 C328.725765,197.955859 338.225748,209.653267 338.224538,223.205828 L338.166702,223.211612 Z" id="Path" stroke="#979797" stroke-width="0.5" fill="#D2DADD" fill-rule="nonzero" opacity="0.403413318"></path>
                <path d="M316.460876,216.311785 C316.318962,219.562683 313.642098,222.125241 310.388103,222.125241 C307.134109,222.125241 304.457245,219.562683 304.31533,216.311785 C304.31533,216.213464 304.31533,216.115143 304.31533,216.022605 C304.31533,212.668705 307.034204,209.949833 310.388103,209.949833 C313.742003,209.949833 316.460876,212.668705 316.460876,216.022605 C316.455093,216.115143 316.460876,216.213464 316.460876,216.311785 Z" id="Path" fill="#9BA7AB" fill-rule="nonzero"></path>
                <path d="M316.460876,216.311785 C316.318962,219.562683 313.642098,222.125241 310.388103,222.125241 C307.134109,222.125241 304.457245,219.562683 304.31533,216.311785 C304.31533,216.213464 304.31533,216.115143 304.31533,216.022605 C307.847856,213.131935 312.928351,213.131935 316.460876,216.022605 C316.455093,216.115143 316.460876,216.213464 316.460876,216.311785 Z" id="Path" fill="#9BA7AB" fill-rule="nonzero" opacity="0.1"></path>
                <circle id="Oval" fill="#9BA7AB" fill-rule="nonzero" cx="310.38232" cy="223.986613" r="9.59498134"></circle>
                <path d="M304.569809,214.969991 C304.572033,211.925305 306.826504,209.351945 309.844446,208.94927 C307.498171,208.631646 305.180971,209.705305 303.906387,211.700631 C302.631802,213.695957 302.631802,216.249809 303.906387,218.245135 C305.180971,220.240461 307.498171,221.31412 309.844446,220.996495 C306.824324,220.593529 304.569135,218.016878 304.569809,214.969991 L304.569809,214.969991 Z" id="Path" fill="#9BA7AB" fill-rule="nonzero"></path>
                <path d="M299.555433,227.884755 C297.272929,225.868091 296.835314,222.473488 298.531737,219.943881 C298.327328,220.124684 298.13418,220.317831 297.953378,220.522241 C296.454807,222.141555 295.951342,224.445747 296.637949,226.542521 C297.324556,228.639296 299.093417,230.199395 301.259542,230.618673 C303.425668,231.03795 305.64891,230.250567 307.068321,228.561435 C307.245286,228.359821 307.409474,228.147342 307.559926,227.92524 C305.258191,229.91839 301.83689,229.901086 299.555433,227.884755 L299.555433,227.884755 Z" id="Path" fill="#9BA7AB" fill-rule="nonzero"></path>
                <path d="M305.362161,236.155293 C304.862476,236.253664 304.379459,236.42311 303.92783,236.658466 C303.129694,237.236825 303.158612,238.393544 303.395739,239.33627 C303.939397,241.487766 305.269623,243.552509 307.305448,244.431615 C308.565769,244.896434 309.909149,245.093411 311.249859,245.009975 C312.701541,245.009975 314.344081,244.813333 315.246322,243.668181 C315.652601,243.064173 315.930191,242.382995 316.061809,241.667058 C316.507145,239.93198 316.958265,238.139066 316.796325,236.346152 C315.917219,236.421339 314.934008,236.473391 314.239977,235.918166 C313.545945,235.362941 313.389788,234.304544 313.083258,233.425437 C313.04997,233.284181 312.970612,233.158023 312.857698,233.066855 C312.730944,233.009638 312.590551,232.989582 312.452846,233.009019 C311.529714,233.04859 310.604889,233.009895 309.688289,232.893347 C309.109929,232.81816 307.7103,232.22245 307.282314,232.725623 C306.97,233.089989 307.166642,234.200439 306.923731,234.715179 C306.616829,235.384795 306.054383,235.903495 305.362161,236.155293 Z" id="Path" fill="#E8D3B7" fill-rule="nonzero"></path>
                <circle id="Oval" fill="#EEDBC2" fill-rule="nonzero" cx="310.249297" cy="228.619271" r="6.70896827"></circle>
                <path d="M324.956975,243.153441 C324.910706,243.211277 324.864438,243.28068 324.812385,243.338516 L324.528989,243.708666 C323.10063,245.420671 321.943901,247.34205 321.099318,249.405506 C320.787004,249.544312 320.463123,249.677335 320.139242,249.810357 C319.815361,249.94338 319.514614,250.064835 319.190733,250.16894 C319.028792,250.238343 318.855284,250.296179 318.68756,250.354015 L318.68756,250.354015 C318.668365,250.351467 318.648918,250.351467 318.629724,250.354015 C318.276925,250.481254 317.912558,250.591142 317.553976,250.701031 L317.282147,250.76465 C316.958265,250.862971 316.634384,250.943942 316.310503,251.013345 C315.192923,251.299531 314.056505,251.506329 312.90975,251.632189 L312.90975,251.632189 C311.798585,251.766746 310.680332,251.834344 309.56105,251.834615 C309.445378,251.834615 309.329706,251.834615 309.214034,251.834615 C307.66208,251.829914 306.113643,251.686684 304.587159,251.406629 L304.309547,251.36036 C304.026151,251.314092 303.731188,251.256256 303.459359,251.186852 L303.459359,251.186852 L302.921484,251.065397 C302.350948,250.940385 301.787259,250.785949 301.232675,250.60271 C301.38752,249.633412 301.819355,248.72957 302.476148,248.000093 C301.174839,246.444306 299.03491,245.831245 297.652631,244.362212 C297.532206,244.22247 297.420192,244.075693 297.317183,243.922659 C297.244943,243.811828 297.184833,243.693548 297.137891,243.56986 C297.096582,243.472367 297.071196,243.368872 297.062704,243.26333 C297.019121,243.050323 297.001641,242.8328 297.010652,242.615567 C296.975951,240.973027 297.051137,239.099142 298.323528,238.069663 C298.948432,237.632086 299.651218,237.317991 300.394054,237.144288 C301.685512,236.740084 302.942621,236.233373 304.15339,235.628986 C304.264193,235.887268 304.338175,236.159831 304.373166,236.438689 C304.488838,237.109586 304.477271,237.815185 304.633428,238.480298 C304.936642,239.666555 305.670632,240.69744 306.692387,241.372095 C307.711471,242.039653 308.871688,242.46137 310.081573,242.604 C311.272993,242.777508 312.221503,242.158663 313.34352,241.736461 C313.840562,241.577657 314.299371,241.31773 314.691097,240.973027 C315.19778,240.388294 315.467963,239.635494 315.448748,238.862015 C315.448748,238.098581 315.361994,237.335146 315.408262,236.548578 C315.409347,236.468725 315.419042,236.389223 315.43718,236.31145 C315.44056,235.899053 315.705415,235.534297 316.09651,235.403426 C316.313173,235.385686 316.530671,235.425594 316.726922,235.519098 L318.889986,236.346152 C319.827279,236.6705 320.730085,237.087031 321.58514,237.589625 C323.499191,238.832557 324.740901,240.881485 324.956975,243.153441 L324.956975,243.153441 Z" id="Path" fill="#E09285" fill-rule="nonzero"></path>
                <path d="M304.558241,251.412413 L304.280629,251.366144 C303.997233,251.319875 303.70227,251.262039 303.430441,251.192636 L303.430441,251.192636 L302.892567,251.071181 C302.32203,250.946168 301.758341,250.791733 301.203757,250.608493 C300.073714,250.269654 298.966742,249.858162 297.889758,249.376588 C297.34813,247.614687 297.15175,245.764789 297.311399,243.928443 C297.381678,243.140857 297.544749,242.364331 297.797221,241.615006 C299.011775,242.771724 301.082302,242.118178 302.458797,243.043553 C302.83198,243.307678 303.13722,243.656524 303.34947,244.061466 C303.734612,244.802617 303.996378,245.601588 304.124472,246.426955 C304.211226,246.878075 304.292196,247.334979 304.361599,247.791883 C304.361599,247.872854 304.361599,247.936473 304.361599,248.005876 C304.361599,248.075279 304.361599,248.150466 304.361599,248.225653 C304.407868,248.549534 304.448353,248.884982 304.465704,249.214647 C304.558241,249.960731 304.558241,250.677896 304.558241,251.412413 Z" id="Path" fill="#000000" fill-rule="nonzero" opacity="0.1"></path>
                <path d="M304.280629,251.366144 C303.997233,251.319875 303.70227,251.262039 303.430441,251.192636 L303.430441,251.192636 L302.892567,251.071181 C302.32203,250.946168 301.758341,250.791733 301.203757,250.608493 C300.073714,250.269654 298.966742,249.858162 297.889758,249.376588 L297.768303,249.324535 C297.10416,247.379302 296.853971,245.316718 297.033786,243.269113 C297.116664,242.529855 297.27559,241.80112 297.508041,241.094482 C298.722596,242.251201 300.793122,241.609222 302.169617,242.534597 C302.699813,242.915803 303.102894,243.44787 303.326336,244.061466 C303.551149,244.655478 303.719614,245.269313 303.829509,245.894865 C303.956748,246.571545 304.078203,247.248225 304.159173,247.936473 C304.177368,248.031818 304.187046,248.128593 304.188091,248.225653 C304.188091,248.289272 304.188091,248.370243 304.188091,248.433862 C304.188091,248.497482 304.188091,248.595803 304.188091,248.682557 C304.29798,249.567446 304.292196,250.469687 304.280629,251.366144 Z" id="Path" fill="#E09285" fill-rule="nonzero"></path>
                <path d="M324.367049,247.710913 C323.314053,248.343088 322.222695,248.909049 321.099318,249.405506 C320.787004,249.544312 320.463123,249.677335 320.139242,249.810357 C319.815361,249.94338 319.514614,250.064835 319.190733,250.16894 C319.028792,250.238343 318.855284,250.296179 318.68756,250.354015 L318.68756,250.354015 C318.668365,250.351467 318.648918,250.351467 318.629724,250.354015 C318.276925,250.481254 317.912558,250.591142 317.553976,250.701031 L317.282147,250.76465 C317.282147,250.24991 317.282147,249.71782 317.339983,249.197296 C317.380468,248.786661 317.426737,248.376026 317.484572,247.965391 C317.484572,247.890204 317.484572,247.815018 317.51349,247.739831 C317.51914,247.6918 317.51914,247.643272 317.51349,247.595241 C317.582894,247.201957 317.65808,246.802889 317.733267,246.409604 C317.853234,245.58231 318.115435,244.78201 318.508269,244.044115 C318.725138,243.646949 319.032189,243.306222 319.404725,243.049337 C320.781221,242.123962 322.874881,242.754373 324.0316,241.620789 C324.259211,242.29283 324.416215,242.986749 324.500071,243.691316 C324.656783,245.030303 324.611944,246.385216 324.367049,247.710913 L324.367049,247.710913 Z" id="Path" fill="#000000" fill-rule="nonzero" opacity="0.1"></path>
                <path d="M324.534773,247.595241 L324.367049,247.710913 C323.314053,248.343088 322.222695,248.909049 321.099318,249.405506 C320.787004,249.544312 320.463123,249.677335 320.139242,249.810357 C319.815361,249.94338 319.514614,250.064835 319.190733,250.16894 C319.028792,250.238343 318.855284,250.296179 318.68756,250.354015 L318.68756,250.354015 C318.668365,250.351467 318.648918,250.351467 318.629724,250.354015 C318.276925,250.481254 317.912558,250.591142 317.553976,250.701031 C317.553976,250.018567 317.553976,249.341886 317.611812,248.665206 C317.611812,248.491698 317.611812,248.312407 317.65808,248.138899 C317.65808,248.063712 317.65808,247.976958 317.65808,247.901771 C317.65808,247.826585 317.65808,247.774532 317.65808,247.72248 C317.744834,247.097852 317.848939,246.490575 317.976178,245.877514 C318.086072,245.251962 318.254538,244.638128 318.479351,244.044115 C318.702793,243.430519 319.105874,242.898453 319.636069,242.517246 C321.012564,241.591871 323.106225,242.222283 324.262944,241.077131 C324.511407,241.803758 324.674445,242.556838 324.748766,243.321166 C324.904364,244.748196 324.832132,246.190889 324.534773,247.595241 Z" id="Path" fill="#E09285" fill-rule="nonzero"></path>
                <ellipse id="Oval" fill="#9BA7AB" fill-rule="nonzero" cx="310.116275" cy="222.309371" rx="8.05076192" ry="5.36717461"></ellipse>
                <path d="M303.424657,250.382933 C303.424657,250.504388 303.424657,250.631628 303.424657,250.76465 C303.424657,250.897673 303.424657,251.019128 303.424657,251.146367 C303.422442,251.161711 303.422442,251.177293 303.424657,251.192636 L303.424657,251.192636 L302.886783,251.071181 C302.877975,250.969194 302.877975,250.866637 302.886783,250.76465 C302.885522,249.679346 303.356246,248.647129 304.176524,247.936473 C304.229501,247.880419 304.289811,247.831782 304.355816,247.791883 C304.666314,247.539664 305.018677,247.343907 305.396862,247.213524 C305.743907,247.079563 306.112195,247.00904 306.484178,247.005315 C306.534138,246.99958 306.584591,246.99958 306.634551,247.005315 C306.726995,246.999418 306.81972,246.999418 306.912164,247.005315 L306.721305,247.005315 C305.835706,247.098624 305.013875,247.509539 304.407868,248.162033 C304.340457,248.224465 304.280312,248.294311 304.228577,248.370243 C303.765794,248.945904 303.485817,249.646854 303.424657,250.382933 Z" id="Path" fill="#000000" fill-rule="nonzero" opacity="0.05"></path>
                <path d="M309.312355,250.76465 C309.311682,251.126947 309.268983,251.487942 309.185116,251.840399 C307.633162,251.835698 306.084725,251.692467 304.558241,251.412413 L304.280629,251.366144 C303.997233,251.319875 303.70227,251.262039 303.430441,251.192636 L303.430441,251.192636 L303.430441,251.146367 C303.430441,251.019128 303.430441,250.897673 303.430441,250.76465 C303.430441,250.631628 303.430441,250.504388 303.430441,250.382933 C303.479376,249.606841 303.743755,248.85977 304.193875,248.225653 C304.245415,248.146053 304.305539,248.072352 304.373166,248.005876 C304.642752,247.669338 304.990099,247.403369 305.385295,247.230875 C305.688749,247.086116 306.020726,247.011026 306.356939,247.011098 C306.395285,247.005397 306.434264,247.005397 306.472611,247.011098 C306.551549,247.005365 306.6308,247.005365 306.709738,247.011098 C308.172987,247.259793 309.312355,248.844497 309.312355,250.76465 Z" id="Path" fill="#E09285" fill-rule="nonzero"></path>
                <path d="M319.190733,250.16894 C319.028792,250.238343 318.855284,250.296179 318.68756,250.354015 L318.68756,250.354015 C318.604718,249.52556 318.241528,248.750211 317.65808,248.15625 L317.484572,247.982742 C316.906874,247.464414 316.184304,247.135422 315.414046,247.040016 L315.223187,247.040016 C315.31178,247.034376 315.400641,247.034376 315.489233,247.040016 C315.541137,247.034467 315.593485,247.034467 315.64539,247.040016 C316.018728,247.048827 316.388054,247.119175 316.738489,247.248225 C317.016755,247.343725 317.282726,247.471857 317.530841,247.629943 C317.595093,247.66283 317.653669,247.705786 317.704349,247.757182 C318.501456,248.330856 319.036526,249.199042 319.190733,250.16894 Z" id="Path" fill="#000000" fill-rule="nonzero" opacity="0.05"></path>
                <path d="M318.68756,250.354015 L318.68756,250.354015 C318.668365,250.351467 318.648918,250.351467 318.629724,250.354015 C318.276925,250.481254 317.912558,250.591142 317.553976,250.701031 L317.282147,250.76465 C316.958265,250.862971 316.634384,250.943942 316.310503,251.013345 C315.192923,251.299531 314.056505,251.506329 312.90975,251.632189 L312.90975,251.632189 C312.851115,251.340899 312.822049,251.044431 312.822974,250.747299 C312.822974,248.827146 313.979715,247.242442 315.431397,247.022665 C315.508397,247.016725 315.58574,247.016725 315.662741,247.022665 C315.699152,247.017019 315.736217,247.017019 315.772629,247.022665 C316.112701,247.021256 316.448734,247.096369 316.75584,247.242442 C317.043573,247.370112 317.306065,247.548372 317.530841,247.768749 C317.594296,247.816376 317.652464,247.870666 317.704349,247.930689 C318.284526,248.61149 318.62937,249.461429 318.68756,250.354015 Z" id="Path" fill="#E09285" fill-rule="nonzero"></path>
                <path d="M310.116275,227.144455 C305.801714,227.144455 302.279506,224.888854 302.071296,222.049109 C302.071296,222.135863 302.071296,222.222617 302.071296,222.315155 C302.071296,225.282138 305.680258,227.682329 310.127842,227.682329 C314.575425,227.682329 318.178604,225.282138 318.178604,222.315155 C318.178604,222.222617 318.178604,222.135863 318.178604,222.049109 C317.94726,224.888854 314.425052,227.144455 310.116275,227.144455 Z" id="Path" fill="#000000" fill-rule="nonzero" opacity="0.1"></path>
                <path d="M280.891715,67.1991813 C280.881777,71.9867997 282.075036,76.7001725 284.361933,80.9062975 C284.622195,81.3747686 284.88824,81.8432397 285.183204,82.3001435 C285.216675,82.3692906 285.259488,82.4335108 285.310443,82.4910021 C285.629049,83.0025323 285.974625,83.4967631 286.345706,83.971602 C287.546826,85.6426473 288.932022,87.173347 290.475192,88.5348572 C290.76162,88.8094077 291.062814,89.0681261 291.377432,89.3098587 C292.368193,90.1377587 293.419928,90.889827 294.523707,91.5596765 L294.697215,91.6753483 C295.750033,92.305996 296.839253,92.8737809 297.959161,93.3757248 L298.925021,93.7747927 C299.243119,93.9078154 299.543866,94.0350544 299.873531,94.1391591 C300.035471,94.2027786 300.203196,94.2606146 300.376703,94.3184505 L300.376703,94.3184505 C300.376703,94.3184505 300.376703,94.3184505 300.376703,94.3184505 L300.457674,94.3184505 C300.808545,94.4456895 301.167128,94.5613614 301.533422,94.6654661 L301.799467,94.7290856 C302.123349,94.8274067 302.453013,94.9141606 302.776895,94.9777801 C303.216448,95.093452 303.650217,95.1917731 304.101338,95.2727434 C304.778018,95.405766 305.477833,95.5214379 306.171864,95.6024082 L306.171864,95.6024082 C307.283131,95.7351998 308.401393,95.8008664 309.520564,95.799087 L309.861796,95.799087 C311.413778,95.7894889 312.961956,95.6443472 314.488671,95.3652809 C314.582124,95.3559665 314.674862,95.3405102 314.766284,95.3190121 C315.04968,95.2727434 315.344643,95.2149075 315.616472,95.1455043 L315.616472,95.1455043 C315.801547,95.1108028 315.969271,95.0703176 316.154346,95.0240489 C316.732705,94.8968098 317.311065,94.7464364 317.843155,94.567145 C318.184387,94.4572567 318.519836,94.353152 318.855284,94.2374802 C319.531965,94.0003529 320.208645,93.7458747 320.856407,93.4566951 C320.957478,93.4232399 321.056047,93.3826528 321.151371,93.3352396 L321.27861,93.2774037 C322.134582,92.8918308 322.967419,92.461917 323.777122,91.9876624 C324.46537,91.594378 325.136266,91.1663921 325.784029,90.7152718 L325.824514,90.7152718 C325.930024,90.6537944 326.030578,90.5841801 326.125261,90.5070625 C337.173638,82.6472241 341.194868,68.1159097 335.758923,55.6943882 C330.322979,43.2728668 316.92021,36.3666966 303.649907,39.1492742 C290.379603,41.9318519 280.880031,53.6402894 280.891715,67.1991813 L280.891715,67.1991813 Z" id="Path" stroke="#979797" stroke-width="0.5" fill="#D2DADD" fill-rule="nonzero" opacity="0.403413318"></path>
                <path d="M315.888301,78.5465915 C316.310646,78.918355 316.604253,79.4144487 316.726922,79.9635718 C315.894084,80.1833484 315.043896,79.7727133 314.268895,79.3852125 C311.862547,78.2565103 309.322464,77.4383198 306.709738,76.9503197 C306.500572,76.9309354 306.300633,76.8549586 306.131379,76.7305432 C305.861471,76.3661333 305.875806,75.8643932 306.16608,75.5159886 C306.45526,75.2152417 306.998918,75.2557269 307.392202,75.2383761 C310.562402,75.0762068 313.651829,76.2707573 315.888301,78.5234571 L315.888301,78.5465915 Z" id="Path" fill="#E09285" fill-rule="nonzero"></path>
                <path d="M307.426904,76.2447213 C307.076887,77.1200901 306.385779,77.8153742 305.512534,78.1706579 C305.044063,78.3383821 304.540891,78.3673001 304.066636,78.5003227 C303.574511,78.6029122 303.159077,78.9305486 302.944619,79.3852125 C302.881054,79.5871233 302.851731,79.7982492 302.857865,80.0098406 C302.782678,82.0051803 302.724842,84.0583559 303.522978,85.9091058 C304.211226,87.4938104 305.472049,88.7430665 306.721305,89.9287031 C308.178771,91.3225491 309.72299,92.7337459 311.643143,93.358374 C312.76516,93.7227404 314.089603,93.7632255 315.020762,93.0402764 C315.386078,92.7232834 315.703609,92.3551031 315.963487,91.9471772 C316.61296,91.0965199 317.156741,90.1701495 317.582894,89.1884032 C318.375246,87.1525783 318.109201,84.8738426 317.831588,82.7049951 C317.829874,82.5761281 317.780415,82.4524789 317.692782,82.3579795 C317.5721,82.2827932 317.426764,82.2578785 317.28793,82.2885764 C316.269283,82.3921032 315.298376,81.8333074 314.876172,80.900514 C314.756655,80.4876423 314.711611,80.0567872 314.743149,79.6281234 L314.783634,77.1527455 C314.80297,76.8870595 314.771565,76.6201211 314.691097,76.3661768 C314.463761,75.9536193 314.096656,75.6357351 313.655834,75.4697198 C312.304146,74.7931112 310.895148,74.2376407 309.445378,73.8098285 C308.809182,73.6247535 308.323361,73.3124395 308.039965,73.9949035 C307.756568,74.6773675 307.756568,75.5275557 307.426904,76.2447213 Z" id="Path" fill="#E8D3B7" fill-rule="nonzero"></path>
                <circle id="Oval" fill="#EEDBC2" fill-rule="nonzero" cx="314.124305" cy="70.6982553" r="7.55337289"></circle>
                <path d="M304.08977,95.3074449 C304.766451,95.4404676 305.466266,95.5561395 306.160297,95.6371098 L306.160297,95.6371098 C307.271564,95.7699014 308.389826,95.8355679 309.508997,95.8337886 L309.850229,95.8337886 C311.40221,95.8241904 312.950389,95.6790487 314.477104,95.3999824 C314.570556,95.3906681 314.663294,95.3752117 314.754716,95.3537137 C315.038113,95.3074449 315.333076,95.249609 315.604905,95.1802059 L315.604905,95.1802059 C315.78998,95.1455043 315.957704,95.1050192 316.142779,95.0587504 C316.721138,94.9315114 317.299497,94.781138 317.831588,94.6018466 C318.17282,94.4919583 318.508269,94.3878536 318.843717,94.2721817 C319.520397,94.0350544 320.197078,93.7805763 320.84484,93.4913966 C320.678179,92.9772051 320.541077,92.4538986 320.434205,91.9240428 C320.247706,90.7928454 320.174086,89.6459138 320.214429,88.5001556 C320.214429,87.5805643 320.254914,86.6667565 320.214429,85.7529488 C320.228978,85.0117043 320.121511,84.2731136 319.896331,83.5667505 C319.66457,82.8539331 319.156071,82.2641575 318.485134,81.9299936 C317.623379,81.5482764 316.327854,81.3516342 315.477666,81.7796201 C315.380474,81.831849 315.287637,81.8918059 315.200053,81.9589115 C315.014983,82.113765 314.871793,82.312641 314.783634,82.5372709 C314.506022,83.2313021 314.205275,83.9311169 313.93923,84.6251481 C313.767796,85.1086615 313.54071,85.5705964 313.262549,86.0016433 C312.402152,87.1635451 310.902915,87.6571114 309.520564,87.2335487 C309.435762,87.2058135 309.352712,87.17298 309.27187,87.1352276 C308.115151,86.6667565 307.056754,85.6546277 305.847983,85.9264566 C305.170541,86.1067662 304.613795,86.588853 304.338465,87.2335487 C304.321643,87.2668627 304.308084,87.3017268 304.29798,87.3376533 C304.054807,87.9424856 303.914075,88.5835975 303.881561,89.2346719 C303.70672,91.2599427 303.776627,93.2989051 304.08977,95.3074449 L304.08977,95.3074449 Z" id="Path" fill="#F2F2F2" fill-rule="nonzero"></path>
                <path d="M290.475192,88.5522079 C290.76162,88.8267585 291.062814,89.0854768 291.377432,89.3272094 C292.368193,90.1551095 293.419928,90.9071777 294.523707,91.5770272 L294.697215,91.6926991 C295.750033,92.3233468 296.839253,92.8911316 297.959161,93.3930756 L298.925021,93.7921435 C299.243119,93.9251661 299.543866,94.0524052 299.873531,94.1565099 C300.035471,94.2201294 300.203196,94.2779653 300.376703,94.3358013 L300.376703,94.3358013 C300.376703,94.3358013 300.376703,94.3358013 300.376703,94.3358013 L300.457674,94.3358013 C300.808545,94.4630403 301.167128,94.5787122 301.533422,94.6828169 L301.799467,94.7464364 C302.123349,94.8447575 302.453013,94.9315114 302.776895,94.9951309 C303.216448,95.1108028 303.650217,95.2091239 304.101338,95.2900942 C304.778018,95.4231168 305.477833,95.5387887 306.171864,95.619759 L306.171864,95.619759 C307.283131,95.7525506 308.401393,95.8182171 309.520564,95.8164378 L309.861796,95.8164378 C311.413778,95.8068397 312.961956,95.6616979 314.488671,95.3826317 C314.582124,95.3733173 314.674862,95.3578609 314.766284,95.3363629 C315.04968,95.2900942 315.344643,95.2322582 315.616472,95.1628551 L315.616472,95.1628551 C315.801547,95.1281536 315.969271,95.0876684 316.154346,95.0413997 C316.732705,94.9141606 317.311065,94.7637872 317.843155,94.5844958 C318.184387,94.4746075 318.519836,94.3705028 318.855284,94.254831 C319.531965,94.0177036 320.208645,93.7632255 320.856407,93.4740459 C320.957478,93.4405907 321.056047,93.4000036 321.151371,93.3525904 L321.27861,93.2947545 C322.134582,92.9091816 322.967419,92.4792678 323.777122,92.0050132 C324.345117,90.4909341 324.82784,88.9462221 325.22302,87.3781385 C325.220549,87.3473422 325.220549,87.3163973 325.22302,87.285601 C324.32078,85.6835456 323.522644,84.0178708 322.626187,82.4158154 C322.107238,81.1880678 320.970897,80.3319502 319.647636,80.1717812 C319.021014,79.9650892 318.369223,79.8444591 317.710133,79.8131984 C317.335615,79.7783096 316.964357,79.7144997 316.599683,79.6223398 C315.847816,79.4546156 315.014978,79.292675 314.737366,79.6223398 L314.737366,79.6223398 C314.713123,79.6399277 314.69822,79.6676062 314.69688,79.6975265 C314.592836,80.0860101 314.640389,80.4995208 314.829903,80.8542452 C314.957142,81.2186116 315.124866,81.6003287 315.21162,81.9126428 C315.263329,82.0617149 315.292567,82.2176517 315.298374,82.3753303 C315.318883,83.052799 315.295701,83.7308853 315.228971,84.4053715 C315.06703,85.3885824 314.523373,86.2561214 314.268895,87.2104143 C314.153223,87.6615346 314.095387,88.1300056 314.0202,88.5869095 C313.859364,89.6187725 313.589894,90.6307414 313.216281,91.6059452 C313.149074,91.81308 313.049523,92.008279 312.921317,92.1843045 C312.447063,92.7626639 311.660494,92.5428873 310.91441,92.4329991 C310.370753,91.9703116 310.399671,91.1490413 310.336051,90.4550101 C310.176616,89.289226 309.820703,88.1589063 309.283437,87.1120932 L309.086795,86.6956745 C308.508436,85.4984707 307.930076,84.3070504 307.386419,83.104063 C306.686604,81.6118959 305.963655,79.9057359 306.542014,78.3615165 C306.709738,77.898829 306.981567,77.4881939 307.166642,77.0428572 C307.196755,76.977367 307.221888,76.9097001 307.241829,76.8404314 C307.295019,76.669869 307.324217,76.4927348 307.328583,76.3141244 C307.37002,75.9911799 307.273434,75.6657258 307.062537,75.4176675 C307.031701,75.3704735 306.9925,75.3293122 306.946865,75.296212 C306.927553,75.2757088 306.903816,75.2598841 306.877462,75.2499433 C306.491311,75.0277663 306.021509,75.0062158 305.616639,75.1921073 C305.388416,75.2750191 305.166185,75.3735741 304.951526,75.4870706 C303.815975,76.1267481 302.720811,76.8356106 301.672228,77.6096493 C301.364493,77.7923632 301.124855,78.070587 300.989764,78.4020016 C300.965362,78.6217306 300.928675,78.8399208 300.879876,79.0555477 C300.717935,79.4661828 300.22633,79.5876383 299.804128,79.6801758 C296.275417,80.4949997 293.237999,82.7270417 291.40635,85.8512698 C291.099778,86.348325 290.858727,86.882915 290.689185,87.441758 C290.586238,87.8051094 290.514645,88.1766208 290.475192,88.5522079 Z" id="Path" fill="#E09285" fill-rule="nonzero"></path>
                <path d="M317.449871,66.435747 C316.426175,67.4825774 314.789418,67.5230626 313.326169,67.4999282 L313.372438,66.9215689 L311.319262,67.6560852 C311.852941,67.2604096 312.309664,66.7703637 312.666839,66.2101869 C312.375221,65.9930487 311.983049,65.9681129 311.666278,66.1465674 C311.358367,66.3254702 311.101488,66.5803579 310.920194,66.8868673 C309.737524,68.6579271 309.460927,70.8835656 310.174111,72.8902372 C309.748707,73.0993692 309.244156,73.06632 308.849668,72.8034833 C308.464077,72.5390517 308.167659,72.1639916 307.999479,71.7277349 C307.878024,71.4501224 307.750785,71.1493756 307.461605,71.0394873 C307.204978,70.976601 306.93836,71.0956268 306.813843,71.328667 C306.692248,71.5530895 306.643724,71.809865 306.675037,72.0631833 C306.715522,72.6415427 307.149291,73.219902 307.253396,73.7982613 C307.357501,74.3766207 308.213472,74.8393081 307.762352,75.2268089 C307.23368,75.4257418 306.681653,75.5559734 306.119812,75.6143096 C305.893816,75.5464691 305.716165,75.3709845 305.645557,75.1458386 C305.188653,74.1394933 305.350594,72.9654239 305.067198,71.8954591 C304.804472,71.0461514 304.401796,70.2466651 303.875777,69.5299695 C303.74912,69.3109598 303.597757,69.1072022 303.424657,68.9226922 C303.242659,68.7896167 303.09252,68.617747 302.985104,68.4195195 C302.909917,68.2113102 303.054507,67.9047797 303.274284,67.9452649 C302.915595,67.5976615 302.528696,67.2804044 302.117565,66.9967556 C302.522417,66.4877994 302.915701,65.967276 303.274284,65.4467526 C303.407306,65.2616776 303.546113,65.0361174 303.447791,64.8336917 C303.392012,64.7393452 303.312176,64.6615053 303.216448,64.6081315 L302.192752,63.9141003 C302.192752,63.4282785 303.158612,63.6075699 303.308985,63.150666 C303.346383,63.0301165 303.346383,62.9010655 303.308985,62.780516 L302.950402,61.4734239 L304.31533,62.0922684 C304.473114,62.183073 304.654176,62.2253209 304.835854,62.2137239 C305.194437,62.1616715 305.367944,61.7394692 305.414213,61.3751029 C305.377168,61.0106174 305.424667,60.6424984 305.553019,60.2993545 C306.171864,60.2993545 306.790708,60.2993545 307.403769,60.2993545 C307.444079,59.990048 307.36326,59.6771328 307.178209,59.4260319 L311.735681,59.1715538 C312.510235,59.0833396 313.294407,59.1382316 314.049118,59.3334944 C314.289721,59.446971 314.552317,59.5062031 314.818336,59.5070022 C315.078598,59.5070022 315.344643,59.2351733 315.269456,58.9806952 C315.952901,59.3664474 316.578005,59.8474467 317.12599,60.4092428 C317.271953,60.5862781 317.450642,60.7335493 317.652297,60.8430123 C317.861633,60.9510243 318.115562,60.9212849 318.294276,60.7678256 C318.421515,60.6348029 318.479351,60.3976756 318.664426,60.3861084 C318.849501,60.3745412 318.872635,60.4786459 318.942038,60.5653998 C319.202754,60.9002605 319.414978,61.2701923 319.57245,61.6642825 C319.899953,61.619773 320.220563,61.5342769 320.526743,61.4098044 C320.234215,61.7218881 320.165146,62.1823469 320.353235,62.5665231 C320.503608,62.9540238 320.781221,63.2836887 320.966296,63.6538386 C321.148563,64.0541045 321.271317,64.4788729 321.330662,64.914662 C321.4232,65.4583198 321.4232,66.1465674 320.943161,66.4126127 C320.478599,66.5727516 319.963425,66.4562775 319.612935,66.1118658 C318.508269,65.3252971 318.305843,65.5566408 317.449871,66.435747 Z" id="Path" fill="#9BA7AB" fill-rule="nonzero"></path>
                <path d="M291.377432,89.3272094 C292.368193,90.1551095 293.419928,90.9071777 294.523707,91.5770272 L294.697215,91.6926991 C295.750033,92.3233468 296.839253,92.8911316 297.959161,93.3930756 L298.925021,93.7921435 C299.243119,93.9251661 299.543866,94.0524052 299.873531,94.1565099 C300.035471,94.2201294 300.203196,94.2779653 300.376703,94.3358013 L300.376703,94.3358013 C300.376703,94.3358013 300.376703,94.3358013 300.376703,94.3358013 C300.174278,93.7574419 300.041255,93.1790826 299.861964,92.6007233 C299.384549,91.05575 298.532149,89.6529657 297.380802,88.5175064 C296.386024,87.5227283 294.801319,86.0710464 293.332287,86.9501526 C292.884538,87.2518892 292.493059,87.6296672 292.175568,88.0663861 C291.893648,88.388158 291.652752,88.7436743 291.458402,89.1247837 C291.429485,89.176836 291.40635,89.2462391 291.377432,89.3272094 Z" id="Path" fill="#E09285" fill-rule="nonzero"></path>
                <path d="M318.878418,94.2663981 C319.555099,94.0292708 320.231779,93.7747927 320.879542,93.485613 C320.980613,93.4521579 321.079181,93.4115707 321.174505,93.3641576 L321.301744,93.3063217 C322.157716,92.9207488 322.990553,92.490835 323.800256,92.0165803 C324.488504,91.623296 325.159401,91.1953101 325.807163,90.7441898 L325.847648,90.7441898 C325.795606,90.0994036 325.795606,89.4514722 325.847648,88.806686 C325.880912,88.5903671 325.867103,88.3694173 325.807163,88.1589236 C325.726756,87.9922725 325.617052,87.8414292 325.483282,87.7135869 C325.398181,87.6284463 325.318956,87.537628 325.246155,87.441758 C324.592609,86.7072417 324.060518,85.9148894 322.932717,86.0305612 C321.804917,86.1462331 320.833273,87.1178768 320.359018,88.1994087 C320.3072,88.3034337 320.264623,88.4118109 320.231779,88.52329 C319.909261,89.5280347 319.658015,90.5542773 319.479912,91.594378 C319.329539,92.2363569 319.13868,92.8552014 318.999874,93.4971802 C318.965172,93.7343076 318.91312,94.0003529 318.878418,94.2663981 Z" id="Path" fill="#E09285" fill-rule="nonzero"></path>
                <polygon id="Path" fill="url(#linearGradient-1)" fill-rule="nonzero" points="188.504658 264.668409 188.504658 264.668409 188.250179 264.807215"></polygon>
                <path d="M152.976044,233.431221 C150.743577,239.862577 153.351977,250.301963 154.560748,254.957755 C155.362029,258.326089 155.891962,261.753245 156.145453,265.206283 C158.865882,265.669127 161.649808,265.606302 164.346588,265.021208 L162.391734,255.426226 C163.78558,249.740954 162.391734,234.553238 162.391734,234.553238 C162.391734,234.553238 165.555359,228.682891 165.86189,219.735672 C166.133719,210.933043 168.302566,208.087515 168.371969,207.994977 L168.371969,207.994977 C172.842687,210.308415 178.527959,235.299322 178.527959,235.299322 C178.059488,241.354744 178.620497,250.672113 180.482814,255.703839 C181.612441,258.900195 182.088402,262.29092 181.882443,265.674754 C182.614621,266.200636 183.540875,266.378274 184.415657,266.160576 C187.07611,265.73259 190.268654,263.436503 190.268654,263.436503 C190.268654,263.436503 189.244957,236.253615 188.498874,235.206784 C187.75279,234.159954 188.498874,228.312741 188.498874,228.312741 L187.284319,218.804513 C187.284319,218.804513 187.469394,202.685639 185.699615,199.892163 C184.172746,197.474621 183.819947,193.235247 183.750544,192.119014 C183.750544,191.945506 183.750544,191.847185 183.750544,191.847185 L181.055389,188.614156 C181.055389,188.614156 154.9656,186.659302 153.004962,188.614156 C152.524923,189.094194 152.22996,190.187294 152.050669,191.563789 C151.512795,195.791596 152.131639,202.685639 152.131639,202.685639 C152.131639,202.685639 152.912424,207.809902 154.034441,213.026704 C154.705293,216.160614 154.705293,219.401021 154.034441,222.534931 C154.390978,226.201296 154.031514,229.902009 152.976044,233.431221 Z" id="Path" stroke="#979797" stroke-width="0.5" fill="#9BA7AB" fill-rule="nonzero"></path>
                <path d="M154.583883,274.292308 C155.740601,275.830744 162.599943,275.177198 163.762445,274.697159 C164.473827,274.40798 164.421775,273.066186 164.230916,271.689691 C164.109461,270.810585 163.930169,269.914128 163.854983,269.260582 C163.669908,267.58334 164.433342,264.182587 164.433342,264.182587 C164.433342,264.182587 162.894906,265.81356 162.524756,264.182587 C162.348149,263.548943 161.836719,263.064196 161.19453,262.921763 C160.396779,262.679885 159.538615,262.733264 158.776988,263.072137 C157.562433,263.59266 155.543959,264.714677 155.885191,266.229979 C156.394147,268.369908 154.578099,271.435213 154.578099,271.435213 C153.901418,272.280387 153.901418,273.481835 154.578099,274.327009 L154.583883,274.292308 Z" id="Path" fill="#CBCEDA" fill-rule="nonzero"></path>
                <path d="M154.583883,274.292308 C155.740601,275.830744 162.599943,275.177198 163.762445,274.697159 C164.473827,274.40798 164.421775,273.066186 164.230916,271.689691 C163.4964,272.030923 162.24136,272.320103 160.182401,272.12346 C159.695992,272.079166 159.207387,272.063716 158.719152,272.077192 C157.236348,272.147486 155.750503,272.118503 154.271569,271.990438 C153.934113,272.75535 154.054815,273.644964 154.583883,274.292308 L154.583883,274.292308 Z" id="Path" fill="#000000" fill-rule="nonzero" opacity="0.1"></path>
                <path d="M178.487474,235.299322 C178.019003,241.354744 178.580011,250.672113 180.442328,255.703839 C181.571956,258.900195 182.047916,262.29092 181.841958,265.674754 C182.574136,266.200636 183.50039,266.378274 184.375172,266.160576 C183.796813,262.233516 181.419756,245.299154 179.88132,231.921703 C178.768184,222.656325 175.358741,213.815631 169.962457,206.202064 L168.331484,207.994977 C172.802202,210.325766 178.487474,235.299322 178.487474,235.299322 Z" id="Path" fill="#000000" fill-rule="nonzero" opacity="0.1"></path>
                <path d="M157.383142,137.365736 L158.53986,142.95847 L164.115244,152.322108 L170.986153,149.389826 C170.986153,149.389826 180.326657,139.603986 174.456309,138.204357 C173.752462,138.056626 173.088078,137.760906 172.507238,137.336818 C171.486371,136.523742 170.920067,135.2684 170.986153,133.964983 C171.031561,132.578403 171.356129,131.21522 171.940446,129.956953 L159.916356,126.191833 C160.408242,127.772157 160.697802,129.408463 160.778111,131.061619 C160.870649,134.335133 159.65031,135.948755 158.655532,136.717973 C158.27852,137.016082 157.846008,137.23627 157.383142,137.365736 Z" id="Path" fill="#EEDBC2" fill-rule="nonzero"></path>
                <path d="M159.916356,126.191833 C160.408242,127.772157 160.697802,129.408463 160.778111,131.061619 C160.994743,131.323601 161.228528,131.570911 161.477926,131.801919 C163.236111,133.488193 165.577257,134.430867 168.013386,134.433473 C169.011497,134.435476 170.003464,134.277308 170.951452,133.964983 C170.99686,132.578403 171.321427,131.21522 171.905745,129.956953 L159.916356,126.191833 Z" id="Path" fill="#000000" fill-rule="nonzero" opacity="0.1"></path>
                <path d="M158.516612,124.647614 C158.514389,128.49491 160.830763,131.96446 164.384979,133.437296 C167.939195,134.910131 172.030709,134.095954 174.75033,131.374676 C177.469952,128.653398 178.281638,124.561389 176.806639,121.008071 C175.33164,117.454752 171.860681,115.14049 168.013386,115.145083 C165.490407,115.134338 163.067716,116.132193 161.284227,117.916768 C159.500738,119.701344 158.504358,122.124641 158.516612,124.647614 Z" id="Path" fill="#EEDBC2" fill-rule="nonzero"></path>
                <path d="M157.383142,137.365736 L158.53986,142.95847 L164.115244,152.322108 L170.986153,149.389826 C170.986153,149.389826 180.326657,139.603986 174.456309,138.204357 C173.752462,138.056626 173.088078,137.760906 172.507238,137.336818 C173.565636,140.228614 169.193239,146.312955 169.193239,146.312955 C168.684283,147.059038 167.515997,146.590567 167.515997,146.590567 C164.693604,146.162581 159.505721,138.059767 158.661316,136.71219 C158.283066,137.013037 157.848494,137.235239 157.383142,137.365736 Z" id="Path" fill="#000000" fill-rule="nonzero" opacity="0.1"></path>
                <path d="M151.998616,191.546438 C153.652724,191.922372 162.808152,193.952413 166.278308,193.443457 C170.101264,192.865097 177.527397,192.512298 177.527397,192.512298 C177.527397,192.512298 182.258377,192.766776 183.710059,192.101663 C183.710059,191.928155 183.710059,191.829834 183.710059,191.829834 L181.014904,188.596805 C181.014904,188.596805 154.925115,186.641951 152.964477,188.596805 C152.472871,189.094194 152.177908,190.187294 151.998616,191.546438 Z" id="Path" fill="#000000" fill-rule="nonzero" opacity="0.1"></path>
                <path d="M169.170105,146.590567 C169.170105,146.590567 174.086159,139.783278 172.229626,137.128608 L180.534866,140.535145 C180.534866,140.535145 185.531891,139.927868 187.336372,147.388703 C187.625168,148.629387 187.730393,149.905727 187.648686,151.176957 C187.59924,153.151376 188.069961,155.104074 189.013614,156.839094 C191.066789,160.939662 190.598318,170.349568 186.405213,171.298078 C182.212108,172.246587 180.719941,171.760765 180.719941,171.760765 C180.719941,171.760765 181.2983,188.810798 183.704275,190.771437 C186.11025,192.732075 177.527397,192.263604 177.527397,192.263604 C177.527397,192.263604 170.101264,192.633754 166.278308,193.194762 C162.455353,193.755771 151.744138,191.234124 151.744138,191.234124 C151.744138,191.234124 153.328843,184.062468 153.884068,179.49343 C154.439293,174.924391 155.752168,165.207954 155.752168,165.207954 L146.243941,152.333675 C146.243941,152.333675 144.566699,144.554742 150.437046,141.107721 C156.307393,137.660699 158.534077,136.810511 158.534077,136.810511 C158.534077,136.810511 164.433342,146.417059 167.510214,146.88553 C167.492863,146.873963 168.661149,147.342434 169.170105,146.590567 Z" id="Path" stroke="#B77064" stroke-width="0.5" fill="#E09285" fill-rule="nonzero"></path>
                <path d="M180.072178,149.291505 C180.072178,149.291505 180.164716,152.368377 179.603707,153.582931 C179.042699,154.797486 176.995307,161.500671 176.995307,161.500671 L181.651099,161.500671 C181.651099,161.500671 179.135236,158.799733 179.337662,157.49264 C179.540088,156.185548 180.072178,149.291505 180.072178,149.291505 Z" id="Path" fill="#000000" fill-rule="nonzero" opacity="0.1"></path>
                <path d="M166.278308,172.495282 C166.278308,172.495282 176.567321,169.979418 177.527397,167.833705 C178.487474,165.687992 181.130576,160.893393 181.130576,160.893393 L180.04326,159.430144 L175.040452,163.357204 C175.040452,163.357204 169.077568,168.111318 166.278308,168.562438 C163.479049,169.013558 166.278308,172.495282 166.278308,172.495282 Z" id="Path" fill="#EEDBC2" fill-rule="nonzero"></path>
                <path d="M157.383142,160.384437 L157.383142,165.965605 L158.279599,165.965605 C162.711592,165.965385 167.070621,167.093955 170.945668,169.244902 L172.628694,170.176061 L173.079814,170.430539 L175.971611,163.923996 L173.270673,161.500671 L173.131866,161.500671 C172.466753,161.56429 169.609658,161.807201 168.400887,161.396566 C167.192116,160.985931 165.821404,159.765593 162.426435,160.633132 C160.76076,161.061118 159.332213,162.946569 157.712807,162.36821 L157.383142,160.384437 Z" id="Path" fill="#EEDBC2" fill-rule="nonzero"></path>
                <path d="M148.389654,150.228447 L146.527337,152.322108 L146.527337,157.423237 C146.527337,157.423237 148.112042,173.449574 153.143768,175.219354 C158.175494,176.989134 167.157415,174.195658 167.157415,174.195658 C167.157415,174.195658 169.470852,168.047698 168.38932,167.671765 C167.307788,167.295831 158.800122,165.051797 158.800122,165.051797 C158.800122,165.051797 158.915794,155.653458 157.065044,152.859982 C157.065044,152.859982 158.279599,144.097838 154.086494,143.912763 C149.893388,143.727688 148.389654,150.228447 148.389654,150.228447 Z" id="Path" fill="#000000" fill-rule="nonzero" opacity="0.1"></path>
                <path d="M148.112042,150.228447 L146.243941,152.322108 L146.243941,157.423237 C146.243941,157.423237 147.828646,173.449574 152.860372,175.219354 C157.892098,176.989134 166.856668,174.195658 166.856668,174.195658 C166.856668,174.195658 169.170105,168.047698 168.094357,167.671765 C167.018608,167.295831 158.499375,165.051797 158.499375,165.051797 C158.499375,165.051797 158.620831,155.653458 156.764297,152.859982 C156.764297,152.859982 157.973068,144.097838 153.779963,143.912763 C149.586858,143.727688 148.112042,150.228447 148.112042,150.228447 Z" id="Path" fill="#E09285" fill-rule="nonzero"></path>
                <path d="M161.125127,128.684562 C161.043692,128.072742 161.117275,127.450267 161.33912,126.874297 C161.581115,126.291543 162.181842,125.941513 162.808152,126.018326 C163.606288,126.203401 163.964871,127.244447 164.734089,127.493142 C165.432024,127.633049 166.13365,127.270222 166.422898,126.619819 C166.690229,125.978373 166.801241,125.282564 166.746779,124.589778 C166.746779,123.814776 166.746779,123.033991 166.746779,122.276341 C166.746779,121.51869 166.775697,120.512345 167.296221,119.847231 C167.949767,119.020178 169.476635,118.655811 170.494548,118.690513 C171.172944,118.695733 171.824072,118.958251 172.31638,119.425029 C172.821064,119.929965 173.526382,120.18065 174.236533,120.107493 C174.868756,120.011454 175.390184,119.561948 175.578326,118.950774 C175.575595,118.941329 175.575595,118.931302 175.578326,118.921857 C173.416901,116.073989 169.839918,114.680333 166.321538,115.315248 C162.803159,115.950163 159.93892,118.506179 158.909244,121.929902 C157.879568,125.353624 158.858742,129.065538 161.443224,131.535874 C161.281453,130.592485 161.175237,129.640408 161.125127,128.684562 Z" id="Path" fill="#000000" fill-rule="nonzero" opacity="0.1"></path>
                <path d="M174.2481,119.829881 C174.879119,119.731231 175.399346,119.282759 175.589894,118.673162 C175.66508,118.372415 175.64773,118.048534 175.734483,117.753571 C175.95426,117.019054 176.735045,116.637337 177.255569,116.082112 C178.308182,114.965879 178.238779,113.13248 177.492696,111.79647 C176.914336,110.714938 175.757618,109.806913 174.514145,110.015123 C173.762278,110.148145 173.108732,110.68602 172.345298,110.732288 C171.608902,110.680999 170.896163,110.450699 170.268988,110.061392 C168.652739,109.329262 166.835657,109.168151 165.115806,109.604488 C164.586893,109.709783 164.096873,109.957793 163.698826,110.321653 C163.428674,110.660164 163.17766,111.013515 162.946959,111.380051 C162.073636,112.490501 160.517849,112.704494 159.135571,112.953188 C157.753292,113.201883 156.185938,113.751324 155.729034,115.087334 C155.428287,115.96644 155.729034,116.926517 155.890975,117.846108 C155.952836,118.036362 155.94044,118.242975 155.856273,118.424468 C155.64228,118.78305 155.098622,118.632677 154.699555,118.719431 C153.918769,118.881371 153.716344,119.876149 153.687426,120.69742 C153.652724,121.617011 153.62959,122.536602 153.612239,123.456194 C153.512521,124.323141 153.837816,125.184851 154.485562,125.769631 L157.562433,129.465347 C158.927361,131.107888 160.37326,133.016473 160.101431,135.133269 C160.74341,135.422448 161.512627,134.86144 161.72662,134.184759 C161.870993,133.487476 161.835163,132.764894 161.622516,132.085315 C161.373662,130.885888 161.211304,129.670131 161.136694,128.447435 C161.055259,127.835614 161.128843,127.213139 161.350687,126.63717 C161.591678,126.050743 162.196768,125.699553 162.825503,125.781198 C163.623639,125.966273 163.982222,127.001536 164.75144,127.256015 C165.449055,127.393661 166.149341,127.031527 166.440249,126.382692 C166.707579,125.741246 166.818592,125.045437 166.76413,124.352651 L166.76413,122.039213 C166.76413,121.194809 166.793048,120.304135 167.313572,119.610104 C167.967118,118.78305 169.493986,118.424468 170.511899,118.453385 C171.189168,118.464234 171.83833,118.72596 172.333731,119.187902 C172.843014,119.67861 173.545938,119.914334 174.2481,119.829881 L174.2481,119.829881 Z" id="Path" stroke="#979797" stroke-width="0.5" fill="#9BA7AB" fill-rule="nonzero"></path>
                <path d="M172.102387,149.060161 L169.21059,161.04955 C169.21059,161.04955 166.885586,161.0322 172.102387,149.060161 Z" id="Path" fill="#000000" fill-rule="nonzero" opacity="0.1"></path>
                <path d="M162.131472,147.059038 C162.131472,147.059038 165.954427,153.316886 164.444909,159.782943 L163.733527,159.834996 C163.733527,159.834996 165.023269,156.844878 162.131472,147.059038 Z" id="Path" fill="#000000" fill-rule="nonzero" opacity="0.1"></path>
                <path d="M159.708146,182.466196 C159.708146,182.466196 155.017652,180.916193 154.67642,184.513589 C154.67642,184.513589 155.56131,182.043994 159.708146,182.466196 Z" id="Path" fill="#000000" fill-rule="nonzero" opacity="0.1"></path>
                <path d="M173.270673,161.778283 C173.270673,161.778283 174.201831,168.302176 172.524589,170.910577 C175.156693,171.84171 177.95215,172.221656 180.737292,172.026811 L181.315651,161.778283 L173.270673,161.778283 Z" id="Path" fill="#000000" fill-rule="nonzero" opacity="0.1"></path>
                <path d="M172.640261,170.176061 L173.091381,170.430539 L175.983178,163.923996 L173.28224,161.500671 L173.13765,161.500671 L173.13765,161.500671 C173.172352,161.812985 173.924219,167.417287 172.640261,170.176061 Z" id="Path" fill="#000000" fill-rule="nonzero" opacity="0.1"></path>
                <path d="M173.270673,161.500671 C173.270673,161.500671 174.201831,168.024564 172.524589,170.632965 C175.157544,171.560577 177.95227,171.940423 180.737292,171.749198 L183.999238,161.500671 L173.270673,161.500671 Z" id="Path" fill="#E09285" fill-rule="nonzero"></path>
                <path d="M181.315651,270.324763 C181.426081,271.281402 182.171545,272.041157 183.125916,272.169729 C185.653346,272.551446 191.749253,273.511523 193.287689,274.246039 C195.248327,275.177198 202.980992,274.523652 203.351142,273.592493 C203.457194,273.217545 203.409315,272.815784 203.218119,272.47626 C202.954798,271.906185 202.517394,271.434356 201.968863,271.128682 C201.783369,271.029759 201.589904,270.946569 201.390503,270.879988 C199.933038,270.394166 197.185831,269.364686 196.439748,268.283154 C196.439748,268.283154 193.010077,265.281469 192.032649,263.65628 C191.659162,263.007904 190.986384,262.589045 190.239736,262.540046 C189.424249,262.505345 188.504658,262.91598 188.146075,264.70311 C188.146075,264.70311 183.675357,267.253675 182.466586,265.015424 C182.466586,265.015424 182.275728,268.450879 181.535428,269.393604 L181.535428,269.393604 C181.342095,269.662796 181.263088,269.997533 181.315651,270.324763 Z" id="Path" fill="#CBCEDA" fill-rule="nonzero"></path>
                <path d="M181.315651,270.324763 C181.426081,271.281402 182.171545,272.041157 183.125916,272.169729 C185.653346,272.551446 191.749253,273.511523 193.287689,274.246039 C195.248327,275.177198 202.980992,274.523652 203.351142,273.592493 C203.457194,273.217545 203.409315,272.815784 203.218119,272.47626 C202.954798,271.906185 202.517394,271.434356 201.968863,271.128682 C200.708039,271.967303 197.920347,272.788574 191.755037,271.822714 C185.878906,270.908906 182.969759,270.006665 181.552778,269.399388 L181.552778,269.399388 C181.354845,269.664529 181.269622,269.997106 181.315651,270.324763 Z" id="Path" fill="#000000" fill-rule="nonzero" opacity="0.1"></path>
                <path d="M192.674628,264.506468 C192.674628,264.506468 191.702985,266.241546 188.174993,264.708894" id="Path" fill="#000000" fill-rule="nonzero" opacity="0.1"></path>
                <path d="M162.83707,264.917103 C162.83707,264.917103 159.7949,268.502931 155.960378,266.073822" id="Path" fill="#000000" fill-rule="nonzero" opacity="0.1"></path>
                <path d="M153.982389,222.534931 C153.982389,222.534931 156.128102,223.876725 156.203289,224.645943 C156.278475,225.415161 155.092839,224.067583 155.092839,224.067583 L153.982389,222.534931 Z" id="Path" fill="#000000" fill-rule="nonzero" opacity="0.1"></path>
                <path d="M153.132201,232.835511 C153.879153,233.459362 154.809064,233.822799 155.781086,233.870774 C157.388925,233.940177 157.255903,236.033838 156.203289,235.40921 C155.115754,234.630501 154.08909,233.770114 153.132201,232.835511 Z" id="Path" fill="#000000" fill-rule="nonzero" opacity="0.1"></path>
                <path d="M152.721566,234.177304 C152.721566,234.177304 153.756829,239.249516 154.59545,238.272089" id="Path" fill="#000000" fill-rule="nonzero" opacity="0.1"></path>
                <path d="M48.1715489,265.940799 C49.9066269,262.754039 47.9344216,258.850114 45.6903873,256.010369 C43.4463531,253.170625 40.7107135,250.226776 40.7685494,246.588896 C40.8553033,241.383662 46.3786349,238.30679 50.7915167,235.548016 C54.068242,233.502596 57.0893332,231.073685 59.7907879,228.312741 C60.9211515,227.249601 61.8567785,225.996879 62.5553455,224.611241 C63.4691532,222.575416 63.4402353,220.261979 63.3823993,218.035295 C63.1896129,210.605306 62.8233187,203.184956 62.2835166,195.774245" id="Path" stroke="#9BA7AB" stroke-width="4"></path>
                <path d="M70.6755105,195.369393 C70.5505353,192.606405 69.0238883,190.098342 66.6269952,188.718261 L64.8109469,192.309872 L64.8629992,187.96061 C61.4851784,186.973804 57.8567119,188.281696 55.8852921,191.196651 C53.9138723,194.111606 54.0509154,197.966158 56.2243701,200.733747 C58.3978247,203.501337 62.1100127,204.548242 65.4092244,203.324044 C68.7084361,202.099846 70.8392172,198.884862 70.6812941,195.369393 L70.6755105,195.369393 Z" id="Path" fill="#F8DEDC" fill-rule="nonzero"></path>
                <path d="M56.1991764,250.307746 C54.4443957,253.708868 50.5479533,255.416914 46.8576622,254.402696 C43.1673712,253.388479 40.6911399,249.929004 40.9210289,246.10879 C41.1509179,242.288576 44.0241389,239.151015 47.8094241,238.586655 C51.5947092,238.022294 55.2582049,240.185275 56.5924608,243.772286 L51.5202494,247.895988 L57.101417,246.606247 C57.0993588,247.894279 56.7900503,249.163237 56.1991764,250.307746 L56.1991764,250.307746 Z" id="Path" fill="#F8DEDC" fill-rule="nonzero"></path>
                <path d="M52.1911462,234.547454 C48.0108894,234.842725 44.2960669,231.899571 43.6273586,227.762596 C42.9586504,223.625621 45.5570469,219.661987 49.6174472,218.625222 L49.5711785,221.968139 L51.4103611,218.330259 L51.4103611,218.330259 C53.5613356,218.225061 55.6656045,218.981074 57.2578215,220.431109 C58.8500385,221.881144 59.7990157,223.905729 59.8948926,226.057139 C59.942408,226.993785 59.8249497,227.931493 59.547877,228.827481 C58.5484819,232.095612 55.6047786,234.384388 52.1911462,234.547454 L52.1911462,234.547454 Z" id="Path" fill="#F8DEDC" fill-rule="nonzero"></path>
                <path d="M71.8958487,221.436048 C68.4796606,221.563901 65.3512362,219.532465 64.0782796,216.359726 C62.805323,213.186988 63.6621311,209.556609 66.2193435,207.287832 C68.7765559,205.019054 72.483144,204.600754 75.4816766,206.242549 L74.0473455,210.175392 L77.0027617,207.341431 C78.5834441,208.789117 79.525616,210.804491 79.6227294,212.945733 C79.6612363,213.697632 79.5930846,214.451195 79.4203037,215.183984 C78.5881321,218.713478 75.5180551,221.264403 71.8958487,221.436048 Z" id="Path" fill="#F8DEDC" fill-rule="nonzero"></path>
                <path d="M69.5824114,197.532457 C67.7085272,197.734883 65.8866953,198.319026 64.0070274,198.434698 C62.1273596,198.55037 60.0626168,198.099249 58.8711965,196.641784 C58.2350013,195.855215 57.9111201,194.854653 57.3732459,193.998682 C56.8595434,193.198105 56.1563113,192.536591 55.3258538,192.072745 C53.9897192,194.865718 54.3632575,198.176116 56.2881775,200.601118 C58.2130974,203.026121 61.3523665,204.141136 64.3756812,203.473662 C67.3989959,202.806188 69.7770068,200.473093 70.5020027,197.463054 C70.1974002,197.474621 69.8908697,197.497756 69.5824114,197.532457 Z" id="Path" fill="#000000" fill-rule="nonzero" opacity="0.1"></path>
                <path d="M71.8958487,221.436048 C69.0480053,221.580546 66.3340934,220.216414 64.7509939,217.844729 C63.1678944,215.473045 62.9490137,212.44348 64.1747516,209.868862 C64.8188131,210.301875 65.372712,210.855774 65.805725,211.499835 C66.3840843,212.373158 66.7368835,213.385286 67.4135639,214.183422 C68.6801708,215.669806 70.8374512,216.155628 72.7980893,216.068874 C74.7587274,215.98212 76.6499625,215.421111 78.5816826,215.24182 C78.8535115,215.24182 79.1253404,215.201335 79.4029529,215.195551 C78.568158,218.714542 75.5081302,221.258279 71.8958487,221.436048 Z" id="Path" fill="#000000" fill-rule="nonzero" opacity="0.1"></path>
                <path d="M52.1911462,234.547454 C49.3696818,234.692376 46.676691,233.356203 45.0853808,231.021809 C43.4940706,228.687415 43.2345653,225.692383 44.400646,223.119074 C45.0750402,223.557659 45.6631542,224.116367 46.135724,224.767398 C46.7661357,225.658072 47.15942,226.681768 47.89972,227.503038 C49.2704316,229.029906 51.5723018,229.567781 53.6428282,229.515728 C55.7133546,229.463676 57.5930224,228.983638 59.5883621,228.827481 C58.5839794,232.109108 55.6199136,234.401103 52.1911462,234.547454 L52.1911462,234.547454 Z" id="Path" fill="#000000" fill-rule="nonzero" opacity="0.1"></path>
                <path d="M56.1991764,250.307746 C54.3705023,254.394713 49.5749282,256.225421 45.4879617,254.396747 C41.4009951,252.568073 39.5702872,247.772499 41.3989611,243.685532 C42.0702868,244.12187 42.6710009,244.658221 43.1803078,245.27602 C43.9553093,246.212962 44.4642656,247.282927 45.3549389,248.167817 C47.0148302,249.79879 49.6926339,250.481254 52.081258,250.533306 C53.4571553,250.539824 54.8322225,250.464504 56.1991764,250.307746 Z" id="Path" fill="#000000" fill-rule="nonzero" opacity="0.1"></path>
                <path d="M35.9276818,262.274001 C35.9276818,262.274001 42.3359032,262.106277 44.244489,260.700864 C46.1530748,259.29545 54.0765977,257.687611 54.5739867,259.89116 C55.0713757,262.09471 64.2036696,270.879988 56.9683943,270.914689 C49.7331191,270.949391 40.1670557,269.757971 38.2353355,268.601252 C36.3036154,267.444533 35.9276818,262.274001 35.9276818,262.274001 Z" id="Path" fill="#9BA7AB" fill-rule="nonzero"></path>
                <path d="M57.1245514,270.145471 C49.8892761,270.209091 40.3174291,269.023454 38.3914926,267.832034 C36.9224598,266.935577 36.3383169,263.725683 36.1416747,262.250867 L35.9276818,262.250867 C35.9276818,262.250867 36.3325333,267.415615 38.2411191,268.612819 C40.1497049,269.810023 49.7446863,270.972525 56.9741779,270.926257 C59.0620551,270.926257 59.7850043,270.168606 59.7445191,269.069723 C59.4726903,269.723269 58.7034723,270.133904 57.1245514,270.145471 Z" id="Path" fill="#000000" fill-rule="nonzero" opacity="0.2"></path>
            </g>
        </g>
    </g>
</svg>