<svg xmlns="http://www.w3.org/2000/svg" width="136.862" height="132.624" viewBox="0 0 136.862 132.624">
    <defs>
        <clipPath id="clip-path">
            <path id="Path_43" data-name="Path 43" class="cls-1" d="M43.849 1.479a4.767 4.767 0 0 1 6.9 0l26.6 26.678a5.976 5.976 0 0 1 .493 7.407 4.631 4.631 0 0 1-6.894 0L67.992 32.6 49.761 65.689l4.931 4.941a4.784 4.784 0 0 1 0 6.919c-.986.991-4.438 2.466-6.9 0l-19.708-19.76-18.231 18.28-6.894-6.918L20.7 50.876 8.871 39.021l-7.392-7.412a4.778 4.778 0 0 1 0-6.914 4.761 4.761 0 0 1 6.9 0l4.921 4.942 33.5-18.275L43.849 8.4a4.784 4.784 0 0 1 0-6.921z"/>
        </clipPath>
        <style>
            .cls-1{fill:#9c9696}
        </style>
    </defs>
    <g id="Group_30" data-name="Group 30">
        <g id="Group_26" data-name="Group 26" transform="rotate(-23 135.995 27.668)" style="clip-path:url(#clip-path)">
            <path id="Path_42" data-name="Path 42" class="cls-1" d="M0 0h88.584v89.274H0z" transform="translate(-4.876 -4.876)"/>
        </g>
        <g id="Group_28" data-name="Group 28" transform="rotate(-23 143.022 17.054)" style="opacity:.248;clip-path:url(#clip-path)">
            <path id="Path_46" data-name="Path 46" class="cls-1" d="M0 0h88.584v89.274H0z" transform="translate(-4.876 -4.876)"/>
        </g>
        <path id="Path" d="M0 0h35.4v25.527H12.423L10.3 30.111l-2.39-4.584H0V0z" transform="rotate(-19 34.812 3.513)" style="opacity:.15;fill:#9c9696"/>
        <path id="Path-2" data-name="Path" d="M0 0h20.814v15.009H7.3L6.053 17.7 4.648 15H0V0z" transform="rotate(-19 391.615 -213.16)" style="opacity:.648;fill:#9c9696"/>
        <path id="Path-3" data-name="Path" d="M0 0h28.887v20.83H10.138L8.4 24.571l-1.95-3.74H0V0z" transform="rotate(24 -38.812 279.68)" style="opacity:.4;fill:#9c9696"/>
    </g>
</svg>
