<svg width="150" height="130" viewBox="0 0 150 130" fill="none" xmlns="http://www.w3.org/2000/svg">
<path d="M120.705 81.0936V92.8826C120.705 93.7156 120.028 94.3926 119.191 94.3926H70.499C69.663 94.3926 68.985 93.7156 68.985 92.8826V81.0936C68.985 70.2466 77.779 61.4536 88.629 61.4536H101.062C104.503 61.4536 107.738 62.3376 110.552 63.8946C116.606 67.2396 120.705 73.6886 120.705 81.0946V81.0936Z" fill="#D2DADD"/>
<path d="M120.705 81.0935V92.8825C120.705 93.7155 120.028 94.3925 119.191 94.3925H95.715C107.975 85.6765 110.446 72.5935 110.551 63.8945C116.606 67.2395 120.705 73.6885 120.705 81.0945V81.0935Z" fill="#9BA7AB"/>
<path d="M109.781 39.6337C109.781 47.8837 103.094 54.5697 94.8449 54.5697C91.8299 54.5697 89.0279 53.6767 86.6799 52.1397C82.6019 49.4757 79.9089 44.8677 79.9089 39.6337C79.9089 31.3867 86.5959 24.6987 94.8449 24.6987C96.3279 24.6987 97.7599 24.9137 99.1099 25.3177C105.28 27.1507 109.781 32.8667 109.781 39.6327V39.6337Z" fill="#D2DADD"/>
<path d="M109.781 39.6338C109.781 47.8838 103.094 54.5698 94.8449 54.5698C91.8299 54.5698 89.0279 53.6768 86.6799 52.1398C98.7059 45.1858 99.7729 32.8738 99.1099 25.3188C105.28 27.1518 109.781 32.8678 109.781 39.6338Z" fill="#9BA7AB"/>
<path d="M87.003 110.432C87.003 111.596 86.06 112.54 84.896 112.54H17.107C15.944 112.54 15 111.596 15 110.432V94.0227C15 78.9217 27.243 66.6777 42.346 66.6777H59.657C63.974 66.6777 68.057 67.6777 71.686 69.4617C80.759 73.9087 87.003 83.2377 87.003 94.0227V110.433V110.432Z" fill="#D2DADD"/>
<path d="M87.003 94.0229V110.433C87.003 111.596 86.06 112.54 84.896 112.54H61.72C76.203 99.1069 73.907 79.0899 71.685 69.4619C80.758 73.9089 87.003 83.2379 87.003 94.0229Z" fill="#9BA7AB"/>
<path d="M51.001 60.4C46.867 60.4 43.011 59.193 39.773 57.112C34.02 53.414 30.207 46.957 30.207 39.608C30.207 28.124 39.517 18.814 51.001 18.814C55.878 18.814 60.363 20.494 63.91 23.307C68.712 27.114 71.793 33.003 71.793 39.608C71.793 51.093 62.485 60.4 51.001 60.4Z" fill="#D2DADD"/>
<path d="M71.7929 39.6081C71.7929 51.0931 62.4849 60.4001 51.0009 60.4001C46.8669 60.4001 43.0109 59.1931 39.7729 57.1121C58.4 47.3521 63.0169 32.6921 63.9099 23.3071C68.7119 27.1141 71.7929 33.0031 71.7929 39.6081Z" fill="#9BA7AB"/>
<path fill-rule="evenodd" clip-rule="evenodd" d="M135.911 37.4018C135.911 41.1418 132.879 44.1728 129.141 44.1728C125.401 44.1728 122.368 41.1428 122.368 37.4028C122.368 33.6628 125.401 30.6318 129.14 30.6318C132.879 30.6318 135.911 33.6618 135.911 37.4018Z" fill="#EE4136"/>
</svg>
