<svg xmlns="http://www.w3.org/2000/svg" xmlns:xlink="http://www.w3.org/1999/xlink" width="437" height="300" viewBox="0 0 437 300">
    <defs>
        <path id="vu4oz6pqaa" d="M0.541 0.537L393.062 0.537 393.062 267.233 0.541 267.233z"/>
        <path id="79d2bycdkc" d="M145.163.536c-9.58.006-19.55 1.364-29.975 4.452-34.765 10.294-44.26 46.608-45.632 52.402-.272 1.147-.555 2.283-.886 3.418-2.77 9.498-3.643 43.98-42.075 75.65-37.71 31.076-42.279 83.883 39.293 111.74 81.57 27.859 204.06 34.27 283.38-44.895 35.488-35.418 58.86-78.228 32.446-115.68-27.317-38.732-78.127-13.115-113.598-32.793C231.544 34.54 193.337.594 145.344.536"/>
    </defs>
    <g fill="none" fill-rule="evenodd">
        <g>
            <g>
                <g transform="translate(-784 -396) translate(784 396) translate(42.654 .174)">
                    <mask id="msbdorucfb" fill="#fff">
                        <use xlink:href="#vu4oz6pqaa"/>
                    </mask>
                    <path fill="#D2D8DB" d="M69.556 57.39c-.272 1.147-.555 2.283-.886 3.418-2.77 9.498-3.643 43.98-42.075 75.65-37.71 31.076-42.278 83.883 39.293 111.74 81.57 27.859 204.06 34.27 283.38-44.895 35.488-35.418 58.86-78.228 32.446-115.68-27.317-38.732-78.127-13.115-113.597-32.793-43.918-24.363-90.178-68.422-152.93-49.842C80.423 15.28 70.927 51.596 69.556 57.39" mask="url(#msbdorucfb)"/>
                </g>
                <g transform="translate(-784 -396) translate(784 396) translate(42.654 .174)">
                    <mask id="rfitydy0xd" fill="#fff">
                        <use xlink:href="#79d2bycdkc"/>
                    </mask>
                    <path fill="#F1F1F1" d="M-58.169 236.813s36.223-43.31 96.834-31.787c60.611 11.523 76.327 54.729 137.473 43.395 82.59-15.307 100.918-108.35 191.092-23.518 0 0-131.089 154.709-283.109 114.695-152.02-40.014-142.29-102.785-142.29-102.785" mask="url(#rfitydy0xd)"/>
                </g>
                <g>
                    <path fill="#F2F2F2" d="M426.06 213.203c-.89-3.656-4.34-6.367-8.559-7.089-5.37-.918-14.112-.358-23.565 8.593-15.469 14.646-2.874 23.298 7.975 23.918 9.34.534 26.969-13.841 24.15-25.422" transform="translate(-784 -396) translate(784 396) translate(0 19.368)"/>
                    <path fill="#FFF" d="M136.507 210.489L395.099 210.489 395.099 49.624 136.507 49.624z" transform="translate(-784 -396) translate(784 396) translate(0 19.368)"/>
                    <path fill="#788186" d="M136.507 21.47v28.154h258.592V21.47c0-5.594-4.534-10.128-10.128-10.128H146.634c-5.593 0-10.127 4.534-10.127 10.128" transform="translate(-784 -396) translate(784 396) translate(0 19.368)"/>
                    <path fill="#9FA7AA" d="M181.583 31.994c0 3.31-2.683 5.993-5.993 5.993-3.31 0-5.993-2.683-5.993-5.993 0-3.31 2.683-5.993 5.993-5.993 3.31 0 5.993 2.683 5.993 5.993" transform="translate(-784 -396) translate(784 396) translate(0 19.368)"/>
                    <path fill="#FFF" d="M175.59 34.245c-1.897 0-3.435-1.538-3.435-3.435V7.59c0-1.897 1.538-3.434 3.435-3.434s3.435 1.537 3.435 3.435V30.81c0 1.897-1.538 3.435-3.435 3.435" transform="translate(-784 -396) translate(784 396) translate(0 19.368)"/>
                    <path fill="#9FA7AA" d="M218.128 31.994c0 3.31-2.683 5.993-5.993 5.993-3.31 0-5.992-2.683-5.992-5.993 0-3.31 2.682-5.993 5.992-5.993s5.993 2.683 5.993 5.993" transform="translate(-784 -396) translate(784 396) translate(0 19.368)"/>
                    <path fill="#FFF" d="M212.135 34.245c-1.897 0-3.435-1.538-3.435-3.435V7.59c0-1.897 1.538-3.434 3.435-3.434s3.434 1.537 3.434 3.435V30.81c0 1.897-1.537 3.435-3.434 3.435" transform="translate(-784 -396) translate(784 396) translate(0 19.368)"/>
                    <path fill="#9FA7AA" d="M254.672 31.994c0 3.31-2.682 5.993-5.992 5.993s-5.993-2.683-5.993-5.993c0-3.31 2.683-5.993 5.993-5.993 3.31 0 5.992 2.683 5.992 5.993" transform="translate(-784 -396) translate(784 396) translate(0 19.368)"/>
                    <path fill="#FFF" d="M248.68 34.245c-1.897 0-3.435-1.538-3.435-3.435V7.59c0-1.897 1.538-3.434 3.435-3.434s3.435 1.537 3.435 3.435V30.81c0 1.897-1.538 3.435-3.435 3.435" transform="translate(-784 -396) translate(784 396) translate(0 19.368)"/>
                    <path fill="#9FA7AA" d="M291.218 31.994c0 3.31-2.683 5.993-5.994 5.993-3.309 0-5.992-2.683-5.992-5.993 0-3.31 2.683-5.993 5.992-5.993 3.311 0 5.994 2.683 5.994 5.993" transform="translate(-784 -396) translate(784 396) translate(0 19.368)"/>
                    <path fill="#FFF" d="M285.225 34.245c-1.897 0-3.435-1.538-3.435-3.435V7.59c0-1.897 1.538-3.434 3.435-3.434s3.435 1.537 3.435 3.435V30.81c0 1.897-1.538 3.435-3.435 3.435" transform="translate(-784 -396) translate(784 396) translate(0 19.368)"/>
                    <path fill="#9FA7AA" d="M327.763 31.994c0 3.31-2.683 5.993-5.993 5.993-3.31 0-5.993-2.683-5.993-5.993 0-3.31 2.683-5.993 5.993-5.993 3.31 0 5.993 2.683 5.993 5.993" transform="translate(-784 -396) translate(784 396) translate(0 19.368)"/>
                    <path fill="#FFF" d="M321.77 34.245c-1.897 0-3.435-1.538-3.435-3.435V7.59c0-1.897 1.538-3.434 3.435-3.434s3.434 1.537 3.434 3.435V30.81c0 1.897-1.537 3.435-3.434 3.435" transform="translate(-784 -396) translate(784 396) translate(0 19.368)"/>
                    <path fill="#9FA7AA" d="M364.307 31.994c0 3.31-2.683 5.993-5.993 5.993-3.31 0-5.992-2.683-5.992-5.993 0-3.31 2.683-5.993 5.992-5.993 3.31 0 5.993 2.683 5.993 5.993" transform="translate(-784 -396) translate(784 396) translate(0 19.368)"/>
                    <path fill="#FFF" d="M358.315 34.245c-1.897 0-3.435-1.538-3.435-3.435V7.59c0-1.897 1.538-3.434 3.435-3.434 1.896 0 3.434 1.537 3.434 3.435V30.81c0 1.897-1.538 3.435-3.434 3.435" transform="translate(-784 -396) translate(784 396) translate(0 19.368)"/>
                    <path fill="#F2F2F2" d="M208.88 104.298L242.803 104.298 242.803 70.375 208.88 70.375z" transform="translate(-784 -396) translate(784 396) translate(0 19.368)"/>
                    <path fill="#737070" d="M254.013 104.298L287.936 104.298 287.936 70.375 254.013 70.375z" transform="translate(-784 -396) translate(784 396) translate(0 19.368)"/>
                    <path fill="#F2F2F2" d="M299.146 104.298L333.069 104.298 333.069 70.375 299.146 70.375zM344.278 104.298L378.201 104.298 378.201 70.375 344.278 70.375zM163.748 104.298L197.671 104.298 197.671 70.375 163.748 70.375zM208.88 147.358L242.803 147.358 242.803 113.436 208.88 113.436zM254.013 147.358L287.936 147.358 287.936 113.436 254.013 113.436z" transform="translate(-784 -396) translate(784 396) translate(0 19.368)"/>
                    <path fill="#737070" d="M299.146 147.358L333.069 147.358 333.069 113.436 299.146 113.436z" transform="translate(-784 -396) translate(784 396) translate(0 19.368)"/>
                    <path fill="#F2F2F2" d="M344.278 147.358L378.201 147.358 378.201 113.436 344.278 113.436zM163.748 147.358L197.671 147.358 197.671 113.436 163.748 113.436z" transform="translate(-784 -396) translate(784 396) translate(0 19.368)"/>
                    <path fill="#737070" d="M208.88 190.418L242.803 190.418 242.803 156.495 208.88 156.495z" transform="translate(-784 -396) translate(784 396) translate(0 19.368)"/>
                    <path fill="#F2F2F2" d="M254.013 190.418L287.936 190.418 287.936 156.495 254.013 156.495zM299.146 190.418L333.069 190.418 333.069 156.495 299.146 156.495zM344.278 190.418L378.201 190.418 378.201 156.495 344.278 156.495zM163.748 190.418L197.671 190.418 197.671 156.495 163.748 156.495z" transform="translate(-784 -396) translate(784 396) translate(0 19.368)"/>
                    <path fill="#C68C71" d="M101.151 259.152L100.329 237.871 114.376 238.491 114.634 259.346z" transform="translate(-784 -396) translate(784 396) translate(0 19.368)"/>
                    <path fill="#606E73" d="M114.634 259.346l23.72 12.11c1.74.872 2.653 2.823 2.21 4.718l-43.083-.678 3.67-16.344 13.483.194z" transform="translate(-784 -396) translate(784 396) translate(0 19.368)"/>
                    <path fill="#343434" d="M97.48 275.496l-.103 3.284 39.382.21c1.75.004 3.297-1.14 3.805-2.816l-43.083-.678z" transform="translate(-784 -396) translate(784 396) translate(0 19.368)"/>
                    <path stroke="#FFF" stroke-linecap="round" stroke-linejoin="round" stroke-width="1.481" d="M121.817 262.791L118.386 264.37M125.338 264.37L121.794 266.049M128.652 266.503L125.25 268.057" transform="translate(-784 -396) translate(784 396) translate(0 19.368)"/>
                    <path fill="#554D4D" d="M112.762 103.951L117.355 253.268 95.874 253.268 87.228 105.278z" transform="translate(-784 -396) translate(784 396) translate(0 19.368)"/>
                    <path fill="#C68C71" d="M44.49 259.152L48.746 240 62.091 240.619 57.271 259.346z" transform="translate(-784 -396) translate(784 396) translate(0 19.368)"/>
                    <path fill="#606E73" d="M44.49 259.152L30.869 269.58c-1.545 1.757-2.232 3.576-2.232 5.916h29.74l-1.106-16.15-12.781-.194z" transform="translate(-784 -396) translate(784 396) translate(0 19.368)"/>
                    <path fill="#343434" d="M28.637 278.813L58.378 278.813 58.378 275.496 28.637 275.496z" transform="translate(-784 -396) translate(784 396) translate(0 19.368)"/>
                    <path stroke="#FFF" stroke-linecap="round" stroke-linejoin="round" stroke-width="1.481" d="M43.886 263.529L39.477 262.524M41.688 265.893L36.403 264.793M38.103 268.012L33.807 267.089" transform="translate(-784 -396) translate(784 396) translate(0 19.368)"/>
                    <path fill="#554D4D" d="M70.067 105.888L41.174 252.105 62.988 252.804 101.077 104.668z" transform="translate(-784 -396) translate(784 396) translate(0 19.368)"/>
                    <path stroke="#F1E6D0" stroke-linecap="round" stroke-linejoin="round" stroke-width=".393" d="M89.488 150.253L92.132 139.554 100.892 134.151" transform="translate(-784 -396) translate(784 396) translate(0 19.368)"/>
                    <path fill="#C68C71" d="M108.409 72.248l11.991 26.23c1.856 3.792 6.516 5.243 10.196 3.175 3.365-1.89 4.692-6.064 3.036-9.552L121.034 63.74l-12.625 8.508z" transform="translate(-784 -396) translate(784 396) translate(0 19.368)"/>
                    <path fill="#697377" d="M108.6 84.002s5.417 1.557 19.269-11.036L118.75 53.68c-2.546-5.385-9.166-7.422-14.3-4.4-4.252 2.503-6.084 7.706-4.336 12.321l8.486 22.4z" transform="translate(-784 -396) translate(784 396) translate(0 19.368)"/>
                    <path fill="#C68C71" d="M125.284 88.534l36.71-8.588 1.798 7.974-34.089 14.138c-4.085 1.68-8.7-.72-9.672-5.028-.855-3.79 1.48-7.567 5.253-8.496" transform="translate(-784 -396) translate(784 396) translate(0 19.368)"/>
                    <path fill="#C68C71" d="M158.068 80.803l1.348 7.574s20.177 8.362 22.175-11.348l-7.073-6.572-16.45 10.346z" transform="translate(-784 -396) translate(784 396) translate(0 19.368)"/>
                    <path fill="#737070" d="M176.961 94.761L162.387 68.85 188.297 54.275 202.872 80.186z" transform="translate(-784 -396) translate(784 396) translate(0 19.368)"/>
                    <path fill="#C68C71" d="M164.47 76.776l5.969-4.447c.846-.631 2.062-.254 2.403.745.187.55.054 1.158-.348 1.578l-2.072 3.068s-.775 6.583-3.391 8.425l-2.561-9.369z" transform="translate(-784 -396) translate(784 396) translate(0 19.368)"/>
                    <path fill="#788186" d="M94.768 44.675s-9.285 1-21.245 6.872c-2.052 1.008-2.188 3.239-2.101 5.524l-3.872 67.092c33.224 8.187 46.969-4.977 46.969-4.977l1.37-66.167c.128-2.064-1.142-3.956-3.106-4.605-4.504-1.491-12.609-3.874-18.015-3.74" transform="translate(-784 -396) translate(784 396) translate(0 19.368)"/>
                    <path fill="#788186" d="M87.323 46.26l4.318-1.052 7.285-1.143 4.16 1.636 2.42.584s3.621 5.789-4.33 6.537c-9.539.897-13.262-3.852-13.853-6.562M115.308 82.187L115.562 67.379" transform="translate(-784 -396) translate(784 396) translate(0 19.368)"/>
                    <path fill="#C68C71" d="M49.324 82.924l20.436 26.845-6.528 4.922-24.416-22.176c-3.212-3.032-2.925-8.225.603-10.883 3.103-2.339 7.506-1.764 9.905 1.292" transform="translate(-784 -396) translate(784 396) translate(0 19.368)"/>
                    <path fill="#B97B61" d="M63.13 124.217s-1.785-1.095-2.648-3.372c-.267-.705-1.08-1.037-1.783-.764-.617.24-.976.887-.837 1.532.243 1.124.907 2.9 2.712 4.544l2.557-1.94z" transform="translate(-784 -396) translate(784 396) translate(0 19.368)"/>
                    <path fill="#B97B61" d="M64.566 124.955s-2.78-.542-8.081-3.681c-.551-.327-1.24-.282-1.632.223-.365.47-.326 1.135.094 1.556 1.04 1.043 3.265 2.864 6.82 3.775l2.799-1.873z" transform="translate(-784 -396) translate(784 396) translate(0 19.368)"/>
                    <path fill="#C68C71" d="M67.14 107.166s7.648 5.732 4.46 12.566c-3.187 6.836-6.675 9.565-8.996 8.773-1.605-.548-4.863-1.556-6.718-2.125-.768-.236-1.21-1.037-1.003-1.814.19-.718.877-1.188 1.615-1.104l6.347.984s-1.873-7.28-.562-11.654l4.856-5.626zM61.683 63.608L39.138 81.596c-3.23 2.718-3.509 7.592-.611 10.661 2.65 2.807 7.02 3.084 10.003.632l24.466-19.092-11.313-10.189z" transform="translate(-784 -396) translate(784 396) translate(0 19.368)"/>
                    <path fill="#788186" d="M52.661 65.795s-.221 5.632 15.308 16.086l16.558-13.448c4.624-3.756 5.027-10.67.87-14.937-3.445-3.534-8.935-4.073-13-1.276L52.66 65.795zM70.286 79.999L80.089 71.909" transform="translate(-784 -396) translate(784 396) translate(0 19.368)"/>
                    <path fill="#050907" d="M113.983 16.101c-.299 7.996-10.774 13.32-19.04 14.635-.595-.178-10.394-5.68-11.573-14.48C81.906 5.316 91.435-.642 101.736.324c7.903.74 12.635 5.372 12.247 15.777" transform="translate(-784 -396) translate(784 396) translate(0 19.368)"/>
                    <path fill="#C68C71" d="M93.236 24.927L91.502 46.965 103.726 48.369 102.846 26.326z" transform="translate(-784 -396) translate(784 396) translate(0 19.368)"/>
                    <path fill="#B36F56" d="M103.4 40.213c-8.43-1.935-8.995-10.509-8.995-10.509l8.669.746.327 9.763zM108.95 25c.248-1.418.74-2.79 1.517-4.045 1.064-1.722 2.468-3.018 4.685-2.161 3.684 1.423-.52 7.669-4.297 7.874-1.111.06-2.062-.776-1.905-1.668" transform="translate(-784 -396) translate(784 396) translate(0 19.368)"/>
                    <path fill="#C68C71" d="M97.76 2.208c2.625-.517 6.09.66 8.663 1.399 3.483 1 6.944 3.167 7.956 10.726 1.44 10.753-.99 18.091-6.49 20.146-4.222 1.577-7.145.639-11.651-2.442-1.676-1.146-3.153-4.243-3.478-6.342l-1.603-5.911S85.217 4.68 97.761 2.208" transform="translate(-784 -396) translate(784 396) translate(0 19.368)"/>
                    <path fill="#050907" d="M93.253 19.154S88.92 4.94 95.893 5.832c8.892 1.136 13.293 1.593 12.687-2.443 0 0-10.694-7.111-18.829 1.345-8.133 8.456 1.683 16.073 1.683 16.073l1.819-1.653z" transform="translate(-784 -396) translate(784 396) translate(0 19.368)"/>
                    <path fill="#C68C71" d="M93.541 26.031c-.21-1.499-.676-2.96-1.447-4.308-1.056-1.85-3.183-3.078-5.4-1.923-3.775 1.969.125 8.504 4.783 7.916 1.16-.147 2.196-.74 2.064-1.685" transform="translate(-784 -396) translate(784 396) translate(0 19.368)"/>
                    <path stroke="#000" stroke-linecap="round" stroke-linejoin="round" stroke-width=".44" d="M87.53 22.725c2.884-.755 3.784 2.052 3.784 2.052" transform="translate(-784 -396) translate(784 396) translate(0 19.368)"/>
                    <path fill="#050907" d="M93.253 19.154s1.436 3.294 2.523 4.533c.994 1.133 3.82 1.188 5.764 5.146.216.44.862.495 1.092.062 1.404-2.643 4.099-5.208 11.747-3.833 0 0 3.695 9.673-6.279 10.836-10.93 1.274-13.732-4.268-14.182-8.49-.449-4.223-2.484-6.601-2.484-6.601l1.819-1.653zM97.659 14.523c1.426-.42 4.278-1.114 7.07-.943.418.026.701-.37.506-.714-.408-.723-1.355-1.663-3.508-1.527-2.33.148-3.798 1.693-4.504 2.675-.189.263.104.607.436.51M114.343 13.702c-1.018-.392-2.398-.37-4.277-.232-.282.022-.519-.342-.425-.654.195-.657.99-1.806 2.47-1.667 1.6.149 2.26 1.087 2.47 2.091.059.282-.002.553-.238.462" transform="translate(-784 -396) translate(784 396) translate(0 19.368)"/>
                    <path stroke="#FFF" stroke-linecap="round" stroke-linejoin="round" stroke-width=".44" d="M106.883 26.867s2.244 1.082 4.49-.345" transform="translate(-784 -396) translate(784 396) translate(0 19.368)"/>
                    <path stroke="#D6DBE1" stroke-linecap="round" stroke-linejoin="round" stroke-width=".692" d="M0.471 279.16L436.265 279.16" transform="translate(-784 -396) translate(784 396) translate(0 19.368)"/>
                </g>
            </g>
        </g>
    </g>
</svg>
