<svg width="150" height="130" viewBox="0 0 150 130" fill="none" xmlns="http://www.w3.org/2000/svg">
<path d="M93.967 70.5908L79.828 83.3898V70.5908H93.967Z" fill="#737070"/>
<path d="M128.621 17L79.828 70.591V83.39L64.429 70.591L128.621 17Z" fill="#9C9696"/>
<path d="M128.62 17L64.4301 70.59H39.3131C38.6831 70.59 38.4571 69.758 39.0011 69.44L128.62 17Z" fill="#D6DBE1"/>
<path d="M50.944 67.214C50.314 67.214 50.088 66.381 50.632 66.064L114.888 28.464L128.621 17L39 69.439C38.456 69.758 38.682 70.591 39.312 70.591H64.43L68.474 67.214H50.944Z" fill="#9C9696"/>
<path d="M128.62 17L116.77 69.925C116.683 70.315 116.338 70.591 115.939 70.591H79.828L128.62 17ZM119.575 106.875C121.038 107.07 122.168 108.319 122.168 109.835C122.168 111.485 120.83 112.825 119.18 112.825H98.254C96.604 112.825 95.265 111.485 95.265 109.835C95.265 108.184 96.603 106.845 98.254 106.845H100.011C99.652 106.125 99.451 105.313 99.451 104.453C99.451 101.483 101.859 99.073 104.83 99.073C107.801 99.073 110.212 101.483 110.212 104.453C110.212 105.313 110.008 106.125 109.651 106.845H111.607C111.607 104.645 113.39 102.86 115.592 102.86C117.794 102.86 119.578 104.644 119.578 106.845L119.575 106.875ZM60.98 33.926C62.943 34.188 64.457 35.864 64.457 37.898C64.457 40.114 62.661 41.908 60.447 41.908H32.372C30.157 41.908 28.362 40.114 28.362 37.898C28.362 35.683 30.157 33.888 32.372 33.888H34.727C34.248 32.921 33.975 31.832 33.975 30.68C33.975 26.692 37.208 23.46 41.195 23.46C45.182 23.46 48.414 26.692 48.414 30.68C48.414 31.832 48.143 32.92 47.661 33.887H50.285C50.285 30.934 52.68 28.54 55.632 28.54C58.587 28.54 60.98 30.934 60.98 33.887L60.978 33.927L60.98 33.926ZM46.311 91.835C47.774 92.031 48.904 93.279 48.904 94.795C48.904 96.445 47.565 97.785 45.916 97.785H24.989C23.339 97.785 22 96.445 22 94.795C22 93.144 23.338 91.805 24.989 91.805H26.747C26.387 91.085 26.185 90.273 26.185 89.414C26.185 86.443 28.595 84.034 31.565 84.034C34.537 84.034 36.947 86.443 36.947 89.414C36.947 90.273 36.743 91.086 36.387 91.804H38.342C38.342 89.605 40.126 87.82 42.328 87.82C44.53 87.82 46.313 89.605 46.313 91.805L46.311 91.835Z" fill="#D6DBE1"/>
<path d="M100.636 111.257C101.05 109.952 102.308 109.1 103.676 109.1C104.387 109.1 104.932 108.454 104.794 107.757C104.727 107.418 104.691 107.067 104.691 106.709C104.691 104.015 106.671 101.784 109.254 101.39C108.207 99.883 106.41 98.935 104.404 99.09C101.759 99.293 99.629 101.458 99.461 104.105C99.399 105.093 99.604 106.028 100.011 106.845H98.341C96.731 106.845 95.346 108.08 95.268 109.688C95.186 111.406 96.554 112.823 98.254 112.823H100.6C100.478 112.34 100.46 111.816 100.636 111.257ZM33.633 39.662C33.883 37.632 35.676 36.142 37.722 36.142C38.741 36.142 39.514 35.222 39.332 34.219C39.257 33.803 39.218 33.373 39.218 32.935C39.218 28.948 42.4499 25.717 46.4349 25.716C45.1179 24.328 43.2589 23.46 41.195 23.46C37.209 23.46 33.975 26.692 33.975 30.68C33.975 31.832 34.248 32.92 34.727 33.887H32.47C30.295 33.887 28.442 35.579 28.366 37.754C28.286 40.035 30.111 41.908 32.374 41.908H34.013C33.687 41.242 33.534 40.475 33.633 39.662ZM27.372 96.217C27.786 94.913 29.043 94.06 30.412 94.06C31.122 94.06 31.667 93.414 31.529 92.717C31.462 92.378 31.427 92.027 31.427 91.669C31.427 88.976 33.406 86.745 35.989 86.351C34.942 84.843 33.145 83.896 31.139 84.051C28.495 84.254 26.364 86.418 26.197 89.066C26.134 90.053 26.339 90.989 26.747 91.805H25.076C23.466 91.805 22.081 93.041 22.004 94.649C21.921 96.366 23.29 97.784 24.989 97.784H27.336C27.214 97.3 27.195 96.776 27.372 96.217Z" fill="#9C9696"/>
</svg>
