<svg width="500" height="500" viewBox="0 0 500 500" fill="none" xmlns="http://www.w3.org/2000/svg">
<path d="M364.6 67.8H143.9V288.5H364.6V67.8Z" fill="#EBEBEB"/>
<path d="M400.9 341.5H217.8V425.9H400.9V341.5Z" fill="#F5F5F5"/>
<path d="M396.5 422H222V346H396.5V422ZM223.2 420.8H395.4V347.1H223.2V420.8Z" fill="#BFC7CA"/>
<path d="M445.6 341.5H400.9V425.9H445.6V341.5Z" fill="#BFC7CA"/>
<path d="M222.6 369.5C242.2 369.5 261.8 369.5 281.4 369.5C312.4 369.5 343.4 369.5 374.4 369.5C381.6 369.5 388.8 369.5 396 369.5C396.3 369.5 396.3 369 396 369C376.4 369 356.8 369 337.2 369C306.2 369 275.2 369 244.2 369C237 369 229.8 369 222.6 369C222.3 369 222.3 369.5 222.6 369.5Z" fill="#BFC7CA"/>
<path d="M309.8 369.2C310.3 361.7 310.3 353.8 309.9 346.3C309.9 346 309.4 346 309.4 346.3C309 353.8 308.9 361.7 309.5 369.2C309.5 369.5 309.8 369.5 309.8 369.2Z" fill="#BFC7CA"/>
<path d="M356.5 357.8C356.5 359.1 355.4 360.2 354.1 360.2C352.8 360.2 351.7 359.1 351.7 357.8C351.7 356.5 352.8 355.4 354.1 355.4C355.4 355.4 356.5 356.5 356.5 357.8Z" fill="#BFC7CA"/>
<path d="M265.5 357.8C265.5 359.1 264.4 360.2 263.1 360.2C261.8 360.2 260.7 359.1 260.7 357.8C260.7 356.5 261.8 355.4 263.1 355.4C264.5 355.4 265.5 356.5 265.5 357.8Z" fill="#BFC7CA"/>
<path d="M311.6 384C311.6 385.3 310.5 386.4 309.2 386.4C307.9 386.4 306.8 385.3 306.8 384C306.8 382.7 307.9 381.6 309.2 381.6C310.6 381.6 311.6 382.6 311.6 384Z" fill="#BFC7CA"/>
<path d="M239.7 425.9L230.3 478.9H235.6L253 425.9H239.7Z" fill="#BFC7CA"/>
<path d="M387.9 425.9L395.8 479H390.5L374.7 425.9H387.9Z" fill="#BFC7CA"/>
<path d="M423.3 425.9L432.3 479H427L410.1 425.9H423.3Z" fill="#BFC7CA"/>
<path d="M311.5 407.8C311.5 409.1 310.4 410.2 309.1 410.2C307.8 410.2 306.7 409.1 306.7 407.8C306.7 406.5 307.8 405.4 309.1 405.4C310.4 405.5 311.5 406.5 311.5 407.8Z" fill="#BFC7CA"/>
<path d="M222.6 395.6C242.2 395.6 261.8 395.6 281.4 395.6C312.4 395.6 343.4 395.6 374.4 395.6C381.6 395.6 388.8 395.6 396 395.6C396.3 395.6 396.3 395.1 396 395.1C376.4 395.1 356.8 395.1 337.2 395.1C306.2 395.1 275.2 395.1 244.2 395.1C237 395.1 229.8 395.1 222.6 395.1C222.3 395.2 222.3 395.6 222.6 395.6Z" fill="#BFC7CA"/>
<path d="M345.628 312.893L345.568 301.593L290.268 301.885L290.328 313.185L345.628 312.893Z" fill="#BFC7CA"/>
<path d="M290.579 324.104L352.179 323.779L352.271 341.179L290.671 341.504L290.579 324.104Z" fill="#EBEBEB" stroke="#222020" stroke-width="0.1"/>
<path d="M340.4 341.2C340.2 341.2 340.1 337.3 340.1 332.4C340.1 327.6 340.2 323.6 340.4 323.6C340.6 323.6 340.7 327.5 340.7 332.4C340.7 337.2 340.6 341.2 340.4 341.2Z" fill="#BFC7CA"/>
<path d="M343 341.2C342.8 341.2 342.7 337.3 342.7 332.4C342.7 327.6 342.8 323.6 343 323.6C343.2 323.6 343.3 327.5 343.3 332.4C343.3 337.2 343.2 341.2 343 341.2Z" fill="#BFC7CA"/>
<path d="M299.9 341.2C299.7 341.2 299.6 337.3 299.6 332.4C299.6 327.6 299.7 323.6 299.9 323.6C300.1 323.6 300.2 327.5 300.2 332.4C300.2 337.2 300 341.2 299.9 341.2Z" fill="#BFC7CA"/>
<path d="M302.5 341.2C302.3 341.2 302.2 337.3 302.2 332.4C302.2 327.6 302.3 323.6 302.5 323.6C302.7 323.6 302.8 327.5 302.8 332.4C302.8 337.2 302.6 341.2 302.5 341.2Z" fill="#BFC7CA"/>
<path d="M308.1 332.7C308.1 332.5 314.3 332.4 322 332.4C329.7 332.4 335.9 332.5 335.9 332.7C335.9 332.9 329.7 333 322 333C314.3 333 308.1 332.8 308.1 332.7Z" fill="#BFC7CA"/>
<path d="M375.421 323.675L375.361 312.375L299.261 312.777L299.321 324.077L375.421 323.675Z" fill="#EBEBEB"/>
<path d="M364.6 322.3C362.6 322.3 361 320.7 361 318.7C361 316.7 362.6 315.1 364.6 315.1C366.6 315.1 368.2 316.7 368.2 318.7C368.2 320.6 366.5 322.3 364.6 322.3Z" fill="#BFC7CA"/>
<path d="M354.706 319.843V317.543H303.706V319.843H354.706Z" fill="#BFC7CA"/>
<path d="M352.1 54.8H131.4V275.5H352.1V54.8Z" fill="white"/>
<path d="M352.1 275.6C352.1 273.7 352 187.2 351.9 54.9L352.1 55.1C287.9 55.1 212.2 55.1 131.4 55.1L131.7 54.8C131.7 135.6 131.7 211.4 131.7 275.5L131.5 275.3C263.7 275.5 350.2 275.6 352.1 275.6C350.2 275.6 263.7 275.7 131.4 275.8H131.2V275.6C131.2 211.4 131.2 135.7 131.2 54.9V54.6H131.5C212.3 54.6 288.1 54.6 352.2 54.6H352.4V54.8C352.2 187.2 352.1 273.7 352.1 275.6Z" fill="#263238"/>
<path d="M323.4 157.9H243.8C238.7 157.9 234.5 153.7 234.5 148.6C234.5 143.5 238.7 139.3 243.8 139.3H323.4C328.5 139.3 332.7 143.5 332.7 148.6C332.8 153.7 328.6 157.9 323.4 157.9Z" fill="#FF725E"/>
<g opacity="0.6">
<path d="M323.4 157.9H243.8C238.7 157.9 234.5 153.7 234.5 148.6C234.5 143.5 238.7 139.3 243.8 139.3H323.4C328.5 139.3 332.7 143.5 332.7 148.6C332.8 153.7 328.6 157.9 323.4 157.9Z" fill="white"/>
</g>
<path d="M289.1 183.8H155.2C150.1 183.8 145.9 179.6 145.9 174.5C145.9 169.4 150.1 165.2 155.2 165.2H289.1C294.2 165.2 298.4 169.4 298.4 174.5C298.4 179.7 294.2 183.8 289.1 183.8Z" fill="#FF725E"/>
<g opacity="0.6">
<path d="M289.1 183.8H155.2C150.1 183.8 145.9 179.6 145.9 174.5C145.9 169.4 150.1 165.2 155.2 165.2H289.1C294.2 165.2 298.4 169.4 298.4 174.5C298.4 179.7 294.2 183.8 289.1 183.8Z" fill="white"/>
</g>
<path d="M248.481 154.863C251.931 150.91 251.524 144.908 247.571 141.458C243.618 138.008 237.617 138.415 234.166 142.368C230.716 146.321 231.124 152.322 235.076 155.773C239.029 159.223 245.031 158.815 248.481 154.863Z" fill="#FF725E"/>
<path d="M304.233 176.737C305.443 171.631 302.286 166.512 297.181 165.301C292.076 164.091 286.956 167.248 285.746 172.353C284.535 177.458 287.692 182.578 292.797 183.788C297.902 184.999 303.022 181.842 304.233 176.737Z" fill="#FF725E"/>
<path d="M154 86.2C153.9 86.2 153.8 86.2 153.7 86.1L151 83.7C150.9 83.6 150.8 83.5 150.8 83.4C150.8 83.3 150.8 83.1 150.9 83L153.6 80.1C153.8 79.9 154.1 79.9 154.3 80.1C154.5 80.3 154.5 80.6 154.3 80.8L152 83.3L154.3 85.3C154.5 85.5 154.5 85.8 154.3 86C154.3 86.1 154.1 86.2 154 86.2Z" fill="#263238"/>
<path d="M331 86.2C330.9 86.2 330.8 86.2 330.7 86.1C330.5 85.9 330.5 85.6 330.7 85.4L333 82.9L330.7 80.9C330.5 80.7 330.5 80.4 330.7 80.2C330.9 80 331.2 80 331.4 80.2L334.1 82.6C334.2 82.7 334.3 82.8 334.3 82.9C334.3 83 334.3 83.2 334.2 83.3L331.5 86.2C331.3 86.1 331.2 86.2 331 86.2Z" fill="#263238"/>
<path d="M237.5 85.9V81L235.1 85H234.3L231.9 81.1V85.9H230.1V77.8H231.7L234.7 82.8L237.7 77.8H239.2V85.9H237.5Z" fill="#263238"/>
<path d="M246.6 82.4V86H244.9V85.2C244.6 85.8 243.9 86.1 243 86.1C241.5 86.1 240.7 85.3 240.7 84.2C240.7 83.1 241.5 82.3 243.4 82.3H244.8C244.8 81.5 244.3 81.1 243.4 81.1C242.7 81.1 242.1 81.3 241.6 81.7L241 80.4C241.7 79.9 242.7 79.6 243.7 79.6C245.5 79.6 246.6 80.5 246.6 82.4ZM244.8 84V83.4H243.6C242.8 83.4 242.5 83.7 242.5 84.1C242.5 84.6 242.9 84.9 243.5 84.9C244 84.8 244.6 84.5 244.8 84Z" fill="#263238"/>
<path d="M254.3 79.7L251.5 86.3C250.9 87.8 250 88.3 248.9 88.3C248.3 88.3 247.6 88.1 247.2 87.7L247.9 86.4C248.2 86.6 248.6 86.8 248.9 86.8C249.4 86.8 249.7 86.6 249.9 86V85.9L247.2 79.6H249.1L250.8 83.8L252.6 79.6H254.3V79.7Z" fill="#263238"/>
<path d="M349.4 103.9C349.4 104 301.6 104.2 242.7 104.2C183.8 104.2 136 104.1 136 103.9C136 103.8 183.7 103.6 242.7 103.6C301.6 103.7 349.4 103.8 349.4 103.9Z" fill="#E0E0E0"/>
<path d="M155.9 124.3V121L154.3 123.8H153.7L152 121V124.3H150.8V118.7H151.9L154 122.2L156.1 118.7H157.2V124.3H155.9Z" fill="#263238"/>
<path d="M158 122.1C158 120.8 159 119.9 160.4 119.9C161.8 119.9 162.7 120.8 162.7 122.1C162.7 123.4 161.7 124.3 160.4 124.3C159 124.3 158 123.4 158 122.1ZM161.4 122.1C161.4 121.4 160.9 120.9 160.3 120.9C159.7 120.9 159.2 121.3 159.2 122.1C159.2 122.8 159.7 123.3 160.3 123.3C160.9 123.3 161.4 122.9 161.4 122.1Z" fill="#263238"/>
<path d="M167.9 121.8V124.2H166.7V122C166.7 121.3 166.4 121 165.8 121C165.2 121 164.8 121.4 164.8 122.2V124.3H163.6V120H164.8V120.5C165.1 120.1 165.6 119.9 166.2 119.9C167.1 119.9 167.9 120.5 167.9 121.8Z" fill="#263238"/>
<path d="M180.8 119.8H179V118.8H183.8V119.8H182V124.3H180.7V119.8H180.8Z" fill="#263238"/>
<path d="M188.7 120V124.3H187.5V123.8C187.2 124.2 186.7 124.4 186.2 124.4C185.1 124.4 184.4 123.8 184.4 122.5V120H185.6V122.2C185.6 122.9 185.9 123.2 186.5 123.2C187.1 123.2 187.5 122.8 187.5 122V120H188.7Z" fill="#263238"/>
<path d="M194 122.5H190.8C190.9 123 191.4 123.4 192 123.4C192.5 123.4 192.8 123.3 193.1 123L193.8 123.7C193.4 124.2 192.8 124.4 192 124.4C190.5 124.4 189.6 123.5 189.6 122.2C189.6 120.9 190.6 120 191.9 120C193.2 120 194.1 120.8 194.1 122.2C194.1 122.2 194 122.4 194 122.5ZM190.8 121.8H192.9C192.8 121.3 192.4 120.9 191.9 120.9C191.3 120.9 190.9 121.2 190.8 121.8Z" fill="#263238"/>
<path d="M187.9 145.5V151.1H187.3V146H186V145.5H187.9Z" fill="#222020"/>
<path d="M216.4 150.6V151.1H212.5V150.7L214.8 148.4C215.4 147.8 215.5 147.4 215.5 147C215.5 146.4 215 146 214.2 146C213.5 146 213 146.2 212.7 146.6L212.3 146.3C212.7 145.8 213.4 145.5 214.3 145.5C215.4 145.5 216.1 146.1 216.1 147C216.1 147.5 215.9 148 215.2 148.7L213.3 150.6H216.4Z" fill="#222020"/>
<path d="M243.2 149.5C243.2 150.4 242.5 151.1 241.2 151.1C240.4 151.1 239.6 150.8 239.2 150.4L239.5 149.9C239.9 150.3 240.5 150.5 241.2 150.5C242.1 150.5 242.6 150.1 242.6 149.4C242.6 148.7 242.1 148.3 241.1 148.3H240.7V147.9L242.2 146H239.4V145.5H243V145.9L241.4 147.9C242.6 147.9 243.2 148.6 243.2 149.5Z" fill="#222020"/>
<path d="M270.9 149.6H269.8V151.1H269.2V149.6H266V149.2L268.9 145.5H269.5L266.7 149.1H269.1V147.8H269.7V149.1H270.8V149.6H270.9Z" fill="#222020"/>
<path d="M161.3 172.6V173L159 178.2H158.4L160.7 173.1H157.8V174.1H157.2V172.5H161.3V172.6Z" fill="#222020"/>
<path d="M188.7 176.6C188.7 177.6 187.9 178.2 186.5 178.2C185.2 178.2 184.4 177.6 184.4 176.6C184.4 175.9 184.8 175.5 185.5 175.2C184.9 175 184.6 174.6 184.6 174C184.6 173.1 185.4 172.5 186.5 172.5C187.7 172.5 188.5 173.1 188.5 174C188.5 174.6 188.2 175 187.6 175.2C188.3 175.5 188.7 175.9 188.7 176.6ZM188.1 176.6C188.1 175.9 187.5 175.5 186.5 175.5C185.5 175.5 184.9 175.9 184.9 176.6C184.9 177.3 185.5 177.7 186.5 177.7C187.5 177.7 188.1 177.3 188.1 176.6ZM186.6 175C187.5 175 188 174.6 188 174C188 173.4 187.5 173 186.6 173C185.8 173 185.2 173.4 185.2 174C185.2 174.6 185.7 175 186.6 175Z" fill="#222020"/>
<path d="M215.9 175.3C215.9 177.2 214.9 178.2 213.4 178.2C212.9 178.2 212.4 178.1 212.1 177.9L212.3 177.4C212.6 177.6 213 177.7 213.4 177.7C214.6 177.7 215.4 176.9 215.4 175.4C215.4 175.3 215.4 175.1 215.4 174.9C215.1 175.5 214.5 175.9 213.7 175.9C212.6 175.9 211.8 175.2 211.8 174.2C211.8 173.2 212.6 172.5 213.7 172.5C215.1 172.5 215.9 173.6 215.9 175.3ZM215.1 174.2C215.1 173.6 214.6 173 213.6 173C212.8 173 212.2 173.5 212.2 174.2C212.2 174.9 212.7 175.4 213.6 175.4C214.5 175.4 215.1 174.9 215.1 174.2Z" fill="#222020"/>
<path d="M239 172.6V178.2H238.4V173.1H237.1V172.6H239Z" fill="#222020"/>
<path d="M240.4 175.4C240.4 173.6 241.3 172.6 242.6 172.6C243.9 172.6 244.8 173.7 244.8 175.4C244.8 177.2 243.9 178.2 242.6 178.2C241.3 178.2 240.4 177.1 240.4 175.4ZM244.2 175.4C244.2 173.9 243.5 173.1 242.6 173.1C241.7 173.1 241 173.9 241 175.4C241 176.9 241.7 177.7 242.6 177.7C243.5 177.7 244.2 176.9 244.2 175.4Z" fill="#222020"/>
<path d="M267.5 172.6V178.2H267V173.1H265.7V172.6H267.5Z" fill="#222020"/>
<path d="M270.4 172.6V178.2H269.8V173.1H268.5V172.6H270.4Z" fill="#222020"/>
<path d="M294 172.6V178.2H293.4V173.1H292.1V172.6H294Z" fill="#222020"/>
<path d="M299.1 177.6V178.1H295.2V177.7L297.5 175.4C298.1 174.8 298.2 174.4 298.2 174C298.2 173.4 297.7 173 296.9 173C296.2 173 295.7 173.2 295.4 173.6L295 173.3C295.4 172.8 296.1 172.5 297 172.5C298.1 172.5 298.8 173.1 298.8 174C298.8 174.5 298.6 175 297.9 175.7L296 177.6H299.1Z" fill="#222020"/>
<path d="M321.3 172.6V178.2H320.7V173.1H319.4V172.6H321.3Z" fill="#222020"/>
<path d="M326.3 176.6C326.3 177.5 325.6 178.2 324.3 178.2C323.5 178.2 322.7 177.9 322.3 177.5L322.6 177C323 177.4 323.6 177.6 324.3 177.6C325.2 177.6 325.7 177.2 325.7 176.5C325.7 175.8 325.2 175.4 324.2 175.4H323.8V175L325.3 173.1H322.5V172.6H326.1V173L324.5 175C325.7 175 326.3 175.7 326.3 176.6Z" fill="#222020"/>
<path d="M158.9 199.5V205.1H158.3V200H157V199.5H158.9Z" fill="#222020"/>
<path d="M165 203.6H163.9V205.1H163.3V203.6H160.2V203.2L163.1 199.5H163.7L160.9 203.1H163.3V201.8H163.9V203.1H165V203.6Z" fill="#222020"/>
<path d="M186.5 199.5V205.1H185.9V200H184.6V199.5H186.5Z" fill="#222020"/>
<path d="M191.6 203.4C191.6 204.3 190.9 205.1 189.6 205.1C188.8 205.1 188 204.8 187.6 204.4L187.9 203.9C188.3 204.3 188.9 204.5 189.6 204.5C190.5 204.5 191 204 191 203.4C191 202.7 190.6 202.2 189.1 202.2H188L188.3 199.4H191.3V199.9H188.8L188.6 201.7H189.3C190.9 201.8 191.6 202.5 191.6 203.4Z" fill="#222020"/>
<path d="M213.5 199.5V205.1H212.9V200H211.6V199.5H213.5Z" fill="#222020"/>
<path d="M219 203.4C219 204.4 218.2 205.1 217.1 205.1C215.6 205.1 214.8 204.1 214.8 202.3C214.8 200.4 215.8 199.4 217.3 199.4C217.8 199.4 218.3 199.5 218.6 199.7L218.4 200.2C218.1 200 217.7 199.9 217.3 199.9C216.1 199.9 215.3 200.7 215.3 202.2C215.3 202.3 215.3 202.5 215.3 202.7C215.6 202.1 216.2 201.7 217 201.7C218.2 201.7 219 202.4 219 203.4ZM218.5 203.4C218.5 202.7 218 202.2 217.1 202.2C216.2 202.2 215.7 202.7 215.7 203.4C215.7 204 216.2 204.6 217.2 204.6C217.9 204.6 218.5 204.2 218.5 203.4Z" fill="#222020"/>
<path d="M240.8 199.5V205.1H240.2V200H238.9V199.5H240.8Z" fill="#222020"/>
<path d="M246 199.5V199.9L243.7 205.1H243.1L245.4 200H242.5V201H242V199.4H246V199.5Z" fill="#222020"/>
<path d="M267.8 199.5V205.1H267.2V200H265.9V199.5H267.8Z" fill="#222020"/>
<path d="M273.4 203.5C273.4 204.5 272.6 205.1 271.2 205.1C269.9 205.1 269.1 204.5 269.1 203.5C269.1 202.8 269.5 202.4 270.2 202.1C269.6 201.9 269.3 201.5 269.3 200.9C269.3 200 270.1 199.4 271.2 199.4C272.4 199.4 273.2 200 273.2 200.9C273.2 201.5 272.9 201.9 272.3 202.1C273 202.4 273.4 202.9 273.4 203.5ZM272.8 203.5C272.8 202.8 272.2 202.4 271.2 202.4C270.2 202.4 269.6 202.8 269.6 203.5C269.6 204.2 270.2 204.6 271.2 204.6C272.2 204.6 272.8 204.2 272.8 203.5ZM271.2 202C272.1 202 272.6 201.6 272.6 201C272.6 200.4 272.1 200 271.2 200C270.4 200 269.8 200.4 269.8 201C269.9 201.6 270.4 202 271.2 202Z" fill="#222020"/>
<path d="M295.1 199.5V205.1H294.5V200H293.2V199.5H295.1Z" fill="#222020"/>
<path d="M300.5 202.2C300.5 204.1 299.5 205.1 298 205.1C297.5 205.1 297 205 296.7 204.8L296.9 204.3C297.2 204.5 297.6 204.6 298 204.6C299.2 204.6 300 203.8 300 202.3C300 202.2 300 202 300 201.8C299.7 202.4 299.1 202.8 298.3 202.8C297.2 202.8 296.4 202.1 296.4 201.1C296.4 200.1 297.2 199.4 298.3 199.4C299.7 199.5 300.5 200.5 300.5 202.2ZM299.7 201.1C299.7 200.5 299.2 199.9 298.2 199.9C297.4 199.9 296.8 200.4 296.8 201.1C296.8 201.8 297.3 202.3 298.2 202.3C299.1 202.4 299.7 201.8 299.7 201.1Z" fill="#222020"/>
<path d="M323.6 204.6V205.1H319.7V204.7L322 202.4C322.6 201.8 322.7 201.4 322.7 201C322.7 200.4 322.2 200 321.4 200C320.7 200 320.2 200.2 319.9 200.6L319.5 200.3C319.9 199.8 320.6 199.5 321.5 199.5C322.6 199.5 323.3 200.1 323.3 201C323.3 201.5 323.1 202 322.4 202.7L320.5 204.6H323.6Z" fill="#222020"/>
<path d="M324.3 202.3C324.3 200.5 325.2 199.5 326.5 199.5C327.8 199.5 328.7 200.6 328.7 202.3C328.7 204.1 327.8 205.1 326.5 205.1C325.2 205.1 324.3 204.1 324.3 202.3ZM328.1 202.3C328.1 200.8 327.4 200 326.5 200C325.5 200 324.9 200.8 324.9 202.3C324.9 203.8 325.6 204.6 326.5 204.6C327.4 204.6 328.1 203.8 328.1 202.3Z" fill="#222020"/>
<path d="M161.2 229.4V229.9H157.3V229.5L159.6 227.2C160.2 226.6 160.3 226.2 160.3 225.8C160.3 225.2 159.8 224.8 159 224.8C158.3 224.8 157.8 225 157.5 225.4L157.1 225.1C157.5 224.6 158.2 224.3 159.1 224.3C160.2 224.3 160.9 224.9 160.9 225.8C160.9 226.3 160.7 226.8 160 227.5L158.1 229.4H161.2Z" fill="#222020"/>
<path d="M163.4 224.4V230H162.8V224.9H161.5V224.4H163.4Z" fill="#222020"/>
<path d="M187.5 229.4V229.9H183.6V229.5L185.9 227.2C186.5 226.6 186.6 226.2 186.6 225.8C186.6 225.2 186.1 224.8 185.3 224.8C184.6 224.8 184.1 225 183.8 225.4L183.4 225.1C183.8 224.6 184.5 224.3 185.4 224.3C186.5 224.3 187.2 224.9 187.2 225.8C187.2 226.3 187 226.8 186.3 227.5L184.4 229.4H187.5Z" fill="#222020"/>
<path d="M192.1 229.4V229.9H188.2V229.5L190.5 227.2C191.1 226.6 191.2 226.2 191.2 225.8C191.2 225.2 190.7 224.8 189.9 224.8C189.2 224.8 188.7 225 188.4 225.4L188 225.1C188.4 224.6 189.1 224.3 190 224.3C191.1 224.3 191.8 224.9 191.8 225.8C191.8 226.3 191.6 226.8 190.9 227.5L189 229.4H192.1Z" fill="#222020"/>
<path d="M214.8 229.4V229.9H210.9V229.5L213.2 227.2C213.8 226.6 213.9 226.2 213.9 225.8C213.9 225.2 213.4 224.8 212.6 224.8C211.9 224.8 211.4 225 211.1 225.4L210.7 225.1C211.1 224.6 211.8 224.3 212.7 224.3C213.8 224.3 214.5 224.9 214.5 225.8C214.5 226.3 214.3 226.8 213.6 227.5L211.7 229.4H214.8Z" fill="#222020"/>
<path d="M219.2 228.3C219.2 229.2 218.5 229.9 217.2 229.9C216.4 229.9 215.6 229.6 215.2 229.2L215.5 228.7C215.9 229.1 216.5 229.3 217.2 229.3C218.1 229.3 218.6 228.9 218.6 228.2C218.6 227.5 218.1 227.1 217.1 227.1H216.7V226.7L218.2 224.8H215.4V224.3H219V224.7L217.4 226.7C218.6 226.8 219.2 227.4 219.2 228.3Z" fill="#222020"/>
<path d="M241.7 229.4V229.9H237.8V229.5L240.1 227.2C240.7 226.6 240.8 226.2 240.8 225.8C240.8 225.2 240.3 224.8 239.5 224.8C238.8 224.8 238.3 225 238 225.4L237.6 225.1C238 224.6 238.7 224.3 239.6 224.3C240.7 224.3 241.4 224.9 241.4 225.8C241.4 226.3 241.2 226.8 240.5 227.5L238.6 229.4H241.7Z" fill="#222020"/>
<path d="M247 228.5H245.9V230H245.3V228.5H242.2V228.1L245.1 224.4H245.7L242.9 228H245.3V226.7H245.9V228H247V228.5Z" fill="#222020"/>
<path d="M269.2 229.4V229.9H265.3V229.5L267.6 227.2C268.2 226.6 268.3 226.2 268.3 225.8C268.3 225.2 267.8 224.8 267 224.8C266.3 224.8 265.8 225 265.5 225.4L265.1 225.1C265.5 224.6 266.2 224.3 267.1 224.3C268.2 224.3 268.9 224.9 268.9 225.8C268.9 226.3 268.7 226.8 268 227.5L266.1 229.4H269.2Z" fill="#222020"/>
<path d="M273.7 228.3C273.7 229.2 273 230 271.7 230C270.9 230 270.1 229.7 269.7 229.3L270 228.8C270.4 229.2 271 229.4 271.7 229.4C272.6 229.4 273.1 228.9 273.1 228.3C273.1 227.6 272.7 227.1 271.2 227.1H270L270.3 224.3H273.3V224.8H270.8L270.6 226.6H271.3C273.1 226.6 273.7 227.3 273.7 228.3Z" fill="#222020"/>
<path d="M296.3 229.4V229.9H292.4V229.5L294.7 227.2C295.3 226.6 295.4 226.2 295.4 225.8C295.4 225.2 294.9 224.8 294.1 224.8C293.4 224.8 292.9 225 292.6 225.4L292.2 225.1C292.6 224.6 293.3 224.3 294.2 224.3C295.3 224.3 296 224.9 296 225.8C296 226.3 295.8 226.8 295.1 227.5L293.2 229.4H296.3Z" fill="#222020"/>
<path d="M301.1 228.3C301.1 229.3 300.3 230 299.2 230C297.7 230 296.9 229 296.9 227.2C296.9 225.3 297.9 224.3 299.4 224.3C299.9 224.3 300.4 224.4 300.7 224.6L300.5 225.1C300.2 224.9 299.8 224.8 299.4 224.8C298.2 224.8 297.4 225.6 297.4 227.1C297.4 227.2 297.4 227.4 297.4 227.6C297.7 227 298.3 226.6 299.1 226.6C300.4 226.6 301.1 227.3 301.1 228.3ZM300.6 228.3C300.6 227.6 300.1 227.1 299.2 227.1C298.3 227.1 297.8 227.6 297.8 228.3C297.8 228.9 298.3 229.5 299.3 229.5C300 229.5 300.6 229 300.6 228.3Z" fill="#222020"/>
<path d="M323.6 229.4V229.9H319.7V229.5L322 227.2C322.6 226.6 322.7 226.2 322.7 225.8C322.7 225.2 322.2 224.8 321.4 224.8C320.7 224.8 320.2 225 319.9 225.4L319.5 225.1C319.9 224.6 320.6 224.3 321.5 224.3C322.6 224.3 323.3 224.9 323.3 225.8C323.3 226.3 323.1 226.8 322.4 227.5L320.5 229.4H323.6Z" fill="#222020"/>
<path d="M328.2 224.4V224.8L325.9 230H325.3L327.6 224.9H324.7V225.9H324.1V224.3H328.2V224.4Z" fill="#222020"/>
<path d="M161.2 253.2V253.7H157.3V253.3L159.6 251C160.2 250.4 160.3 250 160.3 249.6C160.3 249 159.8 248.6 159 248.6C158.3 248.6 157.8 248.8 157.5 249.2L157.1 248.9C157.5 248.4 158.2 248.1 159.1 248.1C160.2 248.1 160.9 248.7 160.9 249.6C160.9 250.1 160.7 250.6 160 251.3L158.1 253.2H161.2Z" fill="#222020"/>
<path d="M166.1 252.2C166.1 253.2 165.3 253.8 163.9 253.8C162.6 253.8 161.8 253.2 161.8 252.2C161.8 251.5 162.2 251.1 162.9 250.8C162.3 250.6 162 250.2 162 249.6C162 248.7 162.8 248.1 163.9 248.1C165.1 248.1 165.9 248.7 165.9 249.6C165.9 250.2 165.6 250.6 165 250.8C165.8 251 166.1 251.5 166.1 252.2ZM165.6 252.2C165.6 251.5 165 251.1 164 251.1C163 251.1 162.4 251.5 162.4 252.2C162.4 252.9 163 253.3 164 253.3C165 253.3 165.6 252.9 165.6 252.2ZM164 250.6C164.9 250.6 165.4 250.2 165.4 249.6C165.4 249 164.9 248.6 164 248.6C163.2 248.6 162.6 249 162.6 249.6C162.6 250.2 163.1 250.6 164 250.6Z" fill="#222020"/>
<path d="M189 253.2V253.7H185.1V253.3L187.4 251C188 250.4 188.1 250 188.1 249.6C188.1 249 187.6 248.6 186.8 248.6C186.1 248.6 185.6 248.8 185.3 249.2L184.9 248.9C185.3 248.4 186 248.1 186.9 248.1C188 248.1 188.7 248.7 188.7 249.6C188.7 250.1 188.5 250.6 187.8 251.3L185.9 253.2H189Z" fill="#222020"/>
<path d="M193.8 250.9C193.8 252.8 192.8 253.8 191.3 253.8C190.8 253.8 190.3 253.7 190 253.5L190.2 253C190.5 253.2 190.9 253.3 191.3 253.3C192.5 253.3 193.3 252.5 193.3 251C193.3 250.9 193.3 250.7 193.3 250.5C193 251.1 192.4 251.5 191.6 251.5C190.5 251.5 189.7 250.8 189.7 249.8C189.7 248.8 190.5 248.1 191.6 248.1C193 248.1 193.8 249.2 193.8 250.9ZM193 249.8C193 249.2 192.5 248.6 191.5 248.6C190.7 248.6 190.1 249.1 190.1 249.8C190.1 250.5 190.6 251 191.5 251C192.4 251 193 250.5 193 249.8Z" fill="#222020"/>
<path d="M216.5 252.1C216.5 253 215.8 253.7 214.5 253.7C213.7 253.7 212.9 253.4 212.5 253L212.8 252.5C213.2 252.9 213.8 253.1 214.5 253.1C215.4 253.1 215.9 252.7 215.9 252C215.9 251.3 215.4 250.9 214.4 250.9H214V250.5L215.5 248.6H212.7V248.1H216.3V248.5L214.7 250.5C215.9 250.6 216.5 251.2 216.5 252.1Z" fill="#222020"/>
<path d="M217.3 251C217.3 249.2 218.2 248.2 219.5 248.2C220.8 248.2 221.7 249.3 221.7 251C221.7 252.8 220.8 253.8 219.5 253.8C218.2 253.8 217.3 252.7 217.3 251ZM221.1 251C221.1 249.5 220.4 248.7 219.5 248.7C218.5 248.7 217.9 249.5 217.9 251C217.9 252.5 218.6 253.3 219.5 253.3C220.5 253.3 221.1 252.4 221.1 251Z" fill="#222020"/>
<path d="M245.4 252.1C245.4 253 244.7 253.7 243.4 253.7C242.6 253.7 241.8 253.4 241.4 253L241.7 252.5C242.1 252.9 242.7 253.1 243.4 253.1C244.3 253.1 244.8 252.7 244.8 252C244.8 251.3 244.3 250.9 243.3 250.9H242.9V250.5L244.4 248.6H241.6V248.1H245.2V248.5L243.6 250.5C244.8 250.6 245.4 251.2 245.4 252.1Z" fill="#222020"/>
<path d="M247.8 248.2V253.8H247.2V248.7H245.9V248.2H247.8Z" fill="#222020"/>
<path d="M297.2 149.4C297.2 150.3 296.5 151.1 295.2 151.1C294.4 151.1 293.6 150.8 293.2 150.4L293.5 149.9C293.9 150.3 294.5 150.5 295.2 150.5C296.1 150.5 296.6 150 296.6 149.4C296.6 148.7 296.2 148.2 294.7 148.2H293.5L293.8 145.4H296.8V145.9H294.3L294.1 147.7H294.8C296.6 147.8 297.2 148.4 297.2 149.4Z" fill="#222020"/>
<path d="M324.5 149.4C324.5 150.4 323.7 151.1 322.6 151.1C321.1 151.1 320.3 150.1 320.3 148.3C320.3 146.4 321.3 145.4 322.8 145.4C323.3 145.4 323.8 145.5 324.1 145.7L323.9 146.2C323.6 146 323.2 145.9 322.8 145.9C321.6 145.9 320.8 146.7 320.8 148.2C320.8 148.3 320.8 148.5 320.8 148.7C321.1 148.1 321.7 147.7 322.5 147.7C323.7 147.7 324.5 148.4 324.5 149.4ZM323.9 149.4C323.9 148.7 323.4 148.2 322.5 148.2C321.6 148.2 321.1 148.7 321.1 149.4C321.1 150 321.6 150.6 322.6 150.6C323.3 150.6 323.9 150.2 323.9 149.4Z" fill="#222020"/>
<path d="M213.4 118.7L211.6 124.3H210.2L209 120.5L207.7 124.3H206.3L204.5 118.7H205.8L207.1 122.6L208.4 118.7H209.6L210.9 122.6L212.2 118.7H213.4Z" fill="#263238"/>
<path d="M217.9 122.5H214.7C214.8 123 215.3 123.4 215.9 123.4C216.4 123.4 216.7 123.3 217 123L217.7 123.7C217.3 124.2 216.7 124.4 215.9 124.4C214.4 124.4 213.5 123.5 213.5 122.2C213.5 120.9 214.5 120 215.8 120C217.1 120 218 120.8 218 122.2C217.9 122.2 217.9 122.4 217.9 122.5ZM214.7 121.8H216.8C216.7 121.3 216.3 120.9 215.8 120.9C215.1 120.9 214.7 121.2 214.7 121.8Z" fill="#263238"/>
<path d="M223.1 118.4V124.3H221.9V123.8C221.6 124.2 221.1 124.4 220.6 124.4C219.4 124.4 218.5 123.5 218.5 122.2C218.5 120.9 219.4 120 220.6 120C221.1 120 221.6 120.2 221.9 120.5V118.4H223.1ZM221.9 122.1C221.9 121.4 221.4 120.9 220.8 120.9C220.2 120.9 219.7 121.3 219.7 122.1C219.7 122.8 220.2 123.3 220.8 123.3C221.4 123.3 221.9 122.9 221.9 122.1Z" fill="#263238"/>
<path d="M235.3 119.8H233.5V118.8H238.3V119.8H236.5V124.3H235.2V119.8H235.3Z" fill="#263238"/>
<path d="M243.3 121.8V124.2H242.1V122C242.1 121.3 241.8 121 241.2 121C240.6 121 240.2 121.4 240.2 122.2V124.3H239V118.4H240.2V120.5C240.5 120.2 241 120 241.6 120C242.5 119.9 243.3 120.5 243.3 121.8Z" fill="#263238"/>
<path d="M248.7 120V124.3H247.5V123.8C247.2 124.2 246.7 124.4 246.2 124.4C245.1 124.4 244.4 123.8 244.4 122.5V120H245.6V122.2C245.6 122.9 245.9 123.2 246.5 123.2C247.1 123.2 247.5 122.8 247.5 122V120H248.7Z" fill="#263238"/>
<path d="M265.3 119.7V121.2H267.9V122.2H265.3V124.2H264V118.6H268.2V119.6H265.3V119.7Z" fill="#263238"/>
<path d="M271.6 119.9V121C271.5 121 271.4 121 271.3 121C270.6 121 270.2 121.4 270.2 122.2V124.2H269V120H270.2V120.6C270.4 120.2 270.9 119.9 271.6 119.9Z" fill="#263238"/>
<path d="M272.2 118.7C272.2 118.3 272.5 118 273 118C273.5 118 273.8 118.3 273.8 118.7C273.8 119.1 273.5 119.4 273 119.4C272.5 119.4 272.2 119.1 272.2 118.7ZM272.3 120H273.5V124.3H272.3V120Z" fill="#263238"/>
<path d="M289.6 123.7L290 122.7C290.5 123 291.2 123.3 291.8 123.3C292.6 123.3 292.9 123 292.9 122.7C292.9 121.7 289.7 122.4 289.7 120.3C289.7 119.4 290.5 118.6 292 118.6C292.7 118.6 293.4 118.8 293.9 119.1L293.5 120.1C293 119.8 292.5 119.7 292 119.7C291.2 119.7 290.9 120 290.9 120.3C290.9 121.3 294.1 120.6 294.1 122.7C294.1 123.6 293.3 124.4 291.7 124.4C291 124.4 290.1 124.1 289.6 123.7Z" fill="#263238"/>
<path d="M298.8 121.8V124.2H297.6V123.7C297.4 124.1 296.9 124.3 296.3 124.3C295.3 124.3 294.7 123.7 294.7 123C294.7 122.2 295.2 121.7 296.5 121.7H297.5C297.5 121.2 297.2 120.9 296.5 120.9C296 120.9 295.6 121.1 295.3 121.3L294.9 120.4C295.4 120.1 296.1 119.9 296.7 119.9C298.1 119.9 298.8 120.5 298.8 121.8ZM297.6 122.9V122.5H296.7C296.1 122.5 295.9 122.7 295.9 123C295.9 123.3 296.2 123.5 296.6 123.5C297.1 123.5 297.4 123.3 297.6 122.9Z" fill="#263238"/>
<path d="M302.7 124.1C302.4 124.3 302.1 124.4 301.7 124.4C300.7 124.4 300.1 123.9 300.1 122.9V121H299.4V120H300.1V119H301.3V120H302.4V121H301.3V122.7C301.3 123.1 301.5 123.3 301.8 123.3C302 123.3 302.2 123.2 302.3 123.1L302.7 124.1Z" fill="#263238"/>
<path d="M315.7 123.7L316.1 122.7C316.6 123 317.3 123.3 317.9 123.3C318.7 123.3 319 123 319 122.7C319 121.7 315.8 122.4 315.8 120.3C315.8 119.4 316.6 118.6 318.1 118.6C318.8 118.6 319.5 118.8 320 119.1L319.6 120.1C319.1 119.8 318.6 119.7 318.1 119.7C317.3 119.7 317 120 317 120.3C317 121.3 320.2 120.6 320.2 122.7C320.2 123.6 319.4 124.4 317.8 124.4C317 124.4 316.2 124.1 315.7 123.7Z" fill="#263238"/>
<path d="M325.4 120V124.3H324.2V123.8C323.9 124.2 323.4 124.4 322.9 124.4C321.8 124.4 321.1 123.8 321.1 122.5V120H322.3V122.2C322.3 122.9 322.6 123.2 323.2 123.2C323.8 123.2 324.2 122.8 324.2 122V120H325.4Z" fill="#263238"/>
<path d="M330.9 121.8V124.2H329.7V122C329.7 121.3 329.4 121 328.8 121C328.2 121 327.8 121.4 327.8 122.2V124.3H326.6V120H327.8V120.5C328.1 120.1 328.6 119.9 329.2 119.9C330.2 119.9 330.9 120.5 330.9 121.8Z" fill="#263238"/>
<path d="M382.5 440.7L384.9 464C384.9 464 362 474.3 362 478.6L407.4 475.5L405.1 439L382.5 440.7Z" fill="#455A64"/>
<g opacity="0.3">
<path d="M382.5 440.7L384.9 464C384.9 464 362 474.3 362 478.6L407.4 475.5L405.1 439L382.5 440.7Z" fill="black"/>
</g>
<g opacity="0.6">
<path d="M398.9 461.1C399.8 461.3 400.5 462.2 400.3 463.1C400.2 464 399.2 464.7 398.3 464.5C397.4 464.3 396.6 463.2 396.8 462.3C397 461.4 398.2 460.7 399 461" fill="white"/>
</g>
<g opacity="0.6">
<path d="M407.5 475.6L407.1 471.9L363.7 476.2C363.7 476.2 361.7 477.2 362.1 478.6L407.5 475.6Z" fill="white"/>
</g>
<path d="M384.2 463.9C384.2 464.1 385.3 464.1 386.5 464.8C387.7 465.4 388.3 466.3 388.5 466.2C388.7 466.1 388.3 464.8 386.9 464.1C385.5 463.3 384.1 463.7 384.2 463.9Z" fill="#F5F5F5"/>
<path d="M379.6 466.2C379.6 466.4 380.5 466.7 381.4 467.6C382.2 468.5 382.5 469.5 382.7 469.4C382.9 469.4 383 468.1 381.9 467C380.9 466 379.6 466 379.6 466.2Z" fill="#F5F5F5"/>
<path d="M377.3 472C377.5 472 377.7 470.9 377.1 469.7C376.5 468.5 375.4 468.1 375.3 468.3C375.2 468.5 375.9 469.1 376.4 470.1C376.9 471.1 377 472 377.3 472Z" fill="#F5F5F5"/>
<path d="M384.2 458.5C384.3 458.7 385.3 458.3 386.6 458.3C387.9 458.3 388.9 458.6 389 458.4C389.1 458.2 388.1 457.5 386.6 457.5C385.1 457.6 384.1 458.3 384.2 458.5Z" fill="#F5F5F5"/>
<path d="M383.8 453.8C383.8 453.9 384.7 454 386.1 453.6C386.8 453.4 387.6 453.1 388.4 452.7C388.8 452.5 389.2 452.2 389.7 451.9C389.9 451.8 390.1 451.6 390.3 451.3C390.5 451.1 390.6 450.5 390.3 450.1C390 449.8 389.6 449.6 389.3 449.7C389 449.7 388.7 449.8 388.5 449.9C388 450.1 387.5 450.3 387.1 450.5C386.3 451 385.6 451.5 385.1 452C384.1 453 383.8 453.9 383.9 453.9C384 454 384.5 453.2 385.5 452.4C386 452 386.7 451.5 387.4 451.1C387.8 450.9 388.2 450.7 388.7 450.6C389.2 450.4 389.6 450.4 389.7 450.6C389.8 450.7 389.8 450.7 389.7 450.9C389.6 451 389.4 451.2 389.2 451.3C388.8 451.6 388.4 451.8 388 452.1C387.2 452.5 386.5 452.9 385.9 453.1C384.7 453.5 383.8 453.7 383.8 453.8Z" fill="#F5F5F5"/>
<path d="M384.2 454.1C384.3 454.1 384.7 453.3 384.7 451.9C384.7 451.2 384.6 450.3 384.2 449.4C384 449 383.8 448.5 383.5 448.1C383.2 447.7 382.8 447.1 382 447.1C381.5 447.1 381.2 447.5 381.1 447.8C381 448.1 381 448.4 380.9 448.6C380.9 449.1 380.9 449.7 381 450.1C381.2 451.1 381.7 451.8 382.1 452.4C383.1 453.5 384 453.7 384 453.6C384.1 453.5 383.3 453.1 382.5 452C382.1 451.5 381.8 450.8 381.6 449.9C381.5 449.5 381.5 449 381.6 448.6C381.6 448.1 381.8 447.7 382 447.7C382.2 447.7 382.6 448 382.8 448.4C383.1 448.8 383.3 449.2 383.4 449.6C383.7 450.4 383.9 451.2 384 451.8C384.2 453.2 384 454.1 384.2 454.1Z" fill="#F5F5F5"/>
<path d="M377.8 274.3C377.8 274.3 355.5 360.7 354.9 368.9C354.3 377 382.8 448 382.8 448L404.8 443.9C404.8 443.9 403.4 340 402.7 338C402 336 408.3 284.9 408.3 284.9L377.8 274.3Z" fill="#554D4D"/>
<path d="M392.6 441.8L392.8 465.2C392.8 465.2 369.1 473.3 368.7 477.7L414.2 478.2L415.3 442.4L392.6 441.8Z" fill="#455A64"/>
<g opacity="0.6">
<path d="M407 463.7C407.9 464 408.5 465 408.2 465.9C408 466.8 407 467.4 406.1 467.1C405.2 466.9 404.5 465.7 404.8 464.8C405.1 463.9 406.4 463.3 407.1 463.8" fill="white"/>
</g>
<g opacity="0.6">
<path d="M414.2 478.2V475.2L370.6 475.5C370.6 475.5 368.6 476.3 368.7 477.8L414.2 478.2Z" fill="white"/>
</g>
<path d="M392.2 465C392.2 465.2 393.3 465.4 394.4 466.1C395.5 466.8 396 467.8 396.2 467.7C396.4 467.7 396.1 466.3 394.8 465.5C393.5 464.6 392.1 464.8 392.2 465Z" fill="#F5F5F5"/>
<path d="M387.3 466.9C387.2 467.1 388.2 467.5 388.9 468.5C389.7 469.4 389.8 470.5 390 470.5C390.2 470.5 390.4 469.2 389.5 468.1C388.7 466.8 387.3 466.7 387.3 466.9Z" fill="#F5F5F5"/>
<path d="M384.5 472.5C384.7 472.6 385 471.5 384.5 470.2C384 469 382.9 468.5 382.8 468.6C382.7 468.8 383.3 469.4 383.8 470.5C384.2 471.5 384.3 472.5 384.5 472.5Z" fill="#F5F5F5"/>
<path d="M392.7 459.7C392.8 459.9 393.8 459.6 395.1 459.7C396.4 459.8 397.3 460.2 397.4 460.1C397.5 459.9 396.6 459.1 395.1 459C393.6 458.8 392.6 459.5 392.7 459.7Z" fill="#F5F5F5"/>
<g opacity="0.3">
<path d="M392.7 446.5V450.6L415.1 451L415.2 447.3L392.7 446.5Z" fill="black"/>
</g>
<path d="M392.7 454.9C392.7 455 393.6 455.2 395 454.9C395.7 454.8 396.5 454.6 397.4 454.2C397.8 454 398.3 453.8 398.7 453.5C398.9 453.4 399.2 453.2 399.4 453C399.7 452.8 399.8 452.2 399.5 451.8C399.3 451.4 398.9 451.3 398.5 451.3C398.2 451.3 397.9 451.3 397.6 451.4C397.1 451.5 396.6 451.7 396.2 451.8C395.3 452.2 394.6 452.7 394.1 453.1C393 454 392.6 454.9 392.7 454.9C392.8 455 393.3 454.3 394.4 453.5C394.9 453.1 395.6 452.7 396.5 452.4C396.9 452.2 397.4 452.1 397.8 452C398.3 451.9 398.7 451.9 398.8 452.1C398.8 452.2 398.8 452.2 398.7 452.4C398.6 452.5 398.4 452.6 398.2 452.8C397.8 453.1 397.4 453.3 397 453.5C396.2 453.9 395.4 454.1 394.8 454.3C393.6 454.8 392.7 454.8 392.7 454.9Z" fill="#F5F5F5"/>
<path d="M393 455.3C393.1 455.3 393.5 454.6 393.7 453.1C393.8 452.4 393.7 451.5 393.5 450.6C393.4 450.1 393.2 449.7 393 449.2C392.7 448.7 392.4 448.1 391.6 448C391.2 448 390.8 448.3 390.6 448.6C390.4 448.9 390.4 449.2 390.3 449.4C390.2 449.9 390.2 450.4 390.3 450.9C390.4 451.9 390.8 452.7 391.2 453.3C392.1 454.5 393 454.8 393 454.7C393.1 454.6 392.3 454.1 391.7 453C391.4 452.4 391.1 451.7 391 450.8C391 450.4 391 449.9 391.1 449.5C391.2 449 391.4 448.6 391.6 448.7C391.8 448.7 392.2 449.1 392.4 449.5C392.6 449.9 392.8 450.3 392.9 450.7C393.2 451.5 393.3 452.3 393.3 453C393.2 454.4 392.9 455.2 393 455.3Z" fill="#F5F5F5"/>
<path d="M429.7 268.7L378.6 270.1L385.9 361L390.4 448.6L416.9 449.5C418.3 432.6 417.8 397.9 417.8 397.9L419.7 383L426.4 330.4C426.9 328.2 428.8 317 430.7 308.1C431.8 303 433.4 296.3 433.8 294.1C434.9 287.7 429.7 268.7 429.7 268.7Z" fill="#554D4D"/>
<path d="M381.6 291C381.6 291 381.6 291.1 381.6 291.4C381.6 291.7 381.6 292.1 381.6 292.6C381.6 293.7 381.5 295.2 381.4 297.2C381.3 299.2 381.2 301.6 381.1 304.5C381 307.3 380.9 310.6 380.8 314.1C380.6 321.2 380.5 329.7 380.5 339.1C380.6 348.5 380.8 358.9 381.3 369.8C381.9 380.7 382.7 391 383.6 400.4C384.1 405.1 384.6 409.5 385.1 413.7C385.4 415.8 385.6 417.8 385.9 419.7C386.2 421.6 386.5 423.5 386.7 425.2C387.2 428.7 387.8 431.9 388.2 434.7C388.6 437.5 389.1 439.9 389.4 441.9C389.8 443.8 390 445.4 390.2 446.4C390.3 446.9 390.4 447.3 390.4 447.6C390.4 447.9 390.5 448 390.5 448C390.5 448 390.5 447.9 390.4 447.6C390.3 447.3 390.3 446.9 390.2 446.4C390 445.3 389.7 443.8 389.3 441.9C388.9 439.9 388.4 437.6 388 434.8C387.5 432 386.9 428.8 386.4 425.3C386.1 423.5 385.8 421.7 385.6 419.8C385.3 417.9 385.1 415.9 384.8 413.8C384.2 409.6 383.7 405.2 383.2 400.5C382.2 391.1 381.4 380.8 380.8 369.9C380.3 359 380.1 348.7 380 339.2C380 329.8 380.1 321.3 380.4 314.1C380.5 310.5 380.7 307.3 380.8 304.5C380.9 301.7 381 299.2 381.2 297.2C381.3 295.2 381.4 293.7 381.5 292.6C381.5 292.1 381.6 291.7 381.6 291.4C381.6 291.2 381.6 291 381.6 291Z" fill="#222020"/>
<path d="M424.5 85.8C424.4 82.5 426.4 79.2 429.3 77.7C432.3 76.2 436.1 76.7 438.7 78.9C439.3 79.4 439.9 80.1 440.7 80.4C441.6 80.8 442.7 80.6 443.6 80.5C447.4 80.3 451.2 82.3 453.1 85.6C455 88.9 455 93.2 453 96.4C456.6 97.6 459.5 100.7 460.5 104.4C461.4 108.1 460.3 112.2 457.6 114.9C459.3 116.6 460 119.3 459.4 121.6C458.8 124 457 126 454.7 126.8C453.9 127.1 453.1 127.2 452.5 127.8C450.9 129.5 453.3 132.4 452.1 134.4C451.2 135.9 448.8 136 448.1 137.6C447.6 138.8 448.4 140 448.5 141.3C448.7 144 445.9 146 443.2 146.5C437.9 147.6 432.4 145.4 428.5 141.6C424.7 137.8 422.5 132.7 421.4 127.4C418.7 115.1 421.5 102.3 424.3 90" fill="#879093"/>
<path d="M420.5 89.6C419.1 88.4 418.9 86 420.2 84.7C421.5 83.4 423.9 83.3 425.1 84.7C425.5 85.1 425.8 85.6 426.3 85.6C426.8 85.7 427.2 85.3 427.6 85C428.7 84.3 430.2 84.4 431.2 85.1C432.2 85.8 432.8 87.2 432.6 88.4C434.3 87.8 436.7 88.1 437.4 89.8C438.1 91.3 437.1 93.1 435.7 93.9C434.2 94.7 432.5 94.6 430.9 94.2C427.1 93.4 423.5 91.5 420.8 88.6" fill="#FF725E"/>
<path d="M431 90.2C431 90.3 431.6 90.1 432 89.6C432.4 89 432.5 88.5 432.4 88.4C432.3 88.4 432.1 88.8 431.7 89.3C431.4 89.8 431 90.1 431 90.2Z" fill="white"/>
<path d="M425 89.5C425.1 89.5 425.1 88.7 425.4 87.7C425.7 86.8 426.2 86.1 426.1 86C426 85.9 425.3 86.5 425 87.6C424.7 88.6 424.9 89.5 425 89.5Z" fill="white"/>
<path d="M421.8 88.5C421.9 88.5 421.7 87.6 422 86.7C422.2 85.7 422.8 85.1 422.7 85C422.6 84.9 421.9 85.5 421.7 86.6C421.4 87.7 421.7 88.5 421.8 88.5Z" fill="white"/>
<path d="M433.3 92.4C433.3 92.4 433.6 92.5 433.9 92.3C434.3 92.2 434.8 91.9 435.2 91.4C435.6 90.9 435.7 90.3 435.8 89.9C435.8 89.5 435.7 89.3 435.7 89.3C435.6 89.3 435.6 90.3 434.9 91.2C434.2 92.1 433.3 92.3 433.3 92.4Z" fill="white"/>
<path d="M396.9 126.4C394.4 125.5 392.9 122.6 393.7 120.1C390.8 118.1 390.4 113.3 392.8 110.8C391.5 109.6 391.1 107.5 391.7 105.9C392.4 104.2 394.1 103.1 395.9 103.1C395.2 101.1 395.8 98.7 397.2 97.1C398.6 95.5 400.9 94.8 403 95.2C402.8 93 403.9 90.8 405.8 89.7C407.7 88.6 410.2 88.8 411.9 90.1C414.8 86.5 421.1 86.7 423.9 90.3C427.5 88.4 432.6 90.2 434.1 94C436.5 92 440.4 93 442.4 95.4C444.3 97.8 444.7 101.2 444.2 104.3C445.8 105.1 446.9 106.9 447 108.7C447.1 110.5 446.1 112.3 444.5 113.3C447.2 117 446.1 122.9 442.2 125.4C442.6 129.4 440.3 133.5 436.7 135.3" fill="#879093"/>
<path d="M434.5 110.5L436 106.9L413.3 102C406.3 101.1 398.5 108 397.9 115C397.2 122.8 396.7 132.4 397.5 138.3C399.1 150.1 408.1 150.4 408.1 150.4L407.8 170.3L433.9 160.9L434.5 110.5Z" fill="#F0DFC8"/>
<path fill-rule="evenodd" clip-rule="evenodd" d="M402 139.296L415 139C415 139 414.896 143.568 408.798 143.978C402.834 144.375 402 139.296 402 139.296Z" fill="white"/>
<path d="M408 150.3C408 150.3 416.3 151 424.3 146.5C424.3 146.5 420.1 154.7 408 153.3V150.3Z" fill="#E7D2B5"/>
<path d="M423.2 102.3C422.8 103.2 422.4 104.2 421.7 104.8C420.9 105.4 419.7 105.5 419.1 104.8C418 106 415.8 105.7 415.1 104.3C413.9 105.3 412 105.4 410.8 104.5C409.6 104.7 408.4 104.9 407.3 105.1C406 105.3 404.4 105.4 403.7 104.3C403.5 104 403.4 103.7 403.1 103.6C402.8 103.5 402.5 103.5 402.2 103.6C401.2 103.7 400.2 103 399.6 102.2C399 101.4 398.7 100.4 398.4 99.4C398 97.9 397.7 96 398.9 95C399.4 94.6 400 94.5 400.6 94.4C401.8 94.2 403.1 94 404.3 94.3C405.8 94.7 407 95.9 407.8 97.1C407.5 96.3 408.1 95.4 408.9 95.1C409.7 94.8 410.6 95.1 411.3 95.5C412.4 96.1 413.3 96.9 413.9 98C415.9 98.1 417.7 99.4 418.5 101.2C419.4 100.7 420.5 100.5 421.5 100.8C421.9 100.9 422.2 101.1 422.4 101.4C422.6 101.7 422.4 102.2 422 102.3" fill="#879093"/>
<path d="M411.8 102.4C412.3 104 411.7 105.9 410.3 106.8C408.9 107.7 406.9 107.6 405.6 106.6C405 108.2 403.1 109.1 401.5 108.7C401.4 110.7 400.2 112.6 398.4 113.5C398.8 114.5 398.7 115.7 398.3 116.7C398 117.3 397.5 117.9 396.9 118.2C396.1 118.5 395.2 118.3 394.5 117.9C393.4 117.4 392.5 116.5 392.2 115.4C391.9 114.3 392.4 112.9 393.5 112.4C392.5 111.4 391.8 110.2 391.3 108.9C391 108.2 390.9 107.3 391.2 106.6C391.6 105.9 392.6 105.5 393.2 106.1C392.6 104.9 392.8 103.4 393.6 102.4C394.4 101.4 395.8 100.9 397.1 101.2C397.2 100.1 397.9 99.1 398.9 98.7C399.9 98.3 401.2 98.6 401.9 99.3" fill="#879093"/>
<path d="M425.9 101.8C425.9 100.4 427.3 99.2 428.7 99.1C430.1 99 431.5 99.6 432.8 100.3C434.2 98.8 436.6 98.3 438.4 99.2C440.3 100.1 441.4 101.9 442.9 103.3C443.7 104 444.6 104.7 445.2 105.6C445.7 106.6 445.6 108 444.7 108.5C445.9 109 446.8 110.2 447 111.5C447.2 112.8 446.5 114.2 445.4 114.9C445.1 115.1 444.6 115.3 444.5 115.7C444.4 116 444.5 116.4 444.5 116.7C445 118.3 445.8 119.8 446 121.5C446.2 123.2 445.8 125.1 444.3 125.9C443.9 126.1 443.5 126.3 443.3 126.7C443.2 127 443.2 127.3 443.3 127.6C443.5 128.5 444 129.4 444.3 130.3C444.7 131.2 444.9 132.2 444.6 133.1C444.3 134 443.2 134.7 442.3 134.3C442.8 136.1 442.7 138.3 441.4 139.7C440.2 141.1 436.3 141.6 434 140.1L434.1 134.7C434.5 133.8 433.2 128.6 433.9 127.6C433.9 127.6 435.3 131.2 431.7 130.4C430.5 130.7 428.4 127.1 428.3 125.8C428.2 124.6 429 123.4 430.1 122.8C428.1 121.1 427.6 118 429 115.8C427.7 115.5 426.7 114.3 426.6 113C426.5 111.7 427.5 110.4 428.7 110C425.4 109 423.6 104.7 425.3 101.6" fill="#879093"/>
<path d="M434.2 94.1C434.2 94.1 434.3 94 434.6 93.9C434.9 93.8 435.2 93.5 435.7 93.4C436.7 93 438.4 92.7 440.4 93.4C442.3 94.2 444.2 96 445.3 98.6C445.8 99.9 446.2 101.3 446.2 102.9C446.2 103.7 446.1 104.5 445.8 105.3C445.5 106.1 445 106.8 444.3 107.4L444.2 107C445.8 107.7 447.1 109.1 447.5 111C447.9 112.8 447.2 114.9 445.8 116.2C445.7 116.3 445.6 116.4 445.5 116.5V116.1C446.6 116.6 447.4 117.7 447.7 118.8C448.1 119.9 448.1 121 447.9 122.1C447.5 124.3 446.4 126.1 445.7 127.9C445.3 128.8 445 129.7 444.9 130.6C444.7 131.5 444.7 132.4 444.5 133.3C444.2 135.1 443.5 136.6 442.4 137.7C440.3 140 437.8 140.6 436.1 140.7C435.3 140.7 434.6 140.6 434.2 140.5C433.8 140.4 433.6 140.3 433.6 140.3C433.6 140.2 434.5 140.6 436.1 140.5C437.7 140.4 440.2 139.7 442.1 137.5C443.1 136.4 443.8 135 444 133.2C444.1 132.3 444.2 131.4 444.4 130.5C444.6 129.6 444.9 128.6 445.2 127.7C445.9 125.9 447 124 447.3 122C447.4 121 447.4 119.9 447.1 118.9C446.8 117.9 446.1 117 445.2 116.5L444.9 116.3L445.2 116C445.3 115.9 445.4 115.8 445.5 115.7C446.8 114.5 447.4 112.6 447.1 111C446.8 109.3 445.5 108 444.1 107.4L443.7 107.2L444 107C445.3 106 445.7 104.4 445.7 103C445.7 101.5 445.4 100.1 444.9 98.8C443.8 96.3 442.1 94.5 440.3 93.7C438.5 92.9 436.8 93.2 435.8 93.5C435.3 93.6 434.9 93.9 434.6 93.9C434.3 94.1 434.2 94.1 434.2 94.1Z" fill="#515C5F"/>
<path d="M308.4 194.3C308.7 194.6 309.1 194.9 309.4 195.3C309.5 195.4 309.6 195.5 309.8 195.5C310 195.5 310.1 195.3 310.2 195.2C310.5 194.6 310.6 193.9 310.3 193.2C310.1 192.6 309.7 192 309.2 191.5C309 191.3 308.7 191.1 308.4 191.1C308.1 191.1 307.8 191.3 307.6 191.5C307.3 191.8 307 192.1 306.7 192.4C306.6 192.6 306.4 192.7 306.5 192.9C306.5 193.1 306.7 193.2 306.8 193.3C307.3 193.7 308 193.9 308.4 194.3Z" fill="#E7D2B5"/>
<path d="M317.1 176.6C315.6 176.5 308.8 175.5 308.8 175.5L298.3 177.5C298.3 177.5 298.6 180.5 300.8 180.3C303 180.1 305.3 180.1 305.3 180.1L309 180.7C309 180.7 303.6 184 303.6 184.7C303.5 185.4 303.9 186.2 303.9 186.2C303.9 186.2 303 188 303.6 190V194.9L308.4 198.5C308.4 198.5 309.2 197.3 308.9 195.9C308.6 194.5 306.8 193.6 306.8 193.6L308 191.6L309.8 191.1C309.8 191.1 321 194.8 323.6 194.7L325.8 196.8L334.3 186.4C334.2 186.3 318.6 176.7 317.1 176.6Z" fill="#F0DFC8"/>
<path d="M309.8 186.6C309.8 186.7 308.4 187.3 306.7 188.2C305 189.1 303.8 190.1 303.7 190C303.6 189.9 304.7 188.8 306.5 187.8C308.2 186.8 309.7 186.4 309.8 186.6Z" fill="#E7D2B5"/>
<path d="M310.8 182.8C310.8 182.9 309.3 183.6 307.4 184.5C305.6 185.5 304.1 186.4 304.1 186.3C304 186.2 305.3 185.1 307.2 184.1C309.1 183.1 310.8 182.7 310.8 182.8Z" fill="#E7D2B5"/>
<path d="M314.6 177.4C314.6 177.5 313.4 178.3 311.8 179.3C310.2 180.3 308.8 181 308.8 180.8C308.7 180.7 310 179.9 311.6 178.8C313.1 177.9 314.5 177.3 314.6 177.4Z" fill="#E7D2B5"/>
<path d="M442.6 189L430.6 248.5C430.6 248.5 439.8 272.1 438.4 283.1C437.6 289.4 433.7 303.3 433.7 303.3L373.2 283C370.4 282 368.8 279.1 369.2 276.2C371.8 260.4 379.9 212.5 383.1 201.7C388.5 183.5 405.3 162.3 405.3 162.3L405.6 156.1L436.2 156.5L436 162.8C436 162.8 446 174.1 442.6 189Z" fill="#748388"/>
<path d="M421.2 168.7C424.9 167.7 425.4 169.1 431.3 171.7C437.2 174.4 438.3 188.6 438.3 188.6L430 203.1L386.3 228.3C386.3 228.3 377.4 234.6 363.5 225.1C358.4 221.6 323.8 198.7 323.8 198.7L333.9 183.5L374.8 201.9L421.2 168.7Z" fill="#748388"/>
<g opacity="0.3">
<path d="M400.1 220.4C412.4 212.4 424.3 204.7 436.5 196.7C437 196.4 437.4 196.1 438 196.1C439 196.1 439.8 197.2 439.8 198.2C439.8 199.2 439.2 200.1 438.5 200.9C435.1 205 430.1 207.3 425.2 209.5C416.9 213.2 405.1 218.6 396.8 222.4L400.1 220.4Z" fill="black"/>
</g>
<path d="M415.1 173.3C415.1 173.3 415 173.4 414.9 173.5C414.7 173.6 414.6 173.8 414.3 173.9C413.8 174.3 413 174.8 412.1 175.5C410.1 176.9 407.3 178.9 403.9 181.4C396.9 186.4 387.4 193.2 376.8 200.7C376.2 201.1 375.6 201.5 375 201.9L374.9 202L374.8 201.9C363.4 196.8 353.2 192.2 345.7 188.9C342 187.2 339.1 185.9 337 184.9C336 184.4 335.2 184.1 334.6 183.8C335.2 184 336 184.4 337 184.8C339.1 185.7 342.1 187 345.8 188.6C353.3 191.9 363.5 196.4 374.9 201.5H374.6C375.2 201.1 375.8 200.7 376.4 200.3C387 192.8 396.6 186 403.6 181.1C407.1 178.7 409.9 176.7 411.9 175.3C412.9 174.6 413.6 174.1 414.2 173.8C414.4 173.6 414.6 173.5 414.8 173.4C415 173.3 415 173.3 415.1 173.3Z" fill="#222020"/>
<path d="M433.6 198.7C433.6 198.7 433.4 198.9 433 199.2C432.6 199.5 431.9 200 431.1 200.5C429.4 201.6 427 203.3 424 205.3C418 209.3 409.6 214.7 400.2 220.4C395.5 223.3 391 226 386.8 228.2C386.3 228.5 385.7 228.7 385.2 229C384.9 229.1 384.7 229.2 384.4 229.4C384.1 229.5 383.9 229.6 383.6 229.7C382.5 230.1 381.4 230.3 380.4 230.4C378.3 230.7 376.3 230.5 374.5 230.1C372.7 229.7 371.2 229.2 369.8 228.6C369.1 228.3 368.5 228 368 227.7C367.5 227.4 367 227.1 366.5 226.9C365.6 226.4 365 225.9 364.6 225.6C364.2 225.3 364 225.1 364 225.1C364 225.1 364.3 225.2 364.7 225.5C365.1 225.8 365.8 226.2 366.7 226.7C367.1 226.9 367.6 227.2 368.2 227.5C368.8 227.7 369.3 228.1 370 228.3C371.3 228.9 372.9 229.4 374.6 229.7C378.1 230.4 382.6 230.2 386.7 227.8C390.9 225.6 395.4 222.8 400.1 220C409.5 214.2 417.9 208.9 423.9 205C426.9 203.1 429.3 201.5 431.1 200.4C431.9 199.9 432.6 199.5 433.1 199.1C433.3 198.8 433.6 198.7 433.6 198.7Z" fill="#222020"/>
<path d="M437.8 171.1C437.7 171.2 436.9 170.4 435.2 169.5C433.5 168.6 431 167.7 428.2 167.7C425.3 167.7 422.8 168.5 421.1 169.3C419.4 170.1 418.5 170.9 418.4 170.8C418.4 170.8 418.6 170.6 419 170.2C419.4 169.9 420 169.4 420.9 168.9C422.6 168 425.2 167 428.2 167.1C431.2 167.1 433.8 168.1 435.4 169.1C436.2 169.6 436.9 170.1 437.3 170.4C437.6 170.9 437.8 171.1 437.8 171.1Z" fill="#222020"/>
<path d="M435.4 162.7C435.4 162.7 435 162.9 434.3 163C433.6 163.2 432.5 163.4 431.1 163.6C428.4 164 424.6 164.4 420.5 164.4C416.3 164.3 412.6 163.9 409.9 163.4C408.6 163.1 407.5 162.9 406.7 162.7C406 162.5 405.6 162.4 405.6 162.3C405.6 162.3 406 162.3 406.8 162.5C407.5 162.6 408.6 162.8 410 163C412.7 163.4 416.4 163.8 420.6 163.9C424.7 163.9 428.5 163.6 431.2 163.3C432.5 163.1 433.6 163 434.4 162.8C434.9 162.7 435.4 162.6 435.4 162.7Z" fill="#222020"/>
<path d="M420.3 229C420.4 229 420.9 230.1 421.8 232C422.7 233.8 423.9 236.4 425.3 239.1C426.7 241.8 428.1 244.3 429.1 246.1C430.1 247.9 430.7 249 430.7 249C430.6 249 429.9 248 428.8 246.3C427.7 244.6 426.3 242.2 424.9 239.4C423.5 236.6 422.3 234.1 421.5 232.2C420.7 230.2 420.2 229 420.3 229Z" fill="#222020"/>
<path d="M380.9 285.6C380.8 285.5 382.2 283.8 382.9 281.2C383.6 278.6 383.1 276.4 383.3 276.4C383.4 276.3 384.1 278.6 383.4 281.4C382.7 284.1 380.9 285.7 380.9 285.6Z" fill="#222020"/>
<path d="M399.1 281.3C399.2 281.3 399.3 281.9 399.4 282.8C399.4 283.8 399.3 285.1 398.8 286.5C398.3 287.9 397.4 289 396.8 289.6C396.1 290.3 395.6 290.6 395.5 290.5C395.4 290.4 397.3 288.9 398.3 286.2C399.4 283.7 399 281.3 399.1 281.3Z" fill="#222020"/>
<path d="M417.1 285.8C417.2 285.8 417.6 288.5 416.6 291.6C415.6 294.7 413.7 296.7 413.6 296.6C413.5 296.5 415.1 294.5 416.1 291.4C417.1 288.4 417 285.8 417.1 285.8Z" fill="#222020"/>
<path d="M429.5 289.4C429.6 289.4 429.8 290.1 429.9 291.2C430 292.4 430 294 429.7 295.7C429.4 297.4 428.8 299 428.2 300C427.7 301 427.2 301.6 427.2 301.6C427.1 301.5 428.6 299.1 429.2 295.7C429.8 292.2 429.3 289.4 429.5 289.4Z" fill="#222020"/>
<path d="M447.5 478.2C447.5 478.3 359.1 478.5 250 478.5C140.9 478.5 52.4 478.4 52.4 478.2C52.4 478.1 140.8 477.9 250 477.9C359.1 477.9 447.5 478 447.5 478.2Z" fill="#263238"/>
</svg>
