<svg xmlns="http://www.w3.org/2000/svg" width="409" height="302" viewBox="0 0 409 302">
    <g fill="none" transform="translate(1 1)">
        <circle cx="263.465" cy="143.462" r="143.462" fill="#F2F2F2" stroke="#979797" stroke-width=".5"/>
        <path fill="#D2DADD" stroke="#979797" stroke-width=".5" d="M395.773 277.272c0 7.322-78.523 22.728-175.385 22.728S45.004 284.594 45.004 277.272c0-7.322 78.522-3.788 175.384-3.788 96.862 0 175.385-3.534 175.385 3.788z"/>
        <path fill="#9BA7AB" d="M349.692 274.833s4.836-.148 6.293-1.186c1.457-1.038 7.438-2.277 7.8-.613.361 1.665 7.267 8.278 1.807 8.322-5.459.044-12.685-.85-14.139-1.737-1.455-.886-1.76-4.786-1.76-4.786z"/>
        <path fill="#000" d="M365.69 280.776c-5.46.044-12.685-.85-14.14-1.736-1.107-.675-1.549-3.096-1.696-4.213-.103.005-.162.006-.162.006s.306 3.9 1.761 4.786c1.454.886 8.68 1.78 14.14 1.737 1.575-.013 2.12-.574 2.09-1.404-.22.502-.82.815-1.993.824z" opacity=".2"/>
        <path fill="#EEDBC2" stroke="#D2BFA7" stroke-width=".5" d="M265.248 90.506s4.92 10.332 2.952 15.252 7.38 10.333 7.38 10.333l12.3-6.888v-8.857l-1.968-3.936s-7.872-4.428-6.888-11.316c.984-6.888-13.776 5.412-13.776 5.412zM255.9 133.803s-.984 10.824-.984 12.3c0 1.477-1.476 6.397-1.476 6.397s-5.413 25.092-8.857 27.552c-3.444 2.46-5.412 17.713 0 16.729 5.413-.984 6.889-14.269 6.889-14.269l11.202-21.152 1.59-25.589-8.364-1.968z"/>
        <path fill="#E09285" stroke="#B77064" stroke-width=".5" d="M259.954 112.882h-3.874s-3.873 22.945 0 23.901c3.874.956 11.136.956 11.136.956l-7.262-24.857z"/>
        <path fill="#EEDBC2" d="M281.976 264.187L283.944 273.535 287.88 270.583 285.912 262.218 281.976 263.694z"/>
        <path fill="#D2DADD" stroke="#979797" stroke-width=".5" d="M264.264 164.308l-2.952 1.968s-1.476 17.22 1.968 30.505c3.444 13.284 5.904 29.028 5.904 29.028s5.904 39.361 7.38 40.345c1.476.984 10.824 1.477 11.316-.492.492-1.968-3.444-38.869-3.444-38.869s-2.952-30.996-.492-34.932c0 0 7.873 33.948 10.333 37.393 0 0 3.444 37.392 5.412 38.377 1.968.984 11.316 1.476 11.808-.492.492-1.969-2.952-44.282-4.428-47.726-1.476-3.444-1.968-54.613-5.412-54.121-3.444.492-37.393-.984-37.393-.984z"/>
        <circle cx="270.168" cy="83.618" r="11.316" fill="#EEDBC2" stroke="#D2BFA7" stroke-width=".5"/>
        <path fill="#E09285" stroke="#B77064" stroke-width=".5" d="M274.596 108.71l-2.46-4.428s-2.952-3.936-4.428-2.952-1.476 4.428-1.476 4.428-11.316 3.937-10.332 9.349c.984 5.412 7.38 14.76 7.38 14.76s.984 7.872 0 9.84-2.952 3.444-1.476 5.412c1.476 1.969 1.968 2.46 1.476 4.92s-1.476 3.445-.492 4.429c.984.984-.492 11.316-1.476 11.808-.984.492 31.489 5.412 33.949 3.936 2.46-1.476 9.348-1.476 8.856-2.952-.492-1.476-2.46-10.332-2.46-11.808 0-1.476 0-7.872-.492-8.364-.492-.492.492-7.873.492-7.873l-2.46-20.664 7.872-12.3s-1.968-6.889-11.316-7.873c-9.349-.984-11.935-3.444-11.935-3.444s-.858 4.428-2.826 5.412-6.396 8.365-6.396 8.365z"/>
        <path fill="#EEDBC2" stroke="#D2BFA7" stroke-width=".5" d="M310.513 121.995l2.952 22.14-6.396 31.981s-2.46 18.205-7.38 17.713c-4.92-.492 0-19.68 0-19.68l3.936-30.014s-6.396-15.252-4.92-17.22c1.476-1.968 11.808-4.92 11.808-4.92z"/>
        <path fill="#9BA7AB" stroke="#979797" stroke-width=".5" d="M286.474 269.316s-6.397-3.444-7.873-2.952-2.952 7.38-2.952 7.38-11.316 8.364-3.936 10.332c7.38 1.968 10.332-2.46 10.332-2.46s7.38-3.936 7.38-4.92-.983-7.38-.983-7.38h-1.968zM301.165 266.646s-2.952 16.237-.984 17.22c1.968.985 10.332 2.461 11.316 0 .984-2.46.984-8.363.492-10.331s-1.968-6.889-1.968-6.889h-8.856zM268.194 65.719c-.44-.132-.908-.147-1.355-.041-.565.184-.936.706-1.367 1.115-1.128 1.071-2.74 1.406-4.211 1.914-1.47.508-3.018 1.406-3.386 2.917-.09.609-.143 1.222-.16 1.836-.22 1.784-1.58 3.39-1.337 5.17.159 1.163.988 2.15 1.158 3.31.19 1.296-.464 2.644-.1 3.9.358 1.232 1.568 1.983 2.683 2.617.478-3.034 1.052-6.051 1.722-9.051.076-.542.287-1.056.614-1.496.989-1.12 2.93-.482 4.213-1.248.488-.29.85-.77 1.362-1.015 1.483-.71 3.088.861 4.731.876.726.006 1.521-.282 2.134.107.27.197.486.462.624.767.586 1.1.908 2.335 1.591 3.377.683 1.041 1.907 1.891 3.118 1.6-.185-.94.55-1.785.845-2.696.507-1.567-.322-3.268-.122-4.903.187-1.535 1.187-3.337.09-4.427-.375-.317-.82-.54-1.298-.652-3.883-1.232-7.47-3.297-11.549-3.977z"/>
        <path fill="#E09285" stroke="#B77064" stroke-width=".5" d="M302.149 104.282l4.92 1.969s6.396 20.664 4.92 20.664-14.76 3.444-14.76 1.968.984-24.6 4.92-24.6z"/>
        <path fill="#9BA7AB" stroke="#979797" stroke-width=".5" d="M224.234 196.923L71.927 196.923 71.927 246.923 77.696 246.923 77.696 260 90.773 246.923 224.234 246.923zM98.85 130L251.157 130 251.157 180 245.388 180 245.388 193.077 232.311 180 98.85 180z"/>
        <path fill="#FFF" d="M112.696 137.5H229.619V142.115H112.696zM112.696 146.346H171.15800000000002V150.961H112.696z"/>
        <circle cx="119.234" cy="164.423" r="6.538" fill="#FFF"/>
        <path fill="#FFF" d="M89.619 205.192H206.542V209.80700000000002H89.619zM89.619 214.039H148.08100000000002V218.654H89.619z" opacity=".3"/>
        <circle cx="96.157" cy="232.116" r="6.538" fill="#FFF" opacity=".3"/>
        <path fill="#E09285" d="M30.94 83.147L39.397 83.147 39.397 94.021 30.94 94.021z" transform="scale(-1 1) rotate(-2.221 0 1903.085)"/>
        <path fill="#EEDBC2" stroke="#D2BFA7" stroke-width=".5" d="M69.275 121.04s11.703-5.591 11.516-.762c-.187 4.829-11.797 8.006-11.797 8.006l.281-7.244z"/>
        <path fill="#D2DADD" stroke="#979797" stroke-width=".5" d="M62.854 161.9s5.522 13.514 7.562 23.265c2.04 9.752 5.146 23.172 1.15 32.69-3.996 9.518-15.358 37.49-15.475 40.508-.117 3.019.973 6.084-1.441 5.99-2.415-.094-15.554-4.23-16.088-6.065-.533-1.834 4.483-6.476 4.483-6.476l12.387-38.814-12.924-25.288-9.322 37.725-1.825 47.083s-8.961-2.766-10.262-.398c0 0-4.015-5.597-4.525-8.034-.51-2.438 1.896-48.894 1.896-48.894s-8.225-52.914-1.585-52.657c6.64.258 32.648-15.66 45.97-.635z"/>
        <path fill="#9BA7AB" stroke="#979797" stroke-width=".5" d="M54.743 261.938s6.125 13.538 6.705 14.165c.58.627 4.572 6.827 1.554 6.71-3.018-.117-10.145-3.416-15.39-8.456-5.246-5.04-12.161-13.771-11.534-14.351.627-.58 4.922-2.228 4.922-2.228l13.743 4.16zM30.27 269.453s.37 6.06 1.484 8.52c1.113 2.462.973 6.084-2.045 5.967-3.019-.117-10.819-1.629-10.819-1.629s-.463-3.645.164-4.225c.627-.58 3.299-7.127 2.162-8.984-1.137-1.858 9.054.35 9.054.35z"/>
        <path fill="#EEDBC2" stroke="#D2BFA7" stroke-width=".5" d="M25.805 72.805s-6.434 10.028-8.942 12.349c-2.508 2.32 4.548 7.43 4.548 7.43l12.63 1.7s-.16-11.493.491-12.677c.65-1.184-8.727-8.802-8.727-8.802z"/>
        <path fill="#FFF" d="M36.783 85.926s-2.602 4.736-5.017 4.642c-2.414-.094-14.903-5.414-15.437-7.248-.533-1.835-4.136 13.139-4.136 13.139l30.56 53.78 7.453-5.152-3.611-31.576-2.967-17.042-6.845-10.543z"/>
        <path fill="#E09285" stroke="#B77064" stroke-width=".5" d="M15.202 134.057c1.22 2.55 1.98 5.21 1.875 7.932-.005.12-.01.241-.02.362-.29 5.586-2.347 12.048-3.086 16.746-.535 3.371-.383 5.831 1.59 6.41 4.782 1.394-.698 2.39 17.804 8.55 18.502 6.157 21.73.842 21.778-.365.046-1.208-2.62-10.38-1.994-10.96.627-.58 8.774 7.595 11.235 6.482 2.462-1.114.281-7.244.281-7.244s-5.545-12.91-5.428-15.928c.118-3.018-8.399-17.253-8.399-17.253l-5.792-37.706s-2.227-4.923-5.222-5.643c-2.995-.72-5.48.996-5.48.996l5.012 11.076 5.287 19.55-.884 7.22s-6.149-12.933-10.187-17.926c-4.038-4.993-12.648-16.813-12.648-16.813s-2.01-6.782-.492-8.809c1.517-2.033-6.33-2.337-9.676 5.997-1.773 4.417-4.652 11.003-6.456 17.136-1.607 5.433-2.366 10.512-.774 13.415 2.434 4.435 8.555 10.264 11.676 16.775z"/>
        <path fill="#000" d="M3.526 117.282c2.434 4.435 8.555 10.264 11.676 16.775.815-2.937 1.81-5.975 1.81-5.975s3.814-20.407-7.468-25.68c-1.87-.181-3.739.341-5.244 1.465-1.607 5.433-2.366 10.512-.774 13.415z" opacity=".1"/>
        <path fill="#E09285" d="M48.312 115.996l9.564 2.789 13.28.515 1.366 11.539-21.824 1.572s-5.451-15.325-2.386-16.415z"/>
        <path fill="#EEDBC2" stroke="#D2BFA7" stroke-width=".5" d="M32.716 154.794s12.795 2.123 9.875 5.973c-2.92 3.85-14.256-.197-14.256-.197l4.38-5.776z"/>
        <path fill="#000" d="M17.057 142.35c-.29 5.587-2.347 12.049-3.086 16.747 4.076 3.858 7.953 7.261 9.413 7.318 3.018.117 7.87-.3 9.658.374 1.788.674 2.836-10.772 2.836-10.772s-1.067-3.668-5.825-5.666c-3.212-1.352-9.37-5.019-12.996-8z" opacity=".1"/>
        <path fill="#E09285" stroke="#B77064" stroke-width=".5" d="M9.685 98.78S-.53 97.175.022 114.123c.551 16.949-1.077 27.767 3.031 30.949 4.109 3.182 17.454 17.604 20.472 17.72 3.018.118 7.87-.298 9.658.375 1.787.674 2.836-10.771 2.836-10.771s-1.067-3.669-5.826-5.667c-4.759-1.998-15.97-9.083-15.877-11.497.094-2.415 2.836-10.772 2.836-10.772s3.814-20.406-7.467-25.68z"/>
        <circle cx="34.813" cy="74.364" r="13.29" fill="#EEDBC2" stroke="#D2BFA7" stroke-width=".5" transform="matrix(-1 0 0 1 69.626 0)"/>
        <path fill="#9BA7AB" stroke="#979797" stroke-width=".5" d="M43.761 55.316c.32.276.705.468 1.118.56.431.077.844-.209.924-.64.304.63.647 1.303 1.268 1.626.62.324 1.58.053 1.67-.642.09.528.324 1.02.674 1.424.385.367 1.084.46 1.42.047-.272 1.486-.104 3.014-.19 4.522-.085 1.508-.487 3.107-1.626 4.098-1.662 1.446-4.16 1.09-6.346.815-.33-.069-.673-.05-.994.055-.819.349-.781 1.488-.793 2.377-.137 3.223-2.583 5.875-5.784 6.273-.867.134-1.752-.082-2.46-.6-.621-.527-.938-1.384-1.65-1.779-1.156-.643-2.559.295-3.404 1.312-.846 1.018-1.68 2.27-2.99 2.456-1.732.247-3.052-1.519-3.7-3.145-1.804-4.604-1.673-9.741.365-14.247 3.618-7.886 15.976-9.134 22.498-4.512zM224.234 62.308L71.927 62.308 71.927 112.308 77.696 112.308 77.696 125.385 90.773 112.308 224.234 112.308z"/>
        <path fill="#FFF" d="M89.619 70.577H206.542V75.192H89.619zM89.619 79.423H148.08100000000002V84.038H89.619z" opacity=".3"/>
        <circle cx="96.157" cy="97.5" r="6.538" fill="#FFF" opacity=".3"/>
        <path fill="#D2DADD" stroke="#979797" stroke-width=".5" d="M322.768 230.543c0 24.31 15.25 43.98 34.097 43.98"/>
        <path fill="#F8DEDC" d="M335.122 232.747c0 23.091 9.725 41.776 21.743 41.776"/>
        <path fill="#D2DADD" stroke="#979797" stroke-width=".5" d="M356.865 274.523c0-31.41 19.671-56.828 43.98-56.828"/>
        <path fill="#F8DEDC" d="M356.865 274.523c0-24.582 17.019-44.474 38.05-44.474"/>
    </g>
</svg>
