<svg xmlns="http://www.w3.org/2000/svg" width="499" height="287" viewBox="0 0 499 287">
    <g fill="none" fill-rule="nonzero">
        <path fill="#F2F2F2" d="M350.163 150.142l-31.77 15.036 28.118-21.025a158.667 158.667 0 0 0-15.352-20.202l-137.782 34.246 124.456-47.475a158.644 158.644 0 0 0-18.073-13.775L89.814 130.763a157.342 157.342 0 0 0-34.46 98.192H371.38a157.258 157.258 0 0 0-21.217-78.813zM282.577 87.184c-65.41-31.813-144.085-14.901-190.643 40.98 49.634-10.875 136.05-29.7 190.643-40.98z"/>
        <path fill="#9BA7AB" d="M253.933 90.236c-5.409 16.013-13.702 30.603-30.603 30.603-16.902 0-29.651-13.728-30.604-30.603-1.217-21.563 13.312-30.693 30.604-30.604 20.427.106 37.021 11.6 30.603 30.604z"/>
        <path fill="#9BA7AB" d="M198.081 86.165h50.057v72.95h-50.057z"/>
        <path fill="#EAD3B1" d="M215.643 128.05s1.6 22.95-2.135 26.685c-3.736 3.736 33.089 6.938 32.555 2.669-.533-4.27-7.471-32.022-5.337-37.893 2.135-5.87-25.083 8.54-25.083 8.54z"/>
        <path fill="#D18375" d="M180.423 186.76l-19.176 64.843-.769 2.612H128.21c12.84-39.744 44.581-98.354 44.581-98.354l4.956-1.123 2.676 32.022z"/>
        <circle cx="222.047" cy="112.04" r="24.016" fill="#F2DBBC"/>
        <path fill="#FFF" d="M247.664 150.466s-8.539 8.005-18.145 6.404c-9.607-1.601-13.64-13.283-13.64-13.283l-9.31 6.879s-2.668 19.213 9.607 21.348c12.275 2.134 29.887 2.668 33.623 0 3.736-2.669-2.135-21.348-2.135-21.348z"/>
        <path fill="#E29283" d="M277.02 178.746l-1.532 4.977-21.622 70.492h-93.055c.198-.86.344-1.733.436-2.612 1.204-10.034.494-35.348.494-37.09 0-2.138 9.067-54.97 11.211-58.71.333-.453.77-.818 1.274-1.065 2.489-1.43 7.992-3.031 13.926-4.445.005-.005.005-.005.01-.005a254.042 254.042 0 0 1 9.916-2.177h.006c3.08-.618 5.842-1.123 7.863-1.456a32.19 32.19 0 0 1 3.294-.457c.495 0 .855.586 1.097 1.483.811 2.924.5 9.185.5 9.185.72.829 1.524 1.581 2.397 2.247a30.448 30.448 0 0 0 6.696 3.993c2.053.9 4.178 1.625 6.353 2.166h.005c2.286.58 4.613.984 6.96 1.21a21.48 21.48 0 0 0 5.751-.113h.01c5.66-.936 7.735-4.45 8.702-7.256.172-.51.306-1 .425-1.446 0-.005.005-.016.005-.021.355-1.37.505-2.333.882-2.317h.005c.973.092 13.243 10.61 21.213 17.516 3.784 3.273 6.595 5.745 6.767 5.896l.01.005z"/>
        <path fill="#000" d="M275.488 183.723l-21.622 70.492H245.1a5.768 5.768 0 0 0 .962-3.945c-.28-1.967 5.81-22.008 11.674-40.658 5.331-16.946 10.475-32.725 10.475-32.725l5.068 2.397s.908 1.714 2.209 4.439z" opacity=".1"/>
        <path fill="#E29283" d="M290.897 247.594c-1.054.263-.941 3.391-1 6.621H248.48a6.105 6.105 0 0 0 1.322-4.482c-.274-1.886 3.81-21.337 7.933-40.12 3.24-14.856 6.508-29.297 7.642-34.323l.43-1.87.49.231.01.005 10.7 5.085.011.005s16.543 31.495 11.212 38.966c-5.343 7.47-5.343 7.47-3.209 11.21 2.134 3.73 8.003 18.14 5.875 18.672z"/>
        <circle cx="223.33" cy="53.995" r="12.08" fill="#9AA6AA"/>
        <path fill="#9BA7AB" d="M208.833 47.552a12.08 12.08 0 0 1 10.872-12.02c-.397-.039-.8-.06-1.208-.06-6.671 0-12.08 5.408-12.08 12.08s5.409 12.08 12.08 12.08c.408 0 .811-.021 1.208-.06a12.08 12.08 0 0 1-10.872-12.02zM214.444 81.78s-.253-1.403-10.118 2.296c-9.865 3.7-15.779 31-10.846 47.031 1.988 6.46.37 11.119-2.269 14.378-9.904 12.23-6.005 30.6 8.421 36.889.407.177.823.353 1.247.526l6.166 3.7s-7.86-10.342-3.927-23.572a67.83 67.83 0 0 0 1.224-34.724 124.844 124.844 0 0 0-1.546-5.973c-4.933-17.264-2.534-15.27 14.73-32.535 0 0 9.866 7.4 18.498 11.099 8.632 3.7 16.031 7.399 9.865 19.73-6.165 12.332-20.963 23.43-11.098 39.462 9.865 16.031 11.098 9.865 9.865 16.031l-1.233 6.166 7.399-7.4-4.933 9.866s16.032 0 20.964-12.332l2.467 2.467s9.865-17.264-8.633-33.296c0 0-6.165-3.7 2.467-16.03 8.632-12.332 2.002-38.846-9.096-43.778-11.099-4.933-39.614 0-39.614 0z"/>
        <path fill="#FFF" d="M222.047 159.44L201.5 195.03h4.803v4.803l23.352-40.393z"/>
        <path fill="#F2F2F2" d="M406.852 230.567h83.305v32.785h-83.305zM417.332 272.489h62.345v5.375h-62.345zM417.332 282.163h62.345v4.3h-62.345z"/>
        <circle cx="8.599" cy="6.449" r="2.15" fill="#9AA6AA"/>
        <circle cx="14.511" cy="6.449" r="2.15" fill="#9AA6AA"/>
        <circle cx="20.423" cy="6.449" r="2.15" fill="#9AA6AA"/>
        <path fill="#9AA6AA" d="M498.22 287H0V0h498.22v287zM1.074 285.925h496.07V1.075H1.074v284.85z"/>
        <path fill="#9AA6AA" d="M.537 10.796h497.144v1.075H.537z"/>
        <path fill="#9BA7AB" d="M6.449 19.886h16.124v1.075H6.449zM6.449 24.185h16.124v1.075H6.449zM6.449 28.485h16.124v1.075H6.449zM343.433 29.56H143.5v-9.674h199.933v9.674zm-198.858-1.075h197.783v-7.524H144.575v7.524z"/>
        <path fill="#9BA7AB" d="M335.37 26.066a2.15 2.15 0 1 1 0-4.3 2.15 2.15 0 0 1 0 4.3zm0-3.224a1.075 1.075 0 1 0 0 2.15 1.075 1.075 0 0 0 0-2.15z"/>
        <path fill="#9AA6AA" d="M336.103 25.473l.749-.772 2.118 2.055-.749.771z"/>
        <path fill="#9BA7AB" d="M463.822 29.56h-10.749v-9.674h10.75v9.674zm-9.674-1.075h8.6v-7.524h-8.6v7.524zM477.258 29.56H466.51v-9.674h10.75v9.674zm-9.674-1.075h8.6v-7.524h-8.6v7.524zM490.695 29.56h-10.75v-9.674h10.75v9.674zm-9.674-1.075h8.599v-7.524h-8.6v7.524z"/>
        <path fill="#DD8F80" d="M357.406 260.665h9.674v8.599h-9.674z"/>
        <path fill="#F2F2F2" d="M370.843 260.665h9.674v8.599h-9.674zM384.279 260.665h9.674v8.599h-9.674z"/>
        <path fill="#9AA6AA" d="M393.416 254.753H26.873V46.22h366.543v208.532zm-365.468-1.075H392.34V47.296H27.948v206.382z"/>
        <path fill="#D2DADD" d="M82.56 235.607v5.05l-8.388-5.12a.294.294 0 0 0-.443.253v11.066a.294.294 0 0 0 .443.253l8.388-5.119v5.05c0 .08.066.146.147.146h2.601c.081 0 .147-.066.147-.146v-11.433a.147.147 0 0 0-.147-.147h-2.601a.147.147 0 0 0-.147.147zM60.191 247.186h-2.338a.295.295 0 0 1-.297-.293v-11.14a.295.295 0 0 1 .297-.293h2.338a.295.295 0 0 1 .297.293v11.14a.295.295 0 0 1-.297.293zm6.45 0h-2.338a.295.295 0 0 1-.297-.293v-11.14a.295.295 0 0 1 .297-.293h2.338a.295.295 0 0 1 .296.293v11.14a.295.295 0 0 1-.296.293z"/>
        <path fill="#DE8F80" d="M42.459 235.764v11.118a.286.286 0 0 0 .429.264l8.813-5.56a.315.315 0 0 0 0-.523l-8.813-5.56a.284.284 0 0 0-.43.261z"/>
        <path fill="#D1D9DC" d="M44.34 227.88h331.609v2.15H44.34z"/>
        <path fill="#E29283" d="M44.34 227.88h57.776v2.15H44.34z"/>
        <path fill="#F2F2F2" d="M27.41 261.74h152.099v5.912H27.41zM27.41 275.176h33.322v5.912H27.41zM406.852 57.507h83.305v32.785h-83.305zM417.332 99.429h62.345v5.375h-62.345zM417.332 109.103h62.345v5.375h-62.345zM417.332 118.777h62.345v5.375h-62.345zM406.852 144.037h83.305v32.785h-83.305zM417.332 185.959h62.345v5.375h-62.345zM417.332 195.633h62.345v5.375h-62.345zM417.332 205.307h62.345v5.375h-62.345z"/>
    </g>
</svg>
