<svg xmlns="http://www.w3.org/2000/svg" width="381" height="264" viewBox="0 0 381 264">
    <g fill="none" fill-rule="nonzero" transform="translate(1 1)">
        <circle cx="71.5" cy="34.5" r="21.5" fill="#E09285"/>
        <path fill="#F2F2F2" stroke="#9C9696" stroke-width=".5" d="M178 116.076C178 167.163 147.555 185 110 185s-68-17.837-68-68.924C42 64.99 110 0 110 0s68 64.99 68 116.076z"/>
        <path fill="#D6DBE1" d="M106.326 177.497l.696-42.83L136 81.68l-28.869 46.268.313-19.258 19.972-38.335-19.889 33.24.563-34.637 21.386-30.52-21.297 25.073L108.53 0l-2.21 84.077.181-3.468-21.743-33.265 21.395 39.923-2.026 38.683-.06-1.027L79 89.917l24.99 38.633-.253 4.838-.045.073.02.397L98.572 232h6.868l.824-50.692 24.929-38.539z"/>
        <path fill="#F2F2F2" stroke="#9C9696" stroke-width=".5" d="M379 136.743C379 178.441 354.376 193 324 193s-55-14.56-55-56.257C269 95.046 324 42 324 42s55 53.046 55 94.743z"/>
        <path fill="#D6DBE1" d="M321.532 187.364l.574-35.076L346 108.894l-23.804 37.891.258-15.771 16.468-31.396-16.4 27.222.465-28.366 17.633-24.995-17.56 20.535.29-52.014-1.823 68.856.15-2.84-17.93-27.243 17.642 32.696-1.67 31.68-.05-.841L299 115.639l20.606 31.64-.209 3.961-.037.06.017.325L315.139 232h5.662l.68-41.515 20.555-31.562z"/>
        <ellipse cx="188" cy="230.5" fill="#D6DBE1" stroke="#9C9696" rx="188" ry="9.5"/>
        <ellipse cx="302" cy="246.5" fill="#D6DBE1" rx="32" ry="1.5"/>
        <ellipse cx="185" cy="261.5" fill="#D6DBE1" rx="32" ry="1.5"/>
        <ellipse cx="98" cy="247.5" fill="#D6DBE1" rx="73" ry="3.5"/>
        <ellipse cx="32.5" cy="191" fill="#D6DBE1" rx="26.5" ry="27"/>
        <path fill="#9C9696" d="M20.406 212.24l8.113.095-.17 14.535-8.115-.096z"/>
        <path fill="#2F2E41" d="M36.633 212.43l8.114.096-.172 14.535-8.113-.095z"/>
        <ellipse cx="26.994" cy="227.023" fill="#9C9696" rx="2.535" ry="6.762" transform="rotate(-89.325 26.994 227.023)"/>
        <ellipse cx="43.225" cy="226.876" fill="#2F2E41" rx="2.535" ry="6.762" transform="rotate(-89.325 43.225 226.876)"/>
        <circle cx="33.5" cy="185.5" r="9.5" fill="#FFF"/>
        <circle cx="33" cy="184" r="3" fill="#3F3D56"/>
        <path fill="#E09285" d="M7.36 165.645c-2.074-9.489 5.04-18.972 15.888-21.181 10.848-2.21 21.323 3.691 23.397 13.18 2.073 9.49-5.14 12.898-15.989 15.108-10.848 2.21-21.223 2.382-23.297-7.107z"/>
        <path fill="#F2F2F2" stroke="#9C9696" stroke-width=".5" d="M74 206.038C74 224.54 62.808 231 49 231a43.73 43.73 0 0 1-2.857-.096C33.68 230.038 24 223.245 24 206.038c0-17.807 23.157-40.276 24.896-41.94l.003-.002L49 164s25 23.537 25 42.038z"/>
        <path fill="#D6DBE1" d="M48.067 228.18l9.161-12.557-9.184 13.935L48.02 231a41.654 41.654 0 0 1-1.903-.085l.987-18.514-.007-.144.017-.026.093-1.749L38 196.512l9.236 12.659.021.37.746-13.987-7.882-14.436 7.978 11.98.777-29 .003-.098v.096l-.13 22.868 7.847-9.066-7.879 11.036-.207 12.524 7.327-12.02-7.358 13.863-.116 6.962L59 193.534l-10.676 19.16-.257 15.486z"/>
        <ellipse cx="240.5" cy="191" fill="#D6DBE1" rx="26.5" ry="27"/>
        <path fill="#2F2E41" d="M235.408 214.746l7.756-2.384 4.271 13.895-7.756 2.383zM250.92 209.98l7.756-2.383 4.271 13.895-7.756 2.383z"/>
        <ellipse cx="246.192" cy="226.816" fill="#2F2E41" rx="6.762" ry="2.535" transform="rotate(-17.083 246.192 226.816)"/>
        <ellipse cx="261.605" cy="221.726" fill="#2F2E41" rx="6.762" ry="2.535" transform="rotate(-17.083 261.605 221.726)"/>
        <circle cx="239.5" cy="185.5" r="9.5" fill="#FFF"/>
        <circle cx="240" cy="184" r="3" fill="#3F3D56"/>
        <path fill="#E09285" d="M209.14 175.636c-4.858-8.736-1.166-20.272 8.246-25.766 9.411-5.494 20.979-2.865 25.837 5.872 4.858 8.736-.802 14.304-10.213 19.798-9.412 5.494-19.012 8.832-23.87.096z"/>
        <path fill="#F2F2F2" stroke="#9C9696" stroke-width=".5" d="M193 202.901C193 220.022 182.927 226 170.5 226a38.276 38.276 0 0 1-2.572-.089c-11.215-.802-19.928-7.087-19.928-23.01 0-16.478 20.841-37.27 22.407-38.81l.003-.002.09-.089s22.5 21.78 22.5 38.901z"/>
        <path fill="#D6DBE1" d="M169.109 223.39l8.288-11.62-8.31 12.896-.021 1.334c-.58-.012-1.155-.04-1.722-.079l.893-17.132-.007-.133.016-.025.084-1.618-8.33-12.927 8.356 11.714.02.343.675-12.944-7.132-13.358 7.219 11.086.702-26.836.003-.091v.089l-.117 21.161 7.1-8.389-7.13 10.212-.187 11.59 6.629-11.123-6.657 12.828-.105 6.443 9.624-15.48-9.66 17.728-.231 14.331z"/>
        <path fill="#F2F2F2" stroke="#9C9696" stroke-width=".5" d="M283 210.038C283 228.54 271.808 235 258 235a43.73 43.73 0 0 1-2.857-.096C242.68 234.038 233 227.245 233 210.038c0-17.807 23.157-40.276 24.896-41.94l.003-.002L258 168s25 23.537 25 42.038z"/>
        <path fill="#D6DBE1" d="M256.067 232.18l9.161-12.557-9.184 13.935-.024 1.442a41.654 41.654 0 0 1-1.903-.085l.987-18.514-.007-.144.017-.026.093-1.749-9.207-13.97 9.236 12.659.021.37.746-13.987-7.882-14.436 7.978 11.98.777-29 .003-.098v.096l-.13 22.868 7.847-9.066-7.879 11.036-.207 12.524 7.326-12.02-7.357 13.863-.116 6.962L267 197.534l-10.676 19.16-.257 15.486z"/>
        <ellipse cx="230.515" cy="201.401" fill="#9C9696" rx="4.192" ry="13.354" transform="rotate(-64.626 230.515 201.401)"/>
        <ellipse cx="24.617" cy="199.711" fill="#9C9696" rx="4.192" ry="13.354" transform="rotate(-68.158 24.617 199.711)"/>
    </g>
</svg>
