<svg width="20" height="20" viewBox="0 0 20 20" fill="none" xmlns="http://www.w3.org/2000/svg">
<path fill-rule="evenodd" clip-rule="evenodd" d="M10 2C12.297 2 14.16 3.863 14.16 6.16C14.16 8.457 12.297 10.32 10 10.32C7.703 10.32 5.84 8.457 5.84 6.16C5.84 3.863 7.703 2 10 2ZM18 14.16H16.08V12.24H14.16V14.16H12.24V16.08H14.16V18H16.08V16.08H18V14.16ZM9.944 15.12C9.944 14.048 10.32 13.068 10.935 12.269C10.612 12.252 10.285 12.24 9.945 12.24C6.775 12.24 4.444 13.003 3.155 13.567C2.447 13.877 2 14.56 2 15.312V18H10.96C10.331 17.196 9.944 16.206 9.944 15.12Z" fill="#EE4136"/>
</svg>
