<svg width="21" height="20" viewBox="0 0 21 20" fill="none" xmlns="http://www.w3.org/2000/svg">
<path d="M14.35 9.22222C14.6114 9.22222 14.8652 9.25333 15.1189 9.29222V5.54333L9.35259 3L3.5863 5.54333V9.36222C3.5863 12.8933 6.04658 16.1989 9.35259 17C9.77545 16.8989 10.1829 16.7511 10.5827 16.5722C10.0522 15.81 9.73701 14.8844 9.73701 13.8889C9.73701 11.3144 11.8052 9.22222 14.35 9.22222Z" fill="white"/>
<path d="M14.3501 10.7773C12.651 10.7773 11.2748 12.1696 11.2748 13.8885C11.2748 15.6073 12.651 16.9996 14.3501 16.9996C16.0493 16.9996 17.4255 15.6073 17.4255 13.8885C17.4255 12.1696 16.0493 10.7773 14.3501 10.7773ZM14.3501 11.8507C14.8268 11.8507 15.2112 12.2473 15.2112 12.7218C15.2112 13.1962 14.8191 13.5929 14.3501 13.5929C13.8811 13.5929 13.489 13.1962 13.489 12.7218C13.489 12.2473 13.8735 11.8507 14.3501 11.8507ZM14.3501 16.0273C13.6351 16.0273 13.0124 15.6696 12.6279 15.1173C12.6664 14.5573 13.7889 14.2773 14.3501 14.2773C14.9114 14.2773 16.0339 14.5573 16.0723 15.1173C15.6879 15.6696 15.0652 16.0273 14.3501 16.0273Z" fill="white"/>
</svg>
