<svg xmlns="http://www.w3.org/2000/svg" width="17" height="9" viewBox="0 0 17 9">
    <path fill="#9C9696" fill-rule="evenodd" d="M4.675 9C2.09 9 0 6.983 0 4.5 0 2.016 2.09 0 4.675 0H13.6C15.478 0 17 1.464 17 3.273c0 1.808-1.522 3.273-3.4 3.273H6.375c-1.173 0-2.125-.917-2.125-2.046 0-1.13.952-2.046 2.125-2.046h6.375v1.228H6.375c-.467 0-.85.364-.85.818 0 .454.383.818.85.818H13.6c1.173 0 2.124-.916 2.124-2.045 0-1.13-.95-2.046-2.124-2.046H4.675c-1.878 0-3.4 1.465-3.4 3.273s1.522 3.273 3.4 3.273h8.075V9H4.675z"/>
</svg>
