<svg width="20" height="20" viewBox="0 0 20 20" fill="none" xmlns="http://www.w3.org/2000/svg">
<path fill-rule="evenodd" clip-rule="evenodd" d="M14.5749 13.758C14.5749 16.421 12.4149 18.575 9.75792 18.575C7.09892 18.575 4.94092 16.421 4.94092 13.758L4.94092 4.56195C4.94092 2.62695 6.50792 1.05895 8.44392 1.05895C10.3789 1.05895 11.9469 2.62695 11.9469 4.56195V12.007C11.9469 13.215 10.9669 14.196 9.75692 14.196C8.54892 14.196 7.56792 13.215 7.56792 12.007L7.56792 5.43795H8.88192V12.007C8.88192 12.487 9.27192 12.882 9.75792 12.882C10.2429 12.882 10.6339 12.488 10.6339 12.007V4.56195C10.6339 3.35295 9.65292 2.37295 8.44392 2.37295C7.23492 2.37295 6.25392 3.35295 6.25392 4.56295L6.25392 13.757C6.25392 15.692 7.82292 17.26 9.75792 17.26C11.6929 17.26 13.2609 15.692 13.2609 13.757V5.43695H14.5749V13.758Z" fill="#9C9696"/>
</svg>
