<svg width="14" height="15" viewBox="0 0 14 15" fill="none" xmlns="http://www.w3.org/2000/svg">
<path d="M1.19412 14.755C0.864706 14.755 0.583333 14.6383 0.35 14.405C0.116667 14.1717 0 13.8903 0 13.5609V1.94912C0 1.61971 0.116667 1.33834 0.35 1.105C0.583333 0.871672 0.864706 0.755005 1.19412 0.755005H12.8059C13.1353 0.755005 13.4167 0.871672 13.65 1.105C13.8833 1.33834 14 1.61971 14 1.94912V13.5609C14 13.8903 13.8833 14.1717 13.65 14.405C13.4167 14.6383 13.1353 14.755 12.8059 14.755H1.19412ZM1.19412 13.8285H12.8059C12.8745 13.8285 12.9363 13.8011 12.9912 13.7462C13.0461 13.6913 13.0735 13.6295 13.0735 13.5609V1.94912C13.0735 1.88049 13.0461 1.81873 12.9912 1.76383C12.9363 1.70893 12.8745 1.68148 12.8059 1.68148H1.19412C1.12549 1.68148 1.06373 1.70893 1.00882 1.76383C0.953921 1.81873 0.926471 1.88049 0.926471 1.94912V13.5609C0.926471 13.6295 0.953921 13.6913 1.00882 13.7462C1.06373 13.8011 1.12549 13.8285 1.19412 13.8285Z" fill="#737070"/>
<path d="M5.78516 9.4425L3.35156 7.03625L2.68359 7.69641L5.78516 10.7863L11.4336 5.14954L10.75 4.46204L5.78516 9.4425Z" fill="#737070"/>
</svg>
