<svg width="20" height="21" viewBox="0 0 20 21" fill="none" xmlns="http://www.w3.org/2000/svg">
<path fill-rule="evenodd" clip-rule="evenodd" d="M1 0.0109863C0.447715 0.0109863 0 0.458702 0 1.01099V3.95543H20V1.01099C20 0.458702 19.5523 0.0109863 19 0.0109863H1ZM20 5.45543H0V19.011C0 19.5633 0.447716 20.011 1 20.011H19C19.5523 20.011 20 19.5633 20 19.011V5.45543ZM2.77777 8.0387C2.77777 7.90063 2.8897 7.7887 3.02777 7.7887H5.86111C5.99918 7.7887 6.11111 7.90063 6.11111 8.0387V10.872C6.11111 11.0101 5.99918 11.122 5.86111 11.122H3.02777C2.8897 11.122 2.77777 11.0101 2.77777 10.872V8.0387ZM14.1389 7.7887C14.0008 7.7887 13.8889 7.90063 13.8889 8.0387V10.872C13.8889 11.0101 14.0008 11.122 14.1389 11.122H16.9722C17.1103 11.122 17.2222 11.0101 17.2222 10.872V8.0387C17.2222 7.90063 17.1103 7.7887 16.9722 7.7887H14.1389ZM8.33331 8.0387C8.33331 7.90063 8.44524 7.7887 8.58331 7.7887H11.4166C11.5547 7.7887 11.6666 7.90063 11.6666 8.0387V10.872C11.6666 11.0101 11.5547 11.122 11.4166 11.122H8.58331C8.44524 11.122 8.33331 11.0101 8.33331 10.872V8.0387ZM3.02777 12.7887C2.8897 12.7887 2.77777 12.9006 2.77777 13.0387V15.872C2.77777 16.0101 2.8897 16.122 3.02777 16.122H5.86111C5.99918 16.122 6.11111 16.0101 6.11111 15.872V13.0387C6.11111 12.9006 5.99918 12.7887 5.86111 12.7887H3.02777ZM13.8889 13.0387C13.8889 12.9006 14.0008 12.7887 14.1389 12.7887H16.9722C17.1103 12.7887 17.2222 12.9006 17.2222 13.0387V15.872C17.2222 16.0101 17.1103 16.122 16.9722 16.122H14.1389C14.0008 16.122 13.8889 16.0101 13.8889 15.872V13.0387ZM8.58331 12.7887C8.44524 12.7887 8.33331 12.9006 8.33331 13.0387V15.872C8.33331 16.0101 8.44524 16.122 8.58331 16.122H11.4166C11.5547 16.122 11.6666 16.0101 11.6666 15.872V13.0387C11.6666 12.9006 11.5547 12.7887 11.4166 12.7887H8.58331Z" fill="white"/>
<path fill-rule="evenodd" clip-rule="evenodd" d="M1.5 1.51099V2.45543H18.5V1.51099H1.5ZM1.65326 6.95543H1.5V7.18458C1.54512 7.10405 1.59642 7.02746 1.65326 6.95543ZM1.65331 11.9554C1.59645 11.8833 1.54513 11.8067 1.5 11.7262V12.1846C1.54513 12.104 1.59645 12.0274 1.65331 11.9554ZM1.5 16.7262V18.511H18.5V16.7262C18.2005 17.2607 17.6286 17.622 16.9722 17.622H14.1389C13.5892 17.622 13.0986 17.3685 12.7778 16.972C12.457 17.3685 11.9664 17.622 11.4166 17.622H8.58331C8.03357 17.622 7.54304 17.3686 7.22221 16.9721C6.90139 17.3686 6.41085 17.622 5.86111 17.622H3.02777C2.37144 17.622 1.7995 17.2607 1.5 16.7262ZM18.3467 11.9554C18.4036 12.0274 18.4549 12.104 18.5 12.1846V11.7262C18.4549 11.8067 18.4036 11.8833 18.3467 11.9554ZM18.5 7.18456V6.95543H18.3468C18.4036 7.02745 18.4549 7.10404 18.5 7.18456ZM0 1.01099C0 0.458702 0.447715 0.0109863 1 0.0109863H19C19.5523 0.0109863 20 0.458702 20 1.01099V3.95543H0V1.01099ZM20 5.45543V19.011C20 19.5633 19.5523 20.011 19 20.011H1C0.447716 20.011 0 19.5633 0 19.011V5.45543H20ZM3.02777 7.7887C2.8897 7.7887 2.77777 7.90063 2.77777 8.0387V10.872C2.77777 11.0101 2.8897 11.122 3.02777 11.122H5.86111C5.99918 11.122 6.11111 11.0101 6.11111 10.872V8.0387C6.11111 7.90063 5.99918 7.7887 5.86111 7.7887H3.02777ZM13.8889 8.0387C13.8889 7.90063 14.0008 7.7887 14.1389 7.7887H16.9722C17.1103 7.7887 17.2222 7.90063 17.2222 8.0387V10.872C17.2222 11.0101 17.1103 11.122 16.9722 11.122H14.1389C14.0008 11.122 13.8889 11.0101 13.8889 10.872V8.0387ZM8.58331 7.7887C8.44524 7.7887 8.33331 7.90063 8.33331 8.0387V10.872C8.33331 11.0101 8.44524 11.122 8.58331 11.122H11.4166C11.5547 11.122 11.6666 11.0101 11.6666 10.872V8.0387C11.6666 7.90063 11.5547 7.7887 11.4166 7.7887H8.58331ZM2.77777 13.0387C2.77777 12.9006 2.8897 12.7887 3.02777 12.7887H5.86111C5.99918 12.7887 6.11111 12.9006 6.11111 13.0387V15.872C6.11111 16.0101 5.99918 16.122 5.86111 16.122H3.02777C2.8897 16.122 2.77777 16.0101 2.77777 15.872V13.0387ZM14.1389 12.7887C14.0008 12.7887 13.8889 12.9006 13.8889 13.0387V15.872C13.8889 16.0101 14.0008 16.122 14.1389 16.122H16.9722C17.1103 16.122 17.2222 16.0101 17.2222 15.872V13.0387C17.2222 12.9006 17.1103 12.7887 16.9722 12.7887H14.1389ZM8.33331 13.0387C8.33331 12.9006 8.44524 12.7887 8.58331 12.7887H11.4166C11.5547 12.7887 11.6666 12.9006 11.6666 13.0387V15.872C11.6666 16.0101 11.5547 16.122 11.4166 16.122H8.58331C8.44524 16.122 8.33331 16.0101 8.33331 15.872V13.0387Z" fill="white"/>
</svg>
