<svg width="20" height="20" viewBox="0 0 20 20" fill="none" xmlns="http://www.w3.org/2000/svg">
<path fill-rule="evenodd" clip-rule="evenodd" d="M9.90189 8.09607C11.1919 8.09607 12.2379 9.14207 12.2379 10.4321C12.2379 11.7221 11.1919 12.7671 9.90189 12.7671C8.61189 12.7671 7.56689 11.7221 7.56689 10.4321C7.56689 9.14207 8.61189 8.09607 9.90189 8.09607Z" fill="#9C9696"/>
<path fill-rule="evenodd" clip-rule="evenodd" d="M9.902 14.08C7.888 14.08 6.252 12.446 6.252 10.431C6.252 8.41703 7.888 6.78303 9.902 6.78303C11.916 6.78303 13.552 8.41703 13.552 10.431C13.552 12.446 11.916 14.081 9.902 14.081V14.08ZM7.712 3.13403L6.377 4.59403H4.063C3.257 4.59303 2.604 5.24603 2.604 6.05303V14.811C2.604 15.617 3.257 16.27 4.064 16.27H15.741C16.547 16.27 17.2 15.617 17.2 14.81V6.05403C17.2 5.24703 16.547 4.59403 15.74 4.59403H13.427L12.091 3.13403H7.714H7.712Z" fill="#9C9696"/>
</svg>
