<svg width="30" height="24" viewBox="0 0 30 24" fill="none" xmlns="http://www.w3.org/2000/svg">
<path d="M7.60262 14.8965L6.16594 13.3227C7.44978 11.894 8.82023 10.8224 10.2773 10.1081C11.7344 9.39371 13.3086 9.03653 15 9.03653C16.6914 9.03653 18.2656 9.39371 19.7227 10.1081C21.1798 10.8224 22.5502 11.894 23.8341 13.3227L22.3974 14.8965C21.2562 13.6464 20.064 12.7311 18.821 12.1507C17.5779 11.5703 16.3042 11.2801 15 11.2801C13.6958 11.2801 12.4221 11.5703 11.179 12.1507C9.93595 12.7311 8.74381 13.6464 7.60262 14.8965ZM2.43668 9.23744L1 7.63014C2.7933 5.621 4.88719 4.0137 7.28166 2.80822C9.67613 1.60274 12.2489 1 15 1C17.7511 1 20.3239 1.60274 22.7183 2.80822C25.1128 4.0137 27.2067 5.621 29 7.63014L27.5633 9.23744C25.8312 7.4069 23.9105 5.95028 21.8013 4.86758C19.6921 3.78488 17.425 3.24353 15 3.24353C12.575 3.24353 10.3079 3.78488 8.19869 4.86758C6.08952 5.95028 4.16885 7.4069 2.43668 9.23744ZM15 23L18.821 18.8143C18.3115 18.2562 17.7358 17.8265 17.0939 17.5251C16.452 17.2237 15.754 17.0731 15 17.0731C14.246 17.0731 13.548 17.2237 12.9061 17.5251C12.2642 17.8265 11.6885 18.2562 11.179 18.8143L15 23Z" fill="#EE4136" stroke="#EE4136" stroke-width="0.75"/>
</svg>
