<svg xmlns="http://www.w3.org/2000/svg" width="40" height="27" viewBox="0 0 40 27">
    <g fill="#D6DBE1" fill-rule="evenodd">
        <ellipse cx="24.174" cy="6.378" fill-rule="nonzero" rx="6.392" ry="6.378"/>
        <path fill-rule="nonzero" d="M8.966 16.681C7.02 18 5.682 20.112 5.682 22.494v4.252H0v-4.252c0-3.09 5.046-5.246 8.966-5.813zM13.969 12.756c-3.532 0-6.393-2.854-6.393-6.378S10.436 0 13.97 0c.75 0 2.07.16 2.741.383-1.99 2.465-2.741 3.73-2.741 5.995 0 2.264 1.162 4.367 2.741 5.996-.67.223-1.99.382-2.741.382z"/>
        <path d="M24.662 15.591c5.756 0 9.989 1.502 12.33 2.612 1.285.61 2.097 1.956 2.097 3.435v5.292H9.259v-5.292c0-1.48.811-2.825 2.097-3.435 2.34-1.11 6.573-2.612 12.329-2.612.165 0 .328.002.49.005l.487-.005z"/>
    </g>
</svg>
