<?xml version="1.0" encoding="UTF-8"?>
<svg width="44px" height="44px" viewBox="0 0 44 44" version="1.1" xmlns="http://www.w3.org/2000/svg" xmlns:xlink="http://www.w3.org/1999/xlink">
    <!-- Generator: Sketch 52.2 (67145) - http://www.bohemiancoding.com/sketch -->
    <title>78px_group</title>
    <desc>Created with Sketch.</desc>
    <defs>
        <rect id="path-1" x="0" y="0" width="43.75" height="43.75" rx="6"></rect>
    </defs>
    <g id="Symbols" stroke="none" stroke-width="1" fill="none" fill-rule="evenodd">
        <g id="ic_group_50px" transform="translate(-3.000000, -3.000000)">
            <g id="78px_group" transform="translate(3.125000, 3.125000)">
                <mask id="mask-2" fill="white">
                    <use xlink:href="#path-1"></use>
                </mask>
                <use id="Mask" fill="none" xlink:href="#path-1"></use>
                <g id="ic_user_24px-copy" mask="url(#mask-2)" fill="#9C9696" fill-rule="nonzero">
                    <g transform="translate(10.416667, 16.666667)" id="Shape">
                        <path d="M4.62240308,5.20833333 C3.17902523,5.20833333 2.01388889,4.04513889 2.01388889,2.60416667 C2.01388889,1.16319444 3.17902523,0 4.62240308,0 C6.06578093,0 7.22222222,1.16319444 7.22222222,2.60416667 C7.22222222,4.04513889 6.06578093,5.20833333 4.62240308,5.20833333 Z M18.2335142,5.20833333 C16.7901363,5.20833333 15.625,4.04513889 15.625,2.60416667 C15.625,1.16319444 16.7901363,0 18.2335142,0 C19.676892,0 20.8333333,1.16319444 20.8333333,2.60416667 C20.8333333,4.04513889 19.676892,5.20833333 18.2335142,5.20833333 Z M11.4626809,5.20833333 C10.019303,5.20833333 8.85416667,4.04513889 8.85416667,2.60416667 C8.85416667,1.16319444 10.019303,0 11.4626809,0 C12.9060587,0 14.0625,1.16319444 14.0625,2.60416667 C14.0625,4.04513889 12.9060587,5.20833333 11.4626809,5.20833333 Z M11.4583333,6.54761905 C13.2381944,6.54761905 16.8055556,7.50520833 16.8055556,9.41220238 L16.8055556,11.4583333 L6.11111111,11.4583333 L6.11111111,9.41220238 C6.11111111,7.50520833 9.67847222,6.54761905 11.4583333,6.54761905 Z M17.5694444,6.54761905 C19.3493056,6.54761905 22.9166667,7.50520833 22.9166667,9.41220238 L22.9166667,11.4583333 L18.3333333,11.4583333 L18.3333333,9.41220238 C18.3333333,8.20089286 17.7145833,7.27604167 16.8284722,6.58854167 C17.0958333,6.5639881 17.3479167,6.54761905 17.5694444,6.54761905 Z M5.34722222,6.54761905 C5.56875,6.54761905 5.82083333,6.5639881 6.08819444,6.58854167 C5.20208333,7.27604167 4.58333333,8.20089286 4.58333333,9.41220238 L4.58333333,11.4583333 L0,11.4583333 L0,9.41220238 C0,7.50520833 3.56736111,6.54761905 5.34722222,6.54761905 Z"></path>
                    </g>
                </g>
            </g>
        </g>
    </g>
</svg>