<svg xmlns="http://www.w3.org/2000/svg" width="25" height="16" viewBox="0 0 25 16">
    <g fill="#9C9696" fill-rule="evenodd">
        <path fill-rule="nonzero" d="M24.487 4.754L20.922 4.754 20.922 8.32 19.733 8.32 19.733 4.754 16.167 4.754 16.167 3.566 19.733 3.566 19.733 0 20.922 0 20.922 3.566 24.487 3.566z"/>
        <circle cx="11.169" cy="5.155" r="3.175" fill-rule="nonzero"/>
        <path fill-rule="nonzero" d="M4.453 10.284c-.966.656-1.63 1.708-1.63 2.893v2.117H0v-2.117c0-1.538 2.506-2.61 4.453-2.893zM6.938 8.33c-1.754 0-3.175-1.42-3.175-3.175 0-1.754 1.42-3.174 3.175-3.174.373 0 1.029.079 1.362.19-.989 1.227-1.362 1.857-1.362 2.984S7.515 7.33 8.3 8.14c-.333.11-.989.19-1.362.19z"/>
        <path d="M11.411 9.741c2.86 0 4.961.748 6.124 1.3.639.304 1.042.974 1.042 1.71v2.635H3.76v-2.634c0-.737.404-1.407 1.042-1.71 1.163-.553 3.265-1.3 6.124-1.3.082 0 .163 0 .243.002l.242-.003z"/>
    </g>
</svg>
