<svg width="12" height="15" viewBox="0 0 12 15" fill="none" xmlns="http://www.w3.org/2000/svg">
<g clip-path="url(#clip0_714_434)">
<path d="M2.8125 12.1875H8.4375V10.7812H2.8125V12.1875ZM2.8125 9.375H8.4375V7.96875H2.8125V9.375ZM1.40625 15C1.01563 15 0.68375 14.8631 0.410625 14.5894C0.136875 14.3163 0 13.9844 0 13.5938V1.40625C0 1.01563 0.136875 0.68375 0.410625 0.410625C0.68375 0.136875 1.01563 0 1.40625 0H7.5L11.25 3.75V13.5938C11.25 13.9844 11.1131 14.3163 10.8394 14.5894C10.5663 14.8631 10.2344 15 9.84375 15H1.40625ZM6.5625 4.6875V1.40625H1.40625V13.5938H9.84375V4.6875H6.5625Z" fill="#9C9696"/>
</g>
<defs>
<clipPath id="clip0_714_434">
<rect width="12" height="15" fill="white"/>
</clipPath>
</defs>
</svg>
