<svg width="17" height="17" viewBox="0 0 17 17" fill="none" xmlns="http://www.w3.org/2000/svg">
<mask id="mask0_43_5" style="mask-type:alpha" maskUnits="userSpaceOnUse" x="0" y="0" width="17" height="17">
<path fill-rule="evenodd" clip-rule="evenodd" d="M0 0H17V16.5216H0V0Z" fill="white"/>
</mask>
<g mask="url(#mask0_43_5)">
<path fill-rule="evenodd" clip-rule="evenodd" d="M16.9999 8.31085C16.9999 3.72048 13.1941 -0.000747681 8.49937 -0.000747681C3.80467 -0.000747681 -0.00112915 3.72048 -0.00112915 8.31085C-0.00112915 12.4594 3.10738 15.8979 7.17117 16.5215V10.7134H5.01284V8.31085H7.17117V6.4797C7.17117 4.39661 8.44023 3.24597 10.3819 3.24597C11.312 3.24597 12.2847 3.40831 12.2847 3.40831V5.45374H11.2129C10.1569 5.45374 9.82757 6.09443 9.82757 6.75173V8.31085H12.1851L11.8083 10.7134H9.82757V16.5215C13.8914 15.8979 16.9999 12.4594 16.9999 8.31085" fill="#1877F2"/>
</g>
<path fill-rule="evenodd" clip-rule="evenodd" d="M11.8084 10.7135L12.1853 8.31094H9.8277V6.75182C9.8277 6.09452 10.157 5.45383 11.213 5.45383H12.2849V3.4084C12.2849 3.4084 11.3121 3.24606 10.3821 3.24606C8.44036 3.24606 7.1713 4.3967 7.1713 6.47979V8.31094H5.01297V10.7135H7.1713V16.5216C7.60408 16.588 8.04765 16.6225 8.4995 16.6225C8.95136 16.6225 9.39493 16.588 9.8277 16.5216V10.7135H11.8084" fill="white"/>
</svg>
