<svg width="20" height="21" viewBox="0 0 20 21" fill="none" xmlns="http://www.w3.org/2000/svg">
<path d="M20 19.011V4.34432C20 3.79204 19.5523 3.34432 19 3.34432H13.7475C13.4823 3.34432 13.228 3.23896 13.0404 3.05143L10.2929 0.30388C10.1054 0.116343 9.851 0.0109863 9.58579 0.0109863H1C0.447715 0.0109863 0 0.458702 0 1.01099V19.011C0 19.5633 0.447716 20.011 1 20.011H19C19.5523 20.011 20 19.5633 20 19.011Z" fill="white"/>
<path fill-rule="evenodd" clip-rule="evenodd" d="M18.5 4.84432H13.7475C13.0845 4.84432 12.4486 4.58093 11.9798 4.11209L13.0241 3.06774L11.9798 4.11209L9.37868 1.51099H1.5V18.511H18.5V4.84432ZM20 4.34432V19.011C20 19.5633 19.5523 20.011 19 20.011H1C0.447716 20.011 0 19.5633 0 19.011V1.01099C0 0.458702 0.447715 0.0109863 1 0.0109863H9.58579C9.851 0.0109863 10.1054 0.116343 10.2929 0.30388L13.0404 3.05143C13.228 3.23896 13.4823 3.34432 13.7475 3.34432H19C19.5523 3.34432 20 3.79204 20 4.34432Z" fill="white"/>
</svg>
