<svg xmlns="http://www.w3.org/2000/svg" xmlns:xlink="http://www.w3.org/1999/xlink" width="23" height="24" viewBox="0 0 23 24">
    <defs>
        <path id="a" d="M22.238 9.511H11.512v4.492h6.174c-.576 2.853-2.983 4.491-6.174 4.491-3.768 0-6.803-3.064-6.803-6.869 0-3.805 3.035-6.87 6.803-6.87 1.622 0 3.087.582 4.238 1.533l3.349-3.382C17.059 1.11 14.442 0 11.512 0 5.128 0 0 5.178 0 11.625S5.128 23.25 11.512 23.25c5.755 0 10.988-4.227 10.988-11.625 0-.687-.105-1.427-.262-2.114z"/>
        <path id="c" d="M22.238 9.511H11.512v4.492h6.174c-.576 2.853-2.983 4.491-6.174 4.491-3.768 0-6.803-3.064-6.803-6.869 0-3.805 3.035-6.87 6.803-6.87 1.622 0 3.087.582 4.238 1.533l3.349-3.382C17.059 1.11 14.442 0 11.512 0 5.128 0 0 5.178 0 11.625S5.128 23.25 11.512 23.25c5.755 0 10.988-4.227 10.988-11.625 0-.687-.105-1.427-.262-2.114z"/>
        <path id="e" d="M22.238 9.511H11.512v4.492h6.174c-.576 2.853-2.983 4.491-6.174 4.491-3.768 0-6.803-3.064-6.803-6.869 0-3.805 3.035-6.87 6.803-6.87 1.622 0 3.087.582 4.238 1.533l3.349-3.382C17.059 1.11 14.442 0 11.512 0 5.128 0 0 5.178 0 11.625S5.128 23.25 11.512 23.25c5.755 0 10.988-4.227 10.988-11.625 0-.687-.105-1.427-.262-2.114z"/>
        <path id="g" d="M22.238 9.511H11.512v4.492h6.174c-.576 2.853-2.983 4.491-6.174 4.491-3.768 0-6.803-3.064-6.803-6.869 0-3.805 3.035-6.87 6.803-6.87 1.622 0 3.087.582 4.238 1.533l3.349-3.382C17.059 1.11 14.442 0 11.512 0 5.128 0 0 5.178 0 11.625S5.128 23.25 11.512 23.25c5.755 0 10.988-4.227 10.988-11.625 0-.687-.105-1.427-.262-2.114z"/>
    </defs>
    <g fill="none" fill-rule="evenodd">
        <g transform="translate(.205)">
            <mask id="b" fill="#fff">
                <use xlink:href="#a"/>
            </mask>
            <path fill="#FBBC05" fill-rule="nonzero" d="M-1.047 18.494V4.756l8.896 6.869z" mask="url(#b)"/>
        </g>
        <g transform="translate(.205)">
            <mask id="d" fill="#fff">
                <use xlink:href="#c"/>
            </mask>
            <path fill="#EA4335" fill-rule="nonzero" d="M-1.047 4.756l8.896 6.869 3.663-3.223L24.07 6.34v-7.398H-1.047z" mask="url(#d)"/>
        </g>
        <g transform="translate(.205)">
            <mask id="f" fill="#fff">
                <use xlink:href="#e"/>
            </mask>
            <path fill="#34A853" fill-rule="nonzero" d="M-1.047 18.494L14.651 6.341l4.134.528 5.285-7.926v25.364H-1.047z" mask="url(#f)"/>
        </g>
        <g transform="translate(.205)">
            <mask id="h" fill="#fff">
                <use xlink:href="#g"/>
            </mask>
            <path fill="#4285F4" fill-rule="nonzero" d="M24.07 24.307L7.849 11.625 5.756 10.04 24.07 4.756z" mask="url(#h)"/>
        </g>
    </g>
</svg>
