<svg width="20" height="21" viewBox="0 0 20 21" fill="none" xmlns="http://www.w3.org/2000/svg">
<path d="M10 9.51083C8.89542 9.51083 7.99997 8.61538 7.99997 7.51079C7.99997 6.40619 8.89542 5.51074 10 5.51074C11.1046 5.51074 12.0001 6.40619 12.0001 7.51079C12.0001 8.61538 11.1046 9.51083 10 9.51083Z" fill="white"/>
<path fill-rule="evenodd" clip-rule="evenodd" d="M10 8.01083C9.72384 8.01083 9.49997 7.78695 9.49997 7.51079C9.49997 7.23462 9.72384 7.01074 10 7.01074C10.2762 7.01074 10.5001 7.23462 10.5001 7.51079C10.5001 7.78695 10.2762 8.01083 10 8.01083ZM7.99997 7.51079C7.99997 8.61538 8.89542 9.51083 10 9.51083C11.1046 9.51083 12.0001 8.61538 12.0001 7.51079C12.0001 6.40619 11.1046 5.51074 10 5.51074C8.89542 5.51074 7.99997 6.40619 7.99997 7.51079Z" fill="white"/>
<path fill-rule="evenodd" clip-rule="evenodd" d="M10 10.011C11.3351 10.011 14.0001 10.681 14.0001 12.011V13.5111H5.99994V12.011C5.99994 10.681 8.665 10.011 10 10.011Z" fill="white"/>
<path fill-rule="evenodd" clip-rule="evenodd" d="M14.0001 13.5111V12.0111C14.0001 10.681 11.3351 10.011 10 10.011C8.665 10.011 5.99994 10.681 5.99994 12.011V13.5111H14.0001ZM7.81683 12.0111C7.88705 11.9766 7.96696 11.9408 8.05715 11.9047C8.70962 11.6433 9.52002 11.511 10 11.511C10.48 11.511 11.2904 11.6433 11.9429 11.9047C12.0331 11.9408 12.113 11.9766 12.1832 12.0111H7.81683Z" fill="white"/>
<path d="M4 10.011C4 11.1156 3.10457 12.011 2 12.011C0.895431 12.011 0 11.1156 0 10.011C0 8.90642 0.895431 8.01099 2 8.01099C3.10457 8.01099 4 8.90642 4 10.011Z" fill="white"/>
<path d="M20 10.011C20 11.1156 19.1046 12.011 18 12.011C16.8954 12.011 16 11.1156 16 10.011C16 8.90642 16.8954 8.01099 18 8.01099C19.1046 8.01099 20 8.90642 20 10.011Z" fill="white"/>
<path d="M12 2.01099C12 3.11556 11.1046 4.01099 10 4.01099C8.89543 4.01099 8 3.11556 8 2.01099C8 0.906417 8.89543 0.0109863 10 0.0109863C11.1046 0.0109863 12 0.906417 12 2.01099Z" fill="white"/>
<path d="M12 18.011C12 19.1156 11.1046 20.011 10 20.011C8.89543 20.011 8 19.1156 8 18.011C8 16.9064 8.89543 16.011 10 16.011C11.1046 16.011 12 16.9064 12 18.011Z" fill="white"/>
<path d="M6 16.011C6 17.1156 5.10457 18.011 4 18.011C2.89543 18.011 2 17.1156 2 16.011C2 14.9064 2.89543 14.011 4 14.011C5.10457 14.011 6 14.9064 6 16.011Z" fill="white"/>
<path d="M6 4.01099C6 5.11556 5.10457 6.01099 4 6.01099C2.89543 6.01099 2 5.11556 2 4.01099C2 2.90642 2.89543 2.01099 4 2.01099C5.10457 2.01099 6 2.90642 6 4.01099Z" fill="white"/>
<path d="M18 16.011C18 17.1156 17.1046 18.011 16 18.011C14.8954 18.011 14 17.1156 14 16.011C14 14.9064 14.8954 14.011 16 14.011C17.1046 14.011 18 14.9064 18 16.011Z" fill="white"/>
<path d="M18 4.01099C18 5.11556 17.1046 6.01099 16 6.01099C14.8954 6.01099 14 5.11556 14 4.01099C14 2.90642 14.8954 2.01099 16 2.01099C17.1046 2.01099 18 2.90642 18 4.01099Z" fill="white"/>
</svg>
