<svg xmlns="http://www.w3.org/2000/svg" width="20" height="20" viewBox="0 0 20 20">
    <g fill="none" fill-rule="evenodd">
        <g>
            <g>
                <g>
                    <path fill="" d="M0 0H20V20H0z" transform="translate(-1087 -522) translate(795 508) translate(292 14)"/>
                    <path fill="#EE4136" fill-rule="nonzero" d="M10.004 5.91c2.008 0 3.638 1.63 3.638 3.638 0 .473-.095.917-.262 1.332l2.124 2.125c1.099-.917 1.965-2.103 2.496-3.457-1.259-3.194-4.366-5.457-8.004-5.457-1.018 0-1.993.182-2.895.51l1.571 1.571c.415-.167.859-.262 1.332-.262zM2.728 3.924l1.659 1.659.334.335C3.513 6.856 2.568 8.108 2 9.548c1.259 3.195 4.366 5.457 8.004 5.457 1.127 0 2.204-.218 3.187-.61l.305.305 2.132 2.124.924-.924L3.652 3l-.924.924zM6.75 7.948L7.88 9.075c-.036.153-.058.313-.058.473 0 1.208.975 2.183 2.183 2.183.16 0 .32-.022.473-.058l1.127 1.128c-.487.24-1.026.385-1.6.385-2.009 0-3.638-1.63-3.638-3.638 0-.574.145-1.113.385-1.6zm3.136-.568l2.292 2.292.015-.116c0-1.208-.975-2.183-2.183-2.183l-.124.007z" transform="translate(-1087 -522) translate(795 508) translate(292 14)"/>
                </g>
            </g>
        </g>
    </g>
</svg>
