<?xml version="1.0" encoding="UTF-8"?>
<svg width="229px" height="162px" viewBox="0 0 229 162" version="1.1" xmlns="http://www.w3.org/2000/svg" xmlns:xlink="http://www.w3.org/1999/xlink">
    <title>Illustration</title>
    <defs>
        <polygon id="path-1" points="0.190841911 0.0159289909 2.61748003 0.0159289909 2.61748003 0.479885057 0.190841911 0.479885057"></polygon>
        <polygon id="path-3" points="0.0567224138 0.825402299 57.2666034 0.825402299 57.2666034 16.399592 0.0567224138 16.399592"></polygon>
        <polygon id="path-5" points="0.76915977 0.82569023 46.7091322 0.82569023 46.7091322 15.8988799 0.76915977 15.8988799"></polygon>
        <polygon id="path-7" points="0.76915977 0.82569023 46.7091322 0.82569023 46.7091322 15.8988799 0.76915977 15.8988799"></polygon>
    </defs>
    <g id="Sign-In/Sign-Up-12th-Jan" stroke="none" stroke-width="1" fill="none" fill-rule="evenodd">
        <g id="01.8_MelpApp_Company-User-Invitation-Page_20th-Nov_16th-Dec_12th-Jan" transform="translate(-1094.000000, -285.000000)">
            <g id="Banner" transform="translate(550.000000, 259.000000)">
                <g id="Illustration" transform="translate(544.158784, 26.000449)">
                    <g id="Group-7" transform="translate(37.431034, 60.465086)">
                        <polygon id="Fill-1" fill="#9BA7AB" points="33.6543391 100.827259 44.6081954 100.827259 44.6081954 35.8272586 33.6543391 35.8272586"></polygon>
                        <polygon id="Fill-2" fill="#D2DADD" points="33.6538592 35.8274506 44.6077155 35.8274506 44.6077155 62.3670138 33.6538592 59.5433701"></polygon>
                        <path d="M1.28208044e-12,55.4778799 L97.6863621,55.4778799 L97.6863621,37.182742 C97.6863621,23.3361385 86.4618506,12.111627 72.6152471,12.111627 L25.0711149,12.111627 C11.2245115,12.111627 1.28208044e-12,23.3361385 1.28208044e-12,37.182742 L1.28208044e-12,55.4778799 Z" id="Fill-4" fill="#9BA7AB"></path>
                        <polygon id="Fill-6" fill="#FFFFFF" points="-1.6196495e-12 50.0568103 47.5441322 50.0568103 47.5441322 37.9733046 -1.6196495e-12 37.9733046"></polygon>
                        <path d="M47.5446121,55.4778799 L47.5446121,37.182742 C47.5446121,23.3361385 58.7691236,12.111627 72.615727,12.111627 C86.4623305,12.111627 97.686842,23.3361385 97.686842,37.182742 L97.686842,55.4778799" id="Fill-8" fill="#7F888B"></path>
                        <polygon id="Fill-10" fill="#9BA7AB" points="47.545092 58.6966609 116.151379 58.6966609 116.151379 55.477592 47.545092 55.477592"></polygon>
                        <polygon id="Fill-12" fill="#454D50" points="66.0091494 58.6966609 116.151379 58.6966609 116.151379 55.477592 66.0091494 55.477592"></polygon>
                        <polygon id="Fill-13" fill="#D2DADD" points="39.1307874 42.3498563 40.9092414 42.3498563 40.9092414 0 39.1307874 0"></polygon>
                        <path d="M29.0236402,8.21524828 L41.4459448,8.21524828 L41.4459448,2.13798391 C41.4459448,1.68977126 41.0831517,1.32697816 40.6349391,1.32697816 L29.0236402,1.32697816 L31.0564333,4.77063333 L29.0236402,8.21524828 Z" id="Fill-14" fill="#7F888B"></path>
                    </g>
                    <g id="SHAPES" transform="translate(0.000000, 63.376757)" fill-rule="nonzero">
                        <path d="M23.3329695,7.48731356 C24.7367113,7.67546821 25.8219177,8.87309882 25.8219177,10.3291491 C25.8219177,11.9124575 24.536846,13.1975295 22.9535376,13.1975295 L2.8686302,13.1975295 C1.28454113,13.1975295 0.000250094045,11.9124575 0.000250094045,10.3291491 C0.000250094045,8.74349872 1.28454113,7.45842682 2.8686302,7.45842682 L4.55577505,7.45842682 C4.21069492,6.76826675 4.01707535,5.98832336 4.01707535,5.16387875 C4.01707535,2.31189379 6.32879925,0.00016989197 9.1807844,0.00016989197 C12.0327694,0.00016989197 14.3460548,2.31189379 14.3460548,5.16387875 C14.3460548,5.98832336 14.150093,6.76826675 13.808136,7.45842682 L15.6842157,7.45842682 C15.6842157,5.34734895 17.3963436,3.63365958 19.5097637,3.63365958 C21.6231837,3.63365958 23.3345309,5.34734895 23.3345309,7.45842682 C23.3345309,7.46935705 23.3329695,7.47716419 23.3329695,7.48731356 Z" id="Path" fill="#D6DBE1"></path>
                        <path d="M5.15615181,11.6930741 C5.55275963,10.4415734 6.75975893,9.62337459 8.07293691,9.62337459 C8.75528984,9.62337459 9.27837486,9.00269891 9.14565167,8.33361844 C9.0816324,8.00883723 9.04806121,7.67234511 9.04806121,7.32804585 C9.04806121,4.74306843 10.9467821,2.60232314 13.4263618,2.22367202 C12.42157,0.776990185 10.6969504,-0.132553299 8.77168499,0.0157843732 C6.23355101,0.210965289 4.18805397,2.28847197 4.02800559,4.82972885 C3.96788968,5.77752796 4.16463235,6.67536053 4.55577505,7.45842682 L2.95216773,7.45842682 C1.40711476,7.45842682 0.0775418263,8.64512739 0.0033729903,10.1878381 C-0.0754800901,11.8359467 1.23847836,13.1975295 2.8686302,13.1975295 L5.12179995,13.1975295 C5.00391056,12.7329986 4.98595386,12.2294316 5.15615181,11.6930741 L5.15615181,11.6930741 Z" id="Path" fill="#7F888B"></path>
                    </g>
                    <g id="SHAPES" transform="translate(192.913793, 120.962964)" fill-rule="nonzero">
                        <path d="M23.3329695,7.48731356 C24.7367113,7.67546821 25.8219177,8.87309882 25.8219177,10.3291491 C25.8219177,11.9124575 24.536846,13.1975295 22.9535376,13.1975295 L2.8686302,13.1975295 C1.28454113,13.1975295 0.000250094045,11.9124575 0.000250094045,10.3291491 C0.000250094045,8.74349872 1.28454113,7.45842682 2.8686302,7.45842682 L4.55577505,7.45842682 C4.21069492,6.76826675 4.01707535,5.98832336 4.01707535,5.16387875 C4.01707535,2.31189379 6.32879925,0.00016989197 9.1807844,0.00016989197 C12.0327694,0.00016989197 14.3460548,2.31189379 14.3460548,5.16387875 C14.3460548,5.98832336 14.150093,6.76826675 13.808136,7.45842682 L15.6842157,7.45842682 C15.6842157,5.34734895 17.3963436,3.63365958 19.5097637,3.63365958 C21.6231837,3.63365958 23.3345309,5.34734895 23.3345309,7.45842682 C23.3345309,7.46935705 23.3329695,7.47716419 23.3329695,7.48731356 Z" id="Path" fill="#D6DBE1"></path>
                        <path d="M5.15615181,11.6930741 C5.55275963,10.4415734 6.75975893,9.62337459 8.07293691,9.62337459 C8.75528984,9.62337459 9.27837486,9.00269891 9.14565167,8.33361844 C9.0816324,8.00883723 9.04806121,7.67234511 9.04806121,7.32804585 C9.04806121,4.74306843 10.9467821,2.60232314 13.4263618,2.22367202 C12.42157,0.776990185 10.6969504,-0.132553299 8.77168499,0.0157843732 C6.23355101,0.210965289 4.18805397,2.28847197 4.02800559,4.82972885 C3.96788968,5.77752796 4.16463235,6.67536053 4.55577505,7.45842682 L2.95216773,7.45842682 C1.40711476,7.45842682 0.0775418263,8.64512739 0.0033729903,10.1878381 C-0.0754800901,11.8359467 1.23847836,13.1975295 2.8686302,13.1975295 L5.12179995,13.1975295 C5.00391056,12.7329986 4.98595386,12.2294316 5.15615181,11.6930741 L5.15615181,11.6930741 Z" id="Path" fill="#7F888B"></path>
                    </g>
                    <g id="SHAPES" transform="translate(88.298851, 15.388251)" fill-rule="nonzero">
                        <path d="M23.3329695,7.48731356 C24.7367113,7.67546821 25.8219177,8.87309882 25.8219177,10.3291491 C25.8219177,11.9124575 24.536846,13.1975295 22.9535376,13.1975295 L2.8686302,13.1975295 C1.28454113,13.1975295 0.000250094045,11.9124575 0.000250094045,10.3291491 C0.000250094045,8.74349872 1.28454113,7.45842682 2.8686302,7.45842682 L4.55577505,7.45842682 C4.21069492,6.76826675 4.01707535,5.98832336 4.01707535,5.16387875 C4.01707535,2.31189379 6.32879925,0.00016989197 9.1807844,0.00016989197 C12.0327694,0.00016989197 14.3460548,2.31189379 14.3460548,5.16387875 C14.3460548,5.98832336 14.150093,6.76826675 13.808136,7.45842682 L15.6842157,7.45842682 C15.6842157,5.34734895 17.3963436,3.63365958 19.5097637,3.63365958 C21.6231837,3.63365958 23.3345309,5.34734895 23.3345309,7.45842682 C23.3345309,7.46935705 23.3329695,7.47716419 23.3329695,7.48731356 Z" id="Path" fill="#D6DBE1"></path>
                        <path d="M5.15615181,11.6930741 C5.55275963,10.4415734 6.75975893,9.62337459 8.07293691,9.62337459 C8.75528984,9.62337459 9.27837486,9.00269891 9.14565167,8.33361844 C9.0816324,8.00883723 9.04806121,7.67234511 9.04806121,7.32804585 C9.04806121,4.74306843 10.9467821,2.60232314 13.4263618,2.22367202 C12.42157,0.776990185 10.6969504,-0.132553299 8.77168499,0.0157843732 C6.23355101,0.210965289 4.18805397,2.28847197 4.02800559,4.82972885 C3.96788968,5.77752796 4.16463235,6.67536053 4.55577505,7.45842682 L2.95216773,7.45842682 C1.40711476,7.45842682 0.0775418263,8.64512739 0.0033729903,10.1878381 C-0.0754800901,11.8359467 1.23847836,13.1975295 2.8686302,13.1975295 L5.12179995,13.1975295 C5.00391056,12.7329986 4.98595386,12.2294316 5.15615181,11.6930741 L5.15615181,11.6930741 Z" id="Path" fill="#7F888B"></path>
                    </g>
                    <g id="Group-39" transform="translate(125.729885, 19.794827)">
                        <path d="M39.6827562,1.31968391 C39.5322505,1.31968391 39.3959101,1.24749223 39.3596116,1.13982706 C39.3171159,1.01411398 39.4286672,0.888400887 39.606618,0.85852847 C40.3538345,0.73530475 41.0824591,0.573495825 41.7730146,0.376835746 C41.9438828,0.32891541 42.1368842,0.386170876 42.2059398,0.505660544 C42.27411,0.625772554 42.1917746,0.761443115 42.0217917,0.809985793 C41.3002497,1.01535866 40.538868,1.18463569 39.7588944,1.31346049 C39.7332199,1.31781688 39.7075454,1.31968391 39.6827562,1.31968391" id="Fill-32" fill="#9C9696"></path>
                        <path d="M19.8602188,1.06498014 C19.74069,1.06498014 19.637056,0.976217321 19.6237043,0.855348805 C19.6084453,0.726296483 19.7025425,0.608575584 19.8335155,0.594096543 C20.4413322,0.524848956 21.0879321,0.463155651 21.7548774,0.410275675 C22.1789503,0.376910928 22.6233686,0.359913793 23.0741448,0.359913793 L23.2311853,0.36117284 C23.3627941,0.361802364 23.4689713,0.468821362 23.467711,0.599132732 C23.4664281,0.730073624 23.3411772,0.832056435 23.2267347,0.833315482 L23.0741448,0.832685958 C22.6354486,0.832685958 22.204382,0.84905357 21.7930249,0.881788793 C21.131166,0.934039245 20.4902881,0.995103027 19.8875578,1.06372109 C19.8786567,1.06435061 19.8691199,1.06498014 19.8602188,1.06498014 M29.9247981,1.67372938 C29.9101749,1.67372938 29.8955517,1.67247034 29.8809284,1.66932272 C28.8560326,1.48109519 27.6957131,1.26705719 26.5601895,1.10778774 C26.4298522,1.08890203 26.3389341,0.969292563 26.357372,0.840240241 C26.37581,0.711187919 26.4959746,0.621166055 26.6269476,0.639422237 C27.7726439,0.799950735 28.9386855,1.01524778 29.9680319,1.20473436 C30.0977333,1.22865625 30.1829294,1.35204286 30.1587693,1.48046566 C30.1377882,1.59440942 30.0373332,1.67372938 29.9247981,1.67372938 M13.2530736,2.41656714 C13.1526186,2.41656714 13.0591572,2.35361479 13.0267318,2.25415007 C12.9854054,2.12950441 13.0540709,1.99604543 13.1793218,1.95575592 C14.2004029,1.6258856 15.3092233,1.34071144 16.4752649,1.10904678 C16.6049663,1.08386584 16.7302173,1.16633343 16.7562847,1.2941267 C16.7823522,1.42191998 16.6984277,1.54656563 16.569362,1.5723761 C15.4217584,1.80026361 14.3307402,2.08040158 13.3274612,2.40523572 C13.3026653,2.41341952 13.2778695,2.41656714 13.2530736,2.41656714 M36.6165035,2.53932423 L36.6133245,2.53932423 C35.6011445,2.52610423 34.5222063,2.43167571 33.2188338,2.24281865 C33.0884965,2.22393294 32.9982141,2.10432347 33.0172879,1.97527115 C33.0363616,1.84558931 33.1577978,1.75682649 33.288135,1.77571219 C34.5698907,1.96142163 35.6284835,2.05396159 36.6196824,2.06655206 C36.7519271,2.06844063 36.8568327,2.17545963 36.8555725,2.305771 C36.8536537,2.43545285 36.7468407,2.53932423 36.6165035,2.53932423 M7.28108414,5.47164479 C7.2098755,5.47164479 7.13930264,5.44079814 7.09225407,5.38036388 C7.01150855,5.27775155 7.0305823,5.129184 7.13421631,5.04923451 C8.01160857,4.37375577 8.98309796,3.76500653 10.0238886,3.24061343 C10.1408743,3.1808087 10.2845631,3.22739344 10.3449633,3.34385529 C10.4047277,3.46031714 10.3576792,3.60258946 10.2400577,3.66176467 C9.22724189,4.17293777 8.28054837,4.76468988 7.42731619,5.42191244 C7.38408236,5.45590671 7.33258325,5.47164479 7.28108414,5.47164479 M2.88776495,10.5015377 C2.84707429,10.5015377 2.80574785,10.4914654 2.76760036,10.469432 C2.65379368,10.4039616 2.6150104,10.2591712 2.6817685,10.1464865 C3.26097455,9.16128216 3.92664824,8.23273496 4.66098741,7.3879144 C4.74681926,7.2890792 4.89750185,7.27774778 4.99732111,7.36273346 C5.09777617,7.44771913 5.10858462,7.59691621 5.02275277,7.6957514 C4.30748734,8.51916817 3.65898002,9.42379347 3.09376139,10.3838168 C3.04989178,10.4593597 2.96978205,10.5015377 2.88776495,10.5015377 M0.557589137,16.7470406 C0.542965932,16.7470406 0.528342728,16.7457816 0.513719524,16.7432635 C0.384653851,16.7193416 0.298822,16.595955 0.322346285,16.4681617 C0.528342728,15.3620889 0.83225106,14.2648294 1.22707758,13.2066003 C1.27285456,13.0838432 1.41018552,13.0208909 1.53352907,13.0668461 C1.65687262,13.1115423 1.72045177,13.2475193 1.67467478,13.3702764 C1.28938514,14.4033245 0.992470516,15.474144 0.792196197,16.5537769 C0.770579286,16.6670911 0.67012423,16.7470406 0.557589137,16.7470406 M0.53342906,23.4011042 C0.419622383,23.4011042 0.319167328,23.3205252 0.298822,23.2059519 C0.253045013,22.9547721 0.212354358,22.7017036 0.176114243,22.4480056 C0.0591286086,21.6258479 0,20.7797683 0,19.9324296 L0,19.8361125 C0.00063579149,19.7051716 0.108720345,19.5956345 0.239693392,19.6000412 C0.37130223,19.6006707 0.4781152,19.7070602 0.477479409,19.8373716 L0.477479409,19.9324296 C0.477479409,20.757735 0.534700643,21.5817813 0.64850732,22.3825352 C0.684111643,22.6299379 0.724166507,22.8767111 0.768671911,23.1228548 C0.791560405,23.2512776 0.705092762,23.3740347 0.575391298,23.3973271 C0.561403886,23.3998452 0.547416473,23.4011042 0.53342906,23.4011042 M2.73008866,29.7013756 C2.64362102,29.7013756 2.56033233,29.6547909 2.5177343,29.5735824 C1.98811999,28.5575314 1.53352907,27.5150405 1.16794897,26.4738085 C1.12471515,26.3504219 1.19020167,26.2157039 1.3148168,26.1728963 C1.43943193,26.1294592 1.57549131,26.1949296 1.61872513,26.3183162 C1.97731153,27.3387739 2.42236558,28.3604905 2.94180722,29.3563968 C3.00284321,29.4722291 2.95643043,29.6151309 2.83944479,29.6749357 C2.80447626,29.6931918 2.76696456,29.7013756 2.73008866,29.7013756 M6.55055972,35.2002636 C6.48443741,35.2002636 6.41895088,35.1731941 6.37126652,35.1203141 C5.61594623,34.2691983 4.91021768,33.3759044 4.27442619,32.4643544 C4.19940279,32.3567059 4.22674183,32.2093974 4.33482638,32.1351136 C4.44354672,32.0608298 4.59232193,32.0885288 4.66670954,32.1955478 C5.29232836,33.0919893 5.98661267,33.9708042 6.72985292,34.8080705 C6.81695636,34.9056466 6.80741948,35.0548437 6.70823601,35.1417179 C6.66309482,35.1807484 6.60650937,35.2002636 6.55055972,35.2002636 M11.4785796,39.7630501 C11.4270804,39.7630501 11.3755813,39.7466825 11.3317117,39.7126882 C10.4263446,39.0095104 9.55721768,38.2748565 8.74785511,37.5288711 C8.6512148,37.4394788 8.64612847,37.2902817 8.73577507,37.1945941 C8.82605746,37.0989066 8.97674005,37.0938704 9.07338035,37.1826332 C9.87257026,37.9198052 10.7315246,38.6462754 11.6260832,39.3412693 C11.7297172,39.4218484 11.7481552,39.5704159 11.6667738,39.6730282 C11.6197253,39.7322034 11.5497882,39.7630501 11.4785796,39.7630501 M54.6952345,42.6003126 C54.5877857,42.6003126 54.4898739,42.5279174 54.4631706,42.4196394 C54.4326526,42.2931051 54.510855,42.1653119 54.6392849,42.1344652 C55.4206726,41.9474967 56.254831,41.8159263 57.1881729,41.7334587 C57.4666496,41.7082778 57.7463979,41.6887626 58.0255103,41.6742835 C58.1602981,41.6673588 58.2696543,41.767453 58.276648,41.8977644 C58.2836417,42.0280757 58.1825508,42.1395014 58.050942,42.1464262 C57.7775517,42.1609052 57.5035255,42.1797909 57.230771,42.2043423 C56.3209533,42.2849213 55.5096834,42.4120851 54.75182,42.5940174 C54.7327462,42.598424 54.7136725,42.6003126 54.6952345,42.6003126 M64.7451906,42.7545459 C64.7267526,42.7545459 64.7083147,42.7526573 64.6898767,42.7482506 C63.6052165,42.4939231 62.4957603,42.3132499 61.3913905,42.2125261 C61.2604174,42.2005652 61.1637771,42.0853624 61.1758572,41.9556805 C61.1879372,41.8253692 61.3061944,41.7303111 61.4352601,41.7416425 C62.5618826,41.8448844 63.6935915,42.0287053 64.7998687,42.2886985 C64.9282985,42.3182861 65.0077725,42.4460794 64.9772545,42.5732431 C64.951187,42.6815212 64.8532751,42.7545459 64.7451906,42.7545459 M17.0792668,43.4967541 C17.0385761,43.4967541 16.9972497,43.4860522 16.959738,43.4646484 C15.9628169,42.891782 14.9938707,42.2931051 14.0802383,41.6862445 C13.9708822,41.6132197 13.9416358,41.4665408 14.0147518,41.3582627 C14.0885036,41.2499847 14.236643,41.2210266 14.3459992,41.2940513 C15.2513663,41.8952463 16.2114114,42.4882574 17.1994314,43.0560876 C17.3132381,43.1215581 17.3520213,43.265719 17.285899,43.3790332 C17.2413936,43.454576 17.1612839,43.4967541 17.0792668,43.4967541 M71.0229958,45.1756933 C70.9848483,45.1756933 70.9454292,45.1662505 70.9098249,45.1467353 C70.5092762,44.9320677 70.1157213,44.7343974 69.7444191,44.5524651 C69.1385098,44.25533 68.5109836,43.9808577 67.8796426,43.7359731 C67.7569349,43.6887588 67.6965347,43.5515227 67.7442191,43.4300246 C67.7925392,43.3078971 67.9311417,43.2487218 68.0538495,43.2959361 C68.6979063,43.5458569 69.3375125,43.8259949 69.9561376,44.1287957 C70.3325262,44.3132461 70.7318033,44.5140641 71.1368024,44.7312497 C71.2531523,44.7935726 71.2963861,44.9371039 71.2334427,45.0516772 C71.1902089,45.1309972 71.107556,45.1756933 71.0229958,45.1756933 M49.1250653,46.1212377 C49.0754735,46.1212377 49.0258818,46.1067586 48.9832838,46.0752825 C48.8771066,45.9978511 48.8548539,45.849913 48.9330562,45.7447826 C49.5841067,44.8728925 50.3476923,44.1420157 51.2041034,43.5729265 C51.2854847,43.5187874 51.3681376,43.4659075 51.4514263,43.4142865 C51.5633256,43.3456685 51.7101935,43.3790332 51.7801305,43.4898294 C51.8500676,43.6006255 51.8157349,43.746675 51.7038355,43.8159225 C51.6256332,43.8643958 51.5474308,43.9141282 51.4705001,43.9651196 C50.6598659,44.5046213 49.9350636,45.1977267 49.3170743,46.0255501 C49.2706615,46.0885025 49.1981813,46.1212377 49.1250653,46.1212377 M23.1002122,46.5291689 C23.067151,46.5291689 23.0340899,46.5222442 23.0029361,46.5083946 C21.9519728,46.0431768 20.9219906,45.5584436 19.9409643,45.0661563 C19.8233429,45.006981 19.7762943,44.8647087 19.8360587,44.7482469 C19.8958231,44.631785 20.039512,44.5852003 20.1571334,44.6443755 C21.1305302,45.1328857 22.1535187,45.6151008 23.1974883,46.0765415 C23.3176529,46.130051 23.3716952,46.2698052 23.3182887,46.3887852 C23.2782338,46.4769185 23.1911304,46.5291689 23.1002122,46.5291689 M29.3799248,49.0019373 C29.3532215,49.0019373 29.3265183,48.9975307 29.299815,48.9880878 C28.2132474,48.6065965 27.1457535,48.2106262 26.1272155,47.8102493 C26.0045077,47.761776 25.9441075,47.6245398 25.9930635,47.5036713 C26.0413836,47.3821733 26.1799862,47.3223686 26.3026939,47.3708419 C27.3161456,47.7687007 28.3785532,48.1627825 29.4593987,48.5423851 C29.583378,48.5864518 29.6488646,48.7211698 29.6043591,48.8439269 C29.5700264,48.9408735 29.4778366,49.0019373 29.3799248,49.0019373 M75.5828923,49.8278722 C75.470993,49.8278722 75.3711738,49.7491817 75.3489211,49.636497 C75.1683563,48.7180222 74.5993229,47.8266169 73.6570799,46.986203 C73.559168,46.8986992 73.5515385,46.7488726 73.6399135,46.651926 C73.7276528,46.5549794 73.8789711,46.5474251 73.976883,46.6349289 C74.9973284,47.5452199 75.6165893,48.5247585 75.8174994,49.5464752 C75.8422953,49.6742684 75.7583708,49.7982846 75.6286693,49.8234655 C75.6134103,49.8266131 75.5981513,49.8278722 75.5828923,49.8278722 M35.812863,51.0466297 C35.7912461,51.0466297 35.7683576,51.0434821 35.7461049,51.0371869 C34.6684384,50.7255727 33.5793275,50.3963319 32.5092905,50.0576483 C32.3840395,50.0173588 32.3147383,49.8845293 32.3547931,49.7605132 C32.394848,49.6358675 32.5296358,49.567879 32.6548867,49.6069094 C33.7204733,49.9449636 34.8057693,50.2735748 35.8796212,50.5833004 C36.0061437,50.6198128 36.0792597,50.7507537 36.0423838,50.8760288 C36.0118658,50.9799002 35.9164971,51.0466297 35.812863,51.0466297 M46.7287671,52.3081949 C46.7173229,52.3081949 46.7052429,52.3069358 46.6931628,52.3056768 C46.5628256,52.2861615 46.473179,52.1659225 46.4922527,52.0368702 C46.6683669,50.8691041 46.9493868,49.7630313 47.3264111,48.7501279 C47.3721881,48.6280003 47.5095191,48.5656775 47.6328626,48.6103737 C47.756842,48.6556994 47.8197853,48.7910469 47.7740083,48.913804 C47.4084282,49.8964902 47.1356737,50.9704574 46.9646458,52.1067473 C46.9468436,52.2238387 46.845117,52.3081949 46.7287671,52.3081949 M42.3468922,52.7513794 C42.3284542,52.7513794 42.3100163,52.7494908 42.2915783,52.7450842 C41.1986528,52.4901272 40.0942829,52.2169139 39.0077153,51.9329988 C38.8799212,51.8996341 38.804262,51.7705818 38.837959,51.6440475 C38.8710201,51.5181428 39.0007216,51.4426 39.1291515,51.4759648 C40.2119044,51.7586208 41.3124594,52.030575 42.4009345,52.285532 C42.5293643,52.3151196 42.6088383,52.4429129 42.5789561,52.5694471 C42.5528886,52.6783547 42.4549767,52.7513794 42.3468922,52.7513794 M48.9603953,54.1205931 C48.9464079,54.1205931 48.9317847,54.119334 48.9177972,54.1168159 C47.8134274,53.9178865 46.695706,53.7013304 45.5957867,53.4734429 C45.466721,53.4463734 45.3840681,53.3217277 45.4107714,53.1939345 C45.4374746,53.0661412 45.5646329,52.9849326 45.6930628,53.0107431 C46.7898031,53.2373716 47.903074,53.4532981 49.0029933,53.6515981 C49.1326948,53.6748904 49.2185266,53.798277 49.1950023,53.9266998 C49.1740212,54.0406436 49.0735662,54.1205931 48.9603953,54.1205931 M55.6368417,55.1492345 C55.626669,55.1492345 55.6164964,55.148605 55.6063237,55.1473459 C54.4943244,55.0050736 53.3664303,54.8458042 52.2550668,54.6745738 C52.1247295,54.654429 52.0357187,54.53419 52.056064,54.4045082 C52.0757736,54.2760854 52.1972097,54.1879521 52.3281828,54.2074673 C53.4357316,54.3780682 54.5591751,54.5367081 55.6667239,54.6783509 C55.797697,54.6953481 55.8898867,54.8136985 55.8733561,54.9427508 C55.8574614,55.0623603 55.7550989,55.1492345 55.6368417,55.1492345 M72.3689663,55.1580478 C72.2780482,55.1580478 72.1909447,55.1064269 72.1515257,55.0189231 C72.0968476,54.8999432 72.1502541,54.760189 72.2704187,54.70605 C73.3423631,54.2257235 74.1587194,53.5389133 74.6978706,52.6657642 C74.7665361,52.5543386 74.9134039,52.5190852 75.025939,52.5870738 C75.1384741,52.6550623 75.1740784,52.8011118 75.1054129,52.9125374 C74.5153984,53.8681541 73.6278335,54.6166576 72.467514,55.136644 C72.4350887,55.1511231 72.4020275,55.1580478 72.3689663,55.1580478 M62.3577935,55.8347856 C62.3514356,55.8347856 62.3450777,55.8347856 62.3393556,55.8341561 C61.2203626,55.7491704 60.0861106,55.6478171 58.9677533,55.5338734 C58.8367803,55.5206534 58.7414116,55.4041915 58.755399,55.2745097 C58.7687506,55.1448278 58.8851004,55.0485107 59.0167093,55.0636193 C60.1312517,55.1775631 61.2610532,55.2782868 62.3755957,55.362643 C62.5072045,55.3727154 62.6057522,55.4866591 62.5955796,55.6169705 C62.5860427,55.7403571 62.4811371,55.8347856 62.3577935,55.8347856 M66.9857198,56.0752636 C66.5514742,56.0752636 66.1267655,56.0639322 65.7185874,56.0463055 C65.5869785,56.0406398 65.4852519,55.9304732 65.490974,55.8001618 C65.4966961,55.6698505 65.6079596,55.5684972 65.7395685,55.5741629 C66.1407529,55.5917895 66.5584679,55.6024914 66.9857198,55.6024914 C67.7346822,55.6024914 68.4391391,55.5678677 69.0793812,55.4992496 C69.2097184,55.4847705 69.3279757,55.5785696 69.3419631,55.7088809 C69.3565863,55.8385628 69.2618533,55.9550246 69.1308803,55.9695037 C68.4734719,56.0393808 67.7518485,56.0752636 66.9857198,56.0752636 M46.5749056,58.9868099 C46.4483831,58.9868099 46.3422059,58.8879747 46.3364838,58.760811 C46.29325,57.7995285 46.2525593,56.768369 46.2525593,55.73658 L46.2544667,55.4041915 C46.2551025,55.2738802 46.3460207,55.1605659 46.4947959,55.1700088 C46.6264047,55.1712678 46.7325819,55.2776573 46.7319461,55.4085982 L46.7300387,55.73658 C46.7300387,56.7589262 46.7700936,57.7837905 46.8139632,58.7400367 C46.8196853,58.8703481 46.7179587,58.9805147 46.5857141,58.9868099 C46.5825351,58.9868099 46.5787203,58.9868099 46.5749056,58.9868099 M46.6664596,65.6729792 C46.6613732,65.6729792 46.6556511,65.6729792 46.6505648,65.6723497 C46.5189559,65.6635364 46.4197725,65.5508517 46.4280378,65.4205403 C46.4725432,64.7759082 46.4935243,64.0960228 46.4935243,63.3424832 C46.4935243,62.9288862 46.4871664,62.5140302 46.4763579,62.0991742 C46.473179,61.9682333 46.576813,61.8599553 46.7090576,61.8568076 C46.8413022,61.8435876 46.9500226,61.9562724 46.9538373,62.0865837 C46.9646458,62.5058464 46.9710037,62.9244795 46.9710037,63.3424832 C46.9710037,64.1067247 46.9493868,64.797312 46.9048814,65.452646 C46.8959803,65.5772917 46.7910747,65.6729792 46.6664596,65.6729792 M45.009587,72.1104868 C44.9733468,72.1104868 44.9358351,72.102303 44.9008666,72.0846763 C44.783881,72.0248716 44.7374682,71.8825993 44.7972326,71.7667669 C44.9517299,71.4690023 45.094783,71.1636834 45.2232129,70.8602531 C45.5131338,70.1753315 45.7547346,69.4438251 45.9410215,68.6858788 C45.9721753,68.5593446 46.1018767,68.4812837 46.2296708,68.5121303 C46.3574649,68.542977 46.4363031,68.6707702 46.4051493,68.797934 C46.2125044,69.5798022 45.9632742,70.3352304 45.6638164,71.0428149 C45.5303002,71.3575766 45.3821608,71.6735974 45.2225771,71.982064 C45.1799791,72.063902 45.0966904,72.1104868 45.009587,72.1104868 M40.7656788,77.2631368 C40.6989206,77.2631368 40.6321625,77.2354378 40.585114,77.1819283 C40.4986463,77.0830931 40.5094548,76.933896 40.609274,76.8482808 C41.4955674,76.0884459 42.2845846,75.2983939 42.9553446,74.5001581 C43.0392691,74.3994343 43.1899517,74.3862143 43.2910426,74.4693114 C43.3927692,74.553038 43.4067566,74.7016056 43.3221963,74.8023294 C42.6349057,75.6200804 41.8274505,76.4290181 40.9220835,77.2052206 C40.8763065,77.2442511 40.8209926,77.2631368 40.7656788,77.2631368 M35.1490967,80.9452199 C35.0581785,80.9452199 34.9717109,80.8942285 34.931656,80.8073542 C34.876978,80.6883743 34.9297487,80.5486201 35.0492775,80.4938515 C35.9203118,80.1003993 36.7048785,79.6773595 37.3819964,79.2379521 C37.5714623,79.115195 37.7602924,78.9899198 37.9478509,78.8627561 C38.057207,78.7897313 38.2053464,78.8174304 38.279734,78.9250789 C38.3541216,79.0327274 38.3261468,79.1800359 38.2174265,79.2536902 C38.026689,79.382113 37.8359516,79.5086472 37.6439425,79.6332929 C36.9464793,80.0859203 36.1402957,80.5202915 35.2476444,80.9238161 C35.2158548,80.9382951 35.1821579,80.9452199 35.1490967,80.9452199 M28.7250595,82.9880237 C28.6150676,82.9880237 28.5165199,82.9124809 28.491724,82.8016848 C28.464385,82.6738915 28.5457663,82.5479868 28.674832,82.5202877 C29.7989113,82.2798098 30.8905653,81.9946356 31.9199118,81.6729491 C32.0457985,81.6332891 32.1799505,81.7025367 32.2193695,81.8271823 C32.2594244,81.9511985 32.1894873,82.0840279 32.0642364,82.1236879 C31.0202668,82.4497811 29.9139896,82.7387324 28.7759228,82.982358 C28.7587565,82.9861351 28.7415901,82.9880237 28.7250595,82.9880237 M22.0314467,83.8599138 C21.9049242,83.8599138 21.7993828,83.7617081 21.7930249,83.6351739 C21.786667,83.5048625 21.8883936,83.3940664 22.0200025,83.3877712 C23.1243723,83.3342617 24.250359,83.2335379 25.3655373,83.088118 C25.4952387,83.0704913 25.6160391,83.1624017 25.6332055,83.2914541 C25.6503719,83.4211359 25.5588179,83.5401158 25.4278449,83.557113 C24.2999507,83.703792 23.1606124,83.8057748 22.042891,83.8599138 C22.0390762,83.8599138 22.0352615,83.8599138 22.0314467,83.8599138" id="Fill-34" fill="#9C9696"></path>
                        <g id="Group-38" transform="translate(16.316092, 84.819684)">
                            <mask id="mask-2" fill="white">
                                <use xlink:href="#path-1"></use>
                            </mask>
                            <g id="Clip-37"></g>
                            <path d="M2.34728578,0.479885057 C2.34296681,0.479885057 2.33936767,0.479885057 2.33504871,0.479885057 C1.69080302,0.460689655 1.05159612,0.430936782 0.434703879,0.391586207 C0.286419397,0.381988506 0.177725431,0.293689655 0.192121983,0.194833333 C0.206518534,0.0959770115 0.336807328,0.0235143678 0.487251293,0.0326321839 C1.09406595,0.0719827586 1.72391509,0.101255747 2.35880302,0.119971264 C2.50780733,0.12429023 2.62369957,0.208270115 2.61722112,0.307606322 C2.61074267,0.404543103 2.49125129,0.479885057 2.34728578,0.479885057" id="Fill-36" fill="#FFFFFF" mask="url(#mask-2)"></path>
                        </g>
                    </g>
                    <g id="Group-8" transform="translate(169.879310, 0.000000)">
                        <polygon id="Fill-1" fill="#407BFF" points="6.55244655 20.6634194 0.0567224138 24.6762183 57.2666994 9.10298841"></polygon>
                        <g id="Group-4" transform="translate(0.000000, 8.277586)">
                            <mask id="mask-4" fill="white">
                                <use xlink:href="#path-3"></use>
                            </mask>
                            <g id="Clip-3"></g>
                            <polyline id="Fill-2" fill="#A16056" mask="url(#mask-4)" points="6.55244655 12.3858333 0.0567224138 16.399592 57.2666994 0.825402299"></polyline>
                        </g>
                        <polygon id="Fill-5" fill="#E09285" points="6.55244655 20.6634194 11.3263431 24.1761781 57.2666994 9.10298841"></polygon>
                        <path d="M6.43055575,16.1632493 C4.73080287,16.0931861 3.39768218,14.6458528 3.4677454,12.9460999 L3.87756724,2.96545048 C3.94763046,1.2656976 5.39496379,-0.0674230849 7.09471667,0.00264013353 L30.9958718,0.984484961 C32.6956247,1.05454818 34.0287454,2.50188151 33.9586822,4.20163439 L33.5488603,14.1822838 C33.4787971,15.8810769 32.0314638,17.2151574 30.3317109,17.1450942 L6.43055575,16.1632493 Z" id="Fill-8" fill="#D6DBE1"></path>
                        <path d="M18.6015925,11.6543453 C18.5296098,11.6543453 18.4585868,11.6332304 18.3971615,11.5910005 L5.24735115,2.51541427 C5.08323046,2.4021614 5.04196034,2.17853496 5.15521322,2.01441427 C5.26846609,1.85029358 5.4930523,1.80902347 5.65621322,1.92227634 L18.6188684,10.8682936 L32.2715983,3.01641427 C32.4443569,2.91659818 32.6641443,2.97610393 32.7630006,3.14886255 C32.8628167,3.3206614 32.8033109,3.54140852 32.6305523,3.64026485 L18.7810695,11.6063568 C18.7254029,11.6380292 18.6639776,11.6543453 18.6015925,11.6543453" id="Fill-10" fill="#9BA7AB"></path>
                        <path d="M31.9790603,15.1688315 C31.9080374,15.1688315 31.8360546,15.1477166 31.7736695,15.1045269 L24.2365948,9.86610163 C24.0734339,9.75284875 24.0331236,9.52826255 24.1463764,9.36510163 C24.2596293,9.20194071 24.4842155,9.16067059 24.6483362,9.27488324 L32.1854109,14.5123488 C32.3485718,14.6265614 32.3888822,14.8511476 32.2756293,15.0143085 C32.2055661,15.1150844 32.093273,15.1688315 31.9790603,15.1688315" id="Fill-12" fill="#9BA7AB"></path>
                        <path d="M4.98053506,14.0598171 C4.85576494,14.0598171 4.73483391,13.9955125 4.66860977,13.8803401 C4.56879368,13.7075815 4.62733966,13.4877942 4.79913851,13.3879781 L12.7412362,8.78588036 C12.9139948,8.6851045 13.1337822,8.74461025 13.2335983,8.9164091 C13.3334144,9.08916772 13.2748684,9.30895508 13.1030695,9.40877117 L5.16097184,14.0108689 C5.1043454,14.0444608 5.04196034,14.0598171 4.98053506,14.0598171" id="Fill-14" fill="#9BA7AB"></path>
                        <g id="Group-18" transform="translate(10.557471, 8.277586)">
                            <mask id="mask-6" fill="white">
                                <use xlink:href="#path-5"></use>
                            </mask>
                            <g id="Clip-17"></g>
                            <polygon id="Fill-16" fill="#407BFF" mask="url(#mask-6)" points="46.7095161 0.82569023 3.23097011 9.71316149 0.76915977 15.8988799"></polygon>
                        </g>
                        <g id="Group-21" transform="translate(10.557471, 8.277586)">
                            <mask id="mask-8" fill="white">
                                <use xlink:href="#path-7"></use>
                            </mask>
                            <g id="Clip-20"></g>
                            <polygon id="Fill-19" fill="#A16056" mask="url(#mask-8)" points="46.7095161 0.82569023 3.23097011 9.71316149 0.76915977 15.8988799"></polygon>
                        </g>
                        <g id="Group-24" transform="translate(13.436782, 8.277586)" fill="#E09285">
                            <polygon id="Fill-22" points="43.8302057 0.82569023 0.35165977 9.71316149 14.0437402 14.6780523"></polygon>
                        </g>
                    </g>
                </g>
            </g>
        </g>
    </g>
</svg>