<svg xmlns="http://www.w3.org/2000/svg" width="19" height="19" viewBox="0 0 19 19">
    <g fill="none" fill-rule="evenodd" transform="translate(2 2)">
        <rect width="17" height="17" x="-1" y="-1" fill="#EE4136" stroke="#FFF" stroke-width="2" rx="3"/>
        <path fill="#F8F8F8" fill-rule="nonzero" d="M7.825 6C7.412 4.835 6.305 4 5 4 3.342 4 2 5.343 2 7c0 1.658 1.342 3 3 3 1.305 0 2.412-.835 2.825-2H10v2h2V8h1V6H7.825zM5 8c-.553 0-1-.447-1-1 0-.553.447-1 1-1 .553 0 1 .447 1 1 0 .553-.447 1-1 1z"/>
    </g>
</svg>
