<svg xmlns="http://www.w3.org/2000/svg" width="17" height="17" viewBox="0 0 17 17">
    <g fill="none" fill-rule="nonzero">
        <path fill="#069" d="M0 1.216C0 .545.558 0 1.247 0h14.378c.689 0 1.247.545 1.247 1.216v14.547c0 .672-.558 1.216-1.247 1.216H1.247C.558 16.98 0 16.435 0 15.763V1.216z"/>
        <path fill="#FFF" d="M5.115 14.213V6.546H2.566v7.667h2.549zM3.84 5.5c.888 0 1.441-.59 1.441-1.325-.016-.752-.553-1.325-1.424-1.325-.872 0-1.442.573-1.442 1.325 0 .736.553 1.325 1.408 1.325h.017zm2.684 8.713h2.548v-4.28c0-.23.017-.46.084-.623.184-.458.604-.932 1.308-.932.922 0 1.29.703 1.29 1.734v4.101h2.549V9.817c0-2.355-1.257-3.45-2.934-3.45-1.374 0-1.978.768-2.313 1.291h.016V6.546H6.525c.033.72 0 7.667 0 7.667z"/>
    </g>
</svg>
