<svg data-name="Group 552" xmlns="http://www.w3.org/2000/svg" width="14.484" height="14.484">
    <g data-name="Rectangle 81" style="stroke:#ea4136;fill:none">
        <rect width="14.484" height="14.484" rx="2" style="stroke:none"/>
        <rect x=".5" y=".5" width="13.484" height="13.484" rx="1.5" style="fill:none"/>
    </g>
    <path data-name="Path 429" d="m2772.071 1163.7.488-.488a.661.661 0 0 1 .936 0l1.79 1.791a.24.24 0 0 0 .331.008l4.231-3.846a.663.663 0 0 1 .936.044l.481.529a.663.663 0 0 1-.044.936l-5.353 4.867a.663.663 0 0 1-.915-.022l-2.881-2.884a.661.661 0 0 1 0-.935z" transform="translate(-2769.414 -1157.106)" style="fill:#ea4136"/>
</svg>
