<svg width="17" height="17" viewBox="0 0 17 17" fill="none" xmlns="http://www.w3.org/2000/svg">
<path fill-rule="evenodd" clip-rule="evenodd" d="M2.20333 14.7337H14.2033V5.73365H2.20333V14.7337ZM15.2033 2.73358H13.2033V0.733582H10.2033V2.73358H6.20331V0.733582H3.20331V2.73358H1.20331C0.651308 2.73358 0.203308 3.18158 0.203308 3.73358V15.7336C0.203308 16.2856 0.651308 16.7336 1.20331 16.7336H15.2033C15.7553 16.7336 16.2033 16.2856 16.2033 15.7336V3.73358C16.2033 3.18158 15.7553 2.73358 15.2033 2.73358V2.73358Z" fill="#9C9696"/>
<path fill-rule="evenodd" clip-rule="evenodd" d="M4.65302 10.0602L7.06064 12.3675L4.65302 10.0602Z" fill="#9C9696"/>
<path fill-rule="evenodd" clip-rule="evenodd" d="M7.06064 12.3675L11.8759 7.75294L7.06064 12.3675Z" fill="#9C9696"/>
<path d="M11.9813 8.35598L12.0174 8.32138L11.9828 8.28528L11.0709 7.33376L11.0363 7.29766L11.0002 7.33226L7.34772 10.8326L5.52887 9.08948L5.49277 9.05489L5.45817 9.09098L4.5463 10.0425L4.5117 10.0786L4.5478 10.1132L7.31313 12.7633L7.34772 12.7965L7.38232 12.7633L11.9813 8.35598Z" fill="#9C9696" stroke="#9C9696" stroke-width="0.1" stroke-linecap="square"/>
</svg>
