<svg width="966" height="801" viewBox="0 0 966 801" fill="none" xmlns="http://www.w3.org/2000/svg">
<g clip-path="url(#clip0)">
<path opacity="0.2" d="M372.564 754.534L372.36 754.99L372.564 754.534C359.804 748.825 349.413 737.902 341.27 723.959C333.128 710.019 327.251 693.09 323.509 675.427C322.81 672.13 322.163 668.76 321.513 665.378C320.486 660.035 319.454 654.661 318.206 649.497C316.164 641.047 313.525 633.061 309.331 626.481L308.91 626.75L309.331 626.481C304.332 618.649 297.468 613.42 290.398 609.152L290.14 609.58L290.398 609.152C259.291 590.396 222.899 588.256 186.729 586.13C185.399 586.052 184.07 585.974 182.74 585.895C145.213 583.665 108.135 580.793 77.2885 558.952L76.9995 559.36L77.2884 558.952C35.6138 529.456 11.8506 468.456 4.03602 403.081C-3.77622 337.726 2.64612 267.779 10.6962 198.858C16.4277 149.845 24.1716 97.5399 49.8196 57.8014C76.9367 15.7953 119.651 -2.95065 156.726 1.02738C193.83 5.00849 226.097 28.5254 253.97 57.3677L254.33 57.0202L253.97 57.3677C261.546 65.2066 268.96 73.5179 276.397 81.854C277.509 83.1006 278.621 84.3478 279.735 85.594C288.292 95.1698 296.913 104.687 305.857 113.443C323.742 130.95 342.963 145.452 365.655 151.304C381.111 155.292 397.259 154.973 413.608 153.017C423.819 151.795 434.145 149.929 444.435 148.069C450.6 146.955 456.751 145.844 462.858 144.874L462.78 144.38L462.858 144.874C517.378 136.204 571.148 138.689 624.589 141.949C675.756 145.07 727.153 148.948 774.743 166.918C791.544 173.269 806.405 183.059 821.024 193.442C823.756 195.382 826.48 197.344 829.207 199.307C841.056 207.839 852.957 216.408 865.779 223.439C874.394 228.162 883.474 231.164 892.478 234.141C894.25 234.726 896.018 235.311 897.779 235.908C908.512 239.543 919.011 243.629 928.501 251.074C951.935 269.463 972.201 303.391 962.821 346.283C958.35 366.684 947.967 382.681 936.211 397.578C932.559 402.206 928.768 406.735 924.981 411.258C916.603 421.267 908.245 431.251 901.454 442.237C864.252 502.42 871.248 584.336 887.545 648.813C887.785 649.764 888.027 650.717 888.269 651.672C893.53 672.417 899.04 694.142 894.609 717.105C888.942 746.464 868.271 769.549 847.323 782.777C809.135 806.831 765.59 806.138 733.9 781.038C720.634 770.529 709.551 756.227 698.429 741.874C698.058 741.396 697.688 740.918 697.317 740.44C685.837 725.633 674.236 710.905 660.115 700.537C636.475 683.159 608.44 679.755 579.335 684.722C550.238 689.689 520.035 703.028 491.99 719.187C488.582 721.147 485.146 723.151 481.69 725.168C465.026 734.891 447.881 744.894 430.991 751.544C410.603 759.57 390.698 762.663 372.564 754.534Z" stroke="black"/>
<path d="M825.719 195.53L782.029 185.68C782.029 185.68 792.339 231.76 825.719 195.53Z" fill="#6C63FF"/>
<path d="M842.911 160.14L802.98 153.14C802.98 153.14 828.061 191.29 842.911 160.14Z" fill="#6C63FF"/>
<path d="M168.631 398.44C163.729 450.245 187.089 483.788 211.754 504.386C224.171 514.756 236.92 521.847 246.563 526.346C251.385 528.595 255.432 530.198 258.276 531.238C259.698 531.758 260.819 532.138 261.586 532.388C261.97 532.513 262.265 532.606 262.464 532.667C262.564 532.698 262.64 532.721 262.691 532.737L262.714 532.743C314.001 561.765 335.534 588.273 344.265 607.461C348.633 617.057 349.803 624.834 349.888 630.195C349.93 632.877 349.701 634.957 349.463 636.361C349.345 637.063 349.223 637.596 349.133 637.951C349.093 638.109 349.059 638.232 349.033 638.318L281.764 685.019C281.733 685.029 281.69 685.043 281.635 685.06C281.505 685.102 281.307 685.162 281.045 685.237C280.52 685.386 279.736 685.592 278.707 685.815C276.649 686.261 273.611 686.776 269.708 687.046C261.903 687.585 250.636 687.144 236.829 683.208C209.221 675.338 171.398 653.48 130.755 597.427C110.464 569.441 102.759 542.987 102.591 519.053C102.422 495.114 109.794 473.659 119.712 455.683C129.631 437.705 142.089 423.22 152.072 413.226C157.063 408.23 161.432 404.359 164.553 401.739C166.113 400.428 167.361 399.431 168.218 398.761C168.367 398.644 168.505 398.537 168.631 398.44Z" fill="#F8DEDC" stroke="#EE4136"/>
<path d="M763.68 33.2002H193.07V695.73H763.68V33.2002Z" fill="url(#paint0_linear)"/>
<path d="M757.041 40.9102H199.721V688H757.041V40.9102Z" fill="#D2DADD"/>
<path d="M374.271 113.85H233.381V125.07H374.271V113.85Z" fill="white"/>
<path d="M474.011 141.28H233.381V152.5H474.011V141.28Z" fill="white"/>
<path d="M730.349 103.13H630.359V189.41H730.349V103.13Z" fill="white"/>
<path d="M729.82 103.63V188.91H630.82V103.63H729.82ZM730.82 102.63H629.82V189.91H730.82V102.63Z" fill="#E2E2EC"/>
<path d="M629.359 103.13H529.369V189.41H629.359V103.13Z" fill="white"/>
<path d="M628.82 103.63V188.91H529.82V103.63H628.82ZM629.82 102.63H528.82V189.91H629.82V102.63Z" fill="#E2E2EC"/>
<path d="M730.349 190.41H630.359V276.69H730.349V190.41Z" fill="white"/>
<path d="M729.82 190.91V276.19H630.82V190.91H729.82ZM730.82 189.91H629.82V277.19H730.82V189.91Z" fill="#E2E2EC"/>
<path d="M629.359 190.41H529.369V276.69H629.359V190.41Z" fill="white"/>
<path d="M628.82 190.91V276.19H529.82V190.91H628.82ZM629.82 189.91H528.82V277.19H629.82V189.91Z" fill="#E2E2EC"/>
<path d="M528.371 190.41H428.381V276.69H528.371V190.41Z" fill="white"/>
<path d="M527.869 190.91V276.19H428.869V190.91H527.869ZM528.869 189.91H427.869V277.19H528.869V189.91Z" fill="#E2E2EC"/>
<path d="M427.381 190.41H327.391V276.69H427.381V190.41Z" fill="white"/>
<path d="M426.881 190.91V276.19H327.881V190.91H426.881ZM427.881 189.91H326.881V277.19H427.881V189.91Z" fill="#E2E2EC"/>
<path d="M326.39 190.41H226.4V276.69H326.39V190.41Z" fill="white"/>
<path d="M325.891 190.91V276.19H226.891V190.91H325.891ZM326.891 189.91H225.891V277.19H326.891V189.91Z" fill="#E2E2EC"/>
<path d="M730.349 277.68H630.359V363.96H730.349V277.68Z" fill="white"/>
<path d="M729.82 278.19V363.47H630.82V278.19H729.82ZM730.82 277.19H629.82V364.47H730.82V277.19Z" fill="#E2E2EC"/>
<path d="M629.359 277.68H529.369V363.96H629.359V277.68Z" fill="white"/>
<path d="M628.82 278.19V363.47H529.82V278.19H628.82ZM629.82 277.19H528.82V364.47H629.82V277.19Z" fill="#E2E2EC"/>
<path d="M528.371 277.68H428.381V363.96H528.371V277.68Z" fill="white"/>
<path d="M527.869 278.19V363.47H428.869V278.19H527.869ZM528.869 277.19H427.869V364.47H528.869V277.19Z" fill="#E2E2EC"/>
<path d="M427.381 277.68H327.391V363.96H427.381V277.68Z" fill="white"/>
<path d="M426.881 278.19V363.47H327.881V278.19H426.881ZM427.881 277.19H326.881V364.47H427.881V277.19Z" fill="#E2E2EC"/>
<path d="M326.39 277.68H226.4V363.96H326.39V277.68Z" fill="white"/>
<path d="M325.891 278.19V363.47H226.891V278.19H325.891ZM326.891 277.19H225.891V364.47H326.891V277.19Z" fill="#E2E2EC"/>
<path d="M730.349 364.96H630.359V451.24H730.349V364.96Z" fill="white"/>
<path d="M729.82 365.46V450.74H630.82V365.46H729.82ZM730.82 364.46H629.82V451.74H730.82V364.46Z" fill="#E2E2EC"/>
<path d="M629.359 364.96H529.369V451.24H629.359V364.96Z" fill="white"/>
<path d="M628.82 365.46V450.74H529.82V365.46H628.82ZM629.82 364.46H528.82V451.74H629.82V364.46Z" fill="#E2E2EC"/>
<path d="M528.371 364.96H428.381V451.24H528.371V364.96Z" fill="white"/>
<path d="M527.869 365.46V450.74H428.869V365.46H527.869ZM528.869 364.46H427.869V451.74H528.869V364.46Z" fill="#E2E2EC"/>
<path d="M427.381 364.96H327.391V451.24H427.381V364.96Z" fill="white"/>
<path d="M426.881 365.46V450.74H327.881V365.46H426.881ZM427.881 364.46H326.881V451.74H427.881V364.46Z" fill="#E2E2EC"/>
<path d="M326.39 364.96H226.4V451.24H326.39V364.96Z" fill="white"/>
<path d="M325.891 365.46V450.74H226.891V365.46H325.891ZM326.891 364.46H225.891V451.74H326.891V364.46Z" fill="#E2E2EC"/>
<path d="M730.349 452.23H630.359V538.51H730.349V452.23Z" fill="white"/>
<path d="M729.82 452.74V538.01H630.82V452.74H729.82ZM730.82 451.74H629.82V539.01H730.82V451.74Z" fill="#E2E2EC"/>
<path d="M629.359 452.23H529.369V538.51H629.359V452.23Z" fill="white"/>
<path d="M628.82 452.74V538.01H529.82V452.74H628.82ZM629.82 451.74H528.82V539.01H629.82V451.74Z" fill="#E2E2EC"/>
<path d="M528.371 452.23H428.381V538.51H528.371V452.23Z" fill="white"/>
<path d="M527.869 452.74V538.01H428.869V452.74H527.869ZM528.869 451.74H427.869V539.01H528.869V451.74Z" fill="#E2E2EC"/>
<path d="M427.381 452.23H327.391V538.51H427.381V452.23Z" fill="white"/>
<path d="M426.881 452.74V538.01H327.881V452.74H426.881ZM427.881 451.74H326.881V539.01H427.881V451.74Z" fill="#E2E2EC"/>
<path d="M326.39 452.23H226.4V538.51H326.39V452.23Z" fill="white"/>
<path d="M325.891 452.74V538.01H226.891V452.74H325.891ZM326.891 451.74H225.891V539.01H326.891V451.74Z" fill="#E2E2EC"/>
<path d="M730.349 539.51H630.359V625.79H730.349V539.51Z" fill="white"/>
<path d="M729.82 540.01V625.29H630.82V540.01H729.82ZM730.82 539.01H629.82V626.29H730.82V539.01Z" fill="#E2E2EC"/>
<path d="M629.359 539.51H529.369V625.79H629.359V539.51Z" fill="white"/>
<path d="M628.82 540.01V625.29H529.82V540.01H628.82ZM629.82 539.01H528.82V626.29H629.82V539.01Z" fill="#E2E2EC"/>
<path d="M528.371 539.51H428.381V625.79H528.371V539.51Z" fill="white"/>
<path d="M527.869 540.01V625.29H428.869V540.01H527.869ZM528.869 539.01H427.869V626.29H528.869V539.01Z" fill="#E2E2EC"/>
<path d="M427.381 539.51H327.391V625.79H427.381V539.51Z" fill="white"/>
<path d="M426.881 540.01V625.29H327.881V540.01H426.881ZM427.881 539.01H326.881V626.29H427.881V539.01Z" fill="#E2E2EC"/>
<path d="M326.39 539.51H226.4V625.79H326.39V539.51Z" fill="white"/>
<path d="M325.891 540.01V625.29H226.891V540.01H325.891ZM326.891 539.01H225.891V626.29H326.891V539.01Z" fill="#E2E2EC"/>
<path d="M438.193 689.518L438.192 689.517C436.281 688.919 434.281 689.145 432.327 689.828C430.371 690.512 428.493 691.645 426.851 692.817C423.563 695.164 419.616 697.932 415.055 697.417L413.772 697.272L414.818 696.515C419.168 693.366 421.197 688.296 420.017 683.735L420.014 683.723L420.011 683.711C419.82 682.782 419.35 681.934 418.663 681.279C417.673 680.411 416.24 680.133 414.663 680.288C413.09 680.442 411.447 681.024 410.14 681.773C401.723 686.639 399.331 695.956 399.281 704.523L398.299 704.655C397.843 703.023 397.811 701.373 397.883 699.757C397.909 699.153 397.95 698.564 397.99 697.981C398.059 696.971 398.127 695.98 398.121 694.973C398.101 691.861 397.064 688.57 394.015 686.972C391.975 686.09 389.767 685.666 387.545 685.73L387.53 685.73L387.515 685.73C385.586 685.67 383.572 685.721 381.723 686.067C379.872 686.412 378.223 687.047 376.99 688.126L376.99 688.127C375.475 689.449 374.91 691.215 375.06 693.045C375.212 694.888 376.09 696.79 377.461 698.304C378.849 699.837 380.611 701.097 382.545 702.253C383.842 703.029 385.193 703.745 386.551 704.465C387.228 704.823 387.906 705.183 388.58 705.551M438.193 689.518L388.58 705.551M438.193 689.518C439.698 689.985 440.967 691.014 441.734 692.391C442.502 693.768 442.71 695.387 442.317 696.914C441.534 699.854 438.974 702.325 436.121 704.49C431.515 707.886 426.508 710.7 421.213 712.87H397.269M438.193 689.518L397.269 712.87M388.58 705.551C391.641 707.221 394.837 709.218 396.751 711.964L396.752 711.966C396.95 712.253 397.123 712.555 397.269 712.87M388.58 705.551L397.269 712.87" fill="#F8DEDC" stroke="#EE4136"/>
<path d="M745.639 457.03C748.787 457.03 751.339 454.478 751.339 451.33C751.339 448.182 748.787 445.63 745.639 445.63C742.491 445.63 739.939 448.182 739.939 451.33C739.939 454.478 742.491 457.03 745.639 457.03Z" fill="#EE4136" fill-opacity="0.4"/>
<path d="M748.489 450.39C751.637 450.39 754.189 447.838 754.189 444.69C754.189 441.542 751.637 438.99 748.489 438.99C745.341 438.99 742.789 441.542 742.789 444.69C742.789 447.838 745.341 450.39 748.489 450.39Z" fill="#EE4136" fill-opacity="0.4"/>
<path d="M751.341 444.69C754.489 444.69 757.041 442.138 757.041 438.99C757.041 435.842 754.489 433.29 751.341 433.29C748.193 433.29 745.641 435.842 745.641 438.99C745.641 442.138 748.193 444.69 751.341 444.69Z" fill="#EE4136" fill-opacity="0.4"/>
<path d="M740.721 465.63C746.971 469.32 756.721 471.72 769.071 463.79L768.951 481.35C769.831 493.35 784.721 537.26 784.721 537.26L795.221 573.36C802.744 598.863 806.629 625.301 806.761 651.89C806.761 660.7 807.581 669.78 810.111 676.61C815.701 691.72 807.911 711.19 804.531 718.44C798.841 720.362 793.057 721.991 787.201 723.32C786.674 723.441 786.156 723.598 785.651 723.79L785.581 723.69C785.581 723.69 769.821 729.94 762.821 729.08C757.601 728.44 754.331 734.95 758.421 739.74C754.561 740.74 750.601 741.45 747.931 741.12C740.931 740.26 737.421 752.3 750.561 755.74C763.701 759.18 838.151 755.74 838.151 755.74C840.245 754.692 841.931 752.979 842.945 750.868C843.959 748.757 844.242 746.369 843.751 744.08C849.471 743.86 853.041 743.69 853.041 743.69C853.041 743.69 866.181 737.69 853.041 721.32L852.341 721.85L849.531 713.58V702.41C849.531 702.41 866.171 622.41 860.921 612.95C855.671 603.49 853.041 555.32 853.041 555.32L854.821 502.85C859.571 493.05 862.001 477.69 863.231 465.68C865.018 459.95 866.145 454.035 866.591 448.05C866.801 445.23 866.971 442.27 867.081 439.2C867.125 432.466 866.022 425.774 863.821 419.41C868.821 412.21 876.951 401.08 883.661 394.5C894.171 384.18 891.541 372.13 891.541 372.13L887.161 342.88L876.651 292.99C877.971 279.15 875.081 271.18 871.891 266.68C872.651 262.21 873.361 257.74 873.891 253.25C876.22 233.725 875.182 213.944 870.821 194.77C869.301 188.08 867.231 181.22 862.541 176.15C857.231 170.41 848.611 166.91 846.631 159.39C846.141 157.52 846.121 155.53 845.411 153.73C843.491 148.81 837.411 147.02 832.091 146.38C822.611 145.23 808.901 144.38 799.791 148.08C793.431 150.68 784.671 157.84 781.191 165.52C779.191 169.05 778.261 172.76 779.111 176.25C779.446 177.536 779.954 178.771 780.621 179.92C779.263 183.598 778.573 187.489 778.581 191.41C778.612 198.15 780.672 204.724 784.493 210.276C788.313 215.829 793.717 220.102 800.001 222.54C800.211 223.2 800.401 223.85 800.561 224.49C800.959 226.031 801.246 227.598 801.421 229.18C801.251 232.18 801.061 235.27 800.921 238.32C800.821 238.74 800.714 239.153 800.601 239.56C793.068 242.895 785.723 246.641 778.601 250.78C783.861 258.52 777.721 291.21 777.721 291.21C764.581 298.95 751.441 318.74 765.461 339.38C779.481 360.02 771.591 382.38 771.591 382.38L769.401 416.01V416.07L768.961 422.8H769.131L768.961 425.35L769.341 425.42V428.16C763.191 430.42 754.201 434.98 748.841 443.41C746.306 447.557 743.221 451.341 739.671 454.66C738.855 455.366 738.22 456.257 737.819 457.258C737.418 458.259 737.262 459.342 737.365 460.416C737.468 461.49 737.826 462.523 738.41 463.431C738.993 464.338 739.786 465.092 740.721 465.63ZM846.481 376.27C845.953 370.452 847.029 364.6 849.591 359.35C851.651 359.39 853.714 359.413 855.781 359.42C855.991 360.87 856.241 362.25 856.541 363.51C858.321 371.09 851.211 374.72 846.471 376.26L846.481 376.27Z" fill="url(#paint1_linear)"/>
<path d="M848.211 709.66L851.581 719.77L840.581 730.77L804.341 739.2L778.211 736.67L779.901 727.4C780.4 725.407 781.439 723.59 782.903 722.149C784.367 720.708 786.2 719.698 788.201 719.23C798.941 716.71 819.421 710.95 823.721 702.96L848.211 709.66Z" fill="#DB8B8B"/>
<path opacity="0.1" d="M848.211 709.66L851.581 719.77L840.581 730.77L804.341 739.2L778.211 736.67L779.901 727.4C780.4 725.407 781.439 723.59 782.903 722.149C784.367 720.708 786.2 719.698 788.201 719.23C798.941 716.71 819.421 710.95 823.721 702.96L848.211 709.66Z" fill="black"/>
<path d="M786.68 734.1L791.74 727.36L786.68 719.55C786.68 719.55 771.51 725.67 764.77 724.83C758.03 723.99 754.66 735.83 767.3 739.16C779.94 742.49 851.58 739.16 851.58 739.16C851.58 739.16 864.22 733.26 851.58 717.25L840.58 725.68C840.58 725.68 822.04 735.79 812.77 734.11L786.68 734.1Z" fill="#B4B7BF"/>
<path d="M763.92 748.41L790.05 750.94L826.29 742.51L837.29 731.51L836.4 728.83L835.14 725.07L833.88 721.41L809.44 714.67C808.191 716.708 806.478 718.421 804.44 719.67C796.5 725.1 782.24 729.02 773.87 730.98C773.531 731.063 773.197 731.167 772.87 731.29C771.097 731.885 769.503 732.918 768.234 734.291C766.966 735.665 766.063 737.336 765.61 739.15L763.92 748.41Z" fill="#E09285"/>
<path opacity="0.1" d="M763.92 748.41L790.05 750.94L826.29 742.51L837.29 731.51L836.4 728.83L826.34 736.57C826.34 736.57 807.8 746.68 798.53 745H772.35L777.41 738.26L772.87 731.26C771.097 731.856 769.503 732.888 768.234 734.261C766.966 735.635 766.063 737.306 765.61 739.12L763.92 748.41Z" fill="black"/>
<path d="M772.35 745.9L777.41 739.16L772.35 731.35C772.35 731.35 757.179 737.47 750.439 736.63C743.699 735.79 740.33 747.63 752.97 750.96C765.61 754.29 837.249 750.96 837.249 750.96C837.249 750.96 849.889 745.06 837.249 729.05L826.249 737.48C826.249 737.48 807.709 747.59 798.439 745.91L772.35 745.9Z" fill="#B4B7BF"/>
<path d="M793.42 257.07C793.42 257.07 833.88 261.28 827.98 244.43C826.33 239.652 825.9 234.537 826.73 229.55C827.779 223.368 830.225 217.506 833.88 212.41L795.95 218.31C798.223 222.111 799.953 226.21 801.09 230.49C805.61 248.36 793.42 257.07 793.42 257.07Z" fill="#DB8B8B"/>
<path d="M862.53 449.23C862.53 449.23 861.69 485.47 853.26 503.17L851.57 554.58C851.57 554.58 854.1 601.78 859.16 611.05C864.22 620.32 848.16 698.7 848.16 698.7V712.19C848.16 712.19 821.16 722.3 813.6 710.5L821.19 610.2L817.82 471.14L862.53 449.23Z" fill="#C3C2C6"/>
<path d="M879.391 332.92L884.451 346.41L888.661 375.07C889.23 379.062 888.838 383.133 887.518 386.944C886.198 390.754 883.987 394.195 881.071 396.98C870.961 407.09 857.471 428.16 857.471 428.16L841.471 380.16C841.471 380.16 857.471 377.63 854.961 366.67C852.451 355.71 853.261 335.41 853.261 335.41L879.391 332.92Z" fill="#E09285"/>
<path opacity="0.1" d="M804.48 719.68C815.29 736.68 832.121 727.05 835.101 725.13L833.88 721.41L809.44 714.67C808.204 716.707 806.505 718.423 804.48 719.68Z" fill="black"/>
<path d="M770.67 482.1C771.51 493.9 785.84 536.88 785.84 536.88L795.95 572.25C803.195 597.259 806.933 623.153 807.06 649.19C807.06 657.82 807.85 666.72 810.29 673.41C817.03 691.95 803.55 717.24 803.55 717.24C815.35 738.31 835.55 723.98 835.55 723.98V710.5C835.55 710.5 851.55 637.17 847.35 622.85C843.15 608.53 841.45 569.75 841.45 569.75V499.75C854.951 486.297 863.161 468.436 864.58 449.43C864.78 446.67 864.94 443.77 865.05 440.76C865.73 421.76 852.73 399.45 847.65 391.51C846.43 389.59 845.65 388.51 845.65 388.51L771.23 418.03L771.06 418.1V420.98V427.35L770.67 482.1Z" fill="#D2DADD"/>
<path opacity="0.1" d="M795.949 218.3C798.222 222.101 799.952 226.2 801.089 230.48C805.209 232.043 809.601 232.765 814.004 232.604C818.408 232.443 822.735 231.401 826.729 229.54C827.78 223.361 830.225 217.503 833.879 212.41L795.949 218.3Z" fill="black"/>
<path d="M812.809 230.93C830.963 230.93 845.679 216.214 845.679 198.06C845.679 179.906 830.963 165.19 812.809 165.19C794.656 165.19 779.939 179.906 779.939 198.06C779.939 216.214 794.656 230.93 812.809 230.93Z" fill="#DB8B8B"/>
<path opacity="0.1" d="M770.67 427.32L771.03 427.39C806.37 434.66 850.74 397.82 850.74 397.82C849.551 395.815 848.524 393.718 847.67 391.55C846.45 389.63 845.67 388.55 845.67 388.55L771.25 418.07L771.06 421.02L770.67 427.32Z" fill="#E09285"/>
<path d="M779.94 256.22C779.94 256.22 827.14 227.56 842.31 239.36L863.38 266.36C863.38 266.36 876.87 270.57 874.38 297.54L884.45 346.41L854.11 354C854.11 354 836.41 370.86 850.74 395.3C850.74 395.3 806.07 432.38 770.67 424.8L773.2 385.19C773.2 385.19 780.79 363.28 767.3 343.05C753.81 322.82 766.46 303.44 779.1 295.85C779.1 295.84 784.99 263.81 779.94 256.22Z" fill="#E09285"/>
<path d="M777.409 428.16C777.409 428.16 759.709 431.53 751.279 445.02C748.847 449.066 745.88 452.766 742.459 456.02C741.69 456.718 741.093 457.586 740.717 458.554C740.341 459.523 740.196 460.566 740.293 461.6C740.39 462.635 740.727 463.632 741.276 464.514C741.826 465.396 742.573 466.137 743.459 466.68C750.149 470.68 761.059 473.17 774.839 461.85C798.479 442.49 777.409 428.16 777.409 428.16Z" fill="#DB8B8B"/>
<path opacity="0.1" d="M803.54 272.24C803.54 272.24 820.4 270.55 824.61 314.38C828.82 358.21 835.61 368.32 835.61 368.32C835.61 368.32 839.82 391.08 829.71 404.56C819.6 418.04 800.21 446.7 800.21 446.7C800.21 446.7 779.14 452.6 774.93 431.53L801.06 382.65C801.06 382.65 805.27 365.79 795.16 353.99C785.05 342.19 777.41 263.81 803.54 272.24Z" fill="black"/>
<path d="M801.821 269.71C801.821 269.71 818.681 268.02 822.891 311.85C827.101 355.68 833.891 365.79 833.891 365.79C833.891 365.79 838.101 388.55 827.991 402.03C817.881 415.51 798.491 444.17 798.491 444.17C798.491 444.17 777.421 450.07 773.211 429L799.341 380.12C799.341 380.12 803.551 363.26 793.441 351.46C783.331 339.66 775.721 261.28 801.821 269.71Z" fill="#E09285"/>
<path opacity="0.1" d="M787.94 301.31C787.94 301.31 786.26 327.41 793.82 341.77C801.38 356.13 801.41 374.64 793.82 384.77" fill="black"/>
<path opacity="0.1" d="M783.73 269.29C783.73 269.29 790.47 262.55 809.86 261.7C829.25 260.85 837.67 254.96 837.67 254.96" fill="black"/>
<path opacity="0.1" d="M830.611 155.59C835.731 156.22 841.611 157.98 843.431 162.79C844.111 164.56 844.131 166.51 844.601 168.34C846.511 175.7 854.801 179.13 859.911 184.76C864.421 189.76 866.411 196.45 867.911 203C872.119 221.783 873.133 241.14 870.911 260.26C869.271 274.26 865.911 288 864.971 302.04C864.031 316.08 865.751 330.85 873.421 342.65C876.721 347.72 881.081 352.18 883.421 357.76C878.591 361.68 871.921 362.24 865.691 362.45C858.444 362.697 851.194 362.697 843.941 362.45C840.141 362.32 836.171 362.07 832.891 360.15C830.462 358.597 828.467 356.453 827.091 353.92C822.941 346.92 821.901 338.42 822.091 330.26C822.281 322.1 823.561 313.98 823.711 305.81C823.791 301.36 823.441 296.63 820.881 292.99C819.031 290.36 816.221 288.59 813.821 286.46C804.821 278.46 801.701 265.64 801.401 253.59C801.101 241.54 803.091 229.47 802.071 217.46C801.671 212.76 799.911 207.11 795.291 206.2C793.831 205.91 792.291 206.2 790.891 205.64C787.181 204.21 787.541 198.98 786.481 195.15C785.291 190.85 781.621 187.53 780.591 183.15C778.161 172.95 791.141 160.78 799.651 157.23C808.301 153.61 821.491 154.47 830.611 155.59Z" fill="black"/>
<path d="M831.451 153.91C836.571 154.54 842.451 156.3 844.271 161.11C844.951 162.88 844.971 164.83 845.441 166.66C847.351 174.02 855.641 177.45 860.751 183.08C865.261 188.08 867.251 194.77 868.751 201.32C872.959 220.103 873.973 239.46 871.751 258.58C870.111 272.58 866.751 286.32 865.811 300.36C864.871 314.4 866.591 329.17 874.261 340.97C877.561 346.04 881.921 350.5 884.261 356.08C879.431 360 872.761 360.56 866.531 360.77C859.284 361.017 852.034 361.017 844.781 360.77C840.981 360.64 837.011 360.39 833.731 358.47C831.302 356.917 829.307 354.773 827.931 352.24C823.781 345.24 822.741 336.74 822.931 328.58C823.121 320.42 824.401 312.3 824.551 304.13C824.631 299.68 824.281 294.95 821.721 291.31C819.871 288.68 817.061 286.91 814.661 284.78C805.661 276.78 802.541 263.96 802.241 251.91C801.941 239.86 803.931 227.79 802.911 215.78C802.511 211.08 800.751 205.43 796.131 204.52C794.671 204.23 793.131 204.52 791.731 203.96C788.021 202.53 788.381 197.3 787.321 193.47C786.131 189.17 782.461 185.85 781.431 181.47C779.001 171.27 791.981 159.1 800.491 155.55C809.141 151.92 822.331 152.78 831.451 153.91Z" fill="#9BA7AB"/>
<path d="M478 472.5C465.557 472.5 455.5 482.557 455.5 495C455.5 507.442 465.557 517.5 478 517.5C490.442 517.5 500.5 507.442 500.5 495C500.5 482.557 490.442 472.5 478 472.5ZM487.675 504.675C487.467 504.884 487.22 505.049 486.947 505.162C486.675 505.275 486.383 505.333 486.089 505.333C485.794 505.333 485.502 505.275 485.23 505.162C484.958 505.049 484.711 504.884 484.502 504.675L478 498.172L471.497 504.675C471.077 505.096 470.506 505.332 469.911 505.332C469.316 505.332 468.746 505.096 468.325 504.675C467.904 504.254 467.668 503.684 467.668 503.089C467.668 502.794 467.726 502.502 467.839 502.23C467.951 501.958 468.117 501.711 468.325 501.502L474.827 495L468.325 488.497C467.904 488.077 467.668 487.506 467.668 486.911C467.668 486.316 467.904 485.746 468.325 485.325C468.746 484.904 469.316 484.668 469.911 484.668C470.506 484.668 471.077 484.904 471.497 485.325L478 491.827L484.502 485.325C484.711 485.117 484.958 484.951 485.23 484.839C485.502 484.726 485.794 484.668 486.089 484.668C486.383 484.668 486.675 484.726 486.947 484.839C487.219 484.951 487.467 485.117 487.675 485.325C487.883 485.533 488.049 485.781 488.161 486.053C488.274 486.325 488.332 486.617 488.332 486.911C488.332 487.206 488.274 487.498 488.161 487.77C488.049 488.042 487.883 488.289 487.675 488.497L481.172 495L487.675 501.502C488.53 502.357 488.53 503.797 487.675 504.675Z" fill="#E09285"/>
<path d="M578 472.5C565.557 472.5 555.5 482.557 555.5 495C555.5 507.442 565.557 517.5 578 517.5C590.442 517.5 600.5 507.442 600.5 495C600.5 482.557 590.442 472.5 578 472.5ZM587.675 504.675C587.467 504.884 587.22 505.049 586.947 505.162C586.675 505.275 586.383 505.333 586.089 505.333C585.794 505.333 585.502 505.275 585.23 505.162C584.958 505.049 584.711 504.884 584.502 504.675L578 498.172L571.497 504.675C571.077 505.096 570.506 505.332 569.911 505.332C569.316 505.332 568.746 505.096 568.325 504.675C567.904 504.254 567.668 503.684 567.668 503.089C567.668 502.794 567.726 502.502 567.839 502.23C567.951 501.958 568.117 501.711 568.325 501.502L574.827 495L568.325 488.497C567.904 488.077 567.668 487.506 567.668 486.911C567.668 486.316 567.904 485.746 568.325 485.325C568.746 484.904 569.316 484.668 569.911 484.668C570.506 484.668 571.077 484.904 571.497 485.325L578 491.827L584.502 485.325C584.711 485.117 584.958 484.951 585.23 484.839C585.502 484.726 585.794 484.668 586.089 484.668C586.383 484.668 586.675 484.726 586.947 484.839C587.219 484.951 587.467 485.117 587.675 485.325C587.883 485.533 588.049 485.781 588.161 486.053C588.274 486.325 588.332 486.617 588.332 486.911C588.332 487.206 588.274 487.498 588.161 487.77C588.049 488.042 587.883 488.289 587.675 488.497L581.172 495L587.675 501.502C588.53 502.357 588.53 503.797 587.675 504.675Z" fill="#E09285"/>
<path d="M478 383.5C465.557 383.5 455.5 393.557 455.5 406C455.5 418.442 465.557 428.5 478 428.5C490.442 428.5 500.5 418.442 500.5 406C500.5 393.557 490.442 383.5 478 383.5ZM487.675 415.675C487.467 415.884 487.22 416.049 486.947 416.162C486.675 416.275 486.383 416.333 486.089 416.333C485.794 416.333 485.502 416.275 485.23 416.162C484.958 416.049 484.711 415.884 484.502 415.675L478 409.172L471.497 415.675C471.077 416.096 470.506 416.332 469.911 416.332C469.316 416.332 468.746 416.096 468.325 415.675C467.904 415.254 467.668 414.684 467.668 414.089C467.668 413.794 467.726 413.502 467.839 413.23C467.951 412.958 468.117 412.711 468.325 412.502L474.827 406L468.325 399.497C467.904 399.077 467.668 398.506 467.668 397.911C467.668 397.316 467.904 396.746 468.325 396.325C468.746 395.904 469.316 395.668 469.911 395.668C470.506 395.668 471.077 395.904 471.497 396.325L478 402.827L484.502 396.325C484.711 396.117 484.958 395.951 485.23 395.839C485.502 395.726 485.794 395.668 486.089 395.668C486.383 395.668 486.675 395.726 486.947 395.839C487.219 395.951 487.467 396.117 487.675 396.325C487.883 396.533 488.049 396.781 488.161 397.053C488.274 397.325 488.332 397.617 488.332 397.911C488.332 398.206 488.274 398.498 488.161 398.77C488.049 399.042 487.883 399.289 487.675 399.497L481.172 406L487.675 412.502C488.53 413.357 488.53 414.797 487.675 415.675Z" fill="#E09285"/>
<path d="M478 296.5C465.557 296.5 455.5 306.557 455.5 319C455.5 331.442 465.557 341.5 478 341.5C490.442 341.5 500.5 331.442 500.5 319C500.5 306.557 490.442 296.5 478 296.5ZM487.675 328.675C487.467 328.884 487.22 329.049 486.947 329.162C486.675 329.275 486.383 329.333 486.089 329.333C485.794 329.333 485.502 329.275 485.23 329.162C484.958 329.049 484.711 328.884 484.502 328.675L478 322.172L471.497 328.675C471.077 329.096 470.506 329.332 469.911 329.332C469.316 329.332 468.746 329.096 468.325 328.675C467.904 328.254 467.668 327.684 467.668 327.089C467.668 326.794 467.726 326.502 467.839 326.23C467.951 325.958 468.117 325.711 468.325 325.502L474.827 319L468.325 312.497C467.904 312.077 467.668 311.506 467.668 310.911C467.668 310.316 467.904 309.746 468.325 309.325C468.746 308.904 469.316 308.668 469.911 308.668C470.506 308.668 471.077 308.904 471.497 309.325L478 315.827L484.502 309.325C484.711 309.117 484.958 308.951 485.23 308.839C485.502 308.726 485.794 308.668 486.089 308.668C486.383 308.668 486.675 308.726 486.947 308.839C487.219 308.951 487.467 309.117 487.675 309.325C487.883 309.533 488.049 309.781 488.161 310.053C488.274 310.325 488.332 310.617 488.332 310.911C488.332 311.206 488.274 311.498 488.161 311.77C488.049 312.042 487.883 312.289 487.675 312.497L481.172 319L487.675 325.502C488.53 326.357 488.53 327.797 487.675 328.675Z" fill="#E09285"/>
<path d="M376 212.5C363.557 212.5 353.5 222.557 353.5 235C353.5 247.442 363.557 257.5 376 257.5C388.442 257.5 398.5 247.442 398.5 235C398.5 222.557 388.442 212.5 376 212.5ZM385.675 244.675C385.467 244.884 385.22 245.049 384.947 245.162C384.675 245.275 384.383 245.333 384.089 245.333C383.794 245.333 383.502 245.275 383.23 245.162C382.958 245.049 382.711 244.884 382.502 244.675L376 238.172L369.497 244.675C369.077 245.096 368.506 245.332 367.911 245.332C367.316 245.332 366.746 245.096 366.325 244.675C365.904 244.254 365.668 243.684 365.668 243.089C365.668 242.794 365.726 242.502 365.839 242.23C365.951 241.958 366.117 241.711 366.325 241.502L372.827 235L366.325 228.497C365.904 228.077 365.668 227.506 365.668 226.911C365.668 226.316 365.904 225.746 366.325 225.325C366.746 224.904 367.316 224.668 367.911 224.668C368.506 224.668 369.077 224.904 369.497 225.325L376 231.827L382.502 225.325C382.711 225.117 382.958 224.951 383.23 224.839C383.502 224.726 383.794 224.668 384.089 224.668C384.383 224.668 384.675 224.726 384.947 224.839C385.219 224.951 385.467 225.117 385.675 225.325C385.883 225.533 386.049 225.781 386.161 226.053C386.274 226.325 386.332 226.617 386.332 226.911C386.332 227.206 386.274 227.498 386.161 227.77C386.049 228.042 385.883 228.289 385.675 228.497L379.172 235L385.675 241.502C386.53 242.357 386.53 243.797 385.675 244.675Z" fill="#E09285"/>
</g>
<defs>
<linearGradient id="paint0_linear" x1="478.38" y1="695.72" x2="478.38" y2="33.2002" gradientUnits="userSpaceOnUse">
<stop stop-color="#808080" stop-opacity="0.25"/>
<stop offset="0.54" stop-color="#808080" stop-opacity="0.12"/>
<stop offset="1" stop-color="#808080" stop-opacity="0.1"/>
</linearGradient>
<linearGradient id="paint1_linear" x1="-281590" y1="493847" x2="-281590" y2="119448" gradientUnits="userSpaceOnUse">
<stop stop-color="#808080" stop-opacity="0.25"/>
<stop offset="0.54" stop-color="#808080" stop-opacity="0.12"/>
<stop offset="1" stop-color="#808080" stop-opacity="0.1"/>
</linearGradient>
<clipPath id="clip0">
<rect width="965.64" height="800.81" fill="white"/>
</clipPath>
</defs>
</svg>
