<svg width="15" height="15" viewBox="0 0 15 15" fill="none" xmlns="http://www.w3.org/2000/svg">
<path d="M1.34207 14.755C1.01265 14.755 0.731283 14.6383 0.497949 14.405C0.264616 14.1717 0.147949 13.8903 0.147949 13.5609V1.94912C0.147949 1.61971 0.264616 1.33834 0.497949 1.105C0.731283 0.871672 1.01265 0.755005 1.34207 0.755005H12.9538C13.2832 0.755005 13.5646 0.871672 13.798 1.105C14.0313 1.33834 14.1479 1.61971 14.1479 1.94912V13.5609C14.1479 13.8903 14.0313 14.1717 13.798 14.405C13.5646 14.6383 13.2832 14.755 12.9538 14.755H1.34207ZM1.34207 13.8285H12.9538C13.0225 13.8285 13.0842 13.8011 13.1391 13.7462C13.194 13.6913 13.2215 13.6295 13.2215 13.5609V1.94912C13.2215 1.88049 13.194 1.81873 13.1391 1.76383C13.0842 1.70893 13.0225 1.68148 12.9538 1.68148H1.34207C1.27344 1.68148 1.21167 1.70893 1.15677 1.76383C1.10187 1.81873 1.07442 1.88049 1.07442 1.94912V13.5609C1.07442 13.6295 1.10187 13.6913 1.15677 13.7462C1.21167 13.8011 1.27344 13.8285 1.34207 13.8285Z" fill="#737070"/>
<path d="M3.76333 11.755L3.14795 11.1396L6.53256 7.755L3.14795 4.37039L3.76333 3.755L7.14795 7.13962L10.5326 3.755L11.1479 4.37039L7.76333 7.755L11.1479 11.1396L10.5326 11.755L7.14795 8.37039L3.76333 11.755Z" fill="#737070"/>
</svg>
