<svg xmlns="http://www.w3.org/2000/svg" width="12.83" height="14.854" viewBox="0 0 12.83 14.854">
    <g data-name="Group 209">
        <path data-name="Path 179" d="M112.9 196.89v1.348h-8.106v9.442h-1.352v-.167c0-3.055.006-6.109 0-9.163a1.392 1.392 0 0 1 1.173-1.444c.008 0 .015-.011.023-.016z" transform="translate(-103.434 -196.89)" style="fill:#ee4136"/>
        <path data-name="Path 180" d="M128.386 217.766v4.656a1.3 1.3 0 0 1-.772 1.272 1.5 1.5 0 0 1-.613.139q-3.677.014-7.354 0a1.348 1.348 0 0 1-1.385-1.386q-.005-4.685 0-9.369a1.346 1.346 0 0 1 1.378-1.393q3.684-.01 7.368 0a1.346 1.346 0 0 1 1.377 1.408q.004 2.337.001 4.673zm-1.358 4.713v-9.432h-7.406v9.432z" transform="translate(-115.557 -208.986)" style="fill:#ee4136"/>
    </g>
</svg>
