<svg width="254" height="224" viewBox="0 0 254 224" fill="none" xmlns="http://www.w3.org/2000/svg">
<path d="M215.553 30.8916L223.687 30.5762L224.092 41.0343L215.958 41.3497L215.553 30.8916Z" fill="#E09285"/>
<path d="M186.995 67.2034C186.995 67.2034 175.73 61.8214 175.91 66.4694C176.091 71.1175 187.265 74.1755 187.265 74.1755L186.995 67.2034Z" fill="#FFB9B9"/>
<path d="M193.175 106.532C193.175 106.532 187.86 119.539 185.897 128.926C183.933 138.312 180.943 151.229 184.789 160.39C188.636 169.551 199.572 196.475 199.685 199.381C199.797 202.286 198.748 205.236 201.072 205.146C203.396 205.055 216.043 201.074 216.556 199.308C217.07 197.543 212.241 193.075 212.241 193.075L200.319 155.715L212.758 131.375L221.731 167.686L223.488 213.004C223.488 213.004 232.113 210.343 233.365 212.621C233.365 212.621 237.23 207.235 237.72 204.888C238.211 202.542 235.895 157.827 235.895 157.827C235.895 157.827 243.812 106.896 237.421 107.144C231.03 107.391 205.997 92.0695 193.175 106.532Z" fill="#D2DADD" stroke="#979797" stroke-width="0.481262"/>
<path d="M200.981 202.822C200.981 202.822 195.086 215.852 194.527 216.455C193.969 217.059 190.127 223.027 193.032 222.914C195.937 222.801 202.797 219.626 207.845 214.775C212.894 209.924 219.551 201.52 218.947 200.961C218.344 200.403 214.209 198.817 214.209 198.817L200.981 202.822Z" fill="#9BA7AB"/>
<path d="M224.537 210.054C224.537 210.054 224.181 215.886 223.11 218.255C222.038 220.624 222.173 224.11 225.078 223.998C227.983 223.885 235.491 222.43 235.491 222.43C235.491 222.43 235.937 218.922 235.333 218.363C234.73 217.805 232.158 211.504 233.252 209.716C234.347 207.928 224.537 210.054 224.537 210.054Z" fill="#9BA7AB"/>
<path d="M228.835 20.7754C228.835 20.7754 235.028 30.4272 237.442 32.6611C239.857 34.895 233.065 39.8135 233.065 39.8135L220.909 41.4486C220.909 41.4486 221.061 30.3869 220.435 29.2474C219.809 28.108 228.835 20.7754 228.835 20.7754Z" fill="#EEDBC2"/>
<path d="M218.27 33.4051C218.27 33.4051 220.775 37.963 223.099 37.8729C225.423 37.7828 237.444 32.6616 237.957 30.896C238.47 29.1305 241.939 43.543 241.939 43.543L212.524 95.3073L205.35 90.3486L208.826 59.956L211.681 43.5526L218.27 33.4051Z" fill="white"/>
<path d="M207.172 62.3477L197.966 65.0322L185.184 65.5278L183.869 76.6346L204.876 78.1475C204.876 78.1475 210.122 63.397 207.172 62.3477Z" fill="#E09285" stroke="#B77064" stroke-width="0.481262"/>
<path d="M239.041 79.7316C237.868 82.1861 237.135 84.7457 237.236 87.3661C237.241 87.4823 237.245 87.5985 237.256 87.7144C237.534 93.0919 239.515 99.311 240.226 103.834C240.742 107.078 240.595 109.446 238.696 110.003C234.093 111.345 239.367 112.304 221.559 118.232C203.75 124.159 200.643 119.043 200.597 117.881C200.552 116.719 203.12 107.891 202.516 107.333C201.912 106.774 194.071 114.643 191.702 113.571C189.333 112.499 191.432 106.599 191.432 106.599C191.432 106.599 196.769 94.1723 196.656 91.2672C196.543 88.3622 204.74 74.6611 204.74 74.6611L210.316 38.3682C210.316 38.3682 212.459 33.63 215.342 32.9364C218.224 32.2427 220.616 33.8956 220.616 33.8956L215.792 44.5565L210.703 63.3741L211.555 70.3236C211.555 70.3236 217.473 57.8746 221.359 53.0689C225.246 48.2631 233.533 36.886 233.533 36.886C233.533 36.886 235.468 30.3579 234.007 28.407C232.547 26.4504 240.1 26.1575 243.32 34.1789C245.027 38.4303 247.798 44.7701 249.534 50.6729C251.081 55.9022 251.812 60.7907 250.279 63.585C247.937 67.8538 242.045 73.4647 239.041 79.7316Z" fill="#E09285" stroke="#B77064" stroke-width="0.481262"/>
<path opacity="0.1" d="M250.279 63.5857C247.936 67.8544 242.044 73.4653 239.04 79.7323C238.256 76.9056 237.299 73.981 237.299 73.981C237.299 73.981 233.627 54.3394 244.486 49.2632C246.286 49.0893 248.085 49.5921 249.534 50.6735C251.081 55.9028 251.811 60.7914 250.279 63.5857Z" fill="black"/>
<path d="M222.186 99.6914C222.186 99.6914 209.87 101.735 212.681 105.441C215.492 109.147 226.402 105.251 226.402 105.251L222.186 99.6914Z" fill="#FFB9B9"/>
<path opacity="0.1" d="M237.257 87.7148C237.535 93.0923 239.516 99.3114 240.227 103.834C236.303 107.547 232.572 110.823 231.166 110.877C228.261 110.99 223.591 110.589 221.87 111.238C220.15 111.886 219.141 100.87 219.141 100.87C219.141 100.87 220.167 97.3385 224.748 95.4152C227.84 94.1141 233.766 90.585 237.257 87.7148Z" fill="black"/>
<path d="M244.351 45.7765C244.351 45.7765 254.183 44.2315 253.652 60.5447C253.121 76.858 254.688 87.2711 250.734 90.3338C246.78 93.3966 233.935 107.278 231.03 107.391C228.125 107.503 223.454 107.103 221.733 107.751C220.013 108.4 219.004 97.3831 219.004 97.3831C219.004 97.3831 220.031 93.852 224.611 91.9287C229.192 90.0055 239.983 83.1863 239.893 80.8623C239.803 78.5382 237.163 70.4942 237.163 70.4942C237.163 70.4942 233.492 50.8526 244.351 45.7765Z" fill="#E09285" stroke="#B77064" stroke-width="0.481262"/>
<circle cx="220.165" cy="22.2752" r="13.0324" fill="#EEDBC2" stroke="#DBC8AF" stroke-width="0.481262"/>
<path d="M211.553 3.94083C211.244 4.20666 210.875 4.39207 210.477 4.48056C210.062 4.55462 209.665 4.27942 209.588 3.86446C209.295 4.4714 208.965 5.11827 208.368 5.42971C207.77 5.74114 206.846 5.48 206.76 4.8117C206.673 5.31912 206.448 5.79298 206.111 6.1819C205.74 6.53538 205.068 6.62459 204.744 6.22758C205.006 7.65763 204.844 9.12828 204.926 10.5797C205.009 12.0312 205.396 13.57 206.492 14.5244C208.092 15.9164 210.497 15.5728 212.6 15.3091C212.918 15.2423 213.248 15.2604 213.557 15.3615C214.345 15.6971 214.309 16.7936 214.32 17.6497C214.453 20.7517 216.806 23.3042 219.887 23.6875C220.722 23.8163 221.574 23.6084 222.256 23.1093C222.853 22.6031 223.159 21.7779 223.843 21.3976C224.956 20.7789 226.307 21.6812 227.121 22.6608C227.935 23.6404 228.737 24.8454 229.998 25.0248C231.666 25.2619 232.936 23.5623 233.559 21.9973C235.296 17.566 235.169 12.6209 233.208 8.28418C229.726 0.693367 217.83 -0.507267 211.553 3.94083Z" fill="#9BA7AB" stroke="#828F93" stroke-width="0.481262"/>
<rect x="1" y="1" width="176.402" height="105.768" fill="#D2DADD" stroke="#979797" stroke-width="0.481262"/>
<circle cx="7.95294" cy="5.02521" r="1.82989" fill="white"/>
<circle cx="14.5428" cy="5.02521" r="1.82989" fill="white"/>
<circle cx="21.1307" cy="5.02521" r="1.82989" fill="white"/>
<rect opacity="0.66" x="1.14844" y="9.11719" width="176.254" height="0.731958" fill="#9BA7AB"/>
<path opacity="0.655436" d="M103.841 30.6436V63.5817H55.9598L47.1141 74.1951L48.1242 63.5817H43.8203V30.6436H103.841V30.6436Z" fill="#9BA7AB"/>
<path opacity="0.655436" d="M87.0039 46.7471H147.024V79.6852H142.72L143.731 90.2986L134.886 79.6852H87.0039V46.7471V46.7471Z" fill="#9BA7AB"/>
<ellipse opacity="0.1" cx="47.4799" cy="78.2219" rx="13.1752" ry="1.28539" fill="black"/>
<ellipse opacity="0.1" cx="143.732" cy="95.4229" rx="15.0051" ry="1.46392" fill="black"/>
</svg>
