<svg width="16" height="21" viewBox="0 0 16 21" fill="none" xmlns="http://www.w3.org/2000/svg">
<path fill-rule="evenodd" clip-rule="evenodd" d="M1 0.0109863C0.447715 0.0109863 0 0.458702 0 1.01099V19.011C0 19.5633 0.447716 20.011 1 20.011H14.5556C15.1078 20.011 15.5556 19.5633 15.5556 19.011V1.01099C15.5556 0.458702 15.1078 0.0109863 14.5556 0.0109863H1ZM3.33331 1.1221V10.011L5.55554 6.67766L7.77776 10.011V1.1221H3.33331Z" fill="white"/>
<path fill-rule="evenodd" clip-rule="evenodd" d="M1.83331 14.9652V1.51099H1.5V18.511H14.0556V1.51099H9.27776V14.9652L5.55554 9.38182L1.83331 14.9652ZM5.55554 6.67766L7.77776 10.011V1.1221H3.33331V10.011L5.55554 6.67766ZM14.5556 0.0109863C15.1078 0.0109863 15.5556 0.458702 15.5556 1.01099V19.011C15.5556 19.5633 15.1078 20.011 14.5556 20.011H1C0.447716 20.011 0 19.5633 0 19.011V1.01099C0 0.458702 0.447715 0.0109863 1 0.0109863H14.5556Z" fill="white"/>
</svg>
