<svg width="21" height="22" viewBox="0 0 21 22" fill="none" xmlns="http://www.w3.org/2000/svg">
<path d="M17.4667 8.51099C18.8658 8.51099 20 9.63027 20 11.011C20 12.3917 18.8658 13.511 17.4667 13.511C16.0676 13.511 14.9333 12.3917 14.9333 11.011C14.9333 9.63027 16.0676 8.51099 17.4667 8.51099Z" fill="white"/>
<path fill-rule="evenodd" clip-rule="evenodd" d="M15.6833 11.011C15.6833 11.9681 16.4724 12.761 17.4667 12.761C18.461 12.761 19.25 11.9681 19.25 11.011C19.25 10.0538 18.461 9.26099 17.4667 9.26099C16.4724 9.26099 15.6833 10.0538 15.6833 11.011ZM17.4667 14.261C15.6628 14.261 14.1833 12.8153 14.1833 11.011C14.1833 9.20672 15.6628 7.76099 17.4667 7.76099C19.2706 7.76099 20.75 9.20672 20.75 11.011C20.75 12.8153 19.2706 14.261 17.4667 14.261Z" fill="white"/>
<path d="M3.53335 1.01099C4.93248 1.01099 6.0667 2.13027 6.0667 3.51099C6.0667 4.8917 4.93248 6.01099 3.53335 6.01099C2.13422 6.01099 1 4.8917 1 3.51099C1 2.13027 2.13422 1.01099 3.53335 1.01099Z" fill="white"/>
<path fill-rule="evenodd" clip-rule="evenodd" d="M1.75 3.51099C1.75 4.46815 2.53903 5.26099 3.53335 5.26099C4.52767 5.26099 5.3167 4.46815 5.3167 3.51099C5.3167 2.55383 4.52767 1.76099 3.53335 1.76099C2.53903 1.76099 1.75 2.55383 1.75 3.51099ZM3.53335 6.76099C1.72941 6.76099 0.25 5.31525 0.25 3.51099C0.25 1.70672 1.72941 0.260986 3.53335 0.260986C5.33729 0.260986 6.8167 1.70672 6.8167 3.51099C6.8167 5.31525 5.33729 6.76099 3.53335 6.76099Z" fill="white"/>
<path d="M3.53335 16.011C4.93248 16.011 6.0667 17.1303 6.0667 18.511C6.0667 19.8917 4.93248 21.011 3.53335 21.011C2.13422 21.011 1 19.8917 1 18.511C1 17.1303 2.13422 16.011 3.53335 16.011Z" fill="white"/>
<path fill-rule="evenodd" clip-rule="evenodd" d="M1.75 18.511C1.75 19.4681 2.53903 20.261 3.53335 20.261C4.52767 20.261 5.3167 19.4681 5.3167 18.511C5.3167 17.5538 4.52767 16.761 3.53335 16.761C2.53903 16.761 1.75 17.5538 1.75 18.511ZM3.53335 21.761C1.72941 21.761 0.25 20.3153 0.25 18.511C0.25 16.7067 1.72941 15.261 3.53335 15.261C5.33729 15.261 6.8167 16.7067 6.8167 18.511C6.8167 20.3153 5.33729 21.761 3.53335 21.761Z" fill="white"/>
<path d="M8.59989 7.26099C10.6986 7.26099 12.3999 8.93992 12.3999 11.011C12.3999 13.0821 10.6986 14.761 8.59989 14.761C6.50119 14.761 4.79987 13.0821 4.79987 11.011C4.79987 8.93992 6.50119 7.26099 8.59989 7.26099Z" fill="white"/>
<path fill-rule="evenodd" clip-rule="evenodd" d="M5.54987 11.011C5.54987 12.6585 6.90601 14.011 8.59989 14.011C10.2938 14.011 11.6499 12.6585 11.6499 11.011C11.6499 9.36347 10.2938 8.01099 8.59989 8.01099C6.90601 8.01099 5.54987 9.36347 5.54987 11.011ZM8.59989 15.511C6.09638 15.511 4.04987 13.5056 4.04987 11.011C4.04987 8.51637 6.09638 6.51099 8.59989 6.51099C11.1034 6.51099 13.1499 8.51637 13.1499 11.011C13.1499 13.5056 11.1034 15.511 8.59989 15.511Z" fill="white"/>
<path fill-rule="evenodd" clip-rule="evenodd" d="M5.90716 8.36487L4.24866 5.90987C4.74744 5.76526 5.18233 5.47327 5.50159 5.08496L7.15982 7.53956C6.68704 7.73075 6.26197 8.01327 5.90716 8.36487ZM12.3998 11.011C12.3998 10.7541 12.3737 10.5033 12.3238 10.261H15.0491C14.9738 10.4977 14.9331 10.7497 14.9331 11.011C14.9331 11.2723 14.9738 11.5242 15.0491 11.761H12.3238C12.3737 11.5186 12.3998 11.2678 12.3998 11.011ZM5.90716 13.657C6.26197 14.0086 6.68704 14.2912 7.15982 14.4824L5.50163 16.9369C5.18236 16.5486 4.74747 16.2566 4.24869 16.112L5.90716 13.657Z" fill="white"/>
</svg>
