<svg xmlns="http://www.w3.org/2000/svg" width="9" height="16" viewBox="0 0 9 16">
    <path fill="#9C9696" fill-rule="evenodd" d="M8.627 11.152c0 2.246-1.822 4.063-4.063 4.063C2.32 15.215.5 13.398.5 11.152V3.395C.5 1.763 1.823.44 3.456.44 5.088.44 6.41 1.763 6.41 3.395v6.28c0 1.019-.828 1.846-1.847 1.846-1.02 0-1.847-.827-1.847-1.846v-5.54h1.108v5.54c0 .405.328.738.739.738.41 0 .739-.333.739-.738v-6.28c0-1.02-.828-1.846-1.847-1.846-1.02 0-1.847.827-1.847 1.846v7.757c0 1.632 1.322 2.955 2.955 2.955 1.632 0 2.955-1.323 2.955-2.955V4.134h1.108v7.018z"/>
</svg>
