<svg xmlns="http://www.w3.org/2000/svg" xmlns:xlink="http://www.w3.org/1999/xlink" width="394" height="263" viewBox="0 0 394 263">
    <defs>
        <path id="7g63ctomzb" d="M0 0L199.097 0 199.097 88.761 0 88.761z"/>
        <path id="cxs07gvikd" d="M22.608.278c-6.867 8.568-7.248 10.514.593 17.692 5.403 4.945 2.92 9.346-1.821 12.453-4.748 3.112-2.163 9.558 4.45 12.817H8.56c-6.613-3.26-9.198-9.705-4.45-12.817 4.742-3.107 7.224-7.508 1.822-12.453-7.842-7.178-7.46-9.124-.594-17.692"/>
        <linearGradient id="tyd244jc3e" x1="50%" x2="50%" y1="0%" y2="100%">
            <stop offset="0%" stop-color="#EEE" stop-opacity=".344"/>
            <stop offset="0%" stop-color="#EEE" stop-opacity=".344"/>
            <stop offset="100%" stop-color="#FFF"/>
        </linearGradient>
        <filter id="nhnn7x6bwa">
            <feColorMatrix in="SourceGraphic" values="0 0 0 0 0.823529 0 0 0 0 0.854902 0 0 0 0 0.866667 0 0 0 1.000000 0"/>
        </filter>
    </defs>
    <g fill="none" fill-rule="evenodd">
        <g>
            <g>
                <g>
                    <path fill="#F2F2F2" d="M0 262.667L394 262.667 394 0 0 0z" transform="translate(-763 -434) translate(728 354) translate(35 80)"/>
                    <path fill="#D2DADD" d="M394 0h-48.24c-24.68 15.324-28.73 50.441-75.3 50.03-55.059-.485-73.46 16.58-100.382 54.768-26.923 38.189-53.703 46.095-96.405 55.486-42.702 9.39-46.43 57.73-46.43 57.73l244.5.116s12.085-29.46 28.569-32.61c16.485-3.15 27.558-2.694 54.722-28.008 14.05-13.094 28.393-14.752 38.966-13.301V0zM394 159.008c-11.002 2.566-26.418 7.884-34.704 18.43-13.803 17.566-19.324 16.31-39.444 19.072-20.12 2.76-19.949 21.833-19.949 21.833h56.13s7.142-18.95 22.085-18.95c6.545 0 11.806-.262 15.882-.6v-39.785z" opacity=".205" transform="translate(-763 -434) translate(728 354) translate(35 80)"/>
                    <path fill="#9BA7AB" d="M24.702 212.94c-1.977 0-3.58 1.604-3.58 3.581 0 1.978 1.603 3.581 3.58 3.581H56.97c.843 0 1.526.683 1.526 1.526s-.683 1.527-1.526 1.527H10.8c-1.355 0-2.454 1.099-2.454 2.454 0 1.355 1.099 2.454 2.454 2.454h234.896c1.355 0 2.453-1.1 2.453-2.454 0-1.355-1.098-2.454-2.453-2.454H226.92c-.843 0-1.526-.684-1.526-1.527 0-.843.683-1.526 1.526-1.526h50.028c1.977 0 3.58-1.603 3.58-3.581 0-1.977-1.603-3.58-3.58-3.58H24.702zM354.963 223.155h-15.576c-.843 0-1.527-.684-1.527-1.527 0-.843.684-1.526 1.527-1.526h18.722c1.978 0 3.58-1.603 3.58-3.581 0-1.977-1.602-3.58-3.58-3.58h-58.026c-1.977 0-3.58 1.603-3.58 3.58 0 1.978 1.603 3.581 3.58 3.581h1.368c.843 0 1.527.683 1.527 1.526s-.684 1.527-1.527 1.527h-10.75c-1.354 0-2.453 1.099-2.453 2.454 0 1.355 1.099 2.454 2.454 2.454h64.261c1.356 0 2.454-1.1 2.454-2.454 0-1.355-1.098-2.454-2.454-2.454" transform="translate(-763 -434) translate(728 354) translate(35 80)"/>
                    <path fill="#D2DADD" d="M54.636 149.916c37.702-6.37 84.321-11.015 107.41-46.664 23.087-35.65-11.378-64.092-41.827-44.015-30.449 20.076-26.1 44.168-63.24 48.853-37.142 4.684-41.329 48.412-2.343 41.826M259.918 16.353c23.177-1.859 52.45 4.015 38.898 18.32s-51.446-.586-70.017 10.791c-12.676 7.766-15.81-25.346 31.119-29.11" opacity=".205" transform="translate(-763 -434) translate(728 354) translate(35 80)"/>
                    <g filter="url(#nhnn7x6bwa)" opacity=".205" transform="translate(-763 -434) translate(728 354) translate(35 80)">
                        <mask id="qobfyk7o8c" fill="#fff">
                            <use xlink:href="#7g63ctomzb"/>
                        </mask>
                        <path fill="#D2D1FB" d="M0 0v85.66c14.3 4.357 45.978 9.047 70.555-23.149 32.767-42.925 52.962-45.04 88.036-46.492C175.032 15.34 188.95 7.81 199.097 0H0z" mask="url(#qobfyk7o8c)"/>
                    </g>
                    <path fill="#FFF" d="M225.453 213.834L168.547 213.834 176.675 180.751 217.325 180.751zM235.58 218.22h-77.16c-1 0-1.812-.812-1.812-1.813v-.76c0-1.001.811-1.813 1.812-1.813h77.16c1 0 1.812.812 1.812 1.813v.76c0 1.001-.811 1.813-1.813 1.813" transform="translate(-763 -434) translate(728 354) translate(35 80)"/>
                    <path fill="#231F20" d="M225.452 213.836L168.546 213.836 168.824 212.702 225.173 212.702z" transform="translate(-763 -434) translate(728 354) translate(35 80)"/>
                    <path fill="#9BA7AB" d="M220.599 194.085L173.398 194.085 175.869 184.028 218.129 184.028z" transform="translate(-763 -434) translate(728 354) translate(35 80)"/>
                    <path fill="#FFF" d="M290.805 52.415h-187.61c-2.987 0-5.417 2.43-5.417 5.417v126.214c0 2.986 2.43 5.416 5.416 5.416h187.611c2.987 0 5.417-2.43 5.417-5.416V57.832c0-2.987-2.43-5.417-5.417-5.417" transform="translate(-763 -434) translate(728 354) translate(35 80)"/>
                    <path fill="#554D4D" d="M290.104 188.67H103.896c-2.941 0-5.326-2.384-5.326-5.326V58.534c0-2.942 2.385-5.327 5.326-5.327h186.208c2.941 0 5.326 2.385 5.326 5.326v124.811c0 2.942-2.385 5.327-5.326 5.327" transform="translate(-763 -434) translate(728 354) translate(35 80)"/>
                    <path fill="#F2F2F2" stroke="#D6DBE1" stroke-width=".8" d="M104.906 120.939L197 120.939 197 59.543 104.906 59.543zM197 120.939L289.095 120.939 289.095 59.543 197 59.543zM104.906 182.335L197 182.335 197 120.939 104.906 120.939zM197 182.335L289.095 182.335 289.095 120.939 197 120.939z" transform="translate(-763 -434) translate(728 354) translate(35 80)"/>
                    <path fill="#D2DADD" d="M170.078 104.798c-2.941-2.333-12.998-5.401-19.355-5.401-6.357 0-16.415 3.068-19.355 5.401-2.613 2.074-1.994 13.6-2.132 16.14h42.974c-.138-2.54.48-14.066-2.132-16.14" transform="translate(-763 -434) translate(728 354) translate(35 80)"/>
                    <path fill="#586569" d="M132.53 104.037c.768 4.915 5.322 7.8 9.956 7.23 4.633-.57 13.723-3.93 18.952-4.687 7.244-1.047 8 1.224 10.772 14.359 0 0 .981-12.556-.565-16.084-1.547-3.527-15.561-6.33-21.795-5.992-6.234.338-17.32 5.174-17.32 5.174" transform="translate(-763 -434) translate(728 354) translate(35 80)"/>
                    <path fill="#748388" d="M174.37 106.055c-1.512-7.053-3.257-6.464-7.537-7.776-4.013-1.23-5.692-3.257-4.728-9.3.956-5.99 1.141-12.123-.673-16.581-1.583-4.384-5.78-7.517-10.709-7.517-4.884 0-9.048 3.076-10.664 7.395h-.001c-.01.024-.018.05-.028.073v.002c-1.835 4.463-1.65 10.618-.691 16.628.964 6.043-1.883 10.665-5.297 12.579-4.417 2.475 1.307 9.797 10.92 7.767 9.611-2.03 22.486-7.254 24.283-2.716 3.123 7.882 2.965 14.33 2.965 14.33s3.73-7.551 2.16-14.884" transform="translate(-763 -434) translate(728 354) translate(35 80)"/>
                    <path fill="#231F20" d="M158.96 81.934c0 6.572-3.688 13.7-8.237 13.7-4.55 0-8.237-7.128-8.237-13.7 0-6.571 3.687-11.071 8.237-11.071 4.55 0 8.237 4.5 8.237 11.071" transform="translate(-763 -434) translate(728 354) translate(35 80)"/>
                    <path fill="#EEDBC2" d="M158.96 81.212c0 6.143-3.688 12.807-8.237 12.807-4.55 0-8.237-6.664-8.237-12.807 0-6.142 3.687-10.35 8.237-10.35 4.55 0 8.237 4.208 8.237 10.35" transform="translate(-763 -434) translate(728 354) translate(35 80)"/>
                    <path fill="#A2B3B9" d="M150.723 72.022c4.405 0 8.003 3.946 8.226 9.774.007-.195.011-.39.011-.584 0-6.142-3.687-10.35-8.237-10.35-4.55 0-8.237 4.208-8.237 10.35 0 .194.003.389.01.584.224-5.828 3.821-9.774 8.227-9.774" transform="translate(-763 -434) translate(728 354) translate(35 80)"/>
                    <path fill="#231F20" d="M135.667 120.939L136.056 115.344 136.446 120.939zM165 120.939L165.389 115.344 165.778 120.939z" transform="translate(-763 -434) translate(728 354) translate(35 80)"/>
                    <path fill="#A2B3B9" d="M146.69 97.03c-.309-.062-4.654-1.02-7.166-5.891-.008-.696-.066-1.419-.185-2.161-.039-.24-.078-.479-.109-.719.518 2.81 3.521 7.777 7.46 8.77M162.132 88.808c-.008.058-.02.112-.027.17-.132.827-.216 1.577-.251 2.261v.004c-2.118 5.006-6.764 6.807-7.077 6.923 3.111-1.643 6.795-5.713 7.355-9.358" transform="translate(-763 -434) translate(728 354) translate(35 80)"/>
                    <path fill="#000" d="M148.99 89.023c.6.132 1.181.216 1.76.191.29-.004.575-.05.858-.118.287-.06.556-.18.847-.288-.216.217-.474.41-.77.523-.29.123-.607.189-.923.2-.316.008-.632-.025-.932-.111-.3-.085-.591-.21-.84-.397" transform="translate(-763 -434) translate(728 354) translate(35 80)"/>
                    <path fill="#9BA7AB" d="M163.472 152.287c-1.136-7.179-1.753-17.305-3.846-20.128-1.784-2.921-5-4.87-8.673-4.87s-6.89 1.949-8.673 4.87c-2.093 2.823-2.71 12.95-3.847 20.128-1.136 7.178-3.05 12.801-6.64 16.69 0 0 19.16-.016 19.16 0 0-.016 19.16 0 19.16 0-3.59-3.889-5.504-9.512-6.64-16.69" transform="translate(-763 -434) translate(728 354) translate(35 80)"/>
                    <path fill="#EEDBC2" d="M139.308 182.335h-9.676c-.007-1.413.008-3.871.07-6.676.018-.88.062-1.668.128-2.377.441-4.798 1.913-5.81 4.034-5.97h.026c1.847-.124 5.111 1.917 5.111 5.276 0 .212 0 .442.004.694.033 2.26.187 6.435.303 9.053M172.273 182.334h-9.676c.117-2.618.274-6.793.303-9.053.003-.252.003-.482.003-.694 0-3.374 3.294-5.418 5.138-5.276 2.122.16 3.593 1.172 4.035 5.97.066.708.11 1.497.128 2.377.062 2.804.077 5.263.07 6.676" transform="translate(-763 -434) translate(728 354) translate(35 80)"/>
                    <path fill="#586569" d="M139.308 182.335h-5.154c-.205-5.729 1.63-7.642 1.909-9.907.385-3.134-2.093-5.036-2.173-5.116 1.847-.124 5.111 1.917 5.111 5.276 0 .212 0 .442.004.694.033 2.26.187 6.435.303 9.053M162.623 182.335h5.154c.205-5.729-1.63-7.642-1.908-9.907-.386-3.134 2.092-5.036 2.173-5.116-1.848-.124-5.113 1.917-5.113 5.276 0 .212 0 .442-.003.694-.033 2.26-.187 6.435-.303 9.053" transform="translate(-763 -434) translate(728 354) translate(35 80)"/>
                    <path fill="#E4CCAD" d="M158.591 163.24s-2.19 3.382-7.638 3.382c-5.452 0-7.643-3.381-7.643-3.381 1.267-.537 3.571-1.764 3.725-3.798.065-.894.084-1.774-.019-2.71-.127-1.193-.453-2.475-1.117-3.975h10.103c-.664 1.5-.989 2.782-1.117 3.976-.102.935-.084 1.815-.018 2.71.153 2.033 2.457 3.26 3.724 3.797" transform="translate(-763 -434) translate(728 354) translate(35 80)"/>
                    <path fill="#EEDBC2" d="M158.595 149.336c-.347-.01-.595-.135-.77-.336-1.402 4.357-4.56 7.424-6.872 7.424-2.315 0-5.474-3.067-6.872-7.424-.12.135-.27.238-.467.289-.092.029-.194.043-.307.047-2.093.055-3.655-5.301-2.26-5.634.861-.208 1.752.376 2.314.858 7.055-3.585 8.483-8.613 8.483-8.613.168-.033.153 3.078 6.528 5.951.117.825.176 1.68.176 2.556 0 .037-.004.07-.004.106.559-.482 1.453-1.066 2.311-.858 1.395.333-.164 5.689-2.26 5.634" transform="translate(-763 -434) translate(728 354) translate(35 80)"/>
                    <path fill="#748388" d="M168.04 166.873c-1.806-.956-6.794-3.393-8.792-4.365-.493-.24-1.077-.17-1.507.17-1.365 1.083-4.33 3.003-6.79 3.003s-5.425-1.92-6.79-3.002c-.43-.341-1.013-.411-1.507-.171-1.998.972-6.986 3.409-8.791 4.365-.199.106-.168.4.05.46 1.328.366 4.018 4.035 2.918 6.784-2.092 5.23-.652 8.211-.652 8.211s14.537.014 14.772 0c.236.014 14.772 0 14.772 0s1.44-2.98-.652-8.211c-1.1-2.749 1.59-6.418 2.919-6.784.217-.06.248-.354.05-.46" transform="translate(-763 -434) translate(728 354) translate(35 80)"/>
                    <path fill="#E4CCAD" d="M158.372 141.898c-3.578-.584-6.58-3.691-6.58-3.691-2.044 4.55-8.43 6.353-8.43 6.353 7.054-3.585 8.482-8.613 8.482-8.613.167-.033.153 3.078 6.528 5.951" transform="translate(-763 -434) translate(728 354) translate(35 80)"/>
                    <path fill="#FFF" d="M150.951 152.013c-.646 0-1.259-.096-1.816-.266.004.874.815 1.582 1.816 1.582 1 0 1.811-.708 1.816-1.582-.557.17-1.17.266-1.816.266" transform="translate(-763 -434) translate(728 354) translate(35 80)"/>
                    <path fill="#9BA7AB" d="M260 145.136c-4.35-2.558-5.998-7.3-6.597-9.553-1.058-4.746-5.293-8.295-10.359-8.295-5.065 0-9.299 3.549-10.358 8.295-.599 2.254-2.246 6.995-6.597 9.553-4.362 2.565-4.992 8.187-2.763 12.501 2.23 4.313 8.24 4.798 11.099 3.392 2.859-1.405 8.62-1.405 8.62-1.405s5.76 0 8.62 1.405c2.86 1.406 8.869.921 11.098-3.392 2.23-4.314 1.6-9.936-2.762-12.5" transform="translate(-763 -434) translate(728 354) translate(35 80)"/>
                    <path fill="#E4CCAD" d="M245.866 157.512c-.064-2.515.403-5.941.403-5.941h-6.448s.466 3.426.402 5.941c-.057 2.258-2.89 3.002-2.89 3.002s1.992 2.94 5.712 2.94c3.72 0 5.712-2.94 5.712-2.94s-2.833-.744-2.89-3.002" transform="translate(-763 -434) translate(728 354) translate(35 80)"/>
                    <path fill="#EEDBC2" d="M250.865 147.775c-.266-.007-.445-.195-.562-.492-1.612 4.185-4.75 7.573-7.253 7.573-2.51 0-5.648-3.392-7.26-7.585-.117.305-.296.497-.562.504-1.327.035-2.861-4.832-1.975-5.344.422-.242.999-.086 1.495.145 0 0 10.09-1.128 12.288-7.16 0 0 1.46 4.107 3.766 5.522.338.207.566.557.566.953v.033c0 .215-.008.433-.02.648.493-.227 1.07-.383 1.488-.14.886.51-.644 5.378-1.971 5.343" transform="translate(-763 -434) translate(728 354) translate(35 80)"/>
                    <path fill="#FFF" d="M248.018 159.543c-.173-.034-.346.042-.442.195-.44.7-1.881 2.614-4.531 2.614-2.65 0-4.092-1.913-4.531-2.614-.096-.153-.27-.23-.443-.195-3.08.612-7.287 1.829-7.287 1.829v20.964h24.522v-20.964s-4.208-1.217-7.288-1.829" transform="translate(-763 -434) translate(728 354) translate(35 80)"/>
                    <path fill="#E7F2F8" d="M248.768 159.7c-.555 1.054-2.26 3.618-5.723 3.618-3.462 0-5.168-2.564-5.722-3.618.254-.055.508-.11.75-.156.17-.035.347.043.44.195.442.698 1.882 2.612 4.532 2.612 2.65 0 4.09-1.914 4.532-2.612.094-.152.27-.23.441-.195.242.047.496.101.75.156" transform="translate(-763 -434) translate(728 354) translate(35 80)"/>
                    <path fill="#748388" d="M237.85 159.875c-.059-.263-.308-.429-.563-.382-1.674.31-7.52 1.424-9.65 2.242-2.498.959-3.513 4.015-4.252 8.538-.77 4.712-1.877 12.062-1.877 12.062h16.918s1.285-14.076-.577-22.46M248.245 159.875c.058-.263.307-.429.562-.382 1.675.31 7.521 1.424 9.651 2.242 2.498.959 3.512 4.015 4.252 8.538.77 4.712 1.877 12.062 1.877 12.062h-16.919s-1.284-14.076.577-22.46" transform="translate(-763 -434) translate(728 354) translate(35 80)"/>
                    <path fill="#231F20" d="M256.512 182.329L257.431 174.97 257.484 182.335zM229.577 182.329L228.659 174.97 228.606 182.335z" transform="translate(-763 -434) translate(728 354) translate(35 80)"/>
                    <path fill="#E4CCAD" d="M250.871 140.987c-1.51-.48-3.954-3.31-3.954-3.31-4.043 5.047-12.17 4.899-12.17 4.899s10.09-1.128 12.287-7.16c0 0 1.464 4.107 3.767 5.52.024.016.047.032.07.051" transform="translate(-763 -434) translate(728 354) translate(35 80)"/>
                    <path fill="#FFF" d="M244.515 149.404c-.45.11-.946.172-1.47.172-.525 0-1.02-.062-1.47-.172-.031.166-.052.337-.052.516 0 1.158.681 2.095 1.522 2.095.84 0 1.522-.937 1.522-2.095 0-.18-.021-.35-.052-.516" transform="translate(-763 -434) translate(728 354) translate(35 80)"/>
                    <path fill="#E4CCAD" d="M245.929 95.107c-.68-1.907 0-6.576 0-6.576h-5.763s.68 4.669 0 6.576-4.008 2.335-4.008 2.335 2.74 3.485 6.89 3.485c4.15 0 6.888-3.485 6.888-3.485s-3.327-.428-4.007-2.335" transform="translate(-763 -434) translate(728 354) translate(35 80)"/>
                    <path fill="#748388" d="M253.592 98.646s-3.795-1.513-5.5-1.959c-.134-.034-.27.028-.33.152-.33.687-1.606 2.827-4.715 2.827-3.108 0-4.386-2.14-4.715-2.827-.06-.124-.196-.186-.328-.152-1.706.446-5.502 1.96-5.502 1.96l-1.67 22.292h24.43l-1.67-22.293z" transform="translate(-763 -434) translate(728 354) translate(35 80)"/>
                    <path fill="#A2B3B9" d="M248.871 96.915c-.452.923-2.156 3.805-5.822 3.805-3.67 0-5.374-2.882-5.827-3.805.287-.092.552-.17.78-.229.133-.033.269.03.328.155.332.684 1.608 2.827 4.719 2.827 3.106 0 4.384-2.143 4.715-2.827.058-.125.195-.188.327-.155.228.06.494.137.78.229" transform="translate(-763 -434) translate(728 354) translate(35 80)"/>
                    <path stroke="#000" d="M235.227 78.496L235.205 78.496" transform="translate(-763 -434) translate(728 354) translate(35 80)"/>
                    <path fill="#9BA7AB" d="M233.414 79.236c-1.518-2.54-3.639-4.67-2.275-7.357 1.364-2.686 2.687-2.397 3.265-4.794.58-2.397 5.49-6.21 8.466-3.812 2.976 2.397 4.736 2.775 7.091 2.154 2.356-.62 6.307.707 4.695 4.551-1.612 3.844-1.369 3.3-.666 5.241.703 1.943.133 3.27-1.336 4.18-1.47.911-17.081 3.45-19.24-.163" transform="translate(-763 -434) translate(728 354) translate(35 80)"/>
                    <path fill="#EEDBC2" d="M251.897 83.156c-.538.751-1.35 1.2-1.767.98-1.262 4.034-3.96 7.335-7.082 7.335-3.128 0-5.826-3.306-7.085-7.343-.103.062-.235.077-.383.055-.43-.062-.997-.46-1.405-1.027-.737-1.03-1.208-5.267-.118-5.237.508.01.887.283 1.148.577l.022.026c.103.008.203.008.302.008 3.276 0 5.157-2.993 6.927-4.921 3.118-3.402 5.12.305 5.12.305s2.11-.07 2.124 1.988c.007 1.207 1.166 2.594 1.166 2.594.262-.29.64-.566 1.149-.577 1.09-.03.618 4.207-.118 5.237" transform="translate(-763 -434) translate(728 354) translate(35 80)"/>
                    <path fill="#FFF" d="M237.722 96.787c.084.666.567 3.276 3.086 4.695.201.113.326.32.312.55-.138 2.265-.942 14.177-2.777 18.907h-14.356s.955-12.203 1.626-15.556c.666-3.332 3.447-6.395 11.934-8.71.08-.022.165.03.175.114" transform="translate(-763 -434) translate(728 354) translate(35 80)"/>
                    <path fill="#E7F2F8" d="M241.12 102.03c-.14 2.268-.942 14.178-2.775 18.908h-1.388c2.465-6.744 3.055-16.525 3.147-18.39.01-.194-.097-.366-.264-.462-2.258-1.293-2.944-4.334-3.096-5.19.262-.074.532-.152.806-.226.08-.021.162.031.173.113.083.663.564 3.277 3.084 4.7.203.113.328.32.313.548" transform="translate(-763 -434) translate(728 354) translate(35 80)"/>
                    <path fill="#4987B2" d="M244.976 102.03c.14 2.268.943 14.178 2.775 18.908h1.388c-2.465-6.744-3.055-16.525-3.147-18.39-.01-.194.097-.366.264-.462 2.258-1.293 2.944-4.334 3.097-5.19-.263-.074-.533-.152-.807-.226-.08-.021-.162.031-.172.113-.084.663-.564 3.277-3.085 4.7-.202.113-.327.32-.313.548" transform="translate(-763 -434) translate(728 354) translate(35 80)"/>
                    <path fill="#FFF" d="M248.372 96.787c-.084.666-.567 3.276-3.086 4.695-.2.113-.326.32-.312.55.139 2.265.942 14.177 2.778 18.907h14.355s-.955-12.203-1.625-15.556c-.667-3.332-3.447-6.395-11.934-8.71-.081-.022-.166.03-.176.114" transform="translate(-763 -434) translate(728 354) translate(35 80)"/>
                    <path fill="#586569" d="M250.889 78.474l-.023.056c-.213-.078-1.649-1.48-1.649-2.768 0-1.285-1.998-1.55-1.998-1.55-2.01-1.678-3.585-.876-5.985 2.194-2.4 3.07-6.033 2.124-6.033 2.124v-.037l.004.004.022.025c.104.008.203.008.302.008 3.276 0 5.157-2.993 6.927-4.921 3.118-3.401 5.12.305 5.12.305s2.109-.07 2.124 1.988c.007 1.207 1.166 2.595 1.166 2.595l.023-.023" transform="translate(-763 -434) translate(728 354) translate(35 80)"/>
                    <path fill="#231F20" d="M229.756 120.938L230.684 115.18 230.684 120.938zM256.339 120.938L255.411 115.18 255.411 120.938z" transform="translate(-763 -434) translate(728 354) translate(35 80)"/>
                    <path fill="#E7F2F8" d="M244.976 102.03c.14 2.268.943 14.178 2.775 18.908h1.388c-2.465-6.744-3.055-16.525-3.147-18.39-.01-.194.097-.366.264-.462 2.258-1.293 2.944-4.334 3.097-5.19-.263-.074-.533-.152-.807-.226-.08-.021-.162.031-.172.113-.084.663-.564 3.277-3.085 4.7-.202.113-.327.32-.313.548" transform="translate(-763 -434) translate(728 354) translate(35 80)"/>
                    <path fill="#FFF" d="M245.435 86.49c0 1.128-1.069 2.041-2.387 2.041s-2.387-.913-2.387-2.04h4.774zM211.04 56.024H182.96c-1.993 0-3.608-1.616-3.608-3.609 0-1.993 1.615-3.608 3.608-3.608h28.082c1.993 0 3.608 1.615 3.608 3.608s-1.615 3.609-3.608 3.609" transform="translate(-763 -434) translate(728 354) translate(35 80)"/>
                    <path fill="#EE4136" d="M185.625 52.415c0 1.317-1.068 2.385-2.385 2.385-1.317 0-2.384-1.068-2.384-2.385 0-1.317 1.067-2.384 2.384-2.384s2.385 1.067 2.385 2.384M189.22 52.724c0 .573-.464 1.038-1.037 1.038s-1.038-.465-1.038-1.038.465-1.038 1.038-1.038 1.038.465 1.038 1.038" transform="translate(-763 -434) translate(728 354) translate(35 80)"/>
                    <path fill="#D2DADD" d="M359.968 148.754c-4.294 8.298-11.257 13.223-15.563 10.994-1.789-.921-2.834-2.927-3.137-5.556-.434-3.709.605-8.64 3.11-13.499.914-1.775 1.953-3.393 3.071-4.82 4.07-5.253 9.106-7.929 12.493-6.173 4.3 2.222 4.313 10.75.026 19.054" transform="translate(-763 -434) translate(728 354) translate(35 80)"/>
                    <path fill="#748388" d="M319.531 146.506c-.506 2.3-1.61 4.01-3.294 4.773-.841.381-1.762.5-2.735.381-3.61-.434-7.87-4.122-10.98-9.632-.454-.796-.881-1.63-1.276-2.505-3.873-8.502-3.432-17.023.973-19.029 3.873-1.762 9.507 2.071 13.446 8.778.552.934 1.072 1.933 1.545 2.979 2.393 5.26 3.143 10.526 2.321 14.255" transform="translate(-763 -434) translate(728 354) translate(35 80)"/>
                    <path fill="#231F20" d="M317.21 132.25c2.394 5.26 3.143 10.527 2.32 14.255-1.682-3.327-2.918-7.239-3.503-11.5-.27-1.952-.388-3.872-.362-5.733.552.934 1.072 1.933 1.545 2.979M347.449 135.874c.04 7.732-2.315 14.478-6.18 18.318-.435-3.709.605-8.64 3.11-13.499.913-1.775 1.952-3.393 3.07-4.82" transform="translate(-763 -434) translate(728 354) translate(35 80)"/>
                    <path fill="#9BA7AB" d="M345.726 130.789c1.71 12.42-3.255 23.363-11.091 24.442-7.836 1.079-15.575-8.115-17.285-20.535-1.71-12.42 3.255-23.363 11.091-24.442 7.836-1.08 15.575 8.114 17.285 20.535" transform="translate(-763 -434) translate(728 354) translate(35 80)"/>
                    <path fill="#231F20" d="M313.502 151.66c-3.61-.433-7.87-4.122-10.981-9.632 2.433 1.038 5.037 2.807 7.404 5.187 1.42 1.428 2.623 2.94 3.577 4.445" transform="translate(-763 -434) translate(728 354) translate(35 80)"/>
                    <path fill="#748388" d="M308.611 147.217c5.63 5.656 7.816 12.607 4.882 15.526-2.933 2.92-9.875.7-15.504-4.955-5.63-5.655-7.816-12.607-4.882-15.526 2.933-2.919 9.874-.7 15.504 4.955" transform="translate(-763 -434) translate(728 354) translate(35 80)"/>
                    <path fill="#F4F5E7" d="M330.836 191.767c1.237-6.137 2.042-12.417 2.58-18.689.525-6.28.722-12.59.611-18.895-.05-1.576-.045-3.154-.14-4.728l-.288-4.723c-.035-.788-.12-1.572-.203-2.356l-.243-2.354c-.16-1.57-.308-3.14-.573-4.697l-.705-4.681c-.293-1.55-.626-3.093-.937-4.641l-.474-2.32-.603-2.29-1.216-4.58 1.295 4.558.644 2.282.515 2.314c.338 1.544.698 3.084 1.018 4.632l.789 4.678c.292 1.556.468 3.128.655 4.698l.285 2.356c.098.785.196 1.57.245 2.36l.371 4.733c.122 1.577.145 3.16.222 4.741.221 6.326.134 12.666-.284 18.987-.435 6.325-1.126 12.615-2.278 18.888l-1.286-.273zM326.622 183.239c-1.561-4.86-3.178-9.712-4.822-14.55-1.649-4.838-3.32-9.668-5.054-14.476-1.737-4.807-3.494-9.608-5.351-14.37-1.858-4.762-3.773-9.502-5.853-14.174 2.18 4.626 4.198 9.328 6.158 14.052 1.96 4.725 3.821 9.49 5.662 14.263 1.837 4.774 3.614 9.571 5.368 14.377 1.75 4.808 3.47 9.624 5.14 14.465l-1.248.413zM323.578 185.113c-1.239-3.617-2.855-7.18-4.637-10.616-1.783-3.444-3.773-6.788-5.977-9.988l-.816-1.207-.863-1.174c-.581-.779-1.143-1.573-1.741-2.34-1.23-1.504-2.412-3.052-3.738-4.478-2.54-2.954-5.388-5.62-8.295-8.217 2.976 2.512 5.908 5.104 8.539 7.995 1.37 1.395 2.6 2.914 3.88 4.393.622.753 1.208 1.535 1.815 2.302l.902 1.157.855 1.191c2.31 3.159 4.41 6.472 6.309 9.9 1.901 3.434 3.62 6.942 5.015 10.667l-1.248.415zM334.442 190.945c.998-5.022 2.247-9.953 3.631-14.859 1.41-4.894 2.933-9.758 4.75-14.517.42-1.202.93-2.371 1.397-3.555.474-1.181.943-2.365 1.483-3.518.527-1.16 1.032-2.328 1.575-3.479L349 147.61c2.398-4.486 5.104-8.827 8.417-12.692-3.229 3.936-5.831 8.322-8.124 12.842l-1.642 3.432c-.517 1.157-.995 2.333-1.495 3.498-.512 1.16-.954 2.349-1.4 3.536-.44 1.189-.923 2.362-1.314 3.569-1.708 4.775-3.12 9.652-4.417 14.552-1.27 4.903-2.412 9.86-3.288 14.828l-1.295-.23z" transform="translate(-763 -434) translate(728 354) translate(35 80)"/>
                    <path fill="#9BA7AB" d="M353.16 180.564h-48.128c-1.035 0-1.874-.838-1.874-1.873v-6.098c0-1.034.84-1.873 1.874-1.873h48.129c1.034 0 1.873.839 1.873 1.873v6.098c0 1.035-.839 1.873-1.873 1.873" transform="translate(-763 -434) translate(728 354) translate(35 80)"/>
                    <path fill="#FFF" d="M341.08 218.22h-23.968c-2.753 0-5.081-2.04-5.443-4.77l-4.354-32.886h43.563l-4.355 32.886c-.361 2.73-2.689 4.77-5.443 4.77" transform="translate(-763 -434) translate(728 354) translate(35 80)"/>
                    <path fill="#9BA7AB" d="M307.315 180.564L350.878 180.564 349.565 190.475 307.669 183.239z" opacity=".308" transform="translate(-763 -434) translate(728 354) translate(35 80)"/>
                    <path fill="#D2DADD" d="M180.855 33.89c15.742-8.577 20.484 5.522 8.366 10.54-12.118 5.02-19.419-4.516-8.366-10.54" opacity=".205" transform="translate(-763 -434) translate(728 354) translate(35 80)"/>
                    <g transform="translate(-763 -434) translate(728 354) translate(35 80) translate(42.319 158.2)">
                        <mask id="qorif15cdf" fill="#fff">
                            <use xlink:href="#cxs07gvikd"/>
                        </mask>
                        <path fill="url(#tyd244jc3e)" d="M21.38 30.423c4.741-3.107 7.224-7.508 1.821-12.453-7.841-7.178-7.46-9.124-.593-17.692H5.338c-6.867 8.568-7.248 10.514.594 17.692 5.402 4.945 2.92 9.346-1.823 12.453-4.747 3.112-2.162 9.558 4.45 12.817h17.27c-6.612-3.26-9.197-9.705-4.45-12.817" mask="url(#qorif15cdf)"/>
                    </g>
                    <path fill="#586569" d="M42.683 203.913c-3.386 0-6.141 2.755-6.141 6.14 0 3.387 2.755 6.142 6.14 6.142 3.386 0 6.141-2.755 6.141-6.141s-2.755-6.141-6.14-6.141m0 15.029c-4.901 0-8.888-3.987-8.888-8.888s3.987-8.888 8.888-8.888c4.9 0 8.888 3.987 8.888 8.888s-3.988 8.888-8.888 8.888" transform="translate(-763 -434) translate(728 354) translate(35 80)"/>
                    <path fill="#231F20" d="M51.569 210.052c0 4.902-3.984 8.89-8.886 8.89-.196 0-.392-.008-.585-.024v-2.75c.193.018.389.026.585.026 3.387 0 6.138-2.755 6.138-6.142 0-3.383-2.75-6.138-6.138-6.138-.196 0-.392.008-.585.027v-2.751c.193-.016.389-.023.585-.023 4.902 0 8.886 3.987 8.886 8.885" transform="translate(-763 -434) translate(728 354) translate(35 80)"/>
                    <path fill="#FFF" d="M68.578 201.03v16.705c0 4.323-3.506 7.829-7.829 7.829h-9.857c-4.323 0-7.829-3.506-7.829-7.83V201.03c0-1.401 1.138-2.54 2.543-2.54h20.43c1.404 0 2.542 1.139 2.542 2.54" transform="translate(-763 -434) translate(728 354) translate(35 80)"/>
                    <path fill="#AEB8BC" d="M43.063 211.84L68.578 211.84 68.578 206.466 43.063 206.466zM43.063 215.469L68.578 215.469 68.578 213.492 43.063 213.492z" transform="translate(-763 -434) translate(728 354) translate(35 80)"/>
                </g>
            </g>
        </g>
    </g>
</svg>
