<svg width="31" height="27" viewBox="0 0 31 27" fill="none" xmlns="http://www.w3.org/2000/svg">
<path d="M28.512 11.2721C26.718 9.4127 24.7287 7.93311 22.5442 6.83333C20.3597 5.73356 18.0116 5.18367 15.5 5.18367C14.8035 5.18367 14.1334 5.22903 13.4896 5.31973C12.8459 5.41043 12.3024 5.52381 11.8592 5.65986L10.0862 3.78912C10.8461 3.51701 11.6798 3.30159 12.5873 3.14286C13.4949 2.98413 14.4658 2.90476 15.5 2.90476C18.3282 2.90476 20.9823 3.51701 23.4623 4.7415C25.9423 5.96599 28.1215 7.60998 30 9.67347L28.512 11.2721ZM23.2565 16.9184C22.7289 16.3515 22.2487 15.898 21.816 15.5578C21.3834 15.2177 20.8293 14.8776 20.1539 14.5374L17.2729 11.4422C18.687 11.5329 19.9956 11.924 21.1987 12.6156C22.4017 13.3073 23.552 14.2313 24.6496 15.3878L23.2565 16.9184ZM25.7576 26L14.1386 13.483C12.8934 13.6871 11.7273 14.1066 10.6403 14.7415C9.55331 15.3764 8.61936 16.1361 7.83843 17.0204L6.35044 15.4218C7.17358 14.5374 8.07587 13.7664 9.05731 13.1088C10.0388 12.4512 11.1521 11.941 12.3974 11.5782L8.15502 7.02041C7.14192 7.4966 6.13937 8.11451 5.14738 8.87415C4.15539 9.63379 3.26892 10.4331 2.48799 11.2721L1 9.67347C1.82314 8.76644 2.71488 7.93311 3.67522 7.17347C4.63555 6.41383 5.58006 5.78458 6.50873 5.28571L3.53275 2.12245L4.57751 1L26.8024 24.8776L25.7576 26ZM15.5 25.2517L11.5426 21C12.0702 20.4331 12.6665 19.9966 13.3313 19.6905C13.9962 19.3844 14.7191 19.2313 15.5 19.2313C16.2809 19.2313 17.0038 19.3844 17.6687 19.6905C18.3335 19.9966 18.9298 20.4331 19.4574 21L15.5 25.2517Z" fill="#EE4136" stroke="#EE4136" stroke-width="0.75"/>
</svg>
