<svg width="24" height="24" viewBox="0 0 24 24" fill="none" xmlns="http://www.w3.org/2000/svg">
<path d="M6.78699 17.7902C6.10601 17.7902 5.55078 18.2615 5.55078 18.8464C5.55078 19.244 5.80852 19.5846 6.19201 19.7664L10.9713 22.0432C11.3505 22.2332 11.7783 22.3329 12.2136 22.3328C12.5045 22.3328 12.7823 22.2874 13.04 22.2079L14.6727 21.8048V17.7847C14.6795 17.7902 6.79324 17.7902 6.78674 17.7902H6.78699Z" fill="url(#paint0_linear_1335_39612)"/>
<path d="M12.9337 1.08513C12.7079 1.02783 12.4742 0.999177 12.2394 1.00002C11.8494 1.00002 11.4595 1.06824 11.109 1.22712C11.0365 1.25557 3.33522 4.97459 3.33522 4.97459C3.22947 5.02015 3.13022 5.07681 3.03773 5.1337C3.02473 5.13926 3.01798 5.14504 3.00473 5.15081C2.94523 5.19037 2.89223 5.23014 2.83298 5.26992C2.80648 5.28703 2.77999 5.30992 2.76024 5.32681C2.72724 5.35503 2.69399 5.38347 2.66774 5.41192C2.57524 5.49703 2.4165 5.67858 2.4165 5.67858C2.14415 6.02275 1.99863 6.43355 2.00001 6.85433V16.7341C2.00001 17.3192 2.55524 17.7905 3.23622 17.7905C3.40797 17.7905 3.56671 17.7621 3.71221 17.7052L5.91339 16.6434C6.30987 16.4732 6.62736 16.1835 6.79261 15.8257C6.83211 15.7519 6.86511 15.6612 6.88511 15.5701C6.8916 15.5475 6.89835 15.519 6.89835 15.4964C6.89835 15.4852 6.90485 15.4681 6.90485 15.4568C6.9116 15.4168 6.9181 15.3715 6.9181 15.3319C6.9181 15.2977 6.92485 15.2693 6.92485 15.2353V9.97715V8.33607C6.92485 7.87608 7.1561 7.46165 7.51983 7.1721C7.51983 7.1721 7.34784 7.30832 7.51983 7.1721C7.69158 7.03588 7.91632 6.91655 8.18081 6.83722C8.44506 6.75189 14.6986 4.81015 14.6986 4.81015V1.53378L12.9337 1.08513Z" fill="url(#paint1_linear_1335_39612)"/>
<path d="M6.78699 17.7902C6.10601 17.7902 5.55078 18.2615 5.55078 18.8464C5.55078 19.244 5.80852 19.5846 6.19201 19.7664L10.9713 22.0432C11.3505 22.2332 11.7783 22.3329 12.2136 22.3328C12.5045 22.3328 12.7823 22.2874 13.04 22.2079L14.6727 21.8048V17.7847C14.6795 17.7902 6.79324 17.7902 6.78674 17.7902H6.78699Z" fill="url(#paint2_linear_1335_39612)"/>
<path d="M12.9337 1.08513C12.7079 1.02783 12.4742 0.999177 12.2394 1.00002C11.8494 1.00002 11.4595 1.06824 11.109 1.22712C11.0365 1.25557 3.33522 4.97458 3.33522 4.97458C3.22947 5.02013 3.13022 5.0768 3.03773 5.13369C3.02473 5.13924 3.01798 5.14502 3.00473 5.1508C2.94523 5.19035 2.89223 5.23013 2.83298 5.26991C2.80648 5.28702 2.77999 5.3099 2.76024 5.32679C2.72724 5.35501 2.69399 5.38346 2.66774 5.4119C2.57524 5.49701 2.4165 5.67856 2.4165 5.67856C2.14415 6.02273 1.99863 6.43353 2.00001 6.85431V16.734C2.00001 17.3191 2.55524 17.7905 3.23622 17.7905C3.40797 17.7905 3.56671 17.762 3.71221 17.7051L5.91339 16.6434C6.30987 16.4732 6.62736 16.1834 6.79261 15.8256C6.83211 15.7519 6.86511 15.6612 6.88511 15.5701C6.8916 15.5474 6.89835 15.519 6.89835 15.4963C6.89835 15.4852 6.90485 15.4681 6.90485 15.4567C6.9116 15.4168 6.9181 15.3714 6.9181 15.3319C6.9181 15.2976 6.92485 15.2692 6.92485 15.2352V9.97711V8.33605C6.92485 7.87606 7.1561 7.46163 7.51983 7.17208C7.51983 7.17208 7.34784 7.3083 7.51983 7.17208C7.69158 7.03586 7.91632 6.91653 8.18081 6.8372C8.44506 6.75187 14.6986 4.81014 14.6986 4.81014V1.53378L12.9337 1.08513Z" fill="url(#paint3_linear_1335_39612)"/>
<path d="M19.9734 2.85563L13.0391 1.11279C14.0438 1.44789 14.6715 2.20298 14.6715 3.12296C14.6715 3.12296 14.6653 19.8336 14.6715 20.2367C14.6783 21.1451 14.004 21.9231 13.0391 22.2126C13.2506 22.1615 19.9734 20.4978 19.9734 20.4978C20.9714 20.2254 21.6921 19.4303 21.6921 18.4823V4.87113C21.6986 3.92894 20.9714 3.12807 19.9734 2.85563Z" fill="url(#paint4_linear_1335_39612)"/>
<defs>
<linearGradient id="paint0_linear_1335_39612" x1="6.23676" y1="19.524" x2="23.3814" y2="21.2703" gradientUnits="userSpaceOnUse">
<stop stop-color="#F32B44"/>
<stop offset="0.6" stop-color="#A4070A"/>
</linearGradient>
<linearGradient id="paint1_linear_1335_39612" x1="13.1842" y1="0.264034" x2="2.47576" y2="18.068" gradientUnits="userSpaceOnUse">
<stop stop-color="#800600"/>
<stop offset="0.6" stop-color="#C72127"/>
<stop offset="0.728" stop-color="#C13959"/>
<stop offset="0.847" stop-color="#BC4B81"/>
<stop offset="0.942" stop-color="#B95799"/>
<stop offset="1" stop-color="#B85BA2"/>
</linearGradient>
<linearGradient id="paint2_linear_1335_39612" x1="17.8796" y1="20.399" x2="10.2683" y2="19.6237" gradientUnits="userSpaceOnUse">
<stop stop-opacity="0.4"/>
<stop offset="1" stop-opacity="0"/>
</linearGradient>
<linearGradient id="paint3_linear_1335_39612" x1="13.4554" y1="-0.0688432" x2="11.1877" y2="3.70157" gradientUnits="userSpaceOnUse">
<stop stop-opacity="0.4"/>
<stop offset="1" stop-opacity="0"/>
</linearGradient>
<linearGradient id="paint4_linear_1335_39612" x1="17.3705" y1="-0.0858401" x2="17.3705" y2="20.7287" gradientUnits="userSpaceOnUse">
<stop stop-color="#FFB900"/>
<stop offset="0.166" stop-color="#EF8400"/>
<stop offset="0.313" stop-color="#E25C01"/>
<stop offset="0.429" stop-color="#DB4401"/>
<stop offset="0.5" stop-color="#D83B01"/>
</linearGradient>
</defs>
</svg>
