<svg xmlns="http://www.w3.org/2000/svg" width="16" height="16" viewBox="0 0 16 16">
    <g fill="none" fill-rule="evenodd">
        <g fill="#9C9696" fill-rule="nonzero">
            <g>
                <path d="M3.929 7.335c-.138.002-.231.018-.28.032v.919c.057.014.128.018.226.018.363 0 .59-.193.59-.516 0-.29-.195-.46-.536-.453z" transform="translate(-1540 -338) translate(1540 338)"/>
                <path d="M9.454 14.609c.021 0 .042.003.064.003h4.84c.567 0 1.027-.461 1.027-1.027V2.363c0-.566-.46-1.027-1.026-1.027H9.518l-.064.003V0L.006 1.26v13.436l9.448 1.293v-1.38zm.064-12.686h4.84c.243 0 .44.198.44.44v9.033c-.375-.966-.836-2.269-1.531-2.091-.83.212-1.245 2.152-1.245 2.152h2.777v2.128c0 .243-.198.44-.44.44h-4.84c-.023 0-.043-.003-.065-.006v-2.562h2.568s-.425-2.19-1.597-3.362c-.335-.335-.667-.203-.97.155V5.426c.128.205.354.343.614.343.402 0 .727-.325.727-.727 0-.401-.325-.726-.727-.726-.26 0-.486.137-.615.342V1.93c.021-.003.042-.007.064-.007zM2.444 8.79c0 .869-.388 1.162-1.002 1.145-.143-.003-.33-.035-.452-.082l.069-.542c.085.033.195.056.317.058.263.005.43-.122.43-.592V6.879l.638-.016V8.79zm2.427-.271c-.238.23-.588.33-.991.327-.089 0-.17-.006-.231-.015v1.112l-.66-.017V6.89c.204-.042.492-.077.904-.088.422-.01.726.065.932.23.199.156.333.418.333.73 0 .313-.102.578-.287.757zm1.044 1.08c-.293-.283-.453-.703-.449-1.174.005-1.065.78-1.694 1.86-1.723.436-.011.776.064.944.14l-.163.608c-.189-.077-.42-.137-.79-.13-.626.01-1.091.364-1.091 1.067 0 .669.42 1.07 1.036 1.08.174.004.314-.014.374-.042V8.73l-.518-.003v-.58l1.265-.005V9.91c-.24.073-.691.17-1.136.16-.605-.017-1.035-.177-1.332-.471z" transform="translate(-1540 -338) translate(1540 338)"/>
                <path d="M12.523 7.517c.147 0 .284-.015.406-.04.142.062.315.098.503.098.48 0 .87-.235.87-.524 0-.29-.39-.525-.87-.525-.18 0-.348.033-.487.09-.057-.056-.133-.09-.218-.09H12.6c-.161 0-.29.122-.307.278-.39.04-.679.181-.679.35 0 .2.406.363.908.363z" transform="translate(-1540 -338) translate(1540 338)"/>
            </g>
        </g>
    </g>
</svg>
