<svg width="24" height="24" viewBox="0 0 24 24" fill="none" xmlns="http://www.w3.org/2000/svg">
<mask id="mask0_1039_5921" style="mask-type:alpha" maskUnits="userSpaceOnUse" x="0" y="0" width="24" height="24">
<rect x="0.0830078" y="0.478516" width="23.54" height="23.4741" fill="#D9D9D9"/>
</mask>
<g mask="url(#mask0_1039_5921)">
<path fill-rule="evenodd" clip-rule="evenodd" d="M15.1796 0.918833L23.0924 8.85195C23.6788 9.43937 23.6793 10.4678 23.2393 11.0558C22.9466 11.3495 22.067 11.9374 21.1879 11.0553L20.3088 10.1741L14.8869 20.0169L16.3519 21.4859C16.9383 22.0733 16.9378 22.9549 16.3519 23.5429C16.0592 23.8376 15.0332 24.2771 14.3005 23.5424L8.4385 17.6662L3.02214 23.0988L3.01657 23.1033L0.216227 23.8507L0.965179 21.0448L6.24076 15.6092L0.525632 9.87993C-0.0607692 9.29252 -0.0602627 8.41089 0.525632 7.82398C1.11153 7.23606 1.99113 7.23555 2.57702 7.82347L4.04302 9.29251L14.0073 3.85742L13.1282 2.97529C12.5418 2.38787 12.5418 1.50675 13.1282 0.91934C13.7141 0.33142 14.5932 0.331419 15.1796 0.918833Z" fill="#9C9696"/>
</g>
</svg>
