<svg width="48" height="50" viewBox="0 0 48 50" fill="none" xmlns="http://www.w3.org/2000/svg">
<g id="PPT">
<path id="Shape" fill-rule="evenodd" clip-rule="evenodd" d="M29.4882 45.5424C29.5062 45.5434 29.5242 45.5446 29.5421 45.5457C29.59 45.5487 29.6378 45.5517 29.6866 45.5517H44.7952C46.5625 45.5517 48 44.1154 48 42.3507V7.36712C48 5.60244 46.5625 4.16597 44.7952 4.16597H29.6866C29.6432 4.16597 29.6001 4.16876 29.557 4.17155L29.557 4.17155C29.5341 4.17304 29.5112 4.17452 29.4882 4.17558V0L0 3.93091V45.8136L29.4882 49.8462V45.5424ZM29.6868 5.99549H44.7954C45.5529 5.99549 46.1688 6.61109 46.1688 7.36739V42.3514C46.1688 43.1075 45.5529 43.7233 44.7954 43.7233H29.6868C29.6243 43.7233 29.5633 43.7141 29.5027 43.7048L29.4884 43.7027V27.1564C30.3333 30.3669 33.2503 32.7377 36.7296 32.7377C40.8699 32.7377 44.2258 29.3857 44.2258 25.2506H36.7296V17.7627C33.25 17.7627 30.3329 20.1339 29.4884 23.3446V6.01549L29.5036 6.01326C29.5637 6.0044 29.6242 5.99549 29.6868 5.99549ZM6.07018 26.2628C7.24853 26.2721 8.26863 25.9676 8.96449 25.2763C9.50388 24.7359 9.80139 23.937 9.80096 22.9959C9.80096 22.0554 9.4096 21.2642 8.82992 20.7936C8.2292 20.2977 7.34103 20.0664 6.10816 20.0988C4.90596 20.1306 4.0625 20.2362 3.46605 20.361V29.5225L5.39579 29.5711V26.216C5.57661 26.245 5.80998 26.2606 6.07018 26.2628ZM17.1089 25.291C16.3517 26.0132 15.2401 26.3299 13.9577 26.3204C13.6751 26.3186 13.421 26.3022 13.2252 26.2718V29.7713L11.1256 29.7177V20.1679C11.7748 20.0367 12.6914 19.9265 13.9994 19.8918C15.3408 19.857 16.3082 20.0962 16.963 20.6128C17.5934 21.104 18.021 21.93 18.021 22.9116C18.021 23.8937 17.6956 24.7284 17.1089 25.291ZM23.7983 21.6713L26.7198 21.6236V19.6334L18.7031 19.8411V21.754L21.4323 21.7092V29.9791L23.7983 30.0394V21.6713Z" fill="#ED6004"/>
<path id="Path" d="M6.21282 21.7036C5.80927 21.7109 5.5374 21.7572 5.39551 21.8018V24.5727C5.5627 24.6142 5.76992 24.628 6.0561 24.6271C7.11547 24.6252 7.77581 24.0458 7.77581 23.0732C7.77589 22.1984 7.2089 21.6861 6.21282 21.7036Z" fill="#ED6004"/>
<path id="Path_2" d="M14.1132 21.565C13.675 21.5724 13.3789 21.6213 13.2256 21.6675V24.5571C13.4078 24.6006 13.6326 24.6142 13.9434 24.6142C15.0972 24.6124 15.8158 24.008 15.8158 22.9922C15.8158 22.0795 15.1971 21.5458 14.1132 21.565Z" fill="#ED6004"/>
<path id="Path_3" d="M37.7461 24.0693V24.0715H45.2428C45.2428 21.9657 44.3681 20.0652 42.9665 18.7051L37.7461 24.0693Z" fill="#ED6004"/>
<path id="Path_4" d="M37.6674 22.7526L42.9675 17.4584C41.4769 15.9686 39.6169 15.2425 37.6621 15.2703L37.6657 22.7508L37.6674 22.7526Z" fill="#ED6004"/>
</g>
</svg>
