<svg width="20" height="11" viewBox="0 0 20 11" fill="none" xmlns="http://www.w3.org/2000/svg">
<path d="M9 10.5682H5C3.61667 10.5682 2.43767 10.0806 1.463 9.10524C0.487667 8.13057 0 6.95157 0 5.56824C0 4.1849 0.487667 3.00557 1.463 2.03024C2.43767 1.05557 3.61667 0.568237 5 0.568237H9V2.56824H5C4.16667 2.56824 3.45833 2.8599 2.875 3.44324C2.29167 4.02657 2 4.7349 2 5.56824C2 6.40157 2.29167 7.1099 2.875 7.69324C3.45833 8.27657 4.16667 8.56824 5 8.56824H9V10.5682ZM6 6.56824V4.56824H14V6.56824H6ZM11 10.5682V8.56824H15C15.8333 8.56824 16.5417 8.27657 17.125 7.69324C17.7083 7.1099 18 6.40157 18 5.56824C18 4.7349 17.7083 4.02657 17.125 3.44324C16.5417 2.8599 15.8333 2.56824 15 2.56824H11V0.568237H15C16.3833 0.568237 17.5627 1.05557 18.538 2.03024C19.5127 3.00557 20 4.1849 20 5.56824C20 6.95157 19.5127 8.13057 18.538 9.10524C17.5627 10.0806 16.3833 10.5682 15 10.5682H11Z" fill="white"/>
</svg>
