<svg id="Layer_1" data-name="Layer 1" xmlns="http://www.w3.org/2000/svg" width="13" height="13" viewBox="0 0 13 13">
  <defs>
    <style>
      .cls-1 {
        fill: #9c9696;
      }
    </style>
  </defs>
  <path class="cls-1" d="M11.1,1.9,13,0V5.7H7.4L9.8,3.2c.1-.1.1-.1,0-.2l-.2-.3-.5-.3-.6-.3H8.2l-.5-.2H5.2L4.7,2l-.4.2-.5.2-.4.4-.5.4-.5.7c-.2.2-.2.5-.4.7s-.1.4-.2.6a.6.6,0,0,1-.1.4v.3c-.1.1,0,.2,0,.3a1.3,1.3,0,0,0-.1.6c0,.1,0,.1.1.1h0v.3h0a2.4,2.4,0,0,1,.2.8c.1.3.3.5.4.8l.4.5.4.5.4.3.4.3.6.3.6.3H7.4l.7-.2.6-.3.4-.2.4-.3.2-.2h.2l.3-.3a4.3,4.3,0,0,0,.4-.7c.1,0,.1-.2.2-.2a.6.6,0,0,0,.1-.4c.1-.1.1-.1.1-.2h1.7a.7.7,0,0,1-.1.5c0,.2-.1.3-.2.5s-.1.4-.2.5a2.5,2.5,0,0,0-.4.7l-.4.3-.4.6-.4.3-.7.5-.4.3H8.9l-.4.2H4.7l-.5-.2-.5-.2L3.1,12l-.6-.4-.7-.7-.3-.2-.3-.5L.9,9.7.6,9.2C.5,9.1.5,8.9.4,8.7V8.4a.4.4,0,0,0-.1-.3V7.8a.4.4,0,0,1-.1-.3V7.3h0C0,7.1,0,7,0,6.9H0V6.1c0-.1.1-.2.1-.3V5.6a.4.4,0,0,1,.1-.3V5a1.4,1.4,0,0,1,.2-.6c.1-.2.1-.4.2-.5a.5.5,0,0,1,.2-.4c0-.1.1-.2.2-.3s.1-.2.1-.3l.3-.4.5-.6.4-.3h.1l.3-.2L3,1.1,3.5.8,3.8.6h.4L4.7.3H8.5L9,.5l.6.3.5.3.3.2.3.3.3.3Z"/>
</svg>
