<svg width="20" height="20" viewBox="0 0 20 20" fill="none" xmlns="http://www.w3.org/2000/svg">
<path d="M13.435 12.063H12.712L12.456 11.816C13.353 10.773 13.893 9.419 13.893 7.946C13.893 4.662 11.23 2 7.946 2C4.662 2 2 4.662 2 7.946C2 11.23 4.662 13.893 7.946 13.893C9.419 13.893 10.773 13.353 11.816 12.456L12.063 12.712V13.435L16.637 18L18 16.637L13.435 12.063ZM7.946 12.063C5.668 12.063 3.83 10.224 3.83 7.946C3.83 5.668 5.668 3.83 7.946 3.83C10.224 3.83 12.063 5.668 12.063 7.946C12.063 10.224 10.224 12.063 7.946 12.063Z" fill="#9C9696"/>
</svg>
