<svg width="16" height="16" viewBox="0 0 16 16" fill="none" xmlns="http://www.w3.org/2000/svg">
<g clip-path="url(#clip0_846_573)">
<path fill-rule="evenodd" clip-rule="evenodd" d="M12.7562 10.7889L15.7962 13.8289C16.0682 14.1002 16.0675 14.5405 15.7955 14.8125L14.8118 15.7962C14.5405 16.0682 14.1002 16.0682 13.8282 15.7962L10.7889 12.7562C9.68904 13.4859 8.37217 13.913 6.95652 13.913C3.1207 13.913 0 10.7923 0 6.95652C0 3.1207 3.1207 0 6.95652 0C10.7923 0 13.913 3.1207 13.913 6.95652C13.913 8.37217 13.4859 9.68904 12.7562 10.7889ZM6.9564 1.39146C3.88788 1.39146 1.39118 3.88816 1.39118 6.95668C1.39118 10.0252 3.88788 12.5219 6.9564 12.5219C10.0249 12.5219 12.5216 10.0252 12.5216 6.95668C12.5216 3.88816 10.0249 1.39146 6.9564 1.39146Z" fill="#9C9696"/>
</g>
<defs>
<clipPath id="clip0_846_573">
<rect width="16" height="16" fill="white"/>
</clipPath>
</defs>
</svg>
