<svg width="16" height="18" viewBox="0 0 16 18" fill="none" xmlns="http://www.w3.org/2000/svg">
<path d="M10.5114 7.81803C10.5114 7.81803 10.5114 7.84908 10.5114 2.9023C10.5114 2.83082 10.5114 2.77363 10.5114 2.67355C9.61071 3.57426 8.73859 4.44638 7.88077 5.3042C7.53764 4.96108 7.20881 4.63224 6.90857 4.33201C8.35257 2.888 9.79657 1.444 11.2263 0C12.656 1.41541 14.1 2.87371 15.5297 4.30341C15.2152 4.61795 14.9006 4.93248 14.5718 5.26131C13.7283 4.41779 12.8561 3.54567 11.9554 2.64495C11.9411 2.74503 11.9411 2.78792 11.9411 2.83082C11.9411 7.82048 11.9411 7.81803 11.9411 7.81803" fill="#9C9696"/>
<path d="M11.9268 10.182C11.9268 10.182 11.9268 10.1509 11.9268 15.0977C11.9268 15.1692 11.9268 15.2264 11.9268 15.3265C12.8275 14.4257 13.6996 13.5536 14.5575 12.6958C14.9006 13.0389 15.2294 13.3678 15.5297 13.668C14.0857 15.112 12.6417 16.556 11.212 18C9.78225 16.5846 8.33825 15.1263 6.90854 13.6966C7.22308 13.3821 7.53761 13.0675 7.86645 12.7387C8.70997 13.5822 9.58209 14.4543 10.4828 15.355C10.4971 15.255 10.4971 15.2121 10.4971 15.1692C10.4971 10.1795 10.4971 10.182 10.4971 10.182" fill="#9C9696"/>
<path d="M3.74586 0C3.76015 0.0714852 3.77445 0.157267 3.80305 0.228753C4.61798 2.57347 5.41861 4.91818 6.23354 7.2772C6.24784 7.33438 6.26214 7.39157 6.29073 7.46306C6.24784 7.47736 6.20495 7.49165 6.17636 7.49165C5.76174 7.49165 5.36142 7.49165 4.94681 7.49165C4.84673 7.49165 4.80384 7.44876 4.77524 7.36298C4.67516 7.07704 4.57509 6.7911 4.47501 6.50516C4.44641 6.41937 4.40352 6.37648 4.30344 6.37648C3.5457 6.37648 2.78796 6.37648 2.03021 6.37648C1.93013 6.37648 1.90154 6.40508 1.87294 6.49086C1.77287 6.7911 1.67279 7.07704 1.55841 7.36298C1.54411 7.40587 1.48692 7.47736 1.44403 7.47736C0.986528 7.49165 0.529022 7.47736 0.0286255 7.47736C0.0715166 7.33438 0.114408 7.22001 0.157299 7.10563C0.97223 4.77521 1.78716 2.4305 2.61639 0.0857823C2.63069 0.0571882 2.64498 0.0285941 2.64498 0C3.01671 0 3.37413 0 3.74586 0ZM3.18827 2.80222C3.17398 2.80222 3.15968 2.80222 3.14538 2.80222C2.90233 3.50278 2.65928 4.21763 2.41623 4.93248C2.93093 4.93248 3.41703 4.93248 3.93172 4.93248C3.67437 4.20333 3.43132 3.50278 3.18827 2.80222Z" fill="#9C9696"/>
<path d="M0 10.537C2.13026 10.537 4.24622 10.537 6.37648 10.537C6.37648 10.8944 6.37648 11.2375 6.37648 11.595C6.37648 11.6522 6.31929 11.7093 6.2907 11.7522C4.96107 13.3106 3.61715 14.8547 2.28753 16.3988C2.24464 16.456 2.20175 16.5132 2.13026 16.5846C3.53137 16.5846 4.91818 16.5846 6.305 16.5846C6.305 17.0707 6.305 17.5282 6.305 18C4.20333 18 2.11596 18 0 18C0 17.6426 0 17.2995 0 16.9421C0 16.8992 0.0571882 16.842 0.0857823 16.7991C1.4297 15.2264 2.78792 13.668 4.13185 12.0954C4.16044 12.0525 4.20333 12.0096 4.26052 11.9381C2.83081 11.9381 1.41541 11.9381 0 11.9381C0 11.452 0 11.0088 0 10.537Z" fill="#9C9696"/>
</svg>
