<svg width="16" height="18" viewBox="0 0 16 18" fill="none" xmlns="http://www.w3.org/2000/svg">
<path d="M10.9539 7.81803C10.9539 7.81803 10.9539 7.84908 10.9539 2.9023C10.9539 2.83082 10.9539 2.77363 10.9539 2.67355C10.0532 3.57426 9.18103 4.44638 8.32321 5.3042C7.98008 4.96108 7.65125 4.63224 7.35101 4.33201C8.79501 2.888 10.239 1.444 11.6687 0C13.0984 1.41541 14.5424 2.87371 15.9721 4.30341C15.6576 4.61795 15.3431 4.93248 15.0142 5.26131C14.1707 4.41779 13.2986 3.54567 12.3979 2.64495C12.3836 2.74503 12.3836 2.78792 12.3836 2.83082C12.3836 7.82048 12.3836 7.81803 12.3836 7.81803" fill="#EE4136"/>
<path d="M12.3693 10.182C12.3693 10.182 12.3693 10.1509 12.3693 15.0977C12.3693 15.1692 12.3693 15.2264 12.3693 15.3265C13.27 14.4257 14.1421 13.5536 14.9999 12.6958C15.343 13.0389 15.6719 13.3678 15.9721 13.668C14.5281 15.112 13.0841 16.556 11.6544 18C10.2247 16.5846 8.78069 15.1263 7.35099 13.6966C7.66552 13.3821 7.98006 13.0675 8.30889 12.7387C9.15242 13.5822 10.0245 14.4543 10.9253 15.355C10.9395 15.255 10.9395 15.2121 10.9395 15.1692C10.9395 10.1795 10.9395 10.182 10.9395 10.182" fill="#EE4136"/>
<path d="M4.1883 0C4.2026 0.0714852 4.2169 0.157267 4.24549 0.228753C5.06042 2.57347 5.86106 4.91818 6.67599 7.2772C6.69028 7.33438 6.70458 7.39157 6.73318 7.46306C6.69028 7.47736 6.64739 7.49165 6.6188 7.49165C6.20418 7.49165 5.80387 7.49165 5.38925 7.49165C5.28917 7.49165 5.24628 7.44876 5.21769 7.36298C5.11761 7.07704 5.01753 6.7911 4.91745 6.50516C4.88886 6.41937 4.84597 6.37648 4.74589 6.37648C3.98814 6.37648 3.2304 6.37648 2.47266 6.37648C2.37258 6.37648 2.34398 6.40508 2.31539 6.49086C2.21531 6.7911 2.11523 7.07704 2.00085 7.36298C1.98656 7.40587 1.92937 7.47736 1.88648 7.47736C1.42897 7.49165 0.971466 7.47736 0.471069 7.47736C0.51396 7.33438 0.556852 7.22001 0.599743 7.10563C1.41467 4.77521 2.22961 2.4305 3.05883 0.0857823C3.07313 0.0571882 3.08743 0.0285941 3.08743 0C3.45915 0 3.81658 0 4.1883 0ZM3.63072 2.80222C3.61642 2.80222 3.60212 2.80222 3.58783 2.80222C3.34478 3.50278 3.10173 4.21763 2.85868 4.93248C3.37337 4.93248 3.85947 4.93248 4.37416 4.93248C4.11682 4.20333 3.87377 3.50278 3.63072 2.80222Z" fill="#EE4136"/>
<path d="M0.442444 10.537C2.5727 10.537 4.68867 10.537 6.81893 10.537C6.81893 10.8944 6.81893 11.2375 6.81893 11.595C6.81893 11.6522 6.76174 11.7093 6.73314 11.7522C5.40352 13.3106 4.0596 14.8547 2.72997 16.3988C2.68708 16.456 2.64419 16.5132 2.5727 16.5846C3.97381 16.5846 5.36063 16.5846 6.74744 16.5846C6.74744 17.0707 6.74744 17.5282 6.74744 18C4.64578 18 2.55841 18 0.442444 18C0.442444 17.6426 0.442444 17.2995 0.442444 16.9421C0.442444 16.8992 0.499632 16.842 0.528226 16.7991C1.87215 15.2264 3.23037 13.668 4.57429 12.0954C4.60288 12.0525 4.64578 12.0096 4.70296 11.9381C3.27326 11.9381 1.85785 11.9381 0.442444 11.9381C0.442444 11.452 0.442444 11.0088 0.442444 10.537Z" fill="#EE4136"/>
</svg>
