<svg width="20" height="594" viewBox="0 0 20 594" fill="none" xmlns="http://www.w3.org/2000/svg">
<g clip-path="url(#clip0_1159_3114)">
<path d="M2 20.65V18.75H3.9V12.1C3.9 10.7858 4.29583 9.61797 5.0875 8.5964C5.87917 7.57547 6.90833 6.90667 8.175 6.59V5.925C8.175 5.52917 8.3137 5.19287 8.5911 4.9161C8.86787 4.6387 9.20417 4.5 9.6 4.5C9.99583 4.5 10.3321 4.6387 10.6089 4.9161C10.8863 5.19287 11.025 5.52917 11.025 5.925V6.59C12.2917 6.90667 13.3208 7.57547 14.1125 8.5964C14.9042 9.61797 15.3 10.7858 15.3 12.1V18.75H17.2V20.65H2ZM9.6 23.5C9.0775 23.5 8.63037 23.3141 8.2586 22.9423C7.8862 22.5699 7.7 22.1225 7.7 21.6H11.5C11.5 22.1225 11.3141 22.5699 10.9423 22.9423C10.57 23.3141 10.1225 23.5 9.6 23.5Z" fill="#9C9696"/>
<path d="M2 57.15V55.25H3.9V48.6C3.9 47.2858 4.29583 46.118 5.0875 45.0964C5.87917 44.0755 6.90833 43.4067 8.175 43.09V42.425C8.175 42.0292 8.3137 41.6929 8.5911 41.4161C8.86787 41.1387 9.20417 41 9.6 41C9.99583 41 10.3321 41.1387 10.6089 41.4161C10.8863 41.6929 11.025 42.0292 11.025 42.425V43.09C12.2917 43.4067 13.3208 44.0755 14.1125 45.0964C14.9042 46.118 15.3 47.2858 15.3 48.6V55.25H17.2V57.15H2ZM9.6 60C9.0775 60 8.63037 59.8141 8.2586 59.4423C7.8862 59.0699 7.7 58.6225 7.7 58.1H11.5C11.5 58.6225 11.3141 59.0699 10.9423 59.4423C10.57 59.8141 10.1225 60 9.6 60Z" fill="#EE4136"/>
<path fill-rule="evenodd" clip-rule="evenodd" d="M14.2212 79.9236L20.1922 85.9098C20.6347 86.3531 20.635 87.1292 20.303 87.5728C20.0821 87.7944 19.4184 88.2381 18.755 87.5724L18.0917 86.9075L14.0003 94.3348L15.1058 95.4433C15.5483 95.8866 15.5479 96.5518 15.1058 96.9955C14.8849 97.2178 14.1108 97.5495 13.5578 96.9951L9.13444 92.561L5.04731 96.6603L5.0431 96.6638L2.92999 97.2278L3.49515 95.1105L7.47605 91.0088L3.16347 86.6855C2.72098 86.2423 2.72136 85.577 3.16347 85.1341C3.60558 84.6905 4.26932 84.6901 4.71143 85.1338L5.81766 86.2423L13.3366 82.141L12.6732 81.4754C12.2307 81.0321 12.2307 80.3672 12.6732 79.924C13.1153 79.4803 13.7787 79.4803 14.2212 79.9236Z" fill="#9C9696"/>
<path fill-rule="evenodd" clip-rule="evenodd" d="M14.2212 122.924L20.1922 128.91C20.6347 129.353 20.635 130.129 20.303 130.573C20.0821 130.794 19.4184 131.238 18.755 130.572L18.0917 129.908L14.0003 137.335L15.1058 138.443C15.5483 138.887 15.5479 139.552 15.1058 139.995C14.8849 140.218 14.1108 140.55 13.5578 139.995L9.13444 135.561L5.04731 139.66L5.0431 139.664L2.92999 140.228L3.49515 138.11L7.47605 134.009L3.16347 129.686C2.72098 129.242 2.72136 128.577 3.16347 128.134C3.60558 127.691 4.26932 127.69 4.71143 128.134L5.81766 129.242L13.3366 125.141L12.6732 124.475C12.2307 124.032 12.2307 123.367 12.6732 122.924C13.1153 122.48 13.7787 122.48 14.2212 122.924Z" fill="#EE4136"/>
<path fill-rule="evenodd" clip-rule="evenodd" d="M3.6 163H16.4C17.28 163 18 163.72 18 164.6V174.2C18 175.08 17.28 175.8 16.4 175.8H5.2L2 179V164.6C2 163.72 2.72 163 3.6 163Z" fill="#9C9696"/>
<path fill-rule="evenodd" clip-rule="evenodd" d="M3.6 196H16.4C17.28 196 18 196.72 18 197.6V207.2C18 208.08 17.28 208.8 16.4 208.8H5.2L2 212V197.6C2 196.72 2.72 196 3.6 196Z" fill="#EE4136"/>
</g>
<defs>
<clipPath id="clip0_1159_3114">
<rect width="20" height="594" fill="white"/>
</clipPath>
</defs>
</svg>
