<svg width="27" height="21" viewBox="0 0 27 21" fill="none" xmlns="http://www.w3.org/2000/svg">
<path fill-rule="evenodd" clip-rule="evenodd" d="M7.76855 11.4236C6.0872 12.5861 4.90903 14.1611 4.90903 16.2611V20.0111H-3.57628e-05V16.2611C-3.57628e-05 13.5361 4.3813 11.9236 7.76855 11.4236Z" fill="white"/>
<path d="M17.1818 10.011C14.4706 10.011 12.2727 7.77238 12.2727 5.01097C12.2727 2.24955 14.4706 0.0109863 17.1818 0.0109863C19.893 0.0109863 22.0908 2.24955 22.0908 5.01097C22.0908 7.77238 19.893 10.011 17.1818 10.011Z" fill="white"/>
<path fill-rule="evenodd" clip-rule="evenodd" d="M17.1818 8.51095C15.3248 8.51095 13.7727 6.97003 13.7727 5.01097C13.7727 3.05191 15.3248 1.51099 17.1818 1.51099C19.0387 1.51099 20.5908 3.05191 20.5908 5.01097C20.5908 6.97003 19.0387 8.51095 17.1818 8.51095ZM12.2727 5.01097C12.2727 7.77238 14.4706 10.011 17.1818 10.011C19.893 10.011 22.0908 7.77238 22.0908 5.01097C22.0908 2.24955 19.893 0.0109863 17.1818 0.0109863C14.4706 0.0109863 12.2727 2.24955 12.2727 5.01097Z" fill="white"/>
<path fill-rule="evenodd" clip-rule="evenodd" d="M9.81793 10.011C7.10568 10.011 4.90887 7.77346 4.90887 5.01097C4.90887 2.24848 7.10568 0.0109863 9.81793 0.0109863C10.3947 0.0109863 10.9347 0.135986 11.4502 0.310985C10.4316 1.59848 9.81793 3.23598 9.81793 5.01097C9.81793 6.78596 10.4316 8.42346 11.4502 9.71095C10.9347 9.88595 10.3947 10.011 9.81793 10.011Z" fill="white"/>
<path fill-rule="evenodd" clip-rule="evenodd" d="M17.1818 11.261C20.4586 11.261 26.9999 12.936 26.9999 16.261V20.011H7.36369V16.261C7.36369 12.936 13.905 11.261 17.1818 11.261Z" fill="white"/>
<path fill-rule="evenodd" clip-rule="evenodd" d="M24.8993 15.1699C25.3687 15.6112 25.4999 15.9701 25.4999 16.261V18.511H8.86369V16.261C8.86369 15.9701 8.99492 15.6112 9.46436 15.1699C9.945 14.7181 10.6813 14.2821 11.6106 13.9029C13.4728 13.1432 15.7346 12.761 17.1818 12.761C18.629 12.761 20.8908 13.1432 22.753 13.9029C23.6823 14.2821 24.4186 14.7181 24.8993 15.1699ZM7.36369 16.261C7.36369 12.936 13.905 11.261 17.1818 11.261C20.4586 11.261 26.9999 12.936 26.9999 16.261V20.011H7.36369V16.261Z" fill="white"/>
</svg>
