<svg xmlns="http://www.w3.org/2000/svg" width="21" height="20" viewBox="0 0 21 20">
    <g fill="#ee4136" fill-rule="evenodd">
        <g>
            <path d="M5.625 2.083L.208 7.5C.07 7.639 0 7.778 0 7.986v2.083c0 .417.278.695.694.695h2.084c.208 0 .347-.07.486-.208L8.68 5.139 5.625 2.083zM10.556 2.292L8.472.208c-.278-.277-.694-.277-.972 0l-1.25 1.25 3.056 3.056 1.25-1.25c.277-.278.277-.695 0-.972" transform="translate(8.889)"/>
        </g>
        <path fill-rule="nonzero" d="M17.8 7.778v10H2.222V2.222h10V0H2.244C1.022 0 .022 1 .022 2.222v15.556C.022 19 1.022 20 2.244 20H17.8c1.222 0 2.222-1 2.222-2.222v-10H17.8z"/>
    </g>
</svg>
