<?xml version="1.0" encoding="UTF-8"?>
<svg width="27px" height="16px" viewBox="0 0 27 16" version="1.1" xmlns="http://www.w3.org/2000/svg" xmlns:xlink="http://www.w3.org/1999/xlink">
    <!-- Generator: Sketch 57.1 (83088) - https://sketch.com -->
    <title>Team Video_16X16 Copy</title>
    <desc>Created with Sketch.</desc>
    <g id="Teams" stroke="none" stroke-width="1" fill="none" fill-rule="evenodd">
        <g id="Team-Video_16X16" fill="#EE4136">
            <g>
                <g>
                    <ellipse id="Oval-Copy-2" fill-rule="nonzero" cx="12.7894737" cy="4.89952153" rx="3.48803828" ry="3.44497608"></ellipse>
                    <path d="M0.519330144,10.4644024 C1.58124402,11.1763641 2.3115969,12.3177033 2.3115969,13.6038278 L2.3115969,15.9004785 L5.41207537,15.9004785 L5.41207537,13.6038278 C5.41207537,11.9349282 2.65866029,10.7706225 0.519330144,10.4644024 Z" id="Path-Copy-3" fill-rule="nonzero" transform="translate(2.965703, 13.182440) scale(-1, 1) translate(-2.965703, -13.182440) "></path>
                    <path d="M6.14979367,8.34449761 C8.07693482,8.34449761 9.63783195,6.80287081 9.63783195,4.89952153 C9.63783195,2.99617225 8.07693482,1.45454545 6.14979367,1.45454545 C5.73994917,1.45454545 5.01986842,1.54066986 4.6536244,1.66124402 C5.73994917,2.99269071 6.14979367,3.67655502 6.14979367,4.89952153 C6.14979367,6.12248804 5.51537303,7.25833398 4.6536244,8.13779904 C5.01986842,8.25837321 5.73994917,8.34449761 6.14979367,8.34449761 Z" id="Path-Copy-4" fill-rule="nonzero" transform="translate(7.145728, 4.899522) scale(-1, 1) translate(-7.145728, -4.899522) "></path>
                    <path d="M12.7901829,9.878247 L13.05622,9.87559809 C16.1971519,9.87559809 18.5066027,10.6870813 19.7838363,11.286252 C20.4854291,11.615949 20.9282297,12.3427113 20.9282297,13.1419458 L20.9282297,16 L4.6507177,16 L4.6507177,13.1419458 C4.6507177,12.3427113 5.09351825,11.615949 5.79511111,11.286252 C7.07234467,10.6870813 9.38179551,9.87559809 12.5227274,9.87559809 C12.6128575,9.87559809 12.7019413,9.87653887 12.7901829,9.878247 Z" id="Combined-Shape-Copy"></path>
                    <path d="M24.4322432,1.83336585 L24.4322432,0.467227542 C24.4322432,0.210114161 24.2151526,4.97379915e-14 23.9497879,4.97379915e-14 L18.1554682,4.97379915e-14 C17.8901035,4.97379915e-14 17.6727273,0.210114161 17.6727273,0.467227542 L17.6727273,5.14033236 C17.6727273,5.39744574 17.8901035,5.60783636 18.1554682,5.60783636 L23.9497879,5.60783636 C24.2151526,5.60783636 24.4322432,5.39744574 24.4322432,5.14033236 L24.4322432,4.04914589 L26.3637784,5.37394613 L26.3637784,0.233337305 L24.4322432,1.83336585 Z" id="Fill-10-Copy-7"></path>
                </g>
            </g>
        </g>
    </g>
</svg>