<svg width="15" height="15" viewBox="0 0 15 15" fill="none" xmlns="http://www.w3.org/2000/svg">
<path d="M2.04641 14.755C1.717 14.755 1.43563 14.6383 1.20229 14.405C0.968962 14.1717 0.852295 13.8903 0.852295 13.5609V1.94912C0.852295 1.61971 0.968962 1.33834 1.20229 1.105C1.43563 0.871672 1.717 0.755005 2.04641 0.755005H13.6582C13.9876 0.755005 14.269 0.871672 14.5023 1.105C14.7356 1.33834 14.8523 1.61971 14.8523 1.94912V13.5609C14.8523 13.8903 14.7356 14.1717 14.5023 14.405C14.269 14.6383 13.9876 14.755 13.6582 14.755H2.04641ZM2.04641 13.8285H13.6582C13.7268 13.8285 13.7886 13.8011 13.8435 13.7462C13.8984 13.6913 13.9258 13.6295 13.9258 13.5609V1.94912C13.9258 1.88049 13.8984 1.81873 13.8435 1.76383C13.7886 1.70893 13.7268 1.68148 13.6582 1.68148H2.04641C1.97778 1.68148 1.91602 1.70893 1.86112 1.76383C1.80622 1.81873 1.77877 1.88049 1.77877 1.94912V13.5609C1.77877 13.6295 1.80622 13.6913 1.86112 13.7462C1.91602 13.8011 1.97778 13.8285 2.04641 13.8285Z" fill="#737070"/>
<path d="M6.8163 9.882H8.1163C8.1163 8.179 10.4173 8.036 10.4173 5.865C10.4173 4.422 9.2083 3.551 7.3363 3.551C5.8153 3.551 4.68429 4.084 3.96929 5.007L4.91829 5.683C5.4383 5.02 6.1923 4.656 7.2453 4.656C8.4153 4.656 9.1043 5.228 9.1043 6.06C9.1043 7.555 6.8163 7.841 6.8163 9.882ZM7.4793 12.833C7.9603 12.833 8.3113 12.456 8.3113 12.001C8.3113 11.533 7.9603 11.169 7.4793 11.169C6.9853 11.169 6.6343 11.533 6.6343 12.001C6.6343 12.456 6.9853 12.833 7.4793 12.833Z" fill="#737070"/>
</svg>
