<svg xmlns="http://www.w3.org/2000/svg" width="191" height="150" viewBox="0 0 191 150">
    <g fill="none" fill-rule="evenodd">
        <g fill-rule="nonzero">
            <g transform="translate(-865 -267) translate(865 267)">
                <path fill="#F2F2F2" d="M45.204 7.936C49.146 1.989 58.01.23 65.014 3.994c7.002 3.765 9.555 11.67 5.639 17.647-3.927 6-12.838 7.785-19.885 3.98-7.048-3.805-9.517-11.722-5.564-17.685zM81.27 3.802c2.502-3.818 8.187-4.948 12.705-2.53 4.517 2.42 6.173 7.487 3.685 11.319-2.487 3.832-8.2 4.975-12.732 2.545-4.532-2.431-6.164-7.51-3.658-11.334z"/>
                <path fill="#F2F2F2" d="M33.973 146.526c4.483.337 8.865.025 13.36.092 2.406-.01 4.992 0 7.577.018 2.586.019 5.172.044 7.762.08 2.035.053 4.072.112 6.107.163 6.057.201 12.215.706 18.243.316 2.163-.086 4.345-.21 6.542-.304 2.836-.103 5.676-.19 8.519-.26 17.052-.436 34.123-.481 51.16.806 7.268.538 16.515.731 22.378-3.846 1.479-1.135 2.71-2.56 3.62-4.187 2.407-3.732 1.801-9.284-2.338-11.505-7.975-4.341-20.291-9.894-16.254-20.998 1.515-4.14 4.342-7.371 7.572-10.399 12.623-11.912 23.421-26.651 22.609-44.405.02-2.227-.06-4.446-.25-6.647-.95-11.005-4.686-21.577-12.768-30.72-6.764-7.773-15.848-11.812-25.844-13.527-8.076-1.41-15.648-.805-23.62 1.113-3.332.808-6.358 1.717-9.49 3.03-1.106.504-2.221 1.013-3.332 1.614-2.524 1.414-4.744 2.827-6.966 4.644-1.817 1.515-3.332 3.029-4.744 5.048-3.03 4.644-5.149 9.086-8.016 13.491-1.198 1.843-2.474 3.593-3.86 5.175-4.162 4.735-9.346 7.895-16.431 6.795-2.054-.21-4.06-.69-6.197-1.218-.667-.164-1.329-.348-1.986-.552-5.126-1.605-10.119-3.075-15.153-4.024-4.906-1.145-9.79-1.25-14.689-.909-.167.013-.335.027-.5.042-5.225.474-10.269 2.264-14.771 5.133-.35.223-.699.444-1.054.672-.786.505-1.554 1.042-2.303 1.612-2.349 1.787-4.65 3.522-6.687 5.963C9.105 52.502 6 58.555 3.605 66.03c-.478 1.498-.928 3.053-1.345 4.686C1.453 73.678.874 76.699.528 79.75.412 80.76.319 81.772.25 82.786c-.096 2.048-.18 4.128-.223 6.22-.022 1.046-.033 2.096-.023 3.148.244 5.36 1.283 10.652 3.08 15.706.451 1.264.962 2.51 1.538 3.746 2.228 4.966 5.05 9.53 8.264 13.81 1.607 2.139 3.312 4.207 5.09 6.218 3.897 4.38 8.59 7.821 13.127 11.585 1.032 1.034 1.992 2.139 2.87 3.307z"/>
                <ellipse cx="96.489" cy="146.748" fill="#D2DADD" rx="70.972" ry="3.201"/>
                <path fill="#637277" d="M114.178 145.238L77.405 145.238 82.497 116.44 109.085 116.44z"/>
                <path fill="#9BA7AB" opacity=".74" style="mix-blend-mode:multiply" d="M112.955 138.857L78.627 138.857 82.92 116.809 108.662 116.809z"/>
                <path fill="#E3E6EA" d="M104.888 140.069H86.695c-.667 0-1.3-.296-1.728-.807-.428-.51-.609-1.185-.493-1.841l2.796-15.811h17.045l2.796 15.81c.116.658-.065 1.332-.494 1.843-.429.511-1.062.806-1.73.806z"/>
                <path fill="#9BA7AB" d="M70.443 143.55h50.698c.634 0 1.241.252 1.69.7.448.449.7 1.057.7 1.69H68.053c0-1.32 1.07-2.39 2.39-2.39z"/>
                <rect width="153.338" height="94.596" x="19" y="37" fill="#9BA7AB" rx="2"/>
                <path fill="#FFF" d="M114 124L114 128 77 128 77 124z" opacity=".24"/>
                <g transform="translate(68 49)">
                    <path fill="#7F8A8E" d="M55.953 23.722L55.784 44.057 0 45.796 0 23.722z"/>
                    <path fill="#D6DBE1" d="M34.462 5.099L29.422.728c-.83-.72-2.062-.72-2.892 0l-5.04 4.37L0 23.729h55.953l-21.49-18.63z"/>
                    <path fill="#FFF" d="M6.372 58.254c2.235.143 4.477.205 6.714.257 8.064.19 16.131-.03 24.187-.415 3.827-.19 7.66-.338 11.481-.602 1.52-.105 3.04-.238 4.561-.42V15.301L44.733 6.73H5.73c-1.584 0-2.869 1.285-2.869 2.87v48.457c1.17.029 2.343.124 3.512.198z"/>
                    <path fill="#F2F2F2" d="M47.605 15.301h5.7L44.734 6.73v5.7c0 .763.302 1.493.84 2.032.54.538 1.27.84 2.032.84z"/>
                    <path fill="#D6DBE1" d="M27.976 47.973L0 23.722 0 60.979 55.953 60.979 55.953 23.722z"/>
                    <path fill="#C3CCCF" d="M27.976 47.973L21.491 42.35 0 60.979 55.953 60.979 34.462 42.35z"/>
                    <path fill="#9BA7AB" d="M34.462 42.35l-5.04-4.37c-.83-.719-2.061-.719-2.892 0l-5.04 4.37 6.486 5.623 6.486-5.623z"/>
                    <path fill="#000" d="M34.774 42.08L34.688 42.157 34.462 42.35 55.953 60.979 55.953 59.221" opacity=".03"/>
                    <path fill="#F6AF33" d="M34.774 42.08L34.688 42.157 34.774 42.08z" opacity=".4"/>
                    <path fill="#000" d="M0 59.221L0 60.979 21.491 42.35 21.257 42.149 21.179 42.08z" opacity=".03"/>
                    <path fill="#F6AF33" d="M21.179 42.08L21.257 42.149 21.179 42.08z" opacity=".5"/>
                    <circle cx="28.084" cy="23.197" r="9.572" fill="#EE4136" transform="rotate(-80.63 28.084 23.197)"/>
                    <path fill="#FFF" d="M21.952 24.134l4.229 4.595c.084.09.203.14.326.136.124-.004.24-.061.318-.157l7.411-9.121c.073-.09.106-.207.091-.322-.014-.115-.076-.22-.169-.288l-1.817-1.348c-.186-.138-.449-.102-.59.082l-4.871 6.27c-.075.097-.188.157-.31.164-.122.008-.242-.037-.329-.123l-2.09-2.09c-.08-.081-.19-.127-.303-.127-.114 0-.223.046-.303.126l-1.577 1.612c-.164.16-.17.422-.016.591z"/>
                </g>
            </g>
        </g>
    </g>
</svg>
