<svg width="39" height="39" viewBox="0 0 39 39" fill="none" xmlns="http://www.w3.org/2000/svg">
<path d="M31.5388 37.8167H10.0889V17.8416C17.0914 2.14134 15.6909 1.10889 18.8605 1.10889C21.3962 1.10889 22.8655 4.74545 23.2832 6.56372V14.0083H33.6765C34.905 13.9347 37.362 14.5983 37.362 17.8416C37.362 21.0848 36.5758 23.1733 36.1826 23.8121C36.1826 27.0554 35.4455 29.2911 35.077 30.0036C35.077 34.1314 32.7182 36.9323 31.5388 37.8167Z" stroke="#222020" stroke-width="2"/>
<path d="M4.68751 17.5229H10.0367V37.8599H4.68751C2.56709 37.8599 1.5872 35.9965 1.3623 35.0648V20.7039C1.3623 18.1979 3.57911 17.5391 4.68751 17.5229Z" stroke="#222020" stroke-width="2"/>
</svg>
