<svg width="39" height="39" viewBox="0 0 39 39" fill="none" xmlns="http://www.w3.org/2000/svg">
<path d="M7.18579 1.15204H28.6357V21.1272C21.6332 36.8274 23.0337 37.8599 19.8641 37.8599C17.3284 37.8599 15.8591 34.2233 15.4414 32.405V24.9605H5.04816C3.81964 25.0341 1.3626 24.3705 1.3626 21.1272C1.3626 17.8839 2.14885 15.7954 2.54198 15.1566C2.54198 11.9133 3.27909 9.67762 3.64764 8.96519C3.64764 4.83736 6.00641 2.03649 7.18579 1.15204Z" stroke="white" stroke-width="2"/>
<path d="M34.0371 21.4458H28.6879V1.10883H34.0371C36.1575 1.10883 37.1374 2.97222 37.3623 3.90392V18.2649C37.3623 20.7708 35.1455 21.4296 34.0371 21.4458Z" stroke="white" stroke-width="2"/>
</svg>
