<svg width="24" height="24" viewBox="0 0 24 24" fill="none" xmlns="http://www.w3.org/2000/svg">
<path d="M2.88 24C2.08 24 1.4 23.72 0.84 23.16C0.28 22.6 0 21.92 0 21.12V2.88C0 2.08 0.28 1.4 0.84 0.84C1.4 0.28 2.08 0 2.88 0H21.12C21.92 0 22.6 0.28 23.16 0.84C23.72 1.4 24 2.08 24 2.88V21.12C24 21.92 23.72 22.6 23.16 23.16C22.6 23.72 21.92 24 21.12 24H2.88Z" fill="#EE4136"/>
<path d="M11.8887 19.4704L15.2899 10.5017H16.8488L20.25 19.4704H18.6911L17.9015 17.1827H14.2776L13.4678 19.4704H11.8887ZM14.723 15.887H17.4156L16.0997 12.1821H16.039L14.723 15.887ZM5.97699 17.2232L4.92423 16.1704L8.71012 12.4048C8.23773 11.8784 7.82607 11.335 7.47515 10.7746C7.12423 10.2147 6.8138 9.62439 6.54386 9.00353H8.10276C8.33221 9.46243 8.57515 9.87057 8.83159 10.228C9.08804 10.5859 9.39172 10.9606 9.74264 11.352C10.296 10.7581 10.7549 10.1475 11.1193 9.52019C11.4837 8.89231 11.7874 8.22071 12.0304 7.50537H3.75V6.02746H8.97331V4.5293H10.4715V6.02746H15.6948V7.50537H13.5285C13.2586 8.39617 12.9009 9.25646 12.4555 10.0863C12.0101 10.9166 11.4567 11.7029 10.7954 12.4452L12.5972 14.2673L12.0304 15.806L9.72239 13.498L5.97699 17.2232Z" fill="white"/>
</svg>
