<svg xmlns="http://www.w3.org/2000/svg" width="20" height="16" viewBox="0 0 20 16">
    <path fill="#1DA1F2" fill-rule="nonzero" d="M6.037 15.6c7.243 0 11.205-6.001 11.205-11.205 0-.17-.004-.34-.012-.51a8.008 8.008 0 0 0 1.965-2.038 7.853 7.853 0 0 1-2.262.62A3.952 3.952 0 0 0 18.665.288a7.898 7.898 0 0 1-2.5.956 3.939 3.939 0 0 0-6.711 3.591A11.181 11.181 0 0 1 1.335.722a3.928 3.928 0 0 0-.533 1.98c0 1.366.695 2.572 1.752 3.277a3.91 3.91 0 0 1-1.784-.492v.05a3.94 3.94 0 0 0 3.16 3.86 3.943 3.943 0 0 1-1.78.068 3.942 3.942 0 0 0 3.68 2.736 7.9 7.9 0 0 1-4.892 1.685A8 8 0 0 1 0 13.831 11.148 11.148 0 0 0 6.037 15.6"/>
</svg>
