<svg id="Layer_1" data-name="Layer 1" xmlns="http://www.w3.org/2000/svg" width="7.1mm" height="7.1mm" viewBox="0 0 20 20">
  <defs>
    <style>
      .cls-1 {
        fill: #ee4136;
        fill-rule: evenodd;
      }
    </style>
  </defs>
  <g>
    <path class="cls-1" d="M9.9,8.1a2.3,2.3,0,0,1,2.3,2.3,2.3,2.3,0,1,1-4.6,0A2.3,2.3,0,0,1,9.9,8.1"/>
    <path class="cls-1" d="M9.9,14.1a3.7,3.7,0,0,1-3.6-3.7A3.6,3.6,0,0,1,9.9,6.8a3.7,3.7,0,0,1,3.7,3.6,3.8,3.8,0,0,1-3.7,3.7ZM7.7,3.1,6.4,4.6H4.1A1.5,1.5,0,0,0,2.6,6.1v8.7a1.5,1.5,0,0,0,1.5,1.5H15.7a1.5,1.5,0,0,0,1.5-1.5V6.1a1.5,1.5,0,0,0-1.5-1.5H13.4L12.1,3.1Z"/>
  </g>
</svg>
