<svg width="24" height="25" viewBox="0 0 24 25" fill="none" xmlns="http://www.w3.org/2000/svg">
<g clip-path="url(#clip0_840_514)">
<rect x="4" y="4.48901" width="16" height="16" rx="1.7" fill="#EE4136"/>
<path d="M11.9294 17.2311L14.0884 11.538H15.0779L17.2369 17.2311H16.2474L15.7462 15.7789H13.4458L12.9318 17.2311H11.9294ZM13.7285 14.9564H15.4378L14.6024 12.6046H14.5639L13.7285 14.9564ZM8.17681 15.8046L7.50855 15.1363L9.91172 12.746C9.61186 12.4119 9.35055 12.067 9.1278 11.7112C8.90505 11.3559 8.70799 10.9811 8.53664 10.587H9.52619C9.67183 10.8783 9.82605 11.1374 9.98883 11.3642C10.1516 11.5915 10.3444 11.8293 10.5671 12.0777C10.9184 11.7008 11.2097 11.3132 11.441 10.915C11.6723 10.5164 11.8651 10.0901 12.0193 9.63602H6.76318V8.69788H10.0788V7.74689H11.0298V8.69788H14.3454V9.63602H12.9703C12.799 10.2015 12.5719 10.7476 12.2892 11.2743C12.0065 11.8014 11.6552 12.3005 11.2354 12.7717L12.3792 13.9283L12.0193 14.905L10.5543 13.44L8.17681 15.8046Z" fill="white"/>
</g>
<defs>
<clipPath id="clip0_840_514">
<rect width="16" height="16" fill="white" transform="translate(4 4.48901)"/>
</clipPath>
</defs>
</svg>
