<svg width="14" height="14" viewBox="0 0 14 14" fill="none" xmlns="http://www.w3.org/2000/svg">
<path fill-rule="evenodd" clip-rule="evenodd" d="M12.6 7C12.6 10.08 10.08 12.6 7 12.6C3.92 12.6 1.4 10.08 1.4 7C1.4 3.92 3.92 1.4 7 1.4C7.56 1.4 8.05 1.47 8.54 1.61L9.66 0.49C8.82 0.21 7.91 0 7 0C3.15 0 0 3.15 0 7C0 10.85 3.15 14 7 14C10.85 14 14 10.85 14 7H12.6Z" fill="#60A23E"/>
<path fill-rule="evenodd" clip-rule="evenodd" d="M12.0007 2.79492L6.83475 8.22342L4.73825 6.13217L4.03125 6.84005L6.83388 9.64355L12.8521 3.62617L12.1399 2.91917L12.0007 2.79492Z" fill="#60A23E"/>
<path fill-rule="evenodd" clip-rule="evenodd" d="M12.0007 2.79492L6.83475 8.22342L4.73825 6.13217L4.03125 6.84005L6.83388 9.64355L12.8521 3.62617L12.1399 2.91917L12.0007 2.79492Z" stroke="#60A23E" stroke-width="0.7"/>
</svg>
