<?xml version="1.0" encoding="UTF-8"?>
<svg width="25px" height="18px" viewBox="0 0 25 18" version="1.1" xmlns="http://www.w3.org/2000/svg" xmlns:xlink="http://www.w3.org/1999/xlink">
    <title>Active Conference</title>
    <g id="Page-1" stroke="none" stroke-width="1" fill="none" fill-rule="evenodd">
        <g id="Group" fill="#9C9696">
            <path d="M12.499445,8.51606853 C13.1943519,8.51606853 13.7593801,7.94435413 13.7593801,7.23983994 C13.7593801,6.53645117 13.1943519,5.96361135 12.500555,5.96361135 C11.8056481,5.96361135 11.2406199,6.53645117 11.2406199,7.23983994 C11.2406199,7.94435413 11.8067581,8.51719395 12.500555,8.51719395 L12.499445,8.51606853 Z M14.3588207,11.3206202 L12.7791839,12.1793172 C12.6049021,12.2738527 12.3950979,12.2738527 12.2219262,12.1793172 L10.6411793,11.3206202 L10.2315617,11.4477929 C9.72980774,11.6199825 9.39234492,12.096036 9.39234492,12.6351132 L9.39234492,15.0761536 L15.6087652,15.0761536 L15.6087652,12.6339877 C15.6087652,12.096036 15.2713023,11.6211079 14.7684383,11.4477929 L14.3588207,11.3206202 Z M12.9645664,1.41015381 C12.8424582,1.53395023 12.6726167,1.60485182 12.499445,1.60485182 C12.3273833,1.60485182 12.1575418,1.53395023 12.0365437,1.41015381 C11.9144354,1.28635738 11.8445007,1.11529323 11.8445007,0.94085282 C11.8445007,0.765286983 11.9144354,0.594222834 12.0365437,0.47042641 C12.1586519,0.346629986 12.3273833,0.275728398 12.499445,0.275728398 C12.6726167,0.275728398 12.8413481,0.346629986 12.9645664,0.47042641 C13.0866747,0.594222834 13.1554993,0.765286983 13.1554993,0.94085282 C13.1554993,1.11529323 13.0855646,1.28635738 12.9645664,1.41015381 L12.9645664,1.41015381 Z M23.7766973,0.62010754 C23.7766973,0.277979242 23.5025088,0 23.165046,0 L1.83606412,0 C1.49749123,0 1.2233027,0.277979242 1.2233027,0.62010754 L1.2233027,1.80067525 L23.7778074,1.80067525 L23.7778074,0.62010754 L23.7766973,0.62010754 Z M24.570401,16.050769 L0.429599041,16.050769 C0.193153057,16.050769 0,16.2454671 0,16.4863074 L0,17.5644617 C0,17.8041766 0.193153057,18 0.429599041,18 L24.570401,18 C24.807957,18 25,17.8041766 25,17.5644617 L25,16.4863074 C25,16.2454671 24.807957,16.050769 24.570401,16.050769 L24.570401,16.050769 Z" id="Fill-1"></path>
            <path d="M12.5033973,4.94437328 C13.8759232,4.94437328 14.9913836,6.02580055 14.9913836,7.35535224 C14.9913836,8.68490393 13.8759232,9.7663312 12.5045298,9.7663312 C11.1331364,9.7663312 10.017676,8.68490393 10.017676,7.35535224 C10.017676,6.02689844 11.1331364,4.94437328 12.5045298,4.94437328 L12.5033973,4.94437328 Z M8.13215165,12.6186642 C8.13215165,11.5888381 8.80822255,10.6775846 9.81610044,10.3526075 L9.82968981,10.3482159 L10.4944362,10.1505947 C10.648449,10.1044831 10.8137863,10.1198536 10.9553422,10.1945105 L12.5045298,10.9992681 L14.0525849,10.1934126 C14.1941408,10.1198536 14.3594781,10.105581 14.5134909,10.1494968 L15.1782373,10.347118 L15.1929591,10.3526075 C16.200837,10.6775846 16.8769079,11.5888381 16.8769079,12.6186642 L16.8769079,15 L24,15 L24,3 L1,3 L1,15 L8.13215165,15 L8.13215165,12.6175663 L8.13215165,12.6186642 Z" id="Fill-3"></path>
        </g>
    </g>
</svg>