<?xml version="1.0" encoding="UTF-8"?>
<svg width="23px" height="16px" viewBox="0 0 23 16" version="1.1" xmlns="http://www.w3.org/2000/svg" xmlns:xlink="http://www.w3.org/1999/xlink">
    <title>9A8B2C29-4073-4FFF-AF00-222EC8BB8ECC</title>
    <g id="1920X1024-Artboard-(-Latest-Update-)" stroke="none" stroke-width="1" fill="none" fill-rule="evenodd">
        <g id="02_MelpApp_Recent_Messages_25th-April" transform="translate(-1871.000000, -30.000000)" fill="#EE4136" fill-rule="nonzero">
            <g id="Active-Conference_Active-State" transform="translate(1871.000000, 24.000000)">
                <g id="Active-conference" transform="translate(0.000000, 6.000000)">
                    <path d="M22.1341422,14.2647204 L0.387184834,14.2647204 C0.173725118,14.2647204 0,14.4384455 0,14.6519052 L0,15.6099336 C0,15.8233934 0.173725118,15.9971185 0.387184834,15.9971185 L22.1341422,15.9971185 C22.3476019,15.9971185 22.521327,15.8233934 22.521327,15.6099336 L22.521327,14.6519052 C22.521327,14.4384455 22.3476019,14.2647204 22.1341422,14.2647204 L22.1341422,14.2647204 Z" id="Path"></path>
                    <path d="M21.4189194,0.554085308 C21.4189194,0.249630332 21.1721706,0.00288151659 20.8677156,0.00288151659 L1.6536872,0.00288151659 C1.34923223,0.00288151659 1.10248341,0.249630332 1.10248341,0.554085308 L1.10248341,1.60265403 L21.4189194,1.60265403 L21.4189194,0.554085308 Z M11.6785592,1.25588626 C11.5683791,1.36614218 11.4163412,1.4291564 11.260436,1.4291564 C11.1052133,1.4291564 10.9524929,1.36614218 10.8430711,1.25588626 C10.7328152,1.14646445 10.6698009,0.993668246 10.6698009,0.838521327 C10.6698009,0.682540284 10.7328152,0.530578199 10.8430711,0.421156398 C10.9524929,0.310900474 11.1052133,0.247886256 11.260436,0.247886256 C11.4163412,0.247886256 11.5683791,0.310900474 11.6785592,0.421156398 C11.7880569,0.530578199 11.8510711,0.682540284 11.8510711,0.838521327 C11.8509953,0.993668246 11.7880569,1.14646445 11.6785592,1.25588626 L11.6785592,1.25588626 Z" id="Shape"></path>
                    <path d="M12.9349763,10.0615735 L11.5115071,10.824872 C11.3549953,10.9088152 11.1664076,10.9088152 11.0098957,10.824872 L9.58642654,10.0615735 L9.21706161,10.1748626 C8.76451185,10.3282654 8.46096682,10.7514692 8.46096682,11.2295735 L8.46096682,13.3985213 L14.0605118,13.3985213 L14.0605118,11.2295735 C14.0605118,10.7513934 13.7569668,10.3282654 13.3044171,10.1748626 L12.9349763,10.0615735 L12.9349763,10.0615735 Z" id="Path"></path>
                    <path d="M11.2606635,7.57065403 C11.8861801,7.57065403 12.3951469,7.0616872 12.3951469,6.43617062 C12.3951469,5.81065403 11.8861801,5.3016872 11.2606635,5.3016872 C10.6351469,5.3016872 10.1261801,5.81065403 10.1261801,6.43617062 C10.1261801,7.0616872 10.6351469,7.57065403 11.2606635,7.57065403 Z" id="Path"></path>
                    <path d="M7.39927962,11.2295735 C7.39927962,10.2917915 7.99704265,9.4624455 8.88667299,9.16587678 C8.89076777,9.16451185 8.89478673,9.16322275 8.89888152,9.16193365 L9.48648341,8.9816872 C9.6216872,8.9401327 9.76818957,8.95446445 9.89292891,9.02134597 L11.2605877,9.75469194 L12.6282464,9.02134597 C12.7530616,8.95438863 12.8994882,8.9401327 13.0346919,8.9816872 L13.6222938,9.16193365 C13.6263886,9.16322275 13.6304076,9.16451185 13.6345024,9.16587678 C14.5241327,9.4624455 15.1218957,10.2917915 15.1218957,11.2295735 L15.1218957,13.3985213 L21.4119431,13.3985213 L21.4119431,2.46885308 L1.10240758,2.46885308 L1.10240758,13.3985213 L7.39927962,13.3985213 L7.39927962,11.2295735 Z M11.2606635,4.24007583 C12.4715829,4.24007583 13.4567583,5.22525118 13.4567583,6.43617062 C13.4567583,7.64709005 12.4715829,8.6322654 11.2606635,8.6322654 C10.0497441,8.6322654 9.06456872,7.64709005 9.06456872,6.43617062 C9.06456872,5.22525118 10.0497441,4.24007583 11.2606635,4.24007583 Z" id="Shape"></path>
                </g>
            </g>
        </g>
    </g>
</svg>