<svg width="24" height="24" viewBox="0 0 24 24" fill="none" xmlns="http://www.w3.org/2000/svg">
<ellipse cx="14.0274" cy="7.55022" rx="3.41706" ry="3.55022" fill="#969696"/>
<path d="M6.7998 13.2852C5.7595 14.0189 5.04401 15.1951 5.04401 16.5205V18.8873H2.00662V16.5205C2.00662 14.8006 4.70401 13.6007 6.7998 13.2852Z" fill="#969696"/>
<path d="M9.47373 11.1004C7.5858 11.1004 6.05667 9.51172 6.05667 7.55022C6.05667 5.58872 7.5858 4 9.47373 4C9.87523 4 10.5807 4.08876 10.9395 4.21301C9.87523 5.58514 9.47373 6.28989 9.47373 7.55022C9.47373 8.81055 10.0952 9.9811 10.9395 10.8874C10.5807 11.0117 9.87523 11.1004 9.47373 11.1004Z" fill="#969696"/>
<path fill-rule="evenodd" clip-rule="evenodd" d="M13.7655 12.6787C13.8552 12.6787 13.9438 12.6797 14.0316 12.6815C14.1163 12.6798 14.2017 12.6789 14.2882 12.6789C17.3652 12.6789 19.6276 13.5152 20.8789 14.1327C21.5662 14.4724 22 15.2214 22 16.045V18.9904H13.302L13.3022 18.9902H6.05371V16.0448C6.05371 15.2212 6.4875 14.4722 7.17482 14.1325C8.42606 13.515 10.6885 12.6787 13.7655 12.6787Z" fill="#969696"/>
</svg>
