<svg width="22" height="5" viewBox="0 0 22 5" fill="none" xmlns="http://www.w3.org/2000/svg">
<path fill-rule="evenodd" clip-rule="evenodd" d="M19.2157 4.48633C17.9775 4.48633 16.9725 3.48135 16.9725 2.24308C16.9725 1.00481 17.9775 -0.000166568 19.2157 -0.000166514C20.454 -0.00016646 21.459 1.00481 21.459 2.24308C21.459 3.48135 20.454 4.48633 19.2157 4.48633Z" fill="#9C9696"/>
<path fill-rule="evenodd" clip-rule="evenodd" d="M10.7294 4.48633C9.49114 4.48633 8.48616 3.48135 8.48616 2.24308C8.48616 1.00481 9.49114 -0.000166568 10.7294 -0.000166514C11.9677 -0.00016646 12.9727 1.00481 12.9727 2.24308C12.9727 3.48135 11.9677 4.48633 10.7294 4.48633Z" fill="#9C9696"/>
<path fill-rule="evenodd" clip-rule="evenodd" d="M2.24308 4.48633C1.00481 4.48633 -0.000166372 3.48135 -0.000166318 2.24308C-0.000166264 1.00481 1.00481 -0.000166568 2.24308 -0.000166514C3.48135 -0.00016646 4.48633 1.00481 4.48633 2.24308C4.48633 3.48135 3.48135 4.48633 2.24308 4.48633Z" fill="#9C9696"/>
</svg>
