<svg width="25" height="25" viewBox="0 0 25 25" fill="none" xmlns="http://www.w3.org/2000/svg">
<g clip-path="url(#clip0_840_484)">
<path d="M11.9316 20.6311C10.7524 20.6311 9.75087 20.2189 8.92701 19.3945C8.10262 18.5706 7.69043 17.5758 7.69043 16.41V7.70648C7.69043 6.86226 7.99194 6.13864 8.59495 5.53563C9.19797 4.93261 9.92159 4.6311 10.7658 4.6311C11.61 4.6311 12.3336 4.93261 12.9367 5.53563C13.5397 6.13864 13.8412 6.86226 13.8412 7.70648V15.5456C13.8412 16.0817 13.6571 16.5373 13.2888 16.9125C12.92 17.2877 12.4676 17.4753 11.9316 17.4753C11.3956 17.4753 10.9432 17.2877 10.5744 16.9125C10.2062 16.5373 10.0221 16.0817 10.0221 15.5456V7.70648H10.9668V15.5456C10.9668 15.827 11.0606 16.0583 11.2482 16.2395C11.4358 16.4201 11.6636 16.5105 11.9316 16.5105C12.1996 16.5105 12.4274 16.4201 12.615 16.2395C12.8027 16.0583 12.8965 15.827 12.8965 15.5456V7.70648C12.8965 7.11686 12.6922 6.61757 12.2838 6.20859C11.8748 5.80014 11.3688 5.59593 10.7658 5.59593C10.1762 5.59593 9.67716 5.80014 9.26872 6.20859C8.85974 6.61757 8.65525 7.11686 8.65525 7.70648V16.41C8.65525 17.3078 8.97365 18.0783 9.61043 18.7215C10.2467 19.3647 11.0204 19.6863 11.9316 19.6863C12.8429 19.6863 13.6169 19.3647 14.2536 18.7215C14.8899 18.0783 15.208 17.3078 15.208 16.41V7.70648H16.1728V16.41C16.1728 17.5758 15.7609 18.5706 14.9371 19.3945C14.1127 20.2189 13.1109 20.6311 11.9316 20.6311Z" fill="#9C9696"/>
</g>
<defs>
<clipPath id="clip0_840_484">
<rect width="9" height="16" fill="white" transform="translate(7.69043 4.6311)"/>
</clipPath>
</defs>
</svg>
