<svg width="25" height="25" viewBox="0 0 25 25" fill="none" xmlns="http://www.w3.org/2000/svg">
<g clip-path="url(#clip0_840_485)">
<path d="M11.9316 20.489C10.7524 20.489 9.75087 20.0768 8.92701 19.2524C8.10262 18.4285 7.69043 17.4337 7.69043 16.2679V7.56439C7.69043 6.72017 7.99194 5.99655 8.59495 5.39354C9.19797 4.79052 9.92159 4.48901 10.7658 4.48901C11.61 4.48901 12.3336 4.79052 12.9367 5.39354C13.5397 5.99655 13.8412 6.72017 13.8412 7.56439V15.4035C13.8412 15.9396 13.6571 16.3952 13.2888 16.7704C12.92 17.1456 12.4676 17.3332 11.9316 17.3332C11.3956 17.3332 10.9432 17.1456 10.5744 16.7704C10.2062 16.3952 10.0221 15.9396 10.0221 15.4035V7.56439H10.9668V15.4035C10.9668 15.6849 11.0606 15.9162 11.2482 16.0974C11.4358 16.278 11.6636 16.3684 11.9316 16.3684C12.1996 16.3684 12.4274 16.278 12.615 16.0974C12.8027 15.9162 12.8965 15.6849 12.8965 15.4035V7.56439C12.8965 6.97477 12.6922 6.47548 12.2838 6.0665C11.8748 5.65805 11.3688 5.45384 10.7658 5.45384C10.1762 5.45384 9.67716 5.65805 9.26872 6.0665C8.85974 6.47548 8.65525 6.97477 8.65525 7.56439V16.2679C8.65525 17.1657 8.97365 17.9362 9.61043 18.5794C10.2467 19.2226 11.0204 19.5442 11.9316 19.5442C12.8429 19.5442 13.6169 19.2226 14.2536 18.5794C14.8899 17.9362 15.208 17.1657 15.208 16.2679V7.56439H16.1728V16.2679C16.1728 17.4337 15.7609 18.4285 14.9371 19.2524C14.1127 20.0768 13.1109 20.489 11.9316 20.489Z" fill="#EE4136"/>
</g>
<defs>
<clipPath id="clip0_840_485">
<rect width="9" height="16" fill="white" transform="translate(7.69043 4.48901)"/>
</clipPath>
</defs>
</svg>
