<svg xmlns="http://www.w3.org/2000/svg" width="20" height="20" viewBox="0 0 20 20">
    <g fill="none" fill-rule="evenodd">
        <g>
            <g>
                <g>
                    <path fill="#FFF" d="M0 0H20V20H0z" transform="translate(-814 -1038) translate(799 1016) translate(15 22)"/>
                    <path fill="#9C9696" d="M5.817 14.634C3.154 14.634 1 12.474 1 9.817 1 7.158 3.154 5 5.817 5h9.196c1.935 0 3.503 1.567 3.503 3.503 0 1.935-1.568 3.503-3.503 3.503H7.568c-1.208 0-2.189-.98-2.189-2.19 0-1.208.981-2.189 2.189-2.189h6.569v1.314H7.568c-.48 0-.875.39-.875.876 0 .485.394.876.875.876h7.445c1.209 0 2.189-.981 2.189-2.19s-.98-2.19-2.19-2.19H5.818c-1.935 0-3.503 1.569-3.503 3.504s1.568 3.503 3.503 3.503h8.32v1.314h-8.32z" transform="translate(-814 -1038) translate(799 1016) translate(15 22) rotate(-90 9.758 9.817)"/>
                </g>
            </g>
        </g>
    </g>
</svg>
