<svg width="17" height="9" viewBox="0 0 17 9" fill="none" xmlns="http://www.w3.org/2000/svg">
<path fill-rule="evenodd" clip-rule="evenodd" d="M4.455 9C1.99165 9 0 6.983 0 4.5C0 2.016 1.99165 0 4.455 0L12.96 0C14.7496 0 16.2 1.464 16.2 3.273C16.2 5.081 14.7496 6.546 12.96 6.546L6.075 6.546C4.9572 6.546 4.05 5.629 4.05 4.5C4.05 3.37 4.9572 2.454 6.075 2.454L12.15 2.454V3.682L6.075 3.682C5.62998 3.682 5.265 4.046 5.265 4.5C5.265 4.954 5.62998 5.318 6.075 5.318L12.96 5.318C14.0778 5.318 14.984 4.402 14.984 3.273C14.984 2.143 14.0788 1.227 12.96 1.227L4.455 1.227C2.66538 1.227 1.215 2.692 1.215 4.5C1.215 6.308 2.66538 7.773 4.455 7.773L12.15 7.773V9L4.455 9Z" fill="#222020"/>
</svg>
