<svg width="18" height="11" viewBox="0 0 18 11" fill="none" xmlns="http://www.w3.org/2000/svg">
<path fill-rule="evenodd" clip-rule="evenodd" d="M5.03906 5.90436C4.1646 6.50578 3.55183 7.32062 3.55183 8.40707V10.3471H0.998649V8.40707C0.998649 6.99727 3.27737 6.16304 5.03906 5.90436Z" fill="#737070"/>
<path d="M9.9351 5.17356C8.52501 5.17356 7.38191 4.01542 7.38191 2.58678C7.38191 1.15814 8.52501 0 9.9351 0C11.3452 0 12.4883 1.15814 12.4883 2.58678C12.4883 4.01542 11.3452 5.17356 9.9351 5.17356Z" fill="#737070"/>
<path fill-rule="evenodd" clip-rule="evenodd" d="M6.10614 5.17356C4.69551 5.17356 3.55296 4.01597 3.55296 2.58678C3.55296 1.15758 4.69551 0 6.10614 0C6.40614 0 6.68699 0.0646693 6.95508 0.155207C6.42529 0.821302 6.10614 1.66847 6.10614 2.58678C6.10614 3.50508 6.42529 4.35225 6.95508 5.01835C6.68699 5.10889 6.40614 5.17356 6.10614 5.17356Z" fill="#737070"/>
<path fill-rule="evenodd" clip-rule="evenodd" d="M9.93465 5.82025C11.6389 5.82025 15.041 6.68682 15.041 8.40703V10.3471H4.82828V8.40703C4.82828 6.68682 8.2304 5.82025 9.93465 5.82025Z" fill="#737070"/>
<path d="M17.755 3.04994C17.452 3.04994 17.1588 3.00066 16.8854 2.91197C16.7992 2.88241 16.7031 2.90458 16.6366 2.9711L16.2498 3.45643C15.5526 3.12384 14.8997 2.49563 14.5524 1.77379L15.0328 1.36483C15.0993 1.29585 15.119 1.19977 15.0919 1.11355C15.0007 0.840087 14.9539 0.546919 14.9539 0.243896C14.9539 0.110862 14.8431 0 14.71 0H13.8576C13.7246 0 13.5645 0.0591264 13.5645 0.243896C13.5645 2.53258 15.4688 4.43448 17.755 4.43448C17.9299 4.43448 17.9989 4.27927 17.9989 4.14377V3.29383C17.9989 3.1608 17.8881 3.04994 17.755 3.04994Z" fill="#737070"/>
</svg>
