<svg width="14" height="14" viewBox="0 0 14 14" fill="none" xmlns="http://www.w3.org/2000/svg">
<path d="M7.00004 0.333344C3.32004 0.333344 0.333374 3.32001 0.333374 7.00001C0.333374 10.68 3.32004 13.6667 7.00004 13.6667C10.68 13.6667 13.6667 10.68 13.6667 7.00001C13.6667 3.32001 10.68 0.333344 7.00004 0.333344ZM1.66671 7.00001C1.66671 4.05334 4.05337 1.66668 7.00004 1.66668C8.23337 1.66668 9.36671 2.08668 10.2667 2.79334L2.79337 10.2667C2.08671 9.36668 1.66671 8.23334 1.66671 7.00001ZM7.00004 12.3333C5.76671 12.3333 4.63337 11.9133 3.73337 11.2067L11.2067 3.73334C11.9134 4.63334 12.3334 5.76668 12.3334 7.00001C12.3334 9.94668 9.94671 12.3333 7.00004 12.3333Z" fill="#737070"/>
</svg>
