<svg width="23" height="17" viewBox="0 0 23 17" fill="none" xmlns="http://www.w3.org/2000/svg">
<g clip-path="url(#clip0_1101_238)">
<path fill-rule="evenodd" clip-rule="evenodd" d="M6.25676 4.40342C6.25676 6.12313 7.62955 7.49627 9.2973 7.49627C10.965 7.49627 12.3378 6.12313 12.3378 4.40342C12.3378 2.68372 10.965 1.31057 9.2973 1.31057C7.62955 1.31057 6.25676 2.68372 6.25676 4.40342ZM9.2973 8.43184C7.10136 8.43184 5.32119 6.62826 5.32119 4.40342C5.32119 2.17859 7.10136 0.375 9.2973 0.375C11.4932 0.375 13.2734 2.17859 13.2734 4.40342C13.2734 6.62826 11.4932 8.43184 9.2973 8.43184ZM16.3146 13.4674C16.3146 13.1366 16.1584 12.7806 15.7418 12.3911C15.3184 11.9952 14.6878 11.6281 13.9174 11.3155C12.3748 10.6893 10.5064 10.3745 9.29791 10.3745C8.08947 10.3745 6.22105 10.6893 4.67838 11.3155C3.90806 11.6281 3.27739 11.9952 2.854 12.3911C2.43743 12.7806 2.28127 13.1366 2.28127 13.4674V15.5531H16.3146V13.4674ZM1.3457 13.4674V15.5531V16.4887H2.28127H16.3146H17.2501V15.5531V13.4674C17.2501 10.7885 11.952 9.43895 9.29791 9.43895C6.64386 9.43895 1.3457 10.7885 1.3457 13.4674Z" fill="#EE4136"/>
<path fill-rule="evenodd" clip-rule="evenodd" d="M0.972656 16.8621V13.4666C0.972656 12.6613 1.37378 11.9824 1.96059 11.4337C2.54468 10.8875 3.3357 10.4466 4.18698 10.101C5.88873 9.41035 7.92463 9.06395 9.29909 9.06395C10.6735 9.06395 12.7095 9.41035 14.4112 10.101C15.2625 10.4466 16.0535 10.8875 16.6376 11.4337C17.2244 11.9824 17.6255 12.6613 17.6255 13.4666V16.8621H0.972656ZM6.63217 4.40265C6.63217 5.91987 7.84158 7.12128 9.29848 7.12128C10.7554 7.12128 11.9648 5.91987 11.9648 4.40265C11.9648 2.88542 10.7554 1.68402 9.29848 1.68402C7.84158 1.68402 6.63217 2.88542 6.63217 4.40265ZM9.29848 8.80529C6.89126 8.80529 4.94815 6.82954 4.94815 4.40265C4.94815 1.97576 6.89126 0 9.29848 0C11.7057 0 13.6488 1.97576 13.6488 4.40265C13.6488 6.82954 11.7057 8.80529 9.29848 8.80529ZM15.9415 13.4666C15.9415 13.2704 15.8544 13.0068 15.4874 12.6637C15.1099 12.3107 14.5251 11.9647 13.7779 11.6614C12.2807 11.0538 10.4601 10.748 9.29909 10.748C8.13808 10.748 6.31752 11.0538 4.8203 11.6614C4.07307 11.9647 3.48823 12.3107 3.11078 12.6637L2.85518 12.3903C3.27857 11.9944 3.90924 11.6273 4.67956 11.3147C6.22223 10.6886 8.09065 10.3737 9.29909 10.3737C10.5075 10.3737 12.3759 10.6886 13.9186 11.3147C14.6889 11.6273 15.3196 11.9944 15.743 12.3903C16.1596 12.7799 16.3157 13.1358 16.3157 13.4666V15.5523H2.28245V13.4666C2.28245 13.1358 2.43861 12.7799 2.85518 12.3903L3.11078 12.6637C2.74382 13.0068 2.65667 13.2704 2.65667 13.4666V15.1781H15.9415V13.4666ZM9.29848 7.4955C7.63073 7.4955 6.25794 6.12235 6.25794 4.40265C6.25794 2.68294 7.63073 1.30979 9.29848 1.30979C10.9662 1.30979 12.339 2.68294 12.339 4.40265C12.339 6.12235 10.9662 7.4955 9.29848 7.4955ZM5.32237 4.40265C5.32237 6.62748 7.10253 8.43107 9.29848 8.43107C11.4944 8.43107 13.2746 6.62748 13.2746 4.40265C13.2746 2.17781 11.4944 0.374226 9.29848 0.374226C7.10253 0.374226 5.32237 2.17781 5.32237 4.40265ZM1.34688 13.4666C1.34688 10.7877 6.64504 9.43817 9.29909 9.43817C11.9531 9.43817 17.2513 10.7877 17.2513 13.4666V16.4879H1.34688V13.4666Z" fill="#EE4136"/>
<path d="M18.5655 9.54603C18.1125 9.54603 17.6868 9.46008 17.2884 9.28817C16.8901 9.11626 16.5435 8.88295 16.2488 8.58825C15.9541 8.29354 15.7208 7.94699 15.5489 7.5486C15.377 7.1502 15.291 6.72452 15.291 6.27155C15.291 5.81858 15.377 5.3929 15.5489 4.9945C15.7208 4.59611 15.9541 4.24956 16.2488 3.95486C16.5435 3.66015 16.8901 3.42685 17.2884 3.25494C17.6868 3.08303 18.1125 2.99707 18.5655 2.99707C19.0185 2.99707 19.4441 3.08303 19.8425 3.25494C20.2409 3.42685 20.5875 3.66015 20.8822 3.95486C21.1769 4.24956 21.4102 4.59611 21.5821 4.9945C21.754 5.3929 21.84 5.81858 21.84 6.27155C21.84 6.72452 21.754 7.1502 21.5821 7.5486C21.4102 7.94699 21.1769 8.29354 20.8822 8.58825C20.5875 8.88295 20.2409 9.11626 19.8425 9.28817C19.4441 9.46008 19.0185 9.54603 18.5655 9.54603ZM18.5655 8.89113C19.2968 8.89113 19.9162 8.63736 20.4238 8.12982C20.9313 7.62227 21.1851 7.00285 21.1851 6.27155C21.1851 5.97685 21.1373 5.69306 21.0418 5.42019C20.9463 5.14731 20.8085 4.89627 20.6284 4.66706L16.961 8.33447C17.1902 8.51457 17.4413 8.65237 17.7141 8.74788C17.987 8.84338 18.2708 8.89113 18.5655 8.89113ZM16.5026 7.87605L20.17 4.20863C19.9408 4.02853 19.6897 3.89073 19.4169 3.79522C19.144 3.69972 18.8602 3.65197 18.5655 3.65197C17.8342 3.65197 17.2148 3.90574 16.7072 4.41328C16.1997 4.92083 15.9459 5.54025 15.9459 6.27155C15.9459 6.56625 15.9937 6.85004 16.0892 7.12292C16.1847 7.39579 16.3225 7.64683 16.5026 7.87605Z" fill="#EE4136"/>
<path fill-rule="evenodd" clip-rule="evenodd" d="M18.5669 9.82612C18.0774 9.82612 17.6137 9.73301 17.1786 9.54529C16.749 9.35991 16.3725 9.10694 16.0517 8.78613C15.7309 8.46532 15.4779 8.08882 15.2926 7.65922C15.1048 7.22417 15.0117 6.76047 15.0117 6.27097C15.0117 5.78147 15.1048 5.31777 15.2926 4.88272C15.4779 4.45312 15.7309 4.07663 16.0517 3.75581C16.3725 3.435 16.749 3.18203 17.1786 2.99665C17.6137 2.80893 18.0774 2.71582 18.5669 2.71582C19.0564 2.71582 19.5201 2.80893 19.9551 2.99665C20.3847 3.18203 20.7612 3.435 21.082 3.75581C21.4028 4.07663 21.6558 4.45312 21.8412 4.88272C22.0289 5.31777 22.122 5.78147 22.122 6.27097C22.122 6.76047 22.0289 7.22417 21.8412 7.65922C21.6558 8.08882 21.4028 8.46532 21.082 8.78613C20.7612 9.10694 20.3847 9.35991 19.9551 9.54529C19.5201 9.73301 19.0564 9.82612 18.5669 9.82612ZM18.5669 8.60989C19.2253 8.60989 19.7729 8.38458 20.2267 7.93077C20.6805 7.47697 20.9058 6.92941 20.9058 6.27097C20.9058 6.00722 20.8632 5.75482 20.7783 5.51232C20.7283 5.36947 20.6654 5.23338 20.5893 5.10387L17.3998 8.29343C17.5293 8.36945 17.6654 8.43238 17.8082 8.48238C18.0507 8.56726 18.3031 8.60989 18.5669 8.60989ZM17.1954 8.49775C17.1154 8.4477 17.0377 8.39308 16.9624 8.33389L20.6298 4.66648C20.689 4.74181 20.7436 4.81949 20.7937 4.89954C20.8959 5.06306 20.9791 5.23641 21.0432 5.41961C21.1387 5.69248 21.1865 5.97627 21.1865 6.27097C21.1865 7.00227 20.9327 7.62169 20.4251 8.12924C19.9176 8.63678 19.2982 8.89055 18.5669 8.89055C18.2722 8.89055 17.9884 8.8428 17.7155 8.7473C17.5323 8.68318 17.359 8.6 17.1954 8.49775ZM20.1714 4.20805C20.096 4.14886 20.0183 4.09424 19.9383 4.04419C19.7748 3.94194 19.6014 3.85876 19.4182 3.79464C19.1454 3.69914 18.8616 3.65139 18.5669 3.65139C17.8356 3.65139 17.2161 3.90516 16.7086 4.4127C16.2011 4.92025 15.9473 5.53967 15.9473 6.27097C15.9473 6.56567 15.995 6.84946 16.0905 7.12234C16.1547 7.30553 16.2378 7.47888 16.3401 7.6424C16.3901 7.72245 16.4448 7.80014 16.5039 7.87547L20.1714 4.20805ZM16.5444 7.43807L19.734 4.24852C19.6045 4.17249 19.4684 4.10956 19.3255 4.05956C19.083 3.97468 18.8306 3.93206 18.5669 3.93206C17.9084 3.93206 17.3609 4.15736 16.9071 4.61117C16.4533 5.06497 16.228 5.61253 16.228 6.27097C16.228 6.53472 16.2706 6.78712 16.3555 7.02962C16.4055 7.17247 16.4684 7.30856 16.5444 7.43807ZM17.2898 9.28759C17.6882 9.4595 18.1139 9.54545 18.5669 9.54545C19.0198 9.54545 19.4455 9.4595 19.8439 9.28759C20.2423 9.11567 20.5889 8.88237 20.8836 8.58767C21.1783 8.29296 21.4116 7.94641 21.5835 7.54802C21.7554 7.14962 21.8413 6.72394 21.8413 6.27097C21.8413 5.818 21.7554 5.39232 21.5835 4.99392C21.4116 4.59553 21.1783 4.24898 20.8836 3.95428C20.5889 3.65957 20.2423 3.42627 19.8439 3.25436C19.4455 3.08245 19.0198 2.99649 18.5669 2.99649C18.1139 2.99649 17.6882 3.08245 17.2898 3.25436C16.8914 3.42627 16.5449 3.65957 16.2502 3.95428C15.9555 4.24898 15.7222 4.59553 15.5503 4.99392C15.3783 5.39232 15.2924 5.818 15.2924 6.27097C15.2924 6.72394 15.3783 7.14962 15.5503 7.54802C15.7222 7.94641 15.9555 8.29296 16.2502 8.58767C16.5449 8.88237 16.8914 9.11567 17.2898 9.28759Z" fill="#EE4136"/>
<path d="M2.00269 12.5607V16.3535L5.00949 16.046L12.3216 16.3535L16.5244 16.046V15.2259V13.7225C16.4105 13.3352 16.0051 12.3899 15.2943 11.7065C14.406 10.8523 13.5517 11.0231 11.8091 10.4422C10.0665 9.86137 7.94802 10.2372 6.37625 10.4422C5.11883 10.6062 2.93662 11.9229 2.00269 12.5607Z" fill="#EE4136"/>
<ellipse cx="9.2864" cy="4.40022" rx="4.3406" ry="4.40022" fill="#EE4136"/>
</g>
<defs>
<clipPath id="clip0_1101_238">
<rect width="23" height="17" fill="white"/>
</clipPath>
</defs>
</svg>
