<svg id="Layer_1" data-name="Layer 1" xmlns="http://www.w3.org/2000/svg" width="6.3mm" height="6.3mm" viewBox="0 0 17.9 17.9">
  <defs>
    <style>
      .cls-1 {
        fill: #737070;
        fill-rule: evenodd;
      }
    </style>
  </defs>
  <g>
    <path class="cls-1" d="M3.4,14.4H14.3V6.2H3.4ZM15.2,3.5H13.4V1.6H10.6V3.5H7V1.6H4.3V3.5H2.5a.9.9,0,0,0-.9.9V15.3a.9.9,0,0,0,.9.9H15.2a.9.9,0,0,0,.9-.9V4.4A.9.9,0,0,0,15.2,3.5Z"/>
    <path class="cls-1" d="M5.2,9.8H7V8H5.2Zm2.7,0H9.7V8H7.9ZM5.2,12.6H7V10.7H5.2Zm2.7,0H9.7V10.7H7.9Zm2.7-2.8h1.9V8H10.6Zm0,2.8h1.9V10.7H10.6Z"/>
  </g>
</svg>
