<?xml version="1.0" encoding="UTF-8"?>
<svg width="18px" height="18px" viewBox="0 0 18 18" version="1.1" xmlns="http://www.w3.org/2000/svg" xmlns:xlink="http://www.w3.org/1999/xlink">
    <title>calendar</title>
    <g id="Page-1" stroke="none" stroke-width="1" fill="none" fill-rule="evenodd">
        <g id="Shape" fill="#737070">
            <path d="M2.25,15.75 L15.75,15.75 L15.75,5.625 L2.25,5.625 L2.25,15.75 Z M16.875,2.25 L14.625,2.25 L14.625,0 L11.25,0 L11.25,2.25 L6.75,2.25 L6.75,0 L3.375,0 L3.375,2.25 L1.125,2.25 C0.504,2.25 0,2.754 0,3.375 L0,16.875 C0,17.496 0.504,18 1.125,18 L16.875,18 C17.496,18 18,17.496 18,16.875 L18,3.375 C18,2.754 17.496,2.25 16.875,2.25 Z"></path>
            <path d="M4.5,10.125 L6.75,10.125 L6.75,7.875 L4.5,7.875 L4.5,10.125 Z M7.875,10.125 L10.125,10.125 L10.125,7.875 L7.875,7.875 L7.875,10.125 Z M4.5,13.5 L6.75,13.5 L6.75,11.25 L4.5,11.25 L4.5,13.5 Z M7.875,13.5 L10.125,13.5 L10.125,11.25 L7.875,11.25 L7.875,13.5 Z M11.25,10.125 L13.5,10.125 L13.5,7.875 L11.25,7.875 L11.25,10.125 Z M11.25,13.5 L13.5,13.5 L13.5,11.25 L11.25,11.25 L11.25,13.5 Z"></path>
        </g>
    </g>
</svg>