<svg width="24" height="24" viewBox="0 0 24 24" fill="none" xmlns="http://www.w3.org/2000/svg">
<path fill-rule="evenodd" clip-rule="evenodd" d="M6 18H18V9H6V18ZM19 6H17V4H14V6H10V4H7V6H5C4.448 6 4 6.448 4 7V19C4 19.552 4.448 20 5 20H19C19.552 20 20 19.552 20 19V7C20 6.448 19.552 6 19 6Z" fill="#EE4135"/>
<path fill-rule="evenodd" clip-rule="evenodd" d="M19 9H6V18H19V9ZM10 13H8V11H10V13ZM13 13H11V11H13V13ZM10 16H8V14H10V16ZM13 16H11V14H13V16ZM16 13H14V11H16V13ZM16 16H14V14H16V16Z" fill="#EE4135"/>
</svg>
