<svg width="20" height="20" viewBox="0 0 20 20" fill="none" xmlns="http://www.w3.org/2000/svg">
<path fill-rule="evenodd" clip-rule="evenodd" d="M4.544 8.929C5.952 11.444 8.216 13.502 10.988 14.782L13.139 12.822C13.2726 12.7047 13.4338 12.6233 13.6075 12.5853C13.7812 12.5474 13.9616 12.5541 14.132 12.605C15.227 12.933 16.405 13.111 17.622 13.111C18.165 13.111 18.6 13.507 18.6 14V17.111C18.6 17.605 18.165 18 17.622 18C8.441 18 1 11.236 1 2.889C1 2.396 1.44 2 1.978 2H5.4C5.943 2 6.378 2.396 6.378 2.889C6.378 3.996 6.573 5.067 6.935 6.062C6.98936 6.21916 6.99556 6.38896 6.9528 6.54967C6.91004 6.71037 6.82027 6.85464 6.695 6.964L4.546 8.93L4.544 8.929Z" fill="#9C9696" stroke="#9C9696"/>
</svg>
