<?xml version="1.0" encoding="UTF-8"?>
<svg width="20px" height="18px" viewBox="0 0 20 18" version="1.1" xmlns="http://www.w3.org/2000/svg" xmlns:xlink="http://www.w3.org/1999/xlink">
    <title>Call</title>
    <g id="Page-1" stroke="none" stroke-width="1" fill="none" fill-rule="evenodd">
        <g id="Call_20X20" transform="translate(1.125000, 0.777778)" fill="#9C9696" stroke="#9C9696">
            <path d="M3.54444444,6.92888889 C4.95244444,9.44444444 7.216,11.5022222 9.988,12.7822222 L12.1391111,10.8222222 C12.408,10.5777778 12.7942222,10.5066667 13.1315556,10.6048889 C14.2266667,10.9333333 15.4048889,11.1111111 16.6222222,11.1111111 C17.1648889,11.1111111 17.6,11.5066667 17.6,12 L17.6,15.1111111 C17.6,15.6048889 17.1648889,16 16.6222222,16 C7.44088889,16 0,9.23555556 0,0.888888889 C0,0.395555556 0.44,0 0.977777778,0 L4.4,0 C4.94266667,0 5.37777778,0.395555556 5.37777778,0.888888889 C5.37777778,1.99555556 5.57333333,3.06666667 5.93511111,4.06222222 C6.04266667,4.36888889 5.96444444,4.72 5.69555556,4.96444444 L3.54444444,6.92888889 Z"></path>
        </g>
    </g>
</svg>