<svg xmlns="http://www.w3.org/2000/svg" width="20" height="20" viewBox="0 0 20 20">
    <g fill="none" fill-rule="evenodd">
        <g>
            <g>
                <g>
                    <path fill="#FFFFFF" d="M0 0H20V20H0z" transform="translate(-1083 -522) translate(795 508) translate(288 14)"/>
                    <g fill="#9C9696" fill-rule="nonzero">
                        <path d="M8 0C4.364 0 1.258 2.262 0 5.455c1.258 3.192 4.364 5.454 8 5.454s6.742-2.262 8-5.454C14.742 2.262 11.636 0 8 0zm0 9.09c-2.007 0-3.636-1.628-3.636-3.635 0-2.008 1.629-3.637 3.636-3.637s3.636 1.63 3.636 3.637S10.007 9.09 8 9.09zm0-5.817c-1.207 0-2.182.974-2.182 2.182 0 1.207.975 2.181 2.182 2.181 1.207 0 2.182-.974 2.182-2.181 0-1.208-.975-2.182-2.182-2.182z" transform="translate(-1083 -522) translate(795 508) translate(288 14) translate(2 5)"/>
                    </g>
                </g>
            </g>
        </g>
    </g>
</svg>
