<svg width="19" height="16" viewBox="0 0 19 16" fill="none" xmlns="http://www.w3.org/2000/svg">
<path fill-rule="evenodd" clip-rule="evenodd" d="M2.76273 2.98958L0.842593 1.06944L1.91204 0L16.8426 14.9306L15.7731 16L13.3056 13.5417L12.9525 13.1887C11.8148 13.6424 10.5683 13.8947 9.26389 13.8947C5.05324 13.8947 1.45718 11.2766 0 7.5787C0.657407 5.91204 1.75116 4.46296 3.14931 3.37731L2.76273 2.98958ZM13.4745 7.5787C13.4745 5.25463 11.588 3.36806 9.26389 3.36806C8.71643 3.36806 8.20255 3.47801 7.72222 3.6713L5.90393 1.85301C6.94792 1.47338 8.07639 1.26273 9.25463 1.26273C13.4653 1.26273 17.0613 3.88194 18.5185 7.5787C17.9039 9.14583 16.9016 10.5185 15.6296 11.5799L13.1713 9.12037C13.3646 8.64005 13.4745 8.12616 13.4745 7.5787ZM5.49768 5.72685L5.49924 5.7284C5.22192 6.29165 5.0544 6.91496 5.0544 7.5787C5.0544 9.90278 6.93981 11.7894 9.26505 11.7894C9.9294 11.7894 10.5532 11.6215 11.1169 11.3438L9.8125 10.0382C9.63542 10.0799 9.45023 10.1053 9.26505 10.1053C7.8669 10.1053 6.73843 8.97685 6.73843 7.5787C6.73843 7.39352 6.76389 7.20833 6.80556 7.03125L5.49924 5.7284L5.5 5.72685H5.49768ZM11.7801 7.72222L9.12731 5.06944L9.27083 5.06134C10.669 5.06134 11.7975 6.18982 11.7975 7.58796L11.7801 7.72222Z" fill="#EE4136"/>
</svg>
