<svg width="16" height="18" viewBox="0 0 16 18" fill="none" xmlns="http://www.w3.org/2000/svg">
<path d="M6.04255 17.0851L5.70213 14.4894C5.47518 14.4185 5.24482 14.3121 5.01106 14.1702C4.77674 14.0284 4.56028 13.8795 4.3617 13.7234L1.95745 14.7447L0 11.3405L2.08511 9.76598C2.05674 9.63832 2.03915 9.51066 2.03234 9.383C2.02496 9.25534 2.02128 9.12768 2.02128 9.00002C2.02128 8.88655 2.02496 8.76598 2.03234 8.63832C2.03915 8.51066 2.05674 8.37591 2.08511 8.23407L0 6.6596L1.95745 3.27662L4.3617 4.27662C4.56028 4.12059 4.77674 3.97534 5.01106 3.84087C5.24482 3.70584 5.47518 3.59577 5.70213 3.51066L6.04255 0.914917H9.95745L10.2979 3.51066C10.5532 3.60995 10.7835 3.71974 10.9889 3.84002C11.1949 3.96087 11.4043 4.10641 11.617 4.27662L14.0426 3.27662L16 6.6596L13.8936 8.25534C13.922 8.39719 13.9362 8.52485 13.9362 8.63832V9.00002C13.9362 9.1135 13.9325 9.23038 13.9251 9.35066C13.9183 9.47151 13.9007 9.60995 13.8723 9.76598L15.9574 11.3405L14 14.7447L11.617 13.7234C11.4043 13.8936 11.1881 14.0426 10.9685 14.1702C10.7484 14.2979 10.5248 14.4043 10.2979 14.4894L9.95745 17.0851H6.04255ZM8 11.5532C8.70922 11.5532 9.31206 11.305 9.80851 10.8085C10.305 10.3121 10.5532 9.70924 10.5532 9.00002C10.5532 8.2908 10.305 7.68797 9.80851 7.19151C9.31206 6.69506 8.70922 6.44683 8 6.44683C7.29078 6.44683 6.68794 6.69506 6.19149 7.19151C5.69504 7.68797 5.44681 8.2908 5.44681 9.00002C5.44681 9.70924 5.69504 10.3121 6.19149 10.8085C6.68794 11.305 7.29078 11.5532 8 11.5532ZM8 10.2766C7.64539 10.2766 7.34411 10.1524 7.09617 9.90385C6.84766 9.65591 6.7234 9.35463 6.7234 9.00002C6.7234 8.64541 6.84766 8.34414 7.09617 8.09619C7.34411 7.84768 7.64539 7.72343 8 7.72343C8.35461 7.72343 8.65589 7.84768 8.90383 8.09619C9.15234 8.34414 9.2766 8.64541 9.2766 9.00002C9.2766 9.35463 9.15234 9.65591 8.90383 9.90385C8.65589 10.1524 8.35461 10.2766 8 10.2766ZM7.14894 15.8085H8.82979L9.12766 13.5319C9.56738 13.4185 9.96454 13.2553 10.3191 13.0426C10.6738 12.8298 11.0213 12.5603 11.3617 12.2341L13.4681 13.1277L14.3191 11.6809L12.4681 10.2979C12.539 10.0709 12.5852 9.85109 12.6068 9.63832C12.6278 9.42556 12.6383 9.21279 12.6383 9.00002C12.6383 8.77307 12.6278 8.5569 12.6068 8.35151C12.5852 8.14556 12.539 7.93619 12.4681 7.72343L14.3191 6.31917L13.4894 4.87236L11.3404 5.76598C11.0567 5.46811 10.7163 5.20201 10.3191 4.96768C9.92199 4.73392 9.52482 4.5674 9.12766 4.46811L8.85106 2.19151H7.17021L6.87234 4.46811C6.44681 4.5674 6.04965 4.72343 5.68085 4.93619C5.31206 5.14896 4.95745 5.41846 4.61702 5.7447L2.51064 4.87236L1.68085 6.31917L3.51064 7.68087C3.43972 7.89364 3.39007 8.10641 3.3617 8.31917C3.33333 8.53194 3.31915 8.75889 3.31915 9.00002C3.31915 9.22697 3.33333 9.44683 3.3617 9.6596C3.39007 9.87236 3.43972 10.0851 3.51064 10.2979L1.68085 11.6809L2.51064 13.1277L4.61702 12.2341C4.94326 12.5603 5.29078 12.8298 5.65957 13.0426C6.02837 13.2553 6.43262 13.4185 6.87234 13.5319L7.14894 15.8085Z" fill="#9C9696"/>
</svg>
