<svg width="16" height="17" viewBox="0 0 16 17" fill="none" xmlns="http://www.w3.org/2000/svg">
<path d="M8 0.894043C3.584 0.894043 0 4.47804 0 8.89404C0 13.31 3.584 16.894 8 16.894C12.416 16.894 16 13.31 16 8.89404C16 4.47804 12.416 0.894043 8 0.894043ZM8 15.294C4.464 15.294 1.6 12.43 1.6 8.89404C1.6 5.35804 4.464 2.49404 8 2.49404C11.536 2.49404 14.4 5.35804 14.4 8.89404C14.4 12.43 11.536 15.294 8 15.294Z" fill="#EE4136"/>
<path d="M8 12.894C10.2091 12.894 12 11.1032 12 8.89404C12 6.6849 10.2091 4.89404 8 4.89404C5.79086 4.89404 4 6.6849 4 8.89404C4 11.1032 5.79086 12.894 8 12.894Z" fill="#EE4136"/>
</svg>
