<svg width="12" height="9" viewBox="0 0 12 9" fill="none" xmlns="http://www.w3.org/2000/svg">
<path d="M4.00013 6.95581L10.0732 0.873106C10.2111 0.734639 10.3866 0.665405 10.5997 0.665405C10.8128 0.665405 10.9886 0.734405 11.127 0.872405C11.2655 1.01041 11.3347 1.18605 11.3347 1.39933C11.3347 1.6126 11.2655 1.78846 11.127 1.92691L4.6328 8.41153C4.45204 8.5923 4.24114 8.68268 4.00013 8.68268C3.75911 8.68268 3.54822 8.5923 3.36745 8.41153L0.873228 5.92691C0.734761 5.78902 0.665527 5.61353 0.665527 5.40043C0.665527 5.18733 0.734527 5.01156 0.872527 4.87311C1.01053 4.73464 1.18617 4.66541 1.39945 4.66541C1.61272 4.66541 1.78858 4.73464 1.92703 4.87311L4.00013 6.95581Z" fill="#554D4D"/>
</svg>
