<svg width="26" height="26" viewBox="0 0 26 26" fill="none" xmlns="http://www.w3.org/2000/svg">
<path d="M23.9688 4.0625H2.03125C1.70813 4.06288 1.39836 4.1914 1.16988 4.41988C0.941401 4.64836 0.812876 4.95813 0.8125 5.28125V17.4688C0.812876 17.7919 0.941401 18.1016 1.16988 18.3301C1.39836 18.5586 1.70813 18.6871 2.03125 18.6875H23.9688C24.2919 18.6871 24.6016 18.5586 24.8301 18.3301C25.0586 18.1016 25.1871 17.7919 25.1875 17.4688V5.28125C25.1871 4.95813 25.0586 4.64836 24.8301 4.41988C24.6016 4.1914 24.2919 4.06288 23.9688 4.0625ZM23.5625 17.0625H2.4375V5.6875H23.5625V17.0625Z" fill="#9C9696"/>
<path d="M7.3125 13.8125H15.4375V15.4375H7.3125V13.8125ZM4.0625 13.8125H5.6875V15.4375H4.0625V13.8125ZM20.3125 13.8125H21.9375V15.4375H20.3125V13.8125ZM17.0625 13.8125H18.6875V15.4375H17.0625V13.8125ZM18.6875 10.5625H20.3125V12.1875H18.6875V10.5625ZM15.4375 10.5625H17.0625V12.1875H15.4375V10.5625ZM12.1875 10.5625H13.8125V12.1875H12.1875V10.5625ZM8.9375 10.5625H10.5625V12.1875H8.9375V10.5625ZM5.6875 10.5625H7.3125V12.1875H5.6875V10.5625ZM17.0625 7.3125H18.6875V8.9375H17.0625V7.3125ZM20.3125 7.3125H21.9375V8.9375H20.3125V7.3125ZM13.8125 7.3125H15.4375V8.9375H13.8125V7.3125ZM10.5625 7.3125H12.1875V8.9375H10.5625V7.3125ZM7.3125 7.3125H8.9375V8.9375H7.3125V7.3125ZM4.0625 7.3125H5.6875V8.9375H4.0625V7.3125Z" fill="#9C9696"/>
</svg>
