<svg xmlns="http://www.w3.org/2000/svg" width="20" height="19" viewBox="0 0 20 19">
    <g fill="none" fill-rule="evenodd">
        <path d="M0 0L20 0 20 19 0 19z"/>
        <path fill="#9C9696" fill-rule="nonzero" d="M12.535 9.02c-.197-.935-1.062-1.637-2.1-1.637-.825 0-1.541.445-1.898 1.095-.858.087-1.526.778-1.526 1.616 0 .897.767 1.626 1.712 1.626h3.71c.787 0 1.426-.607 1.426-1.355 0-.716-.585-1.296-1.324-1.345zm2.81-5.268c.796 0 1.448.62 1.448 1.377v9.637c0 .758-.652 1.377-1.449 1.377H5.2c-.804 0-1.449-.62-1.449-1.377l.007-9.637c0-.758.638-1.377 1.442-1.377h.725V2.375h1.45v1.377h5.796V2.375h1.45v1.377h.724zm0 11.014v-9.5H5.198v9.5h10.145z"/>
    </g>
</svg>
