<svg width="15" height="14" viewBox="0 0 15 14" fill="none" xmlns="http://www.w3.org/2000/svg">
<g clip-path="url(#clip0_845_561)">
<path d="M8.8335 3.16667V1.83333H6.16683V3.16667H8.8335ZM2.16683 4.5V11.8334H12.8335V4.5H2.16683ZM12.8335 3.16667C13.5735 3.16667 14.1668 3.76 14.1668 4.5V11.8334C14.1668 12.5734 13.5735 13.1667 12.8335 13.1667H2.16683C1.42683 13.1667 0.833496 12.5734 0.833496 11.8334L0.840163 4.5C0.840163 3.76 1.42683 3.16667 2.16683 3.16667H4.8335V1.83333C4.8335 1.09333 5.42683 0.5 6.16683 0.5H8.8335C9.5735 0.5 10.1668 1.09333 10.1668 1.83333V3.16667H12.8335Z" fill="#9C9696"/>
</g>
<defs>
<clipPath id="clip0_845_561">
<rect width="15" height="13" fill="white" transform="translate(0 0.167969)"/>
</clipPath>
</defs>
</svg>
