<svg width="11" height="13" viewBox="0 0 11 13" fill="none" xmlns="http://www.w3.org/2000/svg">
<path d="M6.94737 4.89525H8.10526V6.05315H6.94737V4.89525ZM8.10526 2.57946H6.94737V3.73736H8.10526V2.57946ZM4.63158 8.36893H5.78947V7.21104H4.63158V8.36893ZM5.78947 2.57946H4.63158V3.73736H5.78947V2.57946ZM4.63158 6.05315H5.78947V4.89525H4.63158V6.05315ZM3.47368 2.57946H2.31579V3.73736H3.47368V2.57946ZM3.47368 4.89525H2.31579V6.05315H3.47368V4.89525ZM6.68684 11.8426H5.78947V9.8163H4.63158V11.8426H1.15789V1.42157H9.26316V6.07051C9.67421 6.10525 10.0679 6.23262 10.4211 6.41788V0.263672H0V13.0005H7.47421C7.23684 12.6763 6.94737 12.2826 6.68684 11.8426ZM2.31579 10.6847H3.47368V9.52683H2.31579V10.6847ZM3.47368 7.21104H2.31579V8.36893H3.47368V7.21104ZM11 9.23736C11 10.7426 8.97368 13.0005 8.97368 13.0005C8.97368 13.0005 6.94737 10.7426 6.94737 9.23736C6.94737 8.13736 7.87368 7.21104 8.97368 7.21104C10.0737 7.21104 11 8.13736 11 9.23736ZM9.66842 9.29525C9.66842 8.94788 9.32105 8.60051 8.97368 8.60051C8.62632 8.60051 8.27895 8.88999 8.27895 9.29525C8.27895 9.64262 8.56842 9.98999 8.97368 9.98999C9.37895 9.98999 9.72632 9.64262 9.66842 9.29525Z" fill="#737070"/>
</svg>
