<svg width="23" height="19" viewBox="0 0 23 19" fill="none" xmlns="http://www.w3.org/2000/svg">
<path d="M1.28304 10.1768H22.0226C22.5433 10.1768 22.9653 9.76681 22.9653 9.2611C22.9653 8.75539 22.5433 8.34544 22.0226 8.34544H1.28304C0.762397 8.34544 0.340332 8.75539 0.340332 9.2611C0.340332 9.76681 0.762397 10.1768 1.28304 10.1768Z" fill="#554D4D"/>
<path d="M20.6894 9.2611L12.8717 16.8546C12.6949 17.0263 12.5955 17.2592 12.5955 17.502C12.5955 17.7449 12.6949 17.9778 12.8717 18.1495C13.0484 18.3212 13.2882 18.4177 13.5382 18.4177C13.7883 18.4177 14.0281 18.3212 14.2048 18.1495L22.6892 9.90857C23.0574 9.55098 23.0574 8.97122 22.6892 8.61363L14.2048 0.372683C14.0281 0.200963 13.7883 0.104492 13.5382 0.104492C13.2882 0.104492 13.0484 0.200963 12.8717 0.372683C12.6949 0.544403 12.5955 0.777305 12.5955 1.02015C12.5955 1.263 12.6949 1.4959 12.8717 1.66762L20.6894 9.2611Z" fill="#554D4D"/>
</svg>
