<svg width="27" height="17" viewBox="0 0 27 17" fill="none" xmlns="http://www.w3.org/2000/svg">
<g clip-path="url(#clip0_840_476)">
<path fill-rule="evenodd" clip-rule="evenodd" d="M26.2849 4.91813H23.3457V7.85714H22.3669V4.91813H19.4277V3.93901H22.3669V1H23.3457V3.93901H26.2849V4.91813Z" fill="#9C9696" stroke="#9C9696" stroke-width="0.5"/>
<path d="M13.1891 8.61418C15.2599 8.61418 16.9387 6.92479 16.9387 4.84081C16.9387 2.75684 15.2599 1.06744 13.1891 1.06744C11.1182 1.06744 9.43945 2.75684 9.43945 4.84081C9.43945 6.92479 11.1182 8.61418 13.1891 8.61418Z" fill="#9C9696"/>
<path fill-rule="evenodd" clip-rule="evenodd" d="M5.25895 10.9365C4.11803 11.7161 3.33245 12.9664 3.33245 14.3747V16.8907H0V14.3747C0 12.5468 2.95928 11.2728 5.25895 10.9365ZM8.19331 8.61422C6.12182 8.61422 4.44371 6.92661 4.44371 4.84085C4.44371 2.75628 6.12182 1.06866 8.19331 1.06866C8.63304 1.06866 9.40673 1.16255 9.8013 1.29447C8.63304 2.75272 8.19331 3.50145 8.19331 4.84085C8.19331 6.18025 8.8743 7.42576 9.8013 8.38842C9.40673 8.51915 8.63304 8.61422 8.19331 8.61422Z" fill="#9C9696"/>
<path fill-rule="evenodd" clip-rule="evenodd" d="M13.4742 10.2911C16.8494 10.2911 19.3333 11.1801 20.706 11.8361C21.4594 12.1974 21.936 12.9937 21.936 13.8684V17H4.43945V13.8696C4.43945 12.9937 4.91484 12.1974 5.66951 11.8373C7.04219 11.1801 9.52489 10.2923 12.9013 10.2923C12.9976 10.2923 13.0939 10.2923 13.1877 10.2947L13.4742 10.2911Z" fill="#9C9696"/>
</g>
<defs>
<clipPath id="clip0_840_476">
<rect width="27" height="17" fill="white"/>
</clipPath>
</defs>
</svg>
