<svg xmlns="http://www.w3.org/2000/svg" width="25" height="16" viewBox="0 0 25 16">
    <g fill="#9C9696" fill-rule="evenodd">
        <path fill-rule="nonzero" d="M24.33 4.754L20.787 4.754 20.787 8.32 19.607 8.32 19.607 4.754 16.064 4.754 16.064 3.566 19.607 3.566 19.607 0 20.787 0 20.787 3.566 24.33 3.566z"/>
        <ellipse cx="11.097" cy="5.155" fill-rule="nonzero" rx="3.155" ry="3.175"/>
        <path fill-rule="nonzero" d="M4.425 10.284c-.96.656-1.621 1.708-1.621 2.893v2.117H0v-2.117c0-1.538 2.49-2.61 4.425-2.893zM6.894 8.33c-1.743 0-3.155-1.42-3.155-3.175 0-1.754 1.412-3.174 3.155-3.174.37 0 1.021.079 1.353.19-.983 1.227-1.353 1.857-1.353 2.984S7.467 7.33 8.247 8.14c-.332.11-.983.19-1.353.19z"/>
        <path d="M11.338 9.741c2.84 0 4.93.748 6.085 1.3.634.304 1.035.974 1.035 1.71v2.635H3.736v-2.634c0-.737.4-1.407 1.035-1.71 1.155-.553 3.244-1.3 6.085-1.3.081 0 .162 0 .241.002l.241-.003z"/>
    </g>
</svg>
