<svg width="20" height="16" viewBox="0 0 20 16" fill="none" xmlns="http://www.w3.org/2000/svg">
<path d="M13 11.75C13.2167 11.75 13.396 11.679 13.538 11.537C13.6793 11.3957 13.75 11.2167 13.75 11V9.75H15C15.2167 9.75 15.396 9.679 15.538 9.537C15.6793 9.39567 15.75 9.21667 15.75 9C15.75 8.78333 15.6793 8.604 15.538 8.462C15.396 8.32067 15.2167 8.25 15 8.25H13.75V7C13.75 6.78333 13.6793 6.604 13.538 6.462C13.396 6.32067 13.2167 6.25 13 6.25C12.7833 6.25 12.6043 6.32067 12.463 6.462C12.321 6.604 12.25 6.78333 12.25 7V8.25H11C10.7833 8.25 10.6043 8.32067 10.463 8.462C10.321 8.604 10.25 8.78333 10.25 9C10.25 9.21667 10.321 9.39567 10.463 9.537C10.6043 9.679 10.7833 9.75 11 9.75H12.25V11C12.25 11.2167 12.321 11.3957 12.463 11.537C12.6043 11.679 12.7833 11.75 13 11.75ZM2.3 15.5C1.8 15.5 1.375 15.325 1.025 14.975C0.675 14.625 0.5 14.2 0.5 13.7V2.7C0.5 2.18333 0.675 1.75 1.025 1.4C1.375 1.05 1.8 0.875 2.3 0.875H7.625C7.875 0.875 8.11267 0.925 8.338 1.025C8.56267 1.125 8.75 1.25 8.9 1.4L10 2.5H17.7C18.2 2.5 18.625 2.675 18.975 3.025C19.325 3.375 19.5 3.8 19.5 4.3V13.7C19.5 14.2 19.325 14.625 18.975 14.975C18.625 15.325 18.2 15.5 17.7 15.5H2.3ZM2 2.7V13.7C2 13.7833 2.02933 13.8543 2.088 13.913C2.146 13.971 2.21667 14 2.3 14H17.7C17.7833 14 17.8543 13.971 17.913 13.913C17.971 13.8543 18 13.7833 18 13.7V4.3C18 4.21667 17.971 4.14567 17.913 4.087C17.8543 4.029 17.7833 4 17.7 4H9.375L7.775 2.375H2.3C2.21667 2.375 2.146 2.40433 2.088 2.463C2.02933 2.521 2 2.6 2 2.7ZM2 2.7V2.375V14V13.7V2.7Z" fill="#222020"/>
</svg>
