<svg width="21" height="17" viewBox="0 0 21 17" fill="none" xmlns="http://www.w3.org/2000/svg">
<path d="M13.9941 12.9883C14.2775 12.9883 14.515 12.8925 14.7066 12.7008C14.8983 12.5091 14.9941 12.2716 14.9941 11.9883V10.9883H15.9941C16.2775 10.9883 16.515 10.8925 16.7066 10.7008C16.8983 10.5091 16.9941 10.2716 16.9941 9.98828C16.9941 9.70495 16.8983 9.46745 16.7066 9.27578C16.515 9.08412 16.2775 8.98828 15.9941 8.98828H14.9941V7.98828C14.9941 7.70495 14.8983 7.46745 14.7066 7.27578C14.515 7.08412 14.2775 6.98828 13.9941 6.98828C13.7108 6.98828 13.4733 7.08412 13.2816 7.27578C13.09 7.46745 12.9941 7.70495 12.9941 7.98828V8.98828H11.9941C11.7108 8.98828 11.4733 9.08412 11.2816 9.27578C11.09 9.46745 10.9941 9.70495 10.9941 9.98828C10.9941 10.2716 11.09 10.5091 11.2816 10.7008C11.4733 10.8925 11.7108 10.9883 11.9941 10.9883H12.9941V11.9883C12.9941 12.2716 13.09 12.5091 13.2816 12.7008C13.4733 12.8925 13.7108 12.9883 13.9941 12.9883ZM2.99414 16.9883C2.44414 16.9883 1.97331 16.7925 1.58164 16.4008C1.18997 16.0091 0.994141 15.5383 0.994141 14.9883V2.98828C0.994141 2.43828 1.18997 1.96745 1.58164 1.57578C1.97331 1.18411 2.44414 0.988281 2.99414 0.988281H8.16914C8.43581 0.988281 8.68997 1.03828 8.93164 1.13828C9.1733 1.23828 9.3858 1.37995 9.56914 1.56328L10.9941 2.98828H18.9941C19.5441 2.98828 20.015 3.18412 20.4066 3.57578C20.7983 3.96745 20.9941 4.43828 20.9941 4.98828V14.9883C20.9941 15.5383 20.7983 16.0091 20.4066 16.4008C20.015 16.7925 19.5441 16.9883 18.9941 16.9883H2.99414ZM2.99414 2.98828V14.9883H18.9941V4.98828H10.1691L8.16914 2.98828H2.99414Z" fill="#9C9696"/>
</svg>
