<svg width="19" height="20" viewBox="0 0 19 20" fill="none" xmlns="http://www.w3.org/2000/svg">
<g clip-path="url(#clip0_1647_57202)">
<path d="M2.17948 9.09784V8.79013C2.17948 6.27077 2.17948 3.75081 2.17948 1.23146C2.18008 0.424242 2.60554 0 3.41518 0C6.54267 0 9.67078 0 12.7983 0C12.8802 0 12.9621 0 13.072 0C13.072 0.10864 13.072 0.197251 13.072 0.28647C13.072 1.47787 13.0714 2.66927 13.072 3.86127C13.0726 4.66848 13.5017 5.09637 14.3065 5.09637C15.1319 5.09637 15.9573 5.09637 16.7827 5.09637C16.8647 5.09637 16.9466 5.09637 17.0443 5.09637V10.9022H2.18615V9.84921C1.90879 9.84921 1.6557 9.81523 1.41596 9.8565C1.00325 9.92811 0.720423 10.325 0.727099 10.7541C0.734382 11.1784 1.03785 11.5438 1.45663 11.6196C1.57498 11.6409 1.69758 11.6439 1.81835 11.6439C7.06645 11.6451 12.3146 11.6445 17.5627 11.6463C17.7283 11.6463 17.8995 11.6451 18.0591 11.6821C18.5192 11.7896 18.8372 12.1853 18.87 12.6623C18.8754 12.7382 18.8754 12.8141 18.8754 12.8899C18.8754 14.7265 18.876 16.563 18.8754 18.3996C18.8754 19.2262 18.4573 19.6444 17.6324 19.6444C12.1725 19.6444 6.71261 19.6444 1.25209 19.6444C0.41271 19.6444 0 19.2293 0 18.3856C0 15.8815 0 13.3767 0 10.8725C0 9.77153 0.666406 9.10391 1.76677 9.09905C1.89422 9.09905 2.02107 9.09905 2.17887 9.09905L2.17948 9.09784ZM9.49355 13.4701C9.32726 13.4701 9.15974 13.4616 8.99405 13.472C8.51033 13.5011 8.10126 13.8622 8.0078 14.3344C7.88338 14.962 8.17167 15.5052 8.76464 15.7492C9.17735 15.9191 9.5937 16.0781 10.0052 16.2499C10.2176 16.3385 10.2971 16.526 10.251 16.7767C10.2097 16.9994 10.0683 17.0971 9.84982 17.0977C9.67563 17.0977 9.50144 17.0984 9.32726 17.0984C8.79619 17.0984 8.77374 17.0783 8.71305 16.5533C8.70758 16.5084 8.69848 16.4629 8.68209 16.421C8.61776 16.2602 8.49395 16.1861 8.32461 16.2001C8.15649 16.2135 8.03996 16.3045 8.00112 16.4714C7.85121 17.1093 8.31247 17.7599 8.96371 17.8139C9.24957 17.8376 9.53847 17.8297 9.82615 17.8261C10.4143 17.8188 10.8513 17.4831 10.9544 16.9666C11.0831 16.3227 10.8324 15.8147 10.2644 15.5689C10.1606 15.524 10.055 15.4821 9.94936 15.4396C9.62647 15.3097 9.30116 15.1871 8.98192 15.0488C8.75371 14.9498 8.66571 14.7441 8.72518 14.4801C8.77617 14.2543 8.94307 14.1894 9.15246 14.1906C9.39463 14.1924 9.6374 14.1845 9.87895 14.1954C10.115 14.2057 10.2346 14.3314 10.2559 14.5669C10.2613 14.6269 10.2571 14.6882 10.2613 14.7489C10.2759 14.9529 10.3888 15.0694 10.5885 15.0925C10.7815 15.1143 10.9344 14.9881 10.9738 14.786C11.1001 14.142 10.6224 13.5138 9.96999 13.4726C9.81158 13.4623 9.65196 13.4714 9.49295 13.4714L9.49355 13.4701ZM3.80422 15.6393C3.80907 15.6393 3.81332 15.6393 3.81818 15.6393C3.81818 15.8062 3.8115 15.9737 3.81939 16.14C3.85763 16.9478 4.51129 17.6713 5.31486 17.8012C6.28898 17.9584 7.0707 17.5578 7.3948 16.736C7.48159 16.5163 7.41908 16.3154 7.23821 16.2304C7.04218 16.1388 6.84553 16.2189 6.73204 16.4368C6.4401 16.997 6.1591 17.1487 5.52364 17.0899C4.97559 17.0389 4.55863 16.6001 4.54285 16.0484C4.53557 15.8056 4.5386 15.5628 4.54103 15.3201C4.54588 14.7659 4.87909 14.3283 5.37737 14.2167C6.00736 14.0765 6.44617 14.2737 6.71929 14.8199C6.84068 15.0627 7.02579 15.1513 7.22911 15.0633C7.42515 14.9784 7.48463 14.7659 7.37963 14.5213C7.06342 13.7833 6.47895 13.438 5.59708 13.4671C4.69762 13.4968 3.99237 14.0977 3.84003 14.9814C3.80301 15.1962 3.81514 15.4196 3.80483 15.6393H3.80422ZM9.63436 8.73672C9.059 8.73672 8.48363 8.73672 7.90826 8.73672C7.09801 8.73672 6.28837 8.7349 5.47812 8.73854C5.23778 8.73975 5.0903 8.87752 5.08605 9.08631C5.0818 9.29691 5.22504 9.44136 5.45931 9.46078C5.50422 9.46442 5.55035 9.46199 5.59526 9.46199C8.27485 9.46199 10.9544 9.462 13.634 9.46078C13.7238 9.46078 13.8179 9.45896 13.9029 9.43347C14.1232 9.36731 14.2197 9.11665 14.108 8.9188C14.017 8.75796 13.8671 8.73429 13.6983 8.73429C12.3437 8.73672 10.9884 8.7355 9.63375 8.7355L9.63436 8.73672ZM9.63436 6.5536C9.11969 6.5536 8.60501 6.5536 8.09034 6.5536C7.22001 6.5536 6.34906 6.55178 5.47873 6.55481C5.2396 6.55542 5.09151 6.69441 5.08666 6.90319C5.0818 7.11379 5.22625 7.25946 5.45931 7.27827C5.50422 7.28191 5.55035 7.27948 5.59526 7.27948C8.27485 7.27948 10.955 7.27948 13.6346 7.27827C13.7244 7.27827 13.8185 7.27645 13.9035 7.25096C14.125 7.18359 14.2209 6.93414 14.1086 6.73628C14.0176 6.57606 13.8683 6.55117 13.6996 6.55178C12.3443 6.55481 10.9896 6.5536 9.63436 6.5536V6.5536ZM13.2498 16.4823C12.9998 15.8566 12.7704 15.28 12.5403 14.704C12.4056 14.3666 12.286 14.0212 12.1246 13.6971C12.0724 13.5921 11.914 13.4956 11.7944 13.4829C11.6973 13.4726 11.5322 13.5703 11.4946 13.6613C11.4466 13.776 11.4612 13.946 11.5092 14.0692C11.9522 15.2047 12.4098 16.3348 12.8596 17.468C12.933 17.6531 13.0156 17.8212 13.2474 17.8224C13.4786 17.8236 13.5642 17.661 13.6389 17.474C14.085 16.3476 14.5371 15.2236 14.9856 14.0983C15.0105 14.0352 15.036 13.9709 15.0494 13.9047C15.0864 13.7147 14.9917 13.5363 14.8218 13.4877C14.6324 13.4337 14.4752 13.4877 14.3799 13.668C14.3338 13.7542 14.3035 13.8495 14.267 13.9405C13.9357 14.7696 13.6043 15.598 13.2504 16.4829L13.2498 16.4823ZM7.79416 5.09637C8.24753 5.09637 8.70151 5.09637 9.15489 5.09637C9.48749 5.09637 9.82069 5.10244 10.1527 5.09273C10.3785 5.08605 10.5338 4.91854 10.5265 4.71704C10.5193 4.521 10.37 4.38201 10.1509 4.36927C10.1053 4.36684 10.0604 4.36806 10.0149 4.36806C8.54068 4.36806 7.06645 4.36806 5.59223 4.36806C5.51697 4.36806 5.42229 4.34621 5.37009 4.38262C5.2657 4.45424 5.13157 4.54831 5.1079 4.65452C5.08484 4.76074 5.15403 4.91975 5.23475 5.00715C5.29787 5.07513 5.44049 5.09212 5.54853 5.09273C6.29687 5.0994 7.04521 5.09637 7.79416 5.09637V5.09637Z" fill="#6FA500"/>
<path d="M13.8228 0.278564C14.8521 1.65325 15.8511 2.98789 16.8714 4.35105C16.7943 4.35894 16.753 4.36683 16.7117 4.36683C15.8869 4.36743 15.0615 4.36925 14.2367 4.36683C13.9417 4.36622 13.8009 4.24362 13.7997 3.96443C13.7948 2.78093 13.7979 1.59802 13.7985 0.414516C13.7985 0.387811 13.8076 0.361107 13.8222 0.278564H13.8228Z" fill="#6FA500"/>
<path d="M9.4935 13.4701C9.65252 13.4701 9.81214 13.4616 9.97055 13.4714C10.623 13.5126 11.1013 14.1408 10.9744 14.7847C10.935 14.9869 10.782 15.1137 10.589 15.0912C10.3893 15.0682 10.2764 14.9517 10.2619 14.7477C10.2576 14.687 10.2619 14.6263 10.2564 14.5656C10.2346 14.3296 10.1156 14.2045 9.87951 14.1942C9.63734 14.1839 9.39518 14.1912 9.15302 14.1893C8.94363 14.1881 8.77672 14.2531 8.72574 14.4789C8.66565 14.7435 8.75366 14.9492 8.98247 15.0475C9.30171 15.1853 9.62703 15.3085 9.94991 15.4384C10.0549 15.4809 10.1605 15.5222 10.2649 15.5677C10.8324 15.8135 11.083 16.3221 10.955 16.9654C10.8518 17.4819 10.4148 17.8182 9.82671 17.8248C9.53902 17.8285 9.25012 17.8364 8.96426 17.8127C8.31303 17.7593 7.85176 17.1081 8.00168 16.4702C8.04113 16.3033 8.15766 16.2128 8.32517 16.1989C8.4945 16.1849 8.61831 16.259 8.68265 16.4198C8.69903 16.4617 8.70814 16.5072 8.7136 16.5521C8.77429 17.0771 8.79675 17.0971 9.32781 17.0971C9.502 17.0971 9.67619 17.0971 9.85038 17.0965C10.0689 17.0965 10.2103 16.9976 10.2516 16.7755C10.2983 16.5248 10.2182 16.3379 10.0057 16.2487C9.59425 16.0763 9.17729 15.9173 8.76519 15.7479C8.17222 15.504 7.88332 14.9608 8.00835 14.3332C8.10243 13.861 8.51089 13.4999 8.99461 13.4707C9.1603 13.4604 9.32781 13.4689 9.49411 13.4689L9.4935 13.4701Z" fill="white"/>
<path d="M3.80481 15.6393C3.81512 15.4196 3.80359 15.1962 3.84001 14.9814C3.99174 14.0977 4.6976 13.4968 5.59706 13.4671C6.47893 13.438 7.0634 13.7833 7.37961 14.5213C7.48461 14.7653 7.42513 14.9783 7.22909 15.0633C7.02638 15.1513 6.84066 15.0633 6.71927 14.8199C6.44615 14.2737 6.00734 14.0764 5.37735 14.2166C4.87907 14.3277 4.54586 14.7653 4.54101 15.32C4.53858 15.5628 4.53615 15.8056 4.54283 16.0484C4.55922 16.6001 4.97557 17.0395 5.52362 17.0898C6.15908 17.1487 6.44008 16.997 6.73202 16.4368C6.84551 16.2189 7.04276 16.1382 7.23819 16.2304C7.41906 16.3154 7.48157 16.5163 7.39478 16.736C7.07068 17.5584 6.28835 17.9584 5.31484 17.8012C4.51127 17.6713 3.85761 16.9478 3.81937 16.14C3.81148 15.9737 3.81816 15.8062 3.81816 15.6393C3.8133 15.6393 3.80905 15.6393 3.8042 15.6393H3.80481Z" fill="white"/>
<path d="M9.63496 8.73675C10.9896 8.73675 12.3449 8.73796 13.6995 8.73553C13.8683 8.73553 14.0182 8.75921 14.1092 8.92004C14.2209 9.1179 14.1244 9.36856 13.9041 9.43472C13.8191 9.46021 13.725 9.46203 13.6352 9.46203C10.9556 9.46324 8.27605 9.46324 5.59646 9.46324C5.55094 9.46324 5.50542 9.46567 5.46051 9.46203C5.22624 9.4426 5.083 9.29816 5.08725 9.08755C5.0915 8.87877 5.23898 8.74039 5.47933 8.73978C6.28897 8.73614 7.09921 8.73796 7.90946 8.73796C8.48483 8.73796 9.0602 8.73796 9.63556 8.73796L9.63496 8.73675Z" fill="white"/>
<path d="M9.63498 6.55358C10.9903 6.55358 12.3449 6.55479 13.7002 6.55176C13.8695 6.55176 14.0188 6.57603 14.1093 6.73626C14.2215 6.93412 14.1256 7.18296 13.9041 7.25094C13.8197 7.27643 13.7251 7.27825 13.6352 7.27825C10.9557 7.27946 8.27547 7.27946 5.59588 7.27946C5.55036 7.27946 5.50484 7.28189 5.45993 7.27825C5.22687 7.25944 5.08242 7.11377 5.08728 6.90317C5.09153 6.69439 5.24022 6.5554 5.47935 6.55479C6.34969 6.55176 7.22063 6.55358 8.09096 6.55358C8.60563 6.55358 9.12031 6.55358 9.63498 6.55358V6.55358Z" fill="white"/>
<path d="M13.2504 16.4823C13.6043 15.5974 13.9356 14.7683 14.267 13.9399C14.3034 13.8482 14.3338 13.7536 14.3799 13.6674C14.4752 13.4877 14.6324 13.4331 14.8218 13.4871C14.9917 13.5357 15.087 13.7141 15.0494 13.9041C15.0366 13.9702 15.0111 14.0346 14.9856 14.0977C14.5365 15.2229 14.0849 16.347 13.6389 17.4734C13.5648 17.661 13.4786 17.8236 13.2474 17.8218C13.0155 17.8206 12.933 17.6531 12.8596 17.4673C12.4098 16.3342 11.9522 15.2041 11.5091 14.0686C11.4612 13.946 11.4466 13.776 11.4946 13.6607C11.5328 13.5703 11.6973 13.4719 11.7944 13.4823C11.9134 13.495 12.0724 13.5915 12.1246 13.6965C12.286 14.0206 12.405 14.366 12.5403 14.7034C12.7703 15.2794 13.0004 15.856 13.2498 16.4817L13.2504 16.4823Z" fill="white"/>
<path d="M7.79415 5.09639C7.04581 5.09639 6.29686 5.09942 5.54852 5.09274C5.44049 5.09153 5.29786 5.07514 5.23474 5.00717C5.15402 4.91977 5.08483 4.76136 5.10789 4.65454C5.13095 4.54833 5.26569 4.45426 5.37008 4.38264C5.42289 4.34622 5.51696 4.36807 5.59222 4.36807C7.06644 4.36807 8.54067 4.36807 10.0149 4.36807C10.0604 4.36807 10.1059 4.36686 10.1508 4.36929C10.3699 4.38203 10.5193 4.52163 10.5265 4.71706C10.5338 4.91795 10.3784 5.08607 10.1527 5.09274C9.82007 5.10246 9.48748 5.09639 9.15488 5.09639C8.70151 5.09639 8.24752 5.09639 7.79415 5.09639V5.09639Z" fill="white"/>
</g>
<defs>
<clipPath id="clip0_1647_57202">
<rect width="18.876" height="19.6438" fill="white"/>
</clipPath>
</defs>
</svg>
