<svg width="26" height="30" viewBox="0 0 26 30" fill="none" xmlns="http://www.w3.org/2000/svg">
<g clip-path="url(#clip0_840_447)">
<g filter="url(#filter0_d_840_447)">
<path d="M5.81794 13.3661C4.01382 12.1812 4.01381 9.53597 5.81793 8.35104L16.4726 1.35324C18.4675 0.0429771 21.1195 1.474 21.1195 3.86076V17.8564C21.1195 20.2432 18.4675 21.6742 16.4726 20.3639L5.81794 13.3661Z" fill="#383838"/>
<path d="M6.09241 8.76899L16.7471 1.77118C18.4095 0.679299 20.6195 1.87182 20.6195 3.86079V17.8564C20.6195 19.8454 18.4095 21.0379 16.7471 19.946L6.09242 12.9482C4.58899 11.9608 4.58898 9.75643 6.09241 8.76899Z" stroke="#383838"/>
</g>
</g>
<defs>
<filter id="filter0_d_840_447" x="0.464844" y="0.855774" width="24.6548" height="28.0056" filterUnits="userSpaceOnUse" color-interpolation-filters="sRGB">
<feFlood flood-opacity="0" result="BackgroundImageFix"/>
<feColorMatrix in="SourceAlpha" type="matrix" values="0 0 0 0 0 0 0 0 0 0 0 0 0 0 0 0 0 0 127 0" result="hardAlpha"/>
<feOffset dy="4"/>
<feGaussianBlur stdDeviation="2"/>
<feComposite in2="hardAlpha" operator="out"/>
<feColorMatrix type="matrix" values="0 0 0 0 0 0 0 0 0 0 0 0 0 0 0 0 0 0 0.25 0"/>
<feBlend mode="normal" in2="BackgroundImageFix" result="effect1_dropShadow_840_447"/>
<feBlend mode="normal" in="SourceGraphic" in2="effect1_dropShadow_840_447" result="shape"/>
</filter>
<clipPath id="clip0_840_447">
<rect width="26" height="29" fill="white" transform="translate(0 0.358582)"/>
</clipPath>
</defs>
</svg>
