<svg xmlns="http://www.w3.org/2000/svg" width="18" height="16" viewBox="0 0 18 16">
    <g fill="none" fill-rule="evenodd">
        <g fill="#9C9696">
            <g>
                <path d="M14.4 8c0 3.52-2.88 6.4-6.4 6.4-3.52 0-6.4-2.88-6.4-6.4 0-3.52 2.88-6.4 6.4-6.4.64 0 1.2.08 1.76.24L11.04.56C10.08.24 9.04 0 8 0 3.6 0 0 3.6 0 8s3.6 8 8 8 8-3.6 8-8h-1.6z" transform="translate(-1561 -885) translate(1561 885)"/>
                <path fill-rule="nonzero" stroke="#9C9696" stroke-width=".7" d="M13.28 3.475l-.807-.808L8.839 6.3l.808.808 3.634-3.633zm2.43-.808L9.648 8.73 7.252 6.34l-.808.808 3.203 3.204 6.878-6.877-.814-.808zM3.2 7.148l3.204 3.204.808-.808L4.014 6.34l-.814.808z" transform="translate(-1561 -885) translate(1561 885)"/>
            </g>
        </g>
    </g>
</svg>
