<svg width="14" height="14" viewBox="0 0 14 14" fill="none" xmlns="http://www.w3.org/2000/svg">
<g clip-path="url(#clip0_714_370)">
<path d="M8.33398 3.16667V1.83333H5.66732V3.16667H8.33398ZM1.66732 4.5V11.8333H12.334V4.5H1.66732ZM12.334 3.16667C13.074 3.16667 13.6673 3.76 13.6673 4.5V11.8333C13.6673 12.5733 13.074 13.1667 12.334 13.1667H1.66732C0.927318 13.1667 0.333984 12.5733 0.333984 11.8333L0.340651 4.5C0.340651 3.76 0.927318 3.16667 1.66732 3.16667H4.33398V1.83333C4.33398 1.09333 4.92732 0.5 5.66732 0.5H8.33398C9.07399 0.5 9.66732 1.09333 9.66732 1.83333V3.16667H12.334Z" fill="#9C9696"/>
</g>
<defs>
<clipPath id="clip0_714_370">
<rect width="14" height="14" fill="white"/>
</clipPath>
</defs>
</svg>
