<svg width="15" height="12" viewBox="0 0 15 12" fill="none" xmlns="http://www.w3.org/2000/svg">
<g clip-path="url(#clip0_845_563)">
<path d="M5.45833 6.69792C3.80083 6.69792 0.5 7.52667 0.5 9.17709V10.4167H10.4167V9.17709C10.4167 7.52667 7.11583 6.69792 5.45833 6.69792ZM2.1575 9C2.7525 8.58917 4.19042 8.11459 5.45833 8.11459C6.72625 8.11459 8.16417 8.58917 8.75917 9H2.1575ZM5.45833 5.45834C6.82542 5.45834 7.9375 4.34625 7.9375 2.97917C7.9375 1.61208 6.82542 0.5 5.45833 0.5C4.09125 0.5 2.97917 1.61208 2.97917 2.97917C2.97917 4.34625 4.09125 5.45834 5.45833 5.45834ZM5.45833 1.91667C6.04625 1.91667 6.52083 2.39125 6.52083 2.97917C6.52083 3.56709 6.04625 4.04167 5.45833 4.04167C4.87042 4.04167 4.39583 3.56709 4.39583 2.97917C4.39583 2.39125 4.87042 1.91667 5.45833 1.91667ZM10.445 6.74042C11.2667 7.33542 11.8333 8.12875 11.8333 9.17709V10.4167H14.6667V9.17709C14.6667 7.74625 12.1875 6.93167 10.445 6.74042ZM9.70833 5.45834C11.0754 5.45834 12.1875 4.34625 12.1875 2.97917C12.1875 1.61208 11.0754 0.5 9.70833 0.5C9.32583 0.5 8.97167 0.592084 8.64583 0.747917C9.09208 1.37833 9.35417 2.15042 9.35417 2.97917C9.35417 3.80792 9.09208 4.58 8.64583 5.21042C8.97167 5.36625 9.32583 5.45834 9.70833 5.45834Z" fill="#9C9696"/>
</g>
<defs>
<clipPath id="clip0_845_563">
<rect width="15" height="11" fill="white" transform="translate(0 0.167969)"/>
</clipPath>
</defs>
</svg>
