<svg width="13" height="17" viewBox="0 0 13 17" fill="none" xmlns="http://www.w3.org/2000/svg">
<path d="M12.6409 4.43214L8.39089 0.182139C8.26947 0.060715 8.14804 0 7.96589 0H1.89447C1.22661 0 0.680176 0.546429 0.680176 1.21429V15.7857C0.680176 16.4536 1.22661 17 1.89447 17H11.6088C12.2766 17 12.8231 16.4536 12.8231 15.7857V4.85714C12.8231 4.675 12.7623 4.55357 12.6409 4.43214ZM7.96589 1.45714L11.3659 4.85714H7.96589V1.45714ZM11.6088 15.7857H1.89447V1.21429H6.75161V4.85714C6.75161 5.525 7.29804 6.07143 7.96589 6.07143H11.6088V15.7857Z" fill="#9C9696"/>
<path d="M3.1084 12.1429H10.3941V13.3572H3.1084V12.1429ZM3.1084 8.5H10.3941V9.71427H3.1084V8.5Z" fill="#9C9696"/>
</svg>
