<svg xmlns="http://www.w3.org/2000/svg" width="20" height="20" viewBox="0 0 20 20">
    <g fill="none" fill-rule="evenodd">
        <g>
            <g>
                <g>
                    <path fill="#D6DBE1" d="M0 0H20V20H0z" transform="translate(-922 -303) translate(132 289) translate(790 14)"/>
                    <g fill="#554D4D">
                        <path d="M8.333 0c2.393 0 4.334 1.94 4.334 4.333 0 2.393-1.94 4.334-4.334 4.334C5.94 8.667 4 6.727 4 4.333 4 1.94 5.94 0 8.333 0M16.667 12.667L14.667 12.667 14.667 10.667 12.667 10.667 12.667 12.667 10.667 12.667 10.667 14.667 12.667 14.667 12.667 16.667 14.667 16.667 14.667 14.667 16.667 14.667zM8.275 13.667c0-1.117.392-2.137 1.032-2.97-.336-.017-.676-.03-1.032-.03-3.302 0-5.73.795-7.072 1.382C.465 12.372 0 13.084 0 13.867v2.8h9.333c-.654-.838-1.058-1.87-1.058-3" transform="translate(-922 -303) translate(132 289) translate(790 14) translate(1.667 1.667)"/>
                    </g>
                </g>
            </g>
        </g>
    </g>
</svg>
