<svg width="24" height="25" viewBox="0 0 24 25" fill="none" xmlns="http://www.w3.org/2000/svg">
<g clip-path="url(#clip0_840_493)">
<path d="M14.5111 11.1812C14.8199 11.1812 15.0795 11.076 15.2901 10.8655C15.5006 10.6549 15.6058 10.3953 15.6058 10.0865C15.6058 9.77773 15.5006 9.51808 15.2901 9.30756C15.0795 9.09703 14.8199 8.99177 14.5111 8.99177C14.2023 8.99177 13.9427 9.09703 13.7322 9.30756C13.5216 9.51808 13.4164 9.77773 13.4164 10.0865C13.4164 10.3953 13.5216 10.6549 13.7322 10.8655C13.9427 11.076 14.2023 11.1812 14.5111 11.1812ZM8.78479 11.1812C9.09356 11.1812 9.35321 11.076 9.56374 10.8655C9.77426 10.6549 9.87953 10.3953 9.87953 10.0865C9.87953 9.77773 9.77426 9.51808 9.56374 9.30756C9.35321 9.09703 9.09356 8.99177 8.78479 8.99177C8.47602 8.99177 8.21637 9.09703 8.00584 9.30756C7.79532 9.51808 7.69005 9.77773 7.69005 10.0865C7.69005 10.3953 7.79532 10.6549 8.00584 10.8655C8.21637 11.076 8.47602 11.1812 8.78479 11.1812ZM11.648 16.5707C12.5322 16.5707 13.3358 16.3251 14.0589 15.8339C14.7814 15.3426 15.3181 14.69 15.669 13.876H14.5532C14.2444 14.3953 13.8341 14.8057 13.3221 15.1071C12.8095 15.4092 12.2515 15.5602 11.648 15.5602C11.0444 15.5602 10.4864 15.4092 9.97384 15.1071C9.46184 14.8057 9.05146 14.3953 8.74269 13.876H7.6269C7.97777 14.69 8.51476 15.3426 9.23784 15.8339C9.96037 16.3251 10.7637 16.5707 11.648 16.5707ZM11.648 20.1918C10.5392 20.1918 9.49721 19.9812 8.52205 19.5602C7.54634 19.1391 6.70058 18.5707 5.98479 17.8549C5.269 17.1391 4.70058 16.2934 4.27953 15.3177C3.85848 14.3425 3.64795 13.3005 3.64795 12.1918C3.64795 11.083 3.85848 10.0408 4.27953 9.06503C4.70058 8.08987 5.269 7.2444 5.98479 6.52861C6.70058 5.81282 7.54634 5.2444 8.52205 4.82335C9.49721 4.4023 10.5392 4.19177 11.648 4.19177C12.7567 4.19177 13.799 4.4023 14.7747 4.82335C15.7498 5.2444 16.5953 5.81282 17.3111 6.52861C18.0269 7.2444 18.5953 8.08987 19.0164 9.06503C19.4374 10.0408 19.6479 11.083 19.6479 12.1918C19.6479 13.3005 19.4374 14.3425 19.0164 15.3177C18.5953 16.2934 18.0269 17.1391 17.3111 17.8549C16.5953 18.5707 15.7498 19.1391 14.7747 19.5602C13.799 19.9812 12.7567 20.1918 11.648 20.1918ZM11.648 18.9286C13.5287 18.9286 15.1216 18.276 16.4269 16.9707C17.7322 15.6654 18.3848 14.0725 18.3848 12.1918C18.3848 10.3111 17.7322 8.71808 16.4269 7.41282C15.1216 6.10756 13.5287 5.45493 11.648 5.45493C9.76725 5.45493 8.17426 6.10756 6.869 7.41282C5.56374 8.71808 4.91111 10.3111 4.91111 12.1918C4.91111 14.0725 5.56374 15.6654 6.869 16.9707C8.17426 18.276 9.76725 18.9286 11.648 18.9286Z" fill="#EE4136"/>
</g>
<defs>
<clipPath id="clip0_840_493">
<rect width="17" height="17" fill="white" transform="translate(3.5 3.98901)"/>
</clipPath>
</defs>
</svg>
