<svg width="24" height="25" viewBox="0 0 24 25" fill="none" xmlns="http://www.w3.org/2000/svg">
<g clip-path="url(#clip0_840_492)">
<path d="M14.5111 11.3233C14.8199 11.3233 15.0795 11.2181 15.2901 11.0075C15.5006 10.797 15.6058 10.5374 15.6058 10.2286C15.6058 9.91982 15.5006 9.66017 15.2901 9.44965C15.0795 9.23912 14.8199 9.13386 14.5111 9.13386C14.2023 9.13386 13.9427 9.23912 13.7322 9.44965C13.5216 9.66017 13.4164 9.91982 13.4164 10.2286C13.4164 10.5374 13.5216 10.797 13.7322 11.0075C13.9427 11.2181 14.2023 11.3233 14.5111 11.3233ZM8.78479 11.3233C9.09356 11.3233 9.35321 11.2181 9.56374 11.0075C9.77426 10.797 9.87953 10.5374 9.87953 10.2286C9.87953 9.91982 9.77426 9.66017 9.56374 9.44965C9.35321 9.23912 9.09356 9.13386 8.78479 9.13386C8.47602 9.13386 8.21637 9.23912 8.00584 9.44965C7.79532 9.66017 7.69005 9.91982 7.69005 10.2286C7.69005 10.5374 7.79532 10.797 8.00584 11.0075C8.21637 11.2181 8.47602 11.3233 8.78479 11.3233ZM11.648 16.7128C12.5322 16.7128 13.3358 16.4672 14.0589 15.976C14.7814 15.4847 15.3181 14.8321 15.669 14.0181H14.5532C14.2444 14.5374 13.8341 14.9478 13.3221 15.2492C12.8095 15.5513 12.2515 15.7023 11.648 15.7023C11.0444 15.7023 10.4864 15.5513 9.97384 15.2492C9.46184 14.9478 9.05146 14.5374 8.74269 14.0181H7.6269C7.97777 14.8321 8.51476 15.4847 9.23784 15.976C9.96037 16.4672 10.7637 16.7128 11.648 16.7128ZM11.648 20.3339C10.5392 20.3339 9.49721 20.1233 8.52205 19.7023C7.54634 19.2812 6.70058 18.7128 5.98479 17.997C5.269 17.2812 4.70058 16.4355 4.27953 15.4598C3.85848 14.4846 3.64795 13.4426 3.64795 12.3339C3.64795 11.2251 3.85848 10.1828 4.27953 9.20712C4.70058 8.23196 5.269 7.38649 5.98479 6.6707C6.70058 5.95491 7.54634 5.38649 8.52205 4.96544C9.49721 4.54439 10.5392 4.33386 11.648 4.33386C12.7567 4.33386 13.799 4.54439 14.7747 4.96544C15.7498 5.38649 16.5953 5.95491 17.3111 6.6707C18.0269 7.38649 18.5953 8.23196 19.0164 9.20712C19.4374 10.1828 19.6479 11.2251 19.6479 12.3339C19.6479 13.4426 19.4374 14.4846 19.0164 15.4598C18.5953 16.4355 18.0269 17.2812 17.3111 17.997C16.5953 18.7128 15.7498 19.2812 14.7747 19.7023C13.799 20.1233 12.7567 20.3339 11.648 20.3339ZM11.648 19.0707C13.5287 19.0707 15.1216 18.4181 16.4269 17.1128C17.7322 15.8075 18.3848 14.2146 18.3848 12.3339C18.3848 10.4532 17.7322 8.86017 16.4269 7.55491C15.1216 6.24965 13.5287 5.59702 11.648 5.59702C9.76725 5.59702 8.17426 6.24965 6.869 7.55491C5.56374 8.86017 4.91111 10.4532 4.91111 12.3339C4.91111 14.2146 5.56374 15.8075 6.869 17.1128C8.17426 18.4181 9.76725 19.0707 11.648 19.0707Z" fill="#9C9696"/>
</g>
<defs>
<clipPath id="clip0_840_492">
<rect width="17" height="17" fill="white" transform="translate(3.5 4.1311)"/>
</clipPath>
</defs>
</svg>
