<svg xmlns="http://www.w3.org/2000/svg" width="20" height="20" viewBox="0 0 20 20">
    <g fill="none" fill-rule="evenodd">
        <g fill="#9C9696">
            <g>
                <g>
                    <path d="M10 14c-1.475 0-2.75-.81-3.445-2.001H4.879c.8 2.046 2.791 3.5 5.121 3.5 2.33 0 4.32-1.454 5.12-3.5h-1.676C12.75 13.189 11.475 14 10 14m0 3.999c-4.42 0-8-3.58-8-7.999 0-4.42 3.58-8 8-8s8 3.58 8 8-3.58 7.999-8 7.999M9.99 0C4.47 0 0 4.48 0 10s4.47 10 9.99 10C15.52 20 20 15.52 20 10S15.52 0 9.99 0M6.5 9C7.33 9 8 8.33 8 7.5S7.33 6 6.5 6 5 6.67 5 7.5 5.67 9 6.5 9m7 0c.83 0 1.5-.67 1.5-1.5S14.33 6 13.5 6 12 6.67 12 7.5 12.67 9 13.5 9" transform="translate(-1495 -1038) translate(799 1016) translate(674) translate(22 22)"/>
                </g>
            </g>
        </g>
    </g>
</svg>
