<svg width="10" height="6" viewBox="0 0 10 6" fill="none" xmlns="http://www.w3.org/2000/svg">
<path d="M5.19765 5.21796C5.10338 5.21796 5.01203 5.20194 4.92359 5.16988C4.83515 5.13783 4.75227 5.0828 4.67495 5.00482L0.949261 1.24682C0.829577 1.1261 0.771856 0.981867 0.776097 0.814131C0.780324 0.646395 0.842286 0.502166 0.961984 0.381444C1.08167 0.260722 1.22677 0.20036 1.39729 0.20036C1.56781 0.20036 1.71291 0.260722 1.8326 0.381444L5.19765 3.77569L8.5754 0.368631C8.69509 0.247909 8.83807 0.18968 9.00437 0.193944C9.17065 0.198222 9.31363 0.260722 9.43331 0.381444C9.55301 0.502166 9.61286 0.648534 9.61286 0.820548C9.61286 0.992548 9.55301 1.13891 9.43331 1.25963L5.72034 5.00482C5.64303 5.0828 5.56147 5.13783 5.47567 5.16988C5.38989 5.20194 5.29721 5.21796 5.19765 5.21796Z" fill="#1C1B1F"/>
</svg>
