<svg width="32" height="32" viewBox="0 0 32 32" fill="none" xmlns="http://www.w3.org/2000/svg">
<circle cx="16" cy="16" r="15.5" fill="white" stroke="#D6DBE1"/>
<path d="M9.27412 22.7379C8.52261 21.9995 9.33569 20.9848 11.5423 19.9074L12.9307 19.2294L13.4716 18.0666C13.7691 17.427 14.2131 16.3835 14.4583 15.7476L14.904 14.5914L14.5968 13.7358C14.2191 12.6837 14.0844 11.1028 14.3241 10.5343C14.6487 9.76422 15.712 9.84323 16.133 10.6687C16.4617 11.3133 16.4281 12.4808 16.0384 13.9531L15.7189 15.1602L16.0003 15.6296C16.1551 15.8878 16.6072 16.5008 17.005 16.9919L17.7527 17.9057L18.6831 17.7864C21.6387 17.4075 22.651 18.0515 22.651 18.975C22.651 20.1405 20.3302 20.2367 18.3813 18.8917C17.9428 18.5891 17.6417 18.2885 17.6417 18.2885C17.6417 18.2885 16.4208 18.5327 15.8197 18.6919C15.1992 18.8562 14.8897 18.9592 13.9808 19.2606C13.9808 19.2606 13.6619 19.7156 13.4541 20.0464C12.681 21.2772 11.7783 22.2971 11.1336 22.6683C10.4118 23.0839 9.65511 23.1123 9.27412 22.7379ZM10.4535 22.3239C10.8759 22.0674 11.7309 21.0738 12.3228 20.1516L12.5624 19.7782L11.4713 20.3172C9.78611 21.1498 9.01516 21.9344 9.41605 22.4091C9.64126 22.6757 9.91067 22.6536 10.4535 22.3239ZM21.3999 19.3049C21.8131 19.0206 21.7531 18.4475 21.286 18.2165C20.9225 18.0367 20.6294 17.9997 19.6851 18.0134C19.1047 18.0523 18.1715 18.1672 18.0134 18.2022C18.0134 18.2022 18.526 18.5503 18.7536 18.6783C19.0566 18.8483 19.7929 19.164 20.3305 19.3256C20.8608 19.4851 21.1675 19.4683 21.3999 19.3049V19.3049ZM16.9985 17.5075C16.7484 17.2492 16.3232 16.7101 16.0536 16.3095C15.701 15.8551 15.5242 15.5346 15.5242 15.5346C15.5242 15.5346 15.2664 16.3491 15.055 16.8393L14.3952 18.4415L14.204 18.8049C14.204 18.8049 15.2208 18.4773 15.7382 18.3445C16.2862 18.2039 17.3983 17.989 17.3983 17.989L16.9985 17.5075ZM15.5801 11.9185C15.6439 11.3925 15.6709 10.8674 15.499 10.6026C15.022 10.0902 14.4462 10.5175 14.5438 11.7356C14.5766 12.1454 14.6802 12.8459 14.8187 13.2777L15.0705 14.0627L15.2478 13.4714C15.3453 13.1463 15.4948 12.4474 15.5801 11.9185Z" fill="#FF2116"/>
</svg>
