<svg width="10" height="6" viewBox="0 0 10 6" fill="none" xmlns="http://www.w3.org/2000/svg">
<path d="M5.00018 5.21955C4.90509 5.21955 4.81295 5.20352 4.72374 5.17147C4.63453 5.13941 4.55093 5.08439 4.47295 5.0064L0.714925 1.24841C0.594203 1.12768 0.535981 0.983454 0.540259 0.815718C0.544523 0.647982 0.607023 0.503753 0.727759 0.383031C0.848481 0.262308 0.994842 0.201947 1.16684 0.201947C1.33884 0.201947 1.4852 0.262308 1.60592 0.383031L5.00018 3.77728L8.40724 0.370218C8.52796 0.249496 8.67219 0.191267 8.83992 0.195531C9.00765 0.199808 9.15187 0.262308 9.27259 0.383031C9.39333 0.503753 9.4537 0.650121 9.4537 0.822135C9.4537 0.994135 9.39333 1.1405 9.27259 1.26122L5.5274 5.0064C5.44942 5.08439 5.36715 5.13941 5.28061 5.17147C5.19409 5.20352 5.10061 5.21955 5.00018 5.21955Z" fill="#1C1B1F"/>
</svg>
