<svg width="32" height="32" viewBox="0 0 32 32" fill="none" xmlns="http://www.w3.org/2000/svg">
<circle cx="16" cy="16" r="15.5" fill="white" stroke="#D6DBE1"/>
<path d="M16.2738 11.7207H21.96C22.1357 11.7207 22.3041 11.7851 22.4283 11.8997C22.5525 12.0144 22.6223 12.1699 22.6223 12.332V20.8906C22.6223 21.0527 22.5525 21.2082 22.4283 21.3228C22.3041 21.4375 22.1357 21.5019 21.96 21.5019H10.0392C9.86358 21.5019 9.69513 21.4375 9.57093 21.3228C9.44673 21.2082 9.37695 21.0527 9.37695 20.8906V11.1094C9.37695 10.9472 9.44673 10.7917 9.57093 10.6771C9.69513 10.5625 9.86358 10.498 10.0392 10.498H14.9493L16.2738 11.7207Z" fill="#554D4D"/>
</svg>
