<svg width="18" height="16" viewBox="0 0 18 16" fill="none" xmlns="http://www.w3.org/2000/svg">
<path d="M12.5628 0.5C11.1128 0.5 9.72116 1.175 8.81283 2.24167C7.90449 1.175 6.51283 0.5 5.06283 0.5C2.49616 0.5 0.479492 2.51667 0.479492 5.08333C0.479492 8.23333 3.31283 10.8 7.60449 14.7L8.81283 15.7917L10.0212 14.6917C14.3128 10.8 17.1462 8.23333 17.1462 5.08333C17.1462 2.51667 15.1295 0.5 12.5628 0.5ZM8.89616 13.4583L8.81283 13.5417L8.72949 13.4583C4.76283 9.86667 2.14616 7.49167 2.14616 5.08333C2.14616 3.41667 3.39616 2.16667 5.06283 2.16667C6.34616 2.16667 7.59616 2.99167 8.03783 4.13333H9.59616C10.0295 2.99167 11.2795 2.16667 12.5628 2.16667C14.2295 2.16667 15.4795 3.41667 15.4795 5.08333C15.4795 7.49167 12.8628 9.86667 8.89616 13.4583Z" fill="#9C9696"/>
</svg>
