<svg width="24" height="24" viewBox="0 0 24 24" fill="none" xmlns="http://www.w3.org/2000/svg">
<g id="link">
<mask id="mask0_4175_95565" style="mask-type:alpha" maskUnits="userSpaceOnUse" x="0" y="0" width="25" height="24">
<rect id="Bounding box" x="0.000976562" width="24" height="24" fill="#D9D9D9"/>
</mask>
<g mask="url(#mask0_4175_95565)">
<path id="link_2" d="M11.001 17H7.00098C5.61764 17 4.43864 16.5123 3.46398 15.537C2.48864 14.5623 2.00098 13.3833 2.00098 12C2.00098 10.6167 2.48864 9.43733 3.46398 8.462C4.43864 7.48733 5.61764 7 7.00098 7H11.001V9H7.00098C6.16764 9 5.45931 9.29167 4.87598 9.875C4.29264 10.4583 4.00098 11.1667 4.00098 12C4.00098 12.8333 4.29264 13.5417 4.87598 14.125C5.45931 14.7083 6.16764 15 7.00098 15H11.001V17ZM8.00098 13V11H16.001V13H8.00098ZM13.001 17V15H17.001C17.8343 15 18.5426 14.7083 19.126 14.125C19.7093 13.5417 20.001 12.8333 20.001 12C20.001 11.1667 19.7093 10.4583 19.126 9.875C18.5426 9.29167 17.8343 9 17.001 9H13.001V7H17.001C18.3843 7 19.5636 7.48733 20.539 8.462C21.5136 9.43733 22.001 10.6167 22.001 12C22.001 13.3833 21.5136 14.5623 20.539 15.537C19.5636 16.5123 18.3843 17 17.001 17H13.001Z" fill="#9C9696"/>
</g>
</g>
</svg>
