<svg width="18" height="18" viewBox="0 0 18 18" fill="none" xmlns="http://www.w3.org/2000/svg">
<path d="M9 18C8.71111 18 8.47245 17.9058 8.284 17.7173C8.09467 17.528 8 17.2889 8 17V10H1C0.711111 10 0.472444 9.90533 0.284 9.716C0.0946664 9.52756 0 9.28889 0 9C0 8.71111 0.0946664 8.472 0.284 8.28267C0.472444 8.09422 0.711111 8 1 8H8V1C8 0.711111 8.09467 0.472444 8.284 0.284C8.47245 0.0946664 8.71111 0 9 0C9.28889 0 9.528 0.0946664 9.71733 0.284C9.90578 0.472444 10 0.711111 10 1V8H17C17.2889 8 17.528 8.09422 17.7173 8.28267C17.9058 8.472 18 8.71111 18 9C18 9.28889 17.9058 9.52756 17.7173 9.716C17.528 9.90533 17.2889 10 17 10H10V17C10 17.2889 9.90578 17.528 9.71733 17.7173C9.528 17.9058 9.28889 18 9 18Z" fill="white"/>
</svg>
