<svg width="32" height="32" viewBox="0 0 32 32" fill="none" xmlns="http://www.w3.org/2000/svg">
<circle cx="16" cy="16" r="15.5" fill="white" stroke="#D6DBE1"/>
<path d="M12.8123 19.3228C12.8453 19.5837 12.8668 19.8112 12.8771 20.0056H12.9152C12.9305 19.8214 12.9596 19.5991 13.0027 19.3382C13.0458 19.0776 13.0879 18.8576 13.1286 18.6786L14.8956 11H17.1807L19.0088 18.5636C19.1003 18.937 19.1764 19.4123 19.2373 19.9902H19.2677C19.2931 19.5913 19.3565 19.131 19.4581 18.6094L20.9207 11H23L20.4409 22H18.0109L16.2666 14.7128C16.2158 14.5029 16.1587 14.2297 16.0952 13.892C16.0317 13.5547 15.9924 13.3092 15.9772 13.1558H15.9468C15.9265 13.3348 15.8871 13.6006 15.8286 13.9533C15.7702 14.3064 15.7231 14.5669 15.6877 14.7358L14.05 22H11.5822L9 11H11.1174L12.7096 18.6941C12.7451 18.8523 12.7792 19.0622 12.8123 19.3228Z" fill="#185ABD"/>
</svg>
