<svg width="17" height="17" viewBox="0 0 17 17" fill="none" xmlns="http://www.w3.org/2000/svg">
<path d="M13.6772 16.67C13.0131 16.67 12.4444 16.4373 11.9711 15.9719C11.4978 15.5066 11.2611 14.9474 11.2611 14.2945C11.2611 14.1973 11.2717 14.0827 11.2929 13.9507C11.3141 13.8187 11.3459 13.6972 11.3883 13.5861L4.96651 9.91865C4.75457 10.1548 4.49318 10.3458 4.18234 10.4917C3.87149 10.6375 3.55358 10.7105 3.22861 10.7105C2.56453 10.7105 1.99583 10.4778 1.5225 10.0124C1.04917 9.54705 0.8125 8.98791 0.8125 8.335C0.8125 7.6682 1.04917 7.10559 1.5225 6.64716C1.99583 6.18874 2.56453 5.95953 3.22861 5.95953C3.55358 5.95953 3.86443 6.02204 4.16114 6.14706C4.45786 6.27209 4.72632 6.45268 4.96651 6.68884L11.3883 3.06311C11.3459 2.96587 11.3141 2.85474 11.2929 2.72971C11.2717 2.60469 11.2611 2.48661 11.2611 2.37547C11.2611 1.70867 11.4978 1.14606 11.9711 0.687638C12.4444 0.229213 13.0131 0 13.6772 0C14.3554 0 14.9277 0.229213 15.3939 0.687638C15.8602 1.14606 16.0933 1.70867 16.0933 2.37547C16.0933 3.02838 15.8602 3.58752 15.3939 4.05289C14.9277 4.51826 14.3554 4.75095 13.6772 4.75095C13.3522 4.75095 13.0379 4.69886 12.7341 4.59467C12.4303 4.49048 12.1725 4.32031 11.9605 4.08415L5.53875 7.58485C5.56701 7.69598 5.59173 7.82448 5.61293 7.97034C5.63412 8.11621 5.64472 8.23776 5.64472 8.335C5.64472 8.43224 5.63412 8.53643 5.61293 8.64756C5.59173 8.7587 5.56701 8.86983 5.53875 8.98096L11.9605 12.565C12.1725 12.3705 12.4197 12.2142 12.7023 12.0962C12.9849 11.9781 13.3099 11.9191 13.6772 11.9191C14.3554 11.9191 14.9277 12.1483 15.3939 12.6067C15.8602 13.0651 16.0933 13.6277 16.0933 14.2945C16.0933 14.9474 15.8602 15.5066 15.3939 15.9719C14.9277 16.4373 14.3554 16.67 13.6772 16.67ZM13.6772 3.5007C14.0022 3.5007 14.2742 3.39304 14.4932 3.17772C14.7122 2.9624 14.8217 2.69498 14.8217 2.37547C14.8217 2.05597 14.7122 1.78855 14.4932 1.57323C14.2742 1.35791 14.0022 1.25025 13.6772 1.25025C13.3522 1.25025 13.0803 1.35791 12.8613 1.57323C12.6423 1.78855 12.5328 2.05597 12.5328 2.37547C12.5328 2.69498 12.6423 2.9624 12.8613 3.17772C13.0803 3.39304 13.3522 3.5007 13.6772 3.5007ZM3.22861 9.46023C3.55358 9.46023 3.82557 9.35256 4.04458 9.13724C4.26358 8.92192 4.37308 8.65451 4.37308 8.335C4.37308 8.01549 4.26358 7.74808 4.04458 7.53276C3.82557 7.31744 3.55358 7.20977 3.22861 7.20977C2.90364 7.20977 2.63165 7.31744 2.41264 7.53276C2.19364 7.74808 2.08414 8.01549 2.08414 8.335C2.08414 8.65451 2.19364 8.92192 2.41264 9.13724C2.63165 9.35256 2.90364 9.46023 3.22861 9.46023ZM13.6772 15.4198C14.0022 15.4198 14.2742 15.3121 14.4932 15.0968C14.7122 14.8814 14.8217 14.614 14.8217 14.2945C14.8217 13.975 14.7122 13.7076 14.4932 13.4923C14.2742 13.277 14.0022 13.1693 13.6772 13.1693C13.3522 13.1693 13.0803 13.277 12.8613 13.4923C12.6423 13.7076 12.5328 13.975 12.5328 14.2945C12.5328 14.614 12.6423 14.8814 12.8613 15.0968C13.0803 15.3121 13.3522 15.4198 13.6772 15.4198Z" fill="#9C9696"/>
</svg>
