<svg width="16" height="15" viewBox="0 0 16 15" fill="none" xmlns="http://www.w3.org/2000/svg">
<path d="M8.3312 2.26177H15.2C15.4122 2.26177 15.6157 2.34059 15.7657 2.48088C15.9157 2.62117 16 2.81145 16 3.00985V13.4829C16 13.6813 15.9157 13.8716 15.7657 14.0119C15.6157 14.1522 15.4122 14.231 15.2 14.231H0.8C0.587827 14.231 0.384344 14.1522 0.234315 14.0119C0.0842854 13.8716 0 13.6813 0 13.4829V1.5137C0 1.3153 0.0842854 1.12502 0.234315 0.984731C0.384344 0.84444 0.587827 0.765625 0.8 0.765625H6.7312L8.3312 2.26177Z" fill="#9C9696"/>
<ellipse cx="10.582" cy="7.1313" rx="1.41404" ry="1.46333" fill="white"/>
<path fill-rule="evenodd" clip-rule="evenodd" d="M10.6141 9.24734L10.713 9.24609C11.881 9.24609 12.7396 9.5909 13.2144 9.84538C13.4753 9.98555 13.64 10.2939 13.64 10.6334V11.8476H7.58789V10.6334C7.58789 10.2939 7.75263 9.98555 8.01349 9.84538C8.48824 9.5909 9.34687 9.24609 10.5149 9.24609C10.5483 9.24609 10.5813 9.24672 10.6141 9.24734Z" fill="white"/>
</svg>
