<svg width="18" height="18" viewBox="0 0 18 18" fill="none" xmlns="http://www.w3.org/2000/svg">
<path d="M8.80449 0.666992C4.20449 0.666992 0.479492 4.40033 0.479492 9.00033C0.479492 13.6003 4.20449 17.3337 8.80449 17.3337C13.4128 17.3337 17.1462 13.6003 17.1462 9.00033C17.1462 4.40033 13.4128 0.666992 8.80449 0.666992ZM8.81283 15.667C5.12949 15.667 2.14616 12.6837 2.14616 9.00033C2.14616 5.31699 5.12949 2.33366 8.81283 2.33366C12.4962 2.33366 15.4795 5.31699 15.4795 9.00033C15.4795 12.6837 12.4962 15.667 8.81283 15.667ZM9.22949 4.83366H7.97949V9.83366L12.3545 12.4587L12.9795 11.4337L9.22949 9.20866V4.83366Z" fill="#9C9696"/>
</svg>
