<svg width="16" height="16" viewBox="0 0 16 16" fill="none" xmlns="http://www.w3.org/2000/svg">
<path d="M8.00063 15.9114C6.91516 15.9114 5.89086 15.7034 4.92773 15.2872C3.9646 14.8711 3.12458 14.3046 2.40769 13.5877C1.69082 12.8708 1.12432 12.0308 0.708193 11.0677C0.292054 10.1045 0.0839844 9.08024 0.0839844 7.99477C0.0839844 6.90076 0.292054 5.87432 0.708193 4.91546C1.12432 3.9566 1.69082 3.11872 2.40769 2.40183C3.12458 1.68496 3.9646 1.11846 4.92773 0.702333C5.89086 0.286194 6.91516 0.078125 8.00063 0.078125C9.09464 0.078125 10.1211 0.286194 11.0799 0.702333C12.0388 1.11846 12.8767 1.68496 13.5936 2.40183C14.3104 3.11872 14.8769 3.9566 15.2931 4.91546C15.7092 5.87432 15.9173 6.90076 15.9173 7.99477C15.9173 9.08024 15.7092 10.1045 15.2931 11.0677C14.8769 12.0308 14.3104 12.8708 13.5936 13.5877C12.8767 14.3046 12.0388 14.8711 11.0799 15.2872C10.1211 15.7034 9.09464 15.9114 8.00063 15.9114ZM8.00063 14.6438C8.42585 14.0797 8.78376 13.5108 9.07436 12.9371C9.36496 12.3633 9.6016 11.7362 9.7843 11.0556H6.21696C6.41034 11.7576 6.64966 12.3954 6.93492 12.9691C7.22017 13.5428 7.57541 14.1011 8.00063 14.6438ZM6.38688 14.4146C6.06744 13.9563 5.78057 13.4352 5.5263 12.8513C5.27202 12.2675 5.07437 11.6689 4.93334 11.0556H2.10638C2.54656 11.9211 3.13685 12.6481 3.87723 13.2368C4.61764 13.8255 5.45419 14.2181 6.38688 14.4146ZM9.61438 14.4146C10.5471 14.2181 11.3836 13.8255 12.124 13.2368C12.8644 12.6481 13.4547 11.9211 13.8949 11.0556H11.0679C10.9002 11.6742 10.6892 12.2755 10.4349 12.8594C10.1806 13.4432 9.90712 13.9617 9.61438 14.4146ZM1.58236 9.80569H4.68013C4.62778 9.49586 4.58986 9.19217 4.56636 8.89463C4.54286 8.59707 4.53111 8.29712 4.53111 7.99477C4.53111 7.69242 4.54286 7.39247 4.56636 7.09492C4.58986 6.79738 4.62778 6.49369 4.68013 6.18385H1.58236C1.50223 6.46698 1.4408 6.76132 1.39807 7.06688C1.35533 7.37243 1.33396 7.68173 1.33396 7.99477C1.33396 8.30781 1.35533 8.61711 1.39807 8.92267C1.4408 9.22822 1.50223 9.52256 1.58236 9.80569ZM5.93011 9.80569H10.0712C10.1235 9.49586 10.1614 9.19483 10.1849 8.90263C10.2084 8.61043 10.2202 8.30781 10.2202 7.99477C10.2202 7.68173 10.2084 7.37911 10.1849 7.08692C10.1614 6.79471 10.1235 6.49369 10.0712 6.18385H5.93011C5.87776 6.49369 5.83983 6.79471 5.81632 7.08692C5.79282 7.37911 5.78107 7.68173 5.78107 7.99477C5.78107 8.30781 5.79282 8.61043 5.81632 8.90263C5.83983 9.19483 5.87776 9.49586 5.93011 9.80569ZM11.3211 9.80569H14.4189C14.499 9.52256 14.5605 9.22822 14.6032 8.92267C14.6459 8.61711 14.6673 8.30781 14.6673 7.99477C14.6673 7.68173 14.6459 7.37243 14.6032 7.06688C14.5605 6.76132 14.499 6.46698 14.4189 6.18385H11.3211C11.3735 6.49369 11.4114 6.79738 11.4349 7.09492C11.4584 7.39247 11.4702 7.69242 11.4702 7.99477C11.4702 8.29712 11.4584 8.59707 11.4349 8.89463C11.4114 9.19217 11.3735 9.49586 11.3211 9.80569ZM11.0679 4.9339H13.8949C13.4494 4.05781 12.8631 3.33077 12.136 2.75277C11.409 2.17478 10.5685 1.77949 9.61438 1.56688C9.93383 2.05192 10.218 2.58237 10.4669 3.15823C10.7159 3.73409 10.9162 4.32598 11.0679 4.9339ZM6.21696 4.9339H9.7843C9.59092 4.23731 9.3476 3.59548 9.05432 3.0084C8.76105 2.42133 8.40983 1.8671 8.00063 1.34573C7.59144 1.8671 7.24021 2.42133 6.94694 3.0084C6.65367 3.59548 6.41034 4.23731 6.21696 4.9339ZM2.10638 4.9339H4.93334C5.08505 4.32598 5.28537 3.73409 5.53432 3.15823C5.78325 2.58237 6.06744 2.05192 6.38688 1.56688C5.42748 1.77949 4.58559 2.17613 3.86121 2.75679C3.13685 3.33746 2.55191 4.06316 2.10638 4.9339Z" fill="#1C1B1F"/>
</svg>
