<svg width="25" height="25" viewBox="0 0 25 25" fill="none" xmlns="http://www.w3.org/2000/svg">
<g id="tune">
<mask id="mask0_4175_97809" style="mask-type:alpha" maskUnits="userSpaceOnUse" x="0" y="0" width="25" height="25">
<rect id="Bounding box" x="0.1875" y="0.754395" width="24" height="24" fill="#D9D9D9"/>
</mask>
<g mask="url(#mask0_4175_97809)">
<path id="tune_2" d="M4.1875 19.7544C3.90417 19.7544 3.66683 19.6584 3.4755 19.4664C3.2835 19.2751 3.1875 19.0377 3.1875 18.7544C3.1875 18.4711 3.2835 18.2337 3.4755 18.0424C3.66683 17.8504 3.90417 17.7544 4.1875 17.7544H8.1875C8.47083 17.7544 8.7085 17.8504 8.9005 18.0424C9.09183 18.2337 9.1875 18.4711 9.1875 18.7544C9.1875 19.0377 9.09183 19.2751 8.9005 19.4664C8.7085 19.6584 8.47083 19.7544 8.1875 19.7544H4.1875ZM4.1875 7.75439C3.90417 7.75439 3.66683 7.65873 3.4755 7.46739C3.2835 7.27539 3.1875 7.03773 3.1875 6.75439C3.1875 6.47106 3.2835 6.23339 3.4755 6.04139C3.66683 5.85006 3.90417 5.75439 4.1875 5.75439H12.1875C12.4708 5.75439 12.7085 5.85006 12.9005 6.04139C13.0918 6.23339 13.1875 6.47106 13.1875 6.75439C13.1875 7.03773 13.0918 7.27539 12.9005 7.46739C12.7085 7.65873 12.4708 7.75439 12.1875 7.75439H4.1875ZM12.1875 21.7544C11.9042 21.7544 11.6668 21.6584 11.4755 21.4664C11.2835 21.2751 11.1875 21.0377 11.1875 20.7544V16.7544C11.1875 16.4711 11.2835 16.2334 11.4755 16.0414C11.6668 15.8501 11.9042 15.7544 12.1875 15.7544C12.4708 15.7544 12.7085 15.8501 12.9005 16.0414C13.0918 16.2334 13.1875 16.4711 13.1875 16.7544V17.7544H20.1875C20.4708 17.7544 20.7082 17.8504 20.8995 18.0424C21.0915 18.2337 21.1875 18.4711 21.1875 18.7544C21.1875 19.0377 21.0915 19.2751 20.8995 19.4664C20.7082 19.6584 20.4708 19.7544 20.1875 19.7544H13.1875V20.7544C13.1875 21.0377 13.0918 21.2751 12.9005 21.4664C12.7085 21.6584 12.4708 21.7544 12.1875 21.7544ZM8.1875 15.7544C7.90417 15.7544 7.6665 15.6584 7.4745 15.4664C7.28317 15.2751 7.1875 15.0377 7.1875 14.7544V13.7544H4.1875C3.90417 13.7544 3.66683 13.6584 3.4755 13.4664C3.2835 13.2751 3.1875 13.0377 3.1875 12.7544C3.1875 12.4711 3.2835 12.2334 3.4755 12.0414C3.66683 11.8501 3.90417 11.7544 4.1875 11.7544H7.1875V10.7544C7.1875 10.4711 7.28317 10.2334 7.4745 10.0414C7.6665 9.85006 7.90417 9.75439 8.1875 9.75439C8.47083 9.75439 8.7085 9.85006 8.9005 10.0414C9.09183 10.2334 9.1875 10.4711 9.1875 10.7544V14.7544C9.1875 15.0377 9.09183 15.2751 8.9005 15.4664C8.7085 15.6584 8.47083 15.7544 8.1875 15.7544ZM12.1875 13.7544C11.9042 13.7544 11.6668 13.6584 11.4755 13.4664C11.2835 13.2751 11.1875 13.0377 11.1875 12.7544C11.1875 12.4711 11.2835 12.2334 11.4755 12.0414C11.6668 11.8501 11.9042 11.7544 12.1875 11.7544H20.1875C20.4708 11.7544 20.7082 11.8501 20.8995 12.0414C21.0915 12.2334 21.1875 12.4711 21.1875 12.7544C21.1875 13.0377 21.0915 13.2751 20.8995 13.4664C20.7082 13.6584 20.4708 13.7544 20.1875 13.7544H12.1875ZM16.1875 9.75439C15.9042 9.75439 15.6668 9.65839 15.4755 9.46639C15.2835 9.27506 15.1875 9.03773 15.1875 8.75439V4.75439C15.1875 4.47106 15.2835 4.23339 15.4755 4.04139C15.6668 3.85006 15.9042 3.75439 16.1875 3.75439C16.4708 3.75439 16.7082 3.85006 16.8995 4.04139C17.0915 4.23339 17.1875 4.47106 17.1875 4.75439V5.75439H20.1875C20.4708 5.75439 20.7082 5.85006 20.8995 6.04139C21.0915 6.23339 21.1875 6.47106 21.1875 6.75439C21.1875 7.03773 21.0915 7.27539 20.8995 7.46739C20.7082 7.65873 20.4708 7.75439 20.1875 7.75439H17.1875V8.75439C17.1875 9.03773 17.0915 9.27506 16.8995 9.46639C16.7082 9.65839 16.4708 9.75439 16.1875 9.75439Z" fill="#9C9696"/>
</g>
</g>
</svg>
