<svg width="24" height="24" viewBox="0 0 24 24" fill="none" xmlns="http://www.w3.org/2000/svg">
<mask id="mask0_4170_93375" style="mask-type:alpha" maskUnits="userSpaceOnUse" x="0" y="0" width="24" height="24">
<rect width="24" height="24" fill="#D9D9D9"/>
</mask>
<g mask="url(#mask0_4170_93375)">
<path d="M4 20.2016V17.8017H20V20.2016H4ZM6.00002 15.8016V13.3555L13.1477 6.22322L15.5784 8.65394L8.44614 15.8016H6.00002ZM7.2 14.6017H7.92L13.8923 8.65394L13.1477 7.90932L7.2 13.8817V14.6017ZM16.3861 7.8201L13.9554 5.40476L15.1338 4.22632C15.2805 4.07144 15.4646 3.99605 15.6861 4.00016C15.9077 4.00427 16.0918 4.07965 16.2385 4.22632L17.5492 5.53704C17.6958 5.68371 17.7717 5.86576 17.7769 6.0832C17.782 6.30064 17.7112 6.48679 17.5646 6.64166L16.3861 7.8201Z" fill="#9C9696"/>
</g>
</svg>
