<svg width="15" height="15" viewBox="0 0 15 15" fill="none" xmlns="http://www.w3.org/2000/svg">
<g id="Group 4902">
<rect id="Rectangle 402" x="0.939453" y="0.5" width="14" height="14" rx="1" fill="#EE4136"/>
<path id="Vector" d="M2.84772 12.3586C2.26987 11.7909 2.89506 11.0107 4.59177 10.1822L5.65936 9.66086L6.07527 8.76672C6.30402 8.27494 6.64543 7.47252 6.83396 6.98358L7.17674 6.09457L6.94053 5.43666C6.65008 4.62769 6.54651 3.41202 6.73079 2.97489C6.9804 2.38278 7.798 2.44353 8.12169 3.07823C8.37449 3.57394 8.34864 4.47163 8.04898 5.60377L7.80331 6.53192L8.0197 6.89286C8.13872 7.09138 8.48637 7.56276 8.79226 7.94036L9.36716 8.64302L10.0825 8.55129C12.3552 8.2599 13.1336 8.75514 13.1336 9.46522C13.1336 10.3614 11.3491 10.4354 9.85054 9.4012C9.51337 9.16851 9.28182 8.93737 9.28182 8.93737C9.28182 8.93737 8.34304 9.12515 7.88083 9.24756C7.40372 9.37391 7.16569 9.45305 6.46682 9.68483C6.46682 9.68483 6.22161 10.0347 6.06182 10.2891C5.46734 11.2354 4.77323 12.0197 4.27753 12.3051C3.72252 12.6247 3.14068 12.6465 2.84772 12.3586ZM3.75458 12.0403C4.0794 11.8431 4.73685 11.079 5.19195 10.3699L5.37621 10.0828L4.53722 10.4973C3.24141 11.1375 2.6486 11.7408 2.95686 12.1058C3.13003 12.3108 3.33718 12.2938 3.75458 12.0403ZM12.1716 9.71891C12.4893 9.50026 12.4432 9.05964 12.084 8.88199C11.8045 8.74373 11.5792 8.71533 10.853 8.72586C10.4068 8.75575 9.68922 8.84411 9.5676 8.871C9.5676 8.871 9.9618 9.13869 10.1368 9.23708C10.3698 9.36783 10.936 9.61053 11.3493 9.73485C11.757 9.85747 11.9929 9.84455 12.1716 9.71891V9.71891ZM8.78723 8.3368C8.59495 8.1382 8.26801 7.72369 8.06068 7.41568C7.78953 7.06627 7.65356 6.81976 7.65356 6.81976C7.65356 6.81976 7.45538 7.44611 7.29278 7.82302L6.78551 9.05501L6.63843 9.33445C6.63843 9.33445 7.42033 9.08255 7.81815 8.98045C8.2395 8.87231 9.09465 8.70709 9.09465 8.70709L8.78723 8.3368ZM7.69658 4.03924C7.74562 3.63485 7.76643 3.23105 7.6342 3.02743C7.26742 2.63346 6.82472 2.962 6.89971 3.89864C6.92494 4.21374 7.00461 4.75238 7.11111 5.08438L7.30477 5.688L7.44106 5.23337C7.51603 4.98333 7.63101 4.44596 7.69658 4.03924Z" fill="#FFF6F5"/>
</g>
</svg>
