<svg width="15" height="15" viewBox="0 0 15 15" fill="none" xmlns="http://www.w3.org/2000/svg">
<g id="Group 4887">
<rect id="Rectangle 401" x="0.939453" y="0.0175781" width="14" height="14" rx="1" fill="#185ABD"/>
<path id="Vector" d="M5.57397 9.75688C5.59849 9.95055 5.61441 10.1193 5.62205 10.2636H5.65032C5.66167 10.1269 5.68331 9.96198 5.71529 9.76831C5.74727 9.57497 5.77847 9.41176 5.80867 9.27893L7.11986 3.58105H8.8155L10.172 9.19356C10.2399 9.47064 10.2964 9.82329 10.3416 10.2522H10.3641C10.383 9.95612 10.4301 9.61459 10.5055 9.22758L11.5907 3.58105H13.1337L11.2347 11.7435H9.43154L8.13724 6.33611C8.09954 6.18039 8.05717 5.97759 8.01005 5.727C7.96293 5.47675 7.93373 5.29454 7.92249 5.18071H7.89993C7.88483 5.31354 7.8556 5.51077 7.81222 5.77249C7.76885 6.0345 7.73394 6.22784 7.70763 6.35314L6.49243 11.7435H4.66118L2.74512 3.58105H4.31635L5.4978 9.2904C5.5241 9.40782 5.54944 9.56354 5.57397 9.75688Z" fill="white"/>
</g>
</svg>
