<svg width="21" height="20" viewBox="0 0 21 20" fill="none" xmlns="http://www.w3.org/2000/svg">
<g id="share">
<mask id="mask0_4175_95568" style="mask-type:alpha" maskUnits="userSpaceOnUse" x="0" y="0" width="21" height="20">
<rect id="Bounding box" x="0.365234" width="20" height="20" fill="#D9D9D9"/>
</mask>
<g mask="url(#mask0_4175_95568)">
<path id="share_2" d="M15.3652 18.3327C14.6708 18.3327 14.0805 18.0896 13.5944 17.6035C13.1083 17.1174 12.8652 16.5271 12.8652 15.8327C12.8652 15.7355 12.8722 15.6346 12.8861 15.5302C12.9 15.4263 12.9208 15.3327 12.9486 15.2493L7.07357 11.8327C6.83746 12.041 6.57357 12.2041 6.2819 12.3218C5.99023 12.4402 5.68468 12.4993 5.36523 12.4993C4.67079 12.4993 4.08051 12.2563 3.5944 11.7702C3.10829 11.2841 2.86523 10.6938 2.86523 9.99935C2.86523 9.3049 3.10829 8.71463 3.5944 8.22852C4.08051 7.7424 4.67079 7.49935 5.36523 7.49935C5.68468 7.49935 5.99023 7.55824 6.2819 7.67602C6.57357 7.79435 6.83746 7.95768 7.07357 8.16602L12.9486 4.74935C12.9208 4.66602 12.9 4.5724 12.8861 4.46852C12.8722 4.36407 12.8652 4.26324 12.8652 4.16602C12.8652 3.47157 13.1083 2.88129 13.5944 2.39518C14.0805 1.90907 14.6708 1.66602 15.3652 1.66602C16.0597 1.66602 16.65 1.90907 17.1361 2.39518C17.6222 2.88129 17.8652 3.47157 17.8652 4.16602C17.8652 4.86046 17.6222 5.45074 17.1361 5.93685C16.65 6.42296 16.0597 6.66602 15.3652 6.66602C15.0458 6.66602 14.7402 6.60685 14.4486 6.48852C14.1569 6.37074 13.893 6.20768 13.6569 5.99935L7.7819 9.41602C7.80968 9.49935 7.83051 9.59296 7.8444 9.69685C7.85829 9.80129 7.86523 9.90213 7.86523 9.99935C7.86523 10.0966 7.85829 10.1971 7.8444 10.301C7.83051 10.4055 7.80968 10.4993 7.7819 10.5827L13.6569 13.9993C13.893 13.791 14.1569 13.6277 14.4486 13.5093C14.7402 13.3916 15.0458 13.3327 15.3652 13.3327C16.0597 13.3327 16.65 13.5757 17.1361 14.0618C17.6222 14.548 17.8652 15.1382 17.8652 15.8327C17.8652 16.5271 17.6222 17.1174 17.1361 17.6035C16.65 18.0896 16.0597 18.3327 15.3652 18.3327Z" fill="#9C9696"/>
</g>
</g>
</svg>
