<svg width="14" height="8" viewBox="0 0 14 8" fill="none" xmlns="http://www.w3.org/2000/svg">
<path d="M10.125 0.875H7.625V2.125H10.125C11.1562 2.125 12 2.96875 12 4C12 5.03125 11.1562 5.875 10.125 5.875H7.625V7.125H10.125C11.85 7.125 13.25 5.725 13.25 4C13.25 2.275 11.85 0.875 10.125 0.875ZM6.375 5.875H3.875C2.84375 5.875 2 5.03125 2 4C2 2.96875 2.84375 2.125 3.875 2.125H6.375V0.875H3.875C2.15 0.875 0.75 2.275 0.75 4C0.75 5.725 2.15 7.125 3.875 7.125H6.375V5.875ZM4.5 3.375H9.5V4.625H4.5V3.375Z" fill="#9C9696"/>
</svg>
