<svg width="18" height="12" viewBox="0 0 18 12" fill="none" xmlns="http://www.w3.org/2000/svg">
<path d="M9 2.25C11.8425 2.25 14.3775 3.8475 15.615 6.375C14.3775 8.9025 11.8425 10.5 9 10.5C6.1575 10.5 3.6225 8.9025 2.385 6.375C3.6225 3.8475 6.1575 2.25 9 2.25ZM9 0.75C5.25 0.75 2.0475 3.0825 0.75 6.375C2.0475 9.6675 5.25 12 9 12C12.75 12 15.9525 9.6675 17.25 6.375C15.9525 3.0825 12.75 0.75 9 0.75ZM9 4.5C10.035 4.5 10.875 5.34 10.875 6.375C10.875 7.41 10.035 8.25 9 8.25C7.965 8.25 7.125 7.41 7.125 6.375C7.125 5.34 7.965 4.5 9 4.5ZM9 3C7.14 3 5.625 4.515 5.625 6.375C5.625 8.235 7.14 9.75 9 9.75C10.86 9.75 12.375 8.235 12.375 6.375C12.375 4.515 10.86 3 9 3Z" fill="#9C9696"/>
</svg>
