<svg width="15" height="15" viewBox="0 0 15 15" fill="none" xmlns="http://www.w3.org/2000/svg">
<g id="Group 4890">
<rect id="Rectangle 401" x="0.939453" y="0.544922" width="14" height="14" rx="1" fill="#EE4136"/>
<g id="headphones">
<mask id="mask0_2554_53022" style="mask-type:alpha" maskUnits="userSpaceOnUse" x="2" y="1" width="12" height="13">
<rect id="Bounding box" x="2.29004" y="1.91895" width="11.2871" height="11.2871" fill="#D9D9D9"/>
</mask>
<g mask="url(#mask0_2554_53022)">
<path id="headphones_2" d="M4.72091 12.0008C4.37817 12.0008 4.08477 11.8788 3.84071 11.6347C3.59664 11.3907 3.47461 11.0973 3.47461 10.7545V7.56214C3.47461 6.94769 3.59184 6.36935 3.82631 5.82714C4.06077 5.28494 4.37916 4.81268 4.78147 4.41037C5.18378 4.00807 5.65603 3.68968 6.19824 3.45522C6.74045 3.22075 7.31878 3.10352 7.93323 3.10352C8.54768 3.10352 9.12601 3.22075 9.66822 3.45522C10.2104 3.68968 10.6827 4.00807 11.085 4.41037C11.4873 4.81268 11.8057 5.28494 12.0401 5.82714C12.2746 6.36935 12.3918 6.94769 12.3918 7.56214V10.7545C12.3918 11.0973 12.2698 11.3907 12.0257 11.6347C11.7817 11.8788 11.4883 12.0008 11.1456 12.0008H10.4043C10.0616 12.0008 9.7682 11.8788 9.52414 11.6347C9.28007 11.3907 9.15803 11.0973 9.15803 10.7545V9.07272C9.15803 8.72998 9.28007 8.43658 9.52414 8.19251C9.7682 7.94844 10.0616 7.82641 10.4043 7.82641H11.1456V7.56214C11.1456 6.66727 10.8339 5.90817 10.2105 5.28483C9.58716 4.66149 8.82804 4.34981 7.93316 4.34981C7.03828 4.34981 6.27919 4.66149 5.65588 5.28483C5.03256 5.90817 4.72091 6.66727 4.72091 7.56214V7.82641H5.46213C5.80486 7.82641 6.09825 7.94844 6.34232 8.19251C6.58639 8.43658 6.70842 8.72998 6.70842 9.07272V10.7545C6.70842 11.0973 6.58639 11.3907 6.34232 11.6347C6.09825 11.8788 5.80486 12.0008 5.46213 12.0008H4.72091ZM4.72091 10.7545H5.46213V9.07272H4.72091V10.7545ZM10.4043 10.7545H11.1456V9.07272H10.4043V10.7545Z" fill="white"/>
</g>
</g>
</g>
</svg>
