<svg width="24" height="24" viewBox="0 0 24 24" fill="none" xmlns="http://www.w3.org/2000/svg">
<mask id="mask0_4170_93363" style="mask-type:alpha" maskUnits="userSpaceOnUse" x="0" y="0" width="24" height="24">
<rect width="24" height="24" fill="#D9D9D9"/>
</mask>
<g mask="url(#mask0_4170_93363)">
<path d="M12.7962 13.7501L11.4577 15.0886C11.3192 15.227 11.2484 15.401 11.2452 15.6107C11.242 15.8203 11.3128 15.9975 11.4577 16.1424C11.6025 16.2873 11.7782 16.3597 11.9846 16.3597C12.191 16.3597 12.3666 16.2873 12.5115 16.1424L15.0211 13.6328C15.2019 13.452 15.2923 13.2411 15.2923 13.0001C15.2923 12.7591 15.2019 12.5482 15.0211 12.3674L12.5115 9.85779C12.3731 9.71934 12.199 9.64851 11.9894 9.64529C11.7798 9.64209 11.6025 9.71292 11.4577 9.85779C11.3128 10.0027 11.2404 10.1783 11.2404 10.3847C11.2404 10.5911 11.3128 10.7667 11.4577 10.9116L12.7962 12.2501H9.09613C8.88333 12.2501 8.70513 12.3219 8.56153 12.4655C8.41794 12.6091 8.34615 12.7873 8.34615 13.0001C8.34615 13.2129 8.41794 13.3911 8.56153 13.5347C8.70513 13.6783 8.88333 13.7501 9.09613 13.7501H12.7962ZM4.3077 19.5001C3.80257 19.5001 3.375 19.3251 3.025 18.9751C2.675 18.6251 2.5 18.1975 2.5 17.6924V6.69244C2.5 6.18732 2.675 5.75977 3.025 5.40977C3.375 5.05977 3.80257 4.88477 4.3077 4.88477H9.63655C9.87757 4.88477 10.1093 4.93157 10.3317 5.02517C10.5542 5.11875 10.7474 5.24759 10.9116 5.41169L12 6.50012H19.6923C20.1974 6.50012 20.625 6.67512 20.975 7.02512C21.325 7.37512 21.5 7.80268 21.5 8.30782V17.6924C21.5 18.1975 21.325 18.6251 20.975 18.9751C20.625 19.3251 20.1974 19.5001 19.6923 19.5001H4.3077ZM3.99998 6.69244V17.6924C3.99998 17.7821 4.02883 17.8558 4.08653 17.9135C4.14423 17.9712 4.21795 18.0001 4.3077 18.0001H19.6923C19.782 18.0001 19.8557 17.9712 19.9134 17.9135C19.9711 17.8558 20 17.7821 20 17.6924V8.30782C20 8.21807 19.9711 8.14434 19.9134 8.08664C19.8557 8.02894 19.782 8.00009 19.6923 8.00009H11.3865L9.77118 6.38474H4.3077C4.21795 6.38474 4.14423 6.41359 4.08653 6.47129C4.02883 6.52897 3.99998 6.60269 3.99998 6.69244ZM3.99998 6.69244V6.38474V18.0001V6.69244Z" fill="#9C9696"/>
</g>
</svg>
