<svg width="24" height="25" viewBox="0 0 24 25" fill="none" xmlns="http://www.w3.org/2000/svg">
<g clip-path="url(#clip0_840_498)">
<path d="M5.69412 20.6311C5.22353 20.6311 4.82353 20.4664 4.49412 20.137C4.16471 19.8076 4 19.4076 4 18.937V6.32522C4 5.85463 4.16471 5.45463 4.49412 5.12522C4.82353 4.79581 5.22353 4.6311 5.69412 4.6311H18.3059C18.7765 4.6311 19.1765 4.79581 19.5059 5.12522C19.8353 5.45463 20 5.85463 20 6.32522V18.937C20 19.4076 19.8353 19.8076 19.5059 20.137C19.1765 20.4664 18.7765 20.6311 18.3059 20.6311H5.69412ZM5.69412 19.2193H18.3059C18.3843 19.2193 18.4511 19.192 18.5064 19.1375C18.5609 19.0822 18.5882 19.0154 18.5882 18.937V6.32522C18.5882 6.24679 18.5609 6.18028 18.5064 6.12569C18.4511 6.07047 18.3843 6.04286 18.3059 6.04286H5.69412C5.61569 6.04286 5.54918 6.07047 5.49459 6.12569C5.43937 6.18028 5.41176 6.24679 5.41176 6.32522V18.937C5.41176 19.0154 5.43937 19.0822 5.49459 19.1375C5.54918 19.192 5.61569 19.2193 5.69412 19.2193Z" fill="#9C9696"/>
<path d="M12.2056 14.9363C12.0685 14.9363 11.9519 14.8892 11.856 14.7948C11.76 14.7004 11.712 14.5859 11.712 14.451V10.8111C11.712 10.6763 11.76 10.5617 11.856 10.4674C11.9519 10.373 12.0685 10.3258 12.2056 10.3258C12.3427 10.3258 12.4593 10.373 12.5553 10.4674C12.6512 10.5617 12.6992 10.6763 12.6992 10.8111V14.451C12.6992 14.5859 12.6512 14.7004 12.5553 14.7948C12.4593 14.8892 12.3427 14.9363 12.2056 14.9363ZM7.43396 14.9363C7.15972 14.9363 6.93019 14.8387 6.74535 14.6436C6.55998 14.4478 6.46729 14.2218 6.46729 13.9657V11.2964C6.46729 11.0403 6.55998 10.8144 6.74535 10.6186C6.93019 10.4234 7.15972 10.3258 7.43396 10.3258H9.84034C9.97747 10.3258 10.0907 10.373 10.1801 10.4674C10.269 10.5617 10.3134 10.6763 10.3134 10.8111C10.3134 10.9459 10.269 11.0605 10.1801 11.1549C10.0907 11.2493 9.97747 11.2964 9.84034 11.2964H7.70133C7.63277 11.2964 7.57107 11.3234 7.51622 11.3773C7.46138 11.4313 7.43396 11.4852 7.43396 11.5391V13.723C7.43396 13.777 7.46138 13.8309 7.51622 13.8848C7.57107 13.9387 7.63277 13.9657 7.70133 13.9657H9.07935C9.14791 13.9657 9.20962 13.9387 9.26446 13.8848C9.3193 13.8309 9.34673 13.777 9.34673 13.723V13.1771C9.34673 13.0423 9.39143 12.9277 9.48083 12.8333C9.56968 12.7389 9.68952 12.6917 9.84034 12.6917C9.97747 12.6917 10.0907 12.7354 10.1801 12.8228C10.269 12.9107 10.3134 13.0288 10.3134 13.1771V13.9657C10.3134 14.2218 10.221 14.4478 10.0361 14.6436C9.85077 14.8387 9.62096 14.9363 9.34673 14.9363H7.43396ZM14.5709 14.9363C14.4337 14.9363 14.3208 14.8892 14.2319 14.7948C14.1426 14.7004 14.0978 14.5859 14.0978 14.451V11.0538C14.0978 10.8516 14.1664 10.6796 14.3035 10.5377C14.4406 10.3964 14.6189 10.3258 14.8382 10.3258H17.039C17.1898 10.3258 17.3096 10.373 17.3984 10.4674C17.4879 10.5617 17.5326 10.6763 17.5326 10.8111C17.5326 10.9459 17.4879 11.0605 17.3984 11.1549C17.3096 11.2493 17.1898 11.2964 17.039 11.2964H15.0645V12.2873H16.2163C16.3671 12.2873 16.4869 12.3345 16.5758 12.4289C16.6652 12.5232 16.7099 12.6378 16.7099 12.7726C16.7099 12.9074 16.6652 13.022 16.5758 13.1164C16.4869 13.2108 16.3671 13.2579 16.2163 13.2579H15.0645V14.451C15.0645 14.5859 15.0198 14.7004 14.9304 14.7948C14.8415 14.8892 14.7217 14.9363 14.5709 14.9363Z" fill="#9C9696"/>
</g>
<defs>
<clipPath id="clip0_840_498">
<rect width="16" height="16" fill="white" transform="translate(4 4.6311)"/>
</clipPath>
</defs>
</svg>
