<svg width="24" height="25" viewBox="0 0 24 25" fill="none" xmlns="http://www.w3.org/2000/svg">
<g clip-path="url(#clip0_840_499)">
<rect x="4" y="4.48901" width="16" height="16" rx="1.7" fill="#EE4136"/>
<path d="M12.2056 14.7942C12.0685 14.7942 11.9519 14.7471 11.856 14.6527C11.76 14.5583 11.712 14.4438 11.712 14.3089V10.669C11.712 10.5342 11.76 10.4196 11.856 10.3253C11.9519 10.2309 12.0685 10.1837 12.2056 10.1837C12.3427 10.1837 12.4593 10.2309 12.5553 10.3253C12.6512 10.4196 12.6992 10.5342 12.6992 10.669V14.3089C12.6992 14.4438 12.6512 14.5583 12.5553 14.6527C12.4593 14.7471 12.3427 14.7942 12.2056 14.7942ZM7.43396 14.7942C7.15972 14.7942 6.93019 14.6966 6.74535 14.5015C6.55998 14.3057 6.46729 14.0798 6.46729 13.8236V11.1544C6.46729 10.8982 6.55998 10.6723 6.74535 10.4765C6.93019 10.2813 7.15972 10.1837 7.43396 10.1837H9.84034C9.97747 10.1837 10.0907 10.2309 10.1801 10.3253C10.269 10.4196 10.3134 10.5342 10.3134 10.669C10.3134 10.8038 10.269 10.9184 10.1801 11.0128C10.0907 11.1072 9.97747 11.1544 9.84034 11.1544H7.70133C7.63277 11.1544 7.57107 11.1813 7.51622 11.2352C7.46138 11.2892 7.43396 11.3431 7.43396 11.397V13.581C7.43396 13.6349 7.46138 13.6888 7.51622 13.7427C7.57107 13.7967 7.63277 13.8236 7.70133 13.8236H9.07935C9.14791 13.8236 9.20962 13.7967 9.26446 13.7427C9.3193 13.6888 9.34673 13.6349 9.34673 13.581V13.035C9.34673 12.9002 9.39143 12.7856 9.48083 12.6912C9.56968 12.5968 9.68952 12.5496 9.84034 12.5496C9.97747 12.5496 10.0907 12.5933 10.1801 12.6807C10.269 12.7686 10.3134 12.8867 10.3134 13.035V13.8236C10.3134 14.0798 10.221 14.3057 10.0361 14.5015C9.85077 14.6966 9.62096 14.7942 9.34673 14.7942H7.43396ZM14.5709 14.7942C14.4337 14.7942 14.3208 14.7471 14.2319 14.6527C14.1426 14.5583 14.0978 14.4438 14.0978 14.3089V10.9117C14.0978 10.7095 14.1664 10.5375 14.3035 10.3956C14.4406 10.2544 14.6189 10.1837 14.8382 10.1837H17.039C17.1898 10.1837 17.3096 10.2309 17.3984 10.3253C17.4879 10.4196 17.5326 10.5342 17.5326 10.669C17.5326 10.8038 17.4879 10.9184 17.3984 11.0128C17.3096 11.1072 17.1898 11.1544 17.039 11.1544H15.0645V12.1452H16.2163C16.3671 12.1452 16.4869 12.1924 16.5758 12.2868C16.6652 12.3811 16.7099 12.4957 16.7099 12.6305C16.7099 12.7653 16.6652 12.8799 16.5758 12.9743C16.4869 13.0687 16.3671 13.1159 16.2163 13.1159H15.0645V14.3089C15.0645 14.4438 15.0198 14.5583 14.9304 14.6527C14.8415 14.7471 14.7217 14.7942 14.5709 14.7942Z" fill="white"/>
</g>
<defs>
<clipPath id="clip0_840_499">
<rect width="16" height="16" fill="white" transform="translate(4 4.48901)"/>
</clipPath>
</defs>
</svg>
