<svg xmlns="http://www.w3.org/2000/svg" width="16" height="16" viewBox="0 0 16 16">
    <g fill="none" fill-rule="evenodd">
        <g>
            <g>
                <g>
                    <path fill="#4285F4" d="M15.68 8.182c0-.567-.05-1.113-.145-1.637H8V9.64h4.305c-.185 1-.749 1.847-1.596 2.415v2.007h2.586c1.512-1.393 2.385-3.444 2.385-5.88z" transform="translate(-886 -738) translate(613 443) translate(273 295)"/>
                    <path fill="#34A853" d="M8 16c2.16 0 3.97-.716 5.295-1.938l-2.586-2.007c-.716.48-1.633.763-2.709.763-2.084 0-3.847-1.407-4.476-3.298H.85v2.073C2.167 14.207 4.873 16 8 16z" transform="translate(-886 -738) translate(613 443) translate(273 295)"/>
                    <path fill="#FBBC05" d="M3.524 9.52c-.16-.48-.251-.993-.251-1.52s.09-1.04.25-1.52V4.407H.852C.309 5.487 0 6.71 0 8c0 1.29.31 2.513.85 3.593L3.525 9.52z" transform="translate(-886 -738) translate(613 443) translate(273 295)"/>
                    <path fill="#EA4335" d="M8 3.182c1.175 0 2.23.403 3.058 1.196l2.295-2.294C11.967.793 10.156 0 8 0 4.873 0 2.167 1.793.85 4.407L3.525 6.48C4.153 4.59 5.916 3.182 8 3.182z" transform="translate(-886 -738) translate(613 443) translate(273 295)"/>
                    <path d="M0 0L16 0 16 16 0 16z" transform="translate(-886 -738) translate(613 443) translate(273 295)"/>
                </g>
            </g>
        </g>
    </g>
</svg>
