<svg xmlns="http://www.w3.org/2000/svg" width="25" height="22" viewBox="0 0 25 22">
    <g fill="#737070" fill-rule="evenodd">
        <g>
            <path d="M4.23 0c1.063 0 1.924.847 1.924 1.89 0 1.045-.861 1.892-1.923 1.892S2.308 2.935 2.308 1.89 3.168 0 4.23 0" transform="translate(1 1) translate(5.983 5.882)"/>
            <path fill-rule="nonzero" d="M0 7.563V6.151c0-.395.23-.754.596-.916.666-.296 1.87-.697 3.507-.697h.027c1.637 0 2.84.4 3.506.697.366.162.597.521.597.916v1.412H0z" transform="translate(1 1) translate(5.983 5.882)"/>
        </g>
        <path stroke="#737070" stroke-linecap="square" d="M10.127-.5c-.416 0-.792.166-1.065.435-.275.27-.445.645-.445 1.058 0 .413.17.788.445 1.06.273.267.65.434 1.065.434.416 0 .792-.167 1.065-.435.276-.27.446-.646.446-1.059 0-.413-.17-.787-.446-1.058-.273-.269-.649-.435-1.065-.435zM10.127 17.427c-.416 0-.792.167-1.065.435-.275.27-.445.645-.445 1.059 0 .413.17.787.445 1.058.273.268.65.435 1.065.435.416 0 .792-.167 1.065-.435.276-.27.446-.645.446-1.058 0-.414-.17-.788-.446-1.06-.273-.267-.649-.434-1.065-.434zM3.29 2.021c-.416 0-.793.166-1.065.435-.276.27-.446.645-.446 1.058 0 .413.17.788.446 1.06.272.267.649.434 1.065.434.415 0 .792-.167 1.064-.435.276-.27.446-.646.446-1.059 0-.413-.17-.787-.446-1.058-.272-.269-.649-.435-1.064-.435zM2.72 14.626c-.416 0-.792.167-1.065.435-.276.27-.446.645-.446 1.058 0 .414.17.788.446 1.06.273.267.649.434 1.065.434.416 0 .792-.167 1.065-.435.275-.27.445-.645.445-1.059 0-.413-.17-.787-.445-1.058-.273-.268-.65-.435-1.065-.435zM1.01 8.744c-.416 0-.792.166-1.065.434-.275.271-.445.646-.445 1.06 0 .412.17.787.445 1.058.273.268.65.434 1.065.434.416 0 .793-.166 1.065-.434.276-.271.446-.646.446-1.059 0-.413-.17-.788-.446-1.059-.272-.268-.649-.434-1.065-.434zM19.814 8.464c-.416 0-.792.166-1.065.434-.276.271-.446.646-.446 1.059 0 .413.17.788.446 1.059.273.268.649.434 1.065.434.416 0 .792-.166 1.065-.434.275-.271.445-.646.445-1.059 0-.413-.17-.788-.445-1.059-.273-.268-.65-.434-1.065-.434zM17.25 14.626c-.416 0-.793.167-1.065.435-.276.27-.446.645-.446 1.058 0 .414.17.788.446 1.06.272.267.649.434 1.065.434.416 0 .792-.167 1.065-.435.275-.27.445-.645.445-1.059 0-.413-.17-.787-.445-1.058-.273-.268-.65-.435-1.065-.435z" transform="translate(1 1)"/>
        <path d="M21.358 2.115V.47c0-.259-.22-.47-.487-.47h-5.853c-.268 0-.488.211-.488.47v4.7c0 .258.22.47.488.47h5.853c.268 0 .487-.212.487-.47V3.523l1.951 1.88V.234l-1.95 1.88z" transform="translate(1 1)"/>
    </g>
</svg>
