<svg xmlns="http://www.w3.org/2000/svg" width="23" height="22" viewBox="0 0 23 22">
    <g fill="#9C9696" fill-rule="evenodd">
        <g>
            <path d="M4.125 0C5.16 0 6 .841 6 1.878c0 1.038-.84 1.879-1.875 1.879-1.035 0-1.875-.841-1.875-1.879C2.25.841 3.09 0 4.125 0" transform="translate(1 1) translate(5.833 5.843)"/>
            <path fill-rule="nonzero" d="M0 7.513V6.111c0-.393.225-.75.582-.911.648-.294 1.822-.692 3.418-.692h.027c1.596 0 2.77.398 3.418.692.357.162.582.518.582.91v1.403H0z" transform="translate(1 1) translate(5.833 5.843)"/>
        </g>
        <path stroke="#9C9696" stroke-linecap="square" d="M9.874-.5c-.41 0-.781.167-1.05.436s-.435.64-.435 1.05c0 .411.166.783.435 1.052.269.27.64.436 1.05.436.41 0 .781-.167 1.05-.436.269-.27.435-.64.435-1.051 0-.41-.166-.782-.435-1.051-.269-.27-.64-.436-1.05-.436zM9.874 17.309c-.41 0-.781.166-1.05.436-.269.269-.435.64-.435 1.05 0 .41.166.782.435 1.051.269.27.64.436 1.05.436.41 0 .781-.166 1.05-.436.269-.269.435-.64.435-1.05 0-.41-.166-.782-.435-1.051-.269-.27-.64-.436-1.05-.436zM3.207 2.004c-.41 0-.781.167-1.05.436-.269.27-.435.64-.435 1.051 0 .41.166.782.435 1.051.269.27.64.436 1.05.436.41 0 .782-.167 1.05-.436.27-.269.435-.64.435-1.05 0-.411-.166-.783-.434-1.052-.27-.27-.64-.436-1.05-.436zM2.652 14.526c-.41 0-.782.167-1.05.436-.27.269-.435.64-.435 1.05 0 .411.166.783.434 1.052.27.27.64.436 1.05.436.41 0 .782-.167 1.051-.436.269-.27.435-.64.435-1.051 0-.41-.166-.782-.435-1.051-.269-.27-.64-.436-1.05-.436zM.985 7.848c-.41 0-.781.166-1.05.436-.269.269-.435.64-.435 1.05 0 .41.166.782.435 1.052.269.269.64.435 1.05.435.41 0 .782-.166 1.05-.435.269-.27.435-.641.435-1.051 0-.41-.166-.782-.435-1.051-.268-.27-.64-.436-1.05-.436zM19.318 7.848c-.41 0-.781.166-1.05.436-.268.269-.435.64-.435 1.05 0 .41.167.782.435 1.052.269.269.64.435 1.05.435.41 0 .782-.166 1.05-.435.27-.27.436-.641.436-1.051 0-.41-.167-.782-.435-1.051-.27-.27-.64-.436-1.05-.436zM16.818 14.526c-.41 0-.781.167-1.05.436-.268.269-.435.64-.435 1.05 0 .411.167.783.435 1.052.269.27.64.436 1.05.436.41 0 .782-.167 1.05-.436.27-.27.436-.64.436-1.051 0-.41-.167-.782-.435-1.051-.27-.27-.64-.436-1.05-.436z" transform="translate(1 1)"/>
        <path fill-rule="nonzero" d="M14.833 0c-.366 0-.666.3-.666.668v4.007c0 .367.3.668.666.668H19.5l1.333 1.335V.668c0-.367-.3-.668-.666-.668z" transform="translate(1 1)"/>
    </g>
</svg>
