<svg xmlns="http://www.w3.org/2000/svg" width="17" height="16" viewBox="0 0 17 16">
    <g fill="#FFF" fill-rule="evenodd">
        <g>
            <path d="M3.172 0c.796 0 1.442.688 1.442 1.536 0 .849-.646 1.536-1.442 1.536-.796 0-1.442-.687-1.442-1.536C1.73.688 2.376 0 3.172 0" transform="translate(4.595 4.5)"/>
            <path fill-rule="nonzero" d="M0 6.145V4.998c0-.32.173-.613.447-.745.5-.24 1.402-.566 2.629-.566h.02c1.228 0 2.13.326 2.63.566.273.132.446.424.446.745v1.147H0z" transform="translate(4.595 4.5)"/>
        </g>
        <path stroke="#FFF" stroke-linecap="square" d="M7.807-.5c-.343 0-.654.14-.88.368-.223.226-.361.538-.361.882s.138.656.361.882c.226.228.537.368.88.368.343 0 .655-.14.88-.368.223-.226.361-.538.361-.882S8.91.094 8.687-.132C8.462-.36 8.15-.5 7.807-.5zM7.807 14c-.343 0-.654.14-.88.368-.223.226-.361.538-.361.882s.138.656.361.882c.226.228.537.368.88.368.343 0 .655-.14.88-.368.223-.226.361-.538.361-.882s-.138-.656-.361-.882C8.462 14.14 8.15 14 7.807 14zM2.372 1.5c-.343 0-.655.14-.88.368-.223.226-.361.538-.361.882s.138.656.361.882c.225.228.537.368.88.368.343 0 .654-.14.88-.368.222-.226.36-.538.36-.882s-.138-.656-.36-.882c-.226-.228-.537-.368-.88-.368zM12.748 1.5c-.343 0-.654.14-.88.368-.222.226-.36.538-.36.882s.138.656.36.882c.226.228.537.368.88.368.343 0 .655-.14.88-.368.223-.226.361-.538.361-.882s-.138-.656-.361-.882c-.225-.228-.537-.368-.88-.368zM1.878 11.5c-.344 0-.655.14-.88.368-.223.226-.362.538-.362.882s.139.656.362.882c.225.228.536.368.88.368.343 0 .654-.14.88-.368.222-.226.36-.538.36-.882s-.138-.656-.36-.882c-.226-.228-.537-.368-.88-.368zM.89 7c-.344 0-.655.14-.88.368-.223.226-.362.538-.362.882s.139.656.362.882c.225.228.536.368.88.368.343 0 .654-.14.88-.368.222-.226.36-.538.36-.882s-.138-.656-.36-.882C1.543 7.14 1.232 7 .89 7zM15.219 6.5c-.343 0-.655.14-.88.368-.223.226-.361.538-.361.882s.138.656.361.882c.225.228.537.368.88.368.343 0 .654-.14.88-.368.223-.226.361-.538.361-.882s-.138-.656-.362-.882c-.225-.228-.536-.368-.88-.368zM13.242 11.5c-.343 0-.654.14-.88.368-.222.226-.36.538-.36.882s.138.656.36.882c.226.228.537.368.88.368.344 0 .655-.14.88-.368.223-.226.362-.538.362-.882s-.139-.656-.362-.882c-.225-.228-.536-.368-.88-.368z"/>
    </g>
</svg>
