<?xml version="1.0" encoding="UTF-8"?>
<svg width="28px" height="26px" viewBox="0 0 28 26" version="1.1" xmlns="http://www.w3.org/2000/svg" xmlns:xlink="http://www.w3.org/1999/xlink">
    <!-- Generator: Sketch 57.1 (83088) - https://sketch.com -->
    <title>Group Copy 4</title>
    <desc>Created with Sketch.</desc>
    <g id="Page-1" stroke="none" stroke-width="1" fill="none" fill-rule="evenodd">
        <g id="Group-Copy-4" transform="translate(1.000000, 1.000000)" fill="#EE4136">
            <g id="Group-13" transform="translate(6.923077, 7.058824)">
                <path d="M4.8956044,0 C6.12451236,0 7.12087912,1.01590336 7.12087912,2.26890756 C7.12087912,3.52191176 6.12451236,4.53781513 4.8956044,4.53781513 C3.66669643,4.53781513 2.67032967,3.52191176 2.67032967,2.26890756 C2.67032967,1.01590336 3.66669643,0 4.8956044,0" id="Fill-1"></path>
                <path d="M-1.8562929e-13,9.07563025 L-1.8562929e-13,7.38151261 C-1.8562929e-13,6.90776471 0.267032967,6.47697479 0.690131868,6.28154622 C1.46037363,5.92638655 2.8530989,5.44537815 4.74725275,5.44537815 C4.75268242,5.44537815 4.75810745,5.4453825 4.76352786,5.44539117 L4.7792967,5.44537815 L4.7792967,5.44537815 C6.67345055,5.44537815 8.06617582,5.92638655 8.83641758,6.28154622 C9.25951648,6.47697479 9.52654945,6.90776471 9.52654945,7.38151261 L9.52654945,9.07563025 L3.56043956,9.07563025 L-1.8562929e-13,9.07563025 Z" id="Combined-Shape" fill-rule="nonzero"></path>
            </g>
            <path d="M11.7185672,-0.5 C12.6422585,-0.5 13.3876839,0.260041599 13.3876839,1.19204054 C13.3876839,2.12403947 12.6422585,2.88408107 11.7185672,2.88408107 C10.794876,2.88408107 10.0494505,2.12403947 10.0494505,1.19204054 C10.0494505,0.260041599 10.794876,-0.5 11.7185672,-0.5 Z" id="Stroke-3-Copy-2" stroke="#EE4136" stroke-linecap="square"></path>
            <path d="M11.7185672,21.012605 C12.6422585,21.012605 13.3876839,21.7726466 13.3876839,22.7046456 C13.3876839,23.6366445 12.6422585,24.3966861 11.7185672,24.3966861 C10.794876,24.3966861 10.0494505,23.6366445 10.0494505,22.7046456 C10.0494505,21.7726466 10.794876,21.012605 11.7185672,21.012605 Z" id="Stroke-3-Copy-3" stroke="#EE4136" stroke-linecap="square"></path>
            <path d="M3.80647924,2.52521008 C4.73017046,2.52521008 5.47559583,3.28525165 5.47559583,4.21725054 C5.47559583,5.14924943 4.73017046,5.90929099 3.80647924,5.90929099 C2.88278801,5.90929099 2.13736264,5.14924943 2.13736264,4.21725054 C2.13736264,3.28525165 2.88278801,2.52521008 3.80647924,2.52521008 Z" id="Stroke-7-Copy-6" stroke="#EE4136" stroke-linecap="square"></path>
            <path d="M3.14713858,17.6512605 C4.0708298,17.6512605 4.81625517,18.4113021 4.81625517,19.343301 C4.81625517,20.2752998 4.0708298,21.0353414 3.14713858,21.0353414 C2.22344736,21.0353414 1.47802198,20.2752998 1.47802198,19.343301 C1.47802198,18.4113021 2.22344736,17.6512605 3.14713858,17.6512605 Z" id="Stroke-7-Copy-7" stroke="#EE4136" stroke-linecap="square"></path>
            <path d="M1.1691166,10.592437 C2.09280782,10.592437 2.8382332,11.3524785 2.8382332,12.2844774 C2.8382332,13.2164763 2.09280782,13.9765179 1.1691166,13.9765179 C0.245425378,13.9765179 -0.5,13.2164763 -0.5,12.2844774 C-0.5,11.3524785 0.245425378,10.592437 1.1691166,10.592437 Z" id="Stroke-7-Copy-8" stroke="#EE4136" stroke-linecap="square"></path>
            <path d="M22.9273584,10.2563025 C23.8510496,10.2563025 24.596475,11.0163441 24.596475,11.948343 C24.596475,12.8803419 23.8510496,13.6403834 22.9273584,13.6403834 C22.0036671,13.6403834 21.2582418,12.8803419 21.2582418,11.948343 C21.2582418,11.0163441 22.0036671,10.2563025 22.9273584,10.2563025 Z" id="Stroke-7-Copy-9" stroke="#EE4136" stroke-linecap="square"></path>
            <path d="M19.9603254,17.6512605 C20.8840166,17.6512605 21.629442,18.4113021 21.629442,19.343301 C21.629442,20.2752998 20.8840166,21.0353414 19.9603254,21.0353414 C19.0366342,21.0353414 18.2912088,20.2752998 18.2912088,19.343301 C18.2912088,18.4113021 19.0366342,17.6512605 19.9603254,17.6512605 Z" id="Stroke-7-Copy-10" stroke="#EE4136" stroke-linecap="square"></path>
            <path d="M24.7144955,2.53752121 L24.7144955,0.563819465 C24.7144955,0.253551949 24.4607347,7.26085858e-13 24.1505456,7.26085858e-13 L17.3774706,7.26085858e-13 C17.0672815,7.26085858e-13 16.8131868,0.253551949 16.8131868,0.563819465 L16.8131868,6.20301498 C16.8131868,6.5132825 17.0672815,6.76716807 17.3774706,6.76716807 L24.1505456,6.76716807 C24.4607347,6.76716807 24.7144955,6.5132825 24.7144955,6.20301498 L24.7144955,4.22931323 L26.9722985,6.48492471 L26.9722985,0.281576112 L24.7144955,2.53752121 Z" id="Fill-10-Copy-6"></path>
        </g>
    </g>
</svg>