<svg xmlns="http://www.w3.org/2000/svg" width="23" height="22" viewBox="0 0 23 22">
    <g fill="#737070" fill-rule="evenodd">
        <path d="M15.746 4.19c.248 1.412 1.008 2.79 2.165 3.922l1.437-.446c.18-.055.386-.01.537.103.49.367 1.049.684 1.66.93.271.109.418.374.328.595l-.568 1.395c-.09.222-.38.311-.653.202-4.606-1.848-7.105-6.38-5.582-10.123.09-.222.383-.31.653-.202l1.717.689c.272.109.418.374.328.595-.202.496-.3 1.016-.3 1.536-.001.159-.105.3-.284.356l-1.438.448z" transform="translate(1 1)"/>
        <g>
            <path d="M4.296 0C5.375 0 6.25.868 6.25 1.94c0 1.07-.874 1.939-1.953 1.939-1.078 0-1.953-.869-1.953-1.94C2.343.87 3.218 0 4.296 0" transform="translate(1 1) translate(6.076 5.172)"/>
            <path fill-rule="nonzero" d="M0 7.758V6.309c0-.404.234-.773.606-.94.676-.303 1.898-.714 3.56-.714h.028c1.663 0 2.885.41 3.56.714.372.167.606.536.606.94v1.449H0z" transform="translate(1 1) translate(6.076 5.172)"/>
        </g>
        <path stroke="#737070" stroke-linecap="square" d="M10.284 17.026c-.42 0-.802.17-1.078.444-.277.275-.448.656-.448 1.075 0 .42.171.8.448 1.075.276.274.657.444 1.078.444.42 0 .802-.17 1.078-.444.277-.275.448-.655.448-1.075 0-.42-.171-.8-.448-1.075-.276-.274-.657-.444-1.078-.444zM10.284-.5c-.42 0-.802.17-1.078.444-.277.275-.448.655-.448 1.075 0 .42.171.8.448 1.075.276.274.657.444 1.078.444.42 0 .802-.17 1.078-.444.277-.275.448-.655.448-1.075 0-.42-.171-.8-.448-1.075-.276-.274-.657-.444-1.078-.444zM3.34 2.086c-.42 0-.801.17-1.077.444-.277.275-.448.655-.448 1.075 0 .42.17.8.448 1.075.276.274.657.444 1.077.444.421 0 .802-.17 1.078-.444.277-.275.448-.656.448-1.075 0-.42-.17-.8-.448-1.075-.276-.274-.657-.444-1.078-.444zM3.34 14.728c-.42 0-.801.17-1.077.444-.277.275-.448.655-.448 1.075 0 .42.17.8.448 1.075.276.274.657.444 1.077.444.421 0 .802-.17 1.078-.444.277-.275.448-.656.448-1.075 0-.42-.17-.8-.448-1.075-.276-.274-.657-.444-1.078-.444zM1.026 7.832c-.42 0-.802.17-1.078.444-.277.275-.448.656-.448 1.075 0 .42.171.8.448 1.075.276.274.657.444 1.078.444.42 0 .802-.17 1.078-.444.277-.275.448-.655.448-1.075 0-.42-.171-.8-.448-1.075-.276-.274-.657-.444-1.078-.444zM17.625 14.728c-.42 0-.801.17-1.077.444-.278.275-.449.655-.449 1.075 0 .42.171.8.449 1.075.276.274.657.444 1.077.444.421 0 .802-.17 1.078-.444.277-.275.448-.656.448-1.075 0-.42-.17-.8-.448-1.075-.276-.274-.657-.444-1.078-.444z" transform="translate(1 1)"/>
    </g>
</svg>
