<?xml version="1.0" encoding="UTF-8"?>
<svg width="27px" height="26px" viewBox="0 0 27 26" version="1.1" xmlns="http://www.w3.org/2000/svg" xmlns:xlink="http://www.w3.org/1999/xlink">
    <!-- Generator: Sketch 57.1 (83088) - https://sketch.com -->
    <title>Group Audio Copy 2</title>
    <desc>Created with Sketch.</desc>
    <g id="Page-1" stroke="none" stroke-width="1" fill="none" fill-rule="evenodd">
        <g id="Group-Audio-Copy-2" transform="translate(1.000000, 1.000000)" fill="#EE4136">
            <path d="M18.0879001,6.24098991 C18.9929791,7.7023547 20.4438476,8.90037589 22.218009,9.64876353 L23.5885808,8.51771632 C23.7599035,8.37665743 24.0065731,8.33634069 24.2223555,8.39405979 C24.9228865,8.58698944 25.6762141,8.69278277 26.4541626,8.69562283 C26.800959,8.69688888 27.0798516,8.92717805 27.0808877,9.21312658 L27.0874244,11.0164056 C27.0884586,11.3026118 26.8112264,11.5306131 26.4644301,11.5293523 C20.5970111,11.5079268 15.8276333,7.56972325 15.8101011,2.73178322 C15.8090679,2.44583469 16.0894234,2.21758717 16.4330954,2.21883667 L18.6200993,2.22682592 C18.9668956,2.22809197 19.2457883,2.45838114 19.2468244,2.74432967 C19.2491485,3.38578179 19.3763697,4.00708123 19.6096581,4.58497455 C19.6790365,4.76297727 19.6297853,4.9663077 19.4584626,5.10736659 L18.0879001,6.24098991 Z" id="Fill-1-Copy-21" transform="translate(21.448763, 6.874094) rotate(22.000000) translate(-21.448763, -6.874094) "></path>
            <g id="Group-13-Copy-9" transform="translate(7.164983, 6.206061)">
                <path d="M5.06666667,0 C6.33851515,0 7.36969697,1.04203636 7.36969697,2.32727273 C7.36969697,3.61250909 6.33851515,4.65454545 5.06666667,4.65454545 C3.79481818,4.65454545 2.76363636,3.61250909 2.76363636,2.32727273 C2.76363636,1.04203636 3.79481818,0 5.06666667,0" id="Fill-1"></path>
                <path d="M-1.8562929e-13,9.30909091 L-1.8562929e-13,7.57139394 C-1.8562929e-13,7.08545455 0.276363636,6.64358788 0.714246465,6.44313212 C1.51140202,6.07883636 2.95279192,5.58545455 4.91313131,5.58545455 C4.91856396,5.58545455 4.92399212,5.58545871 4.92941581,5.58546703 L4.94629495,5.58545455 L4.94629495,5.58545455 C6.90663434,5.58545455 8.34802424,6.07883636 9.1451798,6.44313212 C9.58306263,6.64358788 9.85942626,7.08545455 9.85942626,7.57139394 L9.85942626,9.30909091 L3.68484848,9.30909091 L-1.8562929e-13,9.30909091 Z" id="Combined-Shape" fill-rule="nonzero"></path>
            </g>
            <path d="M12.1280376,20.5316498 C13.073261,20.5316498 13.8380055,21.3044443 13.8380055,22.2543543 C13.8380055,23.2042643 13.073261,23.9770588 12.1280376,23.9770588 C11.1828141,23.9770588 10.4180696,23.2042643 10.4180696,22.2543543 C10.4180696,21.3044443 11.1828141,20.5316498 12.1280376,20.5316498 Z" id="Stroke-3-Copy-6" stroke="#EE4136" stroke-linecap="square"></path>
            <path d="M12.1280376,-0.5 C13.073261,-0.5 13.8380055,0.272794437 13.8380055,1.22270447 C13.8380055,2.17261451 13.073261,2.94540895 12.1280376,2.94540895 C11.1828141,2.94540895 10.4180696,2.17261451 10.4180696,1.22270447 C10.4180696,0.272794437 11.1828141,-0.5 12.1280376,-0.5 Z" id="Stroke-3-Copy-7" stroke="#EE4136" stroke-linecap="square"></path>
            <path d="M3.93948528,2.6030303 C4.88470871,2.6030303 5.64945317,3.3758247 5.64945317,4.32573469 C5.64945317,5.27564468 4.88470871,6.04843908 3.93948528,6.04843908 C2.99426185,6.04843908 2.2295174,5.27564468 2.2295174,4.32573469 C2.2295174,3.3758247 2.99426185,2.6030303 3.93948528,2.6030303 Z" id="Stroke-7-Copy-18" stroke="#EE4136" stroke-linecap="square"></path>
            <path d="M3.93948528,17.7734007 C4.88470871,17.7734007 5.64945317,18.5461951 5.64945317,19.4961051 C5.64945317,20.4460151 4.88470871,21.2188095 3.93948528,21.2188095 C2.99426185,21.2188095 2.2295174,20.4460151 2.2295174,19.4961051 C2.2295174,18.5461951 2.99426185,17.7734007 3.93948528,17.7734007 Z" id="Stroke-7-Copy-19" stroke="#EE4136" stroke-linecap="square"></path>
            <path d="M1.20996788,9.4986532 C2.15519131,9.4986532 2.91993577,10.2714476 2.91993577,11.2213576 C2.91993577,12.1712676 2.15519131,12.944062 1.20996788,12.944062 C0.264744458,12.944062 -0.5,12.1712676 -0.5,11.2213576 C-0.5,10.2714476 0.264744458,9.4986532 1.20996788,9.4986532 Z" id="Stroke-7-Copy-20" stroke="#EE4136" stroke-linecap="square"></path>
            <path d="M20.7857255,17.7734007 C21.7309489,17.7734007 22.4956933,18.5461951 22.4956933,19.4961051 C22.4956933,20.4460151 21.7309489,21.2188095 20.7857255,21.2188095 C19.840502,21.2188095 19.0757576,20.4460151 19.0757576,19.4961051 C19.0757576,18.5461951 19.840502,17.7734007 20.7857255,17.7734007 Z" id="Stroke-7-Copy-22" stroke="#EE4136" stroke-linecap="square"></path>
        </g>
    </g>
</svg>