<svg xmlns="http://www.w3.org/2000/svg" width="17" height="20" viewBox="0 0 17 20">
    <path fill="#9C9696" fill-rule="nonzero" d="M2.144 20h9.29a2.858 2.858 0 0 0 2.859-2.857V13.55l-.715.41a2.145 2.145 0 0 1-.714.258v2.925c0 .789-.64 1.428-1.43 1.428H8.218v-7.857h3.574v1.393a.714.714 0 0 0 1.072.618l3.78-2.182a.714.714 0 0 0 0-1.236l-3.78-2.164a.715.715 0 0 0-1.072.618v1.525H8.218V4.829c0-.55-.315-1.052-.81-1.29L3.215 1.53a2.299 2.299 0 0 0-.268-.1h8.486c.79 0 1.43.64 1.43 1.428v2.775c.251.043.493.13.714.257l.715.411V2.857A2.858 2.858 0 0 0 11.434 0H2.86A2.858 2.858 0 0 0 0 2.857v15C0 19.041.96 20 2.144 20z"/>
</svg>
