<svg xmlns="http://www.w3.org/2000/svg" width="20" height="20" viewBox="0 0 20 20">
    <g fill="none" fill-rule="evenodd">
        <path fill="#9C9696" d="M17.168 10.98c.04-.32.08-.64.08-.98 0-.34-.02-.66-.08-.98l2.12-1.66a.52.52 0 0 0 .12-.64l-2-3.46c-.12-.22-.38-.3-.62-.22l-2.48 1c-.52-.4-1.08-.74-1.7-.98l-.38-2.64c-.02-.24-.24-.42-.48-.42h-4c-.24 0-.46.18-.5.42l-.38 2.64c-.6.26-1.18.58-1.7.98l-2.48-1c-.22-.08-.48 0-.62.22l-2 3.46c-.12.22-.08.48.12.64l2.12 1.66c-.04.32-.06.64-.06.98 0 .34.02.66.06.98l-2.12 1.66a.52.52 0 0 0-.12.64l2 3.46c.12.22.38.3.62.22l2.48-1c.52.4 1.08.74 1.7.98l.38 2.64c.04.24.24.42.5.42h4c.24 0 .46-.18.5-.42l.38-2.64c.6-.26 1.18-.58 1.68-.98l2.5 1c.22.08.48 0 .62-.22l2-3.46a.52.52 0 0 0-.12-.64l-2.14-1.66z"/>
        <path fill="#FFF" d="M9.748 13c-1.66 0-3-1.34-3-3s1.34-3 3-3 3 1.34 3 3-1.34 3-3 3z"/>
    </g>
</svg>
