<svg xmlns="http://www.w3.org/2000/svg" width="62" height="62" viewBox="0 0 62 62">
    <defs>
        <filter id="a" width="118.8%" height="117.5%" x="-9.4%" y="-8.8%" filterUnits="objectBoundingBox">
            <feOffset dy="4" in="SourceAlpha" result="shadowOffsetOuter1"/>
            <feGaussianBlur in="shadowOffsetOuter1" result="shadowBlurOuter1" stdDeviation="4.5"/>
            <feColorMatrix in="shadowBlurOuter1" result="shadowMatrixOuter1" values="0 0 0 0 0.156051857 0 0 0 0 0.150937352 0 0 0 0 0.150937352 0 0 0 0.5 0"/>
            <feMerge>
                <feMergeNode in="shadowMatrixOuter1"/>
                <feMergeNode in="SourceGraphic"/>
            </feMerge>
        </filter>
    </defs>
    <g fill="none" fill-rule="evenodd" filter="url(#a)" transform="translate(9 5)">
        <rect width="44" height="44" fill="#60A23E" rx="3"/>
        <path fill="#FFF" d="M20.599 23.54a13.421 13.421 0 0 1-2.472-3.389l1.978-1.979a.908.908 0 0 0 .217-.93 10.46 10.46 0 0 1-.52-2.877.9.9 0 0 0-.901-.89h-3.154a.899.899 0 0 0-.905.906 15.261 15.261 0 0 0 4.482 10.434 15.261 15.261 0 0 0 10.435 4.483.89.89 0 0 0 .64-.265.88.88 0 0 0 .261-.637v-3.154a.9.9 0 0 0-.888-.901 10.458 10.458 0 0 1-2.877-.52.909.909 0 0 0-.931.217l-1.978 1.978a13.547 13.547 0 0 1-3.387-2.475"/>
    </g>
</svg>
