<svg xmlns="http://www.w3.org/2000/svg" xmlns:xlink="http://www.w3.org/1999/xlink" width="16" height="16" viewBox="0 0 16 16">
    <defs>
        <path id="prefix__a" d="M.8 0C.36 0 0 .36 0 .8c0 7.511 6.088 13.6 13.6 13.6.44 0 .8-.36.8-.8v-2.792c0-.44-.36-.8-.8-.8-.993 0-1.96-.16-2.857-.455-.279-.097-.599-.025-.814.19l-1.761 1.761c-2.264-1.16-4.12-3.008-5.272-5.272l1.76-1.76c.224-.223.288-.536.2-.816C4.56 2.76 4.4 1.8 4.4.8c0-.44-.36-.8-.8-.8H.8z"/>
    </defs>
    <g fill="none" fill-rule="evenodd">
        <g transform="translate(0 1.6)">
            <mask id="prefix__b" fill="#fff">
                <use xlink:href="#prefix__a"/>
            </mask>
            <path fill="#9C9696" d="M-4 18.4L18.4 18.4 18.4 -4 -4 -4z" mask="url(#prefix__b)"/>
        </g>
        <path fill="#9C9696" d="M9.021 5.918L9.021 2.553 8 2.553 8 7.659 13.107 7.659 13.107 6.638 9.741 6.638 15.66 0.72 14.939 0z"/>
    </g>
</svg>
