<svg width="13" height="14" viewBox="0 0 13 14" fill="none" xmlns="http://www.w3.org/2000/svg">
<path d="M10.8889 1.4H10.2083V0H8.84722V1.4H3.40278V0H2.04167V1.4H1.36111C0.6125 1.4 0 2.03 0 2.8V12.6C0 13.37 0.6125 14 1.36111 14H10.8889C11.6375 14 12.25 13.37 12.25 12.6V2.8C12.25 2.03 11.6375 1.4 10.8889 1.4ZM10.8889 12.6H1.36111V5.6H10.8889V12.6ZM1.36111 4.2V2.8H10.8889V4.2H1.36111ZM3.55931 10.787L4.28069 11.529L5.94125 9.821L7.60181 11.529L8.32319 10.787L6.66264 9.079L8.32319 7.371L7.60181 6.629L5.94125 8.337L4.28069 6.629L3.55931 7.371L5.21986 9.079L3.55931 10.787Z" fill="#EEBA36"/>
</svg>
