<svg xmlns="http://www.w3.org/2000/svg" width="16" height="16" viewBox="0 0 16 16">
    <g fill="#9C9696" fill-rule="evenodd">
        <path d="M8 0c2.297 0 4.16 1.863 4.16 4.16S10.297 8.32 8 8.32 3.84 6.457 3.84 4.16 5.703 0 8 0M16 12.16L14.08 12.16 14.08 10.24 12.16 10.24 12.16 12.16 10.24 12.16 10.24 14.08 12.16 14.08 12.16 16 14.08 16 14.08 14.08 16 14.08zM7.944 13.12c0-1.072.376-2.052.991-2.851-.323-.017-.65-.029-.99-.029-3.17 0-5.501.763-6.79 1.327C.447 11.877 0 12.56 0 13.312V16h8.96c-.629-.804-1.016-1.794-1.016-2.88"/>
    </g>
</svg>
