<svg width="42" height="42" viewBox="0 0 42 42" fill="none" xmlns="http://www.w3.org/2000/svg">
<circle cx="21" cy="21" r="21" fill="#EE4136"/>
<path d="M30.7759 15.7321C30.4458 15.5835 30.0794 15.5351 29.7222 15.5931C29.3649 15.651 29.0325 15.8127 28.7664 16.0579L26.431 18.2303V16.6553C26.431 15.7911 26.0877 14.9623 25.4766 14.3512C24.8655 13.74 24.0367 13.3967 23.1724 13.3967H13.3966C12.5323 13.3967 11.7035 13.74 11.0924 14.3512C10.4813 14.9623 10.1379 15.7911 10.1379 16.6553V25.345C10.1379 26.2092 10.4813 27.0381 11.0924 27.6492C11.7035 28.2603 12.5323 28.6036 13.3966 28.6036H23.1724C24.0367 28.6036 24.8655 28.2603 25.4766 27.6492C26.0877 27.0381 26.431 26.2092 26.431 25.345V23.77L28.7772 25.9424C29.1226 26.2551 29.5714 26.4291 30.0372 26.4312C30.2958 26.4306 30.5513 26.3751 30.7867 26.2683C31.1071 26.1387 31.3816 25.9165 31.575 25.6302C31.7685 25.3438 31.8722 25.0063 31.8729 24.6607V17.3397C31.8714 16.9928 31.766 16.6544 31.5705 16.3679C31.375 16.0814 31.0983 15.86 30.7759 15.7321ZM24.2586 25.345C24.2586 25.6331 24.1442 25.9094 23.9405 26.1131C23.7368 26.3168 23.4605 26.4312 23.1724 26.4312H13.3966C13.1085 26.4312 12.8322 26.3168 12.6285 26.1131C12.4248 25.9094 12.3104 25.6331 12.3104 25.345V16.6553C12.3104 16.3673 12.4248 16.091 12.6285 15.8873C12.8322 15.6836 13.1085 15.5691 13.3966 15.5691H23.1724C23.4605 15.5691 23.7368 15.6836 23.9405 15.8873C24.1442 16.091 24.2586 16.3673 24.2586 16.6553V25.345ZM29.6897 23.8243L26.6374 21.0002L29.6897 18.176V23.8243Z" fill="white"/>
</svg>
