<svg width="14" height="14" viewBox="0 0 14 14" fill="none" xmlns="http://www.w3.org/2000/svg">
<path d="M13.9478 12.05L11.1353 5.2375C11.0834 5.11169 10.9953 5.00413 10.8821 4.92845C10.769 4.85277 10.636 4.81237 10.4998 4.81237C10.3637 4.81237 10.2307 4.85277 10.1176 4.92845C10.0044 5.00413 9.91632 5.11169 9.86438 5.2375L7.05188 12.05C7.0169 12.1335 6.99878 12.2232 6.99855 12.3137C6.99833 12.4043 7.01599 12.494 7.05055 12.5778C7.0851 12.6615 7.13585 12.7375 7.19989 12.8016C7.26393 12.8656 7.33999 12.9164 7.4237 12.951C7.50742 12.9855 7.59714 13.0032 7.68771 13.003C7.77828 13.0028 7.86791 12.9846 7.95146 12.9497C8.035 12.9147 8.11082 12.8636 8.17455 12.7992C8.23828 12.7349 8.28866 12.6586 8.32281 12.5747L8.89563 11.1875H12.1041L12.6769 12.5747C12.7288 12.7006 12.8169 12.8082 12.9301 12.8839C13.0432 12.9596 13.1763 13 13.3125 13C13.4255 12.9999 13.5367 12.972 13.6363 12.9188C13.7359 12.8655 13.8209 12.7885 13.8837 12.6946C13.9464 12.6006 13.9851 12.4927 13.9962 12.3803C14.0074 12.2678 13.9906 12.1544 13.9475 12.05H13.9478ZM9.46344 9.8125L10.5 7.30156L11.5366 9.8125H9.46344ZM7.37 9.21625C7.47681 9.06871 7.52071 8.88482 7.49205 8.70495C7.4634 8.52508 7.36455 8.36393 7.21719 8.25688C7.21094 8.25219 6.74844 7.90906 6.07688 7.17156C7.31594 5.49406 8.01781 3.58562 8.30406 2.6875H9.3125C9.49484 2.6875 9.6697 2.61507 9.79864 2.48614C9.92757 2.3572 10 2.18234 10 2C10 1.81766 9.92757 1.6428 9.79864 1.51386C9.6697 1.38493 9.49484 1.3125 9.3125 1.3125H5.6875V0.6875C5.6875 0.505164 5.61507 0.330295 5.48614 0.201364C5.3572 0.0724328 5.18234 0 5 0C4.81766 0 4.6428 0.0724328 4.51386 0.201364C4.38493 0.330295 4.3125 0.505164 4.3125 0.6875V1.3125H0.6875C0.505164 1.3125 0.330295 1.38493 0.201364 1.51386C0.0724328 1.6428 0 1.81766 0 2C0 2.18234 0.0724328 2.3572 0.201364 2.48614C0.330295 2.61507 0.505164 2.6875 0.6875 2.6875H6.85156C6.55406 3.52969 6.00625 4.85938 5.17063 6.07375C4.18906 4.77125 3.82437 3.92844 3.82156 3.92156C3.7497 3.7555 3.61527 3.62445 3.44743 3.55686C3.27958 3.48926 3.09185 3.49057 2.92496 3.56048C2.75806 3.6304 2.62546 3.76329 2.55591 3.93034C2.48636 4.09738 2.48547 4.28511 2.55344 4.45281C2.57156 4.49594 3.00813 5.5225 4.20531 7.07563C4.23406 7.11281 4.2625 7.14906 4.29094 7.18531C3.06469 8.57125 1.86156 9.43094 1.35812 9.70844C1.19804 9.79575 1.0792 9.94308 1.02775 10.118C0.97629 10.293 0.996436 10.4812 1.08375 10.6412C1.17106 10.8013 1.3184 10.9202 1.49333 10.9716C1.66827 11.0231 1.85648 11.0029 2.01656 10.9156C2.08406 10.8787 3.53531 10.0753 5.1925 8.24094C5.89625 8.99344 6.38 9.34844 6.40906 9.36906C6.48219 9.42218 6.56506 9.46035 6.65296 9.4814C6.74085 9.50245 6.83203 9.50597 6.92128 9.49174C7.01053 9.47752 7.0961 9.44584 7.1731 9.39852C7.2501 9.35119 7.31701 9.28915 7.37 9.21594V9.21625Z" fill="#737070"/>
</svg>
