<svg width="16" height="16" viewBox="0 0 16 16" fill="none" xmlns="http://www.w3.org/2000/svg">
<mask id="mask0_4684_97917" style="mask-type:alpha" maskUnits="userSpaceOnUse" x="0" y="0" width="16" height="16">
<rect width="16" height="16" transform="matrix(-1 0 0 1 16 0)" fill="#D9D9D9"/>
</mask>
<g mask="url(#mask0_4684_97917)">
<path d="M9.79008 12.3015C9.93003 12.1616 10 11.9835 10 11.7672C10 11.5509 9.93003 11.3728 9.79008 11.2328L6.81298 8.25573L9.79008 5.27863C9.93003 5.13868 10 4.96056 10 4.74427C10 4.52799 9.93003 4.34987 9.79008 4.20992C9.65013 4.06997 9.47201 4 9.25573 4C9.03944 4 8.86132 4.06997 8.72137 4.20992L5.20992 7.72137C5.13359 7.79771 5.07952 7.88041 5.04771 7.96947C5.0159 8.05852 5 8.15394 5 8.25573C5 8.35751 5.0159 8.45293 5.04771 8.54199C5.07952 8.63104 5.13359 8.71374 5.20992 8.79008L8.72137 12.3015C8.86132 12.4415 9.03944 12.5115 9.25573 12.5115C9.47201 12.5115 9.65013 12.4415 9.79008 12.3015Z" fill="#9C9696"/>
</g>
</svg>
