<svg width="5" height="8" viewBox="0 0 5 8" fill="none" xmlns="http://www.w3.org/2000/svg">
<path d="M1.07057 7.08984C0.963628 6.9829 0.910156 6.84679 0.910156 6.68151C0.910156 6.51623 0.963628 6.38012 1.07057 6.27318L3.34557 3.99818L1.07057 1.72318C0.963628 1.61623 0.910156 1.48012 0.910156 1.31484C0.910156 1.14957 0.963628 1.01345 1.07057 0.90651C1.17752 0.799566 1.31363 0.746094 1.47891 0.746094C1.64418 0.746094 1.78029 0.799566 1.88724 0.90651L4.57057 3.58984C4.62891 3.64818 4.67022 3.71137 4.69453 3.77943C4.71884 3.84748 4.73099 3.9204 4.73099 3.99818C4.73099 4.07595 4.71884 4.14887 4.69453 4.21693C4.67022 4.28498 4.62891 4.34818 4.57057 4.40651L1.88724 7.08984C1.78029 7.19679 1.64418 7.25026 1.47891 7.25026C1.31363 7.25026 1.17752 7.19679 1.07057 7.08984Z" fill="#9C9696"/>
</svg>
