<svg width="9" height="12" viewBox="0 0 9 12" fill="none" xmlns="http://www.w3.org/2000/svg">
<g clip-path="url(#clip0_714_390)">
<path d="M4.5 6.16602C3.88125 6.16602 3.375 5.67102 3.375 5.06602C3.375 4.46102 3.88125 3.96602 4.5 3.96602C5.11875 3.96602 5.625 4.46102 5.625 5.06602C5.625 5.67102 5.11875 6.16602 4.5 6.16602ZM7.875 5.17602C7.875 3.17952 6.38438 1.76602 4.5 1.76602C2.61563 1.76602 1.125 3.17952 1.125 5.17602C1.125 6.46302 2.22187 8.16802 4.5 10.203C6.77813 8.16802 7.875 6.46302 7.875 5.17602ZM4.5 0.666016C6.8625 0.666016 9 2.43702 9 5.17602C9 7.00202 7.49813 9.16352 4.5 11.666C1.50188 9.16352 0 7.00202 0 5.17602C0 2.43702 2.1375 0.666016 4.5 0.666016Z" fill="#9C9696"/>
</g>
<defs>
<clipPath id="clip0_714_390">
<rect width="9" height="12" fill="white"/>
</clipPath>
</defs>
</svg>
