<svg width="16" height="13" viewBox="0 0 16 13" fill="none" xmlns="http://www.w3.org/2000/svg">
<path d="M1.52228 12.6316C1.0969 12.6316 0.736844 12.4842 0.442106 12.1895C0.147369 11.8947 0 11.5347 0 11.1093V1.52228C0 1.0969 0.147369 0.736844 0.442106 0.442106C0.736844 0.147369 1.0969 0 1.52228 0H14.4777C14.9031 0 15.2632 0.147369 15.5579 0.442106C15.8526 0.736844 16 1.0969 16 1.52228V11.1093C16 11.5347 15.8526 11.8947 15.5579 12.1895C15.2632 12.4842 14.9031 12.6316 14.4777 12.6316H1.52228ZM8 6.78539L1.26314 2.47769V11.1093C1.26314 11.1849 1.28744 11.247 1.33602 11.2955C1.38461 11.3441 1.4467 11.3684 1.52228 11.3684H14.4777C14.5533 11.3684 14.6154 11.3441 14.664 11.2955C14.7126 11.247 14.7369 11.1849 14.7369 11.1093V2.47769L8 6.78539ZM8 5.47368L14.6073 1.26314H1.3927L8 5.47368ZM1.26314 2.47769V1.26314V11.1093C1.26314 11.1849 1.28744 11.247 1.33602 11.2955C1.38461 11.3441 1.4467 11.3684 1.52228 11.3684H1.26314V2.47769Z" fill="#9C9696"/>
</svg>
