<svg width="14" height="15" viewBox="0 0 14 15" fill="none" xmlns="http://www.w3.org/2000/svg">
<path fill-rule="evenodd" clip-rule="evenodd" d="M1.05 1.55V13.45H12.95V1.55H1.05ZM0.7 0.5C0.313401 0.5 0 0.813401 0 1.2V13.8C0 14.1866 0.313401 14.5 0.7 14.5H13.3C13.6866 14.5 14 14.1866 14 13.8V1.2C14 0.813401 13.6866 0.5 13.3 0.5H0.7Z" fill="#222020"/>
<path d="M9.71686 10.7228L7 8.00597L4.28314 10.7228L3.77716 10.2169L6.49403 7.5L3.77716 4.78314L4.28314 4.27716L7 6.99403L9.71686 4.27716L10.2228 4.78314L7.50597 7.5L10.2228 10.2169L9.71686 10.7228Z" fill="#222020"/>
<path fill-rule="evenodd" clip-rule="evenodd" d="M3.40592 4.78314L4.28312 3.90593L6.99998 6.6228L9.71685 3.90593L10.5941 4.78314L7.87719 7.5L10.5941 10.2169L9.71685 11.0941L6.99998 8.3772L4.28312 11.0941L3.40592 10.2169L6.12278 7.5L3.40592 4.78314ZM4.14838 4.78314L6.86524 7.5L4.14838 10.2169L4.28312 10.3516L6.99998 7.63474C8.06098 8.69574 8.65585 9.2906 9.71685 10.3516L9.85159 10.2169L7.13473 7.5L9.85159 4.78314L9.71685 4.6484L6.99998 7.36526L4.28312 4.6484L4.14838 4.78314Z" fill="#222020"/>
</svg>
