<svg width="18" height="18" viewBox="0 0 18 18" fill="none" xmlns="http://www.w3.org/2000/svg">
<path d="M6.40807 17.9994C7.28942 17.9994 8.01008 17.2186 8.01008 16.2643H4.80605C4.80605 17.2186 5.51882 17.9994 6.40807 17.9994ZM11.2141 12.7941V8.45636C11.2141 5.79297 9.90095 3.56336 7.60982 2.97342V2.38348C7.60982 1.66341 7.07253 1.08215 6.40807 1.08215C5.7436 1.08215 5.20631 1.66341 5.20631 2.38348V2.97342C2.90828 3.56336 1.60202 5.78429 1.60202 8.45636V12.7941L0 14.5292V15.3968H12.8161V14.5292L11.2141 12.7941Z" fill="#EE4136"/>
<path fill-rule="evenodd" clip-rule="evenodd" d="M12.9895 7.10024C13.4679 5.75461 12.8951 4.1808 11.6637 3.45751C11.5808 3.41732 11.5404 3.31425 11.5732 3.22768L11.5768 3.2189L11.9327 2.36559C11.9714 2.27635 12.0712 2.24 12.1582 2.28349C14.0035 3.33235 14.8598 5.68507 14.1205 7.67464C14.0818 7.76387 13.9819 7.80022 13.8949 7.75674L13.0778 7.33886C12.9912 7.29365 12.9511 7.18352 12.9884 7.09318L12.9895 7.10024Z" fill="#EE4136"/>
<path fill-rule="evenodd" clip-rule="evenodd" d="M15.2903 7.60674C16.2182 5.38101 15.2648 2.76135 13.1232 1.65281C13.045 1.61331 13.0103 1.51797 13.0449 1.43744L13.3974 0.656016C13.4356 0.574139 13.5315 0.539246 13.6134 0.577393C16.3305 1.97434 17.5398 5.29669 16.3563 8.11334C16.3181 8.19521 16.2222 8.23011 16.1403 8.19196L15.3637 7.82004C15.2847 7.78085 15.2498 7.68508 15.2852 7.60425L15.2903 7.60674Z" fill="#EE4136"/>
</svg>
