<svg width="14" height="15" viewBox="0 0 14 15" fill="none" xmlns="http://www.w3.org/2000/svg">
<path fill-rule="evenodd" clip-rule="evenodd" d="M1.05 1.55V13.45H12.95V1.55H1.05ZM0.7 0.5C0.313401 0.5 0 0.813401 0 1.2V13.8C0 14.1866 0.313401 14.5 0.7 14.5H13.3C13.6866 14.5 14 14.1866 14 13.8V1.2C14 0.813401 13.6866 0.5 13.3 0.5H0.7Z" fill="#222020"/>
<path d="M6.58081 7.65098C6.92743 7.05146 7.59368 6.69779 7.98083 6.16728C8.39048 5.61089 8.16089 4.57143 6.99946 4.57143C6.23868 4.57143 5.86504 5.12351 5.70748 5.5807L4.54155 5.11057C4.86117 4.19188 5.72999 3.40259 6.99496 3.40259C8.05285 3.40259 8.77762 3.86409 9.14676 4.44204C9.46188 4.93805 9.64644 5.86536 9.16026 6.55545C8.62006 7.31887 8.10237 7.55178 7.82327 8.04347C7.71073 8.24187 7.66571 8.37126 7.66571 9.0096H6.36473C6.36022 8.67318 6.3062 8.12542 6.58081 7.65098ZM7.8998 10.7348C7.8998 11.2093 7.49465 11.5975 6.99946 11.5975C6.50428 11.5975 6.09913 11.2093 6.09913 10.7348C6.09913 10.2604 6.50428 9.87222 6.99946 9.87222C7.49465 9.87222 7.8998 10.2604 7.8998 10.7348Z" fill="#222020"/>
</svg>
