<?xml version="1.0" encoding="UTF-8"?>
<svg width="18px" height="18px" viewBox="0 0 18 18" version="1.1" xmlns="http://www.w3.org/2000/svg" xmlns:xlink="http://www.w3.org/1999/xlink">
    <title>Info</title>
    <g id="Page-1" stroke="none" stroke-width="1" fill="none" fill-rule="evenodd">
        <g id="Group" fill-rule="nonzero">
            <g>
                <path d="M9,18 C4.02943725,18 0,13.9705627 0,9 C0,4.02943725 4.02943725,0 9,0 C13.9705627,0 18,4.02943725 18,9 C18,13.9705627 13.9705627,18 9,18 Z" id="Path" fill="#9C9696"></path>
                <path d="M7.00101626,6.26240754 L7.00101626,8.19050095 L7.84044715,8.19050095 L7.84044715,12.0776381 L7,12.0776381 L7,14 L11,14 L11,12.0673214 L10.1422764,12.0673214 L10.1422764,6.26240754 L7.00101626,6.26240754 Z M10.1443089,4.2964859 C10.1426229,5.01060717 9.62802504,5.58797561 8.99492142,5.58608018 C8.36181781,5.58417541 7.84995109,5.00372629 7.85162999,4.28960502 C7.85331717,3.57548374 8.36791264,2.99811256 9.00101626,3.00000464 C9.63211382,3.00803347 10.1412602,3.58462739 10.1443089,4.2964859" id="Shape" fill="#FFFFFF"></path>
            </g>
        </g>
    </g>
</svg>