<?xml version="1.0" encoding="UTF-8"?>
<svg width="5px" height="18px" viewBox="0 0 5 18" version="1.1" xmlns="http://www.w3.org/2000/svg" xmlns:xlink="http://www.w3.org/1999/xlink">
    <title>MoreOption</title>
    <g id="Page-1" stroke="none" stroke-width="1" fill="none" fill-rule="evenodd">
        <g id="Group" fill="#737070" fill-rule="nonzero">
            <g id="Shape">
                <path d="M5.00000032,8.95304451 C4.99954532,9.78757654 4.52262809,10.5584894 3.74889824,10.9753876 C2.9751684,11.3922858 2.02217392,11.3918327 1.24889861,10.9741988 C0.475623307,10.556565 -0.000453909386,9.78519904 3.24754524e-07,8.95066702 C0.000351976093,7.66059231 1.11992473,6.61504623 2.50063637,6.61537442 C3.88134802,6.61570276 5.00035116,7.66178106 5.00000032,8.95185577 M5.00000057,2.33648142 C4.99964851,3.62655614 3.88007576,4.67210221 2.49936411,4.67177403 C1.11865246,4.67144569 -0.000350676145,3.62536739 5.67269012e-07,2.33529268 C0.000351976093,1.04521797 1.11992473,-0.00032810877 2.50063637,7.72394628e-08 C3.88134802,0.0003284178 5.00035116,1.04640671 5.00000057,2.33648142 M5.00000057,15.6647073 C4.99964851,16.954782 3.88007576,18.0003281 2.49936411,17.9999999 C1.11865246,17.9996716 -0.000350676145,16.9535933 5.67269012e-07,15.6635186 C0.000351976093,14.3734439 1.11992473,13.3278978 2.50063637,13.328226 C3.88134802,13.3285543 5.00035116,14.3746326 5.00000057,15.6647073"></path>
            </g>
        </g>
    </g>
</svg>