<svg width="16" height="4" viewBox="0 0 16 4" fill="none" xmlns="http://www.w3.org/2000/svg">
<path d="M2.23091 3.49995C1.81842 3.49995 1.46531 3.35308 1.17156 3.05933C0.877824 2.76558 0.730957 2.41246 0.730957 1.99998C0.730957 1.58749 0.877824 1.23438 1.17156 0.940625C1.46531 0.646875 1.81842 0.5 2.23091 0.5C2.64341 0.5 2.99652 0.646875 3.29026 0.940625C3.58401 1.23438 3.73088 1.58749 3.73088 1.99998C3.73088 2.41246 3.58401 2.76558 3.29026 3.05933C2.99652 3.35308 2.64341 3.49995 2.23091 3.49995ZM8.00013 3.49995C7.58765 3.49995 7.23453 3.35308 6.94078 3.05933C6.64703 2.76558 6.50016 2.41246 6.50016 1.99998C6.50016 1.58749 6.64703 1.23438 6.94078 0.940625C7.23453 0.646875 7.58765 0.5 8.00013 0.5C8.41262 0.5 8.76573 0.646875 9.05948 0.940625C9.35323 1.23438 9.50011 1.58749 9.50011 1.99998C9.50011 2.41246 9.35323 2.76558 9.05948 3.05933C8.76573 3.35308 8.41262 3.49995 8.00013 3.49995ZM13.7694 3.49995C13.3569 3.49995 13.0037 3.35308 12.71 3.05933C12.4163 2.76558 12.2694 2.41246 12.2694 1.99998C12.2694 1.58749 12.4163 1.23438 12.71 0.940625C13.0037 0.646875 13.3569 0.5 13.7694 0.5C14.1818 0.5 14.535 0.646875 14.8287 0.940625C15.1224 1.23438 15.2693 1.58749 15.2693 1.99998C15.2693 2.41246 15.1224 2.76558 14.8287 3.05933C14.535 3.35308 14.1818 3.49995 13.7694 3.49995Z" fill="#9C9696"/>
</svg>
