<svg width="20" height="16" viewBox="0 0 20 16" fill="none" xmlns="http://www.w3.org/2000/svg">
<path d="M1.66671 15.5C1.4306 15.5 1.23268 15.4201 1.07296 15.2604C0.913235 15.1007 0.833374 14.9028 0.833374 14.6667C0.833374 14.4306 0.913235 14.2326 1.07296 14.0729C1.23268 13.9132 1.4306 13.8333 1.66671 13.8333H18.3334C18.5695 13.8333 18.7674 13.9132 18.9271 14.0729C19.0868 14.2326 19.1667 14.4306 19.1667 14.6667C19.1667 14.9028 19.0868 15.1007 18.9271 15.2604C18.7674 15.4201 18.5695 15.5 18.3334 15.5H1.66671ZM3.33337 13C2.87504 13 2.48268 12.8368 2.15629 12.5104C1.8299 12.184 1.66671 11.7917 1.66671 11.3333V2.16667C1.66671 1.70833 1.8299 1.31597 2.15629 0.989583C2.48268 0.663194 2.87504 0.5 3.33337 0.5H16.6667C17.125 0.5 17.5174 0.663194 17.8438 0.989583C18.1702 1.31597 18.3334 1.70833 18.3334 2.16667V11.3333C18.3334 11.7917 18.1702 12.184 17.8438 12.5104C17.5174 12.8368 17.125 13 16.6667 13H3.33337ZM3.33337 11.3333H16.6667V2.16667H3.33337V11.3333Z" fill="#9C9696"/>
</svg>
