<svg width="12" height="12" viewBox="0 0 12 12" fill="none" xmlns="http://www.w3.org/2000/svg">
<g clip-path="url(#clip0_714_394)">
<path d="M5.66667 1.91667C6.44583 1.91667 7.08333 2.55417 7.08333 3.33333C7.08333 4.1125 6.44583 4.75 5.66667 4.75C4.8875 4.75 4.25 4.1125 4.25 3.33333C4.25 2.55417 4.8875 1.91667 5.66667 1.91667ZM5.66667 9C7.57917 9 9.775 9.91375 9.91667 10.4167H1.41667C1.57958 9.90667 3.76125 9 5.66667 9ZM5.66667 0.5C4.10125 0.5 2.83333 1.76792 2.83333 3.33333C2.83333 4.89875 4.10125 6.16667 5.66667 6.16667C7.23208 6.16667 8.5 4.89875 8.5 3.33333C8.5 1.76792 7.23208 0.5 5.66667 0.5ZM5.66667 7.58333C3.77542 7.58333 0 8.5325 0 10.4167V11.8333H11.3333V10.4167C11.3333 8.5325 7.55792 7.58333 5.66667 7.58333Z" fill="#9C9696"/>
</g>
<defs>
<clipPath id="clip0_714_394">
<rect width="12" height="12" fill="white"/>
</clipPath>
</defs>
</svg>
