<svg width="21" height="21" viewBox="0 0 21 21" fill="none" xmlns="http://www.w3.org/2000/svg">
<path fill-rule="evenodd" clip-rule="evenodd" d="M13.2676 2.2904L19.2386 8.27666C19.6811 8.71991 19.6815 9.496 19.3494 9.93963C19.1285 10.1613 18.4648 10.6049 17.8014 9.93925L17.1381 9.27437L13.0468 16.7016L14.1522 17.8101C14.5947 18.2534 14.5943 18.9186 14.1522 19.3623C13.9314 19.5847 13.1572 19.9163 12.6043 19.3619L8.18087 14.9278L4.09374 19.0272L4.08954 19.0306L1.97643 19.5946L2.54158 17.4773L6.52248 13.3756L2.2099 9.05236C1.76741 8.6091 1.76779 7.94384 2.2099 7.50096C2.65201 7.05732 3.31575 7.05694 3.75786 7.50058L4.86409 8.6091L12.383 4.50783L11.7197 3.84218C11.2772 3.39893 11.2772 2.73404 11.7197 2.29078C12.1618 1.84715 12.8251 1.84715 13.2676 2.2904Z" fill="#EE4136"/>
</svg>
