<svg id="Layer_1" data-name="Layer 1" xmlns="http://www.w3.org/2000/svg" width="6.3mm" height="6.3mm" viewBox="0 0 17.9 17.9">
  <defs>
    <style>
      .cls-1 {
        fill: #e84136;
      }

      .cls-2 {
        fill: #fff;
      }
    </style>
  </defs>
  <circle class="cls-1" cx="8.9" cy="8.9" r="7.9"/>
  <path class="cls-2" d="M9.8,11.4h.7c.2,0,.3,0,.3.3v1a.3.3,0,0,1-.3.3H7.3a.3.3,0,0,1-.3-.3V11.6c0-.2.1-.2.3-.2h.6V9H7.4C7,9,7,9,7,8.6v-1a.3.3,0,0,1,.3-.3H9.5a.3.3,0,0,1,.3.3v3.8Z"/>
  <path class="cls-2" d="M8.9,6.4H8.2a.3.3,0,0,1-.3-.3V5a.3.3,0,0,1,.3-.3H9.6c.1,0,.2.1.2.3V6.1c0,.2-.1.3-.2.3Z"/>
</svg>
