<svg xmlns="http://www.w3.org/2000/svg" width="30" height="30" viewBox="0 0 30 30">
    <g fill="none" fill-rule="evenodd">
        <g fill="#222020" fill-rule="nonzero">
            <g>
                <path d="M15 30C6.729 30 0 23.271 0 15S6.729 0 15 0s15 6.729 15 15-6.729 15-15 15zm0-28.125C7.763 1.875 1.875 7.763 1.875 15c0 7.238 5.888 13.125 13.125 13.125 7.238 0 13.125-5.887 13.125-13.125 0-7.237-5.887-13.125-13.125-13.125z" transform="translate(-867 -165) translate(867 165)"/>
                <path d="M24.663 13.4c-.24 0-.48-.091-.663-.274-.565-.565-1.18-1.073-1.826-1.513-.429-.29-.541-.873-.249-1.302.289-.428.871-.543 1.301-.248.744.503 1.45 1.088 2.1 1.736.366.366.366.96.002 1.327-.184.181-.424.274-.665.274zM5.338 13.4c-.24 0-.48-.091-.662-.274-.367-.365-.37-.958-.003-1.326 3.45-3.465 8.25-4.993 13.257-4.009.508.1.839.594.74 1.101-.1.508-.593.832-1.101.74-4.398-.866-8.56.47-11.569 3.492-.183.183-.423.276-.662.276zM21.3 16.775c-.239 0-.48-.091-.663-.274-.55-.551-1.172-1.021-1.843-1.395-.453-.252-.614-.823-.363-1.276.252-.453.823-.615 1.276-.363.822.46 1.582 1.033 2.257 1.705.366.367.366.96.001 1.328-.184.184-.425.275-.665.275zM8.7 16.775c-.24 0-.48-.091-.662-.275-.367-.366-.367-.961 0-1.326 1.34-1.339 2.99-2.253 4.774-2.64.506-.112 1.007.21 1.117.715.111.506-.21 1.006-.715 1.116-1.434.313-2.765 1.051-3.85 2.135-.184.184-.425.275-.664.275zM15 22.5c-1.23 0-2.309-.828-2.62-2.011-.131-.5.169-1.014.669-1.145.496-.128 1.014.167 1.145.668.096.367.42.613.806.613.469 0 .85-.381.85-.85 0-.386-.246-.709-.612-.806-.5-.132-.802-.645-.67-1.145.132-.502.652-.795 1.146-.669 1.184.311 2.011 1.387 2.011 2.62 0 1.503-1.223 2.725-2.725 2.725zM5.059 25.879c-.24 0-.48-.091-.663-.275-.366-.366-.366-.96 0-1.326L24.28 4.395c.366-.366.96-.366 1.326 0 .366.367.366.96 0 1.327L5.721 25.602c-.182.184-.422.276-.662.276z" transform="translate(-867 -165) translate(867 165)"/>
            </g>
        </g>
    </g>
</svg>
