<svg width="21" height="21" viewBox="0 0 21 21" fill="none" xmlns="http://www.w3.org/2000/svg">
<path d="M3.18701 17.462V15.562H5.08701V8.91201C5.08701 7.59785 5.48285 6.42998 6.27451 5.40841C7.06618 4.38748 8.09535 3.71868 9.36201 3.40201V2.73701C9.36201 2.34118 9.50071 2.00488 9.77811 1.72811C10.0549 1.45071 10.3912 1.31201 10.787 1.31201C11.1828 1.31201 11.5191 1.45071 11.7959 1.72811C12.0733 2.00488 12.212 2.34118 12.212 2.73701V3.40201C13.4787 3.71868 14.5078 4.38748 15.2995 5.40841C16.0912 6.42998 16.487 7.59785 16.487 8.91201V15.562H18.387V17.462H3.18701ZM10.787 20.312C10.2645 20.312 9.81738 20.1261 9.44561 19.7544C9.07321 19.382 8.88701 18.9345 8.88701 18.412H12.687C12.687 18.9345 12.5011 19.382 12.1294 19.7544C11.757 20.1261 11.3095 20.312 10.787 20.312Z" fill="#EE4136"/>
</svg>
