<svg xmlns="http://www.w3.org/2000/svg" width="29" height="30" viewBox="0 0 29 30">
    <g fill="none" fill-rule="evenodd">
        <g fill-rule="nonzero">
            <g>
                <g>
                    <path fill="#9C9696" d="M17.5 25c0 2.762-2.239 5-5 5-2.762 0-5-2.238-5-5 0-2.761 2.238-5 5-5 2.761 0 5 2.239 5 5z" transform="translate(-806 -490) translate(782 460) translate(24 30)"/>
                    <path fill="#D6DBE1" d="M21.26 14.901c-4.238-.605-7.51-4.249-7.51-8.65 0-1.251.267-2.437.741-3.514-.64-.15-1.305-.237-1.991-.237-4.825 0-8.75 3.925-8.75 8.75v3.485c0 2.474-1.084 4.809-2.985 6.416C.279 21.566 0 22.172 0 22.812 0 24.02.981 25 2.187 25h20.625C24.02 25 25 24.02 25 22.812c0-.64-.279-1.246-.777-1.672-1.845-1.561-2.915-3.828-2.963-6.239z" transform="translate(-806 -490) translate(782 460) translate(24 30)"/>
                    <path fill="#F44336" d="M28.75 6.25c0 3.452-2.798 6.25-6.25 6.25s-6.25-2.798-6.25-6.25S19.048 0 22.5 0s6.25 2.798 6.25 6.25z" transform="translate(-806 -490) translate(782 460) translate(24 30)"/>
                </g>
            </g>
        </g>
    </g>
</svg>
