<svg width="42" height="42" viewBox="0 0 42 42" fill="none" xmlns="http://www.w3.org/2000/svg">
<rect x="5" y="5" width="32" height="32" rx="16" fill="#9C9696"/>
<path fill-rule="evenodd" clip-rule="evenodd" d="M20.7499 13.8292C22.6995 13.8292 24.2801 15.4098 24.2801 17.3594C24.2801 19.309 22.6995 20.8896 20.7499 20.8896C18.8003 20.8896 17.2197 19.309 17.2197 17.3594C17.2197 15.4098 18.8003 13.8292 20.7499 13.8292" fill="white"/>
<path fill-rule="evenodd" clip-rule="evenodd" d="M27.5387 24.1483H25.9093V22.5189H24.28V24.1483H22.6507V25.7776H24.28V27.4069H25.9093V25.7776H27.5387V24.1483Z" fill="white"/>
<path fill-rule="evenodd" clip-rule="evenodd" d="M20.7025 24.9629C20.7025 24.0529 21.0219 23.222 21.5435 22.5434C21.2696 22.5295 20.9924 22.5189 20.7025 22.5189C18.0126 22.5189 16.0349 23.1666 14.941 23.6448C14.3402 23.9079 13.961 24.488 13.961 25.1259V27.4069H21.5646C21.0311 26.7242 20.7025 25.8843 20.7025 24.9629" fill="white"/>
</svg>
