<svg width="42" height="42" viewBox="0 0 42 42" fill="none" xmlns="http://www.w3.org/2000/svg">
<rect x="5" y="5" width="32" height="32" rx="16" fill="#9C9696"/>
<path fill-rule="evenodd" clip-rule="evenodd" d="M15.8621 25.5062H25.6381V18.1742H15.8621V25.5062ZM26.4527 15.7302H24.8233V14.1008H22.3793V15.7302H19.1207V14.1008H16.6767V15.7302H15.0473C14.5976 15.7302 14.2327 16.0951 14.2327 16.5448V26.3209C14.2327 26.7705 14.5976 27.1355 15.0473 27.1355H26.4527C26.9024 27.1355 27.2674 26.7705 27.2674 26.3209V16.5448C27.2674 16.0951 26.9024 15.7302 26.4527 15.7302Z" fill="white"/>
<path fill-rule="evenodd" clip-rule="evenodd" d="M17.4915 21.4329H19.1208V19.8035H17.4915V21.4329Z" fill="white"/>
<path fill-rule="evenodd" clip-rule="evenodd" d="M19.9355 21.4329H21.5648V19.8035H19.9355V21.4329Z" fill="white"/>
<path fill-rule="evenodd" clip-rule="evenodd" d="M17.4915 23.8769H19.1208V22.2476H17.4915V23.8769Z" fill="white"/>
<path fill-rule="evenodd" clip-rule="evenodd" d="M19.9355 23.8769H21.5648V22.2476H19.9355V23.8769Z" fill="white"/>
<path fill-rule="evenodd" clip-rule="evenodd" d="M22.3795 21.4329H24.0088V19.8035H22.3795V21.4329Z" fill="white"/>
<path fill-rule="evenodd" clip-rule="evenodd" d="M22.3795 23.8769H24.0088V22.2476H22.3795V23.8769Z" fill="white"/>
</svg>
