<svg width="12" height="12" viewBox="0 0 12 12" fill="none" xmlns="http://www.w3.org/2000/svg">
<path d="M6 0L11.5421 3.3C11.6895 3.39474 11.8025 3.51579 11.8813 3.66316C11.9604 3.81053 12 3.96842 12 4.13684V10.8C12 11.1158 11.8895 11.3842 11.6684 11.6053C11.4474 11.8263 11.1789 11.9368 10.8632 11.9368H1.13684C0.821053 11.9368 0.552632 11.8263 0.331579 11.6053C0.110526 11.3842 0 11.1158 0 10.8V4.13684C0 3.96842 0.0395789 3.81053 0.118737 3.66316C0.197474 3.51579 0.310526 3.39474 0.457895 3.3L6 0ZM6 6.97895L10.9263 4.04211L6 1.10526L1.07368 4.04211L6 6.97895ZM6 8.08421L0.947368 5.06842V10.8C0.947368 10.8526 0.965895 10.8975 1.00295 10.9345C1.03958 10.9712 1.08421 10.9895 1.13684 10.9895H10.8632C10.9158 10.9895 10.9606 10.9712 10.9977 10.9345C11.0343 10.8975 11.0526 10.8526 11.0526 10.8V5.06842L6 8.08421Z" fill="#9C9696"/>
</svg>
