<svg width="42" height="42" viewBox="0 0 42 42" fill="none" xmlns="http://www.w3.org/2000/svg">
<rect x="5" y="5" width="32" height="32" rx="16" fill="#9C9696"/>
<path fill-rule="evenodd" clip-rule="evenodd" d="M21.0838 17.3606C21.8904 17.3606 22.5444 18.0492 22.5444 18.8986C22.5444 19.748 21.8904 20.4367 21.0838 20.4367C20.2771 20.4367 19.6231 19.748 19.6231 18.8986C19.6231 18.0492 20.2771 17.3606 21.0838 17.3606Z" fill="white"/>
<path fill-rule="evenodd" clip-rule="evenodd" d="M17.8703 23.5128V22.3644C17.8703 22.0433 18.0456 21.7512 18.3233 21.6188C18.8289 21.378 19.7431 21.0519 20.9864 21.0519C20.9899 21.0519 20.9934 21.0519 20.9969 21.0519C21.0004 21.0519 21.0039 21.0519 21.0074 21.0519C22.2507 21.0519 23.1649 21.378 23.6705 21.6188C23.9482 21.7512 24.1235 22.0433 24.1235 22.3644V23.5128H17.8703Z" fill="white"/>
<path fill-rule="evenodd" clip-rule="evenodd" d="M20.9969 12.9905C21.4114 12.9905 21.7478 13.3269 21.7478 13.7414C21.7478 14.1559 21.4114 14.4923 20.9969 14.4923C20.5824 14.4923 20.246 14.1559 20.246 13.7414C20.246 13.3269 20.5824 12.9905 20.9969 12.9905Z" fill="white"/>
<path fill-rule="evenodd" clip-rule="evenodd" d="M20.9969 12.1005C21.9029 12.1005 22.6377 12.8354 22.6377 13.7414C22.6377 14.6474 21.9029 15.3822 20.9969 15.3822C20.0909 15.3822 19.356 14.6474 19.356 13.7414C19.356 12.8354 20.0909 12.1005 20.9969 12.1005ZM21.7478 13.7414C21.7478 13.3269 21.4114 12.9905 20.9969 12.9905C20.5824 12.9905 20.246 13.3269 20.246 13.7414C20.246 14.1559 20.5824 14.4923 20.9969 14.4923C21.4114 14.4923 21.7478 14.1559 21.7478 13.7414Z" fill="white"/>
<path fill-rule="evenodd" clip-rule="evenodd" d="M20.9969 27.5077C21.4114 27.5077 21.7478 27.8441 21.7478 28.2586C21.7478 28.6731 21.4114 29.0095 20.9969 29.0095C20.5824 29.0095 20.246 28.6731 20.246 28.2586C20.246 27.8441 20.5824 27.5077 20.9969 27.5077Z" fill="white"/>
<path fill-rule="evenodd" clip-rule="evenodd" d="M20.9969 26.6178C21.9029 26.6178 22.6377 27.3526 22.6377 28.2586C22.6377 29.1646 21.9029 29.8995 20.9969 29.8995C20.0909 29.8995 19.356 29.1646 19.356 28.2586C19.356 27.3526 20.0909 26.6178 20.9969 26.6178ZM21.7478 28.2586C21.7478 27.8441 21.4114 27.5077 20.9969 27.5077C20.5824 27.5077 20.246 27.8441 20.246 28.2586C20.246 28.6731 20.5824 29.0095 20.9969 29.0095C21.4114 29.0095 21.7478 28.6731 21.7478 28.2586Z" fill="white"/>
<path fill-rule="evenodd" clip-rule="evenodd" d="M15.5564 15.2431C15.9709 15.2431 16.3073 15.5795 16.3073 15.994C16.3073 16.4085 15.9709 16.7449 15.5564 16.7449C15.1419 16.7449 14.8055 16.4085 14.8055 15.994C14.8055 15.5795 15.1419 15.2431 15.5564 15.2431Z" fill="white"/>
<path fill-rule="evenodd" clip-rule="evenodd" d="M15.5564 14.3532C16.4624 14.3532 17.1972 15.088 17.1972 15.994C17.1972 16.9 16.4624 17.6349 15.5564 17.6349C14.6504 17.6349 13.9155 16.9 13.9155 15.994C13.9155 15.088 14.6504 14.3532 15.5564 14.3532ZM16.3073 15.994C16.3073 15.5795 15.9709 15.2431 15.5564 15.2431C15.1419 15.2431 14.8055 15.5795 14.8055 15.994C14.8055 16.4085 15.1419 16.7449 15.5564 16.7449C15.9709 16.7449 16.3073 16.4085 16.3073 15.994Z" fill="white"/>
<path fill-rule="evenodd" clip-rule="evenodd" d="M15.5564 25.255C15.9709 25.255 16.3073 25.5914 16.3073 26.0059C16.3073 26.4204 15.9709 26.7568 15.5564 26.7568C15.1419 26.7568 14.8055 26.4204 14.8055 26.0059C14.8055 25.5914 15.1419 25.255 15.5564 25.255Z" fill="white"/>
<path fill-rule="evenodd" clip-rule="evenodd" d="M15.5564 24.3651C16.4624 24.3651 17.1972 25.0999 17.1972 26.0059C17.1972 26.9119 16.4624 27.6468 15.5564 27.6468C14.6504 27.6468 13.9155 26.9119 13.9155 26.0059C13.9155 25.0999 14.6504 24.3651 15.5564 24.3651ZM16.3073 26.0059C16.3073 25.5914 15.9709 25.255 15.5564 25.255C15.1419 25.255 14.8055 25.5914 14.8055 26.0059C14.8055 26.4204 15.1419 26.7568 15.5564 26.7568C15.9709 26.7568 16.3073 26.4204 16.3073 26.0059Z" fill="white"/>
<path fill-rule="evenodd" clip-rule="evenodd" d="M13.2815 20.2491C13.696 20.2491 14.0324 20.5855 14.0324 21C14.0324 21.4145 13.696 21.7509 13.2815 21.7509C12.867 21.7509 12.5306 21.4145 12.5306 21C12.5306 20.5855 12.867 20.2491 13.2815 20.2491Z" fill="white"/>
<path fill-rule="evenodd" clip-rule="evenodd" d="M13.2815 19.3592C14.1875 19.3592 14.9224 20.094 14.9224 21C14.9224 21.906 14.1875 22.6408 13.2815 22.6408C12.3755 22.6408 11.6407 21.906 11.6407 21C11.6407 20.094 12.3755 19.3592 13.2815 19.3592ZM14.0324 21C14.0324 20.5855 13.696 20.2491 13.2815 20.2491C12.867 20.2491 12.5306 20.5855 12.5306 21C12.5306 21.4145 12.867 21.7509 13.2815 21.7509C13.696 21.7509 14.0324 21.4145 14.0324 21Z" fill="white"/>
<path fill-rule="evenodd" clip-rule="evenodd" d="M26.4436 15.2431C26.0291 15.2431 25.6927 15.5795 25.6927 15.994C25.6927 16.4085 26.0291 16.7449 26.4436 16.7449C26.8581 16.7449 27.1945 16.4085 27.1945 15.994C27.1945 15.5795 26.8581 15.2431 26.4436 15.2431Z" fill="white"/>
<path fill-rule="evenodd" clip-rule="evenodd" d="M26.4436 14.3532C25.5376 14.3532 24.8028 15.088 24.8028 15.994C24.8028 16.9 25.5376 17.6349 26.4436 17.6349C27.3496 17.6349 28.0844 16.9 28.0844 15.994C28.0844 15.088 27.3496 14.3532 26.4436 14.3532ZM25.6927 15.994C25.6927 15.5795 26.0291 15.2431 26.4436 15.2431C26.8581 15.2431 27.1945 15.5795 27.1945 15.994C27.1945 16.4085 26.8581 16.7449 26.4436 16.7449C26.0291 16.7449 25.6927 16.4085 25.6927 15.994Z" fill="white"/>
<path fill-rule="evenodd" clip-rule="evenodd" d="M26.4436 25.255C26.0291 25.255 25.6927 25.5914 25.6927 26.0059C25.6927 26.4204 26.0291 26.7568 26.4436 26.7568C26.8581 26.7568 27.1945 26.4204 27.1945 26.0059C27.1945 25.5914 26.8581 25.255 26.4436 25.255Z" fill="white"/>
<path fill-rule="evenodd" clip-rule="evenodd" d="M26.4436 24.3651C25.5376 24.3651 24.8028 25.0999 24.8028 26.0059C24.8028 26.9119 25.5376 27.6468 26.4436 27.6468C27.3496 27.6468 28.0844 26.9119 28.0844 26.0059C28.0844 25.0999 27.3496 24.3651 26.4436 24.3651ZM25.6927 26.0059C25.6927 25.5914 26.0291 25.255 26.4436 25.255C26.8581 25.255 27.1945 25.5914 27.1945 26.0059C27.1945 26.4204 26.8581 26.7568 26.4436 26.7568C26.0291 26.7568 25.6927 26.4204 25.6927 26.0059Z" fill="white"/>
<path fill-rule="evenodd" clip-rule="evenodd" d="M28.7185 20.2491C28.304 20.2491 27.9676 20.5855 27.9676 21C27.9676 21.4145 28.304 21.7509 28.7185 21.7509C29.1329 21.7509 29.4693 21.4145 29.4693 21C29.4693 20.5855 29.1329 20.2491 28.7185 20.2491Z" fill="white"/>
<path fill-rule="evenodd" clip-rule="evenodd" d="M28.7185 19.3592C27.8125 19.3592 27.0776 20.094 27.0776 21C27.0776 21.906 27.8125 22.6408 28.7185 22.6408C29.6244 22.6408 30.3593 21.906 30.3593 21C30.3593 20.094 29.6244 19.3592 28.7185 19.3592ZM27.9676 21C27.9676 20.5855 28.304 20.2491 28.7185 20.2491C29.1329 20.2491 29.4693 20.5855 29.4693 21C29.4693 21.4145 29.1329 21.7509 28.7185 21.7509C28.304 21.7509 27.9676 21.4145 27.9676 21Z" fill="white"/>
</svg>
