<svg width="20" height="20" viewBox="0 0 20 20" xmlns="http://www.w3.org/2000/svg">
    <g fill="none" fill-rule="evenodd">
        <path fill="" d="M0 0h20v20H0z"/>
        <path d="M4.544 8.929c1.408 2.515 3.672 4.573 6.444 5.853l2.151-1.96a1.05 1.05 0 0 1 .993-.217c1.095.328 2.273.506 3.49.506.543 0 .978.396.978.889v3.111c0 .494-.435.889-.978.889C8.441 18 1 11.236 1 2.889 1 2.396 1.44 2 1.978 2H5.4c.543 0 .978.396.978.889 0 1.107.195 2.178.557 3.173a.835.835 0 0 1-.24.902L4.546 8.93z" fill="#EE4136" stroke="#EE4136"/>
    </g>
</svg>
