<svg width="23" height="15" viewBox="0 0 23 15" fill="none" xmlns="http://www.w3.org/2000/svg">
<g clip-path="url(#clip0_4285_89074)">
<path d="M13.8952 10.062L18.6428 5.46795C17.6566 1.57705 13.74 -0.768136 9.89467 0.229773C8.1631 0.679123 6.65914 1.76524 5.67633 3.27614C5.74973 3.27432 13.8952 10.062 13.8952 10.062Z" fill="#0364B8"/>
<path d="M8.77037 4.14115L8.77019 4.14196C7.86302 3.57344 6.8168 3.27294 5.74973 3.27442C5.72511 3.27442 5.70085 3.27596 5.67624 3.27624C2.50233 3.31606 -0.0388128 5.95187 0.000448897 9.16351C0.014707 10.3285 0.374439 11.4622 1.03302 12.4179L8.1455 11.5165L13.5985 7.06742L8.77037 4.14115Z" fill="#0078D4"/>
<path d="M18.6428 5.46797C18.5378 5.46044 18.4326 5.45647 18.3274 5.45606C17.6905 5.45543 17.0603 5.58706 16.4757 5.84278L16.4755 5.84233L13.5986 7.06733L16.7702 11.0316L22.4403 12.4262C23.6639 10.1278 22.8144 7.26078 20.5428 6.0226C19.9558 5.70269 19.3079 5.51352 18.6428 5.46797Z" fill="#1490DF"/>
<path d="M1.03302 12.4178C1.56212 13.1875 2.26747 13.8163 3.08884 14.2503C3.91021 14.6843 4.82319 14.9108 5.74982 14.9103H18.3274C19.1707 14.9105 19.9983 14.6797 20.7225 14.2424C21.4466 13.8051 22.0402 13.1775 22.4403 12.4264L13.5985 7.06726L1.03302 12.4178Z" fill="#28A8EA"/>
</g>
<defs>
<clipPath id="clip0_4285_89074">
<rect width="23" height="15" fill="white"/>
</clipPath>
</defs>
</svg>
