<svg width="9" height="4" viewBox="0 0 9 4" fill="none" xmlns="http://www.w3.org/2000/svg">
<path d="M1.586 3.091C2.171 3.091 2.652 2.636 2.652 2.012C2.652 1.362 2.171 0.933 1.586 0.933C1.001 0.933 0.52 1.362 0.52 2.012C0.52 2.636 1.001 3.091 1.586 3.091ZM4.75983 3.091C5.34483 3.091 5.82583 2.636 5.82583 2.012C5.82583 1.362 5.34483 0.933 4.75983 0.933C4.17483 0.933 3.69383 1.362 3.69383 2.012C3.69383 2.636 4.17483 3.091 4.75983 3.091ZM7.93366 3.091C8.51866 3.091 8.99966 2.636 8.99966 2.012C8.99966 1.362 8.51866 0.933 7.93366 0.933C7.34866 0.933 6.86766 1.362 6.86766 2.012C6.86766 2.636 7.34866 3.091 7.93366 3.091Z" fill="#333333"/>
</svg>
