


<svg xmlns="http://www.w3.org/2000/svg" width="22.553" height="20.641" viewBox="0 0 22.553 20.641">
    <defs>
        <style>
            .cls-1{fill:#ee4136}.cls-2{fill:#fff}
        </style>
    </defs>
    <g id="Group_22" data-name="Group 22" transform="translate(-1322.803 -126.359)">
        <g id="Group_21" data-name="Group 21">
            <path id="Path_30" data-name="Path 30" class="cls-1" d="M-117.541-19.548h-13.205a1.707 1.707 0 0 1-.463-.047.869.869 0 0 1-.627-.915.9.9 0 0 1 .814-.8c.107-.009.215 0 .323 0h13.159a2.733 2.733 0 0 1 2.573-1.876 2.741 2.741 0 0 1 2.716 1.876h1.969a.9.9 0 0 1 .992.889.9.9 0 0 1-.98.873c-.6 0-1.2-.006-1.792.007a.346.346 0 0 0-.262.149 2.687 2.687 0 0 1-2.632 1.72 2.683 2.683 0 0 1-2.545-1.8c-.008-.02-.019-.037-.04-.076zm2.651.121a1 1 0 0 0 1-1.011 1 1 0 0 0-1.012-.995 1.012 1.012 0 0 0-1 1.011 1.014 1.014 0 0 0 1.011.996z" transform="translate(1454.646 157.109)"/>
            <path id="Path_31" data-name="Path 31" class="cls-1" d="M-116.8-116h-6.464a.425.425 0 0 0-.463.28 2.625 2.625 0 0 1-2.493 1.607 2.634 2.634 0 0 1-2.519-1.614.4.4 0 0 0-.437-.274c-.558.016-1.116.009-1.675 0a.9.9 0 0 1-.988-.864.9.9 0 0 1 .986-.9 77.01 77.01 0 0 1 1.733 0 .323.323 0 0 0 .353-.219 2.652 2.652 0 0 1 2.548-1.664 2.633 2.633 0 0 1 2.518 1.662c.1.22.232.218.412.218h12.84a2.591 2.591 0 0 1 .439.025.878.878 0 0 1 .722.875.88.88 0 0 1-.755.847 2.831 2.831 0 0 1-.381.016zm-8.421-.874a1.026 1.026 0 0 0-1-1.016 1.013 1.013 0 0 0-1.012 1 1.013 1.013 0 0 0 1 1.016 1.025 1.025 0 0 0 1.013-.998z" transform="translate(1454.642 246.001)"/>
            <path id="Path_32" data-name="Path 32" class="cls-1" d="M-128.077 76.807c-.93 0-1.861.009-2.791 0a.879.879 0 0 1-.894-1.164.869.869 0 0 1 .857-.593c.636-.009 1.273 0 1.91 0 1.224 0 2.449-.005 3.673.005a.345.345 0 0 0 .369-.242 2.646 2.646 0 0 1 2.529-1.646 2.641 2.641 0 0 1 2.513 1.625.385.385 0 0 0 .413.262q4.554-.011 9.108 0c.709 0 1.121.32 1.127.873s-.418.891-1.142.891h-9.079a.4.4 0 0 0-.437.273 2.638 2.638 0 0 1-2.522 1.611 2.64 2.64 0 0 1-2.493-1.61.4.4 0 0 0-.437-.274c-.902-.004-1.803-.011-2.704-.011zm4.648-.874a1.007 1.007 0 0 0 1.01 1 1.018 1.018 0 0 0 1-1.019 1.013 1.013 0 0 0-1.015-1 1 1 0 0 0-.995 1.018z" transform="translate(1454.619 68.313)"/>
        </g>
        <path id="Path_33" data-name="Path 33" class="cls-2" d="M72.432 1.211a1.014 1.014 0 0 1-1.017-1 1.012 1.012 0 0 1 1-1.011 1 1 0 0 1 1.013 1 1 1 0 0 1-.996 1.011z" transform="translate(1267.323 136.472)"/>
        <path id="Path_34" data-name="Path 34" class="cls-2" d="M-71.1-96.266a1.025 1.025 0 0 1-1.017 1 1.013 1.013 0 0 1-1-1.016 1.013 1.013 0 0 1 1.012-1 1.026 1.026 0 0 1 1.005 1.016z" transform="translate(1400.525 225.395)"/>
        <path id="Path_35" data-name="Path 35" class="cls-2" d="M-24.864 96.561a1 1 0 0 1 .992-1.017 1.013 1.013 0 0 1 1.015 1 1.018 1.018 0 0 1-1 1.019 1.007 1.007 0 0 1-1.007-1.002z" transform="translate(1356.054 47.685)"/>
    </g>
</svg>
