<svg width="12" height="12" viewBox="0 0 12 12" fill="none" xmlns="http://www.w3.org/2000/svg">
<g clip-path="url(#clip0_714_392)">
<path d="M10.45 7.87778C9.76667 7.87778 9.10556 7.76667 8.48889 7.56667C8.29444 7.5 8.07778 7.55 7.92778 7.7L7.05556 8.79445C5.48333 8.04445 4.01111 6.62778 3.22778 5L4.31111 4.07778C4.46111 3.92222 4.50556 3.70556 4.44444 3.51111C4.23889 2.89444 4.13333 2.23333 4.13333 1.55C4.13333 1.25 3.88333 1 3.58333 1H1.66111C1.36111 1 1 1.13333 1 1.55C1 6.71111 5.29444 11 10.45 11C10.8444 11 11 10.65 11 10.3444V8.42778C11 8.12778 10.75 7.87778 10.45 7.87778Z" stroke="#9C9696"/>
</g>
<defs>
<clipPath id="clip0_714_392">
<rect width="12" height="12" fill="white"/>
</clipPath>
</defs>
</svg>
