<svg width="24" height="29" viewBox="0 0 24 29" fill="none" xmlns="http://www.w3.org/2000/svg">
<path d="M23.161 2.85797C22.6846 2.85797 22.3216 3.2436 22.3216 3.69732V24.6805C22.3216 25.5651 21.5957 26.291 20.7111 26.291H3.19875C2.49556 26.291 1.92843 25.8374 1.72424 25.2022C1.65619 24.998 1.65619 24.7939 1.67888 24.567C1.76961 23.7958 2.4728 23.2513 3.24412 23.2513H18.851C20.0305 23.2513 20.9833 22.2986 20.9833 21.119V1.63327C20.9833 0.725899 20.2574 0 19.35 0H1.70133C0.793952 0 0.0680531 0.725899 0.0680531 1.63327V23.5689V23.5916V24.1814C0.0226844 24.3856 0 24.5897 0 24.7938C0 24.998 0.0226844 25.2022 0.0680531 25.4063C0.36295 26.8808 1.65596 28.015 3.22115 28.015H20.7335C22.3895 28.015 23.7732 26.7674 23.9773 25.1794C24 25.0433 24 24.8845 24 24.7484V3.69732C24 3.22095 23.6144 2.85797 23.1607 2.85797H23.161ZM4.37834 6.41944L5.39916 5.14912C5.80748 4.60469 6.60146 4.55932 7.0778 5.03569C7.12317 5.08106 8.59763 7.05463 8.64305 7.12266C8.84721 7.4856 8.80184 7.93929 8.55231 8.27953L7.89444 9.11888C7.8037 9.2323 7.78102 9.39109 7.84907 9.5272C7.93981 9.70867 8.03055 9.89015 8.12129 10.0943C8.55229 10.911 9.23284 11.7956 9.89066 12.4308C10.5485 13.0887 11.161 13.4969 11.9776 13.928C12.1591 14.0187 12.3406 14.1094 12.5448 14.2002C12.6809 14.2682 12.8397 14.2455 12.9531 14.1548L13.7924 13.4969C14.1327 13.2474 14.5864 13.2247 14.9493 13.4062C14.9947 13.4289 16.9909 14.926 17.0363 14.9714C17.5353 15.4251 17.49 16.2418 16.9228 16.6501L15.6525 17.6709C13.4068 19.5537 10.6392 17.2853 8.96076 15.7427C8.73392 15.5386 8.18949 14.9941 7.64507 14.4497C7.10065 13.9053 6.55622 13.3608 6.35204 13.134C4.76413 11.4553 2.49569 8.68785 4.37852 6.41941L4.37834 6.41944Z" fill="#554D4D"/>
</svg>
