<svg xmlns="http://www.w3.org/2000/svg" width="16" height="16" viewBox="0 0 20 20">
    <g fill="blue" fill-rule="evenodd">
        <g>
            <g>
                <path fill="#FFF" d="M0 0H20V20H0z" transform="translate(-1148 -422) translate(1148 422) matrix(-1 0 0 1 20 0)"/>
                <path fill="blue" d="M10.892 2.3c.4-.4 1-.4 1.4 0l5.394 5.41c.4.4.4 1.101.1 1.502-.2.2-.799.6-1.398 0l-.6-.601-3.697 6.71 1 1.002c.4.401.4 1.002 0 1.403-.2.201-.9.5-1.4 0l-3.996-4.007-3.697 3.707L2.6 16.023l3.597-3.706-2.398-2.404L2.3 8.41c-.4-.4-.4-1.001 0-1.402.4-.4.999-.4 1.399 0l.999 1.002 6.794-3.706-.6-.601c-.4-.4-.4-1.002 0-1.403z" transform="translate(-1148 -422) translate(1148 422)"/>
            </g>
        </g>
    </g>
</svg>
