<svg width="17" height="17" viewBox="0 0 17 17" fill="none" xmlns="http://www.w3.org/2000/svg">
<path fill-rule="evenodd" clip-rule="evenodd" d="M10.9724 1.3781L15.7492 6.1671C16.1032 6.52171 16.1035 7.14257 15.8378 7.49748C15.6611 7.67479 15.1301 8.0297 14.5995 7.49718L14.0688 6.96527L10.7957 12.907L11.6801 13.7939C12.0341 14.1485 12.0338 14.6807 11.6801 15.0356C11.5034 15.2135 10.8841 15.4789 10.4417 15.0353L6.903 11.488L3.63329 14.7675L3.62993 14.7703L1.93944 15.2215L2.39156 13.5276L5.57628 10.2463L2.12622 6.78766C1.77223 6.43306 1.77253 5.90084 2.12622 5.54654C2.47991 5.19163 3.0109 5.19133 3.36459 5.54624L4.24957 6.43306L10.2647 3.15204L9.73403 2.61952C9.38004 2.26492 9.38004 1.73301 9.73403 1.3784C10.0877 1.02349 10.6184 1.02349 10.9724 1.3781Z" fill="#9C9696"/>
</svg>
