<svg width="17" height="17" viewBox="0 0 17 17" fill="none" xmlns="http://www.w3.org/2000/svg">
<path fill-rule="evenodd" clip-rule="evenodd" d="M10.8511 1.3781L15.6278 6.1671C15.9818 6.52171 15.9821 7.14257 15.7165 7.49748C15.5398 7.67479 15.0088 8.0297 14.4781 7.49718L13.9474 6.96527L10.6744 12.907L11.5587 13.7939C11.9127 14.1485 11.9124 14.6807 11.5587 15.0356C11.3821 15.2135 10.7627 15.4789 10.3204 15.0353L6.78166 11.488L3.51195 14.7675L3.50859 14.7703L1.8181 15.2215L2.27022 13.5276L5.45495 10.2463L2.00488 6.78766C1.65089 6.43306 1.65119 5.90084 2.00488 5.54654C2.35857 5.19163 2.88956 5.19133 3.24325 5.54624L4.12823 6.43306L10.1434 3.15204L9.61269 2.61952C9.2587 2.26492 9.2587 1.73301 9.61269 1.3784C9.96638 1.02349 10.4971 1.02349 10.8511 1.3781Z" fill="#EE4136"/>
</svg>
