<svg width="21" height="21" viewBox="0 0 21 21" fill="none" xmlns="http://www.w3.org/2000/svg">
<path fill-rule="evenodd" clip-rule="evenodd" d="M13.389 2.2904L19.3599 8.27666C19.8024 8.71991 19.8028 9.496 19.4707 9.93963C19.2499 10.1613 18.5861 10.6049 17.9228 9.93925L17.2594 9.27437L13.1681 16.7016L14.2736 17.8101C14.7161 18.2534 14.7157 18.9186 14.2736 19.3623C14.0527 19.5847 13.2785 19.9163 12.7256 19.3619L8.30221 14.9278L4.21508 19.0272L4.21087 19.0306L2.09776 19.5946L2.66292 17.4773L6.64382 13.3756L2.33124 9.05236C1.88875 8.6091 1.88913 7.94384 2.33124 7.50096C2.77335 7.05732 3.43709 7.05694 3.8792 7.50058L4.98543 8.6091L12.5044 4.50783L11.841 3.84218C11.3985 3.39893 11.3985 2.73404 11.841 2.29078C12.2831 1.84715 12.9465 1.84715 13.389 2.2904Z" fill="#9C9696"/>
</svg>
