<svg xmlns="http://www.w3.org/2000/svg" width="60" height="60" viewBox="0 0 60 60">
    <g fill="none" fill-rule="evenodd">
        <g fill="#FFF" fill-rule="nonzero">
            <g>
                <g>
                    <path d="M30 0C13.431 0 0 13.431 0 30c0 16.569 13.431 30 30 30 16.569 0 30-13.431 30-30C59.981 13.44 46.56.019 30 0z" opacity=".447" transform="translate(-615 -243) translate(474 172) translate(141 71)"/>
                    <path d="M24.63 16.224c-.3-.243-.712-.292-1.06-.126-.348.165-.57.516-.57.902v26c0 .386.222.737.57.902.348.166.76.117 1.06-.126l16-13c.234-.19.37-.475.37-.776 0-.301-.136-.586-.37-.776l-16-13z" transform="translate(-615 -243) translate(474 172) translate(141 71)"/>
                </g>
            </g>
        </g>
    </g>
</svg>
