<svg width="16" height="16" viewBox="0 0 16 16" fill="none" xmlns="http://www.w3.org/2000/svg">
<path d="M1.65274 16C1.1909 16 0.799987 15.84 0.480001 15.52C0.16 15.2 0 14.8091 0 14.3473V2.10993C0 1.64809 0.16 1.25717 0.480001 0.937169C0.799987 0.617168 1.1909 0.457167 1.65274 0.457167H10.022V1.82858H1.65274C1.5824 1.82858 1.51792 1.85788 1.45932 1.91649C1.4007 1.97511 1.37139 2.03959 1.37139 2.10993V14.3473C1.37139 14.4176 1.4007 14.4821 1.45932 14.5407C1.51792 14.5993 1.5824 14.6286 1.65274 14.6286H13.8901C13.9604 14.6286 14.0249 14.5993 14.0835 14.5407C14.1421 14.4821 14.1714 14.4176 14.1714 14.3473V5.978H15.5428V14.3473C15.5428 14.8091 15.3828 15.2 15.0628 15.52C14.7428 15.84 14.3519 16 13.8901 16H1.65274ZM4.34285 12.5714V11.2001H11.2V12.5714H4.34285ZM4.34285 9.82858V8.45719H11.2V9.82858H4.34285ZM4.34285 7.08571V5.71432H11.2V7.08571H4.34285ZM12.8 5.02856V3.19999H10.9715V1.82858H12.8V0H14.1714V1.82858H16V3.19999H14.1714V5.02856H12.8Z" fill="#9C9696"/>
</svg>
