<svg width="15" height="15" viewBox="0 0 15 15" fill="none" xmlns="http://www.w3.org/2000/svg">
<g id="Group 4889">
<rect id="Rectangle 401" x="0.939453" y="0.378906" width="14" height="14" rx="1" fill="#C53F1E"/>
<path id="Vector" d="M8.67343 2.9624C9.53909 2.90398 10.3973 3.15544 11.0946 3.67177C11.6761 4.19097 11.9869 4.94859 11.9374 5.72662C11.9469 6.26747 11.8028 6.79993 11.5218 7.26214C11.2373 7.7164 10.8275 8.07865 10.3417 8.30516C9.78632 8.56346 9.17914 8.69099 8.5668 8.67798H6.88477V11.8041H5.16211V2.9624H8.67343ZM6.88332 7.32743H8.3659C8.83591 7.36195 9.30226 7.22284 9.67657 6.93648C9.98616 6.63949 10.1484 6.22069 10.1197 5.79264C10.1197 4.81828 9.5535 4.3311 8.42103 4.3311H6.88334V7.32743H6.88332Z" fill="white"/>
</g>
</svg>
