<svg width="19" height="19" viewBox="0 0 19 19" fill="none" xmlns="http://www.w3.org/2000/svg">
<path fill-rule="evenodd" clip-rule="evenodd" d="M1.57635 0.78931C1.99806 0.507402 2.47794 0.430664 2.84098 0.430664H5.91654C6.94882 0.430664 7.79654 1.27838 7.79654 2.31066C7.79654 3.30101 7.94949 4.25169 8.243 5.13221L8.24572 5.14039L8.24831 5.14862C8.452 5.79674 8.30366 6.52779 7.80083 7.04924L7.76667 7.08467L6.6056 8.07307C7.68189 9.94472 9.37044 11.5884 11.204 12.6336L12.1207 11.4834L12.1605 11.4436C12.6638 10.9403 13.4046 10.7606 14.0802 10.9881C14.9691 11.2757 15.9207 11.4351 16.9032 11.4351C17.9355 11.4351 18.7832 12.2828 18.7832 13.3151V16.3818C18.7832 16.7744 18.6868 17.253 18.3985 17.6639C18.0815 18.1157 17.5639 18.4307 16.9032 18.4307C8.10241 18.4307 0.783203 11.1211 0.783203 2.31066C0.783203 1.63439 1.1019 1.10647 1.57635 0.78931ZM2.78375 2.43334C2.85111 10.0429 9.17894 16.3628 16.7806 16.4301C16.7823 16.4147 16.7832 16.3984 16.7832 16.3818V13.4345C15.6538 13.4222 14.5611 13.2378 13.5377 12.9144L11.7588 15.1465L11.0415 14.8043C8.32898 13.5104 5.80281 11.0826 4.44656 8.26429L4.11207 7.56922L6.32074 5.68902C5.98486 4.65484 5.80882 3.55736 5.79716 2.43066H2.84098C2.82095 2.43066 2.80173 2.43163 2.78375 2.43334Z" fill="#9C9696"/>
</svg>
