<svg width="16" height="17" viewBox="0 0 16 17" fill="none" xmlns="http://www.w3.org/2000/svg">
<g clip-path="url(#clip0_1101_245)">
<rect x="2.26172" y="6.60526" width="12.3894" height="8.90665" fill="#EE4136"/>
<path d="M14.2983 1.68621H13.4552V0H11.769V1.68621H5.02413V0H3.33791V1.68621H2.49481C1.55896 1.68621 0.817025 2.44501 0.817025 3.37243L0.808594 15.1759C0.808594 16.1033 1.55896 16.8621 2.49481 16.8621H14.2983C15.2257 16.8621 15.9845 16.1033 15.9845 15.1759V3.37243C15.9845 2.44501 15.2257 1.68621 14.2983 1.68621ZM14.2983 15.1759H2.49481V6.74485H14.2983V15.1759ZM14.2983 5.05864H2.49481V3.37243H14.2983V5.05864Z" fill="#EE4136"/>
<path d="M4.18091 10.1173H5.86712V8.43108H4.18091V10.1173Z" fill="white"/>
<path d="M7.55334 10.1173H9.23955V8.43108H7.55334V10.1173Z" fill="white"/>
<path d="M10.9258 10.1173H12.612V8.43108H10.9258V10.1173Z" fill="white"/>
<path d="M4.18091 13.4897H5.86712V11.8035H4.18091V13.4897Z" fill="white"/>
<path d="M7.55334 13.4897H9.23955V11.8035H7.55334V13.4897Z" fill="white"/>
<path d="M10.9258 13.4897H12.612V11.8035H10.9258V13.4897Z" fill="white"/>
</g>
<defs>
<clipPath id="clip0_1101_245">
<rect width="16" height="17" fill="white"/>
</clipPath>
</defs>
</svg>
