<svg width="16" height="17" viewBox="0 0 16 17" fill="none" xmlns="http://www.w3.org/2000/svg">
<path d="M14.2983 1.68621H13.4552V0H11.769V1.68621H5.02413V0H3.33791V1.68621H2.49481C1.55896 1.68621 0.817025 2.44501 0.817025 3.37243L0.808594 15.1759C0.808594 16.1033 1.55896 16.8621 2.49481 16.8621H14.2983C15.2257 16.8621 15.9845 16.1033 15.9845 15.1759V3.37243C15.9845 2.44501 15.2257 1.68621 14.2983 1.68621ZM14.2983 15.1759H2.49481V6.74485H14.2983V15.1759ZM14.2983 5.05864H2.49481V3.37243H14.2983V5.05864ZM5.86723 10.1173H4.18102V8.43107H5.86723V10.1173ZM9.23966 10.1173H7.55345V8.43107H9.23966V10.1173ZM12.6121 10.1173H10.9259V8.43107H12.6121V10.1173ZM5.86723 13.4897H4.18102V11.8035H5.86723V13.4897ZM9.23966 13.4897H7.55345V11.8035H9.23966V13.4897ZM12.6121 13.4897H10.9259V11.8035H12.6121V13.4897Z" fill="#9C9696"/>
</svg>
