<svg width="18" height="19" viewBox="0 0 18 19" fill="none" xmlns="http://www.w3.org/2000/svg">
<path fill-rule="evenodd" clip-rule="evenodd" d="M0 0.332031V18.332H18V0.332031H0ZM5.59867 15.286H2.92811V7.25139H5.59867V15.286ZM4.26339 6.15477H4.24575C3.3499 6.15477 2.76923 5.53759 2.76923 4.76616C2.76923 3.9778 3.36687 3.37811 4.28087 3.37811C5.19508 3.37811 5.75687 3.9778 5.77436 4.76616C5.77436 5.53759 5.19508 6.15477 4.26339 6.15477ZM15.2308 15.286H12.5595V10.9874C12.5595 9.90779 12.1735 9.17082 11.2067 9.17082C10.4684 9.17082 10.0296 9.66703 9.83631 10.1477C9.76605 10.3194 9.74769 10.558 9.74769 10.7988V15.286H7.0759C7.0759 15.286 7.1117 8.00517 7.0759 7.25143H9.74769V8.38994C10.1027 7.84373 10.7362 7.06281 12.1552 7.06281C13.9131 7.06281 15.2308 8.21085 15.2308 10.6785V15.286Z" fill="#0072B1"/>
</svg>
