<?xml version="1.0" encoding="UTF-8"?>
<svg width="18px" height="16px" viewBox="0 0 18 16" version="1.1" xmlns="http://www.w3.org/2000/svg" xmlns:xlink="http://www.w3.org/1999/xlink">
    <title>doubletick_red</title>
    <g id="Page-1" stroke="none" stroke-width="1" fill="none" fill-rule="evenodd">
        <g id="Group" transform="translate(0.967300, 0.000000)">
            <path d="M14.4,8 C14.4,11.52 11.52,14.4 8,14.4 C4.48,14.4 1.6,11.52 1.6,8 C1.6,4.48 4.48,1.6 8,1.6 C8.64,1.6 9.2,1.68 9.76,1.84 L11.04,0.56 C10.08,0.24 9.04,0 8,0 C3.6,0 0,3.6 0,8 C0,12.4 3.6,16 8,16 C12.4,16 16,12.4 16,8 L14.4,8 Z" id="Fill-21" fill="#EE4136"></path>
            <polygon id="Fill-23" fill="#EE4136" points="13.28 3.475 12.473 2.667 8.839 6.3 9.647 7.108 12.926 3.83"></polygon>
            <polygon id="Stroke-25" stroke="#EE4136" stroke-width="0.7" points="13.28 3.475 12.473 2.667 8.839 6.3 9.647 7.108 12.926 3.83"></polygon>
            <polygon id="Fill-27" fill="#EE4136" points="15.5523 2.5255 9.6483 8.7295 7.2523 6.3395 6.4443 7.1475 9.6473 10.3525 16.5253 3.4755 15.7113 2.6675"></polygon>
            <polygon id="Stroke-29" stroke="#EE4136" stroke-width="0.7" points="15.5523 2.5255 9.6483 8.7295 7.2523 6.3395 6.4443 7.1475 9.6473 10.3525 16.5253 3.4755 15.7113 2.6675"></polygon>
            <path d="M3.2,7.148 L6.404,10.352 L7.212,9.544 L4.014,6.34 C4.014,6.34 3.2,7.148 3.2,7.148" id="Fill-31" fill="#EE4136"></path>
            <path d="M3.2,7.148 L6.404,10.352 L7.212,9.544 L4.014,6.34 C4.014,6.34 3.2,7.148 3.2,7.148 Z" id="Stroke-33" stroke="#EE4136" stroke-width="0.7"></path>
        </g>
    </g>
</svg>