<?xml version="1.0" encoding="UTF-8"?>
<svg width="20px" height="20px" viewBox="0 0 20 20" version="1.1" xmlns="http://www.w3.org/2000/svg" xmlns:xlink="http://www.w3.org/1999/xlink">
    <title>Remove Connections</title>
    <g id="iOS" stroke="none" stroke-width="1" fill="none" fill-rule="evenodd">
        <g id="Remove-Connections" fill="#9C9696">
            <path d="M8.88888889,-1.61845845e-13 C11.4415111,-1.61845845e-13 13.5111111,2.0696 13.5111111,4.62222222 C13.5111111,7.17484444 11.4415111,9.24444444 8.88888889,9.24444444 C6.33626667,9.24444444 4.26666667,7.17484444 4.26666667,4.62222222 C4.26666667,2.0696 6.33626667,-1.61845845e-13 8.88888889,-1.61845845e-13" id="Fill-1"></path>
            <polygon id="Fill-3" transform="translate(14.577778, 14.577778) rotate(43.000000) translate(-14.577778, -14.577778) " points="17.7777778 13.5111111 15.6444444 13.5111111 15.6444444 11.3777778 13.5111111 11.3777778 13.5111111 13.5111111 11.3777778 13.5111111 11.3777778 15.6444444 13.5111111 15.6444444 13.5111111 17.7777778 15.6444444 17.7777778 15.6444444 15.6444444 17.7777778 15.6444444"></polygon>
            <path d="M8.82682527,14.5777778 C8.82682527,13.3863111 9.24499612,12.2983111 9.92797173,11.4097778 C9.56938195,11.3916444 9.20637876,11.3777778 8.82682527,11.3777778 C5.30492199,11.3777778 2.71535212,12.2257778 1.28319972,12.8519111 C0.496508922,13.1964444 2.07241631e-14,13.9559111 2.07241631e-14,14.7911111 L2.07241631e-14,17.7777778 L9.95555556,17.7777778 C9.25713301,16.8839111 8.82682527,15.7841778 8.82682527,14.5777778" id="Fill-5"></path>
        </g>
    </g>
</svg>