<svg width="16" height="19" viewBox="0 0 16 19" fill="none" xmlns="http://www.w3.org/2000/svg">
<path d="M0.856746 18.5714C0.613792 18.5714 0.410268 18.4893 0.246172 18.325C0.0820574 18.1608 0 17.9572 0 17.7143V1.03297C0 0.740307 0.099 0.494982 0.297001 0.297001C0.494982 0.0990001 0.740307 0 1.03297 0H8.39777C8.64164 0 8.85938 0.0765622 9.051 0.229687C9.24262 0.382792 9.36334 0.581688 9.41315 0.826374L9.70986 2.28572H14.967C15.2597 2.28572 15.505 2.3843 15.703 2.58147C15.901 2.77861 16 3.0229 16 3.31433V11.543C16 11.8345 15.901 12.0787 15.703 12.2758C15.505 12.4729 15.2597 12.5714 14.967 12.5714H9.88795C9.64408 12.5714 9.42634 12.4949 9.23472 12.3417C9.0431 12.1886 8.92238 11.9897 8.87257 11.745L8.57586 10.2857H1.71426V17.7143C1.71426 17.9572 1.63208 18.1608 1.46772 18.325C1.30338 18.4893 1.09972 18.5714 0.856746 18.5714ZM10.4572 10.8572H14.2857V3.99999H8.28571L7.82857 1.71426H1.71426V8.57143H10L10.4572 10.8572Z" fill="#9C9696"/>
</svg>
