<svg width="10" height="12" viewBox="0 0 10 12" fill="none" xmlns="http://www.w3.org/2000/svg">
<path d="M0.865321 11.5C0.681987 11.5 0.528311 11.438 0.404291 11.314C0.280272 11.19 0.218262 11.0363 0.218262 10.8529V1.14706C0.218262 0.963726 0.280272 0.810049 0.404291 0.686029C0.528311 0.56201 0.681987 0.5 0.865321 0.5H5.50797C5.65895 0.5 5.79375 0.548529 5.91238 0.645588C6.03101 0.742647 6.1065 0.866667 6.13885 1.01765L6.30062 1.79412H9.27709C9.46042 1.79412 9.6141 1.85613 9.73812 1.98015C9.86213 2.10417 9.92414 2.25784 9.92414 2.44118V7.61765C9.92414 7.80098 9.86213 7.95466 9.73812 8.07868C9.6141 8.2027 9.46042 8.26471 9.27709 8.26471H5.92856C5.77758 8.26471 5.64277 8.21618 5.52414 8.11912C5.40552 8.02206 5.33003 7.89804 5.29767 7.74706L5.13591 6.97059H1.51238V10.8529C1.51238 11.0363 1.45037 11.19 1.32635 11.314C1.20233 11.438 1.04865 11.5 0.865321 11.5Z" fill="#9C9696"/>
</svg>
