<svg width="16" height="16" viewBox="0 0 16 16" fill="none" xmlns="http://www.w3.org/2000/svg">
<path fill-rule="evenodd" clip-rule="evenodd" d="M4 1.39683V14.6032C4 15.3746 4.61561 16 5.375 16H14.625C15.3844 16 16 15.3746 16 14.6032V3.67563C16 3.30251 15.8531 2.9449 15.5919 2.68251L13.3239 0.403706C13.0665 0.145065 12.7191 0 12.357 0H5.375C4.61561 0 4 0.62538 4 1.39683ZM4.875 14.6032V1.39683C4.875 1.1163 5.09886 0.888889 5.375 0.888889H12.1875V3.93651C12.1875 4.46249 12.6072 4.88889 13.125 4.88889H15.125V14.6032C15.125 14.8837 14.9011 15.1111 14.625 15.1111H5.375C5.09886 15.1111 4.875 14.8837 4.875 14.6032ZM15.125 4V3.67563C15.125 3.53995 15.0716 3.40991 14.9766 3.3145L13.0625 1.39127V3.93651C13.0625 3.97157 13.0905 4 13.125 4H15.125Z" fill="#9C9696"/>
<rect y="3.3335" width="11.3333" height="10" rx="1" fill="#9C9696"/>
<path d="M1.25588 10V7.2H2.53588C2.79188 7.2 3.01188 7.24133 3.19588 7.324C3.38255 7.40667 3.52655 7.52667 3.62788 7.684C3.72921 7.83867 3.77988 8.02267 3.77988 8.236C3.77988 8.44667 3.72921 8.62933 3.62788 8.784C3.52655 8.93867 3.38255 9.05867 3.19588 9.144C3.01188 9.22667 2.79188 9.268 2.53588 9.268H1.69588L2.04788 8.924V10H1.25588ZM2.04788 9.008L1.69588 8.644H2.48788C2.65321 8.644 2.77588 8.608 2.85588 8.536C2.93855 8.464 2.97988 8.364 2.97988 8.236C2.97988 8.10533 2.93855 8.004 2.85588 7.932C2.77588 7.86 2.65321 7.824 2.48788 7.824H1.69588L2.04788 7.46V9.008ZM4.46603 10V7.2H5.79004C6.09937 7.2 6.37137 7.25733 6.60603 7.372C6.8407 7.48667 7.02337 7.648 7.15404 7.856C7.28737 8.064 7.35404 8.312 7.35404 8.6C7.35404 8.88533 7.28737 9.13333 7.15404 9.344C7.02337 9.552 6.8407 9.71333 6.60603 9.828C6.37137 9.94267 6.09937 10 5.79004 10H4.46603ZM5.25803 9.368H5.75803C5.91803 9.368 6.0567 9.33867 6.17403 9.28C6.29404 9.21867 6.38737 9.13067 6.45404 9.016C6.5207 8.89867 6.55403 8.76 6.55403 8.6C6.55403 8.43733 6.5207 8.29867 6.45404 8.184C6.38737 8.06933 6.29404 7.98267 6.17403 7.924C6.0567 7.86267 5.91803 7.832 5.75803 7.832H5.25803V9.368ZM8.80672 8.428H10.0987V9.04H8.80672V8.428ZM8.86272 10H8.07072V7.2H10.2667V7.812H8.86272V10Z" fill="#F8F8F8"/>
</svg>
