<svg width="16" height="16" viewBox="0 0 16 16" fill="none" xmlns="http://www.w3.org/2000/svg">
<mask id="mask0_4562_97857" style="mask-type:alpha" maskUnits="userSpaceOnUse" x="0" y="0" width="16" height="16">
<rect width="16" height="16" fill="#D9D9D9"/>
</mask>
<g mask="url(#mask0_4562_97857)">
<path d="M6.20992 12.3015C6.06997 12.1616 6 11.9835 6 11.7672C6 11.5509 6.06997 11.3728 6.20992 11.2328L9.18702 8.25573L6.20992 5.27863C6.06997 5.13868 6 4.96056 6 4.74427C6 4.52799 6.06997 4.34987 6.20992 4.20992C6.34987 4.06997 6.52799 4 6.74427 4C6.96056 4 7.13868 4.06997 7.27863 4.20992L10.7901 7.72137C10.8664 7.79771 10.9205 7.88041 10.9523 7.96947C10.9841 8.05852 11 8.15394 11 8.25573C11 8.35751 10.9841 8.45293 10.9523 8.54199C10.9205 8.63104 10.8664 8.71374 10.7901 8.79008L7.27863 12.3015C7.13868 12.4415 6.96056 12.5115 6.74427 12.5115C6.52799 12.5115 6.34987 12.4415 6.20992 12.3015Z" fill="white"/>
</g>
</svg>
