<svg width="120" height="137" viewBox="0 0 120 137" fill="none" xmlns="http://www.w3.org/2000/svg">
<path d="M22.5058 38.2267C25.9037 33.48 36.5589 23.9868 51.9971 23.9868C54.1499 23.9609 59.9496 24.4693 65.9257 26.7103" stroke="#554D4D" stroke-width="1.3" stroke-linecap="round"/>
<path d="M110.061 134.746L106.216 135.375L103.629 134.746L78.3917 104.615L78.8111 102.448L87.6197 95.1073L89.9267 94.6879L115.234 124.679L115.583 129.223L110.061 134.746Z" fill="#979797"/>
<path d="M17.3324 47.5976C17.7656 46.3888 19.0259 43.4676 20.6012 41.4522" stroke="#554D4D" stroke-width="1.3" stroke-linecap="round"/>
<line x1="88.8659" y1="100.063" x2="110.329" y2="125.162" stroke="#F2F2F2" stroke-width="2" stroke-linecap="round"/>
<path fill-rule="evenodd" clip-rule="evenodd" d="M71.9054 1.46655C70.7269 2.06041 69.7365 2.62717 69.6743 2.74354C69.5823 2.91528 69.7632 3.35643 70.6894 5.21889C71.7111 7.27353 71.8417 7.48518 72.0881 7.48518C72.4475 7.48518 76.6493 5.37838 76.735 5.15522C76.8009 4.98326 74.8193 0.833757 74.5279 0.533599C74.4497 0.453049 74.3045 0.389814 74.2052 0.392933C74.1059 0.396159 73.0711 0.87925 71.9054 1.46655ZM74.8279 3.08413C75.2438 3.91685 75.5841 4.65837 75.5841 4.73193C75.5841 4.84678 72.3631 6.48243 72.3197 6.38962C72.3111 6.37112 71.9506 5.63659 71.5186 4.75741C71.0867 3.87824 70.7587 3.13339 70.7897 3.10241C70.9336 2.95852 73.7234 1.58582 73.8869 1.5785C74.02 1.57259 74.2833 1.99373 74.8279 3.08413ZM47.9932 20.3421C44.0632 20.7328 40.2829 21.6389 36.8098 23.0227C28.4789 26.3422 21.6927 32.0677 16.8581 39.8561C16.2693 40.8046 14.6408 43.9294 14.3919 44.5881C14.3136 44.7951 14.166 45.1581 14.0637 45.3947C13.6532 46.3443 12.884 48.5997 12.4684 50.0729C11.8496 52.2657 11.4974 54.0815 11.2114 56.5538C11.1406 57.1656 11.0288 57.3857 10.897 57.1725C10.791 57.001 10.3346 57.0448 10.2622 57.2334C10.1398 57.5521 10.1968 57.7211 10.5814 58.1813L10.9659 58.6413L11.0008 61.3205C11.0378 64.1518 11.1345 65.3847 11.4978 67.6564C11.7276 69.0937 12.3847 71.8922 12.7927 73.1716C13.4334 75.1806 14.7078 78.3114 15.407 79.5938C15.6005 79.9487 15.9683 80.6263 16.2244 81.0995C17.8988 84.1941 20.9954 88.166 23.6686 90.6482C28.0628 94.7284 31.5807 96.9328 37.6208 99.3912C38.9201 99.92 42.5578 100.894 44.6112 101.263C48.8875 102.031 53.798 102.108 57.8392 101.472C63.639 100.559 68.5026 98.7756 73.3468 95.7866C74.2161 95.2503 74.9662 94.8136 75.0138 94.8161C75.0613 94.8187 75.3421 95.1265 75.6378 95.5C75.9336 95.8736 76.5385 96.6053 76.9821 97.126C78.73 99.1775 79.8815 100.568 79.8837 100.63C79.8849 100.665 79.6013 100.931 79.2535 101.221C78.9058 101.511 78.4594 101.983 78.2617 102.269C77.9567 102.711 77.8957 102.904 77.8598 103.538C77.8366 103.95 77.8773 104.499 77.9503 104.76C78.0977 105.286 78.4071 105.676 83.5961 111.859C85.3706 113.974 87.1307 116.073 87.5074 116.523C87.8842 116.973 88.3201 117.487 88.4762 117.665C88.7186 117.94 93.9428 124.177 95.0496 125.513C96.0857 126.763 99.2935 130.577 99.3479 130.624C99.3823 130.653 100.014 131.401 100.752 132.285C102.374 134.228 102.86 134.726 103.592 135.194C105.298 136.286 107.818 136.387 109.602 135.437C110.261 135.085 114.028 131.998 114.711 131.25C116.051 129.78 116.599 127.804 116.195 125.902C115.897 124.502 115.609 124.061 112.851 120.772C112.261 120.068 111.673 119.372 111.545 119.224C111.417 119.076 110.747 118.278 110.056 117.45C109.366 116.621 108.719 115.847 108.619 115.729C107.4 114.286 103.963 110.19 101.717 107.502C101.495 107.236 100.478 106.026 99.457 104.813C98.4366 103.601 97.4191 102.391 97.196 102.124C92.7113 96.7729 90.9865 94.7586 90.709 94.5486C90.5234 94.408 90.1147 94.2096 89.801 94.1078C88.7656 93.7715 87.818 94.0346 86.7149 94.9648C86.4192 95.2141 86.1214 95.451 86.0533 95.491C85.936 95.56 81.0688 89.8795 81.0688 89.6736C81.0688 89.6243 81.244 89.4172 81.458 89.2133C82.0131 88.6848 84.0192 86.3003 84.7702 85.2764C86.4459 82.9917 88.4131 79.5247 89.4894 76.959C90.3231 74.9717 91.2626 72.0321 91.7578 69.8611C91.7965 69.6914 92.1569 69.3238 92.7354 68.864C93.6638 68.1263 93.8365 67.8306 93.5225 67.5166C93.3134 67.3075 93.1104 67.3644 92.6141 67.7711C92.0675 68.2191 92.0666 68.2164 92.3035 66.8706C92.7642 64.2523 92.797 58.5317 92.368 55.6114C91.2643 48.0991 88.5992 41.7786 84.059 35.9055C78.6369 28.8916 70.5974 23.6197 61.9797 21.4268C57.6937 20.3362 52.2779 19.9163 47.9932 20.3421ZM56.7155 21.6179C63.239 22.54 68.4959 24.4689 73.5407 27.7916C76.4866 29.732 78.7392 31.6443 81.1009 34.21C86.629 40.2155 90.0969 47.6543 91.2537 55.9878C91.5228 57.9265 91.5225 64.0678 91.2532 65.9895C90.1355 73.9649 87.1976 80.6719 82.2089 86.6369C81.1932 87.8514 78.9065 90.1381 77.5736 91.2723C71.4922 96.447 64.3593 99.5182 56.0647 100.533C54.5978 100.713 49.1863 100.711 47.6762 100.531C39.0667 99.5017 31.4066 96.087 25.3069 90.5592C23.9426 89.3228 23.7845 89.1689 22.8258 88.1436C17.6322 82.5906 14.1065 75.561 12.7928 68.1404C12.349 65.6335 12.2011 63.8871 12.1962 61.0962C12.1866 55.697 13.0152 51.3137 14.9992 46.2684C17.5567 39.7645 21.9768 33.9178 27.6192 29.5755C33.4984 25.0508 40.1537 22.3879 47.7518 21.5198C49.5149 21.3183 55.0224 21.3787 56.7155 21.6179ZM49.0949 28.1433C44.6229 28.5123 39.9444 29.8883 36.334 31.8966C34.6849 32.814 34.5673 32.8841 33.5026 33.5858C31.1066 35.165 28.1346 37.8373 26.468 39.9113C24.8366 41.9412 24.3819 42.59 23.3029 44.4268C21.0311 48.294 19.6105 52.5974 19.019 57.4034C18.6884 60.0893 18.8445 64.2114 19.3889 67.1724C20.3953 72.6467 22.9703 78.015 26.7141 82.4438C28.8872 85.0145 31.3691 87.1337 34.7171 89.2771C35.6337 89.8639 37.7786 90.949 39.4491 91.6708C39.7152 91.7859 40.538 92.0779 41.2773 92.3197C51.8623 95.7823 63.0896 93.9524 71.766 87.3503C75.8832 84.2175 79.1099 80.3265 81.433 75.6933C83.1937 72.1817 84.3428 68.0782 84.7327 63.9106C84.8916 62.2121 84.8044 58.1259 84.5751 56.5255C83.2679 47.402 78.1517 39.0874 70.637 33.8743C65.1557 30.0718 58.3311 27.9811 51.6016 28.043C50.8031 28.0503 49.6751 28.0955 49.0949 28.1433ZM54.5053 29.3206C62.5818 30.0432 69.9046 33.6337 75.2998 39.5166C80.0793 44.7282 82.9414 51.2596 83.5542 58.3538C83.7241 60.3213 83.6181 63.7884 83.3294 65.7001C82.8343 68.9788 81.837 72.1771 80.4055 75.077C79.8891 76.1231 79.7045 76.3981 79.4309 76.5288C78.9724 76.748 78.8271 77.004 79.0023 77.2843C79.1243 77.4799 79.0476 77.6374 78.275 78.7773C77.1736 80.4025 76.5866 81.14 75.2286 82.6051C70.1891 88.0424 63.8409 91.4205 56.4949 92.5742C55.2174 92.7747 54.5331 92.8114 51.978 92.816C48.7416 92.822 47.944 92.7499 45.4716 92.2285C43.5476 91.8228 41.6885 91.2777 40.1306 90.6626C30.9655 87.0439 24.0008 79.3609 21.225 69.8073C20.8664 68.5731 20.5192 67.0268 20.5337 66.7289C20.5406 66.5884 20.5666 66.546 20.5915 66.6347C20.6376 66.7981 23.1125 68.4545 23.4427 68.5429C23.6767 68.6056 24.0145 68.1063 23.8893 67.8827C23.7714 67.672 20.8801 65.7744 20.6769 65.7744C20.5913 65.7744 20.5181 65.8591 20.5144 65.9626C20.5086 66.1221 20.4944 66.1179 20.4215 65.9357C20.2283 65.4528 20.0455 63.0063 20.048 60.9349C20.0534 56.3782 20.8743 52.4336 22.6889 48.2446C23.4518 46.4833 24.1615 45.1845 25.3038 43.4589C26.7277 41.3079 27.3488 40.5562 29.4448 38.4467C32.0331 35.8419 34.6627 33.9784 38.051 32.3478C41.6538 30.6139 45.1769 29.674 49.5583 29.2777C50.4776 29.1945 53.3774 29.2196 54.5053 29.3206ZM0.278951 33.3765C0.0808533 33.6027 -0.0759487 35.7664 0.0390165 36.6864C0.121073 37.3431 0.353906 37.5854 0.716546 37.3914C0.894533 37.2961 0.921637 37.0854 0.977022 35.372C1.01778 34.1109 1.00057 33.4129 0.926581 33.3236C0.767415 33.1319 0.471993 33.156 0.278951 33.3765ZM0.686867 39.9175C0.593949 40.0105 0.517913 40.1769 0.517913 40.2873C0.517913 40.817 1.27987 43.5333 1.5042 43.8036C1.67509 44.0095 1.99041 43.9726 2.1627 43.7266C2.2967 43.5354 2.2682 43.3467 1.91513 42.0866C1.69563 41.3034 1.48506 40.533 1.44699 40.3745C1.37623 40.0792 1.11274 39.7486 0.948092 39.7486C0.897438 39.7486 0.779893 39.8246 0.686867 39.9175ZM116.334 42.5225C116.243 42.6286 116.135 42.7694 116.094 42.8354C115.982 43.0174 116.126 43.2918 116.299 43.2255C116.382 43.1933 116.451 43.2205 116.451 43.286C116.451 43.3515 116.522 43.4051 116.609 43.4051C116.697 43.4051 116.742 43.3411 116.712 43.261C116.636 43.0639 116.941 42.81 117.047 42.9817C117.089 43.0503 117.057 43.1487 116.976 43.2003C116.858 43.2748 116.866 43.2946 117.014 43.2959C117.123 43.2969 117.228 43.1871 117.267 43.0294C117.304 42.882 117.378 42.788 117.43 42.8207C117.543 42.8906 117.561 42.7222 117.451 42.613C117.41 42.5717 117.311 42.6484 117.232 42.7834C117.097 43.0141 117.092 43.0062 117.153 42.6523C117.195 42.4018 117.183 42.3249 117.116 42.4224C117.03 42.5462 117.006 42.5462 116.961 42.4224C116.925 42.3261 116.869 42.3694 116.798 42.5491C116.646 42.9278 116.366 43.1481 116.221 43.0025C116.141 42.9225 116.17 42.8685 116.321 42.8207C116.439 42.7833 116.56 42.6575 116.591 42.5412C116.66 42.2775 116.55 42.2695 116.334 42.5225ZM52.9997 43.3904C52.1798 43.4707 52.0318 43.5459 52.0318 43.8823C52.0318 44.0194 52.0923 44.1759 52.1662 44.2299C52.3287 44.3488 55.9011 44.3481 56.0916 44.2292C56.2902 44.1051 56.2547 43.6429 56.0378 43.5287C55.7814 43.3937 53.8584 43.3061 52.9997 43.3904ZM48.8359 44.3191C48.233 44.5008 46.4631 45.3668 46.084 45.6657C45.865 45.8384 45.7913 45.9812 45.8152 46.1868C45.8781 46.7303 46.1587 46.645 49.2356 45.1476C49.6663 44.938 49.7695 44.6055 49.4823 44.3524C49.316 44.2059 49.2269 44.2012 48.8359 44.3191ZM58.6637 44.3372C58.6243 44.3765 58.592 44.5429 58.592 44.7067C58.592 44.9769 58.6851 45.0487 59.5925 45.4785C60.1428 45.7391 60.8696 46.1294 61.2077 46.3457C61.8829 46.7776 62.0506 46.8161 62.2436 46.5836C62.6155 46.1354 62.1245 45.677 60.2749 44.7451C59.3943 44.3014 58.8399 44.161 58.6637 44.3372ZM2.79786 46.2228C2.72688 46.2937 2.66881 46.471 2.66881 46.6167C2.66881 46.8809 3.94579 49.4204 4.2581 49.7771C4.47609 50.0261 4.89207 50.0168 5.02952 49.76C5.11846 49.5938 4.98338 49.2504 4.32101 47.9586C3.37484 46.1136 3.1562 45.8644 2.79786 46.2228ZM42.7234 48.3253C42.3846 48.6654 41.8482 49.2636 41.5311 49.6546C40.9026 50.4297 40.7972 50.8414 41.1756 51.0439C41.4218 51.1756 41.4232 51.1744 43.0582 49.365C44.1075 48.2038 44.1125 48.1959 43.9671 47.9242C43.7609 47.5388 43.3864 47.6595 42.7234 48.3253ZM64.0983 48.1586C63.8617 48.3952 63.9647 48.739 64.465 49.3819C64.7376 49.7324 65.1775 50.3941 65.4423 50.8526C65.867 51.5875 65.9604 51.686 66.2333 51.686C66.7163 51.686 66.8137 51.3784 66.5107 50.8103C65.8115 49.4988 64.7059 48.0295 64.4185 48.0295C64.3134 48.0295 64.1693 48.0876 64.0983 48.1586ZM5.99581 52.1291C5.88988 52.3269 5.94956 52.466 6.44523 53.1777C7.46841 54.6467 8.17638 55.4501 8.44782 55.4501C8.74099 55.4501 9.00028 55.0011 8.83412 54.7812C8.77691 54.7054 8.29791 54.0628 7.76975 53.353C7.2415 52.6432 6.76088 52.0268 6.70173 51.9834C6.48911 51.8272 6.11615 51.9042 5.99581 52.1291ZM105.355 54.0789C104.79 54.8627 104.296 55.6046 104.258 55.7278C104.16 56.0413 104.539 56.3804 104.837 56.2463C105.087 56.1334 106.958 53.5778 107.054 53.2171C107.134 52.9164 106.931 52.6539 106.618 52.6539C106.441 52.6539 106.134 52.9997 105.355 54.0789ZM39.1785 53.3261C38.8768 53.8297 38.1829 55.4098 37.9767 56.0628C37.7774 56.6939 37.8781 56.9557 38.3199 56.9557C38.6356 56.9557 38.7138 56.8445 39.0757 55.8803C39.2422 55.4366 39.5395 54.7363 39.7363 54.3239C40.144 53.47 40.1586 53.3789 39.9254 53.1455C39.6625 52.8828 39.4071 52.9445 39.1785 53.3261ZM67.0974 54.142C67.0251 54.2771 67.0385 54.5235 67.1395 54.9217C67.2206 55.2419 67.3418 55.891 67.4088 56.3642C67.4757 56.8374 67.5532 57.377 67.581 57.5633C67.6521 58.0408 67.8774 58.2056 68.236 58.0422C68.5152 57.915 68.5167 57.9079 68.4462 57.0316C68.364 56.0066 68.007 54.306 67.8293 54.0919C67.6539 53.8805 67.2215 53.9101 67.0974 54.142ZM101.754 58.7571C101.349 59.2155 100.812 59.8083 100.56 60.0745C99.8664 60.8058 99.8033 61.365 100.414 61.365C100.685 61.365 100.892 61.1802 101.828 60.1014C103.168 58.5591 103.253 58.4028 102.911 58.1261C102.774 58.0147 102.623 57.9236 102.576 57.9236C102.528 57.9236 102.159 58.2986 101.754 58.7571ZM37.1122 59.4561C37.0006 59.5995 36.7002 61.3759 36.5857 62.5706C36.5183 63.2744 36.5235 63.2955 36.7994 63.4212C37.2573 63.6298 37.4681 63.3478 37.5547 62.4107C37.594 61.9834 37.7027 61.185 37.7959 60.6364C37.9302 59.8461 37.9381 59.606 37.8337 59.4803C37.673 59.2866 37.2552 59.2726 37.1122 59.4561ZM67.5878 60.7467C67.5051 60.8797 67.3801 61.3032 67.3102 61.6877C67.2402 62.0721 67.0648 62.7809 66.9204 63.2627C66.5928 64.3557 66.5936 64.4592 66.9312 64.613C67.3896 64.8218 67.5845 64.4979 68.0052 62.828C68.2105 62.0126 68.3786 61.2144 68.3786 61.0541C68.3786 60.5047 67.8629 60.3041 67.5878 60.7467ZM96.6256 64.1791C95.8771 64.8986 95.2647 65.5734 95.2647 65.6785C95.2647 65.956 95.6807 66.2197 95.9181 66.0927C96.3275 65.8736 98.4972 63.6905 98.562 63.4325C98.6307 63.1585 98.3996 62.8707 98.1107 62.8707C98.0424 62.8707 97.3741 63.4595 96.6256 64.1791ZM36.5935 66.0642C36.4351 66.2226 36.4209 66.3948 36.4849 67.3816C36.5995 69.1455 36.7264 69.8928 36.9378 70.0473C37.1708 70.2178 37.2112 70.2173 37.4537 70.0399C37.6368 69.906 37.6419 69.816 37.5277 68.7225C37.4602 68.077 37.4053 67.2814 37.4054 66.9545C37.4058 66.0542 37.0232 65.6346 36.5935 66.0642ZM64.8735 67.6295C64.5329 68.1175 64.0207 68.7867 63.7353 69.1166C63.4499 69.4465 63.2164 69.7915 63.2164 69.8831C63.2164 70.1228 63.4878 70.3135 63.7707 70.2726C64.2036 70.2102 66.1201 67.7215 66.1201 67.2217C66.1201 66.9522 65.9263 66.7423 65.6774 66.7423C65.5679 66.7423 65.2409 67.1033 64.8735 67.6295ZM26.0275 69.4524C25.7848 69.6951 25.8945 69.9634 26.3555 70.2547C26.9879 70.6542 29.142 71.6872 29.3452 71.6884C29.5849 71.6898 29.7701 71.47 29.7701 71.1845C29.7701 70.9743 29.5325 70.8189 28.1582 70.1306C26.515 69.3076 26.2551 69.2248 26.0275 69.4524ZM60.259 72.1811C59.8449 72.4486 59.1674 72.8402 58.7533 73.0513C57.8706 73.5016 57.9898 73.4109 57.9009 73.6998C57.846 73.8788 57.8924 73.9777 58.0931 74.1092C58.3465 74.2751 58.3953 74.2635 59.25 73.8339C60.3569 73.2773 61.5614 72.4913 61.6463 72.2702C61.7432 72.0177 61.5178 71.689 61.25 71.6921C61.119 71.6936 60.673 71.9137 60.259 72.1811ZM32.0993 72.2792C31.6752 72.7032 31.9309 72.9218 33.5341 73.5051C34.2143 73.7527 34.8821 74.0019 35.0179 74.059C35.549 74.2822 36.0076 74.1222 36.0076 73.7136C36.0076 73.4373 35.6927 73.2688 34.1256 72.7065C32.3603 72.073 32.315 72.0635 32.0993 72.2792ZM37.693 72.6369C37.582 72.7595 37.535 72.9227 37.5753 73.0449C37.7284 73.509 38.3187 74.8736 38.4312 75.0232C38.4977 75.1119 38.683 75.4135 38.8427 75.6934C39.2572 76.4195 39.6314 76.5617 39.8843 76.0893C39.9612 75.9455 39.9571 75.814 39.8706 75.6523C39.7516 75.4299 39.7627 75.4239 40.1626 75.4926C41.9187 75.7946 42.1259 75.8121 42.2928 75.6736C42.4945 75.5063 42.5109 75.1975 42.3259 75.0493C42.252 74.99 41.5646 74.8111 40.7984 74.6518C40.0323 74.4925 39.3253 74.3192 39.2272 74.2667C39.1292 74.2144 38.9447 73.9154 38.8171 73.6025C38.4416 72.6817 38.3249 72.4977 38.0952 72.4643C37.9756 72.4469 37.7946 72.5246 37.693 72.6369ZM54.1289 74.698C53.7149 74.8068 53.0295 74.9523 52.6059 75.0215C51.6621 75.1753 51.4366 75.3174 51.5322 75.6984C51.5706 75.8515 51.691 76.005 51.7996 76.0394C52.0154 76.108 54.4104 75.6588 55.0906 75.4222C55.6022 75.2442 55.7919 74.9969 55.6231 74.7275C55.4628 74.4714 55.024 74.4628 54.1289 74.698ZM45.0423 75.4219C44.9042 75.5187 44.8271 75.672 44.8471 75.8106C44.9064 76.2225 45.302 76.3105 47.104 76.3121C48.4949 76.3134 48.8196 76.2842 48.9591 76.1448C49.1655 75.9383 49.1684 75.8723 48.9821 75.6175C48.8536 75.4419 48.6442 75.4134 47.2345 75.3797C46.3536 75.3587 45.5514 75.3237 45.4517 75.3018C45.352 75.2799 45.1678 75.334 45.0423 75.4219ZM41.2351 78.2046C41.087 78.5906 41.2036 78.7863 41.9495 79.403C43.1212 80.3716 43.9721 80.9382 44.2549 80.9382C44.424 80.9382 44.5511 80.8443 44.6369 80.6559C44.7815 80.3385 44.8629 80.4264 43.482 79.4102C43.0679 79.1055 42.5167 78.6713 42.257 78.4453C41.7622 78.0148 41.3455 77.9167 41.2351 78.2046ZM75.7454 78.2485C75.5088 78.3561 74.7728 78.6707 74.1097 78.9475C72.791 79.4979 72.5866 79.7091 72.9856 80.1082L73.2058 80.3285L74.4756 79.8085C76.7931 78.8596 77.0114 78.7078 76.6991 78.2619C76.5088 77.9904 76.3182 77.9877 75.7454 78.2485ZM69.9697 80.4583C69.938 80.4901 69.216 80.7133 68.3656 80.9542C66.4658 81.4924 66.1514 81.7166 66.6557 82.173C66.8947 82.3893 66.9971 82.3697 69.2668 81.6731C70.6257 81.2561 70.8537 81.0473 70.4219 80.6155C70.2043 80.3979 70.0751 80.353 69.9697 80.4583ZM46.8912 81.6049C46.7069 81.7892 46.7317 82.0608 46.9503 82.2547C47.2833 82.5499 50.2682 83.3849 50.5727 83.268C50.6577 83.2354 50.7769 83.1159 50.8376 83.0025C51.0309 82.6412 50.7509 82.4574 49.5045 82.1274C48.8538 81.9552 48.1097 81.7381 47.8509 81.6451C47.2868 81.4422 47.0632 81.4329 46.8912 81.6049ZM61.9797 82.3997C61.1516 82.539 60.3709 82.6779 60.2449 82.7085C59.9514 82.7796 59.8621 83.1196 60.062 83.405C60.2367 83.6544 60.1483 83.6588 62.4636 83.2863C64.0903 83.0246 64.4977 82.7607 63.9876 82.2991C63.7544 82.088 63.8668 82.0824 61.9797 82.3997ZM53.403 83.0084C53.1755 83.2358 53.1706 83.3102 53.3653 83.5764C53.5012 83.7623 53.6954 83.7865 55.3558 83.8245C57.3219 83.8696 57.5166 83.8276 57.5166 83.3579C57.5166 83.2246 57.4553 83.0644 57.3802 83.0023C57.3006 82.9361 56.4845 82.8747 55.4175 82.8546C53.7932 82.8239 53.5703 82.841 53.403 83.0084ZM116.559 89.7694C115.498 90.089 114.692 91.194 114.697 92.3219C114.706 94.7283 117.583 95.904 119.249 94.1826C119.792 93.6225 120 93.0835 120 92.2413C120 90.8861 118.933 89.7844 117.534 89.6945C117.205 89.6733 116.766 89.7069 116.559 89.7694ZM80.4537 90.8592C80.5431 90.9922 80.7059 91.1989 80.8156 91.3183C81.1289 91.6593 82.1803 92.8945 82.4718 93.2638C82.617 93.4477 83.0983 94.0285 83.5415 94.5544C83.9846 95.0802 84.4443 95.6257 84.5632 95.7667C84.6819 95.9077 84.8462 96.0923 84.9282 96.1769C85.012 96.2635 85.0355 96.3673 84.982 96.4139C83.8938 97.3632 80.9533 99.7585 80.8761 99.7585C80.767 99.7585 80.3509 99.317 79.617 98.4227C79.3804 98.1343 79.1371 97.845 79.0764 97.7799C79.0156 97.7147 78.605 97.2258 78.1638 96.6934C77.7227 96.1611 77.0586 95.3731 76.688 94.9424C76.3174 94.5117 76.0142 94.1224 76.0142 94.0773C76.0142 94.0322 76.4136 93.6994 76.9015 93.3376C77.3894 92.976 78.2969 92.2193 78.9179 91.6563C79.539 91.0932 80.1021 90.629 80.1692 90.6248C80.2363 90.6206 80.3644 90.7261 80.4537 90.8592ZM118.131 90.7917C119.157 91.279 119.403 92.703 118.599 93.5069C117.65 94.4566 116.046 94.0609 115.705 92.7924C115.316 91.348 116.772 90.1471 118.131 90.7917ZM89.9116 95.4769C90.0728 95.59 90.5801 96.1278 91.0391 96.6719C91.498 97.2161 91.9227 97.7138 91.9828 97.778C92.0429 97.8422 92.2616 98.105 92.4686 98.3617C92.6756 98.6185 93.2805 99.3441 93.8129 99.974C94.7452 101.077 97.5202 104.384 99.4945 106.743C100.017 107.367 100.526 107.975 100.625 108.093C100.944 108.472 104.126 112.277 104.351 112.55C104.47 112.694 104.74 113.009 104.951 113.249C105.162 113.489 105.96 114.436 106.723 115.352C107.486 116.269 109.025 118.108 110.142 119.439C111.259 120.77 112.253 121.956 112.351 122.074C112.448 122.192 112.935 122.773 113.431 123.365C113.928 123.956 114.474 124.736 114.644 125.099C115.216 126.317 115.27 127.549 114.808 128.796C114.418 129.85 114.045 130.332 112.845 131.341C112.551 131.588 111.73 132.281 111.02 132.88C110.31 133.48 109.488 134.109 109.192 134.278C107.619 135.177 105.61 135.089 104.047 134.054C103.539 133.718 102.445 132.471 98.4914 127.72C97.2853 126.271 95.6424 124.311 94.8407 123.365C94.0389 122.418 93.3031 121.547 93.2056 121.429C93.0199 121.203 92.0031 119.99 91.178 119.009C90.5946 118.315 89.4799 116.985 88.925 116.32C88.7028 116.054 87.9452 115.156 87.2416 114.325C86.5379 113.494 85.7927 112.6 85.5857 112.339C85.3787 112.078 85.0598 111.694 84.8771 111.485C84.6944 111.276 84.4437 110.983 84.3199 110.836C81.8577 107.893 80.3155 106.055 79.9563 105.635C79.2539 104.814 79.0267 104.382 79.026 103.867C79.0255 103.413 79.2541 102.82 79.5119 102.608C79.6216 102.518 83.1346 99.5605 83.8112 98.9885C88.0613 95.3969 88.1999 95.2875 88.5984 95.2136C89.0155 95.1362 89.5902 95.2515 89.9116 95.4769ZM16.6657 109.794C16.4737 110.026 18.7745 115.716 19.0781 115.76C19.2378 115.784 19.4617 115.575 19.9347 114.963C20.2869 114.508 20.7008 113.985 20.8547 113.803C21.9198 112.537 23.1106 110.905 23.0809 110.75C23.0455 110.566 22.9518 110.55 17.2308 109.709C16.9204 109.663 16.7535 109.689 16.6657 109.794ZM19.9835 110.68C21.9874 110.955 22.4365 111.07 22.1817 111.243C22.12 111.285 21.4251 112.133 20.6376 113.126C19.85 114.12 19.1913 114.919 19.1738 114.901C19.1002 114.826 17.4024 110.51 17.4024 110.398C17.4024 110.324 17.5 110.298 17.6444 110.334C17.7774 110.366 18.8301 110.522 19.9835 110.68Z" fill="#554D4D"/>
</svg>
