<svg xmlns="http://www.w3.org/2000/svg" width="24" height="24" viewBox="0 0 24 24">
    <path fill="#9C9696" fill-rule="evenodd" d="M12 16.8c-1.77 0-3.3-.973-4.135-2.401h-2.01a6.604 6.604 0 0 0 6.145 4.2 6.601 6.601 0 0 0 6.143-4.2h-2.01C15.3 15.827 13.77 16.8 12 16.8m0 4.799A9.597 9.597 0 0 1 2.4 12c0-5.304 4.296-9.6 9.6-9.6 5.304 0 9.6 4.296 9.6 9.6a9.597 9.597 0 0 1-9.6 9.599M11.989 0C5.364 0 0 5.376 0 12s5.364 12 11.989 12C18.624 24 24 18.624 24 12S18.624 0 11.989 0M7.8 10.8c.996 0 1.8-.804 1.8-1.8s-.804-1.8-1.8-1.8S6 8.004 6 9s.804 1.8 1.8 1.8m8.4 0c.996 0 1.8-.804 1.8-1.8s-.804-1.8-1.8-1.8-1.8.804-1.8 1.8.804 1.8 1.8 1.8"/>
</svg>
