<svg width="20" height="14" viewBox="0 0 20 14" fill="none" xmlns="http://www.w3.org/2000/svg">
<path d="M5.41634 13.6668C4.15245 13.6668 3.07273 13.2293 2.17717 12.3543C1.28106 11.4793 0.833008 10.4099 0.833008 9.146C0.833008 8.06266 1.1594 7.09738 1.81217 6.25016C2.46495 5.40294 3.31912 4.86127 4.37467 4.62516C4.7219 3.34738 5.41634 2.31266 6.45801 1.521C7.49967 0.72933 8.68023 0.333496 9.99967 0.333496C11.6247 0.333496 13.003 0.89933 14.1347 2.031C15.2669 3.16322 15.833 4.54183 15.833 6.16683C16.7913 6.27794 17.5866 6.691 18.2188 7.406C18.8505 8.12155 19.1663 8.9585 19.1663 9.91683C19.1663 10.9585 18.8019 11.8441 18.073 12.5735C17.3436 13.3024 16.458 13.6668 15.4163 13.6668H5.41634ZM5.41634 12.0002H15.4163C15.9997 12.0002 16.4927 11.7988 16.8955 11.396C17.2983 10.9932 17.4997 10.5002 17.4997 9.91683C17.4997 9.3335 17.2983 8.84044 16.8955 8.43766C16.4927 8.03488 15.9997 7.8335 15.4163 7.8335H14.1663V6.16683C14.1663 5.01405 13.7602 4.03127 12.948 3.2185C12.1352 2.40627 11.1525 2.00016 9.99967 2.00016C8.8469 2.00016 7.8644 2.40627 7.05218 3.2185C6.2394 4.03127 5.83301 5.01405 5.83301 6.16683H5.41634C4.61079 6.16683 3.92329 6.45155 3.35384 7.021C2.7844 7.59044 2.49967 8.27794 2.49967 9.0835C2.49967 9.88905 2.7844 10.5766 3.35384 11.146C3.92329 11.7154 4.61079 12.0002 5.41634 12.0002Z" fill="#9C9696"/>
</svg>
