<svg xmlns="http://www.w3.org/2000/svg" width="21" height="14" viewBox="0 0 21 14">
    <g fill="none" fill-rule="evenodd">
        <g fill="#FFF">
            <g>
                <g>
                    <g>
                        <g transform="translate(-249 -979) translate(116 965) translate(133 12) translate(0 2)">
                            <ellipse cx="11.938" cy="3.15" fill-rule="nonzero" rx="3.157" ry="3.15"/>
                            <path fill-rule="nonzero" d="M0 8.238c.961.65 1.622 1.694 1.622 2.87v2.1h2.806v-2.1c0-1.526-2.492-2.59-4.428-2.87z" transform="matrix(-1 0 0 1 4.428 0)"/>
                            <path fill-rule="nonzero" d="M5.095 6.3c1.744 0 3.157-1.41 3.157-3.15S6.84 0 5.095 0c-.37 0-1.022.079-1.354.189.984 1.217 1.354 1.843 1.354 2.96 0 1.119-.574 2.157-1.354 2.961.332.11.984.19 1.354.19z" transform="matrix(-1 0 0 1 11.994 0)"/>
                            <path d="M12.179 7.7c2.842 0 4.932.741 6.088 1.289.635.301 1.036.966 1.036 1.697v2.613H4.573v-2.613c0-.731.4-1.396 1.035-1.697 1.156-.548 3.246-1.29 6.088-1.29.082 0 .162.001.242.003l.241-.003z"/>
                        </g>
                    </g>
                </g>
            </g>
        </g>
    </g>
</svg>
