<svg width="14" height="16" viewBox="0 0 14 16" fill="none" xmlns="http://www.w3.org/2000/svg">
<path d="M12.1778 1.52222H11.4167V0H9.89443V1.52222H3.80555V0H2.28333V1.52222H1.52222C0.677388 1.52222 0.00761109 2.20722 0.00761109 3.04444L0 13.7C0 14.5372 0.677388 15.2222 1.52222 15.2222H12.1778C13.015 15.2222 13.7 14.5372 13.7 13.7V3.04444C13.7 2.20722 13.015 1.52222 12.1778 1.52222ZM12.1778 13.7H1.52222V6.08888H12.1778V13.7ZM12.1778 4.56666H1.52222V3.04444H12.1778V4.56666ZM4.56666 9.13332H3.04444V7.6111H4.56666V9.13332ZM7.6111 9.13332H6.08888V7.6111H7.6111V9.13332ZM10.6555 9.13332H9.13332V7.6111H10.6555V9.13332ZM4.56666 12.1778H3.04444V10.6555H4.56666V12.1778ZM7.6111 12.1778H6.08888V10.6555H7.6111V12.1778ZM10.6555 12.1778H9.13332V10.6555H10.6555V12.1778Z" fill="#737070"/>
</svg>
