<?xml version="1.0" encoding="UTF-8"?>
<svg width="24px" height="16px" viewBox="0 0 24 16" version="1.1" xmlns="http://www.w3.org/2000/svg" xmlns:xlink="http://www.w3.org/1999/xlink">
    <!-- Generator: Sketch 57.1 (83088) - https://sketch.com -->
    <title>Team Audio_16X16 Copy</title>
    <desc>Created with Sketch.</desc>
    <g id="Teams" stroke="none" stroke-width="1" fill="none" fill-rule="evenodd">
        <g id="Team-Audio_Active_16X16" fill="#EE4136">
            <g id="Team-Audio_16X16">
                <ellipse id="Oval-Copy-2" fill-rule="nonzero" cx="11.4808361" cy="4.756874" rx="3.26366155" ry="3.30717703"></ellipse>
                <path d="M0,10.0991596 C0.993603626,10.7826429 1.67697474,11.8783285 1.67697474,13.113008 L1.67697474,15.3177927 L4.57800723,15.3177927 L4.57800723,13.113008 C4.57800723,11.5108644 2.00171242,10.3931309 0,10.0991596 Z" id="Path-Copy-3" fill-rule="nonzero" transform="translate(2.289004, 12.708476) scale(-1, 1) translate(-2.289004, -12.708476) "></path>
                <path d="M5.26826997,8.06405104 C7.07144297,8.06405104 8.53193151,6.58408931 8.53193151,4.756874 C8.53193151,2.92965869 7.07144297,1.44969697 5.26826997,1.44969697 C4.88478973,1.44969697 4.21102997,1.5323764 3.8683455,1.64812759 C4.88478973,2.92631641 5.26826997,3.58282616 5.26826997,4.756874 C5.26826997,5.93092185 4.67466001,7.02133395 3.8683455,7.86562041 C4.21102997,7.98137161 4.88478973,8.06405104 5.26826997,8.06405104 Z" id="Path-Copy-4" fill-rule="nonzero" transform="translate(6.200139, 4.756874) scale(-1, 1) translate(-6.200139, -4.756874) "></path>
                <path d="M11.4814758,9.53644998 L11.7304233,9.5339075 C14.6693069,9.5339075 16.8301965,10.3129314 18.0252689,10.8881352 C18.68173,11.2046443 19.0960463,11.9023362 19.0960463,12.6696013 L19.0960463,15.4133333 L3.86562579,15.4133333 L3.86562579,12.6696013 C3.86562579,11.9023362 4.27994208,11.2046443 4.93640324,10.8881352 C6.13147558,10.3129314 8.29236525,9.5339075 11.2312489,9.5339075 C11.3155731,9.5339075 11.3989184,9.53481047 11.4814758,9.53644998 Z" id="Combined-Shape-Copy"></path>
                <path d="M17.0069307,4.36919988 C17.6884443,5.47519746 18.7815562,6.38149121 20.1186345,6.94715247 L21.1524856,6.08998247 C21.2817177,5.98308004 21.4676966,5.95241451 21.630337,5.99599649 C22.158341,6.14168364 22.7261943,6.22136377 23.3126649,6.22307656 C23.5741036,6.22384009 23.7842266,6.39805207 23.7848515,6.61456414 L23.7887933,7.9799556 C23.7894173,8.19666273 23.5802957,8.36945524 23.318857,8.36869423 C18.8955969,8.35577356 15.3022571,5.37655308 15.2916841,1.71340285 C15.2910607,1.49689078 15.502537,1.32391009 15.7616204,1.32466427 L17.4103329,1.32948182 C17.6717716,1.33024535 17.8818946,1.50445732 17.8825195,1.72096939 C17.8839211,2.20665864 17.9794899,2.67701856 18.1550433,3.11445285 C18.2072484,3.24919277 18.1700083,3.40317689 18.0407762,3.51007932 L17.0069307,4.36919988 Z" id="Fill-1-Copy" transform="translate(19.540239, 4.846679) rotate(13.000000) translate(-19.540239, -4.846679) "></path>
            </g>
        </g>
    </g>
</svg>