<svg xmlns="http://www.w3.org/2000/svg" width="16" height="16" viewBox="0 0 16 16">
    <g fill="none" fill-rule="evenodd">
        <rect width="16" height="16" fill="#9C9696" rx="2"/>
        <path fill="#FFF" fill-rule="nonzero" d="M8.529 10.221v-.325c0-.766.127-.94.766-1.38.835-.581 1.3-1.15 1.3-2.09 0-1.567-1.3-2.426-2.74-2.426-1.16 0-2.193.476-2.634 1.602-.14.348-.186.708-.221 1.08l1.404.162c0-.836.476-1.52 1.37-1.52.615 0 1.219.452 1.219 1.102 0 .998-1.022 1.103-1.497 1.787-.29.407-.325 1.23-.325 1.718v.29h1.358zm.104 2.113v-1.59H7.09v1.59h1.544z"/>
    </g>
</svg>
