<svg xmlns="http://www.w3.org/2000/svg" width="24" height="22" viewBox="0 0 24 22">
    <g fill="none" fill-rule="evenodd">
        <g fill-rule="nonzero">
            <g>
                <g fill="#EE4136" stroke="#FFF">
                    <path d="M12.6 0c.77 0 1.4.63 1.4 1.4h0v8.4c0 .77-.63 1.4-1.4 1.4h0-9.8L0 14V1.4C0 .63.63 0 1.4 0h0z" transform="translate(-1429 -983) translate(1430 984) matrix(-1 0 0 1 22 5)"/>
                </g>
                <g fill="#EE4136" stroke="#FFF">
                    <path d="M12.6 0c.77 0 1.4.63 1.4 1.4h0v8.4c0 .77-.63 1.4-1.4 1.4h0-9.8L0 14V1.4C0 .63.63 0 1.4 0h0z" transform="translate(-1429 -983) translate(1430 984)"/>
                </g>
                <path fill="#FFF" d="M4.736 7.906c.349 0 .69-.109 1.015-.302l-.224-.682c-.24.116-.434.178-.62.178-.28 0-.442-.132-.442-.558V4.565h1.217V3.9H4.465V2.767H3.58V3.9H3v.666h.581v2.14c0 .844.535 1.201 1.155 1.201zm4.272-4.759l.946-.76L9.039 2l-.822 1.147h.791zM8.31 7.898c.675-.008 1.194-.263 1.473-.837v.806h.891V3.744h-.891v2.03c0 .721-.419 1.272-1.132 1.287-.596 0-.96-.38-.96-1V3.744h-.892v2.565c0 .985.566 1.59 1.511 1.59zM15.714 13.5L15.714 10.138 17.134 13.031 17.629 13.031 19.05 10.138 19.056 13.5 19.757 13.5 19.757 9 18.864 9 17.385 11.989 15.9 9 15 9 15 13.5z" transform="translate(-1429 -983) translate(1430 984)"/>
            </g>
        </g>
    </g>
</svg>
