<svg width="24" height="25" viewBox="0 0 24 25" fill="none" xmlns="http://www.w3.org/2000/svg">
<g clip-path="url(#clip0_840_513)">
<path d="M5.69412 20.6311C5.22353 20.6311 4.82353 20.4664 4.49412 20.137C4.16471 19.8076 4 19.4076 4 18.937V6.32522C4 5.85463 4.16471 5.45463 4.49412 5.12522C4.82353 4.79581 5.22353 4.6311 5.69412 4.6311H18.3059C18.7765 4.6311 19.1765 4.79581 19.5059 5.12522C19.8353 5.45463 20 5.85463 20 6.32522V18.937C20 19.4076 19.8353 19.8076 19.5059 20.137C19.1765 20.4664 18.7765 20.6311 18.3059 20.6311H5.69412ZM5.69412 19.2193H18.3059C18.3843 19.2193 18.4511 19.192 18.5064 19.1375C18.5609 19.0822 18.5882 19.0154 18.5882 18.937V6.32522C18.5882 6.24679 18.5609 6.18028 18.5064 6.12569C18.4511 6.07047 18.3843 6.04286 18.3059 6.04286H5.69412C5.61569 6.04286 5.54918 6.07047 5.49459 6.12569C5.43937 6.18028 5.41176 6.24679 5.41176 6.32522V18.937C5.41176 19.0154 5.43937 19.0822 5.49459 19.1375C5.54918 19.192 5.61569 19.2193 5.69412 19.2193Z" fill="#9C9696"/>
<mask id="mask0_840_513" style="mask-type:alpha" maskUnits="userSpaceOnUse" x="5" y="6" width="14" height="13">
<path d="M18.1692 6.46252H5.83203V18.7997H18.1692V6.46252Z" fill="#D9D9D9"/>
</mask>
<g mask="url(#mask0_840_513)">
<path d="M11.9621 17.3732L14.1211 11.6801H15.1106L17.2696 17.3732H16.2801L15.7789 15.921H13.4785L12.9645 17.3732H11.9621ZM13.7612 15.0985H15.4705L14.6351 12.7467H14.5966L13.7612 15.0985ZM8.20953 15.9467L7.54127 15.2784L9.94444 12.8881C9.64458 12.554 9.38327 12.209 9.16052 11.8533C8.93777 11.4979 8.74071 11.1232 8.56936 10.7291H9.55891C9.70455 11.0204 9.85877 11.2795 10.0215 11.5063C10.1843 11.7335 10.3771 11.9714 10.5999 12.2198C10.9511 11.8429 11.2424 11.4553 11.4737 11.0571C11.7051 10.6585 11.8978 10.2322 12.052 9.77811H6.7959V8.83997H10.1115V7.88898H11.0625V8.83997H14.3781V9.77811H13.003C12.8317 10.3436 12.6046 10.8897 12.3219 11.4164C12.0392 11.9434 11.6879 12.4426 11.2681 12.9138L12.4119 14.0704L12.052 15.0471L10.587 13.5821L8.20953 15.9467Z" fill="#9C9696"/>
</g>
</g>
<defs>
<clipPath id="clip0_840_513">
<rect width="16" height="16" fill="white" transform="translate(4 4.6311)"/>
</clipPath>
</defs>
</svg>
