<svg width="12" height="10" viewBox="0 0 12 10" fill="none" xmlns="http://www.w3.org/2000/svg">
<path d="M1.13684 9.97368C0.821053 9.97368 0.552632 9.86316 0.331579 9.64211C0.110526 9.42105 0 9.15263 0 8.83684V1.63684C0 1.32105 0.110526 1.05263 0.331579 0.831579C0.552632 0.610526 0.821053 0.5 1.13684 0.5H10.8632C11.1789 0.5 11.4474 0.610526 11.6684 0.831579C11.8895 1.05263 12 1.32105 12 1.63684V8.83684C12 9.15263 11.8895 9.42105 11.6684 9.64211C11.4474 9.86316 11.1789 9.97368 10.8632 9.97368H1.13684ZM6 5.58421L0.947368 2.36316V8.83684C0.947368 8.88947 0.965895 8.93432 1.00295 8.97137C1.03958 9.008 1.08421 9.02632 1.13684 9.02632H10.8632C10.9158 9.02632 10.9606 9.008 10.9977 8.97137C11.0343 8.93432 11.0526 8.88947 11.0526 8.83684V2.36316L6 5.58421ZM6 4.60526L10.9579 1.44737H1.04211L6 4.60526ZM0.947368 2.36316V1.44737V8.83684C0.947368 8.88947 0.965895 8.93432 1.00295 8.97137C1.03958 9.008 1.08421 9.02632 1.13684 9.02632H0.947368V8.83684V2.36316Z" fill="#999999"/>
</svg>
