<svg width="24" height="24" viewBox="0 0 24 24" fill="none" xmlns="http://www.w3.org/2000/svg">
<path fill-rule="evenodd" clip-rule="evenodd" d="M6 2.09524V21.9048C6 23.0619 6.92341 24 8.0625 24H21.9375C23.0766 24 24 23.0619 24 21.9048V5.51345C24 4.95376 23.7796 4.41734 23.3879 4.02377L19.9859 0.60556C19.5997 0.217598 19.0786 0 18.5355 0H8.0625C6.92341 0 6 0.93807 6 2.09524ZM7.3125 21.9048V2.09524C7.3125 1.67445 7.64829 1.33333 8.0625 1.33333H18.2812V5.90476C18.2812 6.69374 18.9108 7.33333 19.6875 7.33333H22.6875V21.9048C22.6875 22.3256 22.3517 22.6667 21.9375 22.6667H8.0625C7.64829 22.6667 7.3125 22.3256 7.3125 21.9048ZM22.6875 6V5.51345C22.6875 5.30993 22.6073 5.11487 22.4649 4.97175L19.5938 2.08691V5.90476C19.5938 5.95736 19.6357 6 19.6875 6H22.6875Z" fill="#5B5B5B"/>
<rect y="5" width="17" height="15" rx="1" fill="#5B5B5B"/>
<path d="M3.81591 13.901L6.28691 10.968V10.1H2.06591V11.199H4.47391L2.00291 14.132V15H6.39191V13.901H3.81591ZM7.59889 15H8.98489V10.1H7.59889V15ZM12.811 10.1H10.571V15H11.957V13.719H12.811C14.148 13.719 14.988 13.026 14.988 11.913C14.988 10.793 14.148 10.1 12.811 10.1ZM12.727 12.627H11.957V11.192H12.727C13.301 11.192 13.588 11.458 13.588 11.913C13.588 12.361 13.301 12.627 12.727 12.627Z" fill="#F8F8F8"/>
</svg>
