<svg xmlns="http://www.w3.org/2000/svg" width="18" height="20" viewBox="0 0 18 20">
    <g fill="#9C9696" fill-rule="evenodd">
        <path d="M8.696 6.087a2.61 2.61 0 0 0 0 5.217 2.61 2.61 0 0 0 0-5.217"/>
        <path d="M12.92 13.436l-4.224 3.706-4.223-3.706c-1.243-1.235-1.988-2.841-1.988-4.57 0-3.46 2.733-6.053 6.211-6.053 3.477 0 6.211 2.717 6.211 6.176 0 1.73-.745 3.212-1.987 4.447M8.696.218C3.851.218 0 4.048 0 8.866c0 2.347.87 4.57 2.61 6.052 0 .124 5.092 4.57 5.215 4.695a1.34 1.34 0 0 0 1.74.123c.124-.123 5.093-4.572 5.218-4.694 1.738-1.606 2.609-3.83 2.609-6.176 0-4.818-3.851-8.648-8.696-8.648"/>
    </g>
</svg>
