<svg xmlns="http://www.w3.org/2000/svg" width="20" height="20" viewBox="0 0 20 20">
    <path fill="#9C9696" fill-rule="nonzero" d="M16.25 12.5c-.75 0-1.375.25-2 .625l-3-2.5V7.25c1.5-.5 2.5-1.875 2.5-3.5C13.75 1.625 12.125 0 10 0S6.25 1.625 6.25 3.75c0 1.625 1 3 2.5 3.5v3.375L5.75 13c-.625-.25-1.25-.5-2-.5C1.625 12.5 0 14.125 0 16.25S1.625 20 3.75 20s3.75-1.625 3.75-3.75c0-.375-.125-.875-.25-1.25L10 12.875 12.75 15c-.125.375-.25.75-.25 1.25 0 2.125 1.625 3.75 3.75 3.75S20 18.375 20 16.25s-1.625-3.75-3.75-3.75zm-12.5 5C3 17.5 2.5 17 2.5 16.25S3 15 3.75 15 5 15.5 5 16.25s-.5 1.25-1.25 1.25zM10 5c-.75 0-1.25-.5-1.25-1.25S9.25 2.5 10 2.5s1.25.5 1.25 1.25S10.75 5 10 5zm6.25 12.5c-.75 0-1.25-.5-1.25-1.25S15.5 15 16.25 15s1.25.5 1.25 1.25-.5 1.25-1.25 1.25z"/>
</svg>
