<svg width="18" height="10" viewBox="0 0 18 10" fill="none" xmlns="http://www.w3.org/2000/svg">
<path fill-rule="evenodd" clip-rule="evenodd" d="M4.87109 5.65869C4.033 6.2351 3.44572 7.01605 3.44572 8.05731V9.91671H0.998723V8.05731C0.998723 6.70615 3.18267 5.90661 4.87109 5.65869Z" fill="#737070"/>
<path d="M9.56277 4.95839C8.21133 4.95839 7.11577 3.84841 7.11577 2.47919C7.11577 1.10997 8.21133 0 9.56277 0C10.9142 0 12.0098 1.10997 12.0098 2.47919C12.0098 3.84841 10.9142 4.95839 9.56277 4.95839Z" fill="#737070"/>
<path fill-rule="evenodd" clip-rule="evenodd" d="M5.89341 4.95839C4.54144 4.95839 3.44641 3.84895 3.44641 2.47919C3.44641 1.10944 4.54144 0 5.89341 0C6.18093 0 6.4501 0.0619797 6.70703 0.148751C6.19928 0.787144 5.89341 1.59908 5.89341 2.47919C5.89341 3.35931 6.19928 4.17124 6.70703 4.80964C6.4501 4.89641 6.18093 4.95839 5.89341 4.95839Z" fill="#737070"/>
<path fill-rule="evenodd" clip-rule="evenodd" d="M9.56304 5.57812C11.1964 5.57812 14.457 6.40865 14.457 8.05732V9.91671H4.66905V8.05732C4.66905 6.40865 7.92967 5.57812 9.56304 5.57812Z" fill="#737070"/>
<path d="M16.8975 1.32814V0.295142C16.8975 0.132814 16.7736 0 16.6221 0H13.3165C13.165 0 13.041 0.132814 13.041 0.295142V3.24656C13.041 3.40889 13.165 3.5417 13.3165 3.5417H16.6221C16.7736 3.5417 16.8975 3.40889 16.8975 3.24656V2.21357L17.9994 3.39413V0.147571L16.8975 1.32814Z" fill="#737070"/>
</svg>
