<?xml version="1.0" encoding="UTF-8"?>
<svg width="18px" height="12px" viewBox="0 0 18 12" version="1.1" xmlns="http://www.w3.org/2000/svg" xmlns:xlink="http://www.w3.org/1999/xlink">
    <title>video_call-24px</title>
    <g id="1920X1024-Artboard-(-Latest-Update-)" stroke="none" stroke-width="1" fill="none" fill-rule="evenodd">
        <g id="video_call-24px" fill="#ffffff" fill-rule="nonzero">
            <path d="M14,4.5 L14,1 C14,0.45 13.55,0 13,0 L1,0 C0.45,0 0,0.45 0,1 L0,11 C0,11.55 0.45,12 1,12 L13,12 C13.55,12 14,11.55 14,11 L14,7.5 L18,11.5 L18,0.5 L14,4.5 Z M11,7 L8,7 L8,10 L6,10 L6,7 L3,7 L3,5 L6,5 L6,2 L8,2 L8,5 L11,5 L11,7 Z" id="Shape"></path>
        </g>
    </g>
</svg>