<svg xmlns="http://www.w3.org/2000/svg" width="20" height="20" viewBox="0 0 20 20">
    <g fill="none" fill-rule="evenodd">
        <g>
            <g transform="translate(-1542 -537) translate(1542 537)">
                <rect width="20" height="20" fill="#9C9696" rx="2.421"/>
                <path fill="#FFF" fill-rule="nonzero" d="M9.867 6C7.2 6 4.923 7.659 4 10c.923 2.341 3.2 4 5.867 4 2.666 0 4.944-1.659 5.866-4-.922-2.341-3.2-4-5.866-4zm0 6.667C8.395 12.667 7.2 11.472 7.2 10c0-1.472 1.195-2.667 2.667-2.667 1.472 0 2.666 1.195 2.666 2.667 0 1.472-1.194 2.667-2.666 2.667zm0-4.267c-.886 0-1.6.715-1.6 1.6 0 .885.714 1.6 1.6 1.6.885 0 1.6-.715 1.6-1.6 0-.885-.715-1.6-1.6-1.6z"/>
            </g>
        </g>
    </g>
</svg>
