<svg width="12" height="16" viewBox="0 0 12 16" fill="none" xmlns="http://www.w3.org/2000/svg">
<path d="M5.89474 9.62105C5.29123 9.62105 4.78596 9.40351 4.37895 8.96842C3.97193 8.53333 3.76842 8.00702 3.76842 7.38947V2.10526C3.76842 1.51579 3.97544 1.01754 4.38947 0.610526C4.80351 0.203509 5.30526 0 5.89474 0C6.48421 0 6.98597 0.203509 7.4 0.610526C7.81404 1.01754 8.02105 1.51579 8.02105 2.10526V7.38947C8.02105 8.00702 7.81754 8.53333 7.41053 8.96842C7.00351 9.40351 6.49825 9.62105 5.89474 9.62105ZM5.26316 16V13.1368C3.77544 12.9825 2.52632 12.3579 1.51579 11.2632C0.505263 10.1684 0 8.87719 0 7.38947H1.26316C1.26316 8.66667 1.71579 9.74035 2.62105 10.6105C3.52632 11.4807 4.61754 11.9158 5.89474 11.9158C7.17193 11.9158 8.26316 11.4807 9.16842 10.6105C10.0737 9.74035 10.5263 8.66667 10.5263 7.38947H11.7895C11.7895 8.87719 11.2842 10.1684 10.2737 11.2632C9.26316 12.3579 8.01404 12.9825 6.52632 13.1368V16H5.26316Z" fill="#9C9696"/>
</svg>
