<svg width="253" height="34" viewBox="0 0 253 34" fill="none" xmlns="http://www.w3.org/2000/svg">
<line x1="249.5" y1="5" x2="249.5" y2="28" stroke="#9C9696" stroke-opacity="0.5"/>
<line x1="123.5" y1="5" x2="123.5" y2="28" stroke="#9C9696" stroke-opacity="0.5"/>
<line x1="213.5" y1="9" x2="213.5" y2="25" stroke="#9C9696" stroke-opacity="0.5"/>
<line x1="87.5" y1="9" x2="87.5" y2="25" stroke="#9C9696" stroke-opacity="0.5"/>
<line x1="159.5" y1="9" x2="159.5" y2="25" stroke="#9C9696" stroke-opacity="0.5"/>
<line x1="33.5" y1="9" x2="33.5" y2="25" stroke="#9C9696" stroke-opacity="0.5"/>
<line x1="246.5" y1="7" x2="246.5" y2="26" stroke="#9C9696" stroke-opacity="0.5"/>
<line x1="120.5" y1="7" x2="120.5" y2="26" stroke="#9C9696" stroke-opacity="0.5"/>
<line x1="210.5" y1="7" x2="210.5" y2="26" stroke="#9C9696" stroke-opacity="0.5"/>
<line x1="84.5" y1="7" x2="84.5" y2="26" stroke="#9C9696" stroke-opacity="0.5"/>
<line x1="156.5" y1="7" x2="156.5" y2="26" stroke="#9C9696" stroke-opacity="0.5"/>
<line x1="30.5" y1="7" x2="30.5" y2="26" stroke="#9C9696" stroke-opacity="0.5"/>
<line x1="243.5" y1="7" x2="243.5" y2="26" stroke="#9C9696" stroke-opacity="0.5"/>
<line x1="117.5" y1="7" x2="117.5" y2="26" stroke="#9C9696" stroke-opacity="0.5"/>
<line x1="207.5" y1="7" x2="207.5" y2="26" stroke="#9C9696" stroke-opacity="0.5"/>
<line x1="81.5" y1="7" x2="81.5" y2="26" stroke="#9C9696" stroke-opacity="0.5"/>
<line x1="153.5" y1="7" x2="153.5" y2="26" stroke="#9C9696" stroke-opacity="0.5"/>
<line x1="27.5" y1="7" x2="27.5" y2="26" stroke="#9C9696" stroke-opacity="0.5"/>
<line x1="228.5" y1="7" x2="228.5" y2="26" stroke="#9C9696" stroke-opacity="0.5"/>
<line x1="102.5" y1="7" x2="102.5" y2="26" stroke="#9C9696" stroke-opacity="0.5"/>
<line x1="174.5" y1="7" x2="174.5" y2="26" stroke="#9C9696" stroke-opacity="0.5"/>
<line x1="48.5" y1="7" x2="48.5" y2="26" stroke="#9C9696" stroke-opacity="0.5"/>
<line x1="195.5" y1="7" x2="195.5" y2="26" stroke="#9C9696" stroke-opacity="0.5"/>
<line x1="69.5" y1="7" x2="69.5" y2="26" stroke="#9C9696" stroke-opacity="0.5"/>
<line x1="141.5" y1="7" x2="141.5" y2="26" stroke="#9C9696" stroke-opacity="0.5"/>
<line x1="15.5" y1="7" x2="15.5" y2="26" stroke="#9C9696" stroke-opacity="0.5"/>
<line x1="225.5" y1="7" x2="225.5" y2="26" stroke="#9C9696" stroke-opacity="0.5"/>
<line x1="99.5" y1="7" x2="99.5" y2="26" stroke="#9C9696" stroke-opacity="0.5"/>
<line x1="171.5" y1="7" x2="171.5" y2="26" stroke="#9C9696" stroke-opacity="0.5"/>
<line x1="45.5" y1="7" x2="45.5" y2="26" stroke="#9C9696" stroke-opacity="0.5"/>
<line x1="192.5" y1="7" x2="192.5" y2="26" stroke="#9C9696" stroke-opacity="0.5"/>
<line x1="66.5" y1="7" x2="66.5" y2="26" stroke="#9C9696" stroke-opacity="0.5"/>
<line x1="138.5" y1="7" x2="138.5" y2="26" stroke="#9C9696" stroke-opacity="0.5"/>
<line x1="12.5" y1="7" x2="12.5" y2="26" stroke="#9C9696" stroke-opacity="0.5"/>
<line x1="222.5" y1="7" x2="222.5" y2="26" stroke="#9C9696" stroke-opacity="0.5"/>
<line x1="96.5" y1="7" x2="96.5" y2="26" stroke="#9C9696" stroke-opacity="0.5"/>
<line x1="168.5" y1="7" x2="168.5" y2="26" stroke="#9C9696" stroke-opacity="0.5"/>
<line x1="42.5" y1="7" x2="42.5" y2="26" stroke="#9C9696" stroke-opacity="0.5"/>
<line x1="189.5" y1="7" x2="189.5" y2="26" stroke="#9C9696" stroke-opacity="0.5"/>
<line x1="63.5" y1="7" x2="63.5" y2="26" stroke="#9C9696" stroke-opacity="0.5"/>
<line x1="135.5" y1="7" x2="135.5" y2="26" stroke="#9C9696" stroke-opacity="0.5"/>
<line x1="9.5" y1="7" x2="9.5" y2="26" stroke="#9C9696" stroke-opacity="0.5"/>
<line x1="234.5" y1="7" x2="234.5" y2="26" stroke="#9C9696" stroke-opacity="0.5"/>
<line x1="108.5" y1="7" x2="108.5" y2="26" stroke="#9C9696" stroke-opacity="0.5"/>
<line x1="180.5" y1="7" x2="180.5" y2="26" stroke="#9C9696" stroke-opacity="0.5"/>
<line x1="54.5" y1="7" x2="54.5" y2="26" stroke="#9C9696" stroke-opacity="0.5"/>
<line x1="198.5" y1="7" x2="198.5" y2="26" stroke="#9C9696" stroke-opacity="0.5"/>
<line x1="72.5" y1="7" x2="72.5" y2="26" stroke="#9C9696" stroke-opacity="0.5"/>
<line x1="144.5" y1="7" x2="144.5" y2="26" stroke="#9C9696" stroke-opacity="0.5"/>
<line x1="18.5" y1="7" x2="18.5" y2="26" stroke="#9C9696" stroke-opacity="0.5"/>
<line x1="240.5" y1="10" x2="240.5" y2="23" stroke="#9C9696" stroke-opacity="0.5"/>
<line x1="114.5" y1="10" x2="114.5" y2="23" stroke="#9C9696" stroke-opacity="0.5"/>
<line x1="204.5" y1="10" x2="204.5" y2="23" stroke="#9C9696" stroke-opacity="0.5"/>
<line x1="78.5" y1="10" x2="78.5" y2="23" stroke="#9C9696" stroke-opacity="0.5"/>
<line x1="150.5" y1="10" x2="150.5" y2="23" stroke="#9C9696" stroke-opacity="0.5"/>
<line x1="24.5" y1="10" x2="24.5" y2="23" stroke="#9C9696" stroke-opacity="0.5"/>
<line x1="219.5" y1="10" x2="219.5" y2="23" stroke="#9C9696" stroke-opacity="0.5"/>
<line x1="93.5" y1="10" x2="93.5" y2="23" stroke="#9C9696" stroke-opacity="0.5"/>
<line x1="165.5" y1="10" x2="165.5" y2="23" stroke="#9C9696" stroke-opacity="0.5"/>
<line x1="39.5" y1="10" x2="39.5" y2="23" stroke="#9C9696" stroke-opacity="0.5"/>
<line x1="186.5" y1="10" x2="186.5" y2="23" stroke="#9C9696" stroke-opacity="0.5"/>
<line x1="60.5" y1="10" x2="60.5" y2="23" stroke="#9C9696" stroke-opacity="0.5"/>
<line x1="132.5" y1="10" x2="132.5" y2="23" stroke="#9C9696" stroke-opacity="0.5"/>
<line x1="6.5" y1="10" x2="6.5" y2="23" stroke="#9C9696" stroke-opacity="0.5"/>
<line x1="237.5" y1="12" x2="237.5" y2="21" stroke="#9C9696" stroke-opacity="0.5"/>
<line x1="111.5" y1="12" x2="111.5" y2="21" stroke="#9C9696" stroke-opacity="0.5"/>
<line x1="201.5" y1="12" x2="201.5" y2="21" stroke="#9C9696" stroke-opacity="0.5"/>
<line x1="75.5" y1="12" x2="75.5" y2="21" stroke="#9C9696" stroke-opacity="0.5"/>
<line x1="147.5" y1="12" x2="147.5" y2="21" stroke="#9C9696" stroke-opacity="0.5"/>
<line x1="21.5" y1="12" x2="21.5" y2="21" stroke="#9C9696" stroke-opacity="0.5"/>
<line x1="252.5" y1="12" x2="252.5" y2="21" stroke="#9C9696" stroke-opacity="0.5"/>
<line x1="126.5" y1="12" x2="126.5" y2="21" stroke="#9C9696" stroke-opacity="0.5"/>
<line x1="231.5" y1="12" x2="231.5" y2="21" stroke="#9C9696" stroke-opacity="0.5"/>
<line x1="105.5" y1="12" x2="105.5" y2="21" stroke="#9C9696" stroke-opacity="0.5"/>
<line x1="177.5" y1="12" x2="177.5" y2="21" stroke="#9C9696" stroke-opacity="0.5"/>
<line x1="51.5" y1="12" x2="51.5" y2="21" stroke="#9C9696" stroke-opacity="0.5"/>
<line x1="216.5" y1="12" x2="216.5" y2="21" stroke="#9C9696" stroke-opacity="0.5"/>
<line x1="90.5" y1="12" x2="90.5" y2="21" stroke="#9C9696" stroke-opacity="0.5"/>
<line x1="162.5" y1="12" x2="162.5" y2="21" stroke="#9C9696" stroke-opacity="0.5"/>
<line x1="36.5" y1="12" x2="36.5" y2="21" stroke="#9C9696" stroke-opacity="0.5"/>
<line x1="183.5" y1="12" x2="183.5" y2="21" stroke="#9C9696" stroke-opacity="0.5"/>
<line x1="57.5" y1="12" x2="57.5" y2="21" stroke="#9C9696" stroke-opacity="0.5"/>
<line x1="129.5" y1="12" x2="129.5" y2="21" stroke="#9C9696" stroke-opacity="0.5"/>
<line x1="3.5" y1="12" x2="3.5" y2="21" stroke="#9C9696" stroke-opacity="0.5"/>
</svg>
