<svg width="14" height="14" viewBox="0 0 14 14" fill="none" xmlns="http://www.w3.org/2000/svg">
<path d="M12.3549 13.7162L10.7354 12.0967C10.5728 12.1896 10.4103 12.2794 10.2478 12.3663C10.0852 12.4536 9.91691 12.532 9.74276 12.6017C9.51057 12.6946 9.2958 12.6655 9.09844 12.5146C8.90108 12.3637 8.80239 12.1547 8.80239 11.8877C8.80239 11.76 8.84024 11.6469 8.91594 11.5485C8.99117 11.4496 9.08683 11.3769 9.20292 11.3305C9.2958 11.2956 9.38589 11.2578 9.47319 11.2169C9.56003 11.1765 9.64408 11.1331 9.72535 11.0867L7.40926 8.77056V10.7035C7.40926 11.017 7.26692 11.2346 6.98226 11.3562C6.69806 11.4784 6.44567 11.4291 6.22509 11.2086L3.9264 8.90987H1.83669C1.63933 8.90987 1.47401 8.843 1.34074 8.70926C1.207 8.57599 1.14012 8.41067 1.14012 8.2133V5.42703C1.14012 5.22966 1.207 5.06411 1.34074 4.93037C1.47401 4.79709 1.63933 4.73046 1.83669 4.73046H3.36915L0.513212 1.87452C0.385507 1.74681 0.321655 1.58428 0.321655 1.38692C0.321655 1.18956 0.385507 1.02702 0.513212 0.89932C0.640916 0.771616 0.803449 0.707764 1.00081 0.707764C1.19817 0.707764 1.36071 0.771616 1.48841 0.89932L13.3301 12.741C13.4578 12.8687 13.5217 13.0312 13.5217 13.2286C13.5217 13.426 13.4578 13.5885 13.3301 13.7162C13.2024 13.8439 13.0399 13.9078 12.8425 13.9078C12.6451 13.9078 12.4826 13.8439 12.3549 13.7162ZM9.74276 1.00381C10.9269 1.4798 11.8789 2.24022 12.5987 3.28507C13.3185 4.32993 13.6784 5.50249 13.6784 6.80275C13.6784 7.41805 13.5943 8.01014 13.4262 8.579C13.2577 9.14787 13.0166 9.6761 12.7032 10.1637L11.6932 9.15368C11.8905 8.79378 12.0387 8.41647 12.1376 8.02175C12.236 7.62703 12.2852 7.22069 12.2852 6.80275C12.2852 5.78112 12.0038 4.86396 11.441 4.0513C10.8777 3.23863 10.1317 2.64655 9.20292 2.27505C9.07522 2.22861 8.97654 2.15315 8.90688 2.04866C8.83722 1.94418 8.80239 1.82808 8.80239 1.70038C8.80239 1.44497 8.90108 1.2418 9.09844 1.09088C9.2958 0.939954 9.51057 0.91093 9.74276 1.00381ZM10.3697 7.83019L8.80239 6.26291V3.99906C9.34804 4.25447 9.77481 4.63758 10.0827 5.1484C10.3901 5.65922 10.5438 6.21647 10.5438 6.82017C10.5438 6.99431 10.5294 7.16566 10.5006 7.33423C10.4714 7.50234 10.4277 7.66766 10.3697 7.83019ZM7.40926 4.86977L5.59817 3.05869L6.22509 2.43177C6.44567 2.21119 6.69806 2.16174 6.98226 2.28341C7.26692 2.40554 7.40926 2.62333 7.40926 2.93679V4.86977ZM6.01612 9.01436V7.37742L4.76229 6.1236H2.53326V7.51674H4.51849L6.01612 9.01436Z" fill="#9C9696"/>
</svg>
