<svg width="30" height="30" viewBox="0 0 30 30" xmlns="http://www.w3.org/2000/svg">
    <g fill="#222020" fill-rule="nonzero">
        <path d="M24.659 13.396a.93.93 0 0 1-.664-.276A12.614 12.614 0 0 0 15 9.375c-3.396 0-6.589 1.33-8.994 3.745a.938.938 0 1 1-1.329-1.324A14.475 14.475 0 0 1 15 7.5c3.898 0 7.564 1.526 10.323 4.297a.938.938 0 0 1-.664 1.6z"/>
        <path d="M21.296 16.773a.93.93 0 0 1-.663-.277A7.901 7.901 0 0 0 15 14.148a7.901 7.901 0 0 0-5.633 2.348.938.938 0 1 1-1.328-1.323 9.763 9.763 0 0 1 6.96-2.9 9.763 9.763 0 0 1 6.96 2.9.938.938 0 0 1-.663 1.6zM15 22.5a2.727 2.727 0 0 1 0-5.454 2.727 2.727 0 0 1 0 5.454zm0-3.579a.85.85 0 0 0-.845.853c0 .47.379.851.845.851a.85.85 0 0 0 .845-.852.849.849 0 0 0-.845-.852z"/>
        <path d="M15 30C6.729 30 0 23.271 0 15S6.729 0 15 0s15 6.729 15 15-6.729 15-15 15zm0-28.125C7.763 1.875 1.875 7.763 1.875 15c0 7.238 5.888 13.125 13.125 13.125 7.238 0 13.125-5.887 13.125-13.125 0-7.237-5.887-13.125-13.125-13.125z"/>
    </g>
</svg>
