<svg width="12" height="14" viewBox="0 0 12 14" fill="none" xmlns="http://www.w3.org/2000/svg">
<path d="M5.71794 2.41667C6.4971 2.41667 7.1346 3.05417 7.1346 3.83333C7.1346 4.6125 6.4971 5.25 5.71794 5.25C4.93877 5.25 4.30127 4.6125 4.30127 3.83333C4.30127 3.05417 4.93877 2.41667 5.71794 2.41667ZM5.71794 9.5C7.63044 9.5 9.82627 10.4138 9.96794 10.9167H1.46794C1.63085 10.4067 3.81252 9.5 5.71794 9.5ZM5.71794 1C4.15252 1 2.8846 2.26792 2.8846 3.83333C2.8846 5.39875 4.15252 6.66667 5.71794 6.66667C7.28335 6.66667 8.55127 5.39875 8.55127 3.83333C8.55127 2.26792 7.28335 1 5.71794 1ZM5.71794 8.08333C3.82669 8.08333 0.0512695 9.0325 0.0512695 10.9167V12.3334H11.3846V10.9167C11.3846 9.0325 7.60919 8.08333 5.71794 8.08333Z" fill="#9C9696"/>
</svg>
