<svg width="15" height="11" viewBox="0 0 15 11" fill="none" xmlns="http://www.w3.org/2000/svg">
<g clip-path="url(#clip0_714_454)">
<path d="M4.95833 6.69792C3.30083 6.69792 0 7.52667 0 9.17708V10.4167H9.91667V9.17708C9.91667 7.52667 6.61583 6.69792 4.95833 6.69792ZM1.6575 9C2.2525 8.58917 3.69042 8.11458 4.95833 8.11458C6.22625 8.11458 7.66417 8.58917 8.25917 9H1.6575ZM4.95833 5.45833C6.32542 5.45833 7.4375 4.34625 7.4375 2.97917C7.4375 1.61208 6.32542 0.5 4.95833 0.5C3.59125 0.5 2.47917 1.61208 2.47917 2.97917C2.47917 4.34625 3.59125 5.45833 4.95833 5.45833ZM4.95833 1.91667C5.54625 1.91667 6.02083 2.39125 6.02083 2.97917C6.02083 3.56708 5.54625 4.04167 4.95833 4.04167C4.37042 4.04167 3.89583 3.56708 3.89583 2.97917C3.89583 2.39125 4.37042 1.91667 4.95833 1.91667ZM9.945 6.74042C10.7667 7.33542 11.3333 8.12875 11.3333 9.17708V10.4167H14.1667V9.17708C14.1667 7.74625 11.6875 6.93167 9.945 6.74042ZM9.20833 5.45833C10.5754 5.45833 11.6875 4.34625 11.6875 2.97917C11.6875 1.61208 10.5754 0.5 9.20833 0.5C8.82583 0.5 8.47167 0.592083 8.14583 0.747917C8.59208 1.37833 8.85417 2.15042 8.85417 2.97917C8.85417 3.80792 8.59208 4.58 8.14583 5.21042C8.47167 5.36625 8.82583 5.45833 9.20833 5.45833Z" fill="#9C9696"/>
</g>
<defs>
<clipPath id="clip0_714_454">
<rect width="15" height="11" fill="white"/>
</clipPath>
</defs>
</svg>
