<svg height="20" viewBox="0 0 20 20" width="20" xmlns="http://www.w3.org/2000/svg"><g fill="none"><path d="m11.817691 18.260781c.0265195.0014261.0526655.0037691.0795246.0037691h6.0509338c.7078438 0 1.2835314-.5758914 1.2835314-1.2835654v-14.02702884c0-.70757216-.5756876-1.28353141-1.2835314-1.28353141h-6.0509338c-.0266893 0-.0530051.0026146-.0795246.00383701v-1.67426146l-11.80994906 1.57612903v16.79334467l11.80994906 1.616944zm0-15.84869271c.02618-.00383702.052292-.00804754.0795246-.00804754h6.0509338c.3033277 0 .5500849.24685908.5500849.55008489v14.02726656c0 .3031579-.2467912.5500849-.5500849.5500849h-6.0509338c-.0270288 0-.0533446-.0043124-.0795246-.0082173zm-7.25887946 9.43266551-2.81585738-.0718166v-.4578268l1.69966044-2.60689308v-.02312394l-1.54387097.02550085v-.70505943l2.63249576-.06831918v.51005093l-1.7118506 2.61657045v.0225807l1.73942275.0274023zm1.41640068.036163-.87551782-.0224109v-3.93599317l.87551782-.02275042zm3.34716469-1.8189474c-.32624788.3001359-.80516129.431545-1.35694397.4276401-.12132428-.0007131-.2310017-.0077419-.31551783-.0204414v1.4543633l-.90213922-.0229202v-3.96736842c.27870968-.05497453.67293718-.10115449 1.23582343-.11602716.57721562-.01521222.99382003.08431239 1.27565365.2988455.27174873.20414262.45582343.5472326.45582343.95585739-.00003396.40882852-.13952462.75565365-.39269949.99005089z" fill="#eebc23"/><path d="m8.03239389 8.51324278c-.18828523.00332768-.31595926.02363328-.38247878.04298812v1.20078098c.07843803.01799661.17548387.0240068.30950764.02363328.49670628-.00071307.8060781-.25212224.8060781-.67453311 0-.37925297-.26665535-.60112054-.73310696-.59286927z" fill="#eebc23"/><g fill="#f0911d"><path d="m14.025229 2.717759h1.438574v1h-1.438574z"/><path d="m12.586621 3.60601h1.438608v1h-1.438608z"/><path d="m14.025229 4.577759h1.438574v1h-1.438574z"/><path d="m14.025229 6.453548h1.438574v1h-1.438574z"/><path d="m12.586621 5.500509h1.438608v1h-1.438608z"/><path d="m14.0110696 12.8593209c.7868251 0 1.4240747-.6378268 1.4240747-1.4249915l-.2626825-2.38655351c0-.78682513-.3745671-1.42471986-1.1613922-1.42471986s-1.1610526.63789473-1.1610526 1.42471986l-.2633956 2.38655351c0 .7868251.6376231 1.4249915 1.4244482 1.4249915zm-.4711036-2.618472h.94309v1.9922581h-.94309z"/></g></g></svg>