<svg width="106" height="124" viewBox="0 0 106 124" fill="none" xmlns="http://www.w3.org/2000/svg">
<g id="PDF">
<g id="Rectangle 3" filter="url(#filter0_d_1815_39254)">
<path d="M16 111.089H90C94.4183 111.089 98 107.507 98 103.089V30.4873L73.0602 4H16C11.5817 4 8 7.58172 8 12V103.089C8 107.507 11.5817 111.089 16 111.089Z" fill="white"/>
<path d="M90 110.589H16C11.8579 110.589 8.5 107.231 8.5 103.089V12C8.5 7.85786 11.8579 4.5 16 4.5H72.8443L97.5 30.6857V103.089C97.5 107.231 94.1421 110.589 90 110.589Z" stroke="#D8D8D8"/>
</g>
<g id="Group 1">
<path id="Vector" d="M52.0235 66.1138H41.1685L38.9508 72.9711C38.8925 73.2337 38.659 73.4088 38.3964 73.3796H32.9106C32.5896 73.3796 32.502 73.2046 32.5896 72.8544L41.9855 45.8045C42.0731 45.5127 42.1606 45.1918 42.2773 44.8416C42.3941 44.2288 42.4524 43.5869 42.4524 42.9449C42.4232 42.799 42.54 42.6531 42.6859 42.6239H50.2435C50.4769 42.6239 50.5936 42.7115 50.6228 42.8574L61.2735 72.9128C61.361 73.2337 61.2735 73.3796 60.9817 73.3796H54.8831C54.6788 73.4088 54.4746 73.2629 54.4162 73.0587L52.0235 66.1138ZM42.8609 60.1903H50.2727C50.0976 59.5775 49.8641 58.848 49.6015 58.0893C49.3389 57.3015 49.0763 56.4552 48.8137 55.5798C48.5219 54.6753 48.2592 53.7999 47.9674 52.8953C47.6756 51.9907 47.413 51.1445 47.1796 50.2983C46.9461 49.4812 46.7419 48.7225 46.5376 48.0222H46.4793C46.2166 49.277 45.8957 50.5317 45.4871 51.7864C45.0494 53.1871 44.6117 54.6461 44.1449 56.1051C43.7363 57.5933 43.2986 58.9647 42.8609 60.1903ZM67.7806 47.7304C66.8177 47.7596 65.8839 47.3803 65.1836 46.7091C64.5125 45.9796 64.1623 45.0167 64.1915 44.0246C64.1623 43.0324 64.5417 42.0987 65.242 41.4275C65.9423 40.7564 66.8761 40.4062 67.839 40.4062C68.977 40.4062 69.8524 40.7564 70.4944 41.4275C71.1363 42.1279 71.4865 43.0616 71.4573 44.0246C71.4865 45.0167 71.1363 45.9796 70.436 46.7091C69.7649 47.4094 68.7728 47.7888 67.7806 47.7304ZM64.5125 73.0587V50.5901C64.5125 50.2983 64.6292 50.1815 64.8918 50.1815H70.6695C70.9321 50.1815 71.0488 50.3274 71.0488 50.5901V73.0587C71.0488 73.3796 70.9321 73.5255 70.6695 73.5255H64.9502C64.6584 73.5255 64.5125 73.3504 64.5125 73.0587Z" fill="#FF9A00"/>
</g>
</g>
<defs>
<filter id="filter0_d_1815_39254" x="0" y="0" width="106" height="123.088" filterUnits="userSpaceOnUse" color-interpolation-filters="sRGB">
<feFlood flood-opacity="0" result="BackgroundImageFix"/>
<feColorMatrix in="SourceAlpha" type="matrix" values="0 0 0 0 0 0 0 0 0 0 0 0 0 0 0 0 0 0 127 0" result="hardAlpha"/>
<feOffset dy="4"/>
<feGaussianBlur stdDeviation="4"/>
<feComposite in2="hardAlpha" operator="out"/>
<feColorMatrix type="matrix" values="0 0 0 0 0.611765 0 0 0 0 0.588235 0 0 0 0 0.588235 0 0 0 0.25 0"/>
<feBlend mode="normal" in2="BackgroundImageFix" result="effect1_dropShadow_1815_39254"/>
<feBlend mode="normal" in="SourceGraphic" in2="effect1_dropShadow_1815_39254" result="shape"/>
</filter>
</defs>
</svg>
