<svg width="12" height="9" viewBox="0 0 12 9" fill="none" xmlns="http://www.w3.org/2000/svg">
<path d="M4.00001 6.95544L10.0731 0.872739C10.211 0.734273 10.3865 0.665039 10.5996 0.665039C10.8127 0.665039 10.9885 0.734039 11.1269 0.872039C11.2654 1.01004 11.3346 1.18568 11.3346 1.39896C11.3346 1.61223 11.2654 1.78809 11.1269 1.92654L4.63268 8.41116C4.45191 8.59193 4.24102 8.68231 4.00001 8.68231C3.75899 8.68231 3.5481 8.59193 3.36733 8.41116L0.873106 5.92654C0.734639 5.78866 0.665405 5.61317 0.665405 5.40007C0.665405 5.18697 0.734405 5.01119 0.872405 4.87274C1.01041 4.73427 1.18605 4.66504 1.39933 4.66504C1.6126 4.66504 1.78846 4.73427 1.92691 4.87274L4.00001 6.95544Z" fill="#554D4D"/>
</svg>
