<svg width="20" height="20" viewBox="0 0 20 20" fill="none" xmlns="http://www.w3.org/2000/svg">
<g clip-path="url(#clip0_192_316245)">
<path d="M3.25001 10.0002C3.25001 8.57516 4.40834 7.41683 5.83334 7.41683H9.16667V5.8335H5.83334C3.53334 5.8335 1.66667 7.70016 1.66667 10.0002C1.66667 12.3002 3.53334 14.1668 5.83334 14.1668H9.16667V12.5835H5.83334C4.40834 12.5835 3.25001 11.4252 3.25001 10.0002ZM6.66667 10.8335H13.3333V9.16683H6.66667V10.8335ZM14.1667 5.8335H10.8333V7.41683H14.1667C15.5917 7.41683 16.75 8.57516 16.75 10.0002C16.75 11.4252 15.5917 12.5835 14.1667 12.5835H10.8333V14.1668H14.1667C16.4667 14.1668 18.3333 12.3002 18.3333 10.0002C18.3333 7.70016 16.4667 5.8335 14.1667 5.8335Z" fill="#9C9696"/>
</g>
<defs>
<clipPath id="clip0_192_316245">
<rect width="20" height="20" fill="white"/>
</clipPath>
</defs>
</svg>
