<svg width="26" height="20" viewBox="0 0 26 20" fill="none" xmlns="http://www.w3.org/2000/svg">
<path d="M14.0612 12.3321L12.2766 14.1168C12.092 14.3014 11.9975 14.5334 11.9932 14.8129C11.989 15.0924 12.0834 15.3287 12.2766 15.5219C12.4697 15.715 12.7039 15.8116 12.9791 15.8116C13.2543 15.8116 13.4885 15.715 13.6817 15.5219L17.0278 12.1757C17.2688 11.9347 17.3893 11.6535 17.3893 11.3322C17.3893 11.0108 17.2688 10.7296 17.0278 10.4886L13.6817 7.14242C13.4971 6.95782 13.265 6.86338 12.9855 6.85909C12.7061 6.85482 12.4697 6.94926 12.2766 7.14242C12.0834 7.33558 11.9868 7.56976 11.9868 7.84499C11.9868 8.12019 12.0834 8.35436 12.2766 8.54752L14.0612 10.3322H9.12784C8.84411 10.3322 8.60651 10.4279 8.41504 10.6194C8.2236 10.8108 8.12787 11.0484 8.12787 11.3322C8.12787 11.6159 8.2236 11.8535 8.41504 12.045C8.60651 12.2364 8.84411 12.3321 9.12784 12.3321H14.0612ZM2.74327 19.9988C2.06976 19.9988 1.49967 19.7655 1.03301 19.2988C0.566341 18.8321 0.333008 18.262 0.333008 17.5885V2.92195C0.333008 2.24846 0.566341 1.67839 1.03301 1.21172C1.49967 0.745052 2.06976 0.511719 2.74327 0.511719H9.84841C10.1698 0.511719 10.4787 0.574119 10.7753 0.698919C11.0719 0.823696 11.3296 0.995485 11.5484 1.21429L12.9996 2.66552H23.256C23.9295 2.66552 24.4996 2.89885 24.9663 3.36552C25.4329 3.83219 25.6663 4.40227 25.6663 5.07579V17.5885C25.6663 18.262 25.4329 18.8321 24.9663 19.2988C24.4996 19.7655 23.9295 19.9988 23.256 19.9988H2.74327ZM2.33297 2.92195V17.5885C2.33297 17.7082 2.37144 17.8065 2.44837 17.8834C2.52531 17.9604 2.62361 17.9988 2.74327 17.9988H23.256C23.3757 17.9988 23.474 17.9604 23.5509 17.8834C23.6278 17.8065 23.6663 17.7082 23.6663 17.5885V5.07579C23.6663 4.95612 23.6278 4.85782 23.5509 4.78089C23.474 4.70395 23.3757 4.66549 23.256 4.66549H12.1817L10.0279 2.51169H2.74327C2.62361 2.51169 2.52531 2.55015 2.44837 2.62709C2.37144 2.704 2.33297 2.80229 2.33297 2.92195ZM2.33297 2.92195V2.51169V17.9988V2.92195Z" fill="#737070"/>
</svg>
