<svg width="26" height="20" viewBox="0 0 26 20" fill="none" xmlns="http://www.w3.org/2000/svg">
<path d="M14.0617 12.3308L12.2771 14.1155C12.0925 14.3001 11.998 14.5321 11.9937 14.8116C11.9895 15.0911 12.0839 15.3274 12.2771 15.5206C12.4702 15.7138 12.7044 15.8103 12.9796 15.8103C13.2548 15.8103 13.489 15.7138 13.6822 15.5206L17.0283 12.1744C17.2693 11.9334 17.3898 11.6522 17.3898 11.3309C17.3898 11.0095 17.2693 10.7283 17.0283 10.4873L13.6822 7.14114C13.4976 6.95654 13.2655 6.86209 12.986 6.8578C12.7065 6.85354 12.4702 6.94798 12.2771 7.14114C12.0839 7.33429 11.9873 7.56848 11.9873 7.8437C11.9873 8.1189 12.0839 8.35308 12.2771 8.54624L14.0617 10.3309H9.12833C8.8446 10.3309 8.607 10.4266 8.41553 10.6181C8.22408 10.8095 8.12836 11.0471 8.12836 11.3309C8.12836 11.6146 8.22408 11.8522 8.41553 12.0437C8.607 12.2351 8.8446 12.3308 9.12833 12.3308H14.0617ZM2.74376 19.9975C2.07025 19.9975 1.50016 19.7642 1.0335 19.2975C0.566829 18.8308 0.333496 18.2607 0.333496 17.5872V2.92067C0.333496 2.24718 0.566829 1.6771 1.0335 1.21044C1.50016 0.74377 2.07025 0.510437 2.74376 0.510437H9.8489C10.1703 0.510437 10.4792 0.572837 10.7758 0.697637C11.0724 0.822415 11.3301 0.994204 11.5489 1.213L13.0001 2.66424H23.2565C23.93 2.66424 24.5001 2.89757 24.9668 3.36424C25.4334 3.8309 25.6668 4.40099 25.6668 5.0745V17.5872C25.6668 18.2607 25.4334 18.8308 24.9668 19.2975C24.5001 19.7642 23.93 19.9975 23.2565 19.9975H2.74376ZM2.33346 2.92067V17.5872C2.33346 17.7069 2.37193 17.8052 2.44886 17.8821C2.5258 17.9591 2.6241 17.9975 2.74376 17.9975H23.2565C23.3762 17.9975 23.4745 17.9591 23.5514 17.8821C23.6283 17.8052 23.6668 17.7069 23.6668 17.5872V5.0745C23.6668 4.95484 23.6283 4.85654 23.5514 4.7796C23.4745 4.70267 23.3762 4.6642 23.2565 4.6642H12.1822L10.0284 2.5104H2.74376C2.6241 2.5104 2.5258 2.54887 2.44886 2.6258C2.37193 2.70271 2.33346 2.801 2.33346 2.92067ZM2.33346 2.92067V2.5104V17.9975V2.92067Z" fill="#737070"/>
</svg>
