<svg width="654" height="450" viewBox="0 0 654 450" fill="none" xmlns="http://www.w3.org/2000/svg">
<ellipse cx="327" cy="382" rx="254" ry="12" fill="#EFF1F2" stroke="#979797" stroke-width="0.5"/>
<path d="M437.61 377.67H391V188.27H478.03L437.61 377.67Z" fill="url(#paint0_linear_128_1836)"/>
<path d="M435.29 377.67H389.61V188.27H474.91L435.29 377.67Z" fill="#F5F5F5"/>
<path d="M159 149.16L345.97 96.8899L366.07 168.77L179.11 221.04L159.01 149.16H159Z" fill="url(#paint1_linear_128_1836)"/>
<path d="M161.23 149.66L345.07 98.26L364.52 167.84L180.68 219.24L161.23 149.66Z" fill="#F4F4F4"/>
<path d="M223.03 137.09L269.28 124.16L270.27 127.69L224.02 140.62L223.03 137.09Z" fill="#F5F5F5"/>
<path d="M226.98 151.2L273.23 138.27L274.22 141.8L227.97 154.73L226.98 151.2Z" fill="white"/>
<path d="M225 144.14L299.33 123.36L300.32 126.89L225.99 147.67L225 144.14Z" fill="white"/>
<path d="M205.7 159.99C210.422 159.99 214.25 156.162 214.25 151.44C214.25 146.718 210.422 142.89 205.7 142.89C200.978 142.89 197.15 146.718 197.15 151.44C197.15 156.162 200.978 159.99 205.7 159.99Z" fill="white"/>
<path d="M219.31 164.98L402.1 96.9299L428.5 167.84L245.71 235.89L219.31 164.98Z" fill="url(#paint2_linear_128_1836)"/>
<path d="M221.83 166.16L400.72 99.5598L425.93 167.27L247.04 233.87L221.83 166.17V166.16Z" fill="#F7F7F7"/>
<path d="M279.3 164.8L324.31 148.04L325.59 151.47L280.58 168.23L279.3 164.8Z" fill="#F5F5F5"/>
<path d="M284.42 178.53L329.43 161.77L330.71 165.2L285.7 181.96L284.42 178.53Z" fill="white"/>
<path d="M282.63 171.79L355.18 144.78L356.46 148.22L283.91 175.23L282.63 171.78V171.79Z" fill="white"/>
<path d="M263.24 189.1C267.962 189.1 271.79 185.272 271.79 180.55C271.79 175.828 267.962 172 263.24 172C258.518 172 254.69 175.828 254.69 180.55C254.69 185.272 258.518 189.1 263.24 189.1Z" fill="white"/>
<path d="M281.57 212.99L294.92 138.07L486.46 172.19L473.11 247.12L281.57 213V212.99Z" fill="url(#paint3_linear_128_1836)"/>
<path d="M295.83 139.84L483.76 173.32L471.09 244.44L283.16 210.96L295.83 139.83V139.84Z" fill="#FAFAFA"/>
<path d="M341.83 177.49L342.47 173.88L389.75 182.3L389.11 185.91L341.83 177.49Z" fill="white"/>
<path d="M339.27 191.92L339.91 188.31L387.19 196.73L386.55 200.34L339.27 191.92Z" fill="white"/>
<path d="M340.55 184.71L341.19 181.1L417.17 194.63L416.53 198.24L340.55 184.71Z" fill="white"/>
<path d="M320.63 187.85C325.352 187.85 329.18 184.022 329.18 179.3C329.18 174.578 325.352 170.75 320.63 170.75C315.908 170.75 312.08 174.578 312.08 179.3C312.08 184.022 315.908 187.85 320.63 187.85Z" fill="white"/>
<path d="M495.65 384.16H168.25V178.48H210.12L227.35 199.88H495.65V384.16Z" fill="#D2DADD" stroke="#979797" stroke-width="0.5"/>
<path opacity="0.1" d="M364.21 274.14H290.13V288.49H364.21V274.14Z" fill="black"/>
<path fill-rule="evenodd" clip-rule="evenodd" d="M106 210.731C106 198.177 116.177 188 128.731 188C141.283 188.006 151.457 198.18 151.463 210.731C151.463 223.286 141.286 233.463 128.731 233.463C116.177 233.463 106 223.286 106 210.731ZM137.824 210.731L124.185 200.502V220.961L137.824 210.731Z" fill="#D2DADD"/>
<path d="M541.144 173.312C540.888 174.238 539.93 174.782 539.003 174.527L465.668 153.934C464.744 153.669 464.209 152.706 464.473 151.782L478.541 101.684C478.797 100.758 479.755 100.214 480.681 100.468L554.017 121.062C554.941 121.326 555.475 122.29 555.212 123.214" fill="url(#paint4_linear_128_1836)"/>
<path d="M540.51 172.253C540.259 173.147 539.331 173.668 538.437 173.417L466.792 153.299C465.897 153.048 465.376 152.119 465.627 151.225L479.226 102.797C479.477 101.903 480.406 101.382 481.3 101.633L552.936 121.749C553.83 122 554.351 122.928 554.1 123.822" fill="white"/>
<rect x="481.904" y="104.218" width="71.9201" height="49.1912" rx="8.85" transform="rotate(15.6852 481.904 104.218)" fill="url(#paint5_linear_128_1836)"/>
<rect x="482.431" y="105.611" width="70.0751" height="46.6086" rx="8.85" transform="rotate(15.6852 482.431 105.611)" fill="white"/>
<path d="M482.57 145.365L496.56 136.167C497.047 135.846 497.641 135.734 498.21 135.854C498.779 135.974 499.277 136.317 499.593 136.808L501.813 140.262C502.4 141.173 503.564 141.515 504.551 141.066L515.744 135.968C516.815 135.478 518.078 135.926 518.603 136.98L526.26 152.374C526.473 152.802 526.54 153.289 526.452 153.76L525.52 158.722C525.407 159.327 525.045 159.858 524.523 160.184C524.002 160.509 523.368 160.6 522.778 160.434L483.173 149.313C482.036 148.993 481.359 147.824 481.646 146.673V146.673C481.779 146.136 482.109 145.669 482.57 145.365Z" fill="#D2DADD"/>
<circle cx="488.536" cy="115.088" r="4.3387" transform="rotate(15.6852 488.536 115.088)" fill="#D2DADD"/>
<defs>
<linearGradient id="paint0_linear_128_1836" x1="434.52" y1="377.66" x2="434.52" y2="188.27" gradientUnits="userSpaceOnUse">
<stop stop-color="#808080" stop-opacity="0.25"/>
<stop offset="0.54" stop-color="#808080" stop-opacity="0.12"/>
<stop offset="1" stop-color="#808080" stop-opacity="0.1"/>
</linearGradient>
<linearGradient id="paint1_linear_128_1836" x1="276.35" y1="217.8" x2="248.51" y2="99.2399" gradientUnits="userSpaceOnUse">
<stop stop-color="#808080" stop-opacity="0.25"/>
<stop offset="0.54" stop-color="#808080" stop-opacity="0.12"/>
<stop offset="1" stop-color="#808080" stop-opacity="0.1"/>
</linearGradient>
<linearGradient id="paint2_linear_128_1836" x1="343.54" y1="229.79" x2="304.26" y2="102.99" gradientUnits="userSpaceOnUse">
<stop stop-color="#808080" stop-opacity="0.25"/>
<stop offset="0.54" stop-color="#808080" stop-opacity="0.12"/>
<stop offset="1" stop-color="#808080" stop-opacity="0.1"/>
</linearGradient>
<linearGradient id="paint3_linear_128_1836" x1="375.84" y1="247" x2="392.19" y2="138.04" gradientUnits="userSpaceOnUse">
<stop stop-color="#808080" stop-opacity="0.25"/>
<stop offset="0.54" stop-color="#808080" stop-opacity="0.12"/>
<stop offset="1" stop-color="#808080" stop-opacity="0.1"/>
</linearGradient>
<linearGradient id="paint4_linear_128_1836" x1="540.672" y1="174.995" x2="555.686" y2="121.528" gradientUnits="userSpaceOnUse">
<stop stop-color="#B3B3B3" stop-opacity="0.25"/>
<stop offset="0.54" stop-color="#B3B3B3" stop-opacity="0.1"/>
<stop offset="1" stop-color="#B3B3B3" stop-opacity="0.05"/>
</linearGradient>
<linearGradient id="paint5_linear_128_1836" x1="553.825" y1="153.411" x2="553.825" y2="104.218" gradientUnits="userSpaceOnUse">
<stop stop-color="#B3B3B3" stop-opacity="0.25"/>
<stop offset="0.54" stop-color="#B3B3B3" stop-opacity="0.1"/>
<stop offset="1" stop-color="#B3B3B3" stop-opacity="0.05"/>
</linearGradient>
</defs>
</svg>
