<svg width="158" height="188" viewBox="0 0 158 188" fill="none" xmlns="http://www.w3.org/2000/svg">
<path d="M133 187.5H25C11.469 187.5 0.5 176.531 0.5 163V25C0.5 11.469 11.469 0.5 25 0.5H114.001L157.5 46.6983V163C157.5 176.531 146.531 187.5 133 187.5Z" fill="white" stroke="#F0F0F0"/>
<path d="M53 122.14L71.8124 92.9895L54.5759 64H68.4412L77.8474 82.5392C78.7159 84.3004 79.311 85.6079 79.6331 86.4714H79.755C80.373 85.0664 81.0235 83.702 81.7065 82.3781L91.7616 64.0098H104.49L86.8145 92.8285L104.939 122.14H91.3957L80.5307 101.791C80.019 100.925 79.5847 100.016 79.233 99.0733H79.0721C78.7538 99.9964 78.3315 100.88 77.8133 101.708L66.6264 122.14H53Z" fill="#0F783F"/>
</svg>
