<svg width="18" height="16" viewBox="0 0 18 16" fill="none" xmlns="http://www.w3.org/2000/svg">
<path d="M9.00002 15.4999L7.79169 14.4166C6.38891 13.1527 5.22919 12.0624 4.31252 11.1458C3.39585 10.2291 2.66669 9.40617 2.12502 8.677C1.58335 7.94784 1.20488 7.2777 0.989604 6.66659C0.774326 6.05547 0.666687 5.43047 0.666687 4.79159C0.666687 3.48603 1.10419 2.39575 1.97919 1.52075C2.85419 0.645752 3.94446 0.208252 5.25002 0.208252C5.97224 0.208252 6.65974 0.36103 7.31252 0.666585C7.9653 0.972141 8.5278 1.4027 9.00002 1.95825C9.47224 1.4027 10.0347 0.972141 10.6875 0.666585C11.3403 0.36103 12.0278 0.208252 12.75 0.208252C14.0556 0.208252 15.1459 0.645752 16.0209 1.52075C16.8959 2.39575 17.3334 3.48603 17.3334 4.79159C17.3334 5.43047 17.2257 6.05547 17.0104 6.66659C16.7952 7.2777 16.4167 7.94784 15.875 8.677C15.3334 9.40617 14.6042 10.2291 13.6875 11.1458C12.7709 12.0624 11.6111 13.1527 10.2084 14.4166L9.00002 15.4999ZM9.00002 13.2499C10.3334 12.0555 11.4306 11.0312 12.2917 10.177C13.1528 9.32284 13.8334 8.57978 14.3334 7.94784C14.8334 7.31589 15.1806 6.75339 15.375 6.26034C15.5695 5.76728 15.6667 5.2777 15.6667 4.79159C15.6667 3.95825 15.3889 3.26381 14.8334 2.70825C14.2778 2.1527 13.5834 1.87492 12.75 1.87492C12.0972 1.87492 11.4931 2.05895 10.9375 2.427C10.382 2.79506 10 3.26381 9.79169 3.83325H8.20835C8.00002 3.26381 7.61808 2.79506 7.06252 2.427C6.50696 2.05895 5.9028 1.87492 5.25002 1.87492C4.41669 1.87492 3.72224 2.1527 3.16669 2.70825C2.61113 3.26381 2.33335 3.95825 2.33335 4.79159C2.33335 5.2777 2.43058 5.76728 2.62502 6.26034C2.81946 6.75339 3.16669 7.31589 3.66669 7.94784C4.16669 8.57978 4.84724 9.32284 5.70835 10.177C6.56946 11.0312 7.66669 12.0555 9.00002 13.2499Z" fill="#9C9696"/>
</svg>
