<svg width="18" height="18" viewBox="0 0 18 18" fill="none" xmlns="http://www.w3.org/2000/svg">
<g clip-path="url(#clip0_188_314073)">
<path fill-rule="evenodd" clip-rule="evenodd" d="M5.49749 9.84741C4.46999 10.5449 3.74999 11.4899 3.74999 12.7499V14.9999H0.74999V12.7499C0.74999 11.1149 3.42749 10.1474 5.49749 9.84741Z" fill="#554D4D"/>
<path d="M11.25 9C9.59315 9 8.25 7.65685 8.25 6C8.25 4.34315 9.59315 3 11.25 3C12.9069 3 14.25 4.34315 14.25 6C14.25 7.65685 12.9069 9 11.25 9Z" fill="#554D4D"/>
<path fill-rule="evenodd" clip-rule="evenodd" d="M6.74999 9C5.09249 9 3.74999 7.6575 3.74999 6C3.74999 4.3425 5.09249 3 6.74999 3C7.10249 3 7.43249 3.075 7.74749 3.18C7.12499 3.9525 6.74999 4.935 6.74999 6C6.74999 7.065 7.12499 8.0475 7.74749 8.82C7.43249 8.925 7.10249 9 6.74999 9Z" fill="#554D4D"/>
<path fill-rule="evenodd" clip-rule="evenodd" d="M11.25 9.75C13.2525 9.75 17.25 10.755 17.25 12.75V15H5.25V12.75C5.25 10.755 9.2475 9.75 11.25 9.75Z" fill="#554D4D"/>
</g>
<defs>
<clipPath id="clip0_188_314073">
<rect width="18" height="18" fill="white" transform="matrix(-1 0 0 1 18 0)"/>
</clipPath>
</defs>
</svg>
