<svg width="16" height="15" viewBox="0 0 16 15" fill="none" xmlns="http://www.w3.org/2000/svg">
<path d="M8 14.7498L6.9125 13.7748C5.65 12.6373 4.60625 11.6561 3.78125 10.8311C2.95625 10.0061 2.3 9.26543 1.8125 8.60918C1.325 7.95293 0.984375 7.3498 0.790625 6.7998C0.596875 6.2498 0.5 5.6873 0.5 5.1123C0.5 3.9373 0.89375 2.95605 1.68125 2.16855C2.46875 1.38105 3.45 0.987305 4.625 0.987305C5.275 0.987305 5.89375 1.1248 6.48125 1.3998C7.06875 1.6748 7.575 2.0623 8 2.5623C8.425 2.0623 8.93125 1.6748 9.51875 1.3998C10.1063 1.1248 10.725 0.987305 11.375 0.987305C12.55 0.987305 13.5313 1.38105 14.3188 2.16855C15.1063 2.95605 15.5 3.9373 15.5 5.1123C15.5 5.6873 15.4031 6.2498 15.2094 6.7998C15.0156 7.3498 14.675 7.95293 14.1875 8.60918C13.7 9.26543 13.0438 10.0061 12.2188 10.8311C11.3938 11.6561 10.35 12.6373 9.0875 13.7748L8 14.7498Z" fill="#554D4D"/>
</svg>
