<svg width="23" height="12" viewBox="0 0 23 12" fill="none" xmlns="http://www.w3.org/2000/svg">
<path d="M17 0H12.4667V2.26667H17C18.87 2.26667 20.4 3.79667 20.4 5.66667C20.4 7.53667 18.87 9.06667 17 9.06667H12.4667V11.3333H17C20.128 11.3333 22.6667 8.79467 22.6667 5.66667C22.6667 2.53867 20.128 0 17 0ZM10.2 9.06667H5.66667C3.79667 9.06667 2.26667 7.53667 2.26667 5.66667C2.26667 3.79667 3.79667 2.26667 5.66667 2.26667H10.2V0H5.66667C2.53867 0 0 2.53867 0 5.66667C0 8.79467 2.53867 11.3333 5.66667 11.3333H10.2V9.06667ZM6.8 4.53333H15.8667V6.8H6.8V4.53333Z" fill="#737070"/>
</svg>
