<svg width="25" height="24" viewBox="0 0 25 24" fill="none" xmlns="http://www.w3.org/2000/svg">
<g clip-path="url(#clip0_150_288941)">
<path d="M12.8 8C13.9 8 14.8 7.1 14.8 6C14.8 4.9 13.9 4 12.8 4C11.7 4 10.8 4.9 10.8 6C10.8 7.1 11.7 8 12.8 8ZM12.8 10C11.7 10 10.8 10.9 10.8 12C10.8 13.1 11.7 14 12.8 14C13.9 14 14.8 13.1 14.8 12C14.8 10.9 13.9 10 12.8 10ZM12.8 16C11.7 16 10.8 16.9 10.8 18C10.8 19.1 11.7 20 12.8 20C13.9 20 14.8 19.1 14.8 18C14.8 16.9 13.9 16 12.8 16Z" fill="#9C9696"/>
</g>
<defs>
<clipPath id="clip0_150_288941">
<rect width="24" height="24" fill="white" transform="translate(0.800049)"/>
</clipPath>
</defs>
</svg>
