<svg width="6" height="21" viewBox="0 0 6 21" fill="none" xmlns="http://www.w3.org/2000/svg">
<path d="M2.83301 20.668C2.14551 20.668 1.55697 20.4232 1.06738 19.9336C0.577799 19.444 0.333008 18.8555 0.333008 18.168C0.333008 17.4805 0.577799 16.8919 1.06738 16.4023C1.55697 15.9128 2.14551 15.668 2.83301 15.668C3.52051 15.668 4.10905 15.9128 4.59863 16.4023C5.08822 16.8919 5.33301 17.4805 5.33301 18.168C5.33301 18.8555 5.08822 19.444 4.59863 19.9336C4.10905 20.4232 3.52051 20.668 2.83301 20.668ZM2.83301 13.168C2.14551 13.168 1.55697 12.9232 1.06738 12.4336C0.577799 11.944 0.333008 11.3555 0.333008 10.668C0.333008 9.98047 0.577799 9.39193 1.06738 8.90234C1.55697 8.41276 2.14551 8.16797 2.83301 8.16797C3.52051 8.16797 4.10905 8.41276 4.59863 8.90234C5.08822 9.39193 5.33301 9.98047 5.33301 10.668C5.33301 11.3555 5.08822 11.944 4.59863 12.4336C4.10905 12.9232 3.52051 13.168 2.83301 13.168ZM2.83301 5.66797C2.14551 5.66797 1.55697 5.42318 1.06738 4.93359C0.577799 4.44401 0.333008 3.85547 0.333008 3.16797C0.333008 2.48047 0.577799 1.89193 1.06738 1.40234C1.55697 0.91276 2.14551 0.667969 2.83301 0.667969C3.52051 0.667969 4.10905 0.91276 4.59863 1.40234C5.08822 1.89193 5.33301 2.48047 5.33301 3.16797C5.33301 3.85547 5.08822 4.44401 4.59863 4.93359C4.10905 5.42318 3.52051 5.66797 2.83301 5.66797Z" fill="#737070"/>
</svg>
