<svg width="18" height="18" viewBox="0 0 18 18" fill="none" xmlns="http://www.w3.org/2000/svg">
<path d="M9 17.3332C7.84723 17.3332 6.76389 17.1144 5.75 16.6769C4.73612 16.2394 3.85417 15.6457 3.10417 14.8957C2.35417 14.1457 1.76042 13.2637 1.32292 12.2498C0.885422 11.2359 0.666672 10.1526 0.666672 8.99984C0.666672 7.84706 0.885422 6.76373 1.32292 5.74984C1.76042 4.73595 2.35417 3.854 3.10417 3.104C3.85417 2.354 4.73612 1.76025 5.75 1.32275C6.76389 0.885254 7.84723 0.666504 9 0.666504C10.1528 0.666504 11.2361 0.885254 12.25 1.32275C13.2639 1.76025 14.1458 2.354 14.8958 3.104C15.6458 3.854 16.2396 4.73595 16.6771 5.74984C17.1146 6.76373 17.3333 7.84706 17.3333 8.99984C17.3333 10.1526 17.1146 11.2359 16.6771 12.2498C16.2396 13.2637 15.6458 14.1457 14.8958 14.8957C14.1458 15.6457 13.2639 16.2394 12.25 16.6769C11.2361 17.1144 10.1528 17.3332 9 17.3332ZM8.16667 15.6248V13.9998C7.70834 13.9998 7.31598 13.8366 6.98959 13.5103C6.6632 13.1839 6.5 12.7915 6.5 12.3332V11.4998L2.50001 7.49984C2.45834 7.74984 2.42014 7.99984 2.38542 8.24984C2.3507 8.49984 2.33334 8.74984 2.33334 8.99984C2.33334 10.6804 2.88542 12.1526 3.98959 13.4165C5.09375 14.6804 6.48612 15.4165 8.16667 15.6248ZM13.9167 13.4998C14.1944 13.1943 14.4444 12.8644 14.6667 12.5103C14.8889 12.1561 15.0729 11.788 15.2188 11.4061C15.3646 11.0241 15.4757 10.6318 15.5521 10.229C15.6285 9.82623 15.6667 9.4165 15.6667 8.99984C15.6667 7.63873 15.2882 6.39567 14.5313 5.27067C13.7743 4.14567 12.7639 3.33317 11.5 2.83317V3.1665C11.5 3.62484 11.3368 4.0172 11.0104 4.34359C10.684 4.66998 10.2917 4.83317 9.83334 4.83317H8.16667V6.49984C8.16667 6.73595 8.08681 6.93386 7.92709 7.09359C7.76737 7.25331 7.56945 7.33317 7.33334 7.33317H5.66667V8.99984H10.6667C10.9028 8.99984 11.1007 9.0797 11.2604 9.23942C11.4201 9.39914 11.5 9.59706 11.5 9.83317V12.3332H12.3333C12.6944 12.3332 13.0208 12.4408 13.3125 12.6561C13.6042 12.8714 13.8056 13.1526 13.9167 13.4998Z" fill="#9C9696"/>
</svg>
