<svg width="14" height="4" viewBox="0 0 14 4" fill="none" xmlns="http://www.w3.org/2000/svg">
<path d="M10.3334 1.99992C10.3334 2.91659 11.0834 3.66659 12 3.66659C12.9167 3.66659 13.6667 2.91659 13.6667 1.99992C13.6667 1.08325 12.9167 0.333252 12 0.333252C11.0834 0.333252 10.3334 1.08325 10.3334 1.99992ZM8.66669 1.99992C8.66669 1.08325 7.91669 0.333252 7.00002 0.333252C6.08335 0.333252 5.33335 1.08325 5.33335 1.99992C5.33335 2.91659 6.08335 3.66659 7.00002 3.66659C7.91669 3.66659 8.66669 2.91659 8.66669 1.99992ZM3.66669 1.99992C3.66669 1.08325 2.91669 0.333251 2.00002 0.333251C1.08335 0.333251 0.333353 1.08325 0.333353 1.99992C0.333353 2.91658 1.08335 3.66658 2.00002 3.66658C2.91669 3.66658 3.66669 2.91659 3.66669 1.99992Z" fill="#9C9696"/>
</svg>
