<svg width="20" height="20" viewBox="0 0 20 20" fill="none" xmlns="http://www.w3.org/2000/svg">
<path d="M10.1667 11.6666L8.81252 13.0208L9.97919 14.1874L13.3334 10.8333L9.97919 7.47908L8.81252 8.64575L10.1667 9.99992H6.66669V11.6666H10.1667ZM3.33335 16.6666C2.87502 16.6666 2.48266 16.5034 2.15627 16.177C1.82988 15.8506 1.66669 15.4583 1.66669 14.9999V4.99992C1.66669 4.54159 1.82988 4.14922 2.15627 3.82284C2.48266 3.49645 2.87502 3.33325 3.33335 3.33325H8.33335L10 4.99992H16.6667C17.125 4.99992 17.5174 5.16311 17.8438 5.4895C18.1702 5.81589 18.3334 6.20825 18.3334 6.66658V14.9999C18.3334 15.4583 18.1702 15.8506 17.8438 16.177C17.5174 16.5034 17.125 16.6666 16.6667 16.6666H3.33335ZM3.33335 14.9999H16.6667V6.66658H9.31252L7.64585 4.99992H3.33335V14.9999Z" fill="#9C9696"/>
</svg>
