<svg width="158" height="188" viewBox="0 0 158 188" fill="none" xmlns="http://www.w3.org/2000/svg">
<path d="M133 187.5H25C11.469 187.5 0.5 176.531 0.5 163V25C0.5 11.469 11.469 0.5 25 0.5H114.001L157.5 46.6983V163C157.5 176.531 146.531 187.5 133 187.5Z" fill="white" stroke="#F0F0F0"/>
<path d="M40 120.213V64.9967C40 64.598 40.1329 64.3987 40.5316 64.3987C41.4618 64.3987 42.3256 64.3987 43.5216 64.3322C44.7841 64.2658 46.1795 64.2658 47.5748 64.1993C49.0366 64.1329 50.5649 64.1329 52.226 64.0664C53.8872 64 55.4819 64 57.0766 64C61.462 64 65.1165 64.5316 68.1065 65.6611C70.7644 66.5914 73.2229 68.0532 75.2827 70.0466C77.0103 71.7741 78.3392 73.834 79.203 76.1596C80.0003 78.4187 80.4654 80.7443 80.4654 83.1364C80.4654 87.7211 79.4023 91.575 77.276 94.565C75.1498 97.5551 72.1597 99.8142 68.6381 101.077C64.9836 102.406 60.9968 102.871 56.545 102.871C55.2825 102.871 54.4187 102.871 53.8872 102.804C53.3556 102.738 52.6247 102.738 51.5616 102.738V119.947C51.628 120.346 51.3622 120.612 50.9635 120.678C50.8971 120.678 50.8307 120.678 50.7642 120.678H40.598C40.1993 120.944 40 120.678 40 120.213ZM51.6944 74.7642V92.771C52.4253 92.8374 53.1563 92.9039 53.7543 92.9039H56.6114C58.6712 92.9039 60.7975 92.5717 62.7909 91.9072C64.5185 91.4421 65.9803 90.3789 67.1763 89.05C68.3059 87.7211 68.8374 85.8606 68.8374 83.535C68.9039 81.8739 68.4388 80.2128 67.575 78.7509C66.6447 77.3556 65.3823 76.2925 63.7876 75.6944C61.7942 74.8971 59.6679 74.5649 57.4752 74.6313C56.0799 74.6313 54.8174 74.6313 53.8207 74.6978C52.824 74.6978 52.0267 74.7642 51.6944 74.7642Z" fill="#31A8FF"/>
<path d="M114.021 89.5152C112.426 88.6514 110.698 88.0534 108.904 87.7212C106.911 87.3225 104.918 87.0567 102.924 87.0567C101.861 86.9903 100.731 87.1896 99.7347 87.4554C99.0703 87.5883 98.4723 87.987 98.0736 88.5185C97.8078 88.9172 97.6749 89.5152 97.6749 89.9803C97.6749 90.4454 97.8743 90.977 98.2065 91.3757C98.6716 91.9737 99.3361 92.4388 100.001 92.8375C101.263 93.5019 102.525 94.1 103.788 94.6315C106.712 95.6282 109.502 96.9571 112.027 98.5518C113.821 99.6814 115.217 101.21 116.28 103.004C117.144 104.731 117.542 106.592 117.542 108.519C117.609 111.044 116.878 113.569 115.482 115.628C113.954 117.755 111.894 119.416 109.502 120.412C106.844 121.542 103.655 122.14 99.8012 122.14C97.3427 122.14 94.9507 121.941 92.4922 121.476C90.6317 121.143 88.7048 120.545 87.0436 119.748C86.6449 119.549 86.3792 119.15 86.4456 118.751V109.449C86.4456 109.316 86.512 109.05 86.6449 108.984C86.7778 108.851 86.9772 108.917 87.1101 109.05C89.1699 110.313 91.429 111.11 93.7546 111.708C95.8144 112.24 97.9407 112.505 100.067 112.505C102.127 112.505 103.522 112.24 104.519 111.775C105.383 111.376 105.981 110.512 105.981 109.515C105.981 108.784 105.582 108.054 104.718 107.389C103.854 106.725 102.06 105.861 99.469 104.864C96.7447 103.867 94.2198 102.605 91.8277 101.01C90.1666 99.8143 88.7712 98.286 87.7745 96.4256C86.9107 94.698 86.512 92.8375 86.512 90.977C86.512 88.6514 87.1765 86.4587 88.3061 84.4653C89.635 82.3391 91.6284 80.6115 93.954 79.5483C96.4789 78.2859 99.6683 77.6879 103.456 77.6879C105.648 77.6879 107.908 77.8208 110.1 78.153C111.695 78.3523 113.29 78.8174 114.685 79.4155C114.884 79.4819 115.084 79.6812 115.217 79.8806C115.283 80.0799 115.349 80.2793 115.349 80.545V88.9836C115.349 89.183 115.217 89.3823 115.084 89.5152C114.486 89.6481 114.22 89.6481 114.021 89.5152Z" fill="#31A8FF"/>
</svg>
