<svg width="158" height="188" viewBox="0 0 158 188" fill="none" xmlns="http://www.w3.org/2000/svg">
<path d="M133 187.5H25C11.469 187.5 0.5 176.531 0.5 163V25C0.5 11.469 11.469 0.5 25 0.5H114.001L157.5 46.6983V163C157.5 176.531 146.531 187.5 133 187.5Z" fill="white" stroke="#F0F0F0"/>
<path d="M79.0675 64.0545C84.7544 63.6707 90.3924 65.3227 94.9731 68.7147C98.7937 72.1256 100.835 77.1028 100.51 82.214C100.572 85.7671 99.6257 89.265 97.7797 92.3015C95.9109 95.2858 93.2183 97.6655 90.027 99.1536C86.3786 100.85 82.3898 101.688 78.367 101.603H67.3169V122.14H56V64.0545H79.0675ZM67.3074 92.7304H77.0472C80.1349 92.9572 83.1986 92.0433 85.6576 90.1621C87.6915 88.2111 88.7575 85.4597 88.569 82.6477C88.569 76.2467 84.8491 73.0461 77.4094 73.0461H67.3075V92.7304H67.3074Z" fill="#C53F1E"/>
</svg>
