<svg width="26" height="20" viewBox="0 0 26 20" fill="none" xmlns="http://www.w3.org/2000/svg">
<path d="M12.0002 8.95887V13.8718C12.0002 14.1555 12.0959 14.3931 12.2873 14.5846C12.4788 14.776 12.7164 14.8717 13.0001 14.8717C13.2839 14.8717 13.5215 14.776 13.7129 14.5846C13.9044 14.3931 14.0001 14.1555 14.0001 13.8718V8.9794L15.7643 10.723C15.9625 10.9076 16.1946 11.0055 16.4604 11.0166C16.7262 11.0277 16.9625 10.9299 17.1693 10.723C17.3762 10.5162 17.4796 10.2786 17.4796 10.0102C17.4796 9.74186 17.3762 9.50426 17.1693 9.29743L13.8437 5.9718C13.6027 5.73078 13.3215 5.61027 13.0001 5.61027C12.6788 5.61027 12.3976 5.73078 12.1566 5.9718L8.83093 9.29743C8.63264 9.4957 8.53477 9.72775 8.53733 9.99357C8.53989 10.2594 8.64459 10.4957 8.85143 10.7025C9.05825 10.8957 9.29243 10.9957 9.55396 11.0025C9.8155 11.0093 10.0497 10.9093 10.2565 10.7025L12.0002 8.95887ZM2.74376 19.9999C2.07025 19.9999 1.50016 19.7666 1.0335 19.2999C0.566829 18.8333 0.333496 18.2632 0.333496 17.5897V2.41027C0.333496 1.73676 0.566829 1.16667 1.0335 0.7C1.50016 0.233333 2.07025 0 2.74376 0H23.2565C23.93 0 24.5001 0.233333 24.9668 0.7C25.4334 1.16667 25.6668 1.73676 25.6668 2.41027V17.5897C25.6668 18.2632 25.4334 18.8333 24.9668 19.2999C24.5001 19.7666 23.93 19.9999 23.2565 19.9999H2.74376ZM2.74376 18H23.2565C23.3591 18 23.4531 17.9572 23.5386 17.8718C23.6241 17.7863 23.6668 17.6922 23.6668 17.5897V2.41027C23.6668 2.30769 23.6241 2.21366 23.5386 2.12817C23.4531 2.0427 23.3591 1.99997 23.2565 1.99997H2.74376C2.64119 1.99997 2.54715 2.0427 2.46166 2.12817C2.3762 2.21366 2.33346 2.30769 2.33346 2.41027V17.5897C2.33346 17.6922 2.3762 17.7863 2.46166 17.8718C2.54715 17.9572 2.64119 18 2.74376 18Z" fill="#737070"/>
</svg>
