<svg width="20" height="13" viewBox="0 0 20 13" fill="none" xmlns="http://www.w3.org/2000/svg">
<path d="M9.99998 1.99992C13.1583 1.99992 15.975 3.77492 17.35 6.58325C15.975 9.39159 13.1583 11.1666 9.99998 11.1666C6.84165 11.1666 4.02498 9.39159 2.64998 6.58325C4.02498 3.77492 6.84165 1.99992 9.99998 1.99992ZM9.99998 0.333252C5.83331 0.333252 2.27498 2.92492 0.833313 6.58325C2.27498 10.2416 5.83331 12.8333 9.99998 12.8333C14.1666 12.8333 17.725 10.2416 19.1666 6.58325C17.725 2.92492 14.1666 0.333252 9.99998 0.333252ZM9.99998 4.49992C11.15 4.49992 12.0833 5.43325 12.0833 6.58325C12.0833 7.73325 11.15 8.66658 9.99998 8.66658C8.84998 8.66658 7.91665 7.73325 7.91665 6.58325C7.91665 5.43325 8.84998 4.49992 9.99998 4.49992ZM9.99998 2.83325C7.93331 2.83325 6.24998 4.51659 6.24998 6.58325C6.24998 8.64992 7.93331 10.3333 9.99998 10.3333C12.0666 10.3333 13.75 8.64992 13.75 6.58325C13.75 4.51659 12.0666 2.83325 9.99998 2.83325Z" fill="#9C9696"/>
</svg>
