<svg width="14" height="14" viewBox="0 0 14 14" fill="none" xmlns="http://www.w3.org/2000/svg">
<path d="M6.33337 3.66536H7.66671V4.9987H6.33337V3.66536ZM6.33337 6.33203H7.66671V10.332H6.33337V6.33203ZM7.00004 0.332031C3.32004 0.332031 0.333374 3.3187 0.333374 6.9987C0.333374 10.6787 3.32004 13.6654 7.00004 13.6654C10.68 13.6654 13.6667 10.6787 13.6667 6.9987C13.6667 3.3187 10.68 0.332031 7.00004 0.332031ZM7.00004 12.332C4.06004 12.332 1.66671 9.9387 1.66671 6.9987C1.66671 4.0587 4.06004 1.66536 7.00004 1.66536C9.94004 1.66536 12.3334 4.0587 12.3334 6.9987C12.3334 9.9387 9.94004 12.332 7.00004 12.332Z" fill="#9C9696"/>
</svg>
