<svg width="19" height="14" viewBox="0 0 19 14" fill="none" xmlns="http://www.w3.org/2000/svg">
<path d="M7.33335 6.99992C9.17502 6.99992 10.6667 5.50825 10.6667 3.66659C10.6667 1.82492 9.17502 0.333252 7.33335 0.333252C5.49169 0.333252 4.00002 1.82492 4.00002 3.66659C4.00002 5.50825 5.49169 6.99992 7.33335 6.99992ZM7.33335 1.99992C8.25002 1.99992 9.00002 2.74992 9.00002 3.66659C9.00002 4.58325 8.25002 5.33325 7.33335 5.33325C6.41669 5.33325 5.66669 4.58325 5.66669 3.66659C5.66669 2.74992 6.41669 1.99992 7.33335 1.99992ZM12.6584 9.13325C11.2584 8.41658 9.44169 7.83325 7.33335 7.83325C5.22502 7.83325 3.40835 8.41658 2.00835 9.13325C1.17502 9.55825 0.666687 10.4166 0.666687 11.3499V13.6666H14V11.3499C14 10.4166 13.4917 9.55825 12.6584 9.13325ZM12.3334 11.9999H2.33335V11.3499C2.33335 11.0333 2.50002 10.7499 2.76669 10.6166C3.75835 10.1083 5.35835 9.49992 7.33335 9.49992C9.30835 9.49992 10.9084 10.1083 11.9 10.6166C12.1667 10.7499 12.3334 11.0333 12.3334 11.3499V11.9999Z" fill="#9C9696"/>
<path d="M16.5 4.49992V2.83325H14.8334V4.49992H13.1667V6.16659H14.8334V7.83325H16.5V6.16659H18.1667V4.49992H16.5Z" fill="#9C9696"/>
</svg>
