<svg width="18" height="18" viewBox="0 0 18 18" fill="none" xmlns="http://www.w3.org/2000/svg">
<path d="M8.16669 4.83341H9.83335V6.50008H8.16669V4.83341ZM8.16669 8.16675H9.83335V13.1667H8.16669V8.16675ZM9.00002 0.666748C4.40002 0.666748 0.666687 4.40008 0.666687 9.00008C0.666687 13.6001 4.40002 17.3334 9.00002 17.3334C13.6 17.3334 17.3334 13.6001 17.3334 9.00008C17.3334 4.40008 13.6 0.666748 9.00002 0.666748ZM9.00002 15.6667C5.32502 15.6667 2.33335 12.6751 2.33335 9.00008C2.33335 5.32508 5.32502 2.33341 9.00002 2.33341C12.675 2.33341 15.6667 5.32508 15.6667 9.00008C15.6667 12.6751 12.675 15.6667 9.00002 15.6667Z" fill="#9C9696"/>
</svg>
