<svg width="158" height="188" viewBox="0 0 158 188" fill="none" xmlns="http://www.w3.org/2000/svg">
<path d="M133 187.5H25C11.469 187.5 0.5 176.531 0.5 163V25C0.5 11.469 11.469 0.5 25 0.5H114.001L157.5 46.6983V163C157.5 176.531 146.531 187.5 133 187.5Z" fill="white" stroke="#F0F0F0"/>
<path d="M61.1505 107.992C61.3252 109.371 61.4385 110.573 61.493 111.601H61.6944C61.7752 110.627 61.9293 109.453 62.1571 108.073C62.3849 106.696 62.6072 105.533 62.8223 104.587L72.1622 64H84.2406L93.9034 103.979C94.387 105.953 94.7895 108.465 95.1112 111.52H95.2719C95.4061 109.411 95.7415 106.978 96.2785 104.221L104.009 64H115L101.473 122.143H88.6288L79.4092 83.6248C79.1407 82.5156 78.8388 81.071 78.5032 79.286C78.1676 77.5034 77.9596 76.2055 77.8795 75.3947H77.7188C77.6112 76.3408 77.403 77.7458 77.094 79.61C76.7851 81.4764 76.5364 82.8536 76.349 83.7461L67.6929 122.143H54.6485L41 64H52.1922L60.6079 104.669C60.7953 105.505 60.9758 106.614 61.1505 107.992Z" fill="#185ABD"/>
</svg>
