<svg width="158" height="188" viewBox="0 0 158 188" fill="none" xmlns="http://www.w3.org/2000/svg">
<path d="M133 187.5H25C11.469 187.5 0.5 176.531 0.5 163V25C0.5 11.469 11.469 0.5 25 0.5H114.001L157.5 46.6983V163C157.5 176.531 146.531 187.5 133 187.5Z" fill="white" stroke="#F0F0F0"/>
<path d="M29.96 113V106.056L53.032 78.672L54.376 82.592H30.464V73.8H64.232V80.744L41.16 108.128L39.816 104.208H65.072V113H29.96ZM70.9278 113V73.8H82.0158V113H70.9278ZM90.9044 113V73.8H108.824C112.408 73.8 115.488 74.3787 118.064 75.536C120.678 76.6933 122.694 78.3733 124.112 80.576C125.531 82.7413 126.24 85.3173 126.24 88.304C126.24 91.2533 125.531 93.8107 124.112 95.976C122.694 98.1413 120.678 99.8213 118.064 101.016C115.488 102.173 112.408 102.752 108.824 102.752H97.0644L101.992 97.936V113H90.9044ZM101.992 99.112L97.0644 94.016H108.152C110.467 94.016 112.184 93.512 113.304 92.504C114.462 91.496 115.04 90.096 115.04 88.304C115.04 86.4747 114.462 85.056 113.304 84.048C112.184 83.04 110.467 82.536 108.152 82.536H97.0644L101.992 77.44V99.112Z" fill="#EE4136"/>
</svg>
