<svg width="16" height="17" viewBox="0 0 16 17" fill="none" xmlns="http://www.w3.org/2000/svg">
<path d="M7.11111 9.38889V12.0556C7.11111 12.3074 7.1963 12.5185 7.36667 12.6889C7.53704 12.8593 7.74815 12.9444 8 12.9444C8.25185 12.9444 8.46296 12.8593 8.63333 12.6889C8.8037 12.5185 8.88889 12.3074 8.88889 12.0556V9.38889H11.5556C11.8074 9.38889 12.0185 9.3037 12.1889 9.13333C12.3593 8.96296 12.4444 8.75185 12.4444 8.5C12.4444 8.24815 12.3593 8.03704 12.1889 7.86667C12.0185 7.6963 11.8074 7.61111 11.5556 7.61111H8.88889V4.94444C8.88889 4.69259 8.8037 4.48148 8.63333 4.31111C8.46296 4.14074 8.25185 4.05556 8 4.05556C7.74815 4.05556 7.53704 4.14074 7.36667 4.31111C7.1963 4.48148 7.11111 4.69259 7.11111 4.94444V7.61111H4.44444C4.19259 7.61111 3.98148 7.6963 3.81111 7.86667C3.64074 8.03704 3.55556 8.24815 3.55556 8.5C3.55556 8.75185 3.64074 8.96296 3.81111 9.13333C3.98148 9.3037 4.19259 9.38889 4.44444 9.38889H7.11111ZM1.77778 16.5C1.28889 16.5 0.87037 16.3259 0.522222 15.9778C0.174074 15.6296 0 15.2111 0 14.7222V2.27778C0 1.78889 0.174074 1.37037 0.522222 1.02222C0.87037 0.674074 1.28889 0.5 1.77778 0.5H14.2222C14.7111 0.5 15.1296 0.674074 15.4778 1.02222C15.8259 1.37037 16 1.78889 16 2.27778V14.7222C16 15.2111 15.8259 15.6296 15.4778 15.9778C15.1296 16.3259 14.7111 16.5 14.2222 16.5H1.77778Z" fill="#EE4136"/>
</svg>
