<svg width="22" height="18" viewBox="0 0 22 18" fill="none" xmlns="http://www.w3.org/2000/svg">
<path fill-rule="evenodd" clip-rule="evenodd" d="M7.93571 3.11341C4.16449 3.11341 1.10731 6.17059 1.10731 9.94181C1.10731 13.713 4.16449 16.7702 7.93571 16.7702C11.7069 16.7702 14.7641 13.713 14.7641 9.94181C14.7641 6.17059 11.7069 3.11341 7.93571 3.11341ZM0 9.94181C0 5.55904 3.55294 2.0061 7.93571 2.0061C12.3185 2.0061 15.8714 5.55904 15.8714 9.94181C15.8714 14.3246 12.3185 17.8775 7.93571 17.8775C3.55294 17.8775 0 14.3246 0 9.94181Z" fill="black"/>
<path fill-rule="evenodd" clip-rule="evenodd" d="M0 9.93622C0 9.63045 0.247879 9.38257 0.553654 9.38257H15.3178C15.6235 9.38257 15.8714 9.63045 15.8714 9.93622C15.8714 10.242 15.6235 10.4899 15.3178 10.4899H0.553654C0.247879 10.4899 0 10.242 0 9.93622Z" fill="black"/>
<path fill-rule="evenodd" clip-rule="evenodd" d="M7.93616 2.0061C8.0917 2.0061 8.24006 2.07152 8.34495 2.18636C10.2819 4.30692 11.3827 7.05886 11.4425 9.93028C11.4427 9.93797 11.4427 9.94566 11.4425 9.95334C11.3827 12.8248 10.2819 15.5767 8.34495 17.6973C8.24006 17.8121 8.0917 17.8775 7.93616 17.8775C7.78063 17.8775 7.63227 17.8121 7.52738 17.6973C5.5904 15.5767 4.48963 12.8248 4.42981 9.95334C4.42965 9.94566 4.42965 9.93797 4.42981 9.93028C4.48963 7.05886 5.5904 4.30692 7.52738 2.18636C7.63227 2.07152 7.78063 2.0061 7.93616 2.0061ZM5.53712 9.94181C5.58947 12.3314 6.43704 14.6292 7.93616 16.4759C9.43529 14.6292 10.2829 12.3314 10.3352 9.94181C10.2829 7.5522 9.43529 5.25447 7.93616 3.40775C6.43704 5.25447 5.58947 7.5522 5.53712 9.94181Z" fill="black"/>
<path fill-rule="evenodd" clip-rule="evenodd" d="M18.5 0C18.7761 0 19 0.313401 19 0.7V6.3C19 6.6866 18.7761 7 18.5 7C18.2239 7 18 6.6866 18 6.3V0.7C18 0.313401 18.2239 0 18.5 0Z" fill="black"/>
<path fill-rule="evenodd" clip-rule="evenodd" d="M15 3.5C15 3.22386 15.3134 3 15.7 3H21.3C21.6866 3 22 3.22386 22 3.5C22 3.77614 21.6866 4 21.3 4H15.7C15.3134 4 15 3.77614 15 3.5Z" fill="black"/>
</svg>
