<svg width="24" height="24" viewBox="0 0 24 24" fill="none" xmlns="http://www.w3.org/2000/svg">
<path d="M11.8867 22.3594C10.5201 22.3594 9.22839 22.0969 8.01172 21.5719C6.79505 21.0469 5.73255 20.3302 4.82422 19.4219C3.91589 18.5135 3.19922 17.451 2.67422 16.2344C2.14922 15.0177 1.88672 13.726 1.88672 12.3594C1.88672 10.976 2.14922 9.68021 2.67422 8.47188C3.19922 7.26354 3.91589 6.20521 4.82422 5.29688C5.73255 4.38854 6.79505 3.67188 8.01172 3.14688C9.22839 2.62187 10.5201 2.35938 11.8867 2.35938C12.2034 2.35938 12.5117 2.37604 12.8117 2.40938C13.1117 2.44271 13.4117 2.48438 13.7117 2.53437V8.10938C13.5117 7.42604 13.2576 6.78021 12.9492 6.17188C12.6409 5.56354 12.2867 4.97604 11.8867 4.40937C11.4534 5.00938 11.0784 5.63437 10.7617 6.28437C10.4451 6.93437 10.1867 7.62604 9.98672 8.35938H13.7117V10.3594H9.53672C9.48672 10.6927 9.44922 11.0219 9.42422 11.3469C9.39922 11.6719 9.38672 12.0094 9.38672 12.3594C9.38672 12.7094 9.39922 13.0469 9.42422 13.3719C9.44922 13.6969 9.48672 14.026 9.53672 14.3594H14.2367C14.2867 14.026 14.3242 13.6969 14.3492 13.3719C14.3742 13.0469 14.3867 12.7094 14.3867 12.3594C14.3867 12.0094 14.3742 11.6719 14.3492 11.3469C14.3242 11.0219 14.2867 10.6927 14.2367 10.3594H16.2367C16.2867 10.6927 16.3242 11.0219 16.3492 11.3469C16.3742 11.6719 16.3867 12.0094 16.3867 12.3594C16.3867 12.7094 16.3742 13.0469 16.3492 13.3719C16.3242 13.6969 16.2867 14.026 16.2367 14.3594H19.6367C19.7201 14.026 19.7826 13.6969 19.8242 13.3719C19.8659 13.0469 19.8867 12.7094 19.8867 12.3594C19.8867 12.0094 19.8659 11.6719 19.8242 11.3469C19.7826 11.0219 19.7201 10.6927 19.6367 10.3594H21.6867C21.7534 10.6927 21.8034 11.026 21.8367 11.3594C21.8701 11.6927 21.8867 12.026 21.8867 12.3594C21.8867 13.726 21.6242 15.0177 21.0992 16.2344C20.5742 17.451 19.8576 18.5135 18.9492 19.4219C18.0409 20.3302 16.9826 21.0469 15.7742 21.5719C14.5659 22.0969 13.2701 22.3594 11.8867 22.3594ZM4.13672 14.3594H7.53672C7.48672 14.026 7.44922 13.6969 7.42422 13.3719C7.39922 13.0469 7.38672 12.7094 7.38672 12.3594C7.38672 12.0094 7.39922 11.6719 7.42422 11.3469C7.44922 11.0219 7.48672 10.6927 7.53672 10.3594H4.13672C4.05339 10.6927 3.99089 11.0219 3.94922 11.3469C3.90755 11.6719 3.88672 12.0094 3.88672 12.3594C3.88672 12.7094 3.90755 13.0469 3.94922 13.3719C3.99089 13.6969 4.05339 14.026 4.13672 14.3594ZM9.28672 19.9094C8.98672 19.3594 8.72422 18.7885 8.49922 18.1969C8.27422 17.6052 8.08672 16.9927 7.93672 16.3594H4.98672C5.47005 17.1927 6.07422 17.9177 6.79922 18.5344C7.52422 19.151 8.35339 19.6094 9.28672 19.9094ZM4.98672 8.35938H7.93672C8.08672 7.72604 8.27422 7.11354 8.49922 6.52187C8.72422 5.93021 8.98672 5.35938 9.28672 4.80938C8.35339 5.10938 7.52422 5.56771 6.79922 6.18438C6.07422 6.80104 5.47005 7.52604 4.98672 8.35938ZM11.8867 20.3094C12.3201 19.7094 12.6951 19.0844 13.0117 18.4344C13.3284 17.7844 13.5867 17.0927 13.7867 16.3594H9.98672C10.1867 17.0927 10.4451 17.7844 10.7617 18.4344C11.0784 19.0844 11.4534 19.7094 11.8867 20.3094ZM14.4867 19.9094C15.4201 19.6094 16.2492 19.151 16.9742 18.5344C17.6992 17.9177 18.3034 17.1927 18.7867 16.3594H15.8367C15.6867 16.9927 15.4992 17.6052 15.2742 18.1969C15.0492 18.7885 14.7867 19.3594 14.4867 19.9094ZM15.8867 8.35938V2.35938H21.8867V8.35938H15.8867ZM18.8867 5.35938H20.8867V3.35938H18.8867V5.35938Z" fill="#969696"/>
</svg>
