<svg width="24" height="24" viewBox="0 0 24 24" fill="none" xmlns="http://www.w3.org/2000/svg">
<path d="M9.75355 11.5351C8.21947 11.5351 6.97585 10.3094 6.97585 8.79734C6.97585 7.28531 8.21947 6.05957 9.75355 6.05957C11.2876 6.05957 12.5312 7.28531 12.5312 8.79734C12.5312 10.3094 11.2876 11.5351 9.75355 11.5351Z" fill="#222020"/>
<path fill-rule="evenodd" clip-rule="evenodd" d="M9.75319 12.2178C11.6073 12.2178 15.3086 13.1349 15.3086 14.9555V17.0089H4.19779V14.9555C4.19779 13.1349 7.89908 12.2178 9.75319 12.2178Z" fill="#222020"/>
<path d="M16.8807 12.568C16.7239 12.568 16.5907 12.5132 16.481 12.4035C16.3713 12.2938 16.3165 12.1606 16.3165 12.0038V10.0132H14.3259C14.1692 10.0132 14.0359 9.95839 13.9263 9.84869C13.8166 9.739 13.7617 9.60578 13.7617 9.44904C13.7617 9.2923 13.8166 9.15908 13.9263 9.04939C14.0359 8.9397 14.1692 8.88485 14.3259 8.88485H16.3165V6.89427C16.3165 6.73753 16.3713 6.60431 16.481 6.49462C16.5907 6.38492 16.7239 6.33008 16.8807 6.33008C17.0374 6.33008 17.1706 6.38492 17.2803 6.49462C17.39 6.60431 17.4449 6.73753 17.4449 6.89427V8.88485H19.4355C19.5922 8.88485 19.7254 8.9397 19.8351 9.04939C19.9448 9.15908 19.9996 9.2923 19.9996 9.44904C19.9996 9.60578 19.9448 9.739 19.8351 9.84869C19.7254 9.95839 19.5922 10.0132 19.4355 10.0132H17.4449V12.0038C17.4449 12.1606 17.39 12.2938 17.2803 12.4035C17.1706 12.5132 17.0374 12.568 16.8807 12.568Z" fill="#1C1B1F"/>
</svg>
