<svg width="24" height="24" viewBox="0 0 24 24" fill="none" xmlns="http://www.w3.org/2000/svg">
<path fill-rule="evenodd" clip-rule="evenodd" d="M12 2C6.48 2 2 6.48 2 12C2 17.52 6.48 22 12 22C17.52 22 22 17.52 22 12C22 6.48 17.52 2 12 2ZM15.61 8.34C16.68 8.34 17.54 9.2 17.54 10.27C17.54 11.34 16.68 12.2 15.61 12.2C14.54 12.2 13.68 11.34 13.68 10.27C13.67 9.2 14.54 8.34 15.61 8.34ZM9.61 6.76172C10.91 6.76172 11.97 7.82172 11.97 9.12172C11.97 10.4217 10.91 11.4817 9.61 11.4817C8.31 11.4817 7.25 10.4217 7.25 9.12172C7.25 7.81172 8.3 6.76172 9.61 6.76172ZM9.6107 15.8922V19.6422C7.2107 18.8922 5.3107 17.0422 4.4707 14.6822C5.5207 13.5622 8.1407 12.9922 9.6107 12.9922C10.1407 12.9922 10.8107 13.0722 11.5107 13.2122C9.8707 14.0822 9.6107 15.2322 9.6107 15.8922ZM12.0009 19.9978C11.7309 19.9978 11.4709 19.9878 11.2109 19.9578V15.8878C11.2109 14.4678 14.1509 13.7578 15.6109 13.7578C16.6809 13.7578 18.5309 14.1478 19.4509 14.9078C18.2809 17.8778 15.3909 19.9978 12.0009 19.9978Z" fill="#969696"/>
</svg>
