<svg width="24" height="24" viewBox="0 0 24 24" fill="none" xmlns="http://www.w3.org/2000/svg">
<path fill-rule="evenodd" clip-rule="evenodd" d="M12.3931 7.46875C13.424 7.46875 14.2598 8.35911 14.2598 9.45726C14.2598 10.5554 13.424 11.4458 12.3931 11.4458C11.3622 11.4458 10.5264 10.5554 10.5264 9.45726C10.5264 8.35911 11.3622 7.46875 12.3931 7.46875Z" fill="#9C9696"/>
<path fill-rule="evenodd" clip-rule="evenodd" d="M13.2909 15.4228V15.4229H8.28613V13.9381C8.28613 13.5229 8.51014 13.1454 8.86506 12.9741C9.51101 12.6629 10.6788 12.2415 12.2671 12.2413C12.2765 12.2412 12.286 12.2412 12.2954 12.2412C13.8844 12.2412 15.0527 12.6628 15.6988 12.974C16.0537 13.1453 16.2777 13.5229 16.2777 13.9381V15.4228H13.2909Z" fill="#9C9696"/>
<path d="M13.9037 2.61533C13.9037 1.80877 13.2553 1.14453 12.444 1.14453C11.6327 1.14453 10.9844 1.80877 10.9844 2.61533C10.9844 3.42189 11.6327 4.08613 12.444 4.08613C13.2553 4.08613 13.9037 3.42189 13.9037 2.61533Z" fill="#9C9696" stroke="#969696" stroke-linecap="square"/>
<path d="M13.9037 21.3839C13.9037 20.5773 13.2553 19.9131 12.444 19.9131C11.6327 19.9131 10.9844 20.5773 10.9844 21.3839C10.9844 22.1904 11.6327 22.8547 12.444 22.8547C13.2553 22.8547 13.9037 22.1904 13.9037 21.3839Z" fill="#9C9696" stroke="#969696" stroke-linecap="square"/>
<path d="M6.86655 5.2042C6.86655 4.39764 6.21821 3.7334 5.40691 3.7334C4.59561 3.7334 3.94727 4.39764 3.94727 5.2042C3.94727 6.01076 4.59561 6.675 5.40691 6.675C6.21821 6.675 6.86655 6.01076 6.86655 5.2042Z" fill="#9C9696" stroke="#969696" stroke-linecap="square"/>
<path d="M20.3021 5.2042C20.3021 4.39764 19.6538 3.7334 18.8425 3.7334C18.0312 3.7334 17.3828 4.39764 17.3828 5.2042C17.3828 6.01076 18.0312 6.675 18.8425 6.675C19.6538 6.675 20.3021 6.01076 20.3021 5.2042Z" fill="#9C9696" stroke="#969696" stroke-linecap="square"/>
<path d="M6.2269 18.1476C6.2269 17.341 5.57856 16.6768 4.76726 16.6768C3.95596 16.6768 3.30762 17.341 3.30762 18.1476C3.30762 18.9541 3.95596 19.6184 4.76726 19.6184C5.57856 19.6184 6.2269 18.9541 6.2269 18.1476Z" fill="#9C9696" stroke="#969696" stroke-linecap="square"/>
<path d="M3.98179 11.6759C3.98179 10.8693 3.33344 10.2051 2.52214 10.2051C1.71084 10.2051 1.0625 10.8693 1.0625 11.6759C1.0625 12.4824 1.71084 13.1467 2.52214 13.1467C3.33344 13.1467 3.98179 12.4824 3.98179 11.6759Z" fill="#9C9696" stroke="#969696" stroke-linecap="square"/>
<path d="M23.5003 11.6759C23.5003 10.8693 22.852 10.2051 22.0407 10.2051C21.2294 10.2051 20.5811 10.8693 20.5811 11.6759C20.5811 12.4824 21.2294 13.1467 22.0407 13.1467C22.852 13.1467 23.5003 12.4824 23.5003 11.6759Z" fill="#9C9696" stroke="#969696" stroke-linecap="square"/>
<path d="M20.9417 18.1476C20.9417 17.341 20.2934 16.6768 19.4821 16.6768C18.6708 16.6768 18.0225 17.341 18.0225 18.1476C18.0225 18.9541 18.6708 19.6184 19.4821 19.6184C20.2934 19.6184 20.9417 18.9541 20.9417 18.1476Z" fill="#9C9696" stroke="#969696" stroke-linecap="square"/>
</svg>
