<svg width="24" height="24" viewBox="0 0 24 24" fill="none" xmlns="http://www.w3.org/2000/svg">
<rect x="1.45898" y="4.5" width="21.041" height="16" rx="2" fill="white"/>
<path d="M13.75 11.6111H19.875V7.16667H13.75V11.6111ZM16.8125 10.5L14.625 8.94444V8.05556L16.8125 9.61111L19 8.05556V8.94444L16.8125 10.5ZM3.25 20.5C2.76875 20.5 2.35677 20.3259 2.01406 19.9778C1.67135 19.6296 1.5 19.2111 1.5 18.7222V6.27778C1.5 5.78889 1.67135 5.37037 2.01406 5.02222C2.35677 4.67407 2.76875 4.5 3.25 4.5H20.75C21.2313 4.5 21.6432 4.67407 21.9859 5.02222C22.3286 5.37037 22.5 5.78889 22.5 6.27778V18.7222C22.5 19.2111 22.3286 19.6296 21.9859 19.9778C21.6432 20.3259 21.2313 20.5 20.75 20.5H3.25ZM9.375 14.2778C10.1042 14.2778 10.724 14.0185 11.2344 13.5C11.7448 12.9815 12 12.3519 12 11.6111C12 10.8704 11.7448 10.2407 11.2344 9.72222C10.724 9.2037 10.1042 8.94444 9.375 8.94444C8.64583 8.94444 8.02604 9.2037 7.51562 9.72222C7.00521 10.2407 6.75 10.8704 6.75 11.6111C6.75 12.3519 7.00521 12.9815 7.51562 13.5C8.02604 14.0185 8.64583 14.2778 9.375 14.2778ZM3.3375 18.7222H15.4125C14.8 17.6111 13.9542 16.7407 12.875 16.1111C11.7958 15.4815 10.6292 15.1667 9.375 15.1667C8.12083 15.1667 6.95417 15.4815 5.875 16.1111C4.79583 16.7407 3.95 17.6111 3.3375 18.7222Z" fill="#969696"/>
</svg>
