<svg width="13" height="13" viewBox="0 0 13 13" fill="none" xmlns="http://www.w3.org/2000/svg">
<circle cx="6.5" cy="6.50098" r="5.5" stroke="#222020"/>
<path d="M6.41412 7.35849C5.42392 7.35849 4.62121 6.56732 4.62121 5.59136C4.62121 4.61539 5.42392 3.82422 6.41412 3.82422C7.40432 3.82422 8.20703 4.61539 8.20703 5.59136C8.20703 6.56732 7.40432 7.35849 6.41412 7.35849Z" fill="#222020"/>
<path fill-rule="evenodd" clip-rule="evenodd" d="M10 9.56694C10 8.3918 7.61095 7.7998 6.41418 7.7998C5.21741 7.7998 2.82836 8.3918 2.82836 9.56694V10.8923H4.00579C4.002 10.9277 4.00006 10.9636 4.00006 11C4.00006 11.5523 4.44778 12 5.00006 12H8.00006C8.55235 12 9.00006 11.5523 9.00006 11C9.00006 10.9636 8.99812 10.9277 8.99433 10.8923H10V9.56694Z" fill="#222020"/>
</svg>
