<svg width="11" height="7" viewBox="0 0 11 7" fill="none" xmlns="http://www.w3.org/2000/svg">
<path d="M0.62309 0.762404C0.798027 0.587468 1.02067 0.5 1.29103 0.5C1.56139 0.5 1.78403 0.587468 1.95897 0.762404L5.68034 4.48378L9.40172 0.762404C9.57665 0.587468 9.7993 0.5 10.0697 0.5C10.34 0.5 10.5627 0.587468 10.7376 0.762405C10.9125 0.937341 11 1.15999 11 1.43034C11 1.7007 10.9125 1.92335 10.7376 2.09828L6.34828 6.48759C6.25286 6.58301 6.14949 6.6506 6.03817 6.69036C5.92684 6.73012 5.80757 6.75 5.68034 6.75C5.55312 6.75 5.43384 6.73012 5.32252 6.69036C5.21119 6.6506 5.10782 6.58301 5.0124 6.48759L0.62309 2.09828C0.448153 1.92335 0.360685 1.7007 0.360685 1.43034C0.360685 1.15999 0.448153 0.93734 0.62309 0.762404Z" fill="#9C9696"/>
</svg>
