<svg width="7" height="11" viewBox="0 0 7 11" fill="none" xmlns="http://www.w3.org/2000/svg">
<path d="M6.2376 0.62309C6.41253 0.798027 6.5 1.02067 6.5 1.29103C6.5 1.56139 6.41253 1.78403 6.2376 1.95897L2.51622 5.68034L6.2376 9.40172C6.41253 9.57665 6.5 9.7993 6.5 10.0697C6.5 10.34 6.41253 10.5627 6.2376 10.7376C6.06266 10.9125 5.84001 11 5.56966 11C5.2993 11 5.07665 10.9125 4.90172 10.7376L0.512405 6.34828C0.416985 6.25286 0.349396 6.14949 0.309638 6.03817C0.26988 5.92684 0.25 5.80757 0.25 5.68034C0.25 5.55312 0.26988 5.43384 0.309638 5.32252C0.349396 5.21119 0.416986 5.10782 0.512405 5.0124L4.90172 0.62309C5.07665 0.448153 5.2993 0.360685 5.56966 0.360685C5.84001 0.360685 6.06266 0.448153 6.2376 0.62309Z" fill="#9C9696"/>
</svg>
