<svg width="7" height="11" viewBox="0 0 7 11" fill="none" xmlns="http://www.w3.org/2000/svg">
<path d="M0.762404 0.62309C0.587467 0.798027 0.499999 1.02067 0.499999 1.29103C0.499999 1.56139 0.587467 1.78403 0.762404 1.95897L4.48378 5.68034L0.762404 9.40172C0.587468 9.57665 0.5 9.7993 0.5 10.0697C0.5 10.34 0.587468 10.5627 0.762405 10.7376C0.937341 10.9125 1.15999 11 1.43034 11C1.7007 11 1.92335 10.9125 2.09828 10.7376L6.48759 6.34828C6.58301 6.25286 6.6506 6.14949 6.69036 6.03817C6.73012 5.92684 6.75 5.80757 6.75 5.68034C6.75 5.55312 6.73012 5.43384 6.69036 5.32252C6.6506 5.21119 6.58301 5.10782 6.48759 5.0124L2.09828 0.62309C1.92335 0.448153 1.7007 0.360685 1.43034 0.360685C1.15999 0.360685 0.93734 0.448153 0.762404 0.62309Z" fill="#9C9696"/>
</svg>
