<svg width="20" height="20" viewBox="0 0 20 20" fill="none" xmlns="http://www.w3.org/2000/svg">
<mask id="mask0_6542_131256" style="mask-type:alpha" maskUnits="userSpaceOnUse" x="0" y="0" width="20" height="20">
<rect width="20" height="20" fill="#D9D9D9"/>
</mask>
<g mask="url(#mask0_6542_131256)">
<path d="M13.5 17.0833L15.8333 14.75V16.6667H16.6667V13.3333H13.3333V14.1667H15.25L12.9167 16.5L13.5 17.0833ZM15 19.1667C13.8472 19.1667 12.8646 18.7604 12.0521 17.9479C11.2396 17.1354 10.8333 16.1528 10.8333 15C10.8333 13.8472 11.2396 12.8646 12.0521 12.0521C12.8646 11.2396 13.8472 10.8333 15 10.8333C16.1528 10.8333 17.1354 11.2396 17.9479 12.0521C18.7604 12.8646 19.1667 13.8472 19.1667 15C19.1667 16.1528 18.7604 17.1354 17.9479 17.9479C17.1354 18.7604 16.1528 19.1667 15 19.1667ZM5.83333 7.5H14.1667V5.83333H5.83333V7.5ZM9.72917 17.5H4.16667C3.70833 17.5 3.31597 17.3368 2.98958 17.0104C2.66319 16.684 2.5 16.2917 2.5 15.8333V4.16667C2.5 3.70833 2.66319 3.31597 2.98958 2.98958C3.31597 2.66319 3.70833 2.5 4.16667 2.5H15.8333C16.2917 2.5 16.684 2.66319 17.0104 2.98958C17.3368 3.31597 17.5 3.70833 17.5 4.16667V9.75C17.0972 9.55556 16.691 9.40972 16.2812 9.3125C15.8715 9.21528 15.4444 9.16667 15 9.16667C14.8472 9.16667 14.7049 9.17014 14.5729 9.17708C14.441 9.18403 14.3056 9.20139 14.1667 9.22917V9.16667H5.83333V10.8333H10.9375C10.6875 11.0694 10.4618 11.3264 10.2604 11.6042C10.059 11.8819 9.88194 12.1806 9.72917 12.5H5.83333V14.1667H9.22917C9.20139 14.3056 9.18403 14.441 9.17708 14.5729C9.17014 14.7049 9.16667 14.8472 9.16667 15C9.16667 15.4583 9.20833 15.8854 9.29167 16.2812C9.375 16.6771 9.52083 17.0833 9.72917 17.5Z" fill="#EE4136"/>
</g>
</svg>
