<svg width="10" height="19" viewBox="0 0 10 19" fill="none" xmlns="http://www.w3.org/2000/svg">
<path d="M9.58015 1.3989C9.86005 1.67879 10 2.03503 10 2.4676C10 2.90017 9.86005 3.2564 9.58015 3.5363L3.62595 9.4905L9.58015 15.4447C9.86005 15.7246 10 16.0808 10 16.5134C10 16.946 9.86005 17.3022 9.58015 17.5821C9.30025 17.862 8.94402 18.002 8.51145 18.002C8.07888 18.002 7.72265 17.862 7.44275 17.5821L0.419848 10.5592C0.267176 10.4065 0.159033 10.2411 0.0954206 10.063C0.0318067 9.8849 7.11475e-07 9.69406 7.28908e-07 9.4905C7.4634e-07 9.28694 0.0318068 9.0961 0.0954207 8.91798C0.159034 8.73986 0.267176 8.57447 0.419848 8.4218L7.44275 1.3989C7.72265 1.119 8.07888 0.979048 8.51145 0.979048C8.94402 0.979048 9.30026 1.119 9.58015 1.3989Z" fill="#9C9696"/>
</svg>
