<svg width="17" height="17" viewBox="0 0 17 17" fill="none" xmlns="http://www.w3.org/2000/svg">
<path d="M8.23965 13.5169C8.5176 13.5169 8.75253 13.4209 8.94445 13.229C9.13637 13.0371 9.23233 12.8022 9.23233 12.5242C9.23233 12.2463 9.13637 12.0113 8.94445 11.8194C8.75253 11.6275 8.5176 11.5315 8.23965 11.5315C7.96169 11.5315 7.72676 11.6275 7.53484 11.8194C7.34292 12.0113 7.24696 12.2463 7.24696 12.5242C7.24696 12.8022 7.34292 13.0371 7.53484 13.229C7.72676 13.4209 7.96169 13.5169 8.23965 13.5169ZM7.52491 10.4594H8.99409C8.99409 10.0226 9.04372 9.67851 9.14299 9.42703C9.24226 9.17555 9.52352 8.83142 9.98677 8.39464C10.3309 8.05051 10.6022 7.72293 10.8008 7.41189C10.9993 7.10085 11.0986 6.72694 11.0986 6.29016C11.0986 5.54895 10.8272 4.97981 10.2846 4.58274C9.74191 4.18567 9.09997 3.98713 8.35877 3.98713C7.60433 3.98713 6.99217 4.18567 6.5223 4.58274C6.05243 4.97981 5.72485 5.4563 5.53955 6.01221L6.84989 6.5284C6.91607 6.29016 7.06497 6.03206 7.2966 5.75411C7.52822 5.47616 7.88228 5.33718 8.35877 5.33718C8.78231 5.33718 9.09997 5.45299 9.31174 5.68462C9.52352 5.91625 9.6294 6.17103 9.6294 6.44899C9.6294 6.7137 9.54999 6.96187 9.39116 7.1935C9.23233 7.42512 9.03379 7.6402 8.79555 7.83874C8.21317 8.35494 7.85581 8.74539 7.72345 9.01011C7.59109 9.27482 7.52491 9.75793 7.52491 10.4594ZM8.27935 16.6935C7.18078 16.6935 6.14839 16.485 5.18218 16.0681C4.21597 15.6512 3.3755 15.0853 2.66077 14.3706C1.94604 13.6559 1.38021 12.8154 0.963281 11.8492C0.546354 10.883 0.337891 9.85058 0.337891 8.75201C0.337891 7.65344 0.546354 6.62105 0.963281 5.65484C1.38021 4.68863 1.94604 3.84816 2.66077 3.13342C3.3755 2.41869 4.21597 1.85286 5.18218 1.43594C6.14839 1.01901 7.18078 0.810547 8.27935 0.810547C9.37792 0.810547 10.4103 1.01901 11.3765 1.43594C12.3427 1.85286 13.1832 2.41869 13.8979 3.13342C14.6127 3.84816 15.1785 4.68863 15.5954 5.65484C16.0124 6.62105 16.2208 7.65344 16.2208 8.75201C16.2208 9.85058 16.0124 10.883 15.5954 11.8492C15.1785 12.8154 14.6127 13.6559 13.8979 14.3706C13.1832 15.0853 12.3427 15.6512 11.3765 16.0681C10.4103 16.485 9.37792 16.6935 8.27935 16.6935ZM8.27935 15.1052C10.0529 15.1052 11.5552 14.4897 12.7861 13.2588C14.0171 12.0279 14.6325 10.5256 14.6325 8.75201C14.6325 6.97842 14.0171 5.47616 12.7861 4.24523C11.5552 3.0143 10.0529 2.39884 8.27935 2.39884C6.50576 2.39884 5.0035 3.0143 3.77257 4.24523C2.54165 5.47616 1.92618 6.97842 1.92618 8.75201C1.92618 10.5256 2.54165 12.0279 3.77257 13.2588C5.0035 14.4897 6.50576 15.1052 8.27935 15.1052Z" fill="#9C9696"/>
</svg>
