<svg width="21" height="17" viewBox="0 0 21 17" fill="none" xmlns="http://www.w3.org/2000/svg">
<path fill-rule="evenodd" clip-rule="evenodd" d="M7.93571 2.11341C4.16449 2.11341 1.10731 5.17059 1.10731 8.94181C1.10731 12.713 4.16449 15.7702 7.93571 15.7702C11.7069 15.7702 14.7641 12.713 14.7641 8.94181C14.7641 5.17059 11.7069 2.11341 7.93571 2.11341ZM0 8.94181C0 4.55904 3.55294 1.0061 7.93571 1.0061C12.3185 1.0061 15.8714 4.55904 15.8714 8.94181C15.8714 13.3246 12.3185 16.8775 7.93571 16.8775C3.55294 16.8775 0 13.3246 0 8.94181Z" fill="black"/>
<path fill-rule="evenodd" clip-rule="evenodd" d="M0 8.93622C0 8.63045 0.247879 8.38257 0.553654 8.38257H15.3178C15.6235 8.38257 15.8714 8.63045 15.8714 8.93622C15.8714 9.242 15.6235 9.48988 15.3178 9.48988H0.553654C0.247879 9.48988 0 9.242 0 8.93622Z" fill="black"/>
<path fill-rule="evenodd" clip-rule="evenodd" d="M7.93616 1.0061C8.0917 1.0061 8.24006 1.07152 8.34495 1.18636C10.2819 3.30692 11.3827 6.05886 11.4425 8.93028C11.4427 8.93797 11.4427 8.94566 11.4425 8.95334C11.3827 11.8248 10.2819 14.5767 8.34495 16.6973C8.24006 16.8121 8.0917 16.8775 7.93616 16.8775C7.78063 16.8775 7.63227 16.8121 7.52738 16.6973C5.5904 14.5767 4.48963 11.8248 4.42981 8.95334C4.42965 8.94566 4.42965 8.93797 4.42981 8.93028C4.48963 6.05886 5.5904 3.30692 7.52738 1.18636C7.63227 1.07152 7.78063 1.0061 7.93616 1.0061ZM5.53712 8.94181C5.58947 11.3314 6.43704 13.6292 7.93616 15.4759C9.43529 13.6292 10.2829 11.3314 10.3352 8.94181C10.2829 6.5522 9.43529 4.25447 7.93616 2.40775C6.43704 4.25447 5.58947 6.5522 5.53712 8.94181Z" fill="black"/>
<path d="M19.4281 3.44496C19.3953 3.51918 19.3855 3.60151 19.4 3.68133C19.4145 3.76115 19.4525 3.83481 19.5093 3.8928L19.524 3.90757C19.5698 3.95327 19.6061 4.00755 19.6308 4.0673C19.6556 4.12704 19.6684 4.19108 19.6684 4.25576C19.6684 4.32043 19.6556 4.38447 19.6308 4.44421C19.6061 4.50396 19.5698 4.55824 19.524 4.60394C19.4783 4.6497 19.424 4.686 19.3643 4.71077C19.3045 4.73553 19.2405 4.74828 19.1758 4.74828C19.1112 4.74828 19.0471 4.73553 18.9874 4.71077C18.9276 4.686 18.8734 4.6497 18.8276 4.60394L18.8129 4.58918C18.7549 4.53245 18.6812 4.4944 18.6014 4.47992C18.5216 4.46545 18.4393 4.47522 18.365 4.50798C18.2923 4.53917 18.2302 4.59096 18.1865 4.65698C18.1427 4.723 18.1193 4.80036 18.119 4.87954V4.92137C18.119 5.05189 18.0671 5.17707 17.9748 5.26936C17.8825 5.36166 17.7574 5.41351 17.6268 5.41351C17.4963 5.41351 17.3711 5.36166 17.2788 5.26936C17.1865 5.17707 17.1347 5.05189 17.1347 4.92137V4.89922C17.1328 4.81778 17.1064 4.73879 17.059 4.67252C17.0116 4.60626 16.9454 4.55578 16.8689 4.52766C16.7947 4.49491 16.7124 4.48513 16.6326 4.49961C16.5527 4.51408 16.4791 4.55214 16.4211 4.60886L16.4063 4.62363C16.3606 4.66939 16.3063 4.70568 16.2466 4.73045C16.1869 4.75522 16.1228 4.76797 16.0581 4.76797C15.9935 4.76797 15.9294 4.75522 15.8697 4.73045C15.8099 4.70568 15.7557 4.66939 15.71 4.62363C15.6642 4.57792 15.6279 4.52364 15.6031 4.4639C15.5784 4.40416 15.5656 4.34012 15.5656 4.27544C15.5656 4.21077 15.5784 4.14673 15.6031 4.08698C15.6279 4.02724 15.6642 3.97296 15.71 3.92725L15.7247 3.91249C15.7814 3.8545 15.8195 3.78084 15.834 3.70102C15.8484 3.62119 15.8387 3.53886 15.8059 3.46464C15.7747 3.39187 15.7229 3.3298 15.6569 3.28607C15.5909 3.24235 15.5135 3.21889 15.4344 3.21858H15.3925C15.262 3.21858 15.1368 3.16673 15.0445 3.07443C14.9522 2.98214 14.9004 2.85696 14.9004 2.72644C14.9004 2.59592 14.9522 2.47074 15.0445 2.37845C15.1368 2.28615 15.262 2.2343 15.3925 2.2343H15.4147C15.4961 2.2324 15.5751 2.20603 15.6414 2.15864C15.7076 2.11124 15.7581 2.04501 15.7862 1.96855C15.819 1.89433 15.8288 1.812 15.8143 1.73218C15.7998 1.65235 15.7618 1.5787 15.705 1.5207L15.6903 1.50594C15.6445 1.46023 15.6082 1.40596 15.5834 1.34621C15.5587 1.28647 15.5459 1.22243 15.5459 1.15775C15.5459 1.09308 15.5587 1.02904 15.5834 0.969293C15.6082 0.909549 15.6445 0.855272 15.6903 0.809565C15.736 0.763808 15.7903 0.727509 15.85 0.702742C15.9097 0.677976 15.9738 0.665228 16.0385 0.665228C16.1031 0.665228 16.1672 0.677976 16.2269 0.702742C16.2867 0.727509 16.3409 0.763808 16.3866 0.809565L16.4014 0.82433C16.4594 0.881057 16.5331 0.919112 16.6129 0.933585C16.6927 0.948059 16.775 0.938288 16.8493 0.905532H16.8689C16.9417 0.87434 17.0038 0.822547 17.0475 0.756529C17.0912 0.690511 17.1147 0.61315 17.115 0.533969V0.492137C17.115 0.361614 17.1669 0.236437 17.2592 0.144144C17.3514 0.05185 17.4766 0 17.6071 0C17.7377 0 17.8628 0.05185 17.9551 0.144144C18.0474 0.236437 18.0993 0.361614 18.0993 0.492137V0.514283C18.0996 0.593465 18.1231 0.670826 18.1668 0.736844C18.2105 0.802862 18.2726 0.854654 18.3454 0.885847C18.4196 0.918602 18.5019 0.928373 18.5817 0.9139C18.6615 0.899426 18.7352 0.861372 18.7932 0.804644L18.808 0.78988C18.8537 0.744123 18.9079 0.707823 18.9677 0.683057C19.0274 0.65829 19.0915 0.645543 19.1561 0.645543C19.2208 0.645543 19.2849 0.65829 19.3446 0.683057C19.4043 0.707823 19.4586 0.744123 19.5043 0.78988C19.5501 0.835586 19.5864 0.889863 19.6112 0.949608C19.6359 1.00935 19.6487 1.07339 19.6487 1.13807C19.6487 1.20274 19.6359 1.26678 19.6112 1.32653C19.5864 1.38627 19.5501 1.44055 19.5043 1.48625L19.4896 1.50102C19.4328 1.55901 19.3948 1.63267 19.3803 1.71249C19.3658 1.79232 19.3756 1.87464 19.4084 1.94886V1.96855C19.4396 2.04133 19.4914 2.1034 19.5574 2.14712C19.6234 2.19084 19.7007 2.2143 19.7799 2.21462H19.8218C19.9523 2.21462 20.0775 2.26647 20.1698 2.35876C20.262 2.45105 20.3139 2.57623 20.3139 2.70675C20.3139 2.83728 20.262 2.96245 20.1698 3.05475C20.0775 3.14704 19.9523 3.19889 19.8218 3.19889H19.7996C19.7204 3.19921 19.6431 3.22267 19.5771 3.26639C19.511 3.31011 19.4592 3.37218 19.4281 3.44496Z" fill="black"/>
<path d="M17.6073 3.44223C18.015 3.44223 18.3456 3.11173 18.3456 2.70403C18.3456 2.29633 18.015 1.96582 17.6073 1.96582C17.1996 1.96582 16.8691 2.29633 16.8691 2.70403C16.8691 3.11173 17.1996 3.44223 17.6073 3.44223Z" fill="white"/>
<path fill-rule="evenodd" clip-rule="evenodd" d="M17.6073 2.21821C17.3355 2.21821 17.1152 2.43855 17.1152 2.71035C17.1152 2.98215 17.3355 3.20249 17.6073 3.20249C17.8791 3.20249 18.0995 2.98215 18.0995 2.71035C18.0995 2.43855 17.8791 2.21821 17.6073 2.21821ZM16.623 2.71035C16.623 2.16675 17.0637 1.72607 17.6073 1.72607C18.1509 1.72607 18.5916 2.16675 18.5916 2.71035C18.5916 3.25395 18.1509 3.69462 17.6073 3.69462C17.0637 3.69462 16.623 3.25395 16.623 2.71035Z" fill="white"/>
</svg>
