<svg width="22" height="5" viewBox="0 0 22 5" fill="none" xmlns="http://www.w3.org/2000/svg">
<path fill-rule="evenodd" clip-rule="evenodd" d="M19.2157 4.48828C17.9775 4.48828 16.9725 3.48331 16.9725 2.24503C16.9725 1.00676 17.9775 0.00178656 19.2157 0.00178661C20.454 0.00178666 21.459 1.00676 21.459 2.24503C21.459 3.48331 20.454 4.48828 19.2157 4.48828Z" fill="#9C9696"/>
<path fill-rule="evenodd" clip-rule="evenodd" d="M10.7294 4.48828C9.49114 4.48828 8.48616 3.48331 8.48616 2.24503C8.48616 1.00676 9.49114 0.00178656 10.7294 0.00178661C11.9677 0.00178666 12.9727 1.00676 12.9727 2.24503C12.9727 3.48331 11.9677 4.48828 10.7294 4.48828Z" fill="#9C9696"/>
<path fill-rule="evenodd" clip-rule="evenodd" d="M2.24308 4.48828C1.00481 4.48828 -0.000166372 3.48331 -0.000166318 2.24503C-0.000166264 1.00676 1.00481 0.00178656 2.24308 0.00178661C3.48135 0.00178666 4.48633 1.00676 4.48633 2.24503C4.48633 3.48331 3.48135 4.48828 2.24308 4.48828Z" fill="#9C9696"/>
</svg>
