<svg width="21" height="21" viewBox="0 0 21 21" fill="none" xmlns="http://www.w3.org/2000/svg">
<path d="M3.25342 17.462V15.562H5.15342V8.91201C5.15342 7.59785 5.54925 6.42998 6.34092 5.40841C7.13258 4.38748 8.16175 3.71868 9.42842 3.40201V2.73701C9.42842 2.34118 9.56712 2.00488 9.84452 1.72811C10.1213 1.45071 10.4576 1.31201 10.8534 1.31201C11.2493 1.31201 11.5856 1.45071 11.8623 1.72811C12.1397 2.00488 12.2784 2.34118 12.2784 2.73701V3.40201C13.5451 3.71868 14.5743 4.38748 15.3659 5.40841C16.1576 6.42998 16.5534 7.59785 16.5534 8.91201V15.562H18.4534V17.462H3.25342ZM10.8534 20.312C10.3309 20.312 9.88378 20.1261 9.51202 19.7544C9.13962 19.382 8.95342 18.9345 8.95342 18.412H12.7534C12.7534 18.9345 12.5675 19.382 12.1958 19.7544C11.8234 20.1261 11.3759 20.312 10.8534 20.312Z" fill="#9C9696"/>
</svg>
