<svg width="20" height="14" viewBox="0 0 20 14" fill="none" xmlns="http://www.w3.org/2000/svg">
<path d="M14.9987 8.66829V6.16829H12.4987V4.50163H14.9987V2.00163H16.6654V4.50163H19.1654V6.16829H16.6654V8.66829H14.9987ZM7.4987 7.00163C6.58203 7.00163 5.79731 6.67524 5.14453 6.02246C4.49175 5.36968 4.16536 4.58496 4.16536 3.66829C4.16536 2.75163 4.49175 1.96691 5.14453 1.31413C5.79731 0.66135 6.58203 0.334961 7.4987 0.334961C8.41536 0.334961 9.20009 0.66135 9.85287 1.31413C10.5056 1.96691 10.832 2.75163 10.832 3.66829C10.832 4.58496 10.5056 5.36968 9.85287 6.02246C9.20009 6.67524 8.41536 7.00163 7.4987 7.00163ZM0.832031 13.6683V11.335C0.832031 10.8627 0.953559 10.4287 1.19661 10.0329C1.43967 9.63704 1.76259 9.33496 2.16536 9.12663C3.02648 8.69607 3.90148 8.37316 4.79036 8.15788C5.67925 7.9426 6.58203 7.83496 7.4987 7.83496C8.41536 7.83496 9.31814 7.9426 10.207 8.15788C11.0959 8.37316 11.9709 8.69607 12.832 9.12663C13.2348 9.33496 13.5577 9.63704 13.8008 10.0329C14.0438 10.4287 14.1654 10.8627 14.1654 11.335V13.6683H0.832031Z" fill="#EE4136"/>
</svg>
