<svg width="16" height="17" viewBox="0 0 16 17" fill="none" xmlns="http://www.w3.org/2000/svg">
<path fill-rule="evenodd" clip-rule="evenodd" d="M3.33333 3C2.8731 3 2.5 3.3731 2.5 3.83333V13.1667C2.5 13.6269 2.8731 14 3.33333 14H12.6667C13.1269 14 13.5 13.6269 13.5 13.1667V3.83333C13.5 3.3731 13.1269 3 12.6667 3H3.33333ZM1.5 3.83333C1.5 2.82081 2.32081 2 3.33333 2H12.6667C13.6792 2 14.5 2.82081 14.5 3.83333V13.1667C14.5 14.1792 13.6792 15 12.6667 15H3.33333C2.32081 15 1.5 14.1792 1.5 13.1667V3.83333Z" fill="black"/>
<path fill-rule="evenodd" clip-rule="evenodd" d="M8 5.33325C8.27614 5.33325 8.5 5.55711 8.5 5.83325V11.1666C8.5 11.4427 8.27614 11.6666 8 11.6666C7.72386 11.6666 7.5 11.4427 7.5 11.1666V5.83325C7.5 5.55711 7.72386 5.33325 8 5.33325Z" fill="black"/>
<path fill-rule="evenodd" clip-rule="evenodd" d="M4.83398 8.5C4.83398 8.22386 5.05784 8 5.33398 8H10.6673C10.9435 8 11.1673 8.22386 11.1673 8.5C11.1673 8.77614 10.9435 9 10.6673 9H5.33398C5.05784 9 4.83398 8.77614 4.83398 8.5Z" fill="black"/>
</svg>
