<svg width="14" height="14" viewBox="0 0 14 14" fill="none" xmlns="http://www.w3.org/2000/svg">
<path d="M7.00065 13.6668C5.13954 13.6668 3.56315 13.021 2.27148 11.7293C0.979818 10.4377 0.333984 8.86127 0.333984 7.00016C0.333984 5.13905 0.979818 3.56266 2.27148 2.271C3.56315 0.979329 5.13954 0.333496 7.00065 0.333496C7.95898 0.333496 8.87565 0.531413 9.75065 0.927246C10.6257 1.32308 11.3757 1.88905 12.0007 2.62516V0.333496H13.6673V6.16683H7.83398V4.50016H11.334C10.8895 3.72238 10.2819 3.11127 9.51107 2.66683C8.74023 2.22238 7.90343 2.00016 7.00065 2.00016C5.61176 2.00016 4.43121 2.48627 3.45898 3.4585C2.48676 4.43072 2.00065 5.61127 2.00065 7.00016C2.00065 8.38905 2.48676 9.56961 3.45898 10.5418C4.43121 11.5141 5.61176 12.0002 7.00065 12.0002C8.0701 12.0002 9.03537 11.6946 9.89648 11.0835C10.7576 10.4724 11.3618 9.66683 11.709 8.66683H13.459C13.0701 10.1391 12.2784 11.3404 11.084 12.271C9.88954 13.2016 8.52843 13.6668 7.00065 13.6668Z" fill="#EE4136"/>
</svg>
