<svg width="16" height="16" viewBox="0 0 16 16" fill="none" xmlns="http://www.w3.org/2000/svg">
<path fill-rule="evenodd" clip-rule="evenodd" d="M10.7128 10.0632H11.4352L16 14.6368L14.6368 16L10.0632 11.4352V10.712L9.816 10.456C8.7728 11.3528 7.4184 11.8928 5.9464 11.8928C2.6624 11.8928 0 9.2304 0 5.9464C0 2.6624 2.6624 0 5.9464 0C9.2304 0 11.8928 2.6624 11.8928 5.9464C11.8928 7.4192 11.3528 8.7728 10.4568 9.8152L10.7128 10.0632ZM1.8296 5.9464C1.8296 8.224 3.668 10.0632 5.9464 10.0632C8.224 10.0632 10.0632 8.224 10.0632 5.9464C10.0632 3.668 8.224 1.8296 5.9464 1.8296C3.668 1.8296 1.8296 3.668 1.8296 5.9464Z" fill="#EE4136"/>
</svg>
