<svg width="16" height="9" viewBox="0 0 16 9" fill="none" xmlns="http://www.w3.org/2000/svg">
<path fill-rule="evenodd" clip-rule="evenodd" d="M4.36365 0C6.26183 0 7.87274 1.21455 8.47274 2.9091H16V5.81819H14.5455V8.72729H11.6364V5.81819H8.47274C7.87274 7.51274 6.26183 8.72729 4.36365 8.72729C1.95273 8.72729 0 6.77456 0 4.36365C0 1.95273 1.95273 0 4.36365 0ZM2.90935 4.3639C2.90935 5.16754 3.56027 5.81845 4.3639 5.81845C5.16754 5.81845 5.81845 5.16754 5.81845 4.3639C5.81845 3.56027 5.16754 2.90935 4.3639 2.90935C3.56027 2.90935 2.90935 3.56027 2.90935 4.3639Z" fill="#EE4136"/>
</svg>
