<svg width="22" height="22" viewBox="0 0 22 22" fill="none" xmlns="http://www.w3.org/2000/svg">
<mask id="mask0_4270_131304" style="mask-type:alpha" maskUnits="userSpaceOnUse" x="0" y="0" width="22" height="22">
<rect width="22" height="22" fill="#D9D9D9"/>
</mask>
<g mask="url(#mask0_4270_131304)">
<path d="M14.6667 12.8337C13.9028 12.8337 13.2535 12.5663 12.7187 12.0316C12.184 11.4969 11.9167 10.8475 11.9167 10.0837C11.9167 9.31977 12.184 8.67046 12.7187 8.13574C13.2535 7.60102 13.9028 7.33366 14.6667 7.33366C15.4306 7.33366 16.0799 7.60102 16.6146 8.13574C17.1493 8.67046 17.4167 9.31977 17.4167 10.0837C17.4167 10.8475 17.1493 11.4969 16.6146 12.0316C16.0799 12.5663 15.4306 12.8337 14.6667 12.8337ZM9.16667 18.3337V16.592C9.16667 16.2712 9.24306 15.9656 9.39583 15.6753C9.54861 15.385 9.7625 15.1559 10.0375 14.9878C10.725 14.5753 11.4545 14.266 12.226 14.0597C12.9976 13.8535 13.8111 13.7503 14.6667 13.7503C15.5222 13.7503 16.3358 13.8535 17.1073 14.0597C17.8788 14.266 18.6083 14.5753 19.2958 14.9878C19.5708 15.1559 19.7847 15.385 19.9375 15.6753C20.0903 15.9656 20.1667 16.2712 20.1667 16.592V18.3337H9.16667ZM2.75 12.8337V11.0003H10.0833V12.8337H2.75ZM2.75 5.50033V3.66699H13.75V5.50033H2.75ZM10.175 9.16699H2.75V7.33366H11C10.7861 7.59338 10.6142 7.87602 10.4844 8.18158C10.3545 8.48713 10.2514 8.8156 10.175 9.16699Z" fill="#1C1B1F"/>
</g>
</svg>
