<svg width="16" height="16" viewBox="0 0 16 16" fill="none" xmlns="http://www.w3.org/2000/svg">
<path fill-rule="evenodd" clip-rule="evenodd" d="M1.09351 10.4275C1.68738 9.83363 2.49283 9.5 3.33268 9.5H7.99935C8.8392 9.5 9.64466 9.83363 10.2385 10.4275C10.8324 11.0214 11.166 11.8268 11.166 12.6667V14C11.166 14.2761 10.9422 14.5 10.666 14.5C10.3899 14.5 10.166 14.2761 10.166 14V12.6667C10.166 12.092 9.93774 11.5409 9.53141 11.1346C9.12508 10.7283 8.57399 10.5 7.99935 10.5H3.33268C2.75805 10.5 2.20695 10.7283 1.80062 11.1346C1.39429 11.5409 1.16602 12.092 1.16602 12.6667V14C1.16602 14.2761 0.942158 14.5 0.666016 14.5C0.389873 14.5 0.166016 14.2761 0.166016 14V12.6667C0.166016 11.8268 0.499646 11.0214 1.09351 10.4275Z" fill="black"/>
<path fill-rule="evenodd" clip-rule="evenodd" d="M5.66667 2.5C4.47005 2.5 3.5 3.47005 3.5 4.66667C3.5 5.86328 4.47005 6.83333 5.66667 6.83333C6.86328 6.83333 7.83333 5.86328 7.83333 4.66667C7.83333 3.47005 6.86328 2.5 5.66667 2.5ZM2.5 4.66667C2.5 2.91777 3.91777 1.5 5.66667 1.5C7.41557 1.5 8.83333 2.91777 8.83333 4.66667C8.83333 6.41557 7.41557 7.83333 5.66667 7.83333C3.91777 7.83333 2.5 6.41557 2.5 4.66667Z" fill="black"/>
<path fill-rule="evenodd" clip-rule="evenodd" d="M10.834 7.33325C10.834 7.05711 11.0578 6.83325 11.334 6.83325H15.334C15.6101 6.83325 15.834 7.05711 15.834 7.33325C15.834 7.60939 15.6101 7.83325 15.334 7.83325H11.334C11.0578 7.83325 10.834 7.60939 10.834 7.33325Z" fill="black"/>
</svg>
