<svg width="16" height="17" viewBox="0 0 16 17" fill="none" xmlns="http://www.w3.org/2000/svg">
<path fill-rule="evenodd" clip-rule="evenodd" d="M1.09351 10.9275C1.68738 10.3336 2.49283 10 3.33268 10H7.99935C8.8392 10 9.64466 10.3336 10.2385 10.9275C10.8324 11.5214 11.166 12.3268 11.166 13.1667V14.5C11.166 14.7761 10.9422 15 10.666 15C10.3899 15 10.166 14.7761 10.166 14.5V13.1667C10.166 12.592 9.93774 12.0409 9.53141 11.6346C9.12508 11.2283 8.57399 11 7.99935 11H3.33268C2.75805 11 2.20695 11.2283 1.80062 11.6346C1.39429 12.0409 1.16602 12.592 1.16602 13.1667V14.5C1.16602 14.7761 0.942158 15 0.666016 15C0.389873 15 0.166016 14.7761 0.166016 14.5V13.1667C0.166016 12.3268 0.499646 11.5214 1.09351 10.9275Z" fill="black"/>
<path fill-rule="evenodd" clip-rule="evenodd" d="M5.66667 3C4.47005 3 3.5 3.97005 3.5 5.16667C3.5 6.36328 4.47005 7.33333 5.66667 7.33333C6.86328 7.33333 7.83333 6.36328 7.83333 5.16667C7.83333 3.97005 6.86328 3 5.66667 3ZM2.5 5.16667C2.5 3.41777 3.91777 2 5.66667 2C7.41557 2 8.83333 3.41777 8.83333 5.16667C8.83333 6.91557 7.41557 8.33333 5.66667 8.33333C3.91777 8.33333 2.5 6.91557 2.5 5.16667Z" fill="black"/>
<path fill-rule="evenodd" clip-rule="evenodd" d="M13.334 5.33203C13.6101 5.33203 13.834 5.55589 13.834 5.83203V9.83203C13.834 10.1082 13.6101 10.332 13.334 10.332C13.0578 10.332 12.834 10.1082 12.834 9.83203V5.83203C12.834 5.55589 13.0578 5.33203 13.334 5.33203Z" fill="black"/>
<path fill-rule="evenodd" clip-rule="evenodd" d="M10.834 7.83203C10.834 7.55589 11.0578 7.33203 11.334 7.33203H15.334C15.6101 7.33203 15.834 7.55589 15.834 7.83203C15.834 8.10817 15.6101 8.33203 15.334 8.33203H11.334C11.0578 8.33203 10.834 8.10817 10.834 7.83203Z" fill="black"/>
</svg>
